<?xml version="1.0" encoding="UTF-8"?>
<!DOCTYPE svg PUBLIC "-//W3C//DTD SVG 1.1//EN" "http://www.w3.org/Graphics/SVG/1.1/DTD/svg11.dtd">
<svg xmlns="http://www.w3.org/2000/svg" version="1.1" width="512px" height="512px" style="shape-rendering:geometricPrecision; text-rendering:geometricPrecision; image-rendering:optimizeQuality; fill-rule:evenodd; clip-rule:evenodd" xmlns:xlink="http://www.w3.org/1999/xlink">
<g><path style="opacity:0.972" fill="#000000" d="M 59.5,-0.5 C 69.8333,-0.5 80.1667,-0.5 90.5,-0.5C 90.5,9.5 90.5,19.5 90.5,29.5C 90.1667,29.5 89.8333,29.5 89.5,29.5C 79.5,29.5 69.5,29.5 59.5,29.5C 59.5,19.5 59.5,9.5 59.5,-0.5 Z"/></g>
<g><path style="opacity:0.972" fill="#000000" d="M 420.5,-0.5 C 430.833,-0.5 441.167,-0.5 451.5,-0.5C 451.5,9.5 451.5,19.5 451.5,29.5C 441.5,29.5 431.5,29.5 421.5,29.5C 421.167,29.5 420.833,29.5 420.5,29.5C 420.5,19.5 420.5,9.5 420.5,-0.5 Z"/></g>
<g><path style="opacity:0.992" fill="#000000" d="M 59.5,29.5 C 59.5,39.5 59.5,49.5 59.5,59.5C 49.5,59.5 39.5,59.5 29.5,59.5C 29.5,49.5 29.5,39.5 29.5,29.5C 39.5,29.5 49.5,29.5 59.5,29.5 Z"/></g>
<g><path style="opacity:0.978" fill="#000000" d="M 90.5,29.5 C 100.5,29.5 110.5,29.5 120.5,29.5C 120.5,39.5 120.5,49.5 120.5,59.5C 120.167,59.5 119.833,59.5 119.5,59.5C 109.833,59.5 100.167,59.5 90.5,59.5C 90.5,49.5 90.5,39.5 90.5,29.5 Z"/></g>
<g><path style="opacity:0.993" fill="#9cceff" d="M 209.5,29.5 C 219.833,29.5 230.167,29.5 240.5,29.5C 240.5,39.8333 240.5,50.1667 240.5,60.5C 230.167,60.5 219.833,60.5 209.5,60.5C 209.5,50.1667 209.5,39.8333 209.5,29.5 Z"/></g>
<g><path style="opacity:0.993" fill="#9cceff" d="M 270.5,29.5 C 280.833,29.5 291.167,29.5 301.5,29.5C 301.5,39.8333 301.5,50.1667 301.5,60.5C 291.167,60.5 280.833,60.5 270.5,60.5C 270.5,50.1667 270.5,39.8333 270.5,29.5 Z"/></g>
<g><path style="opacity:0.978" fill="#000000" d="M 420.5,29.5 C 420.5,39.5 420.5,49.5 420.5,59.5C 410.833,59.5 401.167,59.5 391.5,59.5C 391.167,59.5 390.833,59.5 390.5,59.5C 390.5,49.5 390.5,39.5 390.5,29.5C 400.5,29.5 410.5,29.5 420.5,29.5 Z"/></g>
<g><path style="opacity:0.992" fill="#000000" d="M 451.5,29.5 C 461.5,29.5 471.5,29.5 481.5,29.5C 481.5,39.5 481.5,49.5 481.5,59.5C 471.5,59.5 461.5,59.5 451.5,59.5C 451.5,49.5 451.5,39.5 451.5,29.5 Z"/></g>
<g><path style="opacity:1" fill="#0089dd" d="M 59.5,29.5 C 69.5,29.5 79.5,29.5 89.5,29.5C 89.5,39.5 89.5,49.5 89.5,59.5C 79.5,59.5 69.5,59.5 59.5,59.5C 59.5,49.5 59.5,39.5 59.5,29.5 Z"/></g>
<g><path style="opacity:1" fill="#0089dd" d="M 421.5,29.5 C 431.5,29.5 441.5,29.5 451.5,29.5C 451.5,39.5 451.5,49.5 451.5,59.5C 441.5,59.5 431.5,59.5 421.5,59.5C 421.5,49.5 421.5,39.5 421.5,29.5 Z"/></g>
<g><path style="opacity:0.972" fill="#010304" d="M -0.5,59.5 C 9.5,59.5 19.5,59.5 29.5,59.5C 29.1726,69.6806 29.506,79.6806 30.5,89.5C 40.1667,89.5 49.8333,89.5 59.5,89.5C 59.5,89.8333 59.5,90.1667 59.5,90.5C 49.5,90.5 39.5,90.5 29.5,90.5C 19.5,90.5 9.5,90.5 -0.5,90.5C -0.5,80.1667 -0.5,69.8333 -0.5,59.5 Z"/></g>
<g><path style="opacity:0.959" fill="#000000" d="M 120.5,59.5 C 130.5,59.5 140.5,59.5 150.5,59.5C 150.5,69.8333 150.5,80.1667 150.5,90.5C 140.5,90.5 130.5,90.5 120.5,90.5C 120.5,80.1667 120.5,69.8333 120.5,59.5 Z"/></g>
<g><path style="opacity:0.959" fill="#000000" d="M 390.5,59.5 C 390.5,69.8333 390.5,80.1667 390.5,90.5C 380.5,90.5 370.5,90.5 360.5,90.5C 360.5,80.1667 360.5,69.8333 360.5,59.5C 370.5,59.5 380.5,59.5 390.5,59.5 Z"/></g>
<g><path style="opacity:1" fill="#0180a7" d="M 420.5,29.5 C 420.833,29.5 421.167,29.5 421.5,29.5C 421.5,39.5 421.5,49.5 421.5,59.5C 411.681,60.494 401.681,60.8274 391.5,60.5C 391.5,60.1667 391.5,59.8333 391.5,59.5C 401.167,59.5 410.833,59.5 420.5,59.5C 420.5,49.5 420.5,39.5 420.5,29.5 Z"/></g>
<g><path style="opacity:0.972" fill="#000000" d="M 481.5,59.5 C 491.5,59.5 501.5,59.5 511.5,59.5C 511.5,69.8333 511.5,80.1667 511.5,90.5C 501.5,90.5 491.5,90.5 481.5,90.5C 481.5,90.1667 481.5,89.8333 481.5,89.5C 481.5,79.5 481.5,69.5 481.5,59.5 Z"/></g>
<g><path style="opacity:1" fill="#00a1ca" d="M 29.5,59.5 C 39.5,59.5 49.5,59.5 59.5,59.5C 50.0144,60.4938 40.3478,60.8271 30.5,60.5C 30.5,70.1667 30.5,79.8333 30.5,89.5C 29.506,79.6806 29.1726,69.6806 29.5,59.5 Z"/></g>
<g><path style="opacity:1" fill="#00beef" d="M 59.5,59.5 C 69.5,59.5 79.5,59.5 89.5,59.5C 89.5,69.5 89.5,79.5 89.5,89.5C 79.5,89.5 69.5,89.5 59.5,89.5C 49.8333,89.5 40.1667,89.5 30.5,89.5C 30.5,79.8333 30.5,70.1667 30.5,60.5C 40.3478,60.8271 50.0144,60.4938 59.5,59.5 Z"/></g>
<g><path style="opacity:1" fill="#0087c7" d="M 89.5,29.5 C 89.8333,29.5 90.1667,29.5 90.5,29.5C 90.5,39.5 90.5,49.5 90.5,59.5C 100.167,59.5 109.833,59.5 119.5,59.5C 119.5,59.8333 119.5,60.1667 119.5,60.5C 109.833,60.5 100.167,60.5 90.5,60.5C 90.5,70.1667 90.5,79.8333 90.5,89.5C 90.1667,89.5 89.8333,89.5 89.5,89.5C 89.5,79.5 89.5,69.5 89.5,59.5C 89.5,49.5 89.5,39.5 89.5,29.5 Z"/></g>
<g><path style="opacity:1" fill="#0088de" d="M 119.5,60.5 C 119.5,70.1667 119.5,79.8333 119.5,89.5C 109.833,89.5 100.167,89.5 90.5,89.5C 90.5,79.8333 90.5,70.1667 90.5,60.5C 100.167,60.5 109.833,60.5 119.5,60.5 Z"/></g>
<g><path style="opacity:1" fill="#00beef" d="M 421.5,59.5 C 431.5,59.5 441.5,59.5 451.5,59.5C 451.5,69.5 451.5,79.5 451.5,89.5C 441.5,89.5 431.5,89.5 421.5,89.5C 421.167,89.5 420.833,89.5 420.5,89.5C 410.833,89.5 401.167,89.5 391.5,89.5C 391.5,79.8333 391.5,70.1667 391.5,60.5C 401.681,60.8274 411.681,60.494 421.5,59.5 Z"/></g>
<g><path style="opacity:1" fill="#0089dd" d="M 451.5,59.5 C 461.5,59.5 471.5,59.5 481.5,59.5C 481.5,69.5 481.5,79.5 481.5,89.5C 471.5,89.5 461.5,89.5 451.5,89.5C 451.5,79.5 451.5,69.5 451.5,59.5 Z"/></g>
<g><path style="opacity:1" fill="#006290" d="M 119.5,59.5 C 119.833,59.5 120.167,59.5 120.5,59.5C 120.5,69.8333 120.5,80.1667 120.5,90.5C 110.5,90.5 100.5,90.5 90.5,90.5C 90.5,100.5 90.5,110.5 90.5,120.5C 80.1667,120.5 69.8333,120.5 59.5,120.5C 59.5,120.167 59.5,119.833 59.5,119.5C 69.5,119.5 79.5,119.5 89.5,119.5C 89.5,109.5 89.5,99.5 89.5,89.5C 89.8333,89.5 90.1667,89.5 90.5,89.5C 100.167,89.5 109.833,89.5 119.5,89.5C 119.5,79.8333 119.5,70.1667 119.5,60.5C 119.5,60.1667 119.5,59.8333 119.5,59.5 Z"/></g>
<g><path style="opacity:1" fill="#00495d" d="M 390.5,59.5 C 390.833,59.5 391.167,59.5 391.5,59.5C 391.5,59.8333 391.5,60.1667 391.5,60.5C 391.5,70.1667 391.5,79.8333 391.5,89.5C 401.167,89.5 410.833,89.5 420.5,89.5C 420.5,89.8333 420.5,90.1667 420.5,90.5C 410.5,90.5 400.5,90.5 390.5,90.5C 390.5,80.1667 390.5,69.8333 390.5,59.5 Z"/></g>
<g><path style="opacity:0.978" fill="#000000" d="M 29.5,90.5 C 39.5,90.5 49.5,90.5 59.5,90.5C 59.5,100.167 59.5,109.833 59.5,119.5C 59.5,119.833 59.5,120.167 59.5,120.5C 49.5,120.5 39.5,120.5 29.5,120.5C 29.5,110.5 29.5,100.5 29.5,90.5 Z"/></g>
<g><path style="opacity:1" fill="#0089dd" d="M 59.5,89.5 C 69.5,89.5 79.5,89.5 89.5,89.5C 89.5,99.5 89.5,109.5 89.5,119.5C 79.5,119.5 69.5,119.5 59.5,119.5C 59.5,109.833 59.5,100.167 59.5,90.5C 59.5,90.1667 59.5,89.8333 59.5,89.5 Z"/></g>
<g><path style="opacity:0.965" fill="#000000" d="M 120.5,90.5 C 120.5,100.5 120.5,110.5 120.5,120.5C 110.5,120.5 100.5,120.5 90.5,120.5C 90.5,110.5 90.5,100.5 90.5,90.5C 100.5,90.5 110.5,90.5 120.5,90.5 Z"/></g>
<g><path style="opacity:0.965" fill="#000000" d="M 390.5,90.5 C 400.5,90.5 410.5,90.5 420.5,90.5C 420.5,100.5 420.5,110.5 420.5,120.5C 410.5,120.5 400.5,120.5 390.5,120.5C 390.5,110.5 390.5,100.5 390.5,90.5 Z"/></g>
<g><path style="opacity:1" fill="#0087da" d="M 421.5,89.5 C 431.5,89.5 441.5,89.5 451.5,89.5C 461.5,89.5 471.5,89.5 481.5,89.5C 481.5,89.8333 481.5,90.1667 481.5,90.5C 471.5,90.5 461.5,90.5 451.5,90.5C 451.5,100.167 451.5,109.833 451.5,119.5C 441.5,119.5 431.5,119.5 421.5,119.5C 421.5,109.5 421.5,99.5 421.5,89.5 Z"/></g>
<g><path style="opacity:0.978" fill="#000000" d="M 481.5,90.5 C 481.5,100.5 481.5,110.5 481.5,120.5C 471.5,120.5 461.5,120.5 451.5,120.5C 451.5,120.167 451.5,119.833 451.5,119.5C 451.5,109.833 451.5,100.167 451.5,90.5C 461.5,90.5 471.5,90.5 481.5,90.5 Z"/></g>
<g><path style="opacity:0.965" fill="#000000" d="M 301.5,179.5 C 291.167,179.5 280.833,179.5 270.5,179.5C 270.5,159.5 270.5,139.5 270.5,119.5C 260.5,119.5 250.5,119.5 240.5,119.5C 240.5,139.5 240.5,159.5 240.5,179.5C 230.167,179.5 219.833,179.5 209.5,179.5C 209.5,159.5 209.5,139.5 209.5,119.5C 219.5,119.5 229.5,119.5 239.5,119.5C 239.5,109.5 239.5,99.5 239.5,89.5C 250.167,89.5 260.833,89.5 271.5,89.5C 271.5,99.5 271.5,109.5 271.5,119.5C 281.5,119.5 291.5,119.5 301.5,119.5C 301.5,139.5 301.5,159.5 301.5,179.5 Z"/></g>
<g><path style="opacity:1" fill="#006898" d="M 420.5,89.5 C 420.833,89.5 421.167,89.5 421.5,89.5C 421.5,99.5 421.5,109.5 421.5,119.5C 431.5,119.5 441.5,119.5 451.5,119.5C 451.5,119.833 451.5,120.167 451.5,120.5C 441.167,120.5 430.833,120.5 420.5,120.5C 420.5,110.5 420.5,100.5 420.5,90.5C 420.5,90.1667 420.5,89.8333 420.5,89.5 Z"/></g>
<g><path style="opacity:0.958" fill="#000000" d="M 59.5,120.5 C 69.8333,120.5 80.1667,120.5 90.5,120.5C 90.5,130.5 90.5,140.5 90.5,150.5C 80.1667,150.5 69.8333,150.5 59.5,150.5C 59.5,140.5 59.5,130.5 59.5,120.5 Z"/></g>
<g><path style="opacity:1" fill="#0088dd" d="M 270.5,179.5 C 270.5,179.833 270.5,180.167 270.5,180.5C 260.5,180.5 250.5,180.5 240.5,180.5C 240.5,180.167 240.5,179.833 240.5,179.5C 240.5,159.5 240.5,139.5 240.5,119.5C 250.5,119.5 260.5,119.5 270.5,119.5C 270.5,139.5 270.5,159.5 270.5,179.5 Z"/></g>
<g><path style="opacity:0.958" fill="#000000" d="M 420.5,120.5 C 430.833,120.5 441.167,120.5 451.5,120.5C 451.5,130.5 451.5,140.5 451.5,150.5C 441.167,150.5 430.833,150.5 420.5,150.5C 420.5,140.5 420.5,130.5 420.5,120.5 Z"/></g>
<g><path style="opacity:0.954" fill="#000000" d="M 209.5,179.5 C 209.5,189.5 209.5,199.5 209.5,209.5C 199.5,209.5 189.5,209.5 179.5,209.5C 179.5,199.5 179.5,189.5 179.5,179.5C 189.5,179.5 199.5,179.5 209.5,179.5 Z"/></g>
<g><path style="opacity:0.954" fill="#000000" d="M 301.5,179.5 C 311.5,179.5 321.5,179.5 331.5,179.5C 331.5,189.5 331.5,199.5 331.5,209.5C 331.5,199.5 331.5,189.5 331.5,179.5C 321.5,179.5 311.5,179.5 301.5,179.5 Z"/></g>
<g><path style="opacity:1" fill="#002a35" d="M 209.5,179.5 C 219.833,179.5 230.167,179.5 240.5,179.5C 240.5,179.833 240.5,180.167 240.5,180.5C 230.5,180.5 220.5,180.5 210.5,180.5C 210.5,190.5 210.5,200.5 210.5,210.5C 200.5,210.5 190.5,210.5 180.5,210.5C 180.827,220.681 180.494,230.681 179.5,240.5C 179.5,230.167 179.5,219.833 179.5,209.5C 189.5,209.5 199.5,209.5 209.5,209.5C 209.5,199.5 209.5,189.5 209.5,179.5 Z"/></g>
<g><path style="opacity:1" fill="#00beef" d="M 240.5,180.5 C 250.5,180.5 260.5,180.5 270.5,180.5C 270.5,190.5 270.5,200.5 270.5,210.5C 280.5,210.5 290.5,210.5 300.5,210.5C 300.5,220.5 300.5,230.5 300.5,240.5C 310.5,240.5 320.5,240.5 330.5,240.5C 330.5,250.5 330.5,260.5 330.5,270.5C 320.5,270.5 310.5,270.5 300.5,270.5C 300.5,280.5 300.5,290.5 300.5,300.5C 290.5,300.5 280.5,300.5 270.5,300.5C 270.5,310.5 270.5,320.5 270.5,330.5C 260.5,330.5 250.5,330.5 240.5,330.5C 230.5,330.5 220.5,330.5 210.5,330.5C 210.5,320.5 210.5,310.5 210.5,300.5C 200.5,300.5 190.5,300.5 180.5,300.5C 180.827,290.319 180.494,280.319 179.5,270.5C 159.5,270.5 139.5,270.5 119.5,270.5C 119.5,260.5 119.5,250.5 119.5,240.5C 139.5,240.5 159.5,240.5 179.5,240.5C 180.494,230.681 180.827,220.681 180.5,210.5C 190.5,210.5 200.5,210.5 210.5,210.5C 210.5,200.5 210.5,190.5 210.5,180.5C 220.5,180.5 230.5,180.5 240.5,180.5 Z"/></g>
<g><path style="opacity:1" fill="#0089de" d="M 270.5,180.5 C 280.5,180.5 290.5,180.5 300.5,180.5C 300.5,190.5 300.5,200.5 300.5,210.5C 300.5,200.5 300.5,190.5 300.5,180.5C 290.5,180.5 280.5,180.5 270.5,180.5 Z"/></g>
<g><path style="opacity:0.965" fill="#000000" d="M 179.5,209.5 C 179.5,219.833 179.5,230.167 179.5,240.5C 159.5,240.5 139.5,240.5 119.5,240.5C 119.5,250.5 119.5,260.5 119.5,270.5C 139.5,270.5 159.5,270.5 179.5,270.5C 179.5,280.833 179.5,291.167 179.5,301.5C 159.5,301.5 139.5,301.5 119.5,301.5C 119.5,291.5 119.5,281.5 119.5,271.5C 109.5,271.5 99.5,271.5 89.5,271.5C 89.5,260.833 89.5,250.167 89.5,239.5C 99.5,239.5 109.5,239.5 119.5,239.5C 119.5,229.5 119.5,219.5 119.5,209.5C 139.5,209.5 159.5,209.5 179.5,209.5 Z"/></g>
<g><path style="opacity:1" fill="#003f5a" d="M 270.5,180.5 C 270.5,180.167 270.5,179.833 270.5,179.5C 280.833,179.5 291.167,179.5 301.5,179.5C 301.5,189.5 301.5,199.5 301.5,209.5C 311.5,209.5 321.5,209.5 331.5,209.5C 331.5,219.833 331.5,230.167 331.5,240.5C 331.167,240.5 330.833,240.5 330.5,240.5C 320.5,240.5 310.5,240.5 300.5,240.5C 300.5,230.5 300.5,220.5 300.5,210.5C 300.5,200.5 300.5,190.5 300.5,180.5C 290.5,180.5 280.5,180.5 270.5,180.5 Z"/></g>
<g><path style="opacity:0.965" fill="#000000" d="M 331.5,209.5 C 351.5,209.5 371.5,209.5 391.5,209.5C 391.5,219.5 391.5,229.5 391.5,239.5C 401.5,239.5 411.5,239.5 421.5,239.5C 421.5,250.167 421.5,260.833 421.5,271.5C 411.5,271.5 401.5,271.5 391.5,271.5C 391.5,281.5 391.5,291.5 391.5,301.5C 371.5,301.5 351.5,301.5 331.5,301.5C 331.5,291.167 331.5,280.833 331.5,270.5C 351.5,270.5 371.5,270.5 391.5,270.5C 391.5,260.5 391.5,250.5 391.5,240.5C 371.5,240.5 351.5,240.5 331.5,240.5C 331.5,230.167 331.5,219.833 331.5,209.5 Z"/></g>
<g><path style="opacity:1" fill="#0089de" d="M 300.5,210.5 C 310.5,210.5 320.5,210.5 330.5,210.5C 330.5,220.5 330.5,230.5 330.5,240.5C 330.5,230.5 330.5,220.5 330.5,210.5C 320.5,210.5 310.5,210.5 300.5,210.5 Z"/></g>
<g><path style="opacity:0.972" fill="#9cceff" d="M 29.5,239.5 C 39.8333,239.5 50.1667,239.5 60.5,239.5C 60.5,250.167 60.5,260.833 60.5,271.5C 50.1667,271.5 39.8333,271.5 29.5,271.5C 29.5,260.833 29.5,250.167 29.5,239.5 Z"/></g>
<g><path style="opacity:1" fill="#0088dd" d="M 330.5,240.5 C 330.833,240.5 331.167,240.5 331.5,240.5C 351.5,240.5 371.5,240.5 391.5,240.5C 391.5,250.5 391.5,260.5 391.5,270.5C 371.5,270.5 351.5,270.5 331.5,270.5C 331.167,270.5 330.833,270.5 330.5,270.5C 330.5,260.5 330.5,250.5 330.5,240.5 Z"/></g>
<g><path style="opacity:0.972" fill="#9cceff" d="M 450.5,239.5 C 460.833,239.5 471.167,239.5 481.5,239.5C 481.5,250.167 481.5,260.833 481.5,271.5C 471.167,271.5 460.833,271.5 450.5,271.5C 450.5,260.833 450.5,250.167 450.5,239.5 Z"/></g>
<g><path style="opacity:1" fill="#0089de" d="M 330.5,270.5 C 330.5,280.5 330.5,290.5 330.5,300.5C 320.5,300.5 310.5,300.5 300.5,300.5C 300.5,290.5 300.5,280.5 300.5,270.5C 310.5,270.5 320.5,270.5 330.5,270.5 Z"/></g>
<g><path style="opacity:1" fill="#002934" d="M 179.5,270.5 C 180.494,280.319 180.827,290.319 180.5,300.5C 190.5,300.5 200.5,300.5 210.5,300.5C 210.5,310.5 210.5,320.5 210.5,330.5C 220.5,330.5 230.5,330.5 240.5,330.5C 240.5,330.833 240.5,331.167 240.5,331.5C 230.167,331.5 219.833,331.5 209.5,331.5C 209.5,321.5 209.5,311.5 209.5,301.5C 199.5,301.5 189.5,301.5 179.5,301.5C 179.5,291.167 179.5,280.833 179.5,270.5 Z"/></g>
<g><path style="opacity:0.953" fill="#000000" d="M 179.5,301.5 C 189.5,301.5 199.5,301.5 209.5,301.5C 209.5,311.5 209.5,321.5 209.5,331.5C 199.5,331.5 189.5,331.5 179.5,331.5C 179.5,321.5 179.5,311.5 179.5,301.5 Z"/></g>
<g><path style="opacity:1" fill="#0089de" d="M 300.5,300.5 C 300.5,310.5 300.5,320.5 300.5,330.5C 290.5,330.5 280.5,330.5 270.5,330.5C 270.5,320.5 270.5,310.5 270.5,300.5C 280.5,300.5 290.5,300.5 300.5,300.5 Z"/></g>
<g><path style="opacity:1" fill="#003e59" d="M 330.5,270.5 C 330.833,270.5 331.167,270.5 331.5,270.5C 331.5,280.833 331.5,291.167 331.5,301.5C 321.5,301.5 311.5,301.5 301.5,301.5C 301.5,311.5 301.5,321.5 301.5,331.5C 291.167,331.5 280.833,331.5 270.5,331.5C 270.5,331.167 270.5,330.833 270.5,330.5C 280.5,330.5 290.5,330.5 300.5,330.5C 300.5,320.5 300.5,310.5 300.5,300.5C 310.5,300.5 320.5,300.5 330.5,300.5C 330.5,290.5 330.5,280.5 330.5,270.5 Z"/></g>
<g><path style="opacity:0.953" fill="#000000" d="M 331.5,301.5 C 331.5,311.5 331.5,321.5 331.5,331.5C 321.5,331.5 311.5,331.5 301.5,331.5C 301.5,321.5 301.5,311.5 301.5,301.5C 311.5,301.5 321.5,301.5 331.5,301.5 Z"/></g>
<g><path style="opacity:0.965" fill="#000000" d="M 209.5,331.5 C 219.833,331.5 230.167,331.5 240.5,331.5C 240.5,351.5 240.5,371.5 240.5,391.5C 250.5,391.5 260.5,391.5 270.5,391.5C 270.5,371.5 270.5,351.5 270.5,331.5C 280.833,331.5 291.167,331.5 301.5,331.5C 301.5,351.5 301.5,371.5 301.5,391.5C 291.5,391.5 281.5,391.5 271.5,391.5C 271.5,401.5 271.5,411.5 271.5,421.5C 260.833,421.5 250.167,421.5 239.5,421.5C 239.5,411.5 239.5,401.5 239.5,391.5C 229.5,391.5 219.5,391.5 209.5,391.5C 209.5,371.5 209.5,351.5 209.5,331.5 Z"/></g>
<g><path style="opacity:1" fill="#0088dd" d="M 240.5,330.5 C 250.5,330.5 260.5,330.5 270.5,330.5C 270.5,330.833 270.5,331.167 270.5,331.5C 270.5,351.5 270.5,371.5 270.5,391.5C 260.5,391.5 250.5,391.5 240.5,391.5C 240.5,371.5 240.5,351.5 240.5,331.5C 240.5,331.167 240.5,330.833 240.5,330.5 Z"/></g>
<g><path style="opacity:0.958" fill="#000000" d="M 90.5,390.5 C 80.1667,390.5 69.8333,390.5 59.5,390.5C 59.5,380.5 59.5,370.5 59.5,360.5C 69.8333,360.5 80.1667,360.5 90.5,360.5C 90.5,370.5 90.5,380.5 90.5,390.5 Z"/></g>
<g><path style="opacity:0.958" fill="#000000" d="M 451.5,390.5 C 441.167,390.5 430.833,390.5 420.5,390.5C 420.5,380.5 420.5,370.5 420.5,360.5C 430.833,360.5 441.167,360.5 451.5,360.5C 451.5,370.5 451.5,380.5 451.5,390.5 Z"/></g>
<g><path style="opacity:0.978" fill="#010304" d="M 59.5,390.5 C 59.5,390.833 59.5,391.167 59.5,391.5C 59.5,401.5 59.5,411.5 59.5,421.5C 49.5,421.5 39.5,421.5 29.5,421.5C 29.5,421.167 29.5,420.833 29.5,420.5C 29.5,410.5 29.5,400.5 29.5,390.5C 39.5,390.5 49.5,390.5 59.5,390.5 Z"/></g>
<g><path style="opacity:0.965" fill="#000000" d="M 90.5,390.5 C 100.5,390.5 110.5,390.5 120.5,390.5C 120.5,400.5 120.5,410.5 120.5,420.5C 120.5,410.5 120.5,400.5 120.5,390.5C 110.5,390.5 100.5,390.5 90.5,390.5 Z"/></g>
<g><path style="opacity:0.965" fill="#000000" d="M 420.5,390.5 C 420.5,400.5 420.5,410.5 420.5,420.5C 410.5,420.5 400.5,420.5 390.5,420.5C 390.5,410.5 390.5,400.5 390.5,390.5C 400.5,390.5 410.5,390.5 420.5,390.5 Z"/></g>
<g><path style="opacity:0.978" fill="#000000" d="M 451.5,390.5 C 461.5,390.5 471.5,390.5 481.5,390.5C 481.5,400.5 481.5,410.5 481.5,420.5C 471.5,420.5 461.5,420.5 451.5,420.5C 451.5,410.833 451.5,401.167 451.5,391.5C 451.5,391.167 451.5,390.833 451.5,390.5 Z"/></g>
<g><path style="opacity:1" fill="#0088de" d="M 60.5,391.5 C 70.1667,391.5 79.8333,391.5 89.5,391.5C 89.5,401.167 89.5,410.833 89.5,420.5C 89.5,410.833 89.5,401.167 89.5,391.5C 79.8333,391.5 70.1667,391.5 60.5,391.5 Z"/></g>
<g><path style="opacity:1" fill="#006290" d="M 59.5,391.5 C 59.5,391.167 59.5,390.833 59.5,390.5C 69.8333,390.5 80.1667,390.5 90.5,390.5C 90.5,400.5 90.5,410.5 90.5,420.5C 100.5,420.5 110.5,420.5 120.5,420.5C 120.5,430.833 120.5,441.167 120.5,451.5C 120.167,451.5 119.833,451.5 119.5,451.5C 119.5,441.5 119.5,431.5 119.5,421.5C 109.5,421.5 99.5,421.5 89.5,421.5C 89.5,421.167 89.5,420.833 89.5,420.5C 89.5,410.833 89.5,401.167 89.5,391.5C 79.8333,391.5 70.1667,391.5 60.5,391.5C 60.1667,391.5 59.8333,391.5 59.5,391.5 Z"/></g>
<g><path style="opacity:1" fill="#00618e" d="M 420.5,390.5 C 430.833,390.5 441.167,390.5 451.5,390.5C 451.5,390.833 451.5,391.167 451.5,391.5C 451.167,391.5 450.833,391.5 450.5,391.5C 440.833,391.5 431.167,391.5 421.5,391.5C 421.5,401.167 421.5,410.833 421.5,420.5C 421.5,420.833 421.5,421.167 421.5,421.5C 421.167,421.5 420.833,421.5 420.5,421.5C 420.5,421.167 420.5,420.833 420.5,420.5C 420.5,410.5 420.5,400.5 420.5,390.5 Z"/></g>
<g><path style="opacity:1" fill="#0088de" d="M 450.5,391.5 C 450.5,401.167 450.5,410.833 450.5,420.5C 440.833,420.5 431.167,420.5 421.5,420.5C 421.5,410.833 421.5,401.167 421.5,391.5C 431.167,391.5 440.833,391.5 450.5,391.5 Z"/></g>
<g><path style="opacity:0.972" fill="#000000" d="M -0.5,420.5 C 9.5,420.5 19.5,420.5 29.5,420.5C 29.5,420.833 29.5,421.167 29.5,421.5C 29.5,431.5 29.5,441.5 29.5,451.5C 19.5,451.5 9.5,451.5 -0.5,451.5C -0.5,441.167 -0.5,430.833 -0.5,420.5 Z"/></g>
<g><path style="opacity:1" fill="#0096df" d="M 59.5,391.5 C 59.8333,391.5 60.1667,391.5 60.5,391.5C 60.5,401.167 60.5,410.833 60.5,420.5C 70.1667,420.5 79.8333,420.5 89.5,420.5C 89.5,420.833 89.5,421.167 89.5,421.5C 79.5,421.5 69.5,421.5 59.5,421.5C 59.5,411.5 59.5,401.5 59.5,391.5 Z"/></g>
<g><path style="opacity:0.958" fill="#000000" d="M 120.5,420.5 C 130.5,420.5 140.5,420.5 150.5,420.5C 150.5,430.833 150.5,441.167 150.5,451.5C 140.5,451.5 130.5,451.5 120.5,451.5C 120.5,441.167 120.5,430.833 120.5,420.5 Z"/></g>
<g><path style="opacity:0.958" fill="#000000" d="M 390.5,420.5 C 390.5,430.833 390.5,441.167 390.5,451.5C 380.5,451.5 370.5,451.5 360.5,451.5C 360.5,441.167 360.5,430.833 360.5,420.5C 370.5,420.5 380.5,420.5 390.5,420.5 Z"/></g>
<g><path style="opacity:1" fill="#0086c7" d="M 450.5,391.5 C 450.833,391.5 451.167,391.5 451.5,391.5C 451.5,401.167 451.5,410.833 451.5,420.5C 461.5,420.5 471.5,420.5 481.5,420.5C 481.5,420.833 481.5,421.167 481.5,421.5C 471.5,421.5 461.5,421.5 451.5,421.5C 441.5,421.5 431.5,421.5 421.5,421.5C 421.5,421.167 421.5,420.833 421.5,420.5C 431.167,420.5 440.833,420.5 450.5,420.5C 450.5,410.833 450.5,401.167 450.5,391.5 Z"/></g>
<g><path style="opacity:0.972" fill="#000000" d="M 481.5,420.5 C 491.5,420.5 501.5,420.5 511.5,420.5C 511.5,430.833 511.5,441.167 511.5,451.5C 501.5,451.5 491.5,451.5 481.5,451.5C 481.5,441.5 481.5,431.5 481.5,421.5C 481.5,421.167 481.5,420.833 481.5,420.5 Z"/></g>
<g><path style="opacity:1" fill="#00bdee" d="M 29.5,421.5 C 39.5,421.5 49.5,421.5 59.5,421.5C 69.5,421.5 79.5,421.5 89.5,421.5C 89.5,431.5 89.5,441.5 89.5,451.5C 79.5,451.5 69.5,451.5 59.5,451.5C 49.5,451.5 39.5,451.5 29.5,451.5C 29.5,441.5 29.5,431.5 29.5,421.5 Z"/></g>
<g><path style="opacity:1" fill="#0087da" d="M 89.5,421.5 C 99.5,421.5 109.5,421.5 119.5,421.5C 119.5,431.5 119.5,441.5 119.5,451.5C 109.833,451.5 100.167,451.5 90.5,451.5C 90.5,461.5 90.5,471.5 90.5,481.5C 90.1667,481.5 89.8333,481.5 89.5,481.5C 89.5,471.5 89.5,461.5 89.5,451.5C 89.5,441.5 89.5,431.5 89.5,421.5 Z"/></g>
<g><path style="opacity:1" fill="#005166" d="M 390.5,420.5 C 400.5,420.5 410.5,420.5 420.5,420.5C 420.5,420.833 420.5,421.167 420.5,421.5C 410.833,421.5 401.167,421.5 391.5,421.5C 391.5,431.5 391.5,441.5 391.5,451.5C 391.167,451.5 390.833,451.5 390.5,451.5C 390.5,441.167 390.5,430.833 390.5,420.5 Z"/></g>
<g><path style="opacity:1" fill="#00bdee" d="M 420.5,421.5 C 420.833,421.5 421.167,421.5 421.5,421.5C 431.5,421.5 441.5,421.5 451.5,421.5C 451.5,431.5 451.5,441.5 451.5,451.5C 441.167,451.5 430.833,451.5 420.5,451.5C 410.833,451.5 401.167,451.5 391.5,451.5C 391.5,441.5 391.5,431.5 391.5,421.5C 401.167,421.5 410.833,421.5 420.5,421.5 Z"/></g>
<g><path style="opacity:1" fill="#0089dd" d="M 451.5,421.5 C 461.5,421.5 471.5,421.5 481.5,421.5C 481.5,431.5 481.5,441.5 481.5,451.5C 471.5,451.5 461.5,451.5 451.5,451.5C 451.5,441.5 451.5,431.5 451.5,421.5 Z"/></g>
<g><path style="opacity:0.971" fill="#9dceff" d="M 209.5,450.5 C 219.833,450.5 230.167,450.5 240.5,450.5C 240.5,460.833 240.5,471.167 240.5,481.5C 230.167,481.5 219.833,481.5 209.5,481.5C 209.5,471.167 209.5,460.833 209.5,450.5 Z"/></g>
<g><path style="opacity:0.971" fill="#9dceff" d="M 270.5,450.5 C 280.833,450.5 291.167,450.5 301.5,450.5C 301.5,460.833 301.5,471.167 301.5,481.5C 291.167,481.5 280.833,481.5 270.5,481.5C 270.5,471.167 270.5,460.833 270.5,450.5 Z"/></g>
<g><path style="opacity:0.992" fill="#000000" d="M 29.5,451.5 C 39.5,451.5 49.5,451.5 59.5,451.5C 59.5,461.5 59.5,471.5 59.5,481.5C 49.5,481.5 39.5,481.5 29.5,481.5C 29.5,471.5 29.5,461.5 29.5,451.5 Z"/></g>
<g><path style="opacity:1" fill="#0089dd" d="M 59.5,451.5 C 69.5,451.5 79.5,451.5 89.5,451.5C 89.5,461.5 89.5,471.5 89.5,481.5C 79.5,481.5 69.5,481.5 59.5,481.5C 59.5,471.5 59.5,461.5 59.5,451.5 Z"/></g>
<g><path style="opacity:0.978" fill="#000000" d="M 119.5,451.5 C 119.833,451.5 120.167,451.5 120.5,451.5C 120.5,461.5 120.5,471.5 120.5,481.5C 110.5,481.5 100.5,481.5 90.5,481.5C 90.5,471.5 90.5,461.5 90.5,451.5C 100.167,451.5 109.833,451.5 119.5,451.5 Z"/></g>
<g><path style="opacity:0.978" fill="#000000" d="M 390.5,451.5 C 390.833,451.5 391.167,451.5 391.5,451.5C 401.167,451.5 410.833,451.5 420.5,451.5C 420.5,461.5 420.5,471.5 420.5,481.5C 410.5,481.5 400.5,481.5 390.5,481.5C 390.5,471.5 390.5,461.5 390.5,451.5 Z"/></g>
<g><path style="opacity:1" fill="#0087da" d="M 420.5,451.5 C 430.833,451.5 441.167,451.5 451.5,451.5C 451.5,461.5 451.5,471.5 451.5,481.5C 441.167,481.5 430.833,481.5 420.5,481.5C 420.5,471.5 420.5,461.5 420.5,451.5 Z"/></g>
<g><path style="opacity:0.992" fill="#000000" d="M 451.5,451.5 C 461.5,451.5 471.5,451.5 481.5,451.5C 481.5,461.5 481.5,471.5 481.5,481.5C 471.5,481.5 461.5,481.5 451.5,481.5C 451.5,471.5 451.5,461.5 451.5,451.5 Z"/></g>
<g><path style="opacity:0.972" fill="#000000" d="M 59.5,481.5 C 69.5,481.5 79.5,481.5 89.5,481.5C 89.8333,481.5 90.1667,481.5 90.5,481.5C 90.5,491.5 90.5,501.5 90.5,511.5C 80.1667,511.5 69.8333,511.5 59.5,511.5C 59.5,501.5 59.5,491.5 59.5,481.5 Z"/></g>
<g><path style="opacity:0.972" fill="#000000" d="M 420.5,481.5 C 430.833,481.5 441.167,481.5 451.5,481.5C 451.5,491.5 451.5,501.5 451.5,511.5C 441.167,511.5 430.833,511.5 420.5,511.5C 420.5,501.5 420.5,491.5 420.5,481.5 Z"/></g>
</svg>
