<?xml version="1.0" standalone="no"?>
<!DOCTYPE svg PUBLIC "-//W3C//DTD SVG 20010904//EN"
 "http://www.w3.org/TR/2001/REC-SVG-20010904/DTD/svg10.dtd">
<svg version="1.0" xmlns="http://www.w3.org/2000/svg"
 width="560.000000pt" height="560.000000pt" viewBox="0 0 560.000000 560.000000"
 preserveAspectRatio="xMidYMid meet">

<g transform="translate(0.000000,560.000000) scale(0.100000,-0.100000)"
fill="#ffffff" stroke="none">
<path d="M1730 5385 l0 -215 -435 0 -435 0 0 -215 0 -215 -212 -2 -213 -3 -3
-432 -2 -433 -215 0 -215 0 0 -1070 0 -1070 215 0 215 0 2 -432 3 -433 213 -3
212 -2 0 -215 0 -215 435 0 435 0 0 -215 0 -215 1070 0 1070 0 0 215 0 215
435 0 435 0 0 215 0 215 213 2 212 3 3 433 2 432 215 0 215 0 0 1070 0 1070
-215 0 -215 0 -2 433 -3 432 -212 3 -213 2 0 215 0 215 -435 0 -435 0 0 215 0
215 -1070 0 -1070 0 0 -215z m1710 -430 l0 -215 430 0 430 0 0 -215 0 -215
218 -2 217 -3 2 -430 2 -430 216 -3 215 -2 0 -640 0 -640 -215 -2 -216 -3 1
-427 0 -428 -217 -2 -218 -3 -3 -217 -2 -218 -430 0 -430 0 0 -215 0 -215
-640 0 -640 0 -2 215 -3 216 -430 2 -430 2 -2 215 -2 215 -215 3 -216 2 0 430
0 430 -215 0 -215 0 0 640 0 640 215 0 215 0 2 433 3 432 218 3 217 2 0 215 0
215 430 0 430 0 0 215 0 215 640 0 640 0 0 -215z"/>
<path d="M2587 3874 c-4 -4 -7 -198 -7 -431 l0 -423 -430 0 -430 0 2 -217 3
-218 427 -3 428 -2 2 -428 3 -427 215 0 215 0 3 427 2 428 428 2 427 3 0 215
0 215 -427 3 -428 2 -2 428 -3 427 -211 3 c-115 1 -213 -1 -217 -4z"/>
</g>
</svg>
