<?xml version="1.0" encoding="UTF-8"?>
<!DOCTYPE svg PUBLIC "-//W3C//DTD SVG 1.1//EN" "http://www.w3.org/Graphics/SVG/1.1/DTD/svg11.dtd">
<svg xmlns="http://www.w3.org/2000/svg" version="1.1" width="369px" height="307px" style="shape-rendering:geometricPrecision; text-rendering:geometricPrecision; image-rendering:optimizeQuality; fill-rule:evenodd; clip-rule:evenodd" xmlns:xlink="http://www.w3.org/1999/xlink">
<g><path style="opacity:1" fill="#0a0a09" d="M 221.5,0.5 C 221.5,2.16667 221.5,3.83333 221.5,5.5C 216.833,5.5 212.167,5.5 207.5,5.5C 207.5,3.83333 207.5,2.16667 207.5,0.5C 212.167,0.5 216.833,0.5 221.5,0.5 Z"/></g>
<g><path style="opacity:0.49" fill="#afafb0" d="M 146.5,0.5 C 146.5,2.16667 146.5,3.83333 146.5,5.5C 144.833,5.5 143.167,5.5 141.5,5.5C 142.263,4.73209 143.263,4.23209 144.5,4C 145.085,2.69762 145.751,1.53095 146.5,0.5 Z"/></g>
<g><path style="opacity:0.49" fill="#bab9bc" d="M 161.5,0.5 C 162.434,1.56764 162.768,2.90097 162.5,4.5C 164.099,4.23219 165.432,4.56552 166.5,5.5C 164.833,5.5 163.167,5.5 161.5,5.5C 161.5,3.83333 161.5,2.16667 161.5,0.5 Z"/></g>
<g><path style="opacity:0.475" fill="#babbb9" d="M 206.5,0.5 C 206.5,2.16667 206.5,3.83333 206.5,5.5C 204.833,5.5 203.167,5.5 201.5,5.5C 202.568,4.56552 203.901,4.23219 205.5,4.5C 205.232,2.90097 205.566,1.56764 206.5,0.5 Z"/></g>
<g><path style="opacity:0.497" fill="#b0b0b1" d="M 221.5,0.5 C 222.434,1.56764 222.768,2.90097 222.5,4.5C 224.099,4.23219 225.432,4.56552 226.5,5.5C 224.833,5.5 223.167,5.5 221.5,5.5C 221.5,3.83333 221.5,2.16667 221.5,0.5 Z"/></g>
<g><path style="opacity:1" fill="#3f3a52" d="M 221.5,10.5 C 223.292,10.634 224.958,10.3007 226.5,9.5C 226.5,9.83333 226.5,10.1667 226.5,10.5C 226.5,13.8333 226.5,17.1667 226.5,20.5C 228.167,20.5 229.833,20.5 231.5,20.5C 231.5,23.8333 231.5,27.1667 231.5,30.5C 233.167,30.5 234.833,30.5 236.5,30.5C 236.5,33.8333 236.5,37.1667 236.5,40.5C 238.167,40.5 239.833,40.5 241.5,40.5C 241.5,43.8333 241.5,47.1667 241.5,50.5C 243.167,50.5 244.833,50.5 246.5,50.5C 246.5,53.8333 246.5,57.1667 246.5,60.5C 248.167,60.5 249.833,60.5 251.5,60.5C 251.5,63.8333 251.5,67.1667 251.5,70.5C 253.167,70.5 254.833,70.5 256.5,70.5C 256.5,73.8333 256.5,77.1667 256.5,80.5C 258.167,80.5 259.833,80.5 261.5,80.5C 261.5,83.8333 261.5,87.1667 261.5,90.5C 263.167,90.5 264.833,90.5 266.5,90.5C 266.5,93.8333 266.5,97.1667 266.5,100.5C 268.167,100.5 269.833,100.5 271.5,100.5C 271.5,103.833 271.5,107.167 271.5,110.5C 271.5,111.833 271.5,113.167 271.5,114.5C 270.167,114.5 268.833,114.5 267.5,114.5C 267.768,112.901 267.434,111.568 266.5,110.5C 263.375,109.521 260.042,109.187 256.5,109.5C 256.5,106.5 256.5,103.5 256.5,100.5C 254.833,100.5 253.167,100.5 251.5,100.5C 251.5,97.1667 251.5,93.8333 251.5,90.5C 249.833,90.5 248.167,90.5 246.5,90.5C 246.5,87.1667 246.5,83.8333 246.5,80.5C 244.833,80.5 243.167,80.5 241.5,80.5C 241.5,77.1667 241.5,73.8333 241.5,70.5C 239.833,70.5 238.167,70.5 236.5,70.5C 236.5,67.1667 236.5,63.8333 236.5,60.5C 234.833,60.5 233.167,60.5 231.5,60.5C 231.5,57.1667 231.5,53.8333 231.5,50.5C 229.833,50.5 228.167,50.5 226.5,50.5C 226.5,47.1667 226.5,43.8333 226.5,40.5C 224.833,40.5 223.167,40.5 221.5,40.5C 221.5,37.1667 221.5,33.8333 221.5,30.5C 219.833,30.5 218.167,30.5 216.5,30.5C 216.5,27.1667 216.5,23.8333 216.5,20.5C 214.833,20.5 213.167,20.5 211.5,20.5C 211.5,17.1667 211.5,13.8333 211.5,10.5C 210.167,10.5 208.833,10.5 207.5,10.5C 207.5,9.16667 207.5,7.83333 207.5,6.5C 210.5,6.5 213.5,6.5 216.5,6.5C 216.5,7.83333 216.5,9.16667 216.5,10.5C 218.167,10.5 219.833,10.5 221.5,10.5 Z"/></g>
<g><path style="opacity:1" fill="#3f3a52" d="M 160.5,10.5 C 159.167,10.5 157.833,10.5 156.5,10.5C 156.5,13.8333 156.5,17.1667 156.5,20.5C 154.833,20.5 153.167,20.5 151.5,20.5C 151.5,23.8333 151.5,27.1667 151.5,30.5C 149.833,30.5 148.167,30.5 146.5,30.5C 146.5,33.8333 146.5,37.1667 146.5,40.5C 144.833,40.5 143.167,40.5 141.5,40.5C 141.5,43.8333 141.5,47.1667 141.5,50.5C 139.833,50.5 138.167,50.5 136.5,50.5C 136.5,53.8333 136.5,57.1667 136.5,60.5C 134.833,60.5 133.167,60.5 131.5,60.5C 131.5,63.8333 131.5,67.1667 131.5,70.5C 129.833,70.5 128.167,70.5 126.5,70.5C 126.5,73.8333 126.5,77.1667 126.5,80.5C 124.833,80.5 123.167,80.5 121.5,80.5C 121.5,83.8333 121.5,87.1667 121.5,90.5C 119.833,90.5 118.167,90.5 116.5,90.5C 116.5,93.8333 116.5,97.1667 116.5,100.5C 114.833,100.5 113.167,100.5 111.5,100.5C 111.5,103.5 111.5,106.5 111.5,109.5C 107.958,109.187 104.625,109.521 101.5,110.5C 100.566,111.568 100.232,112.901 100.5,114.5C 99.1667,114.5 97.8333,114.5 96.5,114.5C 96.5,113.167 96.5,111.833 96.5,110.5C 96.5,107.167 96.5,103.833 96.5,100.5C 98.1667,100.5 99.8333,100.5 101.5,100.5C 101.5,97.1667 101.5,93.8333 101.5,90.5C 103.167,90.5 104.833,90.5 106.5,90.5C 106.5,87.1667 106.5,83.8333 106.5,80.5C 108.167,80.5 109.833,80.5 111.5,80.5C 111.5,77.1667 111.5,73.8333 111.5,70.5C 113.167,70.5 114.833,70.5 116.5,70.5C 116.5,67.1667 116.5,63.8333 116.5,60.5C 118.167,60.5 119.833,60.5 121.5,60.5C 121.5,57.1667 121.5,53.8333 121.5,50.5C 123.167,50.5 124.833,50.5 126.5,50.5C 126.5,47.1667 126.5,43.8333 126.5,40.5C 128.167,40.5 129.833,40.5 131.5,40.5C 131.5,37.1667 131.5,33.8333 131.5,30.5C 133.167,30.5 134.833,30.5 136.5,30.5C 136.5,27.1667 136.5,23.8333 136.5,20.5C 138.167,20.5 139.833,20.5 141.5,20.5C 141.5,17.1667 141.5,13.8333 141.5,10.5C 144.85,10.665 148.183,10.4983 151.5,10C 152.337,8.98873 152.67,7.82207 152.5,6.5C 155.167,6.5 157.833,6.5 160.5,6.5C 160.5,7.83333 160.5,9.16667 160.5,10.5 Z"/></g>
<g><path style="opacity:0.427" fill="#b1b1b1" d="M 141.5,5.5 C 141.5,7.16667 141.5,8.83333 141.5,10.5C 139.833,10.5 138.167,10.5 136.5,10.5C 137.568,9.56552 138.901,9.23219 140.5,9.5C 140.232,7.90097 140.566,6.56764 141.5,5.5 Z"/></g>
<g><path style="opacity:0.425" fill="#bcbcbd" d="M 166.5,5.5 C 167.434,6.56764 167.768,7.90097 167.5,9.5C 169.099,9.23219 170.432,9.56552 171.5,10.5C 171.167,10.5 170.833,10.5 170.5,10.5C 169.167,10.5 167.833,10.5 166.5,10.5C 166.5,8.83333 166.5,7.16667 166.5,5.5 Z"/></g>
<g><path style="opacity:0.442" fill="#bcbcbc" d="M 201.5,5.5 C 201.5,7.16667 201.5,8.83333 201.5,10.5C 200.167,10.5 198.833,10.5 197.5,10.5C 197.167,10.5 196.833,10.5 196.5,10.5C 197.568,9.56552 198.901,9.23219 200.5,9.5C 200.232,7.90097 200.566,6.56764 201.5,5.5 Z"/></g>
<g><path style="opacity:1" fill="#121116" d="M 221.5,5.5 C 223.167,5.5 224.833,5.5 226.5,5.5C 226.5,6.83333 226.5,8.16667 226.5,9.5C 224.958,10.3007 223.292,10.634 221.5,10.5C 221.5,8.83333 221.5,7.16667 221.5,5.5 Z"/></g>
<g><path style="opacity:0.425" fill="#b4b3b6" d="M 226.5,5.5 C 227.434,6.56764 227.768,7.90097 227.5,9.5C 229.099,9.23219 230.432,9.56552 231.5,10.5C 229.833,10.5 228.167,10.5 226.5,10.5C 226.5,10.1667 226.5,9.83333 226.5,9.5C 226.5,8.16667 226.5,6.83333 226.5,5.5 Z"/></g>
<g><path style="opacity:0.276" fill="#bbbabc" d="M 136.5,10.5 C 136.5,13.8333 136.5,17.1667 136.5,20.5C 134.833,20.5 133.167,20.5 131.5,20.5C 132.568,19.5655 133.901,19.2322 135.5,19.5C 135.19,16.2869 135.523,13.2869 136.5,10.5 Z"/></g>
<g><path style="opacity:1" fill="#332f44" d="M 206.5,-0.5 C 211.5,-0.5 216.5,-0.5 221.5,-0.5C 221.5,-0.166667 221.5,0.166667 221.5,0.5C 216.833,0.5 212.167,0.5 207.5,0.5C 207.5,2.16667 207.5,3.83333 207.5,5.5C 212.167,5.5 216.833,5.5 221.5,5.5C 221.5,7.16667 221.5,8.83333 221.5,10.5C 219.833,10.5 218.167,10.5 216.5,10.5C 216.5,9.16667 216.5,7.83333 216.5,6.5C 213.5,6.5 210.5,6.5 207.5,6.5C 207.5,7.83333 207.5,9.16667 207.5,10.5C 208.833,10.5 210.167,10.5 211.5,10.5C 211.5,13.8333 211.5,17.1667 211.5,20.5C 213.167,20.5 214.833,20.5 216.5,20.5C 216.5,23.8333 216.5,27.1667 216.5,30.5C 218.167,30.5 219.833,30.5 221.5,30.5C 221.5,33.8333 221.5,37.1667 221.5,40.5C 223.167,40.5 224.833,40.5 226.5,40.5C 226.5,43.8333 226.5,47.1667 226.5,50.5C 228.167,50.5 229.833,50.5 231.5,50.5C 231.5,53.8333 231.5,57.1667 231.5,60.5C 233.167,60.5 234.833,60.5 236.5,60.5C 236.5,63.8333 236.5,67.1667 236.5,70.5C 238.167,70.5 239.833,70.5 241.5,70.5C 241.5,73.8333 241.5,77.1667 241.5,80.5C 243.167,80.5 244.833,80.5 246.5,80.5C 246.5,83.8333 246.5,87.1667 246.5,90.5C 248.167,90.5 249.833,90.5 251.5,90.5C 251.5,93.8333 251.5,97.1667 251.5,100.5C 253.167,100.5 254.833,100.5 256.5,100.5C 256.5,103.5 256.5,106.5 256.5,109.5C 260.042,109.187 263.375,109.521 266.5,110.5C 263.167,110.5 259.833,110.5 256.5,110.5C 256.5,113.5 256.5,116.5 256.5,119.5C 254.805,120.826 253.472,120.493 252.5,118.5C 252.5,117.5 252.5,116.5 252.5,115.5C 250.833,115.5 249.167,115.5 247.5,115.5C 247.167,115.5 246.833,115.5 246.5,115.5C 244.585,115.784 242.919,115.451 241.5,114.5C 241.5,113.167 241.5,111.833 241.5,110.5C 242.434,111.568 242.768,112.901 242.5,114.5C 243.833,114.5 245.167,114.5 246.5,114.5C 246.5,111.5 246.5,108.5 246.5,105.5C 244.833,105.5 243.167,105.5 241.5,105.5C 241.5,102.167 241.5,98.8333 241.5,95.5C 240.77,94.2876 239.77,93.2876 238.5,92.5C 237.933,90.0177 237.266,87.6843 236.5,85.5C 236.5,83.8333 236.5,82.1667 236.5,80.5C 235.167,80.5 233.833,80.5 232.5,80.5C 232.5,76.8333 232.5,73.1667 232.5,69.5C 231.5,69.5 230.5,69.5 229.5,69.5C 229.5,67.5 229.5,65.5 229.5,63.5C 228.5,63.5 227.5,63.5 226.5,63.5C 226.5,62.5 226.5,61.5 226.5,60.5C 225.167,60.5 223.833,60.5 222.5,60.5C 222.784,58.5853 222.451,56.9187 221.5,55.5C 221.5,53.8333 221.5,52.1667 221.5,50.5C 220.167,50.5 218.833,50.5 217.5,50.5C 217.384,47.1401 217.051,43.8067 216.5,40.5C 215.167,40.5 213.833,40.5 212.5,40.5C 212.784,38.5853 212.451,36.9187 211.5,35.5C 209.833,33.8333 208.167,32.1667 206.5,30.5C 206.5,28.8333 206.5,27.1667 206.5,25.5C 205.432,24.5655 204.099,24.2322 202.5,24.5C 202.5,19.8333 202.5,15.1667 202.5,10.5C 203.833,10.5 205.167,10.5 206.5,10.5C 206.5,8.83333 206.5,7.16667 206.5,5.5C 206.5,3.83333 206.5,2.16667 206.5,0.5C 206.5,0.166667 206.5,-0.166667 206.5,-0.5 Z"/></g>
<g><path style="opacity:0.277" fill="#bcbcbe" d="M 231.5,10.5 C 232.477,13.2869 232.81,16.2869 232.5,19.5C 234.099,19.2322 235.432,19.5655 236.5,20.5C 234.833,20.5 233.167,20.5 231.5,20.5C 231.5,17.1667 231.5,13.8333 231.5,10.5 Z"/></g>
<g><path style="opacity:1" fill="#4c4b51" d="M 146.5,-0.5 C 151.5,-0.5 156.5,-0.5 161.5,-0.5C 161.5,-0.166667 161.5,0.166667 161.5,0.5C 161.5,2.16667 161.5,3.83333 161.5,5.5C 163.167,5.5 164.833,5.5 166.5,5.5C 166.5,7.16667 166.5,8.83333 166.5,10.5C 166.5,15.1667 166.5,19.8333 166.5,24.5C 167.833,24.5 169.167,24.5 170.5,24.5C 170.5,19.8333 170.5,15.1667 170.5,10.5C 170.833,10.5 171.167,10.5 171.5,10.5C 172.648,14.9811 172.815,19.6478 172,24.5C 170.644,25.3802 169.144,25.7135 167.5,25.5C 167.665,28.5184 167.498,31.5184 167,34.5C 165.644,35.3802 164.144,35.7135 162.5,35.5C 162.665,38.5184 162.498,41.5184 162,44.5C 160.644,45.3802 159.144,45.7135 157.5,45.5C 157.5,48.8333 157.5,52.1667 157.5,55.5C 155.833,55.5 154.167,55.5 152.5,55.5C 152.813,59.0419 152.479,62.3752 151.5,65.5C 151.5,61.8333 151.5,58.1667 151.5,54.5C 152.833,54.5 154.167,54.5 155.5,54.5C 155.5,51.5 155.5,48.5 155.5,45.5C 154.5,45.5 153.5,45.5 152.5,45.5C 153.172,44.7326 154.005,44.0659 155,43.5C 155.183,40.6353 155.683,37.9686 156.5,35.5C 157.422,33.1837 159.089,31.517 161.5,30.5C 161.5,31.8333 161.5,33.1667 161.5,34.5C 162.833,34.5 164.167,34.5 165.5,34.5C 165.5,31.5 165.5,28.5 165.5,25.5C 164.167,25.5 162.833,25.5 161.5,25.5C 162.261,24.6091 163.261,23.9424 164.5,23.5C 165.491,19.5546 165.824,15.5546 165.5,11.5C 163.708,11.634 162.042,11.3007 160.5,10.5C 160.5,9.16667 160.5,7.83333 160.5,6.5C 157.833,6.5 155.167,6.5 152.5,6.5C 152.67,7.82207 152.337,8.98873 151.5,10C 148.183,10.4983 144.85,10.665 141.5,10.5C 141.5,8.83333 141.5,7.16667 141.5,5.5C 143.167,5.5 144.833,5.5 146.5,5.5C 146.5,3.83333 146.5,2.16667 146.5,0.5C 146.5,0.166667 146.5,-0.166667 146.5,-0.5 Z"/></g>
<g><path style="opacity:1" fill="#07070a" d="M 147.5,0.5 C 151.833,0.5 156.167,0.5 160.5,0.5C 160.5,2.16667 160.5,3.83333 160.5,5.5C 156.167,5.5 151.833,5.5 147.5,5.5C 147.5,3.83333 147.5,2.16667 147.5,0.5 Z"/></g>
<g><path style="opacity:1" fill="#050507" d="M 166.5,10.5 C 167.833,10.5 169.167,10.5 170.5,10.5C 170.5,15.1667 170.5,19.8333 170.5,24.5C 169.167,24.5 167.833,24.5 166.5,24.5C 166.5,19.8333 166.5,15.1667 166.5,10.5 Z"/></g>
<g><path style="opacity:1" fill="#45444a" d="M 201.5,5.5 C 203.167,5.5 204.833,5.5 206.5,5.5C 206.5,7.16667 206.5,8.83333 206.5,10.5C 205.167,10.5 203.833,10.5 202.5,10.5C 202.5,15.1667 202.5,19.8333 202.5,24.5C 204.099,24.2322 205.432,24.5655 206.5,25.5C 205.167,25.5 203.833,25.5 202.5,25.5C 202.5,28.5 202.5,31.5 202.5,34.5C 203.833,34.5 205.167,34.5 206.5,34.5C 206.5,33.1667 206.5,31.8333 206.5,30.5C 208.167,32.1667 209.833,33.8333 211.5,35.5C 212.451,36.9187 212.784,38.5853 212.5,40.5C 213.833,40.5 215.167,40.5 216.5,40.5C 217.051,43.8067 217.384,47.1401 217.5,50.5C 218.833,50.5 220.167,50.5 221.5,50.5C 221.5,52.1667 221.5,53.8333 221.5,55.5C 220.167,55.5 218.833,55.5 217.5,55.5C 216.833,55.5 216.5,55.1667 216.5,54.5C 216.5,51.5 216.5,48.5 216.5,45.5C 215.167,45.5 213.833,45.5 212.5,45.5C 211.539,47.2646 211.205,49.2646 211.5,51.5C 210.539,49.7354 210.205,47.7354 210.5,45.5C 208.856,45.7135 207.356,45.3802 206,44.5C 205.502,41.5184 205.335,38.5184 205.5,35.5C 203.833,35.5 202.167,35.5 200.5,35.5C 200.5,32.1667 200.5,28.8333 200.5,25.5C 198.833,25.5 197.167,25.5 195.5,25.5C 195.179,20.3054 195.513,15.3054 196.5,10.5C 196.833,10.5 197.167,10.5 197.5,10.5C 197.5,15.1667 197.5,19.8333 197.5,24.5C 198.833,24.5 200.167,24.5 201.5,24.5C 201.5,19.8333 201.5,15.1667 201.5,10.5C 201.5,8.83333 201.5,7.16667 201.5,5.5 Z"/></g>
<g><path style="opacity:1" fill="#030304" d="M 197.5,10.5 C 198.833,10.5 200.167,10.5 201.5,10.5C 201.5,15.1667 201.5,19.8333 201.5,24.5C 200.167,24.5 198.833,24.5 197.5,24.5C 197.5,19.8333 197.5,15.1667 197.5,10.5 Z"/></g>
<g><path style="opacity:1" fill="#121015" d="M 136.5,10.5 C 138.167,10.5 139.833,10.5 141.5,10.5C 141.5,13.8333 141.5,17.1667 141.5,20.5C 139.833,20.5 138.167,20.5 136.5,20.5C 136.5,17.1667 136.5,13.8333 136.5,10.5 Z"/></g>
<g><path style="opacity:1" fill="#101015" d="M 226.5,10.5 C 228.167,10.5 229.833,10.5 231.5,10.5C 231.5,13.8333 231.5,17.1667 231.5,20.5C 229.833,20.5 228.167,20.5 226.5,20.5C 226.5,17.1667 226.5,13.8333 226.5,10.5 Z"/></g>
<g><path style="opacity:0.311" fill="#bababa" d="M 131.5,20.5 C 131.5,23.8333 131.5,27.1667 131.5,30.5C 129.833,30.5 128.167,30.5 126.5,30.5C 127.568,29.5655 128.901,29.2322 130.5,29.5C 130.19,26.2869 130.523,23.2869 131.5,20.5 Z"/></g>
<g><path style="opacity:1" fill="#121115" d="M 131.5,20.5 C 133.167,20.5 134.833,20.5 136.5,20.5C 136.5,23.8333 136.5,27.1667 136.5,30.5C 134.833,30.5 133.167,30.5 131.5,30.5C 131.5,27.1667 131.5,23.8333 131.5,20.5 Z"/></g>
<g><path style="opacity:1" fill="#0d0c10" d="M 231.5,20.5 C 233.167,20.5 234.833,20.5 236.5,20.5C 236.5,23.8333 236.5,27.1667 236.5,30.5C 234.833,30.5 233.167,30.5 231.5,30.5C 231.5,27.1667 231.5,23.8333 231.5,20.5 Z"/></g>
<g><path style="opacity:0.293" fill="#bdbdbe" d="M 236.5,20.5 C 237.477,23.2869 237.81,26.2869 237.5,29.5C 239.099,29.2322 240.432,29.5655 241.5,30.5C 239.833,30.5 238.167,30.5 236.5,30.5C 236.5,27.1667 236.5,23.8333 236.5,20.5 Z"/></g>
<g><path style="opacity:1" fill="#030305" d="M 206.5,25.5 C 206.5,27.1667 206.5,28.8333 206.5,30.5C 206.5,31.8333 206.5,33.1667 206.5,34.5C 205.167,34.5 203.833,34.5 202.5,34.5C 202.5,31.5 202.5,28.5 202.5,25.5C 203.833,25.5 205.167,25.5 206.5,25.5 Z"/></g>
<g><path style="opacity:1" fill="#060509" d="M 161.5,25.5 C 162.833,25.5 164.167,25.5 165.5,25.5C 165.5,28.5 165.5,31.5 165.5,34.5C 164.167,34.5 162.833,34.5 161.5,34.5C 161.5,33.1667 161.5,31.8333 161.5,30.5C 161.5,28.8333 161.5,27.1667 161.5,25.5 Z"/></g>
<g><path style="opacity:0.364" fill="#b7b7b7" d="M 126.5,30.5 C 126.5,33.8333 126.5,37.1667 126.5,40.5C 124.833,40.5 123.167,40.5 121.5,40.5C 122.568,39.5655 123.901,39.2322 125.5,39.5C 125.19,36.2869 125.523,33.2869 126.5,30.5 Z"/></g>
<g><path style="opacity:1" fill="#101012" d="M 126.5,30.5 C 128.167,30.5 129.833,30.5 131.5,30.5C 131.5,33.8333 131.5,37.1667 131.5,40.5C 129.833,40.5 128.167,40.5 126.5,40.5C 126.5,37.1667 126.5,33.8333 126.5,30.5 Z"/></g>
<g><path style="opacity:1" fill="#0c0b0d" d="M 236.5,30.5 C 238.167,30.5 239.833,30.5 241.5,30.5C 241.5,33.8333 241.5,37.1667 241.5,40.5C 239.833,40.5 238.167,40.5 236.5,40.5C 236.5,37.1667 236.5,33.8333 236.5,30.5 Z"/></g>
<g><path style="opacity:0.312" fill="#bcbcbc" d="M 241.5,30.5 C 242.477,33.2869 242.81,36.2869 242.5,39.5C 244.099,39.2322 245.432,39.5655 246.5,40.5C 244.833,40.5 243.167,40.5 241.5,40.5C 241.5,37.1667 241.5,33.8333 241.5,30.5 Z"/></g>
<g><path style="opacity:1" fill="#030304" d="M 211.5,35.5 C 211.5,38.5 211.5,41.5 211.5,44.5C 210.167,44.5 208.833,44.5 207.5,44.5C 207.5,41.5 207.5,38.5 207.5,35.5C 208.833,35.5 210.167,35.5 211.5,35.5 Z"/></g>
<g><path style="opacity:1" fill="#050506" d="M 156.5,35.5 C 157.833,35.5 159.167,35.5 160.5,35.5C 160.5,38.5 160.5,41.5 160.5,44.5C 159.167,44.5 157.833,44.5 156.5,44.5C 156.5,41.5 156.5,38.5 156.5,35.5 Z"/></g>
<g><path style="opacity:1" fill="#312e42" d="M 160.5,10.5 C 162.042,11.3007 163.708,11.634 165.5,11.5C 165.824,15.5546 165.491,19.5546 164.5,23.5C 163.261,23.9424 162.261,24.6091 161.5,25.5C 161.5,27.1667 161.5,28.8333 161.5,30.5C 159.089,31.517 157.422,33.1837 156.5,35.5C 155.683,37.9686 155.183,40.6353 155,43.5C 154.005,44.0659 153.172,44.7326 152.5,45.5C 151.523,48.2869 151.19,51.2869 151.5,54.5C 151.5,58.1667 151.5,61.8333 151.5,65.5C 150.167,65.5 148.833,65.5 147.5,65.5C 147.665,68.5184 147.498,71.5184 147,74.5C 145.644,75.3802 144.144,75.7135 142.5,75.5C 141.833,75.5 141.167,75.5 140.5,75.5C 139.167,75.5 137.833,75.5 136.5,75.5C 136.5,78.5 136.5,81.5 136.5,84.5C 136.5,87.8333 136.5,91.1667 136.5,94.5C 136.5,95.1667 136.167,95.5 135.5,95.5C 134.167,95.5 132.833,95.5 131.5,95.5C 131.5,98.8333 131.5,102.167 131.5,105.5C 130.521,102.375 130.187,99.0419 130.5,95.5C 129.167,95.5 127.833,95.5 126.5,95.5C 125.178,95.67 124.011,95.3366 123,94.5C 121.36,99.3649 120.36,104.365 120,109.5C 119.261,110.574 118.261,111.241 117,111.5C 115.189,111.292 113.356,110.959 111.5,110.5C 108.167,110.5 104.833,110.5 101.5,110.5C 104.625,109.521 107.958,109.187 111.5,109.5C 111.5,106.5 111.5,103.5 111.5,100.5C 113.167,100.5 114.833,100.5 116.5,100.5C 116.5,97.1667 116.5,93.8333 116.5,90.5C 118.167,90.5 119.833,90.5 121.5,90.5C 121.5,87.1667 121.5,83.8333 121.5,80.5C 123.167,80.5 124.833,80.5 126.5,80.5C 126.5,77.1667 126.5,73.8333 126.5,70.5C 128.167,70.5 129.833,70.5 131.5,70.5C 131.5,67.1667 131.5,63.8333 131.5,60.5C 133.167,60.5 134.833,60.5 136.5,60.5C 136.5,57.1667 136.5,53.8333 136.5,50.5C 138.167,50.5 139.833,50.5 141.5,50.5C 141.5,47.1667 141.5,43.8333 141.5,40.5C 143.167,40.5 144.833,40.5 146.5,40.5C 146.5,37.1667 146.5,33.8333 146.5,30.5C 148.167,30.5 149.833,30.5 151.5,30.5C 151.5,27.1667 151.5,23.8333 151.5,20.5C 153.167,20.5 154.833,20.5 156.5,20.5C 156.5,17.1667 156.5,13.8333 156.5,10.5C 157.833,10.5 159.167,10.5 160.5,10.5 Z"/></g>
<g><path style="opacity:0.378" fill="#b4b4b4" d="M 121.5,40.5 C 121.5,43.8333 121.5,47.1667 121.5,50.5C 119.833,50.5 118.167,50.5 116.5,50.5C 117.568,49.5655 118.901,49.2322 120.5,49.5C 120.19,46.2869 120.523,43.2869 121.5,40.5 Z"/></g>
<g><path style="opacity:1" fill="#111015" d="M 121.5,40.5 C 123.167,40.5 124.833,40.5 126.5,40.5C 126.5,43.8333 126.5,47.1667 126.5,50.5C 124.833,50.5 123.167,50.5 121.5,50.5C 121.5,47.1667 121.5,43.8333 121.5,40.5 Z"/></g>
<g><path style="opacity:1" fill="#0b0a0c" d="M 241.5,40.5 C 243.167,40.5 244.833,40.5 246.5,40.5C 246.5,43.8333 246.5,47.1667 246.5,50.5C 244.833,50.5 243.167,50.5 241.5,50.5C 241.5,47.1667 241.5,43.8333 241.5,40.5 Z"/></g>
<g><path style="opacity:0.314" fill="#bababb" d="M 246.5,40.5 C 247.477,43.2869 247.81,46.2869 247.5,49.5C 249.099,49.2322 250.432,49.5655 251.5,50.5C 249.833,50.5 248.167,50.5 246.5,50.5C 246.5,47.1667 246.5,43.8333 246.5,40.5 Z"/></g>
<g><path style="opacity:1" fill="#030304" d="M 212.5,45.5 C 213.833,45.5 215.167,45.5 216.5,45.5C 216.5,48.5 216.5,51.5 216.5,54.5C 215.167,54.5 213.833,54.5 212.5,54.5C 212.5,51.5 212.5,48.5 212.5,45.5 Z"/></g>
<g><path style="opacity:1" fill="#050506" d="M 152.5,45.5 C 153.5,45.5 154.5,45.5 155.5,45.5C 155.5,48.5 155.5,51.5 155.5,54.5C 154.167,54.5 152.833,54.5 151.5,54.5C 151.19,51.2869 151.523,48.2869 152.5,45.5 Z"/></g>
<g><path style="opacity:0.42" fill="#b3b3b5" d="M 116.5,50.5 C 116.5,53.8333 116.5,57.1667 116.5,60.5C 114.833,60.5 113.167,60.5 111.5,60.5C 112.568,59.5655 113.901,59.2322 115.5,59.5C 115.19,56.2869 115.523,53.2869 116.5,50.5 Z"/></g>
<g><path style="opacity:1" fill="#0e0c10" d="M 116.5,50.5 C 118.167,50.5 119.833,50.5 121.5,50.5C 121.5,53.8333 121.5,57.1667 121.5,60.5C 119.833,60.5 118.167,60.5 116.5,60.5C 116.5,57.1667 116.5,53.8333 116.5,50.5 Z"/></g>
<g><path style="opacity:1" fill="#0b0a0d" d="M 246.5,50.5 C 248.167,50.5 249.833,50.5 251.5,50.5C 251.5,53.8333 251.5,57.1667 251.5,60.5C 249.833,60.5 248.167,60.5 246.5,60.5C 246.5,57.1667 246.5,53.8333 246.5,50.5 Z"/></g>
<g><path style="opacity:0.314" fill="#bababa" d="M 251.5,50.5 C 252.477,53.2869 252.81,56.2869 252.5,59.5C 254.099,59.2322 255.432,59.5655 256.5,60.5C 254.833,60.5 253.167,60.5 251.5,60.5C 251.5,57.1667 251.5,53.8333 251.5,50.5 Z"/></g>
<g><path style="opacity:1" fill="#050506" d="M 146.5,55.5 C 147.833,55.5 149.167,55.5 150.5,55.5C 150.5,58.5 150.5,61.5 150.5,64.5C 149.167,64.5 147.833,64.5 146.5,64.5C 146.5,61.5 146.5,58.5 146.5,55.5 Z"/></g>
<g><path style="opacity:1" fill="#4b4b4b" d="M 212.5,45.5 C 212.5,48.5 212.5,51.5 212.5,54.5C 213.833,54.5 215.167,54.5 216.5,54.5C 216.5,55.1667 216.833,55.5 217.5,55.5C 217.5,58.5 217.5,61.5 217.5,64.5C 218.833,64.5 220.167,64.5 221.5,64.5C 221.5,65.1667 221.833,65.5 222.5,65.5C 222.5,68.5 222.5,71.5 222.5,74.5C 223.833,74.5 225.167,74.5 226.5,74.5C 226.5,75.1667 226.5,75.8333 226.5,76.5C 224.856,76.7135 223.356,76.3802 222,75.5C 221.667,72.5 221.333,69.5 221,66.5C 219.644,65.6198 218.144,65.2865 216.5,65.5C 216.665,62.4816 216.498,59.4816 216,56.5C 214.644,55.6198 213.144,55.2865 211.5,55.5C 211.5,54.1667 211.5,52.8333 211.5,51.5C 211.205,49.2646 211.539,47.2646 212.5,45.5 Z"/></g>
<g><path style="opacity:1" fill="#030305" d="M 217.5,55.5 C 218.833,55.5 220.167,55.5 221.5,55.5C 221.5,58.5 221.5,61.5 221.5,64.5C 220.167,64.5 218.833,64.5 217.5,64.5C 217.5,61.5 217.5,58.5 217.5,55.5 Z"/></g>
<g><path style="opacity:0.436" fill="#b1b1b1" d="M 111.5,60.5 C 111.5,63.8333 111.5,67.1667 111.5,70.5C 109.833,70.5 108.167,70.5 106.5,70.5C 107.568,69.5655 108.901,69.2322 110.5,69.5C 110.19,66.2869 110.523,63.2869 111.5,60.5 Z"/></g>
<g><path style="opacity:1" fill="#0d0d10" d="M 111.5,60.5 C 113.167,60.5 114.833,60.5 116.5,60.5C 116.5,63.8333 116.5,67.1667 116.5,70.5C 114.833,70.5 113.167,70.5 111.5,70.5C 111.5,67.1667 111.5,63.8333 111.5,60.5 Z"/></g>
<g><path style="opacity:1" fill="#101012" d="M 251.5,60.5 C 253.167,60.5 254.833,60.5 256.5,60.5C 256.5,63.8333 256.5,67.1667 256.5,70.5C 254.833,70.5 253.167,70.5 251.5,70.5C 251.5,67.1667 251.5,63.8333 251.5,60.5 Z"/></g>
<g><path style="opacity:0.365" fill="#b8b8b8" d="M 256.5,60.5 C 257.477,63.2869 257.81,66.2869 257.5,69.5C 259.099,69.2322 260.432,69.5655 261.5,70.5C 259.833,70.5 258.167,70.5 256.5,70.5C 256.5,67.1667 256.5,63.8333 256.5,60.5 Z"/></g>
<g><path style="opacity:1" fill="#050406" d="M 141.5,65.5 C 142.833,65.5 144.167,65.5 145.5,65.5C 145.5,68.5 145.5,71.5 145.5,74.5C 144.167,74.5 142.833,74.5 141.5,74.5C 141.5,71.5 141.5,68.5 141.5,65.5 Z"/></g>
<g><path style="opacity:1" fill="#030305" d="M 222.5,65.5 C 223.833,65.5 225.167,65.5 226.5,65.5C 226.5,68.5 226.5,71.5 226.5,74.5C 225.167,74.5 223.833,74.5 222.5,74.5C 222.5,71.5 222.5,68.5 222.5,65.5 Z"/></g>
<g><path style="opacity:1" fill="#2e2c37" d="M 221.5,55.5 C 222.451,56.9187 222.784,58.5853 222.5,60.5C 223.833,60.5 225.167,60.5 226.5,60.5C 226.5,61.5 226.5,62.5 226.5,63.5C 227.5,63.5 228.5,63.5 229.5,63.5C 229.5,65.5 229.5,67.5 229.5,69.5C 230.5,69.5 231.5,69.5 232.5,69.5C 232.5,73.1667 232.5,76.8333 232.5,80.5C 233.833,80.5 235.167,80.5 236.5,80.5C 236.5,82.1667 236.5,83.8333 236.5,85.5C 237.266,87.6843 237.933,90.0177 238.5,92.5C 239.77,93.2876 240.77,94.2876 241.5,95.5C 240.167,95.5 238.833,95.5 237.5,95.5C 237.813,99.0419 237.479,102.375 236.5,105.5C 236.5,104.833 236.5,104.167 236.5,103.5C 236.5,101.5 236.5,99.5 236.5,97.5C 235.817,95.8235 234.483,95.1568 232.5,95.5C 231.834,92.6417 231.167,89.6417 230.5,86.5C 229.264,85.7542 227.93,85.4208 226.5,85.5C 226.5,82.5 226.5,79.5 226.5,76.5C 226.5,75.8333 226.5,75.1667 226.5,74.5C 226.5,71.5 226.5,68.5 226.5,65.5C 225.167,65.5 223.833,65.5 222.5,65.5C 221.833,65.5 221.5,65.1667 221.5,64.5C 221.5,61.5 221.5,58.5 221.5,55.5 Z"/></g>
<g><path style="opacity:1" fill="#0d0c0d" d="M 106.5,70.5 C 108.167,70.5 109.833,70.5 111.5,70.5C 111.5,73.8333 111.5,77.1667 111.5,80.5C 109.833,80.5 108.167,80.5 106.5,80.5C 106.5,77.1667 106.5,73.8333 106.5,70.5 Z"/></g>
<g><path style="opacity:1" fill="#101012" d="M 256.5,70.5 C 258.167,70.5 259.833,70.5 261.5,70.5C 261.5,73.8333 261.5,77.1667 261.5,80.5C 259.833,80.5 258.167,80.5 256.5,80.5C 256.5,77.1667 256.5,73.8333 256.5,70.5 Z"/></g>
<g><path style="opacity:0.371" fill="#b8b8b8" d="M 261.5,70.5 C 262.477,73.2869 262.81,76.2869 262.5,79.5C 264.099,79.2322 265.432,79.5655 266.5,80.5C 264.833,80.5 263.167,80.5 261.5,80.5C 261.5,77.1667 261.5,73.8333 261.5,70.5 Z"/></g>
<g><path style="opacity:1" fill="#030303" d="M 227.5,75.5 C 228.833,75.5 230.167,75.5 231.5,75.5C 231.5,78.5 231.5,81.5 231.5,84.5C 230.167,84.5 228.833,84.5 227.5,84.5C 227.5,81.5 227.5,78.5 227.5,75.5 Z"/></g>
<g><path style="opacity:0.445" fill="#b1b0b1" d="M 106.5,70.5 C 106.5,73.8333 106.5,77.1667 106.5,80.5C 104.833,80.5 103.167,80.5 101.5,80.5C 102.568,79.5655 103.901,79.2322 105.5,79.5C 105.19,76.2869 105.523,73.2869 106.5,70.5 Z"/></g>
<g><path style="opacity:1" fill="#050507" d="M 140.5,75.5 C 140.5,78.5 140.5,81.5 140.5,84.5C 139.167,84.5 137.833,84.5 136.5,84.5C 136.5,81.5 136.5,78.5 136.5,75.5C 137.833,75.5 139.167,75.5 140.5,75.5 Z"/></g>
<g><path style="opacity:1" fill="#858683" d="M 140.5,75.5 C 141.167,75.5 141.833,75.5 142.5,75.5C 142.665,78.5184 142.498,81.5184 142,84.5C 141.072,86.3348 139.906,86.6682 138.5,85.5C 137.833,88.6417 137.166,91.6417 136.5,94.5C 136.5,91.1667 136.5,87.8333 136.5,84.5C 137.833,84.5 139.167,84.5 140.5,84.5C 140.5,81.5 140.5,78.5 140.5,75.5 Z"/></g>
<g><path style="opacity:1" fill="#0b0a0c" d="M 261.5,80.5 C 263.167,80.5 264.833,80.5 266.5,80.5C 266.5,83.8333 266.5,87.1667 266.5,90.5C 264.833,90.5 263.167,90.5 261.5,90.5C 261.5,87.1667 261.5,83.8333 261.5,80.5 Z"/></g>
<g><path style="opacity:0.389" fill="#b7b7b7" d="M 266.5,80.5 C 267.477,83.2869 267.81,86.2869 267.5,89.5C 269.099,89.2322 270.432,89.5655 271.5,90.5C 269.833,90.5 268.167,90.5 266.5,90.5C 266.5,87.1667 266.5,83.8333 266.5,80.5 Z"/></g>
<g><path style="opacity:1" fill="#0d0d11" d="M 101.5,80.5 C 103.167,80.5 104.833,80.5 106.5,80.5C 106.5,83.8333 106.5,87.1667 106.5,90.5C 104.833,90.5 103.167,90.5 101.5,90.5C 101.5,87.1667 101.5,83.8333 101.5,80.5 Z"/></g>
<g><path style="opacity:1" fill="#040304" d="M 236.5,85.5 C 236.5,88.5 236.5,91.5 236.5,94.5C 235.167,94.5 233.833,94.5 232.5,94.5C 232.5,91.5 232.5,88.5 232.5,85.5C 233.833,85.5 235.167,85.5 236.5,85.5 Z"/></g>
<g><path style="opacity:0.445" fill="#aeaeaf" d="M 101.5,80.5 C 101.5,83.8333 101.5,87.1667 101.5,90.5C 99.8333,90.5 98.1667,90.5 96.5,90.5C 97.5676,89.5655 98.901,89.2322 100.5,89.5C 100.19,86.2869 100.523,83.2869 101.5,80.5 Z"/></g>
<g><path style="opacity:1" fill="#050506" d="M 131.5,85.5 C 132.833,85.5 134.167,85.5 135.5,85.5C 135.5,88.5 135.5,91.5 135.5,94.5C 134.167,94.5 132.833,94.5 131.5,94.5C 131.5,91.5 131.5,88.5 131.5,85.5 Z"/></g>
<g><path style="opacity:1" fill="#0d0b0f" d="M 96.5,90.5 C 98.1667,90.5 99.8333,90.5 101.5,90.5C 101.5,93.8333 101.5,97.1667 101.5,100.5C 99.8333,100.5 98.1667,100.5 96.5,100.5C 96.5,97.1667 96.5,93.8333 96.5,90.5 Z"/></g>
<g><path style="opacity:1" fill="#09090d" d="M 266.5,90.5 C 268.167,90.5 269.833,90.5 271.5,90.5C 271.5,93.8333 271.5,97.1667 271.5,100.5C 269.833,100.5 268.167,100.5 266.5,100.5C 266.5,97.1667 266.5,93.8333 266.5,90.5 Z"/></g>
<g><path style="opacity:0.395" fill="#b8b7b8" d="M 271.5,90.5 C 272.477,93.2869 272.81,96.2869 272.5,99.5C 274.099,99.2322 275.432,99.5655 276.5,100.5C 274.833,100.5 273.167,100.5 271.5,100.5C 271.5,97.1667 271.5,93.8333 271.5,90.5 Z"/></g>
<g><path style="opacity:0.525" fill="#aeadaf" d="M 96.5,90.5 C 96.5,93.8333 96.5,97.1667 96.5,100.5C 94.8333,100.5 93.1667,100.5 91.5,100.5C 92.5676,99.5655 93.901,99.2322 95.5,99.5C 95.19,96.2869 95.5233,93.2869 96.5,90.5 Z"/></g>
<g><path style="opacity:1" fill="#130b0a" d="M 126.5,95.5 C 127.833,95.5 129.167,95.5 130.5,95.5C 130.187,99.0419 130.521,102.375 131.5,105.5C 166.5,105.5 201.5,105.5 236.5,105.5C 237.479,102.375 237.813,99.0419 237.5,95.5C 238.833,95.5 240.167,95.5 241.5,95.5C 241.5,98.8333 241.5,102.167 241.5,105.5C 243.167,105.5 244.833,105.5 246.5,105.5C 246.5,108.5 246.5,111.5 246.5,114.5C 245.167,114.5 243.833,114.5 242.5,114.5C 242.768,112.901 242.434,111.568 241.5,110.5C 203.167,110.5 164.833,110.5 126.5,110.5C 125.566,111.568 125.232,112.901 125.5,114.5C 124.167,114.5 122.833,114.5 121.5,114.5C 121.5,111.5 121.5,108.5 121.5,105.5C 123.167,105.5 124.833,105.5 126.5,105.5C 126.5,102.167 126.5,98.8333 126.5,95.5 Z"/></g>
<g><path style="opacity:0.02" fill="#dcdcdb" d="M 232.5,95.5 C 234.483,95.1568 235.817,95.8235 236.5,97.5C 235.005,97.0113 233.671,96.3446 232.5,95.5 Z"/></g>
<g><path style="opacity:1" fill="#140c0b" d="M 271.5,100.5 C 273.167,100.5 274.833,100.5 276.5,100.5C 276.5,102.167 276.5,103.833 276.5,105.5C 306.5,105.5 336.5,105.5 366.5,105.5C 366.5,115.5 366.5,125.5 366.5,135.5C 364.833,135.5 363.167,135.5 361.5,135.5C 361.5,128.833 361.5,122.167 361.5,115.5C 361.5,113.833 361.5,112.167 361.5,110.5C 334.833,110.5 308.167,110.5 281.5,110.5C 281.5,115.5 281.5,120.5 281.5,125.5C 279.833,125.5 278.167,125.5 276.5,125.5C 276.5,120.5 276.5,115.5 276.5,110.5C 274.833,110.5 273.167,110.5 271.5,110.5C 271.5,107.167 271.5,103.833 271.5,100.5 Z"/></g>
<g><path style="opacity:1" fill="#150d0e" d="M 91.5,100.5 C 93.1667,100.5 94.8333,100.5 96.5,100.5C 96.5,103.833 96.5,107.167 96.5,110.5C 94.8333,110.5 93.1667,110.5 91.5,110.5C 91.5,115.5 91.5,120.5 91.5,125.5C 89.8333,125.5 88.1667,125.5 86.5,125.5C 86.8205,120.305 86.4872,115.305 85.5,110.5C 59.1667,110.5 32.8333,110.5 6.5,110.5C 6.5,112.167 6.5,113.833 6.5,115.5C 6.5,122.167 6.5,128.833 6.5,135.5C 4.83333,135.5 3.16667,135.5 1.5,135.5C 1.5,125.5 1.5,115.5 1.5,105.5C 31.5,105.5 61.5,105.5 91.5,105.5C 91.5,103.833 91.5,102.167 91.5,100.5 Z"/></g>
<g><path style="opacity:0.257" fill="#c5c5c5" d="M 91.5,100.5 C 91.5,102.167 91.5,103.833 91.5,105.5C 61.5,105.5 31.5,105.5 1.5,105.5C 30.9953,104.502 60.662,104.169 90.5,104.5C 90.2322,102.901 90.5655,101.568 91.5,100.5 Z"/></g>
<g><path style="opacity:0.266" fill="#c6c7c6" d="M 135.5,95.5 C 134.791,96.404 133.791,96.7373 132.5,96.5C 132.5,99.1667 132.5,101.833 132.5,104.5C 167.24,104.826 201.906,104.493 236.5,103.5C 236.5,104.167 236.5,104.833 236.5,105.5C 201.5,105.5 166.5,105.5 131.5,105.5C 131.5,102.167 131.5,98.8333 131.5,95.5C 132.833,95.5 134.167,95.5 135.5,95.5 Z"/></g>
<g><path style="opacity:0.269" fill="#c3c5c2" d="M 276.5,100.5 C 277.434,101.568 277.768,102.901 277.5,104.5C 307.338,104.169 337.005,104.502 366.5,105.5C 336.5,105.5 306.5,105.5 276.5,105.5C 276.5,103.833 276.5,102.167 276.5,100.5 Z"/></g>
<g><path style="opacity:1" fill="#9a9b9a" d="M -0.5,105.5 C 0.166667,105.5 0.833333,105.5 1.5,105.5C 1.5,115.5 1.5,125.5 1.5,135.5C 0.833333,135.5 0.166667,135.5 -0.5,135.5C -0.5,125.5 -0.5,115.5 -0.5,105.5 Z"/></g>
<g><path style="opacity:1" fill="#a96064" d="M 85.5,110.5 C 85.5,110.833 85.5,111.167 85.5,111.5C 59.5,111.5 33.5,111.5 7.5,111.5C 7.5,112.833 7.5,114.167 7.5,115.5C 7.16667,115.5 6.83333,115.5 6.5,115.5C 6.5,113.833 6.5,112.167 6.5,110.5C 32.8333,110.5 59.1667,110.5 85.5,110.5 Z"/></g>
<g><path style="opacity:1" fill="#a96167" d="M 126.5,110.5 C 164.833,110.5 203.167,110.5 241.5,110.5C 241.5,111.833 241.5,113.167 241.5,114.5C 240.596,113.791 240.263,112.791 240.5,111.5C 202.833,111.5 165.167,111.5 127.5,111.5C 127.5,112.833 127.5,114.167 127.5,115.5C 127.167,115.5 126.833,115.5 126.5,115.5C 126.5,113.833 126.5,112.167 126.5,110.5 Z"/></g>
<g><path style="opacity:1" fill="#a65a60" d="M 361.5,115.5 C 361.167,115.5 360.833,115.5 360.5,115.5C 360.5,114.167 360.5,112.833 360.5,111.5C 334.5,111.5 308.5,111.5 282.5,111.5C 282.5,112.833 282.5,114.167 282.5,115.5C 282.5,118.833 282.5,122.167 282.5,125.5C 282.167,125.5 281.833,125.5 281.5,125.5C 281.5,120.5 281.5,115.5 281.5,110.5C 308.167,110.5 334.833,110.5 361.5,110.5C 361.5,112.167 361.5,113.833 361.5,115.5 Z"/></g>
<g><path style="opacity:1" fill="#ca636b" d="M 85.5,111.5 C 85.5,112.833 85.5,114.167 85.5,115.5C 65.5,115.5 45.5,115.5 25.5,115.5C 19.5,115.5 13.5,115.5 7.5,115.5C 7.5,114.167 7.5,112.833 7.5,111.5C 33.5,111.5 59.5,111.5 85.5,111.5 Z"/></g>
<g><path style="opacity:1" fill="#353241" d="M 96.5,110.5 C 96.5,111.833 96.5,113.167 96.5,114.5C 97.8333,114.5 99.1667,114.5 100.5,114.5C 100.232,112.901 100.566,111.568 101.5,110.5C 101.5,111.833 101.5,113.167 101.5,114.5C 103.415,114.216 105.081,114.549 106.5,115.5C 104.833,115.5 103.167,115.5 101.5,115.5C 101.5,117.167 101.5,118.833 101.5,120.5C 100.549,119.081 100.216,117.415 100.5,115.5C 99.1667,115.5 97.8333,115.5 96.5,115.5C 96.5,118.833 96.5,122.167 96.5,125.5C 94.8333,125.5 93.1667,125.5 91.5,125.5C 91.5,120.5 91.5,115.5 91.5,110.5C 93.1667,110.5 94.8333,110.5 96.5,110.5 Z"/></g>
<g><path style="opacity:1" fill="#08050b" d="M 101.5,110.5 C 104.833,110.5 108.167,110.5 111.5,110.5C 111.5,113.833 111.5,117.167 111.5,120.5C 109.833,120.5 108.167,120.5 106.5,120.5C 106.5,118.833 106.5,117.167 106.5,115.5C 105.081,114.549 103.415,114.216 101.5,114.5C 101.5,113.167 101.5,111.833 101.5,110.5 Z"/></g>
<g><path style="opacity:1" fill="#cd636b" d="M 241.5,114.5 C 242.919,115.451 244.585,115.784 246.5,115.5C 246.5,118.833 246.5,122.167 246.5,125.5C 245.523,122.713 245.19,119.713 245.5,116.5C 221.188,115.549 196.855,115.216 172.5,115.5C 172.167,115.5 171.833,115.5 171.5,115.5C 156.833,115.5 142.167,115.5 127.5,115.5C 127.5,114.167 127.5,112.833 127.5,111.5C 165.167,111.5 202.833,111.5 240.5,111.5C 240.263,112.791 240.596,113.791 241.5,114.5 Z"/></g>
<g><path style="opacity:1" fill="#04030b" d="M 266.5,110.5 C 266.5,111.833 266.5,113.167 266.5,114.5C 264.585,114.216 262.919,114.549 261.5,115.5C 261.5,117.167 261.5,118.833 261.5,120.5C 259.585,120.784 257.919,120.451 256.5,119.5C 256.5,116.5 256.5,113.5 256.5,110.5C 259.833,110.5 263.167,110.5 266.5,110.5 Z"/></g>
<g><path style="opacity:1" fill="#cd636c" d="M 360.5,115.5 C 357.833,115.5 355.167,115.5 352.5,115.5C 329.167,115.5 305.833,115.5 282.5,115.5C 282.5,114.167 282.5,112.833 282.5,111.5C 308.5,111.5 334.5,111.5 360.5,111.5C 360.5,112.833 360.5,114.167 360.5,115.5 Z"/></g>
<g><path style="opacity:1" fill="#37323f" d="M 266.5,110.5 C 267.434,111.568 267.768,112.901 267.5,114.5C 268.833,114.5 270.167,114.5 271.5,114.5C 271.5,113.167 271.5,111.833 271.5,110.5C 273.167,110.5 274.833,110.5 276.5,110.5C 276.5,115.5 276.5,120.5 276.5,125.5C 274.833,125.5 273.167,125.5 271.5,125.5C 271.5,122.167 271.5,118.833 271.5,115.5C 270.167,115.5 268.833,115.5 267.5,115.5C 267.784,117.415 267.451,119.081 266.5,120.5C 266.5,118.833 266.5,117.167 266.5,115.5C 264.833,115.5 263.167,115.5 261.5,115.5C 262.919,114.549 264.585,114.216 266.5,114.5C 266.5,113.167 266.5,111.833 266.5,110.5 Z"/></g>
<g><path style="opacity:1" fill="#c44653" d="M 172.5,115.5 C 196.855,115.216 221.188,115.549 245.5,116.5C 245.19,119.713 245.523,122.713 246.5,125.5C 248.167,125.5 249.833,125.5 251.5,125.5C 251.5,127.167 251.5,128.833 251.5,130.5C 252.716,132.48 253.549,134.48 254,136.5C 253.667,136.167 253.333,135.833 253,135.5C 247.917,136.307 242.75,136.807 237.5,137C 241.833,137.333 246.167,137.667 250.5,138C 224.502,138.5 198.502,138.667 172.5,138.5C 172.5,130.833 172.5,123.167 172.5,115.5 Z"/></g>
<g><path style="opacity:1" fill="#c34653" d="M 282.5,115.5 C 305.833,115.5 329.167,115.5 352.5,115.5C 352.082,116.222 351.416,116.722 350.5,117C 350.654,122.575 351.321,128.242 352.5,134C 351.767,135.766 351.433,137.599 351.5,139.5C 329.167,139.5 306.833,139.5 284.5,139.5C 284.577,138.25 285.244,137.417 286.5,137C 283.144,136.785 279.811,136.785 276.5,137C 277.167,135.667 277.833,134.333 278.5,133C 281.559,132.355 284.559,131.522 287.5,130.5C 285.955,129.548 284.288,129.215 282.5,129.5C 282.5,128.167 282.5,126.833 282.5,125.5C 282.5,122.167 282.5,118.833 282.5,115.5 Z"/></g>
<g><path style="opacity:1" fill="#a43b50" d="M 6.5,115.5 C 6.83333,115.5 7.16667,115.5 7.5,115.5C 13.5,115.5 19.5,115.5 25.5,115.5C 25.5,123.5 25.5,131.5 25.5,139.5C 21.1667,139.5 16.8333,139.5 12.5,139.5C 12.2407,135.932 10.2407,134.599 6.5,135.5C 6.5,128.833 6.5,122.167 6.5,115.5 Z"/></g>
<g><path style="opacity:1" fill="#833143" d="M 85.5,110.5 C 86.4872,115.305 86.8205,120.305 86.5,125.5C 88.1667,125.5 89.8333,125.5 91.5,125.5C 91.5,127.167 91.5,128.833 91.5,130.5C 93.1667,130.5 94.8333,130.5 96.5,130.5C 96.5,132.167 96.5,133.833 96.5,135.5C 101.167,135.5 105.833,135.5 110.5,135.5C 107.642,136.166 104.642,136.833 101.5,137.5C 101.709,138.086 102.043,138.586 102.5,139C 125.498,139.5 148.498,139.667 171.5,139.5C 171.5,139.833 171.5,140.167 171.5,140.5C 148.167,140.5 124.833,140.5 101.5,140.5C 76.3388,139.502 51.0055,139.169 25.5,139.5C 25.5,131.5 25.5,123.5 25.5,115.5C 45.5,115.5 65.5,115.5 85.5,115.5C 85.5,114.167 85.5,112.833 85.5,111.5C 85.5,111.167 85.5,110.833 85.5,110.5 Z"/></g>
<g><path style="opacity:1" fill="#060505" d="M 120.5,115.5 C 120.5,118.5 120.5,121.5 120.5,124.5C 119.167,124.5 117.833,124.5 116.5,124.5C 116.5,121.5 116.5,118.5 116.5,115.5C 117.833,115.5 119.167,115.5 120.5,115.5 Z"/></g>
<g><path style="opacity:1" fill="#a53a50" d="M 121.5,115.5 C 123.167,115.5 124.833,115.5 126.5,115.5C 126.833,115.5 127.167,115.5 127.5,115.5C 142.167,115.5 156.833,115.5 171.5,115.5C 171.5,123.5 171.5,131.5 171.5,139.5C 148.498,139.667 125.498,139.5 102.5,139C 102.043,138.586 101.709,138.086 101.5,137.5C 104.642,136.833 107.642,136.166 110.5,135.5C 111.451,134.081 111.784,132.415 111.5,130.5C 113.167,130.5 114.833,130.5 116.5,130.5C 116.5,128.833 116.5,127.167 116.5,125.5C 118.167,125.5 119.833,125.5 121.5,125.5C 121.5,122.167 121.5,118.833 121.5,115.5 Z"/></g>
<g><path style="opacity:1" fill="#ab3c4f" d="M 352.5,115.5 C 355.167,115.5 357.833,115.5 360.5,115.5C 360.5,121.833 360.5,128.167 360.5,134.5C 359.167,134.5 357.833,134.5 356.5,134.5C 356.5,136.167 356.5,137.833 356.5,139.5C 354.833,139.5 353.167,139.5 351.5,139.5C 351.433,137.599 351.767,135.766 352.5,134C 351.321,128.242 350.654,122.575 350.5,117C 351.416,116.722 352.082,116.222 352.5,115.5 Z"/></g>
<g><path style="opacity:0.835" fill="#8d8e8b" d="M 366.5,105.5 C 367.167,108.167 367.833,110.833 368.5,113.5C 368.5,114.5 368.5,115.5 368.5,116.5C 367.833,122.833 367.167,129.167 366.5,135.5C 366.5,125.5 366.5,115.5 366.5,105.5 Z"/></g>
<g><path style="opacity:1" fill="#b4b1be" d="M 106.5,115.5 C 106.5,117.167 106.5,118.833 106.5,120.5C 104.833,120.5 103.167,120.5 101.5,120.5C 101.5,118.833 101.5,117.167 101.5,115.5C 103.167,115.5 104.833,115.5 106.5,115.5 Z"/></g>
<g><path style="opacity:1" fill="#3f1114" d="M 246.5,115.5 C 246.833,115.5 247.167,115.5 247.5,115.5C 247.5,118.5 247.5,121.5 247.5,124.5C 249.099,124.232 250.432,124.566 251.5,125.5C 249.833,125.5 248.167,125.5 246.5,125.5C 246.5,122.167 246.5,118.833 246.5,115.5 Z"/></g>
<g><path style="opacity:1" fill="#a5a3af" d="M 261.5,115.5 C 263.167,115.5 264.833,115.5 266.5,115.5C 266.5,117.167 266.5,118.833 266.5,120.5C 264.833,120.5 263.167,120.5 261.5,120.5C 261.5,118.833 261.5,117.167 261.5,115.5 Z"/></g>
<g><path style="opacity:1" fill="#0b040a" d="M 276.5,125.5 C 276.5,127.167 276.5,128.833 276.5,130.5C 274.833,130.5 273.167,130.5 271.5,130.5C 271.714,128.856 271.38,127.356 270.5,126C 267.518,125.502 264.518,125.335 261.5,125.5C 261.5,124.167 261.5,122.833 261.5,121.5C 263.415,121.784 265.081,121.451 266.5,120.5C 267.451,119.081 267.784,117.415 267.5,115.5C 268.833,115.5 270.167,115.5 271.5,115.5C 271.5,118.833 271.5,122.167 271.5,125.5C 273.167,125.5 274.833,125.5 276.5,125.5 Z"/></g>
<g><path style="opacity:1" fill="#38121a" d="M 120.5,115.5 C 120.833,115.5 121.167,115.5 121.5,115.5C 121.5,118.833 121.5,122.167 121.5,125.5C 119.833,125.5 118.167,125.5 116.5,125.5C 116.5,127.167 116.5,128.833 116.5,130.5C 114.833,130.5 113.167,130.5 111.5,130.5C 112.568,129.566 113.901,129.232 115.5,129.5C 115.5,128.167 115.5,126.833 115.5,125.5C 115.5,124.833 115.833,124.5 116.5,124.5C 117.833,124.5 119.167,124.5 120.5,124.5C 120.5,121.5 120.5,118.5 120.5,115.5 Z"/></g>
<g><path style="opacity:1" fill="#2b2832" d="M 252.5,118.5 C 253.472,120.493 254.805,120.826 256.5,119.5C 257.919,120.451 259.585,120.784 261.5,120.5C 263.167,120.5 264.833,120.5 266.5,120.5C 265.081,121.451 263.415,121.784 261.5,121.5C 261.5,122.833 261.5,124.167 261.5,125.5C 264.518,125.335 267.518,125.502 270.5,126C 271.38,127.356 271.714,128.856 271.5,130.5C 266.786,130.647 262.119,130.314 257.5,129.5C 257.66,127.801 257.494,126.134 257,124.5C 256.333,123.167 255.667,123.167 255,124.5C 253.441,122.783 252.608,120.783 252.5,118.5 Z"/></g>
<g><path style="opacity:1" fill="#2a2735" d="M 126.5,95.5 C 126.5,98.8333 126.5,102.167 126.5,105.5C 124.833,105.5 123.167,105.5 121.5,105.5C 121.5,108.5 121.5,111.5 121.5,114.5C 122.833,114.5 124.167,114.5 125.5,114.5C 125.232,112.901 125.566,111.568 126.5,110.5C 126.5,112.167 126.5,113.833 126.5,115.5C 124.833,115.5 123.167,115.5 121.5,115.5C 121.167,115.5 120.833,115.5 120.5,115.5C 119.167,115.5 117.833,115.5 116.5,115.5C 116.5,118.5 116.5,121.5 116.5,124.5C 115.833,124.5 115.5,124.833 115.5,125.5C 113.009,125.84 110.842,126.84 109,128.5C 105.208,129.31 101.375,129.644 97.5,129.5C 97.5,128.167 97.5,126.833 97.5,125.5C 100.5,125.5 103.5,125.5 106.5,125.5C 106.5,123.833 106.5,122.167 106.5,120.5C 108.167,120.5 109.833,120.5 111.5,120.5C 111.5,117.167 111.5,113.833 111.5,110.5C 113.356,110.959 115.189,111.292 117,111.5C 118.261,111.241 119.261,110.574 120,109.5C 120.36,104.365 121.36,99.3649 123,94.5C 124.011,95.3366 125.178,95.67 126.5,95.5 Z"/></g>
<g><path style="opacity:1" fill="#160f13" d="M 101.5,120.5 C 103.167,120.5 104.833,120.5 106.5,120.5C 106.5,122.167 106.5,123.833 106.5,125.5C 103.5,125.5 100.5,125.5 97.5,125.5C 97.5,126.833 97.5,128.167 97.5,129.5C 101.375,129.644 105.208,129.31 109,128.5C 110.842,126.84 113.009,125.84 115.5,125.5C 115.5,126.833 115.5,128.167 115.5,129.5C 113.901,129.232 112.568,129.566 111.5,130.5C 111.784,132.415 111.451,134.081 110.5,135.5C 105.833,135.5 101.167,135.5 96.5,135.5C 96.5,133.833 96.5,132.167 96.5,130.5C 94.8333,130.5 93.1667,130.5 91.5,130.5C 91.5,128.833 91.5,127.167 91.5,125.5C 93.1667,125.5 94.8333,125.5 96.5,125.5C 96.5,122.167 96.5,118.833 96.5,115.5C 97.8333,115.5 99.1667,115.5 100.5,115.5C 100.216,117.415 100.549,119.081 101.5,120.5 Z"/></g>
<g><path style="opacity:1" fill="#110a0e" d="M 247.5,115.5 C 249.167,115.5 250.833,115.5 252.5,115.5C 252.5,116.5 252.5,117.5 252.5,118.5C 252.608,120.783 253.441,122.783 255,124.5C 255.667,123.167 256.333,123.167 257,124.5C 257.494,126.134 257.66,127.801 257.5,129.5C 262.119,130.314 266.786,130.647 271.5,130.5C 271.5,131.833 271.5,133.167 271.5,134.5C 266.833,134.5 262.167,134.5 257.5,134.5C 257.768,132.901 257.434,131.568 256.5,130.5C 254.833,130.5 253.167,130.5 251.5,130.5C 251.5,128.833 251.5,127.167 251.5,125.5C 250.432,124.566 249.099,124.232 247.5,124.5C 247.5,121.5 247.5,118.5 247.5,115.5 Z"/></g>
<g><path style="opacity:0.075" fill="#c0bebc" d="M 1.5,135.5 C 3.16667,135.5 4.83333,135.5 6.5,135.5C 6.5,135.833 6.5,136.167 6.5,136.5C 6.5,137.833 6.5,139.167 6.5,140.5C 4.89578,139.713 4.22911,138.38 4.5,136.5C 3.20895,136.737 2.20895,136.404 1.5,135.5 Z"/></g>
<g><path style="opacity:1" fill="#14110e" d="M 6.5,136.5 C 9.5,136.167 10.8333,137.5 10.5,140.5C 9.16667,140.5 7.83333,140.5 6.5,140.5C 6.5,139.167 6.5,137.833 6.5,136.5 Z"/></g>
<g><path style="opacity:1" fill="#bc4755" d="M 171.5,115.5 C 171.833,115.5 172.167,115.5 172.5,115.5C 172.5,123.167 172.5,130.833 172.5,138.5C 198.502,138.667 224.502,138.5 250.5,138C 246.167,137.667 241.833,137.333 237.5,137C 242.75,136.807 247.917,136.307 253,135.5C 253.333,135.833 253.667,136.167 254,136.5C 253.549,134.48 252.716,132.48 251.5,130.5C 253.167,130.5 254.833,130.5 256.5,130.5C 256.5,132.167 256.5,133.833 256.5,135.5C 261.695,135.821 266.695,135.487 271.5,134.5C 271.5,133.167 271.5,131.833 271.5,130.5C 273.167,130.5 274.833,130.5 276.5,130.5C 276.5,128.833 276.5,127.167 276.5,125.5C 278.167,125.5 279.833,125.5 281.5,125.5C 281.833,125.5 282.167,125.5 282.5,125.5C 282.5,126.833 282.5,128.167 282.5,129.5C 284.288,129.215 285.955,129.548 287.5,130.5C 284.559,131.522 281.559,132.355 278.5,133C 277.833,134.333 277.167,135.667 276.5,137C 279.811,136.785 283.144,136.785 286.5,137C 285.244,137.417 284.577,138.25 284.5,139.5C 246.833,139.5 209.167,139.5 171.5,139.5C 171.5,131.5 171.5,123.5 171.5,115.5 Z"/></g>
<g><path style="opacity:1" fill="#350810" d="M 256.5,130.5 C 257.434,131.568 257.768,132.901 257.5,134.5C 262.167,134.5 266.833,134.5 271.5,134.5C 266.695,135.487 261.695,135.821 256.5,135.5C 256.5,133.833 256.5,132.167 256.5,130.5 Z"/></g>
<g><path style="opacity:0.675" fill="#b0acae" d="M 361.5,135.5 C 363.167,135.5 364.833,135.5 366.5,135.5C 365.432,136.434 364.099,136.768 362.5,136.5C 362.768,138.099 362.434,139.432 361.5,140.5C 361.5,138.833 361.5,137.167 361.5,135.5 Z"/></g>
<g><path style="opacity:1" fill="#170d0f" d="M 361.5,135.5 C 361.5,137.167 361.5,138.833 361.5,140.5C 360.167,140.5 358.833,140.5 357.5,140.5C 357.5,138.833 357.5,137.167 357.5,135.5C 358.833,135.5 360.167,135.5 361.5,135.5 Z"/></g>
<g><path style="opacity:1" fill="#672c38" d="M 6.5,136.5 C 6.5,136.167 6.5,135.833 6.5,135.5C 10.2407,134.599 12.2407,135.932 12.5,139.5C 16.8333,139.5 21.1667,139.5 25.5,139.5C 51.0055,139.169 76.3388,139.502 101.5,140.5C 71.5,140.5 41.5,140.5 11.5,140.5C 11.1667,140.5 10.8333,140.5 10.5,140.5C 10.8333,137.5 9.5,136.167 6.5,136.5 Z"/></g>
<g><path style="opacity:1" fill="#94414a" d="M 360.5,115.5 C 360.833,115.5 361.167,115.5 361.5,115.5C 361.5,122.167 361.5,128.833 361.5,135.5C 360.167,135.5 358.833,135.5 357.5,135.5C 357.5,137.167 357.5,138.833 357.5,140.5C 357.167,140.5 356.833,140.5 356.5,140.5C 294.833,140.5 233.167,140.5 171.5,140.5C 171.5,140.167 171.5,139.833 171.5,139.5C 209.167,139.5 246.833,139.5 284.5,139.5C 306.833,139.5 329.167,139.5 351.5,139.5C 353.167,139.5 354.833,139.5 356.5,139.5C 356.5,137.833 356.5,136.167 356.5,134.5C 357.833,134.5 359.167,134.5 360.5,134.5C 360.5,128.167 360.5,121.833 360.5,115.5 Z"/></g>
<g><path style="opacity:0.125" fill="#bcbeba" d="M 6.5,140.5 C 7.83333,140.5 9.16667,140.5 10.5,140.5C 10.8333,140.5 11.1667,140.5 11.5,140.5C 11.5,142.167 11.5,143.833 11.5,145.5C 9.89578,144.713 9.22911,143.38 9.5,141.5C 8.20895,141.737 7.20895,141.404 6.5,140.5 Z"/></g>
<g><path style="opacity:1" fill="#150405" d="M 11.5,140.5 C 41.5,140.5 71.5,140.5 101.5,140.5C 124.833,140.5 148.167,140.5 171.5,140.5C 233.167,140.5 294.833,140.5 356.5,140.5C 356.5,142.167 356.5,143.833 356.5,145.5C 353.167,145.5 349.833,145.5 346.5,145.5C 346.5,150.5 346.5,155.5 346.5,160.5C 344.833,160.5 343.167,160.5 341.5,160.5C 341.5,155.5 341.5,150.5 341.5,145.5C 237.833,145.5 134.167,145.5 30.5,145.5C 29.1667,145.5 27.8333,145.5 26.5,145.5C 26.5,150.5 26.5,155.5 26.5,160.5C 24.8333,160.5 23.1667,160.5 21.5,160.5C 21.5,155.5 21.5,150.5 21.5,145.5C 18.1667,145.5 14.8333,145.5 11.5,145.5C 11.5,143.833 11.5,142.167 11.5,140.5 Z"/></g>
<g><path style="opacity:0.655" fill="#b1aeab" d="M 356.5,140.5 C 356.833,140.5 357.167,140.5 357.5,140.5C 358.833,140.5 360.167,140.5 361.5,140.5C 360.432,141.434 359.099,141.768 357.5,141.5C 357.768,143.099 357.434,144.432 356.5,145.5C 356.5,143.833 356.5,142.167 356.5,140.5 Z"/></g>
<g><path style="opacity:1" fill="#783442" d="M 30.5,146.5 C 30.5,146.167 30.5,145.833 30.5,145.5C 134.167,145.5 237.833,145.5 341.5,145.5C 341.5,150.5 341.5,155.5 341.5,160.5C 339.833,160.5 338.167,160.5 336.5,160.5C 336.5,155.833 336.5,151.167 336.5,146.5C 276.5,146.5 216.5,146.5 156.5,146.5C 115.167,146.5 73.8333,146.5 32.5,146.5C 31.8333,146.5 31.1667,146.5 30.5,146.5 Z"/></g>
<g><path style="opacity:0.023" fill="#c2c3c1" d="M 11.5,145.5 C 14.8333,145.5 18.1667,145.5 21.5,145.5C 21.5,150.5 21.5,155.5 21.5,160.5C 20.8826,160.389 20.3826,160.056 20,159.5C 19.501,155.179 19.3343,150.846 19.5,146.5C 16.6146,146.806 13.9479,146.473 11.5,145.5 Z"/></g>
<g><path style="opacity:1" fill="#c76571" d="M 30.5,145.5 C 30.5,145.833 30.5,146.167 30.5,146.5C 30.5,151.167 30.5,155.833 30.5,160.5C 29.1667,160.5 27.8333,160.5 26.5,160.5C 26.5,155.5 26.5,150.5 26.5,145.5C 27.8333,145.5 29.1667,145.5 30.5,145.5 Z"/></g>
<g><path style="opacity:0.767" fill="#a2a1a0" d="M 356.5,145.5 C 353.713,146.477 350.713,146.81 347.5,146.5C 347.819,151.363 347.486,156.03 346.5,160.5C 346.5,155.5 346.5,150.5 346.5,145.5C 349.833,145.5 353.167,145.5 356.5,145.5 Z"/></g>
<g><path style="opacity:1" fill="#853143" d="M 32.5,146.5 C 73.8333,146.5 115.167,146.5 156.5,146.5C 156.5,147.833 156.5,149.167 156.5,150.5C 141.5,150.5 126.5,150.5 111.5,150.5C 111.333,198.501 111.5,246.501 112,294.5C 125.092,295.324 138.258,295.824 151.5,296C 153.927,296.627 155.927,297.794 157.5,299.5C 202.5,299.5 247.5,299.5 292.5,299.5C 292.5,298.167 292.5,296.833 292.5,295.5C 293.833,295.5 295.167,295.5 296.5,295.5C 296.5,297.167 296.5,298.833 296.5,300.5C 248.833,300.5 201.167,300.5 153.5,300.5C 150.402,299.179 146.902,298.512 143,298.5C 120.761,299.422 98.5946,299.755 76.5,299.5C 76.8134,296.753 76.48,294.086 75.5,291.5C 73.9411,290.926 72.4411,290.26 71,289.5C 70.6667,285.833 70.3333,282.167 70,278.5C 68.9887,277.663 67.8221,277.33 66.5,277.5C 65.6979,270.196 65.3646,262.862 65.5,255.5C 64.1667,255.5 62.8333,255.5 61.5,255.5C 61.5,247.167 61.5,238.833 61.5,230.5C 59.8333,230.5 58.1667,230.5 56.5,230.5C 56.5,222.167 56.5,213.833 56.5,205.5C 54.8333,205.5 53.1667,205.5 51.5,205.5C 51.6663,198.825 51.4996,192.158 51,185.5C 49.9887,184.663 48.8221,184.33 47.5,184.5C 46.7548,175.867 46.2548,167.2 46,158.5C 43.4692,156.035 41.9692,153.035 41.5,149.5C 38.0389,149.232 35.0389,148.232 32.5,146.5 Z M 89.5,270.5 C 85.5,270.5 81.5,270.5 77.5,270.5C 76.5081,239.573 76.1747,208.573 76.5,177.5C 81.0704,176.559 85.737,176.226 90.5,176.5C 90.8254,207.907 90.492,239.24 89.5,270.5 Z"/></g>
<g><path style="opacity:1" fill="#a53a50" d="M 156.5,146.5 C 216.5,146.5 276.5,146.5 336.5,146.5C 336.5,151.167 336.5,155.833 336.5,160.5C 336.5,161.833 336.5,163.167 336.5,164.5C 335.526,165.635 334.359,166.635 333,167.5C 332.501,173.491 332.334,179.491 332.5,185.5C 331.549,186.919 331.216,188.585 331.5,190.5C 329.833,190.5 328.167,190.5 326.5,190.5C 326.473,197.186 326.139,203.852 325.5,210.5C 324.167,210.5 322.833,210.5 321.5,210.5C 321.354,218.874 320.688,227.207 319.5,235.5C 318.201,236.09 317.368,237.09 317,238.5C 316.667,243.833 316.333,249.167 316,254.5C 315.059,256.061 313.892,257.395 312.5,258.5C 311.505,264.128 311.171,269.794 311.5,275.5C 311.5,275.833 311.5,276.167 311.5,276.5C 310.596,277.209 310.263,278.209 310.5,279.5C 309.178,279.33 308.011,279.663 307,280.5C 305.674,285.286 304.174,289.953 302.5,294.5C 300.833,294.5 299.167,294.5 297.5,294.5C 296.053,287.853 297.887,282.52 303,278.5C 303.167,277.667 303.333,276.833 303.5,276C 302.556,269.355 302.222,262.855 302.5,256.5C 304.39,256.703 305.89,256.037 307,254.5C 307.5,246.507 307.666,238.507 307.5,230.5C 308.833,230.5 310.167,230.5 311.5,230.5C 311.5,223.833 311.5,217.167 311.5,210.5C 313.467,210.739 315.301,210.406 317,209.5C 317.169,202.144 317.669,194.811 318.5,187.5C 319.478,187.023 320.311,186.357 321,185.5C 321.5,177.173 321.666,168.84 321.5,160.5C 323.167,160.5 324.833,160.5 326.5,160.5C 326.5,157.5 326.5,154.5 326.5,151.5C 271.669,150.501 216.669,150.168 161.5,150.5C 161.5,198.833 161.5,247.167 161.5,295.5C 203.67,295.832 245.67,295.499 287.5,294.5C 289.167,294.5 290.833,294.5 292.5,294.5C 293.833,294.5 295.167,294.5 296.5,294.5C 296.5,294.833 296.5,295.167 296.5,295.5C 295.167,295.5 293.833,295.5 292.5,295.5C 292.5,296.833 292.5,298.167 292.5,299.5C 247.5,299.5 202.5,299.5 157.5,299.5C 157.5,297.833 157.5,296.167 157.5,294.5C 143.829,294.667 130.163,294.5 116.5,294C 116.833,293.667 117.167,293.333 117.5,293C 116.692,292.692 116.025,292.192 115.5,291.5C 117.015,284.362 116.515,277.362 114,270.5C 113.333,241.167 113.333,211.833 114,182.5C 116.114,178.361 115.947,174.361 113.5,170.5C 115.26,167.788 115.927,164.788 115.5,161.5C 114.5,161.5 113.5,161.5 112.5,161.5C 112.5,158.167 112.5,154.833 112.5,151.5C 127.343,151.829 142.01,151.496 156.5,150.5C 156.5,149.167 156.5,147.833 156.5,146.5 Z M 241.5,177.5 C 241.667,208.168 241.5,238.835 241,269.5C 236.599,270.467 232.099,270.8 227.5,270.5C 227.5,239.167 227.5,207.833 227.5,176.5C 232.263,176.226 236.93,176.559 241.5,177.5 Z M 291.5,176.5 C 291.667,207.502 291.5,238.502 291,269.5C 286.934,270.464 282.767,270.797 278.5,270.5C 277.508,239.24 277.175,207.907 277.5,176.5C 282.167,176.5 286.833,176.5 291.5,176.5 Z M 189.5,270.5 C 185.5,270.5 181.5,270.5 177.5,270.5C 177.5,239.167 177.5,207.833 177.5,176.5C 181.833,176.5 186.167,176.5 190.5,176.5C 190.825,207.907 190.492,239.24 189.5,270.5 Z M 139.5,270.5 C 135.5,270.5 131.5,270.5 127.5,270.5C 127.5,239.167 127.5,207.833 127.5,176.5C 131.833,176.5 136.167,176.5 140.5,176.5C 140.825,207.907 140.492,239.24 139.5,270.5 Z"/></g>
<g><path style="opacity:1" fill="#bd4554" d="M 326.5,151.5 C 271.833,151.5 217.167,151.5 162.5,151.5C 162.333,197.501 162.5,243.501 163,289.5C 164.5,291 166,292.5 167.5,294C 207.499,294.5 247.499,294.667 287.5,294.5C 245.67,295.499 203.67,295.832 161.5,295.5C 161.5,247.167 161.5,198.833 161.5,150.5C 216.669,150.168 271.669,150.501 326.5,151.5 Z"/></g>
<g><path style="opacity:1" fill="#c34652" d="M 326.5,151.5 C 326.5,154.5 326.5,157.5 326.5,160.5C 324.833,160.5 323.167,160.5 321.5,160.5C 321.666,168.84 321.5,177.173 321,185.5C 320.311,186.357 319.478,187.023 318.5,187.5C 317.669,194.811 317.169,202.144 317,209.5C 315.301,210.406 313.467,210.739 311.5,210.5C 311.5,217.167 311.5,223.833 311.5,230.5C 310.167,230.5 308.833,230.5 307.5,230.5C 307.666,238.507 307.5,246.507 307,254.5C 305.89,256.037 304.39,256.703 302.5,256.5C 300.522,255.683 299.522,254.183 299.5,252C 300.992,245.926 301.992,239.759 302.5,233.5C 301.95,217.26 301.95,200.926 302.5,184.5C 301.5,184.5 300.5,184.5 299.5,184.5C 299.608,180.753 299.108,177.086 298,173.5C 296.644,172.62 295.144,172.286 293.5,172.5C 293.769,170.571 293.269,168.905 292,167.5C 287.284,169.102 282.45,170.102 277.5,170.5C 276.549,171.919 276.216,173.585 276.5,175.5C 274.833,175.5 273.167,175.5 271.5,175.5C 270.264,177.611 268.764,179.611 267,181.5C 266.333,207.833 266.333,234.167 267,260.5C 267.179,263.553 267.679,266.553 268.5,269.5C 269.417,270.127 270.417,270.461 271.5,270.5C 272.568,271.434 273.901,271.768 275.5,271.5C 275.5,273.167 275.5,274.833 275.5,276.5C 282.515,276.578 289.515,276.911 296.5,277.5C 296.75,282.58 296.25,287.58 295,292.5C 294.005,293.066 293.172,293.733 292.5,294.5C 290.833,294.5 289.167,294.5 287.5,294.5C 247.499,294.667 207.499,294.5 167.5,294C 166,292.5 164.5,291 163,289.5C 162.5,243.501 162.333,197.501 162.5,151.5C 217.167,151.5 271.833,151.5 326.5,151.5 Z M 241.5,177.5 C 241.667,208.168 241.5,238.835 241,269.5C 236.599,270.467 232.099,270.8 227.5,270.5C 227.5,239.167 227.5,207.833 227.5,176.5C 232.263,176.226 236.93,176.559 241.5,177.5 Z M 189.5,270.5 C 185.5,270.5 181.5,270.5 177.5,270.5C 177.5,239.167 177.5,207.833 177.5,176.5C 181.833,176.5 186.167,176.5 190.5,176.5C 190.825,207.907 190.492,239.24 189.5,270.5 Z"/></g>
<g><path style="opacity:1" fill="#c85e6b" d="M 32.5,160.5 C 33.8333,160.5 35.1667,160.5 36.5,160.5C 36.5,168.5 36.5,176.5 36.5,184.5C 35.1667,184.5 33.8333,184.5 32.5,184.5C 32.5,176.5 32.5,168.5 32.5,160.5 Z"/></g>
<g><path style="opacity:1" fill="#070304" d="M 341.5,161.5 C 341.5,169.5 341.5,177.5 341.5,185.5C 340.167,185.5 338.833,185.5 337.5,185.5C 337.264,177.458 337.597,169.458 338.5,161.5C 339.5,161.5 340.5,161.5 341.5,161.5 Z"/></g>
<g><path style="opacity:1" fill="#1d1514" d="M 26.5,160.5 C 27.8333,160.5 29.1667,160.5 30.5,160.5C 30.8333,160.5 31.1667,160.5 31.5,160.5C 31.5,168.833 31.5,177.167 31.5,185.5C 29.8333,185.5 28.1667,185.5 26.5,185.5C 26.5,177.167 26.5,168.833 26.5,160.5 Z"/></g>
<g><path style="opacity:1" fill="#38151c" d="M 336.5,160.5 C 338.167,160.5 339.833,160.5 341.5,160.5C 341.5,160.833 341.5,161.167 341.5,161.5C 340.5,161.5 339.5,161.5 338.5,161.5C 337.597,169.458 337.264,177.458 337.5,185.5C 337.167,185.5 336.833,185.5 336.5,185.5C 336.5,178.5 336.5,171.5 336.5,164.5C 336.5,163.167 336.5,161.833 336.5,160.5 Z"/></g>
<g><path style="opacity:0.635" fill="#a09e9f" d="M 341.5,160.5 C 343.167,160.5 344.833,160.5 346.5,160.5C 345.432,161.434 344.099,161.768 342.5,161.5C 342.826,169.684 342.492,177.684 341.5,185.5C 341.5,177.5 341.5,169.5 341.5,161.5C 341.5,161.167 341.5,160.833 341.5,160.5 Z"/></g>
<g><path style="opacity:0.035" fill="#c1c2bf" d="M 21.5,160.5 C 23.1667,160.5 24.8333,160.5 26.5,160.5C 26.5,168.833 26.5,177.167 26.5,185.5C 24.5332,177.903 23.8665,169.903 24.5,161.5C 23.209,161.737 22.209,161.404 21.5,160.5 Z"/></g>
<g><path style="opacity:1" fill="#b76a72" d="M 31.5,160.5 C 31.8333,160.5 32.1667,160.5 32.5,160.5C 32.5,168.5 32.5,176.5 32.5,184.5C 33.8333,184.5 35.1667,184.5 36.5,184.5C 36.5,184.833 36.5,185.167 36.5,185.5C 34.8333,185.5 33.1667,185.5 31.5,185.5C 31.5,177.167 31.5,168.833 31.5,160.5 Z"/></g>
<g><path style="opacity:1" fill="#310908" d="M 176.5,170.5 C 181.5,170.5 186.5,170.5 191.5,170.5C 191.5,171.833 191.5,173.167 191.5,174.5C 190.596,173.791 190.263,172.791 190.5,171.5C 186.167,171.5 181.833,171.5 177.5,171.5C 177.5,172.833 177.5,174.167 177.5,175.5C 177.167,175.5 176.833,175.5 176.5,175.5C 176.5,173.833 176.5,172.167 176.5,170.5 Z"/></g>
<g><path style="opacity:1" fill="#350c0d" d="M 277.5,170.5 C 282.363,170.181 287.03,170.514 291.5,171.5C 286.833,171.5 282.167,171.5 277.5,171.5C 277.5,172.833 277.5,174.167 277.5,175.5C 277.167,175.5 276.833,175.5 276.5,175.5C 276.216,173.585 276.549,171.919 277.5,170.5 Z"/></g>
<g><path style="opacity:1" fill="#180b09" d="M 126.5,170.5 C 131.5,170.5 136.5,170.5 141.5,170.5C 141.5,172.167 141.5,173.833 141.5,175.5C 136.5,175.5 131.5,175.5 126.5,175.5C 126.5,173.833 126.5,172.167 126.5,170.5 Z"/></g>
<g><path style="opacity:1" fill="#0f0a06" d="M 191.5,174.5 C 191.5,174.833 191.5,175.167 191.5,175.5C 186.833,175.5 182.167,175.5 177.5,175.5C 177.5,174.167 177.5,172.833 177.5,171.5C 181.833,171.5 186.167,171.5 190.5,171.5C 190.263,172.791 190.596,173.791 191.5,174.5 Z"/></g>
<g><path style="opacity:1" fill="#0e0b05" d="M 291.5,171.5 C 291.5,172.5 291.5,173.5 291.5,174.5C 291.5,174.833 291.5,175.167 291.5,175.5C 286.833,175.5 282.167,175.5 277.5,175.5C 277.5,174.167 277.5,172.833 277.5,171.5C 282.167,171.5 286.833,171.5 291.5,171.5 Z"/></g>
<g><path style="opacity:1" fill="#030302" d="M 292.5,176.5 C 293.5,176.5 294.5,176.5 295.5,176.5C 295.5,207.5 295.5,238.5 295.5,269.5C 294.5,269.5 293.5,269.5 292.5,269.5C 292.5,238.5 292.5,207.5 292.5,176.5 Z"/></g>
<g><path style="opacity:1" fill="#0c0a0a" d="M 141.5,175.5 C 141.833,175.5 142.167,175.5 142.5,175.5C 143.209,176.404 144.209,176.737 145.5,176.5C 145.5,207.5 145.5,238.5 145.5,269.5C 144.209,269.263 143.209,269.596 142.5,270.5C 142.167,270.5 141.833,270.5 141.5,270.5C 141.5,238.833 141.5,207.167 141.5,175.5 Z"/></g>
<g><path style="opacity:0.208" fill="#d9d9d7" d="M 176.5,175.5 C 176.833,175.5 177.167,175.5 177.5,175.5C 182.167,175.5 186.833,175.5 191.5,175.5C 191.5,207.167 191.5,238.833 191.5,270.5C 190.833,270.5 190.167,270.5 189.5,270.5C 190.492,239.24 190.825,207.907 190.5,176.5C 186.167,176.5 181.833,176.5 177.5,176.5C 177.5,207.833 177.5,239.167 177.5,270.5C 177.167,270.5 176.833,270.5 176.5,270.5C 176.5,238.833 176.5,207.167 176.5,175.5 Z M 189.5,270.5 C 185.5,270.5 181.5,270.5 177.5,270.5C 177.5,239.167 177.5,207.833 177.5,176.5C 181.833,176.5 186.167,176.5 190.5,176.5C 190.825,207.907 190.492,239.24 189.5,270.5 Z"/></g>
<g><path style="opacity:1" fill="#0f0e0d" d="M 191.5,175.5 C 191.833,175.5 192.167,175.5 192.5,175.5C 193.209,176.404 194.209,176.737 195.5,176.5C 195.5,207.5 195.5,238.5 195.5,269.5C 194.209,269.263 193.209,269.596 192.5,270.5C 192.167,270.5 191.833,270.5 191.5,270.5C 191.5,238.833 191.5,207.167 191.5,175.5 Z"/></g>
<g><path style="opacity:1" fill="#9f444f" d="M 246.5,270.5 C 246.5,238.833 246.5,207.167 246.5,175.5C 245.167,175.5 243.833,175.5 242.5,175.5C 242.167,175.5 241.833,175.5 241.5,175.5C 241.5,174.167 241.5,172.833 241.5,171.5C 236.695,170.513 231.695,170.179 226.5,170.5C 226.5,172.167 226.5,173.833 226.5,175.5C 226.167,175.5 225.833,175.5 225.5,175.5C 224.167,175.5 222.833,175.5 221.5,175.5C 221.5,206.833 221.5,238.167 221.5,269.5C 220.502,239.005 220.169,208.338 220.5,177.5C 220.966,175.799 220.966,174.299 220.5,173C 221.973,172.29 222.64,171.124 222.5,169.5C 229.532,169.17 236.532,169.503 243.5,170.5C 244.277,172.539 245.443,173.205 247,172.5C 247.831,205.336 247.664,238.003 246.5,270.5 Z"/></g>
<g><path style="opacity:1" fill="#0e0a07" d="M 241.5,171.5 C 241.5,172.833 241.5,174.167 241.5,175.5C 236.833,175.5 232.167,175.5 227.5,175.5C 227.5,174.167 227.5,172.833 227.5,171.5C 232.167,171.5 236.833,171.5 241.5,171.5 Z"/></g>
<g><path style="opacity:1" fill="#340a0b" d="M 241.5,171.5 C 236.833,171.5 232.167,171.5 227.5,171.5C 227.5,172.833 227.5,174.167 227.5,175.5C 227.167,175.5 226.833,175.5 226.5,175.5C 226.5,173.833 226.5,172.167 226.5,170.5C 231.695,170.179 236.695,170.513 241.5,171.5 Z"/></g>
<g><path style="opacity:1" fill="#040201" d="M 242.5,176.5 C 243.5,176.5 244.5,176.5 245.5,176.5C 245.5,207.5 245.5,238.5 245.5,269.5C 244.5,269.5 243.5,269.5 242.5,269.5C 242.5,238.5 242.5,207.5 242.5,176.5 Z"/></g>
<g><path style="opacity:1" fill="#be465a" d="M 271.5,175.5 C 271.5,207.167 271.5,238.833 271.5,270.5C 270.417,270.461 269.417,270.127 268.5,269.5C 267.679,266.553 267.179,263.553 267,260.5C 266.333,234.167 266.333,207.833 267,181.5C 268.764,179.611 270.264,177.611 271.5,175.5 Z"/></g>
<g><path style="opacity:1" fill="#170000" d="M 292.5,176.5 C 292.5,176.167 292.5,175.833 292.5,175.5C 293.833,175.5 295.167,175.5 296.5,175.5C 296.5,207.167 296.5,238.833 296.5,270.5C 295.167,270.5 293.833,270.5 292.5,270.5C 292.5,270.167 292.5,269.833 292.5,269.5C 293.5,269.5 294.5,269.5 295.5,269.5C 295.5,238.5 295.5,207.5 295.5,176.5C 294.5,176.5 293.5,176.5 292.5,176.5 Z"/></g>
<g><path style="opacity:0.586" fill="#cbcac9" d="M 126.5,175.5 C 131.5,175.5 136.5,175.5 141.5,175.5C 141.5,207.167 141.5,238.833 141.5,270.5C 140.833,270.5 140.167,270.5 139.5,270.5C 140.492,239.24 140.825,207.907 140.5,176.5C 136.167,176.5 131.833,176.5 127.5,176.5C 127.5,207.833 127.5,239.167 127.5,270.5C 127.167,270.5 126.833,270.5 126.5,270.5C 126.5,238.833 126.5,207.167 126.5,175.5 Z M 139.5,270.5 C 135.5,270.5 131.5,270.5 127.5,270.5C 127.5,239.167 127.5,207.833 127.5,176.5C 131.833,176.5 136.167,176.5 140.5,176.5C 140.825,207.907 140.492,239.24 139.5,270.5 Z"/></g>
<g><path style="opacity:1" fill="#7f3344" d="M 336.5,164.5 C 336.5,171.5 336.5,178.5 336.5,185.5C 335.167,185.5 333.833,185.5 332.5,185.5C 332.334,179.491 332.501,173.491 333,167.5C 334.359,166.635 335.526,165.635 336.5,164.5 Z"/></g>
<g><path style="opacity:1" fill="#6c3c43" d="M 126.5,170.5 C 126.5,172.167 126.5,173.833 126.5,175.5C 126.5,207.167 126.5,238.833 126.5,270.5C 126.167,270.5 125.833,270.5 125.5,270.5C 125.5,270.167 125.5,269.833 125.5,269.5C 125.5,238.5 125.5,207.5 125.5,176.5C 124.432,175.566 123.099,175.232 121.5,175.5C 121.5,207.167 121.5,238.833 121.5,270.5C 120.502,241.338 120.169,212.005 120.5,182.5C 120.5,179.833 120.5,177.167 120.5,174.5C 122.167,174.5 123.833,174.5 125.5,174.5C 125.232,172.901 125.566,171.568 126.5,170.5 Z"/></g>
<g><path style="opacity:1" fill="#220205" d="M 125.5,176.5 C 124.5,176.5 123.5,176.5 122.5,176.5C 122.5,207.5 122.5,238.5 122.5,269.5C 123.5,269.5 124.5,269.5 125.5,269.5C 125.5,269.833 125.5,270.167 125.5,270.5C 124.167,270.5 122.833,270.5 121.5,270.5C 121.5,238.833 121.5,207.167 121.5,175.5C 123.099,175.232 124.432,175.566 125.5,176.5 Z"/></g>
<g><path style="opacity:1" fill="#080803" d="M 125.5,176.5 C 125.5,207.5 125.5,238.5 125.5,269.5C 124.5,269.5 123.5,269.5 122.5,269.5C 122.5,238.5 122.5,207.5 122.5,176.5C 123.5,176.5 124.5,176.5 125.5,176.5 Z"/></g>
<g><path style="opacity:1" fill="#161313" d="M 175.5,175.5 C 175.833,175.5 176.167,175.5 176.5,175.5C 176.5,207.167 176.5,238.833 176.5,270.5C 176.167,270.5 175.833,270.5 175.5,270.5C 174.791,269.596 173.791,269.263 172.5,269.5C 172.5,238.5 172.5,207.5 172.5,176.5C 173.791,176.737 174.791,176.404 175.5,175.5 Z"/></g>
<g><path style="opacity:0.879" fill="#434341" d="M 241.5,175.5 C 241.833,175.5 242.167,175.5 242.5,175.5C 242.5,175.833 242.5,176.167 242.5,176.5C 242.5,207.5 242.5,238.5 242.5,269.5C 242.5,269.833 242.5,270.167 242.5,270.5C 241.833,270.5 241.5,270.833 241.5,271.5C 236.5,271.5 231.5,271.5 226.5,271.5C 226.5,271.167 226.5,270.833 226.5,270.5C 226.833,270.5 227.167,270.5 227.5,270.5C 232.099,270.8 236.599,270.467 241,269.5C 241.5,238.835 241.667,208.168 241.5,177.5C 241.5,176.833 241.5,176.167 241.5,175.5 Z"/></g>
<g><path style="opacity:1" fill="#0c0904" d="M 276.5,176.5 C 276.5,207.833 276.5,239.167 276.5,270.5C 275.167,270.5 273.833,270.5 272.5,270.5C 272.5,239.167 272.5,207.833 272.5,176.5C 273.833,176.5 275.167,176.5 276.5,176.5 Z"/></g>
<g><path style="opacity:1" fill="#12100c" d="M 225.5,175.5 C 225.833,175.5 226.167,175.5 226.5,175.5C 226.5,207.167 226.5,238.833 226.5,270.5C 226.167,270.5 225.833,270.5 225.5,270.5C 224.791,269.596 223.791,269.263 222.5,269.5C 222.5,238.5 222.5,207.5 222.5,176.5C 223.791,176.737 224.791,176.404 225.5,175.5 Z"/></g>
<g><path style="opacity:0.121" fill="#d1cfcb" d="M 226.5,175.5 C 226.833,175.5 227.167,175.5 227.5,175.5C 232.167,175.5 236.833,175.5 241.5,175.5C 241.5,176.167 241.5,176.833 241.5,177.5C 236.93,176.559 232.263,176.226 227.5,176.5C 227.5,207.833 227.5,239.167 227.5,270.5C 227.167,270.5 226.833,270.5 226.5,270.5C 226.5,238.833 226.5,207.167 226.5,175.5 Z"/></g>
<g><path style="opacity:1" fill="#2c0e11" d="M 142.5,175.5 C 143.833,175.5 145.167,175.5 146.5,175.5C 146.5,207.167 146.5,238.833 146.5,270.5C 145.167,270.5 143.833,270.5 142.5,270.5C 143.209,269.596 144.209,269.263 145.5,269.5C 145.5,238.5 145.5,207.5 145.5,176.5C 144.209,176.737 143.209,176.404 142.5,175.5 Z"/></g>
<g><path style="opacity:1" fill="#bf4659" d="M 220.5,177.5 C 220.169,208.338 220.502,239.005 221.5,269.5C 221.5,269.833 221.5,270.167 221.5,270.5C 222.568,271.434 223.901,271.768 225.5,271.5C 225.5,273.167 225.5,274.833 225.5,276.5C 221.101,274.72 218.934,271.386 219,266.5C 218.667,268.167 218.333,269.833 218,271.5C 217.333,241.5 217.333,211.5 218,181.5C 218.608,179.934 219.442,178.6 220.5,177.5 Z"/></g>
<g><path style="opacity:1" fill="#b4444f" d="M 302.5,256.5 C 302.222,262.855 302.556,269.355 303.5,276C 303.333,276.833 303.167,277.667 303,278.5C 297.887,282.52 296.053,287.853 297.5,294.5C 297.167,294.5 296.833,294.5 296.5,294.5C 295.167,294.5 293.833,294.5 292.5,294.5C 293.172,293.733 294.005,293.066 295,292.5C 296.25,287.58 296.75,282.58 296.5,277.5C 289.515,276.911 282.515,276.578 275.5,276.5C 275.5,274.833 275.5,273.167 275.5,271.5C 273.901,271.768 272.568,271.434 271.5,270.5C 271.833,270.5 272.167,270.5 272.5,270.5C 273.833,270.5 275.167,270.5 276.5,270.5C 276.5,270.833 276.5,271.167 276.5,271.5C 276.5,272.833 276.5,274.167 276.5,275.5C 281.5,275.5 286.5,275.5 291.5,275.5C 291.5,274.167 291.5,272.833 291.5,271.5C 291.5,270.833 291.833,270.5 292.5,270.5C 293.833,270.5 295.167,270.5 296.5,270.5C 296.5,238.833 296.5,207.167 296.5,175.5C 295.167,175.5 293.833,175.5 292.5,175.5C 292.5,174.833 292.167,174.5 291.5,174.5C 291.5,173.5 291.5,172.5 291.5,171.5C 287.03,170.514 282.363,170.181 277.5,170.5C 282.45,170.102 287.284,169.102 292,167.5C 293.269,168.905 293.769,170.571 293.5,172.5C 295.144,172.286 296.644,172.62 298,173.5C 299.108,177.086 299.608,180.753 299.5,184.5C 300.5,184.5 301.5,184.5 302.5,184.5C 301.95,200.926 301.95,217.26 302.5,233.5C 301.992,239.759 300.992,245.926 299.5,252C 299.522,254.183 300.522,255.683 302.5,256.5 Z"/></g>
<g><path style="opacity:1" fill="#a33b4f" d="M 30.5,146.5 C 31.1667,146.5 31.8333,146.5 32.5,146.5C 35.0389,148.232 38.0389,149.232 41.5,149.5C 41.9692,153.035 43.4692,156.035 46,158.5C 46.2548,167.2 46.7548,175.867 47.5,184.5C 48.8221,184.33 49.9887,184.663 51,185.5C 51.4996,192.158 51.6663,198.825 51.5,205.5C 53.1667,205.5 54.8333,205.5 56.5,205.5C 56.5,213.833 56.5,222.167 56.5,230.5C 58.1667,230.5 59.8333,230.5 61.5,230.5C 61.5,238.833 61.5,247.167 61.5,255.5C 62.8333,255.5 64.1667,255.5 65.5,255.5C 65.3646,262.862 65.6979,270.196 66.5,277.5C 67.8221,277.33 68.9887,277.663 70,278.5C 70.3333,282.167 70.6667,285.833 71,289.5C 72.4411,290.26 73.9411,290.926 75.5,291.5C 76.48,294.086 76.8134,296.753 76.5,299.5C 75.1667,299.5 73.8333,299.5 72.5,299.5C 72.7678,297.901 72.4345,296.568 71.5,295.5C 69.5,295.5 67.5,295.5 65.5,295.5C 65.5,293.833 65.5,292.167 65.5,290.5C 64.1779,290.67 63.0113,290.337 62,289.5C 61.5008,284.845 61.3342,280.179 61.5,275.5C 59.8333,275.5 58.1667,275.5 56.5,275.5C 56.1667,275.5 55.8333,275.5 55.5,275.5C 55.5,268.833 55.5,262.167 55.5,255.5C 54.1667,255.5 52.8333,255.5 51.5,255.5C 51.5,255.167 51.5,254.833 51.5,254.5C 51.6664,246.826 51.4997,239.159 51,231.5C 49.9887,230.663 48.8221,230.33 47.5,230.5C 47.1667,230.5 46.8333,230.5 46.5,230.5C 46.1667,230.5 45.8333,230.5 45.5,230.5C 45.5,230.167 45.5,229.833 45.5,229.5C 45.5,221.5 45.5,213.5 45.5,205.5C 44.5,205.5 43.5,205.5 42.5,205.5C 42.1667,205.5 41.8333,205.5 41.5,205.5C 41.1667,205.5 40.8333,205.5 40.5,205.5C 40.5,198.833 40.5,192.167 40.5,185.5C 39.1667,185.5 37.8333,185.5 36.5,185.5C 36.5,185.167 36.5,184.833 36.5,184.5C 36.5,176.5 36.5,168.5 36.5,160.5C 35.1667,160.5 33.8333,160.5 32.5,160.5C 32.1667,160.5 31.8333,160.5 31.5,160.5C 31.1667,160.5 30.8333,160.5 30.5,160.5C 30.5,155.833 30.5,151.167 30.5,146.5 Z"/></g>
<g><path style="opacity:1" fill="#1c1211" d="M 31.5,185.5 C 33.1667,185.5 34.8333,185.5 36.5,185.5C 36.5,192.167 36.5,198.833 36.5,205.5C 34.8333,205.5 33.1667,205.5 31.5,205.5C 31.5,198.833 31.5,192.167 31.5,185.5 Z"/></g>
<g><path style="opacity:1" fill="#803143" d="M 76.5,276.5 C 83.5,276.5 90.5,276.5 97.5,276.5C 97.6667,241.832 97.5,207.165 97,172.5C 95.2817,171.15 93.4484,169.983 91.5,169C 87.0892,168.983 82.9225,168.15 79,166.5C 76.0596,168.263 74.8929,170.93 75.5,174.5C 74.209,174.263 73.209,174.596 72.5,175.5C 72.1667,175.5 71.8333,175.5 71.5,175.5C 70.17,208.002 70.17,240.669 71.5,273.5C 72.9014,274.521 74.2347,275.521 75.5,276.5C 71.4029,276.531 68.9029,274.531 68,270.5C 67.8622,264.419 67.1956,258.419 66,252.5C 65,251.833 64,251.167 63,250.5C 62.3333,247.5 62.3333,244.5 63,241.5C 64.0793,239.606 65.4126,239.273 67,240.5C 67.6667,237.167 67.6667,233.833 67,230.5C 66.586,230.957 66.086,231.291 65.5,231.5C 63.4902,229.829 61.1569,229.162 58.5,229.5C 58.8084,220.736 58.1417,212.069 56.5,203.5C 57.2458,202.264 57.5792,200.93 57.5,199.5C 61.2739,199.484 62.2739,201.15 60.5,204.5C 61.2826,209.447 61.7826,214.447 62,219.5C 62.3333,220.167 62.6667,220.833 63,221.5C 64.0793,219.606 65.4126,219.273 67,220.5C 67.6667,208.833 67.6667,197.167 67,185.5C 66.8295,187.715 66.1628,189.715 65,191.5C 62.7137,188.635 61.8803,185.302 62.5,181.5C 63.5,181.5 64.5,181.5 65.5,181.5C 65.9067,175.801 66.5734,170.134 67.5,164.5C 70.3085,164.693 72.9752,165.36 75.5,166.5C 75.5,164.833 75.5,163.167 75.5,161.5C 77.8333,161.5 80.1667,161.5 82.5,161.5C 82.5,162.5 82.5,163.5 82.5,164.5C 87.0151,164.272 91.3484,164.938 95.5,166.5C 95.5,164.833 95.5,163.167 95.5,161.5C 99.1545,161.058 102.821,160.724 106.5,160.5C 106.516,196.809 106.35,233.143 106,269.5C 102.899,272.779 101.732,276.779 102.5,281.5C 94.8261,281.666 87.1594,281.5 79.5,281C 77.8588,279.871 76.8588,278.371 76.5,276.5 Z M 89.5,270.5 C 85.5,270.5 81.5,270.5 77.5,270.5C 76.5081,239.573 76.1747,208.573 76.5,177.5C 81.0704,176.559 85.737,176.226 90.5,176.5C 90.8254,207.907 90.492,239.24 89.5,270.5 Z"/></g>
<g><path style="opacity:1" fill="#652e39" d="M 76.5,276.5 C 76.1667,276.5 75.8333,276.5 75.5,276.5C 74.2347,275.521 72.9014,274.521 71.5,273.5C 70.17,240.669 70.17,208.002 71.5,175.5C 71.5,207.167 71.5,238.833 71.5,270.5C 72.8333,270.5 74.1667,270.5 75.5,270.5C 75.8333,270.5 76.1667,270.5 76.5,270.5C 76.5,270.833 76.5,271.167 76.5,271.5C 76.5,272.833 76.5,274.167 76.5,275.5C 81.6946,275.821 86.6946,275.487 91.5,274.5C 92.8333,274.5 94.1667,274.5 95.5,274.5C 95.5,273.167 95.5,271.833 95.5,270.5C 96.4982,239.004 96.8315,207.338 96.5,175.5C 94.8333,175.5 93.1667,175.5 91.5,175.5C 91.5,173.833 91.5,172.167 91.5,170.5C 86.5,170.5 81.5,170.5 76.5,170.5C 76.5,172.167 76.5,173.833 76.5,175.5C 76.1667,175.5 75.8333,175.5 75.5,175.5C 74.5,175.5 73.5,175.5 72.5,175.5C 73.209,174.596 74.209,174.263 75.5,174.5C 74.8929,170.93 76.0596,168.263 79,166.5C 82.9225,168.15 87.0892,168.983 91.5,169C 93.4484,169.983 95.2817,171.15 97,172.5C 97.5,207.165 97.6667,241.832 97.5,276.5C 90.5,276.5 83.5,276.5 76.5,276.5 Z M 89.5,270.5 C 85.5,270.5 81.5,270.5 77.5,270.5C 76.5081,239.573 76.1747,208.573 76.5,177.5C 81.0704,176.559 85.737,176.226 90.5,176.5C 90.8254,207.907 90.492,239.24 89.5,270.5 Z"/></g>
<g><path style="opacity:0.32" fill="#acabaa" d="M 76.5,175.5 C 81.5,175.5 86.5,175.5 91.5,175.5C 91.5,207.167 91.5,238.833 91.5,270.5C 90.8333,270.5 90.1667,270.5 89.5,270.5C 90.492,239.24 90.8254,207.907 90.5,176.5C 85.737,176.226 81.0704,176.559 76.5,177.5C 76.5,176.833 76.5,176.167 76.5,175.5 Z"/></g>
<g><path style="opacity:1" fill="#160b0b" d="M 91.5,175.5 C 93.1667,175.5 94.8333,175.5 96.5,175.5C 96.8315,207.338 96.4982,239.004 95.5,270.5C 94.1667,270.5 92.8333,270.5 91.5,270.5C 91.5,238.833 91.5,207.167 91.5,175.5 Z"/></g>
<g><path style="opacity:1" fill="#1d0708" d="M 91.5,175.5 C 86.5,175.5 81.5,175.5 76.5,175.5C 76.5,173.833 76.5,172.167 76.5,170.5C 81.5,170.5 86.5,170.5 91.5,170.5C 91.5,172.167 91.5,173.833 91.5,175.5 Z"/></g>
<g><path style="opacity:1" fill="#b24650" d="M 176.5,170.5 C 176.5,172.167 176.5,173.833 176.5,175.5C 176.167,175.5 175.833,175.5 175.5,175.5C 174.167,175.5 172.833,175.5 171.5,175.5C 171.5,207.167 171.5,238.833 171.5,270.5C 172.833,270.5 174.167,270.5 175.5,270.5C 175.833,270.5 176.167,270.5 176.5,270.5C 176.5,272.167 176.5,273.833 176.5,275.5C 181.5,275.5 186.5,275.5 191.5,275.5C 187.778,276.39 183.945,277.39 180,278.5C 178.284,278.252 176.784,277.585 175.5,276.5C 174.914,276.709 174.414,277.043 174,277.5C 173.121,274.299 171.455,271.632 169,269.5C 169.099,241.442 168.265,213.442 166.5,185.5C 166.563,181.653 167.563,178.153 169.5,175C 171.473,174.505 173.473,174.338 175.5,174.5C 175.232,172.901 175.566,171.568 176.5,170.5 Z"/></g>
<g><path style="opacity:1" fill="#2e0708" d="M 175.5,175.5 C 174.791,176.404 173.791,176.737 172.5,176.5C 172.5,207.5 172.5,238.5 172.5,269.5C 173.791,269.263 174.791,269.596 175.5,270.5C 174.167,270.5 172.833,270.5 171.5,270.5C 171.5,238.833 171.5,207.167 171.5,175.5C 172.833,175.5 174.167,175.5 175.5,175.5 Z"/></g>
<g><path style="opacity:1" fill="#180204" d="M 71.5,175.5 C 71.8333,175.5 72.1667,175.5 72.5,175.5C 73.5,175.5 74.5,175.5 75.5,175.5C 75.5,175.833 75.5,176.167 75.5,176.5C 74.5,176.5 73.5,176.5 72.5,176.5C 72.1668,207.507 72.5002,238.507 73.5,269.5C 74.1818,268.757 74.8485,268.091 75.5,267.5C 75.5,268.5 75.5,269.5 75.5,270.5C 74.1667,270.5 72.8333,270.5 71.5,270.5C 71.5,238.833 71.5,207.167 71.5,175.5 Z"/></g>
<g><path style="opacity:1" fill="#0c0908" d="M 75.5,176.5 C 75.5,206.833 75.5,237.167 75.5,267.5C 74.8485,268.091 74.1818,268.757 73.5,269.5C 72.5002,238.507 72.1668,207.507 72.5,176.5C 73.5,176.5 74.5,176.5 75.5,176.5 Z"/></g>
<g><path style="opacity:1" fill="#380c0b" d="M 225.5,175.5 C 224.791,176.404 223.791,176.737 222.5,176.5C 222.5,207.5 222.5,238.5 222.5,269.5C 223.791,269.263 224.791,269.596 225.5,270.5C 224.167,270.5 222.833,270.5 221.5,270.5C 221.5,270.167 221.5,269.833 221.5,269.5C 221.5,238.167 221.5,206.833 221.5,175.5C 222.833,175.5 224.167,175.5 225.5,175.5 Z"/></g>
<g><path style="opacity:0.02" fill="#c0c0be" d="M 26.5,185.5 C 28.1667,185.5 29.8333,185.5 31.5,185.5C 31.5,192.167 31.5,198.833 31.5,205.5C 29.7517,199.426 29.085,193.093 29.5,186.5C 28.209,186.737 27.209,186.404 26.5,185.5 Z"/></g>
<g><path style="opacity:1" fill="#c8646f" d="M 36.5,185.5 C 37.8333,185.5 39.1667,185.5 40.5,185.5C 40.5,192.167 40.5,198.833 40.5,205.5C 39.1667,205.5 37.8333,205.5 36.5,205.5C 36.5,198.833 36.5,192.167 36.5,185.5 Z"/></g>
<g><path style="opacity:1" fill="#9b3b51" d="M 120.5,182.5 C 120.169,212.005 120.502,241.338 121.5,270.5C 122.833,270.5 124.167,270.5 125.5,270.5C 125.833,270.5 126.167,270.5 126.5,270.5C 126.5,272.167 126.5,273.833 126.5,275.5C 131.5,275.5 136.5,275.5 141.5,275.5C 141.5,273.833 141.5,272.167 141.5,270.5C 141.833,270.5 142.167,270.5 142.5,270.5C 143.833,270.5 145.167,270.5 146.5,270.5C 145.432,271.434 144.099,271.768 142.5,271.5C 142.5,273.833 142.5,276.167 142.5,278.5C 137.168,278.169 132.334,278.835 128,280.5C 127.385,278.884 126.385,277.551 125,276.5C 123.644,277.38 122.144,277.714 120.5,277.5C 118.942,259.889 118.275,242.222 118.5,224.5C 118.667,211.167 118.833,197.833 119,184.5C 119.278,183.584 119.778,182.918 120.5,182.5 Z"/></g>
<g><path style="opacity:1" fill="#16090a" d="M 332.5,185.5 C 333.833,185.5 335.167,185.5 336.5,185.5C 336.5,192.167 336.5,198.833 336.5,205.5C 334.833,205.5 333.167,205.5 331.5,205.5C 331.5,200.5 331.5,195.5 331.5,190.5C 331.216,188.585 331.549,186.919 332.5,185.5 Z"/></g>
<g><path style="opacity:0.635" fill="#a29f9f" d="M 336.5,185.5 C 336.833,185.5 337.167,185.5 337.5,185.5C 338.833,185.5 340.167,185.5 341.5,185.5C 340.432,186.434 339.099,186.768 337.5,186.5C 337.823,193.022 337.49,199.355 336.5,205.5C 336.5,198.833 336.5,192.167 336.5,185.5 Z"/></g>
<g><path style="opacity:1" fill="#280606" d="M 192.5,175.5 C 193.833,175.5 195.167,175.5 196.5,175.5C 196.5,207.167 196.5,238.833 196.5,270.5C 195.167,270.5 193.833,270.5 192.5,270.5C 193.209,269.596 194.209,269.263 195.5,269.5C 195.5,238.5 195.5,207.5 195.5,176.5C 194.209,176.737 193.209,176.404 192.5,175.5 Z"/></g>
<g><path style="opacity:1" fill="#451716" d="M 271.5,175.5 C 273.167,175.5 274.833,175.5 276.5,175.5C 276.5,175.833 276.5,176.167 276.5,176.5C 275.167,176.5 273.833,176.5 272.5,176.5C 272.5,207.833 272.5,239.167 272.5,270.5C 272.167,270.5 271.833,270.5 271.5,270.5C 271.5,238.833 271.5,207.167 271.5,175.5 Z"/></g>
<g><path style="opacity:0.243" fill="#bebcb5" d="M 276.5,175.5 C 276.833,175.5 277.167,175.5 277.5,175.5C 282.167,175.5 286.833,175.5 291.5,175.5C 291.5,175.833 291.5,176.167 291.5,176.5C 286.833,176.5 282.167,176.5 277.5,176.5C 277.175,207.907 277.508,239.24 278.5,270.5C 277.833,270.5 277.167,270.5 276.5,270.5C 276.5,239.167 276.5,207.833 276.5,176.5C 276.5,176.167 276.5,175.833 276.5,175.5 Z"/></g>
<g><path style="opacity:0.023" fill="#c0c4c2" d="M 31.5,205.5 C 33.1667,205.5 34.8333,205.5 36.5,205.5C 36.5,205.833 36.5,206.167 36.5,206.5C 36.5,214.5 36.5,222.5 36.5,230.5C 35.8826,230.389 35.3826,230.056 35,229.5C 34.5003,221.841 34.3336,214.174 34.5,206.5C 33.209,206.737 32.209,206.404 31.5,205.5 Z"/></g>
<g><path style="opacity:1" fill="#0e0904" d="M 36.5,206.5 C 37.8333,206.5 39.1667,206.5 40.5,206.5C 40.5,214.5 40.5,222.5 40.5,230.5C 39.1667,230.5 37.8333,230.5 36.5,230.5C 36.5,222.5 36.5,214.5 36.5,206.5 Z"/></g>
<g><path style="opacity:0.592" fill="#a6a4a4" d="M 331.5,205.5 C 333.167,205.5 334.833,205.5 336.5,205.5C 335.432,206.434 334.099,206.768 332.5,206.5C 332.826,214.684 332.492,222.684 331.5,230.5C 331.5,222.5 331.5,214.5 331.5,206.5C 331.5,206.167 331.5,205.833 331.5,205.5 Z"/></g>
<g><path style="opacity:1" fill="#0a0504" d="M 331.5,206.5 C 331.5,214.5 331.5,222.5 331.5,230.5C 330.167,230.5 328.833,230.5 327.5,230.5C 327.5,222.5 327.5,214.5 327.5,206.5C 328.833,206.5 330.167,206.5 331.5,206.5 Z"/></g>
<g><path style="opacity:1" fill="#39151c" d="M 331.5,205.5 C 331.5,205.833 331.5,206.167 331.5,206.5C 330.167,206.5 328.833,206.5 327.5,206.5C 327.5,214.5 327.5,222.5 327.5,230.5C 327.167,230.5 326.833,230.5 326.5,230.5C 326.5,222.167 326.5,213.833 326.5,205.5C 328.167,205.5 329.833,205.5 331.5,205.5 Z"/></g>
<g><path style="opacity:1" fill="#562d2b" d="M 36.5,206.5 C 36.5,206.167 36.5,205.833 36.5,205.5C 37.8333,205.5 39.1667,205.5 40.5,205.5C 40.8333,205.5 41.1667,205.5 41.5,205.5C 41.5,213.833 41.5,222.167 41.5,230.5C 41.1667,230.5 40.8333,230.5 40.5,230.5C 40.5,222.5 40.5,214.5 40.5,206.5C 39.1667,206.5 37.8333,206.5 36.5,206.5 Z"/></g>
<g><path style="opacity:1" fill="#ce6270" d="M 42.5,205.5 C 43.5,205.5 44.5,205.5 45.5,205.5C 45.5,213.5 45.5,221.5 45.5,229.5C 44.5,229.5 43.5,229.5 42.5,229.5C 42.5,221.5 42.5,213.5 42.5,205.5 Z"/></g>
<g><path style="opacity:1" fill="#b66871" d="M 41.5,205.5 C 41.8333,205.5 42.1667,205.5 42.5,205.5C 42.5,213.5 42.5,221.5 42.5,229.5C 43.5,229.5 44.5,229.5 45.5,229.5C 45.5,229.833 45.5,230.167 45.5,230.5C 44.1667,230.5 42.8333,230.5 41.5,230.5C 41.5,222.167 41.5,213.833 41.5,205.5 Z"/></g>
<g><path style="opacity:1" fill="#210102" d="M 242.5,176.5 C 242.5,176.167 242.5,175.833 242.5,175.5C 243.833,175.5 245.167,175.5 246.5,175.5C 246.5,207.167 246.5,238.833 246.5,270.5C 245.167,270.5 243.833,270.5 242.5,270.5C 242.5,270.167 242.5,269.833 242.5,269.5C 243.5,269.5 244.5,269.5 245.5,269.5C 245.5,238.5 245.5,207.5 245.5,176.5C 244.5,176.5 243.5,176.5 242.5,176.5 Z"/></g>
<g><path style="opacity:0.673" fill="#6d6a69" d="M 75.5,175.5 C 75.8333,175.5 76.1667,175.5 76.5,175.5C 76.5,176.167 76.5,176.833 76.5,177.5C 76.1747,208.573 76.5081,239.573 77.5,270.5C 77.1667,270.5 76.8333,270.5 76.5,270.5C 76.1667,270.5 75.8333,270.5 75.5,270.5C 75.5,269.5 75.5,268.5 75.5,267.5C 75.5,237.167 75.5,206.833 75.5,176.5C 75.5,176.167 75.5,175.833 75.5,175.5 Z"/></g>
<g><path style="opacity:0.757" fill="#545554" d="M 291.5,174.5 C 292.167,174.5 292.5,174.833 292.5,175.5C 292.5,175.833 292.5,176.167 292.5,176.5C 292.5,207.5 292.5,238.5 292.5,269.5C 292.5,269.833 292.5,270.167 292.5,270.5C 291.833,270.5 291.5,270.833 291.5,271.5C 286.5,271.5 281.5,271.5 276.5,271.5C 276.5,271.167 276.5,270.833 276.5,270.5C 277.167,270.5 277.833,270.5 278.5,270.5C 282.767,270.797 286.934,270.464 291,269.5C 291.5,238.502 291.667,207.502 291.5,176.5C 291.5,176.167 291.5,175.833 291.5,175.5C 291.5,175.167 291.5,174.833 291.5,174.5 Z"/></g>
<g><path style="opacity:1" fill="#0d0806" d="M 41.5,231.5 C 42.8333,231.5 44.1667,231.5 45.5,231.5C 45.5,239.5 45.5,247.5 45.5,255.5C 44.1667,255.5 42.8333,255.5 41.5,255.5C 41.5,247.5 41.5,239.5 41.5,231.5 Z"/></g>
<g><path style="opacity:1" fill="#c95f67" d="M 47.5,230.5 C 48.8221,230.33 49.9887,230.663 51,231.5C 51.4997,239.159 51.6664,246.826 51.5,254.5C 50.1667,254.5 48.8333,254.5 47.5,254.5C 47.5,246.5 47.5,238.5 47.5,230.5 Z"/></g>
<g><path style="opacity:1" fill="#220b0d" d="M 326.5,230.5 C 326.5,233.167 326.5,235.833 326.5,238.5C 325.093,235.961 323.927,236.294 323,239.5C 322.501,244.823 322.334,250.156 322.5,255.5C 322.167,255.5 321.833,255.5 321.5,255.5C 321.5,247.167 321.5,238.833 321.5,230.5C 323.167,230.5 324.833,230.5 326.5,230.5 Z"/></g>
<g><path style="opacity:1" fill="#542c2e" d="M 41.5,231.5 C 41.5,231.167 41.5,230.833 41.5,230.5C 42.8333,230.5 44.1667,230.5 45.5,230.5C 45.8333,230.5 46.1667,230.5 46.5,230.5C 46.5,238.833 46.5,247.167 46.5,255.5C 46.1667,255.5 45.8333,255.5 45.5,255.5C 45.5,247.5 45.5,239.5 45.5,231.5C 44.1667,231.5 42.8333,231.5 41.5,231.5 Z"/></g>
<g><path style="opacity:1" fill="#b5686e" d="M 46.5,230.5 C 46.8333,230.5 47.1667,230.5 47.5,230.5C 47.5,238.5 47.5,246.5 47.5,254.5C 48.8333,254.5 50.1667,254.5 51.5,254.5C 51.5,254.833 51.5,255.167 51.5,255.5C 49.8333,255.5 48.1667,255.5 46.5,255.5C 46.5,247.167 46.5,238.833 46.5,230.5 Z"/></g>
<g><path style="opacity:1" fill="#873647" d="M 331.5,190.5 C 331.5,195.5 331.5,200.5 331.5,205.5C 329.833,205.5 328.167,205.5 326.5,205.5C 326.5,213.833 326.5,222.167 326.5,230.5C 324.833,230.5 323.167,230.5 321.5,230.5C 321.5,238.833 321.5,247.167 321.5,255.5C 319.833,255.5 318.167,255.5 316.5,255.5C 316.5,262.167 316.5,268.833 316.5,275.5C 314.833,275.5 313.167,275.5 311.5,275.5C 311.171,269.794 311.505,264.128 312.5,258.5C 313.892,257.395 315.059,256.061 316,254.5C 316.333,249.167 316.667,243.833 317,238.5C 317.368,237.09 318.201,236.09 319.5,235.5C 320.688,227.207 321.354,218.874 321.5,210.5C 322.833,210.5 324.167,210.5 325.5,210.5C 326.139,203.852 326.473,197.186 326.5,190.5C 328.167,190.5 329.833,190.5 331.5,190.5 Z"/></g>
<g><path style="opacity:1" fill="#080303" d="M 326.5,238.5 C 326.5,244.167 326.5,249.833 326.5,255.5C 325.167,255.5 323.833,255.5 322.5,255.5C 322.334,250.156 322.501,244.823 323,239.5C 323.927,236.294 325.093,235.961 326.5,238.5 Z"/></g>
<g><path style="opacity:0.561" fill="#aba8a6" d="M 326.5,230.5 C 326.833,230.5 327.167,230.5 327.5,230.5C 328.833,230.5 330.167,230.5 331.5,230.5C 330.432,231.434 329.099,231.768 327.5,231.5C 327.5,239.833 327.5,248.167 327.5,256.5C 325.833,256.5 324.167,256.5 322.5,256.5C 322.5,263.167 322.5,269.833 322.5,276.5C 320.833,276.5 319.167,276.5 317.5,276.5C 317.5,281.5 317.5,286.5 317.5,291.5C 314.089,290.933 312.089,292.266 311.5,295.5C 311.5,293.833 311.5,292.167 311.5,290.5C 311.833,290.5 312.167,290.5 312.5,290.5C 313.833,290.5 315.167,290.5 316.5,290.5C 316.5,285.833 316.5,281.167 316.5,276.5C 316.5,276.167 316.5,275.833 316.5,275.5C 316.833,275.5 317.167,275.5 317.5,275.5C 318.833,275.5 320.167,275.5 321.5,275.5C 321.5,269.167 321.5,262.833 321.5,256.5C 321.5,256.167 321.5,255.833 321.5,255.5C 321.833,255.5 322.167,255.5 322.5,255.5C 323.833,255.5 325.167,255.5 326.5,255.5C 326.5,249.833 326.5,244.167 326.5,238.5C 326.5,235.833 326.5,233.167 326.5,230.5 Z"/></g>
<g><path style="opacity:1" fill="#070403" d="M 321.5,256.5 C 321.5,262.833 321.5,269.167 321.5,275.5C 320.167,275.5 318.833,275.5 317.5,275.5C 317.5,269.167 317.5,262.833 317.5,256.5C 318.833,256.5 320.167,256.5 321.5,256.5 Z"/></g>
<g><path style="opacity:1" fill="#c86470" d="M 51.5,255.5 C 52.8333,255.5 54.1667,255.5 55.5,255.5C 55.5,262.167 55.5,268.833 55.5,275.5C 54.1667,275.5 52.8333,275.5 51.5,275.5C 51.5,268.833 51.5,262.167 51.5,255.5 Z"/></g>
<g><path style="opacity:1" fill="#9d3a4e" d="M 156.5,150.5 C 142.01,151.496 127.343,151.829 112.5,151.5C 112.5,154.833 112.5,158.167 112.5,161.5C 113.5,161.5 114.5,161.5 115.5,161.5C 115.927,164.788 115.26,167.788 113.5,170.5C 115.947,174.361 116.114,178.361 114,182.5C 113.333,211.833 113.333,241.167 114,270.5C 116.515,277.362 117.015,284.362 115.5,291.5C 116.025,292.192 116.692,292.692 117.5,293C 117.167,293.333 116.833,293.667 116.5,294C 130.163,294.5 143.829,294.667 157.5,294.5C 157.5,296.167 157.5,297.833 157.5,299.5C 155.927,297.794 153.927,296.627 151.5,296C 138.258,295.824 125.092,295.324 112,294.5C 111.5,246.501 111.333,198.501 111.5,150.5C 126.5,150.5 141.5,150.5 156.5,150.5 Z"/></g>
<g><path style="opacity:1" fill="#542c2d" d="M 46.5,256.5 C 46.5,256.167 46.5,255.833 46.5,255.5C 48.1667,255.5 49.8333,255.5 51.5,255.5C 51.5,262.167 51.5,268.833 51.5,275.5C 51.1667,275.5 50.8333,275.5 50.5,275.5C 50.5,269.167 50.5,262.833 50.5,256.5C 49.1667,256.5 47.8333,256.5 46.5,256.5 Z"/></g>
<g><path style="opacity:0.725" fill="#9c9d9b" d="M 36.5,230.5 C 37.8333,230.5 39.1667,230.5 40.5,230.5C 40.8333,230.5 41.1667,230.5 41.5,230.5C 41.5,230.833 41.5,231.167 41.5,231.5C 41.5,239.5 41.5,247.5 41.5,255.5C 42.8333,255.5 44.1667,255.5 45.5,255.5C 45.8333,255.5 46.1667,255.5 46.5,255.5C 46.5,255.833 46.5,256.167 46.5,256.5C 46.5,262.833 46.5,269.167 46.5,275.5C 47.8333,275.5 49.1667,275.5 50.5,275.5C 50.8333,275.5 51.1667,275.5 51.5,275.5C 51.5,275.833 51.5,276.167 51.5,276.5C 51.5,281.167 51.5,285.833 51.5,290.5C 52.8333,290.5 54.1667,290.5 55.5,290.5C 55.8333,290.5 56.1667,290.5 56.5,290.5C 56.5,292.167 56.5,293.833 56.5,295.5C 58.1667,295.5 59.8333,295.5 61.5,295.5C 61.5,295.833 61.5,296.167 61.5,296.5C 61.5,297.833 61.5,299.167 61.5,300.5C 61.1667,300.5 60.8333,300.5 60.5,300.5C 60.6162,297.09 58.9496,295.756 55.5,296.5C 56.1667,292.5 54.5,290.833 50.5,291.5C 50.6658,286.821 50.4992,282.155 50,277.5C 48.6439,276.62 47.1439,276.286 45.5,276.5C 45.6662,270.158 45.4995,263.825 45,257.5C 43.6439,256.62 42.1439,256.286 40.5,256.5C 40.7404,248.125 40.4071,239.792 39.5,231.5C 38.209,231.737 37.209,231.404 36.5,230.5 Z"/></g>
<g><path style="opacity:1" fill="#120b08" d="M 46.5,256.5 C 47.8333,256.5 49.1667,256.5 50.5,256.5C 50.5,262.833 50.5,269.167 50.5,275.5C 49.1667,275.5 47.8333,275.5 46.5,275.5C 46.5,269.167 46.5,262.833 46.5,256.5 Z"/></g>
<g><path style="opacity:1" fill="#361317" d="M 321.5,255.5 C 321.5,255.833 321.5,256.167 321.5,256.5C 320.167,256.5 318.833,256.5 317.5,256.5C 317.5,262.833 317.5,269.167 317.5,275.5C 317.167,275.5 316.833,275.5 316.5,275.5C 316.5,268.833 316.5,262.167 316.5,255.5C 318.167,255.5 319.833,255.5 321.5,255.5 Z"/></g>
<g><path style="opacity:1" fill="#191213" d="M 126.5,270.5 C 126.833,270.5 127.167,270.5 127.5,270.5C 131.5,270.5 135.5,270.5 139.5,270.5C 140.167,270.5 140.833,270.5 141.5,270.5C 141.5,272.167 141.5,273.833 141.5,275.5C 136.5,275.5 131.5,275.5 126.5,275.5C 126.5,273.833 126.5,272.167 126.5,270.5 Z"/></g>
<g><path style="opacity:1" fill="#1a1311" d="M 176.5,270.5 C 176.833,270.5 177.167,270.5 177.5,270.5C 181.5,270.5 185.5,270.5 189.5,270.5C 190.167,270.5 190.833,270.5 191.5,270.5C 191.5,272.167 191.5,273.833 191.5,275.5C 186.5,275.5 181.5,275.5 176.5,275.5C 176.5,273.833 176.5,272.167 176.5,270.5 Z"/></g>
<g><path style="opacity:1" fill="#110502" d="M 276.5,271.5 C 281.5,271.5 286.5,271.5 291.5,271.5C 291.5,272.833 291.5,274.167 291.5,275.5C 286.5,275.5 281.5,275.5 276.5,275.5C 276.5,274.167 276.5,272.833 276.5,271.5 Z"/></g>
<g><path style="opacity:1" fill="#563e40" d="M 76.5,271.5 C 76.5,271.167 76.5,270.833 76.5,270.5C 76.8333,270.5 77.1667,270.5 77.5,270.5C 81.5,270.5 85.5,270.5 89.5,270.5C 90.1667,270.5 90.8333,270.5 91.5,270.5C 92.8333,270.5 94.1667,270.5 95.5,270.5C 95.5,271.833 95.5,273.167 95.5,274.5C 94.1667,274.5 92.8333,274.5 91.5,274.5C 91.5,273.5 91.5,272.5 91.5,271.5C 86.5,271.5 81.5,271.5 76.5,271.5 Z"/></g>
<g><path style="opacity:1" fill="#180303" d="M 76.5,271.5 C 81.5,271.5 86.5,271.5 91.5,271.5C 91.5,272.5 91.5,273.5 91.5,274.5C 86.6946,275.487 81.6946,275.821 76.5,275.5C 76.5,274.167 76.5,272.833 76.5,271.5 Z"/></g>
<g><path style="opacity:1" fill="#a4434b" d="M 221.5,270.5 C 222.833,270.5 224.167,270.5 225.5,270.5C 225.833,270.5 226.167,270.5 226.5,270.5C 226.5,270.833 226.5,271.167 226.5,271.5C 226.5,272.833 226.5,274.167 226.5,275.5C 231.5,275.5 236.5,275.5 241.5,275.5C 241.5,274.167 241.5,272.833 241.5,271.5C 241.5,270.833 241.833,270.5 242.5,270.5C 243.833,270.5 245.167,270.5 246.5,270.5C 245.432,271.434 244.099,271.768 242.5,271.5C 242.5,273.5 242.5,275.5 242.5,277.5C 238.132,277.37 233.798,277.703 229.5,278.5C 227.886,278.197 226.552,277.53 225.5,276.5C 225.5,274.833 225.5,273.167 225.5,271.5C 223.901,271.768 222.568,271.434 221.5,270.5 Z"/></g>
<g><path style="opacity:1" fill="#120503" d="M 226.5,271.5 C 231.5,271.5 236.5,271.5 241.5,271.5C 241.5,272.833 241.5,274.167 241.5,275.5C 236.5,275.5 231.5,275.5 226.5,275.5C 226.5,274.167 226.5,272.833 226.5,271.5 Z"/></g>
<g><path style="opacity:1" fill="#502a2d" d="M 51.5,276.5 C 51.5,276.167 51.5,275.833 51.5,275.5C 52.8333,275.5 54.1667,275.5 55.5,275.5C 55.8333,275.5 56.1667,275.5 56.5,275.5C 56.5,280.5 56.5,285.5 56.5,290.5C 56.1667,290.5 55.8333,290.5 55.5,290.5C 55.5,285.833 55.5,281.167 55.5,276.5C 54.1667,276.5 52.8333,276.5 51.5,276.5 Z"/></g>
<g><path style="opacity:1" fill="#110c0a" d="M 51.5,276.5 C 52.8333,276.5 54.1667,276.5 55.5,276.5C 55.5,281.167 55.5,285.833 55.5,290.5C 54.1667,290.5 52.8333,290.5 51.5,290.5C 51.5,285.833 51.5,281.167 51.5,276.5 Z"/></g>
<g><path style="opacity:1" fill="#090604" d="M 316.5,276.5 C 316.5,281.167 316.5,285.833 316.5,290.5C 315.167,290.5 313.833,290.5 312.5,290.5C 312.5,285.833 312.5,281.167 312.5,276.5C 313.833,276.5 315.167,276.5 316.5,276.5 Z"/></g>
<g><path style="opacity:1" fill="#883647" d="M 311.5,276.5 C 311.5,281.167 311.5,285.833 311.5,290.5C 309.833,290.5 308.167,290.5 306.5,290.5C 306.5,292.167 306.5,293.833 306.5,295.5C 303.167,295.5 299.833,295.5 296.5,295.5C 296.5,295.167 296.5,294.833 296.5,294.5C 296.833,294.5 297.167,294.5 297.5,294.5C 299.167,294.5 300.833,294.5 302.5,294.5C 304.174,289.953 305.674,285.286 307,280.5C 308.011,279.663 309.178,279.33 310.5,279.5C 310.263,278.209 310.596,277.209 311.5,276.5 Z"/></g>
<g><path style="opacity:1" fill="#bf5c68" d="M 56.5,275.5 C 58.1667,275.5 59.8333,275.5 61.5,275.5C 61.3342,280.179 61.5008,284.845 62,289.5C 63.0113,290.337 64.1779,290.67 65.5,290.5C 65.5,292.167 65.5,293.833 65.5,295.5C 64.1667,295.5 62.8333,295.5 61.5,295.5C 59.8333,295.5 58.1667,295.5 56.5,295.5C 56.5,293.833 56.5,292.167 56.5,290.5C 56.5,285.5 56.5,280.5 56.5,275.5 Z"/></g>
<g><path style="opacity:1" fill="#36141a" d="M 311.5,275.5 C 313.167,275.5 314.833,275.5 316.5,275.5C 316.5,275.833 316.5,276.167 316.5,276.5C 315.167,276.5 313.833,276.5 312.5,276.5C 312.5,281.167 312.5,285.833 312.5,290.5C 312.167,290.5 311.833,290.5 311.5,290.5C 311.5,285.833 311.5,281.167 311.5,276.5C 311.5,276.167 311.5,275.833 311.5,275.5 Z"/></g>
<g><path style="opacity:1" fill="#1d0c0d" d="M 311.5,290.5 C 311.5,292.167 311.5,293.833 311.5,295.5C 309.833,295.5 308.167,295.5 306.5,295.5C 306.5,293.833 306.5,292.167 306.5,290.5C 308.167,290.5 309.833,290.5 311.5,290.5 Z"/></g>
<g><path style="opacity:1" fill="#2b1b16" d="M 56.5,290.5 C 58.1667,290.5 59.8333,290.5 61.5,290.5C 61.5,292.167 61.5,293.833 61.5,295.5C 61.5,293.833 61.5,292.167 61.5,290.5C 59.8333,290.5 58.1667,290.5 56.5,290.5 Z"/></g>
<g><path style="opacity:1" fill="#3e181c" d="M 61.5,296.5 C 61.5,296.167 61.5,295.833 61.5,295.5C 62.8333,295.5 64.1667,295.5 65.5,295.5C 67.5,295.5 69.5,295.5 71.5,295.5C 71.5,297.167 71.5,298.833 71.5,300.5C 71.1667,300.5 70.8333,300.5 70.5,300.5C 70.5,299.167 70.5,297.833 70.5,296.5C 67.5,296.5 64.5,296.5 61.5,296.5 Z"/></g>
<g><path style="opacity:1" fill="#0a0906" d="M 61.5,296.5 C 64.5,296.5 67.5,296.5 70.5,296.5C 70.5,297.833 70.5,299.167 70.5,300.5C 67.5,300.5 64.5,300.5 61.5,300.5C 61.5,299.167 61.5,297.833 61.5,296.5 Z"/></g>
<g><path style="opacity:1" fill="#351219" d="M 296.5,295.5 C 299.833,295.5 303.167,295.5 306.5,295.5C 306.5,295.833 306.5,296.167 306.5,296.5C 303.5,296.5 300.5,296.5 297.5,296.5C 297.5,297.833 297.5,299.167 297.5,300.5C 297.167,300.5 296.833,300.5 296.5,300.5C 296.5,298.833 296.5,297.167 296.5,295.5 Z"/></g>
<g><path style="opacity:1" fill="#0c0607" d="M 306.5,296.5 C 306.5,297.833 306.5,299.167 306.5,300.5C 303.5,300.5 300.5,300.5 297.5,300.5C 297.5,299.167 297.5,297.833 297.5,296.5C 300.5,296.5 303.5,296.5 306.5,296.5 Z"/></g>
<g><path style="opacity:0.525" fill="#a9a7a7" d="M 306.5,295.5 C 308.167,295.5 309.833,295.5 311.5,295.5C 310.432,296.434 309.099,296.768 307.5,296.5C 307.768,298.099 307.434,299.432 306.5,300.5C 306.5,299.167 306.5,297.833 306.5,296.5C 306.5,296.167 306.5,295.833 306.5,295.5 Z"/></g>
<g><path style="opacity:1" fill="#6e3541" d="M 71.5,295.5 C 72.4345,296.568 72.7678,297.901 72.5,299.5C 73.8333,299.5 75.1667,299.5 76.5,299.5C 98.5946,299.755 120.761,299.422 143,298.5C 146.902,298.512 150.402,299.179 153.5,300.5C 126.167,300.5 98.8333,300.5 71.5,300.5C 71.5,298.833 71.5,297.167 71.5,295.5 Z"/></g>
<g><path style="opacity:0.485" fill="#aeabaa" d="M 296.5,300.5 C 296.833,300.5 297.167,300.5 297.5,300.5C 300.5,300.5 303.5,300.5 306.5,300.5C 303.713,301.477 300.713,301.81 297.5,301.5C 297.768,303.099 297.434,304.432 296.5,305.5C 296.5,303.833 296.5,302.167 296.5,300.5 Z"/></g>
<g><path style="opacity:1" fill="#1f1314" d="M 71.5,300.5 C 98.8333,300.5 126.167,300.5 153.5,300.5C 201.167,300.5 248.833,300.5 296.5,300.5C 296.5,302.167 296.5,303.833 296.5,305.5C 221.5,305.5 146.5,305.5 71.5,305.5C 71.5,303.833 71.5,302.167 71.5,300.5 Z"/></g>
<g><path style="opacity:1" fill="#070101" d="M 72.5,301.5 C 146.833,301.5 221.167,301.5 295.5,301.5C 295.5,302.5 295.5,303.5 295.5,304.5C 221.167,304.5 146.833,304.5 72.5,304.5C 72.5,303.5 72.5,302.5 72.5,301.5 Z"/></g>
<g><path style="opacity:0.483" fill="#acadab" d="M 60.5,300.5 C 60.8333,300.5 61.1667,300.5 61.5,300.5C 64.5,300.5 67.5,300.5 70.5,300.5C 70.8333,300.5 71.1667,300.5 71.5,300.5C 71.5,302.167 71.5,303.833 71.5,305.5C 146.5,305.5 221.5,305.5 296.5,305.5C 296.5,305.833 296.5,306.167 296.5,306.5C 221.167,306.5 145.833,306.5 70.5,306.5C 70.7135,304.856 70.3802,303.356 69.5,302C 66.3054,301.819 63.3054,301.319 60.5,300.5 Z"/></g>
</svg>
