<?xml version="1.0" encoding="UTF-8"?>
<!DOCTYPE svg PUBLIC "-//W3C//DTD SVG 1.1//EN" "http://www.w3.org/Graphics/SVG/1.1/DTD/svg11.dtd">
<svg xmlns="http://www.w3.org/2000/svg" version="1.1" width="512px" height="512px" style="shape-rendering:geometricPrecision; text-rendering:geometricPrecision; image-rendering:optimizeQuality; fill-rule:evenodd; clip-rule:evenodd" xmlns:xlink="http://www.w3.org/1999/xlink">
<g><path style="opacity:0.972" fill="#000000" d="M 119.5,-0.5 C 129.833,-0.5 140.167,-0.5 150.5,-0.5C 150.5,9.5 150.5,19.5 150.5,29.5C 150.167,29.5 149.833,29.5 149.5,29.5C 139.833,29.5 130.167,29.5 120.5,29.5C 120.167,29.5 119.833,29.5 119.5,29.5C 119.5,19.5 119.5,9.5 119.5,-0.5 Z"/></g>
<g><path style="opacity:0.972" fill="#000000" d="M 360.5,-0.5 C 370.833,-0.5 381.167,-0.5 391.5,-0.5C 391.5,9.5 391.5,19.5 391.5,29.5C 391.167,29.5 390.833,29.5 390.5,29.5C 380.833,29.5 371.167,29.5 361.5,29.5C 361.167,29.5 360.833,29.5 360.5,29.5C 360.5,19.5 360.5,9.5 360.5,-0.5 Z"/></g>
<g><path style="opacity:0.993" fill="#000000" d="M 119.5,29.5 C 119.5,59.5 119.5,89.5 119.5,119.5C 109.833,119.5 100.167,119.5 90.5,119.5C 90.5,109.5 90.5,99.5 90.5,89.5C 70.1667,89.5 49.8333,89.5 29.5,89.5C 29.5,79.5 29.5,69.5 29.5,59.5C 49.5,59.5 69.5,59.5 89.5,59.5C 89.5,49.5 89.5,39.5 89.5,29.5C 99.5,29.5 109.5,29.5 119.5,29.5 Z"/></g>
<g><path style="opacity:0.992" fill="#000000" d="M 239.5,-0.5 C 250.167,-0.5 260.833,-0.5 271.5,-0.5C 271.5,9.5 271.5,19.5 271.5,29.5C 281.5,29.5 291.5,29.5 301.5,29.5C 301.5,39.5 301.5,49.5 301.5,59.5C 311.167,59.5 320.833,59.5 330.5,59.5C 330.5,49.5 330.5,39.5 330.5,29.5C 340.5,29.5 350.5,29.5 360.5,29.5C 360.5,59.5 360.5,89.5 360.5,119.5C 350.833,119.5 341.167,119.5 331.5,119.5C 331.827,109.319 331.494,99.3194 330.5,89.5C 320.5,89.5 310.5,89.5 300.5,89.5C 300.5,99.5 300.5,109.5 300.5,119.5C 290.5,119.5 280.5,119.5 270.5,119.5C 270.5,99.5 270.5,79.5 270.5,59.5C 270.5,49.5 270.5,39.5 270.5,29.5C 260.5,29.5 250.5,29.5 240.5,29.5C 240.5,39.5 240.5,49.5 240.5,59.5C 240.5,79.5 240.5,99.5 240.5,119.5C 230.5,119.5 220.5,119.5 210.5,119.5C 210.5,109.5 210.5,99.5 210.5,89.5C 200.5,89.5 190.5,89.5 180.5,89.5C 179.506,99.3194 179.173,109.319 179.5,119.5C 169.833,119.5 160.167,119.5 150.5,119.5C 150.5,89.5 150.5,59.5 150.5,29.5C 160.5,29.5 170.5,29.5 180.5,29.5C 180.5,39.5 180.5,49.5 180.5,59.5C 190.167,59.5 199.833,59.5 209.5,59.5C 209.5,49.5 209.5,39.5 209.5,29.5C 219.5,29.5 229.5,29.5 239.5,29.5C 239.5,19.5 239.5,9.5 239.5,-0.5 Z"/></g>
<g><path style="opacity:0.993" fill="#000000" d="M 391.5,29.5 C 401.5,29.5 411.5,29.5 421.5,29.5C 421.5,39.5 421.5,49.5 421.5,59.5C 441.5,59.5 461.5,59.5 481.5,59.5C 481.5,69.5 481.5,79.5 481.5,89.5C 461.167,89.5 440.833,89.5 420.5,89.5C 420.5,99.5 420.5,109.5 420.5,119.5C 410.833,119.5 401.167,119.5 391.5,119.5C 391.5,89.5 391.5,59.5 391.5,29.5 Z"/></g>
<g><path style="opacity:1" fill="#f6f8f9" d="M 120.5,29.5 C 130.167,29.5 139.833,29.5 149.5,29.5C 149.5,39.5 149.5,49.5 149.5,59.5C 139.833,59.5 130.167,59.5 120.5,59.5C 120.5,49.5 120.5,39.5 120.5,29.5 Z"/></g>
<g><path style="opacity:1" fill="#f6f8f9" d="M 270.5,59.5 C 260.5,59.5 250.5,59.5 240.5,59.5C 240.5,49.5 240.5,39.5 240.5,29.5C 250.5,29.5 260.5,29.5 270.5,29.5C 270.5,39.5 270.5,49.5 270.5,59.5 Z"/></g>
<g><path style="opacity:1" fill="#f6f8f9" d="M 361.5,29.5 C 371.167,29.5 380.833,29.5 390.5,29.5C 390.5,39.5 390.5,49.5 390.5,59.5C 380.833,59.5 371.167,59.5 361.5,59.5C 361.5,49.5 361.5,39.5 361.5,29.5 Z"/></g>
<g><path style="opacity:1" fill="#d1d9e1" d="M 120.5,59.5 C 130.167,59.5 139.833,59.5 149.5,59.5C 149.5,79.5 149.5,99.5 149.5,119.5C 139.833,119.5 130.167,119.5 120.5,119.5C 120.5,99.5 120.5,79.5 120.5,59.5 Z"/></g>
<g><path style="opacity:1" fill="#cdd3da" d="M 240.5,59.5 C 250.5,59.5 260.5,59.5 270.5,59.5C 270.5,79.5 270.5,99.5 270.5,119.5C 280.5,119.5 290.5,119.5 300.5,119.5C 300.5,119.833 300.5,120.167 300.5,120.5C 290.5,120.5 280.5,120.5 270.5,120.5C 260.5,120.5 250.5,120.5 240.5,120.5C 230.5,120.5 220.5,120.5 210.5,120.5C 210.5,120.167 210.5,119.833 210.5,119.5C 220.5,119.5 230.5,119.5 240.5,119.5C 240.5,99.5 240.5,79.5 240.5,59.5 Z"/></g>
<g><path style="opacity:1" fill="#d1d9e1" d="M 361.5,59.5 C 371.167,59.5 380.833,59.5 390.5,59.5C 390.5,79.5 390.5,99.5 390.5,119.5C 380.833,119.5 371.167,119.5 361.5,119.5C 361.5,99.5 361.5,79.5 361.5,59.5 Z"/></g>
<g><path style="opacity:0.999" fill="#000000" d="M -0.5,89.5 C 9.5,89.5 19.5,89.5 29.5,89.5C 29.5,89.8333 29.5,90.1667 29.5,90.5C 29.5,100.167 29.5,109.833 29.5,119.5C 29.5,139.833 29.5,160.167 29.5,180.5C 29.5,190.5 29.5,200.5 29.5,210.5C 29.5,270.833 29.5,331.167 29.5,391.5C 39.5,391.5 49.5,391.5 59.5,391.5C 59.5,401.5 59.5,411.5 59.5,421.5C 49.5,421.5 39.5,421.5 29.5,421.5C 29.5,431.5 29.5,441.5 29.5,451.5C 19.5,451.5 9.5,451.5 -0.5,451.5C -0.5,330.833 -0.5,210.167 -0.5,89.5 Z"/></g>
<g><path style="opacity:0.999" fill="#000000" d="M 481.5,89.5 C 491.5,89.5 501.5,89.5 511.5,89.5C 511.5,210.167 511.5,330.833 511.5,451.5C 501.5,451.5 491.5,451.5 481.5,451.5C 481.5,441.5 481.5,431.5 481.5,421.5C 471.5,421.5 461.5,421.5 451.5,421.5C 451.5,411.5 451.5,401.5 451.5,391.5C 461.5,391.5 471.5,391.5 481.5,391.5C 481.5,331.167 481.5,270.833 481.5,210.5C 481.5,200.5 481.5,190.5 481.5,180.5C 481.5,160.167 481.5,139.833 481.5,119.5C 481.5,109.833 481.5,100.167 481.5,90.5C 481.5,90.1667 481.5,89.8333 481.5,89.5 Z"/></g>
<g><path style="opacity:1" fill="#fed197" d="M 29.5,90.5 C 49.5,90.5 69.5,90.5 89.5,90.5C 89.5,100.167 89.5,109.833 89.5,119.5C 69.5,119.5 49.5,119.5 29.5,119.5C 29.5,109.833 29.5,100.167 29.5,90.5 Z"/></g>
<g><path style="opacity:1" fill="#766146" d="M 29.5,90.5 C 29.5,90.1667 29.5,89.8333 29.5,89.5C 49.8333,89.5 70.1667,89.5 90.5,89.5C 90.5,99.5 90.5,109.5 90.5,119.5C 90.1667,119.5 89.8333,119.5 89.5,119.5C 89.5,109.833 89.5,100.167 89.5,90.5C 69.5,90.5 49.5,90.5 29.5,90.5 Z"/></g>
<g><path style="opacity:1" fill="#fed297" d="M 180.5,90.5 C 190.167,90.5 199.833,90.5 209.5,90.5C 209.5,100.167 209.5,109.833 209.5,119.5C 199.833,119.5 190.167,119.5 180.5,119.5C 180.5,109.833 180.5,100.167 180.5,90.5 Z"/></g>
<g><path style="opacity:1" fill="#c2a073" d="M 180.5,90.5 C 180.5,90.1667 180.5,89.8333 180.5,89.5C 190.5,89.5 200.5,89.5 210.5,89.5C 210.5,99.5 210.5,109.5 210.5,119.5C 210.167,119.5 209.833,119.5 209.5,119.5C 209.5,109.833 209.5,100.167 209.5,90.5C 199.833,90.5 190.167,90.5 180.5,90.5 Z"/></g>
<g><path style="opacity:1" fill="#c2a073" d="M 330.5,89.5 C 330.5,89.8333 330.5,90.1667 330.5,90.5C 320.833,90.5 311.167,90.5 301.5,90.5C 301.5,100.167 301.5,109.833 301.5,119.5C 301.167,119.5 300.833,119.5 300.5,119.5C 300.5,109.5 300.5,99.5 300.5,89.5C 310.5,89.5 320.5,89.5 330.5,89.5 Z"/></g>
<g><path style="opacity:1" fill="#fed297" d="M 330.5,90.5 C 330.5,100.167 330.5,109.833 330.5,119.5C 320.833,119.5 311.167,119.5 301.5,119.5C 301.5,109.833 301.5,100.167 301.5,90.5C 311.167,90.5 320.833,90.5 330.5,90.5 Z"/></g>
<g><path style="opacity:1" fill="#766146" d="M 481.5,89.5 C 481.5,89.8333 481.5,90.1667 481.5,90.5C 461.5,90.5 441.5,90.5 421.5,90.5C 421.5,100.167 421.5,109.833 421.5,119.5C 421.167,119.5 420.833,119.5 420.5,119.5C 420.5,109.5 420.5,99.5 420.5,89.5C 440.833,89.5 461.167,89.5 481.5,89.5 Z"/></g>
<g><path style="opacity:1" fill="#fed197" d="M 481.5,90.5 C 481.5,100.167 481.5,109.833 481.5,119.5C 461.5,119.5 441.5,119.5 421.5,119.5C 421.5,109.833 421.5,100.167 421.5,90.5C 441.5,90.5 461.5,90.5 481.5,90.5 Z"/></g>
<g><path style="opacity:1" fill="#796650" d="M 119.5,29.5 C 119.833,29.5 120.167,29.5 120.5,29.5C 120.5,39.5 120.5,49.5 120.5,59.5C 120.5,79.5 120.5,99.5 120.5,119.5C 120.5,119.833 120.5,120.167 120.5,120.5C 120.5,130.167 120.5,139.833 120.5,149.5C 130.167,149.5 139.833,149.5 149.5,149.5C 149.833,149.5 150.167,149.5 150.5,149.5C 150.5,149.833 150.5,150.167 150.5,150.5C 140.167,150.5 129.833,150.5 119.5,150.5C 119.5,150.167 119.5,149.833 119.5,149.5C 119.5,139.833 119.5,130.167 119.5,120.5C 109.833,120.5 100.167,120.5 90.5,120.5C 90.1667,120.5 89.8333,120.5 89.5,120.5C 89.5,120.167 89.5,119.833 89.5,119.5C 89.8333,119.5 90.1667,119.5 90.5,119.5C 100.167,119.5 109.833,119.5 119.5,119.5C 119.5,89.5 119.5,59.5 119.5,29.5 Z"/></g>
<g><path style="opacity:1" fill="#706558" d="M 149.5,29.5 C 149.833,29.5 150.167,29.5 150.5,29.5C 150.5,59.5 150.5,89.5 150.5,119.5C 160.167,119.5 169.833,119.5 179.5,119.5C 179.173,109.319 179.506,99.3194 180.5,89.5C 180.5,89.8333 180.5,90.1667 180.5,90.5C 180.5,100.167 180.5,109.833 180.5,119.5C 180.5,119.833 180.5,120.167 180.5,120.5C 180.167,120.5 179.833,120.5 179.5,120.5C 169.833,120.5 160.167,120.5 150.5,120.5C 150.5,130.167 150.5,139.833 150.5,149.5C 150.167,149.5 149.833,149.5 149.5,149.5C 139.833,149.5 130.167,149.5 120.5,149.5C 120.5,139.833 120.5,130.167 120.5,120.5C 120.5,120.167 120.5,119.833 120.5,119.5C 130.167,119.5 139.833,119.5 149.5,119.5C 149.5,99.5 149.5,79.5 149.5,59.5C 149.5,49.5 149.5,39.5 149.5,29.5 Z"/></g>
<g><path style="opacity:1" fill="#706558" d="M 360.5,29.5 C 360.833,29.5 361.167,29.5 361.5,29.5C 361.5,39.5 361.5,49.5 361.5,59.5C 361.5,79.5 361.5,99.5 361.5,119.5C 371.167,119.5 380.833,119.5 390.5,119.5C 390.5,119.833 390.5,120.167 390.5,120.5C 380.833,120.5 371.167,120.5 361.5,120.5C 361.5,130.167 361.5,139.833 361.5,149.5C 361.167,149.5 360.833,149.5 360.5,149.5C 360.5,139.833 360.5,130.167 360.5,120.5C 350.833,120.5 341.167,120.5 331.5,120.5C 331.167,120.5 330.833,120.5 330.5,120.5C 330.5,120.167 330.5,119.833 330.5,119.5C 330.5,109.833 330.5,100.167 330.5,90.5C 330.5,90.1667 330.5,89.8333 330.5,89.5C 331.494,99.3194 331.827,109.319 331.5,119.5C 341.167,119.5 350.833,119.5 360.5,119.5C 360.5,89.5 360.5,59.5 360.5,29.5 Z"/></g>
<g><path style="opacity:1" fill="#796650" d="M 390.5,29.5 C 390.833,29.5 391.167,29.5 391.5,29.5C 391.5,59.5 391.5,89.5 391.5,119.5C 401.167,119.5 410.833,119.5 420.5,119.5C 420.833,119.5 421.167,119.5 421.5,119.5C 421.5,119.833 421.5,120.167 421.5,120.5C 421.167,120.5 420.833,120.5 420.5,120.5C 410.833,120.5 401.167,120.5 391.5,120.5C 391.5,130.167 391.5,139.833 391.5,149.5C 391.5,149.833 391.5,150.167 391.5,150.5C 381.167,150.5 370.833,150.5 360.5,150.5C 360.5,150.167 360.5,149.833 360.5,149.5C 360.833,149.5 361.167,149.5 361.5,149.5C 371.167,149.5 380.833,149.5 390.5,149.5C 390.5,139.833 390.5,130.167 390.5,120.5C 390.5,120.167 390.5,119.833 390.5,119.5C 390.5,99.5 390.5,79.5 390.5,59.5C 390.5,49.5 390.5,39.5 390.5,29.5 Z"/></g>
<g><path style="opacity:1" fill="#e38315" d="M 29.5,119.5 C 49.5,119.5 69.5,119.5 89.5,119.5C 89.5,119.833 89.5,120.167 89.5,120.5C 69.8333,120.5 50.1667,120.5 30.5,120.5C 30.5,140.167 30.5,159.833 30.5,179.5C 180.5,179.5 330.5,179.5 480.5,179.5C 480.5,159.833 480.5,140.167 480.5,120.5C 460.833,120.5 441.167,120.5 421.5,120.5C 421.5,120.167 421.5,119.833 421.5,119.5C 441.5,119.5 461.5,119.5 481.5,119.5C 481.5,139.833 481.5,160.167 481.5,180.5C 330.833,180.5 180.167,180.5 29.5,180.5C 29.5,160.167 29.5,139.833 29.5,119.5 Z"/></g>
<g><path style="opacity:1" fill="#ff9000" d="M 180.5,119.5 C 190.167,119.5 199.833,119.5 209.5,119.5C 209.833,119.5 210.167,119.5 210.5,119.5C 210.5,119.833 210.5,120.167 210.5,120.5C 210.5,130.5 210.5,140.5 210.5,150.5C 220.5,150.5 230.5,150.5 240.5,150.5C 250.5,150.5 260.5,150.5 270.5,150.5C 280.5,150.5 290.5,150.5 300.5,150.5C 300.5,140.5 300.5,130.5 300.5,120.5C 300.5,120.167 300.5,119.833 300.5,119.5C 300.833,119.5 301.167,119.5 301.5,119.5C 311.167,119.5 320.833,119.5 330.5,119.5C 330.5,119.833 330.5,120.167 330.5,120.5C 330.5,130.5 330.5,140.5 330.5,150.5C 340.5,150.5 350.5,150.5 360.5,150.5C 370.833,150.5 381.167,150.5 391.5,150.5C 401.5,150.5 411.5,150.5 421.5,150.5C 421.5,140.5 421.5,130.5 421.5,120.5C 441.167,120.5 460.833,120.5 480.5,120.5C 480.5,140.167 480.5,159.833 480.5,179.5C 330.5,179.5 180.5,179.5 30.5,179.5C 30.5,159.833 30.5,140.167 30.5,120.5C 50.1667,120.5 69.8333,120.5 89.5,120.5C 89.5,130.5 89.5,140.5 89.5,150.5C 99.5,150.5 109.5,150.5 119.5,150.5C 129.833,150.5 140.167,150.5 150.5,150.5C 160.5,150.5 170.5,150.5 180.5,150.5C 180.5,140.5 180.5,130.5 180.5,120.5C 180.5,120.167 180.5,119.833 180.5,119.5 Z"/></g>
<g><path style="opacity:1" fill="#feb75c" d="M 420.5,120.5 C 420.833,120.5 421.167,120.5 421.5,120.5C 421.5,130.5 421.5,140.5 421.5,150.5C 411.5,150.5 401.5,150.5 391.5,150.5C 391.5,150.167 391.5,149.833 391.5,149.5C 401.167,149.5 410.833,149.5 420.5,149.5C 420.5,139.833 420.5,130.167 420.5,120.5 Z"/></g>
<g><path style="opacity:1" fill="#ffb95f" d="M 330.5,120.5 C 330.833,120.5 331.167,120.5 331.5,120.5C 341.167,120.5 350.833,120.5 360.5,120.5C 360.5,130.167 360.5,139.833 360.5,149.5C 360.5,149.833 360.5,150.167 360.5,150.5C 350.5,150.5 340.5,150.5 330.5,150.5C 330.5,140.5 330.5,130.5 330.5,120.5 Z"/></g>
<g><path style="opacity:1" fill="#ffb95f" d="M 179.5,120.5 C 179.833,120.5 180.167,120.5 180.5,120.5C 180.5,130.5 180.5,140.5 180.5,150.5C 170.5,150.5 160.5,150.5 150.5,150.5C 150.5,150.167 150.5,149.833 150.5,149.5C 160.167,149.5 169.833,149.5 179.5,149.5C 179.5,139.833 179.5,130.167 179.5,120.5 Z"/></g>
<g><path style="opacity:1" fill="#ffb75c" d="M 89.5,120.5 C 89.8333,120.5 90.1667,120.5 90.5,120.5C 100.167,120.5 109.833,120.5 119.5,120.5C 119.5,130.167 119.5,139.833 119.5,149.5C 119.5,149.833 119.5,150.167 119.5,150.5C 109.5,150.5 99.5,150.5 89.5,150.5C 89.5,140.5 89.5,130.5 89.5,120.5 Z"/></g>
<g><path style="opacity:1" fill="#fed297" d="M 420.5,120.5 C 420.5,130.167 420.5,139.833 420.5,149.5C 410.833,149.5 401.167,149.5 391.5,149.5C 391.5,139.833 391.5,130.167 391.5,120.5C 401.167,120.5 410.833,120.5 420.5,120.5 Z"/></g>
<g><path style="opacity:1" fill="#000000" d="M 390.5,120.5 C 390.5,130.167 390.5,139.833 390.5,149.5C 380.833,149.5 371.167,149.5 361.5,149.5C 361.5,139.833 361.5,130.167 361.5,120.5C 371.167,120.5 380.833,120.5 390.5,120.5 Z"/></g>
<g><path style="opacity:1" fill="#fed297" d="M 331.5,120.5 C 341.167,120.5 350.833,120.5 360.5,120.5C 360.5,130.167 360.5,139.833 360.5,149.5C 350.833,149.5 341.167,149.5 331.5,149.5C 331.5,139.833 331.5,130.167 331.5,120.5 Z"/></g>
<g><path style="opacity:1" fill="#fed095" d="M 270.5,120.5 C 280.5,120.5 290.5,120.5 300.5,120.5C 300.5,130.5 300.5,140.5 300.5,150.5C 290.5,150.5 280.5,150.5 270.5,150.5C 270.5,140.5 270.5,130.5 270.5,120.5 Z"/></g>
<g><path style="opacity:1" fill="#060200" d="M 240.5,120.5 C 250.5,120.5 260.5,120.5 270.5,120.5C 270.5,130.5 270.5,140.5 270.5,150.5C 260.5,150.5 250.5,150.5 240.5,150.5C 240.5,140.5 240.5,130.5 240.5,120.5 Z"/></g>
<g><path style="opacity:1" fill="#fed095" d="M 210.5,120.5 C 220.5,120.5 230.5,120.5 240.5,120.5C 240.5,130.5 240.5,140.5 240.5,150.5C 230.5,150.5 220.5,150.5 210.5,150.5C 210.5,140.5 210.5,130.5 210.5,120.5 Z"/></g>
<g><path style="opacity:1" fill="#fed297" d="M 179.5,120.5 C 179.5,130.167 179.5,139.833 179.5,149.5C 169.833,149.5 160.167,149.5 150.5,149.5C 150.5,139.833 150.5,130.167 150.5,120.5C 160.167,120.5 169.833,120.5 179.5,120.5 Z"/></g>
<g><path style="opacity:1" fill="#000000" d="M 120.5,120.5 C 130.167,120.5 139.833,120.5 149.5,120.5C 149.5,130.167 149.5,139.833 149.5,149.5C 149.5,139.833 149.5,130.167 149.5,120.5C 139.833,120.5 130.167,120.5 120.5,120.5 Z"/></g>
<g><path style="opacity:1" fill="#fed297" d="M 90.5,120.5 C 100.167,120.5 109.833,120.5 119.5,120.5C 119.5,130.167 119.5,139.833 119.5,149.5C 109.833,149.5 100.167,149.5 90.5,149.5C 90.5,139.833 90.5,130.167 90.5,120.5 Z"/></g>
<g><path style="opacity:1" fill="#8e4814" d="M 29.5,180.5 C 180.167,180.5 330.833,180.5 481.5,180.5C 481.5,190.5 481.5,200.5 481.5,210.5C 330.833,210.5 180.167,210.5 29.5,210.5C 29.5,200.5 29.5,190.5 29.5,180.5 Z"/></g>
<g><path style="opacity:1" fill="#d0d8e0" d="M 29.5,210.5 C 180.167,210.5 330.833,210.5 481.5,210.5C 481.5,270.833 481.5,331.167 481.5,391.5C 471.5,391.5 461.5,391.5 451.5,391.5C 450.506,400.986 450.173,410.652 450.5,420.5C 320.5,420.5 190.5,420.5 60.5,420.5C 60.8271,410.652 60.4938,400.986 59.5,391.5C 49.5,391.5 39.5,391.5 29.5,391.5C 29.5,331.167 29.5,270.833 29.5,210.5 Z"/></g>
<g><path style="opacity:1" fill="#4a5a5a" d="M 89.5,240.5 C 99.5,240.5 109.5,240.5 119.5,240.5C 119.5,250.5 119.5,260.5 119.5,270.5C 109.5,270.5 99.5,270.5 89.5,270.5C 89.5,260.5 89.5,250.5 89.5,240.5 Z"/></g>
<g><path style="opacity:1" fill="#4a5a5a" d="M 150.5,240.5 C 160.5,240.5 170.5,240.5 180.5,240.5C 180.5,250.5 180.5,260.5 180.5,270.5C 170.5,270.5 160.5,270.5 150.5,270.5C 150.5,260.5 150.5,250.5 150.5,240.5 Z"/></g>
<g><path style="opacity:1" fill="#495959" d="M 210.5,240.5 C 220.5,240.5 230.5,240.5 240.5,240.5C 240.5,250.5 240.5,260.5 240.5,270.5C 230.5,270.5 220.5,270.5 210.5,270.5C 210.5,260.5 210.5,250.5 210.5,240.5 Z"/></g>
<g><path style="opacity:1" fill="#165482" d="M 360.5,240.5 C 360.5,250.5 360.5,260.5 360.5,270.5C 350.5,270.5 340.5,270.5 330.5,270.5C 330.5,260.5 330.5,250.5 330.5,240.5C 340.5,240.5 350.5,240.5 360.5,240.5 Z"/></g>
<g><path style="opacity:1" fill="#155382" d="M 330.5,270.5 C 330.5,280.5 330.5,290.5 330.5,300.5C 320.5,300.5 310.5,300.5 300.5,300.5C 300.5,290.5 300.5,280.5 300.5,270.5C 310.5,270.5 320.5,270.5 330.5,270.5 Z"/></g>
<g><path style="opacity:1" fill="#b0d5f1" d="M 330.5,270.5 C 340.5,270.5 350.5,270.5 360.5,270.5C 360.5,280.5 360.5,290.5 360.5,300.5C 350.5,300.5 340.5,300.5 330.5,300.5C 330.5,290.5 330.5,280.5 330.5,270.5 Z"/></g>
<g><path style="opacity:1" fill="#145382" d="M 361.5,270.5 C 371.167,270.5 380.833,270.5 390.5,270.5C 390.5,280.5 390.5,290.5 390.5,300.5C 380.833,300.5 371.167,300.5 361.5,300.5C 361.5,290.5 361.5,280.5 361.5,270.5 Z"/></g>
<g><path style="opacity:1" fill="#4b5b5b" d="M 89.5,300.5 C 99.5,300.5 109.5,300.5 119.5,300.5C 119.5,310.5 119.5,320.5 119.5,330.5C 109.5,330.5 99.5,330.5 89.5,330.5C 89.5,320.5 89.5,310.5 89.5,300.5 Z"/></g>
<g><path style="opacity:1" fill="#768486" d="M 179.5,330.5 C 179.5,320.833 179.5,311.167 179.5,301.5C 169.833,301.5 160.167,301.5 150.5,301.5C 150.5,311.167 150.5,320.833 150.5,330.5C 149.506,320.681 149.173,310.681 149.5,300.5C 159.833,300.5 170.167,300.5 180.5,300.5C 180.827,310.681 180.494,320.681 179.5,330.5 Z"/></g>
<g><path style="opacity:1" fill="#485958" d="M 179.5,330.5 C 169.833,330.5 160.167,330.5 150.5,330.5C 150.5,320.833 150.5,311.167 150.5,301.5C 160.167,301.5 169.833,301.5 179.5,301.5C 179.5,311.167 179.5,320.833 179.5,330.5 Z"/></g>
<g><path style="opacity:1" fill="#495959" d="M 210.5,300.5 C 220.5,300.5 230.5,300.5 240.5,300.5C 240.5,310.5 240.5,320.5 240.5,330.5C 230.5,330.5 220.5,330.5 210.5,330.5C 210.5,320.5 210.5,310.5 210.5,300.5 Z"/></g>
<g><path style="opacity:1" fill="#155382" d="M 300.5,300.5 C 300.5,310.5 300.5,320.5 300.5,330.5C 290.5,330.5 280.5,330.5 270.5,330.5C 270.5,320.5 270.5,310.5 270.5,300.5C 280.5,300.5 290.5,300.5 300.5,300.5 Z"/></g>
<g><path style="opacity:1" fill="#b0d5f1" d="M 300.5,300.5 C 310.5,300.5 320.5,300.5 330.5,300.5C 330.5,310.5 330.5,320.5 330.5,330.5C 320.5,330.5 310.5,330.5 300.5,330.5C 300.5,320.5 300.5,310.5 300.5,300.5 Z"/></g>
<g><path style="opacity:1" fill="#66a5d8" d="M 360.5,240.5 C 361.494,250.319 361.827,260.319 361.5,270.5C 361.5,280.5 361.5,290.5 361.5,300.5C 361.5,310.5 361.5,320.5 361.5,330.5C 361.167,330.5 360.833,330.5 360.5,330.5C 360.5,320.833 360.5,311.167 360.5,301.5C 350.833,301.5 341.167,301.5 331.5,301.5C 331.5,311.167 331.5,320.833 331.5,330.5C 331.167,330.5 330.833,330.5 330.5,330.5C 330.5,320.5 330.5,310.5 330.5,300.5C 340.5,300.5 350.5,300.5 360.5,300.5C 360.5,290.5 360.5,280.5 360.5,270.5C 360.5,260.5 360.5,250.5 360.5,240.5 Z"/></g>
<g><path style="opacity:1" fill="#3d99e1" d="M 360.5,330.5 C 350.833,330.5 341.167,330.5 331.5,330.5C 331.5,320.833 331.5,311.167 331.5,301.5C 341.167,301.5 350.833,301.5 360.5,301.5C 360.5,311.167 360.5,320.833 360.5,330.5 Z"/></g>
<g><path style="opacity:1" fill="#b1d6f2" d="M 361.5,300.5 C 371.167,300.5 380.833,300.5 390.5,300.5C 390.5,310.5 390.5,320.5 390.5,330.5C 380.833,330.5 371.167,330.5 361.5,330.5C 361.5,320.5 361.5,310.5 361.5,300.5 Z"/></g>
<g><path style="opacity:1" fill="#396f98" d="M 300.5,330.5 C 310.5,330.5 320.5,330.5 330.5,330.5C 330.5,330.833 330.5,331.167 330.5,331.5C 320.833,331.5 311.167,331.5 301.5,331.5C 301.5,341.167 301.5,350.833 301.5,360.5C 301.167,360.5 300.833,360.5 300.5,360.5C 300.5,350.5 300.5,340.5 300.5,330.5 Z"/></g>
<g><path style="opacity:1" fill="#145382" d="M 330.5,331.5 C 330.5,341.167 330.5,350.833 330.5,360.5C 320.833,360.5 311.167,360.5 301.5,360.5C 301.5,350.833 301.5,341.167 301.5,331.5C 311.167,331.5 320.833,331.5 330.5,331.5 Z"/></g>
<g><path style="opacity:1" fill="#88b7db" d="M 330.5,330.5 C 330.833,330.5 331.167,330.5 331.5,330.5C 341.167,330.5 350.833,330.5 360.5,330.5C 360.5,330.833 360.5,331.167 360.5,331.5C 350.833,331.5 341.167,331.5 331.5,331.5C 331.5,341.167 331.5,350.833 331.5,360.5C 331.167,360.5 330.833,360.5 330.5,360.5C 330.5,350.833 330.5,341.167 330.5,331.5C 330.5,331.167 330.5,330.833 330.5,330.5 Z"/></g>
<g><path style="opacity:1" fill="#b1d7f2" d="M 360.5,331.5 C 360.5,341.167 360.5,350.833 360.5,360.5C 350.833,360.5 341.167,360.5 331.5,360.5C 331.5,350.833 331.5,341.167 331.5,331.5C 341.167,331.5 350.833,331.5 360.5,331.5 Z"/></g>
<g><path style="opacity:1" fill="#6690b0" d="M 390.5,270.5 C 391.494,280.319 391.827,290.319 391.5,300.5C 391.5,310.5 391.5,320.5 391.5,330.5C 401.167,330.5 410.833,330.5 420.5,330.5C 420.5,320.5 420.5,310.5 420.5,300.5C 421.494,310.653 421.828,320.986 421.5,331.5C 411.5,331.5 401.5,331.5 391.5,331.5C 391.5,341.5 391.5,351.5 391.5,361.5C 381.5,361.5 371.5,361.5 361.5,361.5C 361.5,371.5 361.5,381.5 361.5,391.5C 351.167,391.5 340.833,391.5 330.5,391.5C 330.5,381.5 330.5,371.5 330.5,361.5C 320.319,361.827 310.319,361.494 300.5,360.5C 300.833,360.5 301.167,360.5 301.5,360.5C 311.167,360.5 320.833,360.5 330.5,360.5C 330.833,360.5 331.167,360.5 331.5,360.5C 341.167,360.5 350.833,360.5 360.5,360.5C 360.5,350.833 360.5,341.167 360.5,331.5C 360.5,331.167 360.5,330.833 360.5,330.5C 360.833,330.5 361.167,330.5 361.5,330.5C 371.167,330.5 380.833,330.5 390.5,330.5C 390.5,320.5 390.5,310.5 390.5,300.5C 390.5,290.5 390.5,280.5 390.5,270.5 Z"/></g>
<g><path style="opacity:1" fill="#145382" d="M 361.5,331.5 C 371.167,331.5 380.833,331.5 390.5,331.5C 390.5,341.167 390.5,350.833 390.5,360.5C 380.833,360.5 371.167,360.5 361.5,360.5C 361.5,350.833 361.5,341.167 361.5,331.5 Z"/></g>
<g><path style="opacity:1" fill="#155382" d="M 391.5,300.5 C 401.167,300.5 410.833,300.5 420.5,300.5C 420.5,310.5 420.5,320.5 420.5,330.5C 410.833,330.5 401.167,330.5 391.5,330.5C 391.5,320.5 391.5,310.5 391.5,300.5 Z"/></g>
<g><path style="opacity:1" fill="#4c5c5c" d="M 210.5,360.5 C 220.5,360.5 230.5,360.5 240.5,360.5C 240.5,370.833 240.5,381.167 240.5,391.5C 230.5,391.5 220.5,391.5 210.5,391.5C 210.5,381.167 210.5,370.833 210.5,360.5 Z"/></g>
<g><path style="opacity:1" fill="#145382" d="M 331.5,361.5 C 341.167,361.5 350.833,361.5 360.5,361.5C 360.5,371.167 360.5,380.833 360.5,390.5C 350.833,390.5 341.167,390.5 331.5,390.5C 331.5,380.833 331.5,371.167 331.5,361.5 Z"/></g>
<g><path style="opacity:1" fill="#879296" d="M 89.5,360.5 C 99.8333,360.5 110.167,360.5 120.5,360.5C 120.5,370.833 120.5,381.167 120.5,391.5C 110.167,391.5 99.8333,391.5 89.5,391.5C 89.5,381.167 89.5,370.833 89.5,360.5 Z"/></g>
<g><path style="opacity:1" fill="#485958" d="M 90.5,361.5 C 100.167,361.5 109.833,361.5 119.5,361.5C 119.5,371.167 119.5,380.833 119.5,390.5C 109.833,390.5 100.167,390.5 90.5,390.5C 90.5,380.833 90.5,371.167 90.5,361.5 Z"/></g>
<g><path style="opacity:1" fill="#869296" d="M 149.5,360.5 C 159.833,360.5 170.167,360.5 180.5,360.5C 180.5,370.833 180.5,381.167 180.5,391.5C 170.167,391.5 159.833,391.5 149.5,391.5C 149.5,381.167 149.5,370.833 149.5,360.5 Z"/></g>
<g><path style="opacity:1" fill="#485958" d="M 150.5,361.5 C 160.167,361.5 169.833,361.5 179.5,361.5C 179.5,371.167 179.5,380.833 179.5,390.5C 169.833,390.5 160.167,390.5 150.5,390.5C 150.5,380.833 150.5,371.167 150.5,361.5 Z"/></g>
<g><path style="opacity:1" fill="#8d9398" d="M 59.5,391.5 C 60.4938,400.986 60.8271,410.652 60.5,420.5C 190.5,420.5 320.5,420.5 450.5,420.5C 450.173,410.652 450.506,400.986 451.5,391.5C 451.5,401.5 451.5,411.5 451.5,421.5C 451.167,421.5 450.833,421.5 450.5,421.5C 320.5,421.5 190.5,421.5 60.5,421.5C 60.1667,421.5 59.8333,421.5 59.5,421.5C 59.5,411.5 59.5,401.5 59.5,391.5 Z"/></g>
<g><path style="opacity:1" fill="#9fa8b4" d="M 59.5,421.5 C 59.5,431.5 59.5,441.5 59.5,451.5C 49.5,451.5 39.5,451.5 29.5,451.5C 29.5,441.5 29.5,431.5 29.5,421.5C 39.5,421.5 49.5,421.5 59.5,421.5 Z"/></g>
<g><path style="opacity:1" fill="#9fa8b4" d="M 451.5,421.5 C 461.5,421.5 471.5,421.5 481.5,421.5C 481.5,431.5 481.5,441.5 481.5,451.5C 471.5,451.5 461.5,451.5 451.5,451.5C 451.5,441.5 451.5,431.5 451.5,421.5 Z"/></g>
<g><path style="opacity:1" fill="#27292c" d="M 59.5,421.5 C 59.8333,421.5 60.1667,421.5 60.5,421.5C 60.5,431.167 60.5,440.833 60.5,450.5C 190.5,450.5 320.5,450.5 450.5,450.5C 450.5,440.833 450.5,431.167 450.5,421.5C 450.833,421.5 451.167,421.5 451.5,421.5C 451.5,431.5 451.5,441.5 451.5,451.5C 451.167,451.5 450.833,451.5 450.5,451.5C 320.5,451.5 190.5,451.5 60.5,451.5C 60.1667,451.5 59.8333,451.5 59.5,451.5C 59.5,441.5 59.5,431.5 59.5,421.5 Z"/></g>
<g><path style="opacity:1" fill="#000000" d="M 60.5,421.5 C 190.5,421.5 320.5,421.5 450.5,421.5C 450.5,431.167 450.5,440.833 450.5,450.5C 320.5,450.5 190.5,450.5 60.5,450.5C 60.5,440.833 60.5,431.167 60.5,421.5 Z"/></g>
<g><path style="opacity:0.992" fill="#000000" d="M 29.5,451.5 C 39.5,451.5 49.5,451.5 59.5,451.5C 59.5,461.5 59.5,471.5 59.5,481.5C 49.5,481.5 39.5,481.5 29.5,481.5C 29.5,471.5 29.5,461.5 29.5,451.5 Z"/></g>
<g><path style="opacity:0.992" fill="#000000" d="M 451.5,451.5 C 461.5,451.5 471.5,451.5 481.5,451.5C 481.5,461.5 481.5,471.5 481.5,481.5C 471.5,481.5 461.5,481.5 451.5,481.5C 451.5,471.5 451.5,461.5 451.5,451.5 Z"/></g>
<g><path style="opacity:1" fill="#8b939e" d="M 59.5,451.5 C 59.8333,451.5 60.1667,451.5 60.5,451.5C 60.5,461.167 60.5,470.833 60.5,480.5C 190.5,480.5 320.5,480.5 450.5,480.5C 450.5,470.833 450.5,461.167 450.5,451.5C 450.833,451.5 451.167,451.5 451.5,451.5C 451.5,461.5 451.5,471.5 451.5,481.5C 320.833,481.5 190.167,481.5 59.5,481.5C 59.5,471.5 59.5,461.5 59.5,451.5 Z"/></g>
<g><path style="opacity:1" fill="#a0aab6" d="M 60.5,451.5 C 190.5,451.5 320.5,451.5 450.5,451.5C 450.5,461.167 450.5,470.833 450.5,480.5C 320.5,480.5 190.5,480.5 60.5,480.5C 60.5,470.833 60.5,461.167 60.5,451.5 Z"/></g>
<g><path style="opacity:0.999" fill="#000000" d="M 59.5,481.5 C 190.167,481.5 320.833,481.5 451.5,481.5C 451.5,491.5 451.5,501.5 451.5,511.5C 320.833,511.5 190.167,511.5 59.5,511.5C 59.5,501.5 59.5,491.5 59.5,481.5 Z"/></g>
</svg>
