<?xml version="1.0" encoding="UTF-8"?>
<!DOCTYPE svg PUBLIC "-//W3C//DTD SVG 1.1//EN" "http://www.w3.org/Graphics/SVG/1.1/DTD/svg11.dtd">
<svg xmlns="http://www.w3.org/2000/svg" version="1.1" width="512px" height="512px" style="shape-rendering:geometricPrecision; text-rendering:geometricPrecision; image-rendering:optimizeQuality; fill-rule:evenodd; clip-rule:evenodd" xmlns:xlink="http://www.w3.org/1999/xlink">
<g><path style="opacity:0.999" fill="#000000" d="M 29.5,-0.5 C 130.167,-0.5 230.833,-0.5 331.5,-0.5C 331.5,9.5 331.5,19.5 331.5,29.5C 331.5,39.5 331.5,49.5 331.5,59.5C 331.167,59.5 330.833,59.5 330.5,59.5C 330.5,49.5 330.5,39.5 330.5,29.5C 320.5,29.5 310.5,29.5 300.5,29.5C 290.5,29.5 280.5,29.5 270.5,29.5C 270.5,69.8333 270.5,110.167 270.5,150.5C 280.5,150.5 290.5,150.5 300.5,150.5C 300.5,160.5 300.5,170.5 300.5,180.5C 290.5,180.5 280.5,180.5 270.5,180.5C 270.5,230.5 270.5,280.5 270.5,330.5C 280.5,330.5 290.5,330.5 300.5,330.5C 300.5,340.5 300.5,350.5 300.5,360.5C 290.5,360.5 280.5,360.5 270.5,360.5C 270.5,400.833 270.5,441.167 270.5,481.5C 290.5,481.5 310.5,481.5 330.5,481.5C 330.5,471.5 330.5,461.5 330.5,451.5C 330.833,451.5 331.167,451.5 331.5,451.5C 331.5,461.5 331.5,471.5 331.5,481.5C 331.5,491.5 331.5,501.5 331.5,511.5C 230.833,511.5 130.167,511.5 29.5,511.5C 29.5,501.5 29.5,491.5 29.5,481.5C 99.8333,481.5 170.167,481.5 240.5,481.5C 240.5,471.5 240.5,461.5 240.5,451.5C 240.5,311.167 240.5,170.833 240.5,30.5C 170.335,29.5008 100.002,29.1675 29.5,29.5C 29.5,19.5 29.5,9.5 29.5,-0.5 Z"/></g>
<g><path style="opacity:0.999" fill="#000000" d="M -0.5,29.5 C 9.5,29.5 19.5,29.5 29.5,29.5C 29.5,170.167 29.5,310.833 29.5,451.5C 29.5,461.5 29.5,471.5 29.5,481.5C 19.5,481.5 9.5,481.5 -0.5,481.5C -0.5,330.833 -0.5,180.167 -0.5,29.5 Z"/></g>
<g><path style="opacity:0.988" fill="#000000" d="M 331.5,29.5 C 351.5,29.5 371.5,29.5 391.5,29.5C 391.5,39.5 391.5,49.5 391.5,59.5C 371.5,59.5 351.5,59.5 331.5,59.5C 331.5,49.5 331.5,39.5 331.5,29.5 Z"/></g>
<g><path style="opacity:1" fill="#dfcbb1" d="M 29.5,29.5 C 100.002,29.1675 170.335,29.5008 240.5,30.5C 170.5,30.5 100.5,30.5 30.5,30.5C 30.5,170.833 30.5,311.167 30.5,451.5C 30.1667,451.5 29.8333,451.5 29.5,451.5C 29.5,310.833 29.5,170.167 29.5,29.5 Z"/></g>
<g><path style="opacity:1" fill="#fee7ca" d="M 240.5,30.5 C 240.5,170.833 240.5,311.167 240.5,451.5C 240.167,451.5 239.833,451.5 239.5,451.5C 169.833,451.5 100.167,451.5 30.5,451.5C 30.5,311.167 30.5,170.833 30.5,30.5C 100.5,30.5 170.5,30.5 240.5,30.5 Z"/></g>
<g><path style="opacity:1" fill="#85bdea" d="M 300.5,29.5 C 300.5,69.8333 300.5,110.167 300.5,150.5C 290.5,150.5 280.5,150.5 270.5,150.5C 270.5,110.167 270.5,69.8333 270.5,29.5C 280.5,29.5 290.5,29.5 300.5,29.5 Z"/></g>
<g><path style="opacity:1" fill="#e8f2fa" d="M 300.5,29.5 C 310.5,29.5 320.5,29.5 330.5,29.5C 330.5,39.5 330.5,49.5 330.5,59.5C 350.326,60.4971 370.326,60.8305 390.5,60.5C 390.173,70.3478 390.506,80.0144 391.5,89.5C 400.986,90.4938 410.652,90.8271 420.5,90.5C 420.173,100.348 420.506,110.014 421.5,119.5C 430.986,120.494 440.652,120.827 450.5,120.5C 450.17,140.674 450.503,160.674 451.5,180.5C 461.5,180.5 471.5,180.5 481.5,180.5C 481.5,230.5 481.5,280.5 481.5,330.5C 471.5,330.5 461.5,330.5 451.5,330.5C 450.503,350.326 450.17,370.326 450.5,390.5C 440.652,390.173 430.986,390.506 421.5,391.5C 420.506,400.986 420.173,410.652 420.5,420.5C 410.319,420.173 400.319,420.506 390.5,421.5C 370.5,421.5 350.5,421.5 330.5,421.5C 330.5,431.5 330.5,441.5 330.5,451.5C 320.5,451.5 310.5,451.5 300.5,451.5C 300.5,421.167 300.5,390.833 300.5,360.5C 301.494,351.014 301.827,341.348 301.5,331.5C 311.348,331.827 321.014,331.494 330.5,330.5C 331.494,321.014 331.827,311.348 331.5,301.5C 341.348,301.827 351.014,301.494 360.5,300.5C 360.5,270.5 360.5,240.5 360.5,210.5C 351.014,209.506 341.348,209.173 331.5,209.5C 331.827,199.652 331.494,189.986 330.5,180.5C 321.014,179.506 311.348,179.173 301.5,179.5C 301.827,169.652 301.494,159.986 300.5,150.5C 300.5,110.167 300.5,69.8333 300.5,29.5 Z"/></g>
<g><path style="opacity:1" fill="#9ea5aa" d="M 330.5,59.5 C 330.833,59.5 331.167,59.5 331.5,59.5C 351.5,59.5 371.5,59.5 391.5,59.5C 391.5,69.5 391.5,79.5 391.5,89.5C 390.506,80.0144 390.173,70.3478 390.5,60.5C 370.326,60.8305 350.326,60.4971 330.5,59.5 Z"/></g>
<g><path style="opacity:0.981" fill="#000000" d="M 391.5,59.5 C 401.5,59.5 411.5,59.5 421.5,59.5C 421.5,69.5 421.5,79.5 421.5,89.5C 411.5,89.5 401.5,89.5 391.5,89.5C 391.5,79.5 391.5,69.5 391.5,59.5 Z"/></g>
<g><path style="opacity:1" fill="#bc666c" d="M 180.5,180.5 C 180.5,180.167 180.5,179.833 180.5,179.5C 190.167,179.5 199.833,179.5 209.5,179.5C 209.5,159.833 209.5,140.167 209.5,120.5C 199.833,120.5 190.167,120.5 180.5,120.5C 180.5,130.5 180.5,140.5 180.5,150.5C 180.167,150.5 179.833,150.5 179.5,150.5C 179.5,140.5 179.5,130.5 179.5,120.5C 169.833,120.5 160.167,120.5 150.5,120.5C 150.5,130.5 150.5,140.5 150.5,150.5C 150.167,150.5 149.833,150.5 149.5,150.5C 149.5,140.167 149.5,129.833 149.5,119.5C 159.5,119.5 169.5,119.5 179.5,119.5C 179.5,109.833 179.5,100.167 179.5,90.5C 149.833,90.5 120.167,90.5 90.5,90.5C 90.5,100.167 90.5,109.833 90.5,119.5C 100.5,119.5 110.5,119.5 120.5,119.5C 120.5,129.833 120.5,140.167 120.5,150.5C 120.167,150.5 119.833,150.5 119.5,150.5C 119.5,140.5 119.5,130.5 119.5,120.5C 109.833,120.5 100.167,120.5 90.5,120.5C 90.5,130.5 90.5,140.5 90.5,150.5C 90.1667,150.5 89.8333,150.5 89.5,150.5C 89.5,140.5 89.5,130.5 89.5,120.5C 79.8333,120.5 70.1667,120.5 60.5,120.5C 60.5,140.167 60.5,159.833 60.5,179.5C 70.1667,179.5 79.8333,179.5 89.5,179.5C 89.5,179.833 89.5,180.167 89.5,180.5C 79.5,180.5 69.5,180.5 59.5,180.5C 59.5,160.167 59.5,139.833 59.5,119.5C 69.5,119.5 79.5,119.5 89.5,119.5C 89.5,109.5 89.5,99.5 89.5,89.5C 119.833,89.5 150.167,89.5 180.5,89.5C 180.5,99.5 180.5,109.5 180.5,119.5C 190.5,119.5 200.5,119.5 210.5,119.5C 210.5,139.833 210.5,160.167 210.5,180.5C 200.5,180.5 190.5,180.5 180.5,180.5 Z"/></g>
<g><path style="opacity:0.981" fill="#000000" d="M 421.5,89.5 C 431.5,89.5 441.5,89.5 451.5,89.5C 451.5,99.5 451.5,109.5 451.5,119.5C 441.5,119.5 431.5,119.5 421.5,119.5C 421.5,109.5 421.5,99.5 421.5,89.5 Z"/></g>
<g><path style="opacity:1" fill="#952a3a" d="M 149.5,150.5 C 139.833,150.5 130.167,150.5 120.5,150.5C 120.5,140.167 120.5,129.833 120.5,119.5C 110.5,119.5 100.5,119.5 90.5,119.5C 90.5,109.833 90.5,100.167 90.5,90.5C 120.167,90.5 149.833,90.5 179.5,90.5C 179.5,100.167 179.5,109.833 179.5,119.5C 169.5,119.5 159.5,119.5 149.5,119.5C 149.5,129.833 149.5,140.167 149.5,150.5 Z"/></g>
<g><path style="opacity:1" fill="#979da2" d="M 391.5,89.5 C 401.5,89.5 411.5,89.5 421.5,89.5C 421.5,99.5 421.5,109.5 421.5,119.5C 420.506,110.014 420.173,100.348 420.5,90.5C 410.652,90.8271 400.986,90.4938 391.5,89.5 Z"/></g>
<g><path style="opacity:0.988" fill="#010101" d="M 451.5,119.5 C 461.5,119.5 471.5,119.5 481.5,119.5C 481.5,139.5 481.5,159.5 481.5,179.5C 481.5,179.833 481.5,180.167 481.5,180.5C 471.5,180.5 461.5,180.5 451.5,180.5C 451.5,160.167 451.5,139.833 451.5,119.5 Z"/></g>
<g><path style="opacity:1" fill="#942a39" d="M 89.5,150.5 C 89.5,160.167 89.5,169.833 89.5,179.5C 79.8333,179.5 70.1667,179.5 60.5,179.5C 60.5,159.833 60.5,140.167 60.5,120.5C 70.1667,120.5 79.8333,120.5 89.5,120.5C 89.5,130.5 89.5,140.5 89.5,150.5 Z"/></g>
<g><path style="opacity:1" fill="#ffa5b1" d="M 119.5,150.5 C 109.833,150.5 100.167,150.5 90.5,150.5C 90.5,140.5 90.5,130.5 90.5,120.5C 100.167,120.5 109.833,120.5 119.5,120.5C 119.5,130.5 119.5,140.5 119.5,150.5 Z"/></g>
<g><path style="opacity:1" fill="#ffa5b1" d="M 179.5,150.5 C 169.833,150.5 160.167,150.5 150.5,150.5C 150.5,140.5 150.5,130.5 150.5,120.5C 160.167,120.5 169.833,120.5 179.5,120.5C 179.5,130.5 179.5,140.5 179.5,150.5 Z"/></g>
<g><path style="opacity:1" fill="#942a39" d="M 180.5,179.5 C 180.5,169.833 180.5,160.167 180.5,150.5C 180.5,140.5 180.5,130.5 180.5,120.5C 190.167,120.5 199.833,120.5 209.5,120.5C 209.5,140.167 209.5,159.833 209.5,179.5C 199.833,179.5 190.167,179.5 180.5,179.5 Z"/></g>
<g><path style="opacity:1" fill="#a3aab0" d="M 421.5,119.5 C 431.5,119.5 441.5,119.5 451.5,119.5C 451.5,139.833 451.5,160.167 451.5,180.5C 450.503,160.674 450.17,140.674 450.5,120.5C 440.652,120.827 430.986,120.494 421.5,119.5 Z"/></g>
<g><path style="opacity:1" fill="#fd6277" d="M 89.5,150.5 C 89.8333,150.5 90.1667,150.5 90.5,150.5C 100.167,150.5 109.833,150.5 119.5,150.5C 119.833,150.5 120.167,150.5 120.5,150.5C 130.167,150.5 139.833,150.5 149.5,150.5C 149.833,150.5 150.167,150.5 150.5,150.5C 160.167,150.5 169.833,150.5 179.5,150.5C 179.833,150.5 180.167,150.5 180.5,150.5C 180.5,160.167 180.5,169.833 180.5,179.5C 180.5,179.833 180.5,180.167 180.5,180.5C 170.5,180.5 160.5,180.5 150.5,180.5C 150.5,190.5 150.5,200.5 150.5,210.5C 140.167,210.5 129.833,210.5 119.5,210.5C 119.5,210.167 119.5,209.833 119.5,209.5C 119.5,199.833 119.5,190.167 119.5,180.5C 109.833,180.5 100.167,180.5 90.5,180.5C 90.1667,180.5 89.8333,180.5 89.5,180.5C 89.5,180.167 89.5,179.833 89.5,179.5C 89.5,169.833 89.5,160.167 89.5,150.5 Z"/></g>
<g><path style="opacity:1" fill="#b0b8be" d="M 300.5,150.5 C 301.494,159.986 301.827,169.652 301.5,179.5C 311.348,179.173 321.014,179.506 330.5,180.5C 320.5,180.5 310.5,180.5 300.5,180.5C 300.5,170.5 300.5,160.5 300.5,150.5 Z"/></g>
<g><path style="opacity:0.991" fill="#000000" d="M 481.5,179.5 C 491.5,179.5 501.5,179.5 511.5,179.5C 511.5,230.167 511.5,280.833 511.5,331.5C 501.5,331.5 491.5,331.5 481.5,331.5C 471.5,331.5 461.5,331.5 451.5,331.5C 451.5,331.167 451.5,330.833 451.5,330.5C 461.5,330.5 471.5,330.5 481.5,330.5C 481.5,280.5 481.5,230.5 481.5,180.5C 481.5,180.167 481.5,179.833 481.5,179.5 Z"/></g>
<g><path style="opacity:1" fill="#942a39" d="M 90.5,180.5 C 100.167,180.5 109.833,180.5 119.5,180.5C 119.5,190.167 119.5,199.833 119.5,209.5C 109.833,209.5 100.167,209.5 90.5,209.5C 90.5,199.833 90.5,190.167 90.5,180.5 Z"/></g>
<g><path style="opacity:1" fill="#962c3b" d="M 180.5,180.5 C 180.5,190.5 180.5,200.5 180.5,210.5C 170.5,210.5 160.5,210.5 150.5,210.5C 150.5,200.5 150.5,190.5 150.5,180.5C 160.5,180.5 170.5,180.5 180.5,180.5 Z"/></g>
<g><path style="opacity:1" fill="#6c4c1c" d="M 300.5,180.5 C 300.5,190.5 300.5,200.5 300.5,210.5C 300.5,240.5 300.5,270.5 300.5,300.5C 300.5,310.5 300.5,320.5 300.5,330.5C 290.5,330.5 280.5,330.5 270.5,330.5C 270.5,280.5 270.5,230.5 270.5,180.5C 280.5,180.5 290.5,180.5 300.5,180.5 Z"/></g>
<g><path style="opacity:1" fill="#010100" d="M 300.5,180.5 C 310.5,180.5 320.5,180.5 330.5,180.5C 330.5,190.5 330.5,200.5 330.5,210.5C 320.5,210.5 310.5,210.5 300.5,210.5C 300.5,200.5 300.5,190.5 300.5,180.5 Z"/></g>
<g><path style="opacity:1" fill="#ae575c" d="M 89.5,180.5 C 89.8333,180.5 90.1667,180.5 90.5,180.5C 90.5,190.167 90.5,199.833 90.5,209.5C 100.167,209.5 109.833,209.5 119.5,209.5C 119.5,209.833 119.5,210.167 119.5,210.5C 109.5,210.5 99.5,210.5 89.5,210.5C 89.5,200.5 89.5,190.5 89.5,180.5 Z"/></g>
<g><path style="opacity:1" fill="#b2bac0" d="M 330.5,180.5 C 331.494,189.986 331.827,199.652 331.5,209.5C 341.348,209.173 351.014,209.506 360.5,210.5C 350.5,210.5 340.5,210.5 330.5,210.5C 330.5,200.5 330.5,190.5 330.5,180.5 Z"/></g>
<g><path style="opacity:1" fill="#98303d" d="M 119.5,210.5 C 129.833,210.5 140.167,210.5 150.5,210.5C 150.5,220.5 150.5,230.5 150.5,240.5C 140.167,240.5 129.833,240.5 119.5,240.5C 119.5,230.5 119.5,220.5 119.5,210.5 Z"/></g>
<g><path style="opacity:1" fill="#805c1d" d="M 300.5,210.5 C 310.5,210.5 320.5,210.5 330.5,210.5C 330.5,240.5 330.5,270.5 330.5,300.5C 320.5,300.5 310.5,300.5 300.5,300.5C 300.5,270.5 300.5,240.5 300.5,210.5 Z"/></g>
<g><path style="opacity:1" fill="#010100" d="M 330.5,210.5 C 340.5,210.5 350.5,210.5 360.5,210.5C 360.5,240.5 360.5,270.5 360.5,300.5C 350.5,300.5 340.5,300.5 330.5,300.5C 330.5,270.5 330.5,240.5 330.5,210.5 Z"/></g>
<g><path style="opacity:1" fill="#010100" d="M 300.5,300.5 C 310.5,300.5 320.5,300.5 330.5,300.5C 330.5,310.5 330.5,320.5 330.5,330.5C 320.5,330.5 310.5,330.5 300.5,330.5C 300.5,320.5 300.5,310.5 300.5,300.5 Z"/></g>
<g><path style="opacity:1" fill="#abb2b8" d="M 330.5,300.5 C 340.5,300.5 350.5,300.5 360.5,300.5C 351.014,301.494 341.348,301.827 331.5,301.5C 331.827,311.348 331.494,321.014 330.5,330.5C 330.5,320.5 330.5,310.5 330.5,300.5 Z"/></g>
<g><path style="opacity:1" fill="#94764b" d="M 120.5,331.5 C 120.5,331.167 120.5,330.833 120.5,330.5C 150.5,330.5 180.5,330.5 210.5,330.5C 210.5,340.5 210.5,350.5 210.5,360.5C 210.167,360.5 209.833,360.5 209.5,360.5C 209.5,350.833 209.5,341.167 209.5,331.5C 179.833,331.5 150.167,331.5 120.5,331.5 Z"/></g>
<g><path style="opacity:1" fill="#9e8057" d="M 89.5,331.5 C 79.8333,331.5 70.1667,331.5 60.5,331.5C 60.5,341.167 60.5,350.833 60.5,360.5C 70.1667,360.5 79.8333,360.5 89.5,360.5C 79.6806,361.494 69.6806,361.827 59.5,361.5C 59.5,351.167 59.5,340.833 59.5,330.5C 69.6806,330.173 79.6806,330.506 89.5,331.5 Z"/></g>
<g><path style="opacity:1" fill="#6c4d1c" d="M 89.5,331.5 C 89.5,341.167 89.5,350.833 89.5,360.5C 79.8333,360.5 70.1667,360.5 60.5,360.5C 60.5,350.833 60.5,341.167 60.5,331.5C 70.1667,331.5 79.8333,331.5 89.5,331.5 Z"/></g>
<g><path style="opacity:1" fill="#6c4d1c" d="M 120.5,331.5 C 150.167,331.5 179.833,331.5 209.5,331.5C 209.5,341.167 209.5,350.833 209.5,360.5C 179.833,360.5 150.167,360.5 120.5,360.5C 120.5,350.833 120.5,341.167 120.5,331.5 Z"/></g>
<g><path style="opacity:1" fill="#b7bfc6" d="M 300.5,330.5 C 310.5,330.5 320.5,330.5 330.5,330.5C 321.014,331.494 311.348,331.827 301.5,331.5C 301.827,341.348 301.494,351.014 300.5,360.5C 300.5,350.5 300.5,340.5 300.5,330.5 Z"/></g>
<g><path style="opacity:1" fill="#a3aab0" d="M 451.5,330.5 C 451.5,330.833 451.5,331.167 451.5,331.5C 451.5,351.5 451.5,371.5 451.5,391.5C 441.5,391.5 431.5,391.5 421.5,391.5C 430.986,390.506 440.652,390.173 450.5,390.5C 450.17,370.326 450.503,350.326 451.5,330.5 Z"/></g>
<g><path style="opacity:0.988" fill="#000000" d="M 451.5,331.5 C 461.5,331.5 471.5,331.5 481.5,331.5C 481.5,351.5 481.5,371.5 481.5,391.5C 471.5,391.5 461.5,391.5 451.5,391.5C 451.5,371.5 451.5,351.5 451.5,331.5 Z"/></g>
<g><path style="opacity:1" fill="#bfa47f" d="M 120.5,330.5 C 120.5,330.833 120.5,331.167 120.5,331.5C 120.5,341.167 120.5,350.833 120.5,360.5C 150.167,360.5 179.833,360.5 209.5,360.5C 209.833,360.5 210.167,360.5 210.5,360.5C 180.338,361.498 150.005,361.831 119.5,361.5C 119.172,350.986 119.506,340.653 120.5,330.5 Z"/></g>
<g><path style="opacity:1" fill="#85bdea" d="M 300.5,360.5 C 300.5,390.833 300.5,421.167 300.5,451.5C 310.5,451.5 320.5,451.5 330.5,451.5C 330.5,461.5 330.5,471.5 330.5,481.5C 310.5,481.5 290.5,481.5 270.5,481.5C 270.5,441.167 270.5,400.833 270.5,360.5C 280.5,360.5 290.5,360.5 300.5,360.5 Z"/></g>
<g><path style="opacity:1" fill="#6c4d1c" d="M 180.5,391.5 C 190.167,391.5 199.833,391.5 209.5,391.5C 209.5,401.167 209.5,410.833 209.5,420.5C 199.833,420.5 190.167,420.5 180.5,420.5C 180.5,410.833 180.5,401.167 180.5,391.5 Z"/></g>
<g><path style="opacity:0.981" fill="#000000" d="M 421.5,391.5 C 431.5,391.5 441.5,391.5 451.5,391.5C 451.5,401.5 451.5,411.5 451.5,421.5C 441.5,421.5 431.5,421.5 421.5,421.5C 421.5,411.5 421.5,401.5 421.5,391.5 Z"/></g>
<g><path style="opacity:1" fill="#a68a61" d="M 59.5,390.5 C 89.8333,390.5 120.167,390.5 150.5,390.5C 150.5,400.833 150.5,411.167 150.5,421.5C 120.167,421.5 89.8333,421.5 59.5,421.5C 59.5,411.167 59.5,400.833 59.5,390.5 Z"/></g>
<g><path style="opacity:1" fill="#6c4d1c" d="M 60.5,391.5 C 90.1667,391.5 119.833,391.5 149.5,391.5C 149.5,401.167 149.5,410.833 149.5,420.5C 119.833,420.5 90.1667,420.5 60.5,420.5C 60.5,410.833 60.5,401.167 60.5,391.5 Z"/></g>
<g><path style="opacity:1" fill="#a0835a" d="M 180.5,391.5 C 190.319,390.506 200.319,390.173 210.5,390.5C 210.5,400.833 210.5,411.167 210.5,421.5C 200.319,421.827 190.319,421.494 180.5,420.5C 190.167,420.5 199.833,420.5 209.5,420.5C 209.5,410.833 209.5,401.167 209.5,391.5C 199.833,391.5 190.167,391.5 180.5,391.5 Z"/></g>
<g><path style="opacity:1" fill="#99a0a5" d="M 421.5,391.5 C 421.5,401.5 421.5,411.5 421.5,421.5C 411.5,421.5 401.5,421.5 391.5,421.5C 391.167,421.5 390.833,421.5 390.5,421.5C 400.319,420.506 410.319,420.173 420.5,420.5C 420.173,410.652 420.506,400.986 421.5,391.5 Z"/></g>
<g><path style="opacity:1" fill="#86bfec" d="M 390.5,421.5 C 390.5,431.167 390.5,440.833 390.5,450.5C 370.66,450.17 350.993,450.503 331.5,451.5C 331.167,451.5 330.833,451.5 330.5,451.5C 330.5,441.5 330.5,431.5 330.5,421.5C 350.5,421.5 370.5,421.5 390.5,421.5 Z"/></g>
<g><path style="opacity:0.981" fill="#000000" d="M 391.5,421.5 C 401.5,421.5 411.5,421.5 421.5,421.5C 421.5,431.5 421.5,441.5 421.5,451.5C 411.5,451.5 401.5,451.5 391.5,451.5C 391.5,441.5 391.5,431.5 391.5,421.5 Z"/></g>
<g><path style="opacity:1" fill="#5d86a5" d="M 390.5,421.5 C 390.833,421.5 391.167,421.5 391.5,421.5C 391.5,431.5 391.5,441.5 391.5,451.5C 371.5,451.5 351.5,451.5 331.5,451.5C 350.993,450.503 370.66,450.17 390.5,450.5C 390.5,440.833 390.5,431.167 390.5,421.5 Z"/></g>
<g><path style="opacity:0.988" fill="#000000" d="M 331.5,451.5 C 351.5,451.5 371.5,451.5 391.5,451.5C 391.5,461.5 391.5,471.5 391.5,481.5C 371.5,481.5 351.5,481.5 331.5,481.5C 331.5,471.5 331.5,461.5 331.5,451.5 Z"/></g>
<g><path style="opacity:1" fill="#d1ad65" d="M 29.5,451.5 C 29.8333,451.5 30.1667,451.5 30.5,451.5C 30.5,461.167 30.5,470.833 30.5,480.5C 100.167,480.5 169.833,480.5 239.5,480.5C 239.5,470.833 239.5,461.167 239.5,451.5C 239.833,451.5 240.167,451.5 240.5,451.5C 240.5,461.5 240.5,471.5 240.5,481.5C 170.167,481.5 99.8333,481.5 29.5,481.5C 29.5,471.5 29.5,461.5 29.5,451.5 Z"/></g>
<g><path style="opacity:1" fill="#ebc371" d="M 30.5,451.5 C 100.167,451.5 169.833,451.5 239.5,451.5C 239.5,461.167 239.5,470.833 239.5,480.5C 169.833,480.5 100.167,480.5 30.5,480.5C 30.5,470.833 30.5,461.167 30.5,451.5 Z"/></g>
</svg>
