<?xml version="1.0" encoding="UTF-8"?>
<!DOCTYPE svg PUBLIC "-//W3C//DTD SVG 1.1//EN" "http://www.w3.org/Graphics/SVG/1.1/DTD/svg11.dtd">
<svg xmlns="http://www.w3.org/2000/svg" version="1.1" width="512px" height="512px" style="shape-rendering:geometricPrecision; text-rendering:geometricPrecision; image-rendering:optimizeQuality; fill-rule:evenodd; clip-rule:evenodd" xmlns:xlink="http://www.w3.org/1999/xlink">
<g><path style="opacity:0.972" fill="#010302" d="M 149.5,-0.5 C 159.833,-0.5 170.167,-0.5 180.5,-0.5C 180.5,9.5 180.5,19.5 180.5,29.5C 170.5,29.5 160.5,29.5 150.5,29.5C 150.827,39.6806 150.494,49.6806 149.5,59.5C 149.5,49.5 149.5,39.5 149.5,29.5C 149.5,19.5 149.5,9.5 149.5,-0.5 Z"/></g>
<g><path style="opacity:0.982" fill="#000100" d="M 209.5,-0.5 C 240.167,-0.5 270.833,-0.5 301.5,-0.5C 301.5,9.5 301.5,19.5 301.5,29.5C 301.5,39.5 301.5,49.5 301.5,59.5C 301.167,59.5 300.833,59.5 300.5,59.5C 300.5,49.5 300.5,39.5 300.5,29.5C 290.5,29.5 280.5,29.5 270.5,29.5C 250.5,29.5 230.5,29.5 210.5,29.5C 210.5,39.5 210.5,49.5 210.5,59.5C 200.5,59.5 190.5,59.5 180.5,59.5C 180.5,49.5 180.5,39.5 180.5,29.5C 190.167,29.5 199.833,29.5 209.5,29.5C 209.5,19.5 209.5,9.5 209.5,-0.5 Z"/></g>
<g><path style="opacity:0.972" fill="#000000" d="M 330.5,-0.5 C 340.833,-0.5 351.167,-0.5 361.5,-0.5C 361.5,9.5 361.5,19.5 361.5,29.5C 351.167,29.5 340.833,29.5 330.5,29.5C 330.5,19.5 330.5,9.5 330.5,-0.5 Z"/></g>
<g><path style="opacity:0.981" fill="#000000" d="M 149.5,29.5 C 149.5,39.5 149.5,49.5 149.5,59.5C 139.5,59.5 129.5,59.5 119.5,59.5C 119.5,49.5 119.5,39.5 119.5,29.5C 129.5,29.5 139.5,29.5 149.5,29.5 Z"/></g>
<g><path style="opacity:0.996" fill="#000000" d="M 301.5,29.5 C 311.167,29.5 320.833,29.5 330.5,29.5C 330.5,39.5 330.5,49.5 330.5,59.5C 320.833,59.5 311.167,59.5 301.5,59.5C 301.5,49.5 301.5,39.5 301.5,29.5 Z"/></g>
<g><path style="opacity:0.981" fill="#000000" d="M 361.5,29.5 C 371.5,29.5 381.5,29.5 391.5,29.5C 391.5,39.5 391.5,49.5 391.5,59.5C 391.5,49.5 391.5,39.5 391.5,29.5C 381.5,29.5 371.5,29.5 361.5,29.5 Z"/></g>
<g><path style="opacity:1" fill="#23bd65" d="M 180.5,29.5 C 180.5,39.5 180.5,49.5 180.5,59.5C 190.5,59.5 200.5,59.5 210.5,59.5C 210.5,49.5 210.5,39.5 210.5,29.5C 230.5,29.5 250.5,29.5 270.5,29.5C 280.5,29.5 290.5,29.5 300.5,29.5C 300.5,39.5 300.5,49.5 300.5,59.5C 300.5,69.5 300.5,79.5 300.5,89.5C 320.326,90.4971 340.326,90.8305 360.5,90.5C 360.5,100.5 360.5,110.5 360.5,120.5C 370.5,120.5 380.5,120.5 390.5,120.5C 390.5,130.5 390.5,140.5 390.5,150.5C 400.5,150.5 410.5,150.5 420.5,150.5C 420.5,160.167 420.5,169.833 420.5,179.5C 410.652,179.173 400.986,179.506 391.5,180.5C 390.506,190.319 390.173,200.319 390.5,210.5C 400.833,210.5 411.167,210.5 421.5,210.5C 421.5,230.5 421.5,250.5 421.5,270.5C 411.5,270.5 401.5,270.5 391.5,270.5C 391.5,280.5 391.5,290.5 391.5,300.5C 381.167,300.5 370.833,300.5 360.5,300.5C 360.5,310.5 360.5,320.5 360.5,330.5C 350.5,330.5 340.5,330.5 330.5,330.5C 320.5,330.5 310.5,330.5 300.5,330.5C 300.5,320.5 300.5,310.5 300.5,300.5C 290.5,300.5 280.5,300.5 270.5,300.5C 270.5,290.5 270.5,280.5 270.5,270.5C 260.5,270.5 250.5,270.5 240.5,270.5C 240.5,280.5 240.5,290.5 240.5,300.5C 230.5,300.5 220.5,300.5 210.5,300.5C 210.5,310.5 210.5,320.5 210.5,330.5C 200.5,330.5 190.5,330.5 180.5,330.5C 180.5,340.5 180.5,350.5 180.5,360.5C 150.5,360.5 120.5,360.5 90.5,360.5C 90.5,350.833 90.5,341.167 90.5,331.5C 100.348,331.827 110.014,331.494 119.5,330.5C 119.5,320.5 119.5,310.5 119.5,300.5C 109.5,300.5 99.5,300.5 89.5,300.5C 89.5,290.5 89.5,280.5 89.5,270.5C 79.5,270.5 69.5,270.5 59.5,270.5C 59.5,250.5 59.5,230.5 59.5,210.5C 69.5,210.5 79.5,210.5 89.5,210.5C 89.5,200.5 89.5,190.5 89.5,180.5C 80.0144,179.506 70.3478,179.173 60.5,179.5C 60.8271,169.652 60.4938,159.986 59.5,150.5C 49.5,150.5 39.5,150.5 29.5,150.5C 29.5,140.167 29.5,129.833 29.5,119.5C 49.5,119.5 69.5,119.5 89.5,119.5C 90.4938,110.014 90.8271,100.348 90.5,90.5C 100.348,90.8271 110.014,90.4938 119.5,89.5C 119.5,79.5 119.5,69.5 119.5,59.5C 129.5,59.5 139.5,59.5 149.5,59.5C 150.494,49.6806 150.827,39.6806 150.5,29.5C 160.5,29.5 170.5,29.5 180.5,29.5 Z"/></g>
<g><path style="opacity:1" fill="#009a83" d="M 270.5,29.5 C 280.5,29.5 290.5,29.5 300.5,29.5C 300.5,39.5 300.5,49.5 300.5,59.5C 290.5,59.5 280.5,59.5 270.5,59.5C 270.5,49.5 270.5,39.5 270.5,29.5 Z"/></g>
<g><path style="opacity:1" fill="#009983" d="M 330.5,29.5 C 340.833,29.5 351.167,29.5 361.5,29.5C 361.5,39.5 361.5,49.5 361.5,59.5C 371.5,59.5 381.5,59.5 391.5,59.5C 391.5,69.5 391.5,79.5 391.5,89.5C 401.5,89.5 411.5,89.5 421.5,89.5C 421.5,99.5 421.5,109.5 421.5,119.5C 441.5,119.5 461.5,119.5 481.5,119.5C 481.5,129.833 481.5,140.167 481.5,150.5C 471.5,150.5 461.5,150.5 451.5,150.5C 451.5,160.5 451.5,170.5 451.5,180.5C 441.5,180.5 431.5,180.5 421.5,180.5C 421.5,170.167 421.5,159.833 421.5,149.5C 411.5,149.5 401.5,149.5 391.5,149.5C 391.5,139.5 391.5,129.5 391.5,119.5C 381.5,119.5 371.5,119.5 361.5,119.5C 361.5,109.5 361.5,99.5 361.5,89.5C 341.167,89.5 320.833,89.5 300.5,89.5C 300.5,79.5 300.5,69.5 300.5,59.5C 300.833,59.5 301.167,59.5 301.5,59.5C 311.167,59.5 320.833,59.5 330.5,59.5C 330.5,49.5 330.5,39.5 330.5,29.5 Z"/></g>
<g><path style="opacity:0.981" fill="#000000" d="M 119.5,59.5 C 119.5,69.5 119.5,79.5 119.5,89.5C 109.5,89.5 99.5,89.5 89.5,89.5C 89.5,79.5 89.5,69.5 89.5,59.5C 99.5,59.5 109.5,59.5 119.5,59.5 Z"/></g>
<g><path style="opacity:0.981" fill="#000000" d="M 391.5,59.5 C 401.5,59.5 411.5,59.5 421.5,59.5C 421.5,69.5 421.5,79.5 421.5,89.5C 421.5,79.5 421.5,69.5 421.5,59.5C 411.5,59.5 401.5,59.5 391.5,59.5 Z"/></g>
<g><path style="opacity:0.987" fill="#000000" d="M 89.5,89.5 C 89.5,99.5 89.5,109.5 89.5,119.5C 69.5,119.5 49.5,119.5 29.5,119.5C 29.5,109.5 29.5,99.5 29.5,89.5C 49.5,89.5 69.5,89.5 89.5,89.5 Z"/></g>
<g><path style="opacity:0.986" fill="#000000" d="M 421.5,89.5 C 441.5,89.5 461.5,89.5 481.5,89.5C 481.5,99.5 481.5,109.5 481.5,119.5C 461.5,119.5 441.5,119.5 421.5,119.5C 421.5,109.5 421.5,99.5 421.5,89.5 Z"/></g>
<g><path style="opacity:1" fill="#157b41" d="M 89.5,89.5 C 99.5,89.5 109.5,89.5 119.5,89.5C 110.014,90.4938 100.348,90.8271 90.5,90.5C 90.8271,100.348 90.4938,110.014 89.5,119.5C 89.5,109.5 89.5,99.5 89.5,89.5 Z"/></g>
<g><path style="opacity:1" fill="#cf2760" d="M 270.5,119.5 C 260.5,119.5 250.5,119.5 240.5,119.5C 240.5,109.5 240.5,99.5 240.5,89.5C 250.5,89.5 260.5,89.5 270.5,89.5C 270.5,99.5 270.5,109.5 270.5,119.5 Z"/></g>
<g><path style="opacity:0.971" fill="#000000" d="M -0.5,119.5 C 9.5,119.5 19.5,119.5 29.5,119.5C 29.5,129.833 29.5,140.167 29.5,150.5C 19.5,150.5 9.5,150.5 -0.5,150.5C -0.5,140.167 -0.5,129.833 -0.5,119.5 Z"/></g>
<g><path style="opacity:1" fill="#13ad73" d="M 300.5,89.5 C 320.833,89.5 341.167,89.5 361.5,89.5C 361.5,99.5 361.5,109.5 361.5,119.5C 371.5,119.5 381.5,119.5 391.5,119.5C 391.5,129.5 391.5,139.5 391.5,149.5C 401.5,149.5 411.5,149.5 421.5,149.5C 421.5,159.833 421.5,170.167 421.5,180.5C 411.5,180.5 401.5,180.5 391.5,180.5C 400.986,179.506 410.652,179.173 420.5,179.5C 420.5,169.833 420.5,160.167 420.5,150.5C 410.5,150.5 400.5,150.5 390.5,150.5C 390.5,140.5 390.5,130.5 390.5,120.5C 380.5,120.5 370.5,120.5 360.5,120.5C 360.5,110.5 360.5,100.5 360.5,90.5C 340.326,90.8305 320.326,90.4971 300.5,89.5 Z"/></g>
<g><path style="opacity:0.971" fill="#000000" d="M 481.5,119.5 C 491.5,119.5 501.5,119.5 511.5,119.5C 511.5,129.833 511.5,140.167 511.5,150.5C 501.5,150.5 491.5,150.5 481.5,150.5C 481.5,140.167 481.5,129.833 481.5,119.5 Z"/></g>
<g><path style="opacity:1" fill="#f4841f" d="M 240.5,119.5 C 250.5,119.5 260.5,119.5 270.5,119.5C 280.319,120.494 290.319,120.827 300.5,120.5C 300.5,130.167 300.5,139.833 300.5,149.5C 290.5,149.5 280.5,149.5 270.5,149.5C 270.5,159.833 270.5,170.167 270.5,180.5C 260.5,180.5 250.5,180.5 240.5,180.5C 240.5,170.167 240.5,159.833 240.5,149.5C 230.5,149.5 220.5,149.5 210.5,149.5C 210.5,139.833 210.5,130.167 210.5,120.5C 220.681,120.827 230.681,120.494 240.5,119.5 Z"/></g>
<g><path style="opacity:0.987" fill="#000000" d="M 29.5,150.5 C 39.5,150.5 49.5,150.5 59.5,150.5C 59.5,160.5 59.5,170.5 59.5,180.5C 49.5,180.5 39.5,180.5 29.5,180.5C 29.5,170.5 29.5,160.5 29.5,150.5 Z"/></g>
<g><path style="opacity:0.986" fill="#000000" d="M 481.5,150.5 C 481.5,160.5 481.5,170.5 481.5,180.5C 471.5,180.5 461.5,180.5 451.5,180.5C 451.5,170.5 451.5,160.5 451.5,150.5C 461.5,150.5 471.5,150.5 481.5,150.5 Z"/></g>
<g><path style="opacity:1" fill="#188849" d="M 59.5,150.5 C 60.4938,159.986 60.8271,169.652 60.5,179.5C 70.3478,179.173 80.0144,179.506 89.5,180.5C 79.5,180.5 69.5,180.5 59.5,180.5C 59.5,170.5 59.5,160.5 59.5,150.5 Z"/></g>
<g><path style="opacity:1" fill="#cf275f" d="M 180.5,210.5 C 170.5,210.5 160.5,210.5 150.5,210.5C 150.5,200.5 150.5,190.5 150.5,180.5C 160.5,180.5 170.5,180.5 180.5,180.5C 180.5,190.5 180.5,200.5 180.5,210.5 Z"/></g>
<g><path style="opacity:1" fill="#cf275f" d="M 360.5,210.5 C 350.5,210.5 340.5,210.5 330.5,210.5C 330.5,200.5 330.5,190.5 330.5,180.5C 340.5,180.5 350.5,180.5 360.5,180.5C 360.5,190.5 360.5,200.5 360.5,210.5 Z"/></g>
<g><path style="opacity:1" fill="#019a82" d="M 391.5,180.5 C 401.5,180.5 411.5,180.5 421.5,180.5C 421.5,190.167 421.5,199.833 421.5,209.5C 421.5,209.833 421.5,210.167 421.5,210.5C 411.167,210.5 400.833,210.5 390.5,210.5C 390.173,200.319 390.506,190.319 391.5,180.5 Z"/></g>
<g><path style="opacity:0.992" fill="#000000" d="M 421.5,180.5 C 431.5,180.5 441.5,180.5 451.5,180.5C 451.5,190.167 451.5,199.833 451.5,209.5C 441.5,209.5 431.5,209.5 421.5,209.5C 421.5,199.833 421.5,190.167 421.5,180.5 Z"/></g>
<g><path style="opacity:0.968" fill="#000000" d="M 59.5,180.5 C 69.5,180.5 79.5,180.5 89.5,180.5C 89.5,190.5 89.5,200.5 89.5,210.5C 79.5,210.5 69.5,210.5 59.5,210.5C 59.5,230.5 59.5,250.5 59.5,270.5C 69.5,270.5 79.5,270.5 89.5,270.5C 89.5,280.5 89.5,290.5 89.5,300.5C 99.5,300.5 109.5,300.5 119.5,300.5C 119.5,310.5 119.5,320.5 119.5,330.5C 109.5,330.5 99.5,330.5 89.5,330.5C 89.5,320.833 89.5,311.167 89.5,301.5C 79.5,301.5 69.5,301.5 59.5,301.5C 59.5,291.5 59.5,281.5 59.5,271.5C 49.5,271.5 39.5,271.5 29.5,271.5C 29.5,250.833 29.5,230.167 29.5,209.5C 39.5,209.5 49.5,209.5 59.5,209.5C 59.5,199.833 59.5,190.167 59.5,180.5 Z"/></g>
<g><path style="opacity:0.968" fill="#000201" d="M 421.5,210.5 C 421.5,210.167 421.5,209.833 421.5,209.5C 431.5,209.5 441.5,209.5 451.5,209.5C 461.5,209.5 471.5,209.5 481.5,209.5C 481.5,230.167 481.5,250.833 481.5,271.5C 471.5,271.5 461.5,271.5 451.5,271.5C 451.5,281.5 451.5,291.5 451.5,301.5C 441.5,301.5 431.5,301.5 421.5,301.5C 411.5,301.5 401.5,301.5 391.5,301.5C 391.5,301.167 391.5,300.833 391.5,300.5C 401.5,300.5 411.5,300.5 421.5,300.5C 421.5,290.5 421.5,280.5 421.5,270.5C 431.5,270.5 441.5,270.5 451.5,270.5C 451.5,250.5 451.5,230.5 451.5,210.5C 441.5,210.5 431.5,210.5 421.5,210.5 Z"/></g>
<g><path style="opacity:1" fill="#f4851f" d="M 150.5,210.5 C 160.5,210.5 170.5,210.5 180.5,210.5C 190.5,210.5 200.5,210.5 210.5,210.5C 210.5,220.5 210.5,230.5 210.5,240.5C 200.5,240.5 190.5,240.5 180.5,240.5C 180.5,250.5 180.5,260.5 180.5,270.5C 170.5,270.5 160.5,270.5 150.5,270.5C 150.5,260.5 150.5,250.5 150.5,240.5C 140.5,240.5 130.5,240.5 120.5,240.5C 120.5,230.5 120.5,220.5 120.5,210.5C 130.5,210.5 140.5,210.5 150.5,210.5 Z"/></g>
<g><path style="opacity:1" fill="#f4851f" d="M 330.5,210.5 C 340.5,210.5 350.5,210.5 360.5,210.5C 370.5,210.5 380.5,210.5 390.5,210.5C 390.5,220.5 390.5,230.5 390.5,240.5C 380.5,240.5 370.5,240.5 360.5,240.5C 360.5,250.5 360.5,260.5 360.5,270.5C 350.5,270.5 340.5,270.5 330.5,270.5C 330.5,260.5 330.5,250.5 330.5,240.5C 320.5,240.5 310.5,240.5 300.5,240.5C 300.5,230.5 300.5,220.5 300.5,210.5C 310.5,210.5 320.5,210.5 330.5,210.5 Z"/></g>
<g><path style="opacity:1" fill="#009983" d="M 421.5,210.5 C 431.5,210.5 441.5,210.5 451.5,210.5C 451.5,230.5 451.5,250.5 451.5,270.5C 441.5,270.5 431.5,270.5 421.5,270.5C 421.5,250.5 421.5,230.5 421.5,210.5 Z"/></g>
<g><path style="opacity:1" fill="#000000" d="M 270.5,300.5 C 260.5,300.5 250.5,300.5 240.5,300.5C 240.5,290.5 240.5,280.5 240.5,270.5C 250.5,270.5 260.5,270.5 270.5,270.5C 270.5,280.5 270.5,290.5 270.5,300.5 Z"/></g>
<g><path style="opacity:1" fill="#009983" d="M 421.5,270.5 C 421.5,280.5 421.5,290.5 421.5,300.5C 411.5,300.5 401.5,300.5 391.5,300.5C 391.5,290.5 391.5,280.5 391.5,270.5C 401.5,270.5 411.5,270.5 421.5,270.5 Z"/></g>
<g><path style="opacity:0.985" fill="#000100" d="M 240.5,300.5 C 240.5,340.5 240.5,380.5 240.5,420.5C 230.167,420.5 219.833,420.5 209.5,420.5C 209.5,400.833 209.5,381.167 209.5,361.5C 199.833,361.5 190.167,361.5 180.5,361.5C 180.5,361.167 180.5,360.833 180.5,360.5C 180.5,350.5 180.5,340.5 180.5,330.5C 190.5,330.5 200.5,330.5 210.5,330.5C 210.5,320.5 210.5,310.5 210.5,300.5C 220.5,300.5 230.5,300.5 240.5,300.5 Z"/></g>
<g><path style="opacity:1" fill="#804231" d="M 240.5,300.5 C 250.5,300.5 260.5,300.5 270.5,300.5C 270.5,340.5 270.5,380.5 270.5,420.5C 280.5,420.5 290.5,420.5 300.5,420.5C 300.5,430.833 300.5,441.167 300.5,451.5C 290.5,451.5 280.5,451.5 270.5,451.5C 270.5,441.5 270.5,431.5 270.5,421.5C 260.5,421.5 250.5,421.5 240.5,421.5C 240.5,421.167 240.5,420.833 240.5,420.5C 240.5,380.5 240.5,340.5 240.5,300.5 Z"/></g>
<g><path style="opacity:0.985" fill="#000100" d="M 270.5,300.5 C 280.5,300.5 290.5,300.5 300.5,300.5C 300.5,310.5 300.5,320.5 300.5,330.5C 310.5,330.5 320.5,330.5 330.5,330.5C 330.5,340.833 330.5,351.167 330.5,361.5C 320.833,361.5 311.167,361.5 301.5,361.5C 301.5,381.167 301.5,400.833 301.5,420.5C 301.167,420.5 300.833,420.5 300.5,420.5C 290.5,420.5 280.5,420.5 270.5,420.5C 270.5,380.5 270.5,340.5 270.5,300.5 Z"/></g>
<g><path style="opacity:1" fill="#019881" d="M 391.5,300.5 C 391.5,300.833 391.5,301.167 391.5,301.5C 391.5,311.167 391.5,320.833 391.5,330.5C 401.5,330.5 411.5,330.5 421.5,330.5C 421.5,340.833 421.5,351.167 421.5,361.5C 391.167,361.5 360.833,361.5 330.5,361.5C 330.5,351.167 330.5,340.833 330.5,330.5C 340.5,330.5 350.5,330.5 360.5,330.5C 360.5,320.5 360.5,310.5 360.5,300.5C 370.833,300.5 381.167,300.5 391.5,300.5 Z"/></g>
<g><path style="opacity:0.988" fill="#000000" d="M 391.5,301.5 C 401.5,301.5 411.5,301.5 421.5,301.5C 421.5,311.167 421.5,320.833 421.5,330.5C 411.5,330.5 401.5,330.5 391.5,330.5C 391.5,320.833 391.5,311.167 391.5,301.5 Z"/></g>
<g><path style="opacity:0.964" fill="#000000" d="M 89.5,330.5 C 89.5,340.833 89.5,351.167 89.5,361.5C 79.5,361.5 69.5,361.5 59.5,361.5C 59.5,351.167 59.5,340.833 59.5,330.5C 69.5,330.5 79.5,330.5 89.5,330.5 Z"/></g>
<g><path style="opacity:0.964" fill="#000000" d="M 421.5,330.5 C 431.5,330.5 441.5,330.5 451.5,330.5C 451.5,340.833 451.5,351.167 451.5,361.5C 441.5,361.5 431.5,361.5 421.5,361.5C 421.5,351.167 421.5,340.833 421.5,330.5 Z"/></g>
<g><path style="opacity:1" fill="#136c39" d="M 89.5,330.5 C 99.5,330.5 109.5,330.5 119.5,330.5C 110.014,331.494 100.348,331.827 90.5,331.5C 90.5,341.167 90.5,350.833 90.5,360.5C 120.5,360.5 150.5,360.5 180.5,360.5C 180.5,360.833 180.5,361.167 180.5,361.5C 150.167,361.5 119.833,361.5 89.5,361.5C 89.5,351.167 89.5,340.833 89.5,330.5 Z"/></g>
<g><path style="opacity:0.977" fill="#000000" d="M 89.5,361.5 C 119.833,361.5 150.167,361.5 180.5,361.5C 180.5,371.5 180.5,381.5 180.5,391.5C 150.167,391.5 119.833,391.5 89.5,391.5C 89.5,381.5 89.5,371.5 89.5,361.5 Z"/></g>
<g><path style="opacity:0.977" fill="#000000" d="M 330.5,361.5 C 360.833,361.5 391.167,361.5 421.5,361.5C 421.5,371.5 421.5,381.5 421.5,391.5C 391.167,391.5 360.833,391.5 330.5,391.5C 330.5,381.5 330.5,371.5 330.5,361.5 Z"/></g>
<g><path style="opacity:0.974" fill="#000000" d="M 209.5,420.5 C 209.5,430.5 209.5,440.5 209.5,450.5C 179.5,450.5 149.5,450.5 119.5,450.5C 119.5,440.5 119.5,430.5 119.5,420.5C 149.5,420.5 179.5,420.5 209.5,420.5 Z"/></g>
<g><path style="opacity:0.974" fill="#000000" d="M 301.5,420.5 C 331.5,420.5 361.5,420.5 391.5,420.5C 391.5,430.5 391.5,440.5 391.5,450.5C 361.5,450.5 331.5,450.5 301.5,450.5C 301.5,440.5 301.5,430.5 301.5,420.5 Z"/></g>
<g><path style="opacity:1" fill="#d97f49" d="M 240.5,421.5 C 250.5,421.5 260.5,421.5 270.5,421.5C 270.5,431.5 270.5,441.5 270.5,451.5C 280.5,451.5 290.5,451.5 300.5,451.5C 300.5,461.5 300.5,471.5 300.5,481.5C 240.5,481.5 180.5,481.5 120.5,481.5C 120.5,471.5 120.5,461.5 120.5,451.5C 150.5,451.5 180.5,451.5 210.5,451.5C 210.5,441.5 210.5,431.5 210.5,421.5C 220.5,421.5 230.5,421.5 240.5,421.5 Z"/></g>
<g><path style="opacity:0.96" fill="#000000" d="M 119.5,450.5 C 119.5,460.833 119.5,471.167 119.5,481.5C 109.5,481.5 99.5,481.5 89.5,481.5C 89.5,471.167 89.5,460.833 89.5,450.5C 99.5,450.5 109.5,450.5 119.5,450.5 Z"/></g>
<g><path style="opacity:1" fill="#3c2315" d="M 209.5,420.5 C 219.833,420.5 230.167,420.5 240.5,420.5C 240.5,420.833 240.5,421.167 240.5,421.5C 230.5,421.5 220.5,421.5 210.5,421.5C 210.5,431.5 210.5,441.5 210.5,451.5C 180.5,451.5 150.5,451.5 120.5,451.5C 120.5,461.5 120.5,471.5 120.5,481.5C 120.167,481.5 119.833,481.5 119.5,481.5C 119.5,471.167 119.5,460.833 119.5,450.5C 149.5,450.5 179.5,450.5 209.5,450.5C 209.5,440.5 209.5,430.5 209.5,420.5 Z"/></g>
<g><path style="opacity:1" fill="#432518" d="M 300.5,420.5 C 300.833,420.5 301.167,420.5 301.5,420.5C 301.5,430.5 301.5,440.5 301.5,450.5C 331.5,450.5 361.5,450.5 391.5,450.5C 391.5,450.833 391.5,451.167 391.5,451.5C 361.167,451.5 330.833,451.5 300.5,451.5C 300.5,441.167 300.5,430.833 300.5,420.5 Z"/></g>
<g><path style="opacity:0.96" fill="#000000" d="M 391.5,450.5 C 401.5,450.5 411.5,450.5 421.5,450.5C 421.5,460.833 421.5,471.167 421.5,481.5C 411.5,481.5 401.5,481.5 391.5,481.5C 391.5,471.5 391.5,461.5 391.5,451.5C 391.5,451.167 391.5,450.833 391.5,450.5 Z"/></g>
<g><path style="opacity:1" fill="#804231" d="M 300.5,451.5 C 330.833,451.5 361.167,451.5 391.5,451.5C 391.5,461.5 391.5,471.5 391.5,481.5C 361.167,481.5 330.833,481.5 300.5,481.5C 300.5,471.5 300.5,461.5 300.5,451.5 Z"/></g>
<g><path style="opacity:0.997" fill="#000000" d="M 119.5,481.5 C 119.833,481.5 120.167,481.5 120.5,481.5C 180.5,481.5 240.5,481.5 300.5,481.5C 330.833,481.5 361.167,481.5 391.5,481.5C 391.5,491.5 391.5,501.5 391.5,511.5C 300.833,511.5 210.167,511.5 119.5,511.5C 119.5,501.5 119.5,491.5 119.5,481.5 Z"/></g>
</svg>
