<?xml version="1.0" encoding="UTF-8"?>
<!DOCTYPE svg PUBLIC "-//W3C//DTD SVG 1.1//EN" "http://www.w3.org/Graphics/SVG/1.1/DTD/svg11.dtd">
<svg xmlns="http://www.w3.org/2000/svg" version="1.1" width="512px" height="512px" style="shape-rendering:geometricPrecision; text-rendering:geometricPrecision; image-rendering:optimizeQuality; fill-rule:evenodd; clip-rule:evenodd" xmlns:xlink="http://www.w3.org/1999/xlink">
<g><path style="opacity:1" fill="#fefefe" d="M 398.5,153.5 C 398.5,167.167 398.5,180.833 398.5,194.5C 398.5,221.833 398.5,249.167 398.5,276.5C 398.5,289.833 398.5,303.167 398.5,316.5C 398.5,323.5 398.5,330.5 398.5,337.5C 405.5,337.5 412.5,337.5 419.5,337.5C 419.5,358.167 419.5,378.833 419.5,399.5C 419.5,406.167 419.5,412.833 419.5,419.5C 426.167,419.5 432.833,419.5 439.5,419.5C 439.5,433.167 439.5,446.833 439.5,460.5C 446.5,460.5 453.5,460.5 460.5,460.5C 460.5,467.167 460.5,473.833 460.5,480.5C 433.167,480.5 405.833,480.5 378.5,480.5C 378.5,473.833 378.5,467.167 378.5,460.5C 371.833,460.5 365.167,460.5 358.5,460.5C 358.167,460.5 357.833,460.5 357.5,460.5C 357.5,453.5 357.5,446.5 357.5,439.5C 350.833,439.5 344.167,439.5 337.5,439.5C 337.5,446.5 337.5,453.5 337.5,460.5C 282.833,460.5 228.167,460.5 173.5,460.5C 173.5,453.5 173.5,446.5 173.5,439.5C 166.833,439.5 160.167,439.5 153.5,439.5C 153.5,446.5 153.5,453.5 153.5,460.5C 153.167,460.5 152.833,460.5 152.5,460.5C 145.833,460.5 139.167,460.5 132.5,460.5C 132.5,467.167 132.5,473.833 132.5,480.5C 105.167,480.5 77.8333,480.5 50.5,480.5C 50.5,473.833 50.5,467.167 50.5,460.5C 57.5,460.5 64.5,460.5 71.5,460.5C 71.5,446.833 71.5,433.167 71.5,419.5C 78.1667,419.5 84.8333,419.5 91.5,419.5C 91.5,412.833 91.5,406.167 91.5,399.5C 91.5,378.833 91.5,358.167 91.5,337.5C 98.5,337.5 105.5,337.5 112.5,337.5C 112.5,330.5 112.5,323.5 112.5,316.5C 112.5,303.167 112.5,289.833 112.5,276.5C 112.5,249.167 112.5,221.833 112.5,194.5C 112.5,180.833 112.5,167.167 112.5,153.5C 119.167,153.5 125.833,153.5 132.5,153.5C 132.5,126.167 132.5,98.8333 132.5,71.5C 139.5,71.5 146.5,71.5 153.5,71.5C 153.5,64.5 153.5,57.5 153.5,50.5C 160.167,50.5 166.833,50.5 173.5,50.5C 173.5,43.8333 173.5,37.1667 173.5,30.5C 228.167,30.5 282.833,30.5 337.5,30.5C 337.5,37.1667 337.5,43.8333 337.5,50.5C 344.167,50.5 350.833,50.5 357.5,50.5C 357.5,57.5 357.5,64.5 357.5,71.5C 364.5,71.5 371.5,71.5 378.5,71.5C 378.5,98.8333 378.5,126.167 378.5,153.5C 385.167,153.5 391.833,153.5 398.5,153.5 Z"/></g>
<g><path style="opacity:0.992" fill="#c7cfdd" d="M 399.5,152.5 C 398.833,152.5 398.5,152.833 398.5,153.5C 391.833,153.5 385.167,153.5 378.5,153.5C 378.5,126.167 378.5,98.8333 378.5,71.5C 371.5,71.5 364.5,71.5 357.5,71.5C 357.5,64.5 357.5,57.5 357.5,50.5C 350.833,50.5 344.167,50.5 337.5,50.5C 337.5,43.8333 337.5,37.1667 337.5,30.5C 282.833,30.5 228.167,30.5 173.5,30.5C 173.5,37.1667 173.5,43.8333 173.5,50.5C 166.833,50.5 160.167,50.5 153.5,50.5C 153.5,57.5 153.5,64.5 153.5,71.5C 146.5,71.5 139.5,71.5 132.5,71.5C 132.5,98.8333 132.5,126.167 132.5,153.5C 125.833,153.5 119.167,153.5 112.5,153.5C 112.5,152.833 112.167,152.5 111.5,152.5C 111.5,125.167 111.5,97.8333 111.5,70.5C 118.5,70.5 125.5,70.5 132.5,70.5C 132.5,63.8333 132.5,57.1667 132.5,50.5C 139.167,50.5 145.833,50.5 152.5,50.5C 152.5,43.5 152.5,36.5 152.5,29.5C 159.5,29.5 166.5,29.5 173.5,29.5C 173.5,22.8333 173.5,16.1667 173.5,9.5C 228.167,9.5 282.833,9.5 337.5,9.5C 337.5,16.1667 337.5,22.8333 337.5,29.5C 344.5,29.5 351.5,29.5 358.5,29.5C 358.5,36.5 358.5,43.5 358.5,50.5C 365.167,50.5 371.833,50.5 378.5,50.5C 378.5,57.1667 378.5,63.8333 378.5,70.5C 385.5,70.5 392.5,70.5 399.5,70.5C 399.5,97.8333 399.5,125.167 399.5,152.5 Z"/></g>
<g><path style="opacity:0.984" fill="#92a1b9" d="M 50.5,91.5 C 57.5,91.5 64.5,91.5 71.5,91.5C 71.5,98.1667 71.5,104.833 71.5,111.5C 78.5,111.5 85.5,111.5 92.5,111.5C 92.5,125.167 92.5,138.833 92.5,152.5C 98.8333,152.5 105.167,152.5 111.5,152.5C 112.167,152.5 112.5,152.833 112.5,153.5C 112.5,167.167 112.5,180.833 112.5,194.5C 105.5,194.5 98.5,194.5 91.5,194.5C 91.5,180.833 91.5,167.167 91.5,153.5C 84.8333,153.5 78.1667,153.5 71.5,153.5C 71.5,139.833 71.5,126.167 71.5,112.5C 64.5,112.5 57.5,112.5 50.5,112.5C 50.5,105.5 50.5,98.5 50.5,91.5 Z"/></g>
<g><path style="opacity:0.984" fill="#92a1b9" d="M 460.5,91.5 C 460.5,98.5 460.5,105.5 460.5,112.5C 453.5,112.5 446.5,112.5 439.5,112.5C 439.5,126.167 439.5,139.833 439.5,153.5C 432.833,153.5 426.167,153.5 419.5,153.5C 419.5,167.167 419.5,180.833 419.5,194.5C 412.5,194.5 405.5,194.5 398.5,194.5C 398.5,180.833 398.5,167.167 398.5,153.5C 398.5,152.833 398.833,152.5 399.5,152.5C 405.833,152.5 412.167,152.5 418.5,152.5C 418.5,138.833 418.5,125.167 418.5,111.5C 425.5,111.5 432.5,111.5 439.5,111.5C 439.5,104.833 439.5,98.1667 439.5,91.5C 446.5,91.5 453.5,91.5 460.5,91.5 Z"/></g>
<g><path style="opacity:0.988" fill="#c7cfdd" d="M 50.5,91.5 C 50.5,98.5 50.5,105.5 50.5,112.5C 43.8333,112.5 37.1667,112.5 30.5,112.5C 30.5,146.5 30.5,180.5 30.5,214.5C 37.1667,214.5 43.8333,214.5 50.5,214.5C 50.5,221.167 50.5,227.833 50.5,234.5C 43.5,234.5 36.5,234.5 29.5,234.5C 29.5,228.167 29.5,221.833 29.5,215.5C 22.8333,215.5 16.1667,215.5 9.5,215.5C 9.5,180.833 9.5,146.167 9.5,111.5C 16.1667,111.5 22.8333,111.5 29.5,111.5C 29.5,104.833 29.5,98.1667 29.5,91.5C 36.5,91.5 43.5,91.5 50.5,91.5 Z"/></g>
<g><path style="opacity:1" fill="#fefefe" d="M 50.5,112.5 C 57.5,112.5 64.5,112.5 71.5,112.5C 71.5,126.167 71.5,139.833 71.5,153.5C 78.1667,153.5 84.8333,153.5 91.5,153.5C 91.5,167.167 91.5,180.833 91.5,194.5C 91.5,207.833 91.5,221.167 91.5,234.5C 77.8333,234.5 64.1667,234.5 50.5,234.5C 50.5,227.833 50.5,221.167 50.5,214.5C 43.8333,214.5 37.1667,214.5 30.5,214.5C 30.5,180.5 30.5,146.5 30.5,112.5C 37.1667,112.5 43.8333,112.5 50.5,112.5 Z"/></g>
<g><path style="opacity:1" fill="#131313" d="M 357.5,132.5 C 357.5,152.833 357.5,173.167 357.5,193.5C 350.833,193.5 344.167,193.5 337.5,193.5C 337.5,200.5 337.5,207.5 337.5,214.5C 317.167,214.5 296.833,214.5 276.5,214.5C 276.5,207.5 276.5,200.5 276.5,193.5C 269.5,193.5 262.5,193.5 255.5,193.5C 255.5,173.167 255.5,152.833 255.5,132.5C 262.5,132.5 269.5,132.5 276.5,132.5C 276.5,125.833 276.5,119.167 276.5,112.5C 296.833,112.5 317.167,112.5 337.5,112.5C 337.5,119.167 337.5,125.833 337.5,132.5C 344.167,132.5 350.833,132.5 357.5,132.5 Z"/></g>
<g><path style="opacity:1" fill="#fefefe" d="M 460.5,112.5 C 467.167,112.5 473.833,112.5 480.5,112.5C 480.5,146.5 480.5,180.5 480.5,214.5C 473.833,214.5 467.167,214.5 460.5,214.5C 460.5,221.167 460.5,227.833 460.5,234.5C 446.833,234.5 433.167,234.5 419.5,234.5C 419.5,221.167 419.5,207.833 419.5,194.5C 419.5,180.833 419.5,167.167 419.5,153.5C 426.167,153.5 432.833,153.5 439.5,153.5C 439.5,139.833 439.5,126.167 439.5,112.5C 446.5,112.5 453.5,112.5 460.5,112.5 Z"/></g>
<g><path style="opacity:0.988" fill="#c7cfdd" d="M 460.5,91.5 C 467.5,91.5 474.5,91.5 481.5,91.5C 481.5,98.1667 481.5,104.833 481.5,111.5C 488.167,111.5 494.833,111.5 501.5,111.5C 501.5,146.167 501.5,180.833 501.5,215.5C 494.833,215.5 488.167,215.5 481.5,215.5C 481.5,221.833 481.5,228.167 481.5,234.5C 474.5,234.5 467.5,234.5 460.5,234.5C 460.5,227.833 460.5,221.167 460.5,214.5C 467.167,214.5 473.833,214.5 480.5,214.5C 480.5,180.5 480.5,146.5 480.5,112.5C 473.833,112.5 467.167,112.5 460.5,112.5C 460.5,105.5 460.5,98.5 460.5,91.5 Z"/></g>
<g><path style="opacity:1" fill="#131313" d="M 214.5,133.5 C 214.5,140.167 214.5,146.833 214.5,153.5C 207.833,153.5 201.167,153.5 194.5,153.5C 187.833,153.5 181.167,153.5 174.5,153.5C 174.5,146.833 174.5,140.167 174.5,133.5C 187.833,133.5 201.167,133.5 214.5,133.5 Z"/></g>
<g><path style="opacity:1" fill="#121312" d="M 153.5,153.5 C 160.167,153.5 166.833,153.5 173.5,153.5C 173.5,166.833 173.5,180.167 173.5,193.5C 166.833,193.5 160.167,193.5 153.5,193.5C 153.5,180.167 153.5,166.833 153.5,153.5 Z"/></g>
<g><path style="opacity:0.997" fill="#3c3c3c" d="M 214.5,133.5 C 201.167,133.5 187.833,133.5 174.5,133.5C 174.5,140.167 174.5,146.833 174.5,153.5C 181.167,153.5 187.833,153.5 194.5,153.5C 194.5,160.167 194.5,166.833 194.5,173.5C 201.167,173.5 207.833,173.5 214.5,173.5C 214.5,180.167 214.5,186.833 214.5,193.5C 200.833,193.5 187.167,193.5 173.5,193.5C 173.5,180.167 173.5,166.833 173.5,153.5C 173.5,146.5 173.5,139.5 173.5,132.5C 187.344,132.171 201.01,132.504 214.5,133.5 Z"/></g>
<g><path style="opacity:1" fill="#5c5d5c" d="M 194.5,153.5 C 201.167,153.5 207.833,153.5 214.5,153.5C 214.5,160.167 214.5,166.833 214.5,173.5C 207.833,173.5 201.167,173.5 194.5,173.5C 194.5,166.833 194.5,160.167 194.5,153.5 Z"/></g>
<g><path style="opacity:0.998" fill="#121312" d="M 214.5,153.5 C 221.167,153.5 227.833,153.5 234.5,153.5C 234.5,166.833 234.5,180.167 234.5,193.5C 227.833,193.5 221.167,193.5 214.5,193.5C 214.5,186.833 214.5,180.167 214.5,173.5C 214.5,166.833 214.5,160.167 214.5,153.5 Z"/></g>
<g><path style="opacity:0.998" fill="#3c3d3c" d="M 296.5,153.5 C 296.5,160.167 296.5,166.833 296.5,173.5C 303.167,173.5 309.833,173.5 316.5,173.5C 316.5,180.167 316.5,186.833 316.5,193.5C 303.167,193.5 289.833,193.5 276.5,193.5C 276.5,180.167 276.5,166.833 276.5,153.5C 283.167,153.5 289.833,153.5 296.5,153.5 Z"/></g>
<g><path style="opacity:1" fill="#5c5d5c" d="M 296.5,153.5 C 303.167,153.5 309.833,153.5 316.5,153.5C 316.5,160.167 316.5,166.833 316.5,173.5C 316.5,166.833 316.5,160.167 316.5,153.5C 309.833,153.5 303.167,153.5 296.5,153.5 Z"/></g>
<g><path style="opacity:1" fill="#c7cfdd" d="M 91.5,194.5 C 98.5,194.5 105.5,194.5 112.5,194.5C 112.5,221.833 112.5,249.167 112.5,276.5C 105.588,275.538 98.5878,275.205 91.5,275.5C 91.5,268.833 91.5,262.167 91.5,255.5C 77.8333,255.5 64.1667,255.5 50.5,255.5C 50.5,248.5 50.5,241.5 50.5,234.5C 64.1667,234.5 77.8333,234.5 91.5,234.5C 91.5,221.167 91.5,207.833 91.5,194.5 Z"/></g>
<g><path style="opacity:1" fill="#c5ccd8" d="M 153.5,153.5 C 153.5,166.833 153.5,180.167 153.5,193.5C 160.167,193.5 166.833,193.5 173.5,193.5C 173.5,200.5 173.5,207.5 173.5,214.5C 166.5,214.5 159.5,214.5 152.5,214.5C 152.17,193.993 152.503,173.66 153.5,153.5 Z"/></g>
<g><path style="opacity:1" fill="#141414" d="M 173.5,193.5 C 187.167,193.5 200.833,193.5 214.5,193.5C 214.5,200.5 214.5,207.5 214.5,214.5C 200.833,214.5 187.167,214.5 173.5,214.5C 173.5,207.5 173.5,200.5 173.5,193.5 Z"/></g>
<g><path style="opacity:0.998" fill="#c2c9d5" d="M 234.5,153.5 C 235.497,173.66 235.83,193.993 235.5,214.5C 228.5,214.5 221.5,214.5 214.5,214.5C 214.5,207.5 214.5,200.5 214.5,193.5C 221.167,193.5 227.833,193.5 234.5,193.5C 234.5,180.167 234.5,166.833 234.5,153.5 Z"/></g>
<g><path style="opacity:1" fill="#c6cfdc" d="M 255.5,194.5 C 262.167,194.5 268.833,194.5 275.5,194.5C 275.5,201.167 275.5,207.833 275.5,214.5C 275.5,207.833 275.5,201.167 275.5,194.5C 268.833,194.5 262.167,194.5 255.5,194.5 Z"/></g>
<g><path style="opacity:0.753" fill="#818690" d="M 255.5,194.5 C 255.5,194.167 255.5,193.833 255.5,193.5C 262.5,193.5 269.5,193.5 276.5,193.5C 276.5,200.5 276.5,207.5 276.5,214.5C 276.167,214.5 275.833,214.5 275.5,214.5C 275.5,207.833 275.5,201.167 275.5,194.5C 268.833,194.5 262.167,194.5 255.5,194.5 Z"/></g>
<g><path style="opacity:1" fill="#c5ccd8" d="M 357.5,132.5 C 358.498,159.662 358.831,186.995 358.5,214.5C 351.5,214.5 344.5,214.5 337.5,214.5C 337.5,207.5 337.5,200.5 337.5,193.5C 344.167,193.5 350.833,193.5 357.5,193.5C 357.5,173.167 357.5,152.833 357.5,132.5 Z"/></g>
<g><path style="opacity:1" fill="#c7cfdd" d="M 398.5,194.5 C 405.5,194.5 412.5,194.5 419.5,194.5C 419.5,207.833 419.5,221.167 419.5,234.5C 433.167,234.5 446.833,234.5 460.5,234.5C 460.5,241.5 460.5,248.5 460.5,255.5C 446.833,255.5 433.167,255.5 419.5,255.5C 419.5,262.167 419.5,268.833 419.5,275.5C 412.412,275.205 405.412,275.538 398.5,276.5C 398.5,249.167 398.5,221.833 398.5,194.5 Z"/></g>
<g><path style="opacity:0.966" fill="#92a1b9" d="M 29.5,234.5 C 36.5,234.5 43.5,234.5 50.5,234.5C 50.5,241.5 50.5,248.5 50.5,255.5C 43.5,255.5 36.5,255.5 29.5,255.5C 29.5,248.5 29.5,241.5 29.5,234.5 Z"/></g>
<g><path style="opacity:1" fill="#131313" d="M 153.5,235.5 C 221.5,235.5 289.5,235.5 357.5,235.5C 357.5,242.167 357.5,248.833 357.5,255.5C 350.833,255.5 344.167,255.5 337.5,255.5C 337.5,262.167 337.5,268.833 337.5,275.5C 330.833,275.5 324.167,275.5 317.5,275.5C 317.5,268.833 317.5,262.167 317.5,255.5C 310.5,255.5 303.5,255.5 296.5,255.5C 289.833,255.5 283.167,255.5 276.5,255.5C 262.5,255.5 248.5,255.5 234.5,255.5C 227.833,255.5 221.167,255.5 214.5,255.5C 207.5,255.5 200.5,255.5 193.5,255.5C 193.5,262.167 193.5,268.833 193.5,275.5C 186.833,275.5 180.167,275.5 173.5,275.5C 173.5,268.833 173.5,262.167 173.5,255.5C 166.833,255.5 160.167,255.5 153.5,255.5C 153.5,248.833 153.5,242.167 153.5,235.5 Z"/></g>
<g><path style="opacity:0.966" fill="#92a1b9" d="M 460.5,234.5 C 467.5,234.5 474.5,234.5 481.5,234.5C 481.5,241.5 481.5,248.5 481.5,255.5C 474.5,255.5 467.5,255.5 460.5,255.5C 460.5,248.5 460.5,241.5 460.5,234.5 Z"/></g>
<g><path style="opacity:1" fill="#c9d0dd" d="M 153.5,235.5 C 153.5,242.167 153.5,248.833 153.5,255.5C 160.167,255.5 166.833,255.5 173.5,255.5C 173.5,262.167 173.5,268.833 173.5,275.5C 173.5,275.833 173.5,276.167 173.5,276.5C 166.578,276.812 159.744,276.479 153,275.5C 152.173,261.994 152.34,248.66 153.5,235.5 Z"/></g>
<g><path style="opacity:1" fill="#871d2a" d="M 214.5,255.5 C 214.5,269.167 214.5,282.833 214.5,296.5C 207.833,296.5 201.167,296.5 194.5,296.5C 194.825,289.313 194.491,282.313 193.5,275.5C 193.5,268.833 193.5,262.167 193.5,255.5C 200.5,255.5 207.5,255.5 214.5,255.5 Z"/></g>
<g><path style="opacity:0.999" fill="#e9313b" d="M 214.5,255.5 C 221.167,255.5 227.833,255.5 234.5,255.5C 234.5,269.167 234.5,282.833 234.5,296.5C 241.5,296.5 248.5,296.5 255.5,296.5C 255.5,303.5 255.5,310.5 255.5,317.5C 262.422,317.812 269.256,317.479 276,316.5C 276.5,296.169 276.667,275.836 276.5,255.5C 283.167,255.5 289.833,255.5 296.5,255.5C 296.5,269.167 296.5,282.833 296.5,296.5C 296.5,310.167 296.5,323.833 296.5,337.5C 269.167,337.5 241.833,337.5 214.5,337.5C 214.5,323.833 214.5,310.167 214.5,296.5C 214.5,282.833 214.5,269.167 214.5,255.5 Z"/></g>
<g><path style="opacity:1" fill="#c42430" d="M 234.5,255.5 C 248.5,255.5 262.5,255.5 276.5,255.5C 276.667,275.836 276.5,296.169 276,316.5C 269.256,317.479 262.422,317.812 255.5,317.5C 255.5,310.5 255.5,303.5 255.5,296.5C 248.5,296.5 241.5,296.5 234.5,296.5C 234.5,282.833 234.5,269.167 234.5,255.5 Z"/></g>
<g><path style="opacity:1" fill="#871d2a" d="M 296.5,255.5 C 303.5,255.5 310.5,255.5 317.5,255.5C 317.5,262.167 317.5,268.833 317.5,275.5C 316.509,282.313 316.175,289.313 316.5,296.5C 309.833,296.5 303.167,296.5 296.5,296.5C 296.5,282.833 296.5,269.167 296.5,255.5 Z"/></g>
<g><path style="opacity:1" fill="#c9d0dd" d="M 357.5,235.5 C 358.66,248.66 358.827,261.994 358,275.5C 351.256,276.479 344.422,276.812 337.5,276.5C 337.5,276.167 337.5,275.833 337.5,275.5C 337.5,268.833 337.5,262.167 337.5,255.5C 344.167,255.5 350.833,255.5 357.5,255.5C 357.5,248.833 357.5,242.167 357.5,235.5 Z"/></g>
<g><path style="opacity:0.995" fill="#c7cfdd" d="M 173.5,276.5 C 180.167,276.5 186.833,276.5 193.5,276.5C 193.5,283.167 193.5,289.833 193.5,296.5C 193.5,289.833 193.5,283.167 193.5,276.5C 186.833,276.5 180.167,276.5 173.5,276.5 Z"/></g>
<g><path style="opacity:0.757" fill="#c0a9b2" d="M 173.5,276.5 C 173.5,276.167 173.5,275.833 173.5,275.5C 180.167,275.5 186.833,275.5 193.5,275.5C 194.491,282.313 194.825,289.313 194.5,296.5C 194.5,310.167 194.5,323.833 194.5,337.5C 193.504,324.01 193.171,310.344 193.5,296.5C 193.5,289.833 193.5,283.167 193.5,276.5C 186.833,276.5 180.167,276.5 173.5,276.5 Z"/></g>
<g><path style="opacity:0.757" fill="#c0a9b2" d="M 317.5,275.5 C 324.167,275.5 330.833,275.5 337.5,275.5C 337.5,275.833 337.5,276.167 337.5,276.5C 330.833,276.5 324.167,276.5 317.5,276.5C 317.5,283.167 317.5,289.833 317.5,296.5C 317.829,310.344 317.496,324.01 316.5,337.5C 316.5,323.833 316.5,310.167 316.5,296.5C 316.175,289.313 316.509,282.313 317.5,275.5 Z"/></g>
<g><path style="opacity:0.995" fill="#c7cfdd" d="M 337.5,276.5 C 337.5,283.167 337.5,289.833 337.5,296.5C 330.833,296.5 324.167,296.5 317.5,296.5C 317.5,289.833 317.5,283.167 317.5,276.5C 324.167,276.5 330.833,276.5 337.5,276.5 Z"/></g>
<g><path style="opacity:1" fill="#c42430" d="M 194.5,296.5 C 201.167,296.5 207.833,296.5 214.5,296.5C 214.5,310.167 214.5,323.833 214.5,337.5C 207.833,337.5 201.167,337.5 194.5,337.5C 194.5,323.833 194.5,310.167 194.5,296.5 Z"/></g>
<g><path style="opacity:1" fill="#c42430" d="M 296.5,296.5 C 303.167,296.5 309.833,296.5 316.5,296.5C 316.5,310.167 316.5,323.833 316.5,337.5C 309.833,337.5 303.167,337.5 296.5,337.5C 296.5,323.833 296.5,310.167 296.5,296.5 Z"/></g>
<g><path style="opacity:0.963" fill="#92a1b9" d="M 460.5,255.5 C 460.5,262.5 460.5,269.5 460.5,276.5C 453.833,276.5 447.167,276.5 440.5,276.5C 440.5,283.167 440.5,289.833 440.5,296.5C 433.5,296.5 426.5,296.5 419.5,296.5C 419.5,303.167 419.5,309.833 419.5,316.5C 426.5,316.5 433.5,316.5 440.5,316.5C 440.5,343.833 440.5,371.167 440.5,398.5C 447.167,398.5 453.833,398.5 460.5,398.5C 460.5,405.5 460.5,412.5 460.5,419.5C 453.5,419.5 446.5,419.5 439.5,419.5C 432.833,419.5 426.167,419.5 419.5,419.5C 419.5,412.833 419.5,406.167 419.5,399.5C 419.5,378.833 419.5,358.167 419.5,337.5C 419.5,330.833 419.5,324.167 419.5,317.5C 412.412,317.795 405.412,317.462 398.5,316.5C 398.5,303.167 398.5,289.833 398.5,276.5C 405.412,275.538 412.412,275.205 419.5,275.5C 419.5,268.833 419.5,262.167 419.5,255.5C 433.167,255.5 446.833,255.5 460.5,255.5 Z"/></g>
<g><path style="opacity:0.996" fill="#c6cfdd" d="M 112.5,316.5 C 112.5,323.5 112.5,330.5 112.5,337.5C 105.5,337.5 98.5,337.5 91.5,337.5C 91.5,330.833 91.5,324.167 91.5,317.5C 98.5878,317.795 105.588,317.462 112.5,316.5 Z"/></g>
<g><path style="opacity:0.996" fill="#c6cfdd" d="M 398.5,316.5 C 405.412,317.462 412.412,317.795 419.5,317.5C 419.5,324.167 419.5,330.833 419.5,337.5C 412.5,337.5 405.5,337.5 398.5,337.5C 398.5,330.5 398.5,323.5 398.5,316.5 Z"/></g>
<g><path style="opacity:1" fill="#c42430" d="M 214.5,337.5 C 241.833,337.5 269.167,337.5 296.5,337.5C 296.5,344.167 296.5,350.833 296.5,357.5C 269.167,357.5 241.833,357.5 214.5,357.5C 214.5,350.833 214.5,344.167 214.5,337.5 Z"/></g>
<g><path style="opacity:1" fill="#c7cfdd" d="M 91.5,399.5 C 91.5,406.167 91.5,412.833 91.5,419.5C 84.8333,419.5 78.1667,419.5 71.5,419.5C 71.5,412.833 71.5,406.167 71.5,399.5C 78.1667,399.5 84.8333,399.5 91.5,399.5 Z"/></g>
<g><path style="opacity:1" fill="#c7cfdd" d="M 419.5,399.5 C 426.167,399.5 432.833,399.5 439.5,399.5C 439.5,406.167 439.5,412.833 439.5,419.5C 439.5,412.833 439.5,406.167 439.5,399.5C 432.833,399.5 426.167,399.5 419.5,399.5 Z"/></g>
<g><path style="opacity:1" fill="#c6cedc" d="M 71.5,419.5 C 71.5,433.167 71.5,446.833 71.5,460.5C 64.5,460.5 57.5,460.5 50.5,460.5C 50.5,446.833 50.5,433.167 50.5,419.5C 57.5,419.5 64.5,419.5 71.5,419.5 Z"/></g>
<g><path style="opacity:1" fill="#c7cfdd" d="M 439.5,419.5 C 446.5,419.5 453.5,419.5 460.5,419.5C 460.5,426.167 460.5,432.833 460.5,439.5C 460.5,446.5 460.5,453.5 460.5,460.5C 453.5,460.5 446.5,460.5 439.5,460.5C 439.5,446.833 439.5,433.167 439.5,419.5 Z"/></g>
<g><path style="opacity:0.979" fill="#92a1b9" d="M 50.5,255.5 C 64.1667,255.5 77.8333,255.5 91.5,255.5C 91.5,262.167 91.5,268.833 91.5,275.5C 98.5878,275.205 105.588,275.538 112.5,276.5C 112.5,289.833 112.5,303.167 112.5,316.5C 105.588,317.462 98.5878,317.795 91.5,317.5C 91.5,324.167 91.5,330.833 91.5,337.5C 91.5,358.167 91.5,378.833 91.5,399.5C 84.8333,399.5 78.1667,399.5 71.5,399.5C 71.5,406.167 71.5,412.833 71.5,419.5C 64.5,419.5 57.5,419.5 50.5,419.5C 50.5,433.167 50.5,446.833 50.5,460.5C 43.8333,460.5 37.1667,460.5 30.5,460.5C 30.5,467.167 30.5,473.833 30.5,480.5C 37.1667,480.5 43.8333,480.5 50.5,480.5C 77.8333,480.5 105.167,480.5 132.5,480.5C 139.167,480.5 145.833,480.5 152.5,480.5C 152.5,473.833 152.5,467.167 152.5,460.5C 152.833,460.5 153.167,460.5 153.5,460.5C 160.167,460.5 166.833,460.5 173.5,460.5C 173.5,467.167 173.5,473.833 173.5,480.5C 228.167,480.5 282.833,480.5 337.5,480.5C 337.5,473.833 337.5,467.167 337.5,460.5C 344.167,460.5 350.833,460.5 357.5,460.5C 357.833,460.5 358.167,460.5 358.5,460.5C 365.167,460.5 371.833,460.5 378.5,460.5C 378.5,467.167 378.5,473.833 378.5,480.5C 405.833,480.5 433.167,480.5 460.5,480.5C 467.167,480.5 473.833,480.5 480.5,480.5C 480.5,473.833 480.5,467.167 480.5,460.5C 473.833,460.5 467.167,460.5 460.5,460.5C 460.5,453.5 460.5,446.5 460.5,439.5C 467.5,439.5 474.5,439.5 481.5,439.5C 481.5,446.167 481.5,452.833 481.5,459.5C 488.167,459.5 494.833,459.5 501.5,459.5C 501.5,466.833 501.5,474.167 501.5,481.5C 494.833,481.5 488.167,481.5 481.5,481.5C 481.5,488.167 481.5,494.833 481.5,501.5C 440.167,501.5 398.833,501.5 357.5,501.5C 357.5,494.833 357.5,488.167 357.5,481.5C 350.833,481.5 344.167,481.5 337.5,481.5C 337.5,488.167 337.5,494.833 337.5,501.5C 282.833,501.5 228.167,501.5 173.5,501.5C 173.5,494.833 173.5,488.167 173.5,481.5C 166.833,481.5 160.167,481.5 153.5,481.5C 153.5,488.167 153.5,494.833 153.5,501.5C 112.167,501.5 70.8333,501.5 29.5,501.5C 29.5,494.833 29.5,488.167 29.5,481.5C 22.8333,481.5 16.1667,481.5 9.5,481.5C 9.5,474.167 9.5,466.833 9.5,459.5C 16.1667,459.5 22.8333,459.5 29.5,459.5C 29.5,445.833 29.5,432.167 29.5,418.5C 36.5,418.5 43.5,418.5 50.5,418.5C 50.5,411.833 50.5,405.167 50.5,398.5C 57.1667,398.5 63.8333,398.5 70.5,398.5C 70.5,371.167 70.5,343.833 70.5,316.5C 77.5,316.5 84.5,316.5 91.5,316.5C 91.5,303.167 91.5,289.833 91.5,276.5C 77.8333,276.5 64.1667,276.5 50.5,276.5C 50.5,269.5 50.5,262.5 50.5,255.5 Z"/></g>
<g><path style="opacity:1" fill="#c6cfdc" d="M 460.5,460.5 C 467.167,460.5 473.833,460.5 480.5,460.5C 480.5,467.167 480.5,473.833 480.5,480.5C 473.833,480.5 467.167,480.5 460.5,480.5C 460.5,473.833 460.5,467.167 460.5,460.5 Z"/></g>
<g><path style="opacity:1" fill="#c7cfdd" d="M 358.5,460.5 C 365.167,460.5 371.833,460.5 378.5,460.5C 378.5,467.167 378.5,473.833 378.5,480.5C 371.833,480.5 365.167,480.5 358.5,480.5C 358.5,473.833 358.5,467.167 358.5,460.5 Z"/></g>
<g><path style="opacity:1" fill="#c6cedc" d="M 173.5,460.5 C 228.167,460.5 282.833,460.5 337.5,460.5C 337.5,467.167 337.5,473.833 337.5,480.5C 282.833,480.5 228.167,480.5 173.5,480.5C 173.5,473.833 173.5,467.167 173.5,460.5 Z"/></g>
<g><path style="opacity:1" fill="#c7cfdd" d="M 152.5,460.5 C 152.5,467.167 152.5,473.833 152.5,480.5C 145.833,480.5 139.167,480.5 132.5,480.5C 132.5,473.833 132.5,467.167 132.5,460.5C 139.167,460.5 145.833,460.5 152.5,460.5 Z"/></g>
<g><path style="opacity:1" fill="#c6cfdc" d="M 50.5,460.5 C 50.5,467.167 50.5,473.833 50.5,480.5C 43.8333,480.5 37.1667,480.5 30.5,480.5C 30.5,473.833 30.5,467.167 30.5,460.5C 37.1667,460.5 43.8333,460.5 50.5,460.5 Z"/></g>
<g><path style="opacity:1" fill="#c6cedc" d="M 357.5,460.5 C 350.833,460.5 344.167,460.5 337.5,460.5C 337.5,453.5 337.5,446.5 337.5,439.5C 344.167,439.5 350.833,439.5 357.5,439.5C 357.5,446.5 357.5,453.5 357.5,460.5 Z"/></g>
<g><path style="opacity:1" fill="#c6cedc" d="M 173.5,460.5 C 166.833,460.5 160.167,460.5 153.5,460.5C 153.5,453.5 153.5,446.5 153.5,439.5C 160.167,439.5 166.833,439.5 173.5,439.5C 173.5,446.5 173.5,453.5 173.5,460.5 Z"/></g>
</svg>
