<?xml version="1.0" encoding="UTF-8"?>
<!DOCTYPE svg PUBLIC "-//W3C//DTD SVG 1.1//EN" "http://www.w3.org/Graphics/SVG/1.1/DTD/svg11.dtd">
<svg xmlns="http://www.w3.org/2000/svg" version="1.1" width="512px" height="512px" style="shape-rendering:geometricPrecision; text-rendering:geometricPrecision; image-rendering:optimizeQuality; fill-rule:evenodd; clip-rule:evenodd" xmlns:xlink="http://www.w3.org/1999/xlink">
<g><path style="opacity:0.989" fill="#000000" d="M 119.5,-0.5 C 139.833,-0.5 160.167,-0.5 180.5,-0.5C 180.5,19.5 180.5,39.5 180.5,59.5C 170.5,59.5 160.5,59.5 150.5,59.5C 150.5,49.5 150.5,39.5 150.5,29.5C 140.5,29.5 130.5,29.5 120.5,29.5C 120.167,29.5 119.833,29.5 119.5,29.5C 119.5,19.5 119.5,9.5 119.5,-0.5 Z"/></g>
<g><path style="opacity:0.972" fill="#000000" d="M 239.5,-0.5 C 260.167,-0.5 280.833,-0.5 301.5,-0.5C 301.5,9.5 301.5,19.5 301.5,29.5C 301.167,29.5 300.833,29.5 300.5,29.5C 280.5,29.5 260.5,29.5 240.5,29.5C 240.5,39.5 240.5,49.5 240.5,59.5C 230.5,59.5 220.5,59.5 210.5,59.5C 210.827,69.6806 210.494,79.6806 209.5,89.5C 209.5,79.5 209.5,69.5 209.5,59.5C 209.5,49.5 209.5,39.5 209.5,29.5C 219.5,29.5 229.5,29.5 239.5,29.5C 239.5,19.5 239.5,9.5 239.5,-0.5 Z"/></g>
<g><path style="opacity:0.989" fill="#000000" d="M 119.5,29.5 C 119.5,59.5 119.5,89.5 119.5,119.5C 89.5,119.5 59.5,119.5 29.5,119.5C 29.5,109.5 29.5,99.5 29.5,89.5C 49.5,89.5 69.5,89.5 89.5,89.5C 89.5,69.5 89.5,49.5 89.5,29.5C 99.5,29.5 109.5,29.5 119.5,29.5 Z"/></g>
<g><path style="opacity:0.949" fill="#000000" d="M 301.5,29.5 C 311.5,29.5 321.5,29.5 331.5,29.5C 331.5,39.8333 331.5,50.1667 331.5,60.5C 321.5,60.5 311.5,60.5 301.5,60.5C 301.5,50.1667 301.5,39.8333 301.5,29.5 Z"/></g>
<g><path style="opacity:1" fill="#e97098" d="M 120.5,29.5 C 130.5,29.5 140.5,29.5 150.5,29.5C 150.5,39.5 150.5,49.5 150.5,59.5C 159.986,60.4938 169.652,60.8271 179.5,60.5C 179.5,70.1667 179.5,79.8333 179.5,89.5C 169.5,89.5 159.5,89.5 149.5,89.5C 149.5,99.5 149.5,109.5 149.5,119.5C 139.833,119.5 130.167,119.5 120.5,119.5C 120.5,89.5 120.5,59.5 120.5,29.5 Z"/></g>
<g><path style="opacity:1" fill="#0c73c8" d="M 300.5,29.5 C 300.5,39.5 300.5,49.5 300.5,59.5C 290.319,59.1726 280.319,59.506 270.5,60.5C 270.5,70.5 270.5,80.5 270.5,90.5C 260.5,90.5 250.5,90.5 240.5,90.5C 240.5,80.1667 240.5,69.8333 240.5,59.5C 240.5,49.5 240.5,39.5 240.5,29.5C 260.5,29.5 280.5,29.5 300.5,29.5 Z"/></g>
<g><path style="opacity:0.992" fill="#000000" d="M 180.5,59.5 C 190.167,59.5 199.833,59.5 209.5,59.5C 209.5,69.5 209.5,79.5 209.5,89.5C 199.833,89.5 190.167,89.5 180.5,89.5C 180.5,79.5 180.5,69.5 180.5,59.5 Z"/></g>
<g><path style="opacity:1" fill="#023552" d="M 300.5,29.5 C 300.833,29.5 301.167,29.5 301.5,29.5C 301.5,39.8333 301.5,50.1667 301.5,60.5C 291.167,60.5 280.833,60.5 270.5,60.5C 280.319,59.506 290.319,59.1726 300.5,59.5C 300.5,49.5 300.5,39.5 300.5,29.5 Z"/></g>
<g><path style="opacity:0.962" fill="#fec906" d="M 360.5,59.5 C 370.833,59.5 381.167,59.5 391.5,59.5C 391.5,69.8333 391.5,80.1667 391.5,90.5C 381.167,90.5 370.833,90.5 360.5,90.5C 360.5,80.1667 360.5,69.8333 360.5,59.5 Z"/></g>
<g><path style="opacity:1" fill="#ab526f" d="M 150.5,59.5 C 160.5,59.5 170.5,59.5 180.5,59.5C 180.5,69.5 180.5,79.5 180.5,89.5C 180.167,89.5 179.833,89.5 179.5,89.5C 179.5,79.8333 179.5,70.1667 179.5,60.5C 169.652,60.8271 159.986,60.4938 150.5,59.5 Z"/></g>
<g><path style="opacity:1" fill="#00a5dd" d="M 240.5,59.5 C 240.5,69.8333 240.5,80.1667 240.5,90.5C 240.5,100.5 240.5,110.5 240.5,120.5C 230.5,120.5 220.5,120.5 210.5,120.5C 210.5,130.5 210.5,140.5 210.5,150.5C 200.5,150.5 190.5,150.5 180.5,150.5C 180.5,140.5 180.5,130.5 180.5,120.5C 180.5,120.167 180.5,119.833 180.5,119.5C 180.5,109.5 180.5,99.5 180.5,89.5C 190.167,89.5 199.833,89.5 209.5,89.5C 210.494,79.6806 210.827,69.6806 210.5,59.5C 220.5,59.5 230.5,59.5 240.5,59.5 Z"/></g>
<g><path style="opacity:0.95" fill="#ffc906" d="M 420.5,89.5 C 430.833,89.5 441.167,89.5 451.5,89.5C 451.5,99.8333 451.5,110.167 451.5,120.5C 441.167,120.5 430.833,120.5 420.5,120.5C 420.5,110.167 420.5,99.8333 420.5,89.5 Z"/></g>
<g><path style="opacity:1" fill="#783a4e" d="M 179.5,89.5 C 170.014,90.4938 160.348,90.8271 150.5,90.5C 150.5,100.167 150.5,109.833 150.5,119.5C 150.167,119.5 149.833,119.5 149.5,119.5C 149.5,109.5 149.5,99.5 149.5,89.5C 159.5,89.5 169.5,89.5 179.5,89.5 Z"/></g>
<g><path style="opacity:1" fill="#010203" d="M 179.5,89.5 C 179.833,89.5 180.167,89.5 180.5,89.5C 180.5,99.5 180.5,109.5 180.5,119.5C 170.5,119.5 160.5,119.5 150.5,119.5C 150.5,109.833 150.5,100.167 150.5,90.5C 160.348,90.8271 170.014,90.4938 179.5,89.5 Z"/></g>
<g><path style="opacity:0.953" fill="#000000" d="M 270.5,60.5 C 280.833,60.5 291.167,60.5 301.5,60.5C 301.5,70.5 301.5,80.5 301.5,90.5C 291.5,90.5 281.5,90.5 271.5,90.5C 271.5,100.5 271.5,110.5 271.5,120.5C 261.167,120.5 250.833,120.5 240.5,120.5C 240.5,110.5 240.5,100.5 240.5,90.5C 250.5,90.5 260.5,90.5 270.5,90.5C 270.5,80.5 270.5,70.5 270.5,60.5 Z"/></g>
<g><path style="opacity:0.989" fill="#000000" d="M -0.5,119.5 C 9.5,119.5 19.5,119.5 29.5,119.5C 29.5,119.833 29.5,120.167 29.5,120.5C 29.5,130.5 29.5,140.5 29.5,150.5C 39.5,150.5 49.5,150.5 59.5,150.5C 59.5,160.5 59.5,170.5 59.5,180.5C 39.5,180.5 19.5,180.5 -0.5,180.5C -0.5,160.167 -0.5,139.833 -0.5,119.5 Z"/></g>
<g><path style="opacity:0.979" fill="#ffc906" d="M 300.5,119.5 C 310.833,119.5 321.167,119.5 331.5,119.5C 331.5,129.833 331.5,140.167 331.5,150.5C 321.167,150.5 310.833,150.5 300.5,150.5C 300.5,140.167 300.5,129.833 300.5,119.5 Z"/></g>
<g><path style="opacity:1" fill="#e97098" d="M 29.5,120.5 C 59.5,120.5 89.5,120.5 119.5,120.5C 119.5,130.167 119.5,139.833 119.5,149.5C 109.5,149.5 99.5,149.5 89.5,149.5C 89.5,159.5 89.5,169.5 89.5,179.5C 79.8333,179.5 70.1667,179.5 60.5,179.5C 60.8271,169.652 60.4938,159.986 59.5,150.5C 49.5,150.5 39.5,150.5 29.5,150.5C 29.5,140.5 29.5,130.5 29.5,120.5 Z"/></g>
<g><path style="opacity:1" fill="#73374b" d="M 119.5,29.5 C 119.833,29.5 120.167,29.5 120.5,29.5C 120.5,59.5 120.5,89.5 120.5,119.5C 130.167,119.5 139.833,119.5 149.5,119.5C 149.833,119.5 150.167,119.5 150.5,119.5C 160.5,119.5 170.5,119.5 180.5,119.5C 180.5,119.833 180.5,120.167 180.5,120.5C 180.167,120.5 179.833,120.5 179.5,120.5C 169.833,120.5 160.167,120.5 150.5,120.5C 150.5,130.5 150.5,140.5 150.5,150.5C 140.5,150.5 130.5,150.5 120.5,150.5C 120.5,160.167 120.5,169.833 120.5,179.5C 120.5,179.833 120.5,180.167 120.5,180.5C 120.167,180.5 119.833,180.5 119.5,180.5C 119.5,170.5 119.5,160.5 119.5,150.5C 109.833,150.5 100.167,150.5 90.5,150.5C 90.8271,160.348 90.4938,170.014 89.5,179.5C 89.5,169.5 89.5,159.5 89.5,149.5C 99.5,149.5 109.5,149.5 119.5,149.5C 119.5,139.833 119.5,130.167 119.5,120.5C 89.5,120.5 59.5,120.5 29.5,120.5C 29.5,120.167 29.5,119.833 29.5,119.5C 59.5,119.5 89.5,119.5 119.5,119.5C 119.5,89.5 119.5,59.5 119.5,29.5 Z"/></g>
<g><path style="opacity:1" fill="#000000" d="M 120.5,120.5 C 130.167,120.5 139.833,120.5 149.5,120.5C 149.5,130.167 149.5,139.833 149.5,149.5C 139.833,149.5 130.167,149.5 120.5,149.5C 120.5,139.833 120.5,130.167 120.5,120.5 Z"/></g>
<g><path style="opacity:1" fill="#ea7198" d="M 179.5,120.5 C 179.5,140.167 179.5,159.833 179.5,179.5C 159.833,179.5 140.167,179.5 120.5,179.5C 120.5,169.833 120.5,160.167 120.5,150.5C 130.5,150.5 140.5,150.5 150.5,150.5C 150.5,140.5 150.5,130.5 150.5,120.5C 160.167,120.5 169.833,120.5 179.5,120.5 Z"/></g>
<g><path style="opacity:0.985" fill="#000000" d="M 240.5,120.5 C 240.5,130.5 240.5,140.5 240.5,150.5C 230.5,150.5 220.5,150.5 210.5,150.5C 210.5,140.5 210.5,130.5 210.5,120.5C 220.5,120.5 230.5,120.5 240.5,120.5 Z"/></g>
<g><path style="opacity:1" fill="#010203" d="M 119.5,180.5 C 109.5,180.5 99.5,180.5 89.5,180.5C 89.5,180.167 89.5,179.833 89.5,179.5C 90.4938,170.014 90.8271,160.348 90.5,150.5C 100.167,150.5 109.833,150.5 119.5,150.5C 119.5,160.5 119.5,170.5 119.5,180.5 Z"/></g>
<g><path style="opacity:0.994" fill="#000001" d="M 180.5,150.5 C 190.5,150.5 200.5,150.5 210.5,150.5C 210.5,160.167 210.5,169.833 210.5,179.5C 300.833,179.5 391.167,179.5 481.5,179.5C 481.5,189.5 481.5,199.5 481.5,209.5C 481.5,209.833 481.5,210.167 481.5,210.5C 471.5,210.5 461.5,210.5 451.5,210.5C 451.167,210.5 450.833,210.5 450.5,210.5C 420.5,210.5 390.5,210.5 360.5,210.5C 360.5,300.833 360.5,391.167 360.5,481.5C 380.833,481.5 401.167,481.5 421.5,481.5C 441.5,481.5 461.5,481.5 481.5,481.5C 481.5,491.5 481.5,501.5 481.5,511.5C 370.833,511.5 260.167,511.5 149.5,511.5C 149.5,501.5 149.5,491.5 149.5,481.5C 190.003,481.832 230.337,481.499 270.5,480.5C 270.5,390.5 270.5,300.5 270.5,210.5C 230.5,210.5 190.5,210.5 150.5,210.5C 150.5,200.5 150.5,190.5 150.5,180.5C 160.5,180.5 170.5,180.5 180.5,180.5C 180.5,170.5 180.5,160.5 180.5,150.5 Z"/></g>
<g><path style="opacity:1" fill="#ab526f" d="M 59.5,150.5 C 60.4938,159.986 60.8271,169.652 60.5,179.5C 70.1667,179.5 79.8333,179.5 89.5,179.5C 89.5,179.833 89.5,180.167 89.5,180.5C 79.5,180.5 69.5,180.5 59.5,180.5C 59.5,170.5 59.5,160.5 59.5,150.5 Z"/></g>
<g><path style="opacity:1" fill="#a75573" d="M 179.5,120.5 C 179.833,120.5 180.167,120.5 180.5,120.5C 180.5,130.5 180.5,140.5 180.5,150.5C 180.5,160.5 180.5,170.5 180.5,180.5C 170.5,180.5 160.5,180.5 150.5,180.5C 150.167,180.5 149.833,180.5 149.5,180.5C 139.833,180.5 130.167,180.5 120.5,180.5C 120.5,180.167 120.5,179.833 120.5,179.5C 140.167,179.5 159.833,179.5 179.5,179.5C 179.5,159.833 179.5,140.167 179.5,120.5 Z"/></g>
<g><path style="opacity:0.992" fill="#000000" d="M 59.5,180.5 C 69.5,180.5 79.5,180.5 89.5,180.5C 89.5,190.167 89.5,199.833 89.5,209.5C 79.5,209.5 69.5,209.5 59.5,209.5C 59.5,199.833 59.5,190.167 59.5,180.5 Z"/></g>
<g><path style="opacity:1" fill="#00a6df" d="M 89.5,180.5 C 99.5,180.5 109.5,180.5 119.5,180.5C 119.833,180.5 120.167,180.5 120.5,180.5C 130.167,180.5 139.833,180.5 149.5,180.5C 149.5,190.5 149.5,200.5 149.5,210.5C 139.833,210.5 130.167,210.5 120.5,210.5C 120.5,220.5 120.5,230.5 120.5,240.5C 110.167,240.5 99.8333,240.5 89.5,240.5C 89.5,250.5 89.5,260.5 89.5,270.5C 79.5,270.5 69.5,270.5 59.5,270.5C 59.5,280.5 59.5,290.5 59.5,300.5C 49.5,300.5 39.5,300.5 29.5,300.5C 29.5,280.5 29.5,260.5 29.5,240.5C 39.5,240.5 49.5,240.5 59.5,240.5C 59.5,230.5 59.5,220.5 59.5,210.5C 69.6806,210.827 79.6806,210.494 89.5,209.5C 89.5,199.833 89.5,190.167 89.5,180.5 Z"/></g>
<g><path style="opacity:0.997" fill="#000000" d="M 481.5,209.5 C 491.5,209.5 501.5,209.5 511.5,209.5C 511.5,300.167 511.5,390.833 511.5,481.5C 501.5,481.5 491.5,481.5 481.5,481.5C 481.5,391.167 481.5,300.833 481.5,210.5C 481.5,210.167 481.5,209.833 481.5,209.5 Z"/></g>
<g><path style="opacity:0.986" fill="#000000" d="M 149.5,210.5 C 149.5,300.833 149.5,391.167 149.5,481.5C 139.5,481.5 129.5,481.5 119.5,481.5C 119.5,411.5 119.5,341.5 119.5,271.5C 109.833,271.5 100.167,271.5 90.5,271.5C 90.5,281.5 90.5,291.5 90.5,301.5C 80.5,301.5 70.5,301.5 60.5,301.5C 60.5,311.5 60.5,321.5 60.5,331.5C 50.1667,331.5 39.8333,331.5 29.5,331.5C 29.5,321.5 29.5,311.5 29.5,301.5C 39.6806,301.827 49.6806,301.494 59.5,300.5C 59.5,290.5 59.5,280.5 59.5,270.5C 69.5,270.5 79.5,270.5 89.5,270.5C 89.5,260.5 89.5,250.5 89.5,240.5C 99.8333,240.5 110.167,240.5 120.5,240.5C 120.5,230.5 120.5,220.5 120.5,210.5C 130.167,210.5 139.833,210.5 149.5,210.5 Z"/></g>
<g><path style="opacity:1" fill="#00a8e1" d="M 150.5,210.5 C 190.5,210.5 230.5,210.5 270.5,210.5C 270.5,300.5 270.5,390.5 270.5,480.5C 230.5,480.5 190.5,480.5 150.5,480.5C 150.5,390.5 150.5,300.5 150.5,210.5 Z"/></g>
<g><path style="opacity:1" fill="#c35d7e" d="M 301.5,210.5 C 301.5,300.5 301.5,390.5 301.5,480.5C 311.167,480.5 320.833,480.5 330.5,480.5C 320.681,481.494 310.681,481.827 300.5,481.5C 300.167,390.998 300.501,300.665 301.5,210.5 Z"/></g>
<g><path style="opacity:1" fill="#ea7198" d="M 301.5,210.5 C 311.167,210.5 320.833,210.5 330.5,210.5C 330.5,300.5 330.5,390.5 330.5,480.5C 320.833,480.5 311.167,480.5 301.5,480.5C 301.5,390.5 301.5,300.5 301.5,210.5 Z"/></g>
<g><path style="opacity:1" fill="#00a7df" d="M 450.5,210.5 C 450.5,290.5 450.5,370.5 450.5,450.5C 440.652,450.173 430.986,450.506 421.5,451.5C 421.5,461.5 421.5,471.5 421.5,481.5C 401.167,481.5 380.833,481.5 360.5,481.5C 360.5,391.167 360.5,300.833 360.5,210.5C 390.5,210.5 420.5,210.5 450.5,210.5 Z"/></g>
<g><path style="opacity:1" fill="#039bda" d="M 450.5,210.5 C 450.833,210.5 451.167,210.5 451.5,210.5C 451.5,290.833 451.5,371.167 451.5,451.5C 441.5,451.5 431.5,451.5 421.5,451.5C 430.986,450.506 440.652,450.173 450.5,450.5C 450.5,370.5 450.5,290.5 450.5,210.5 Z"/></g>
<g><path style="opacity:1" fill="#0c74c8" d="M 451.5,210.5 C 461.5,210.5 471.5,210.5 481.5,210.5C 481.5,300.833 481.5,391.167 481.5,481.5C 461.5,481.5 441.5,481.5 421.5,481.5C 421.5,471.5 421.5,461.5 421.5,451.5C 431.5,451.5 441.5,451.5 451.5,451.5C 451.5,371.167 451.5,290.833 451.5,210.5 Z"/></g>
<g><path style="opacity:0.972" fill="#000001" d="M 59.5,209.5 C 69.5,209.5 79.5,209.5 89.5,209.5C 79.6806,210.494 69.6806,210.827 59.5,210.5C 59.5,220.5 59.5,230.5 59.5,240.5C 49.5,240.5 39.5,240.5 29.5,240.5C 29.5,260.5 29.5,280.5 29.5,300.5C 39.5,300.5 49.5,300.5 59.5,300.5C 49.6806,301.494 39.6806,301.827 29.5,301.5C 19.5,301.5 9.5,301.5 -0.5,301.5C -0.5,280.833 -0.5,260.167 -0.5,239.5C 9.5,239.5 19.5,239.5 29.5,239.5C 29.5,229.5 29.5,219.5 29.5,209.5C 39.5,209.5 49.5,209.5 59.5,209.5 Z"/></g>
<g><path style="opacity:1" fill="#00729a" d="M 149.5,180.5 C 149.833,180.5 150.167,180.5 150.5,180.5C 150.5,190.5 150.5,200.5 150.5,210.5C 150.5,300.5 150.5,390.5 150.5,480.5C 190.5,480.5 230.5,480.5 270.5,480.5C 230.337,481.499 190.003,481.832 149.5,481.5C 149.5,391.167 149.5,300.833 149.5,210.5C 149.5,200.5 149.5,190.5 149.5,180.5 Z"/></g>
</svg>
