<?xml version="1.0" encoding="UTF-8"?>
<!DOCTYPE svg PUBLIC "-//W3C//DTD SVG 1.1//EN" "http://www.w3.org/Graphics/SVG/1.1/DTD/svg11.dtd">
<svg xmlns="http://www.w3.org/2000/svg" version="1.1" width="598px" height="598px" style="shape-rendering:geometricPrecision; text-rendering:geometricPrecision; image-rendering:optimizeQuality; fill-rule:evenodd; clip-rule:evenodd" xmlns:xlink="http://www.w3.org/1999/xlink">
<g><path style="opacity:0.795" fill="#fcd48c" d="M 220.5,-0.5 C 263.5,-0.5 306.5,-0.5 349.5,-0.5C 349.5,-0.166667 349.5,0.166667 349.5,0.5C 341.5,0.5 333.5,0.5 325.5,0.5C 290.833,0.5 256.167,0.5 221.5,0.5C 221.826,8.68413 221.492,16.6841 220.5,24.5C 220.5,16.5 220.5,8.5 220.5,0.5C 220.5,0.166667 220.5,-0.166667 220.5,-0.5 Z"/></g>
<g><path style="opacity:1" fill="#df6030" d="M 349.5,-0.5 C 358.5,-0.5 367.5,-0.5 376.5,-0.5C 375.864,8.5645 376.53,17.2312 378.5,25.5C 385.914,24.5921 393.58,24.4254 401.5,25C 402,25.5 402.5,26 403,26.5C 403.5,52.1645 403.667,77.8312 403.5,103.5C 394.318,103.827 385.318,103.493 376.5,102.5C 376.5,77.1667 376.5,51.8333 376.5,26.5C 368.167,26.5 359.833,26.5 351.5,26.5C 350.508,26.6716 349.842,26.3382 349.5,25.5C 349.5,17.1667 349.5,8.83333 349.5,0.5C 349.5,0.166667 349.5,-0.166667 349.5,-0.5 Z"/></g>
<g><path style="opacity:1" fill="#ffa11a" d="M 325.5,0.5 C 325.5,8.83333 325.5,17.1667 325.5,25.5C 333.5,25.5 341.5,25.5 349.5,25.5C 349.842,26.3382 350.508,26.6716 351.5,26.5C 351.5,26.8333 351.5,27.1667 351.5,27.5C 351.5,35.5 351.5,43.5 351.5,51.5C 351.5,68.5 351.5,85.5 351.5,102.5C 359.833,102.5 368.167,102.5 376.5,102.5C 385.318,103.493 394.318,103.827 403.5,103.5C 411.316,104.492 419.316,104.826 427.5,104.5C 427.169,112.86 427.502,121.193 428.5,129.5C 437.112,130.471 445.779,130.804 454.5,130.5C 454.5,138.5 454.5,146.5 454.5,154.5C 454.5,189.5 454.5,224.5 454.5,259.5C 445.833,259.5 437.167,259.5 428.5,259.5C 428.5,268.167 428.5,276.833 428.5,285.5C 402.5,285.5 376.5,285.5 350.5,285.5C 315.833,285.5 281.167,285.5 246.5,285.5C 203.832,285.667 161.165,285.5 118.5,285C 117.517,276.585 117.183,268.085 117.5,259.5C 108.833,259.5 100.167,259.5 91.5,259.5C 91.1724,216.094 91.5057,172.761 92.5,129.5C 100.5,129.5 108.5,129.5 116.5,129.5C 117.167,121.167 117.833,112.833 118.5,104.5C 144.005,104.831 169.339,104.498 194.5,103.5C 195.498,78.0054 195.831,52.3388 195.5,26.5C 204.234,27.135 212.567,26.4684 220.5,24.5C 221.492,16.6841 221.826,8.68413 221.5,0.5C 256.167,0.5 290.833,0.5 325.5,0.5 Z M 273.5,52.5 C 290.5,52.5 307.5,52.5 324.5,52.5C 324.5,78.1667 324.5,103.833 324.5,129.5C 307.5,129.5 290.5,129.5 273.5,129.5C 273.5,103.833 273.5,78.1667 273.5,52.5 Z M 219.5,157.5 C 219.5,182.5 219.5,207.5 219.5,232.5C 203.167,232.5 186.833,232.5 170.5,232.5C 170.5,207.167 170.5,181.833 170.5,156.5C 187.013,156.858 203.346,157.191 219.5,157.5 Z M 427.5,232.5 C 410.833,232.5 394.167,232.5 377.5,232.5C 377.333,207.498 377.5,182.498 378,157.5C 384.923,156.842 391.923,156.509 399,156.5C 408.571,156.625 417.904,156.958 427,157.5C 427.5,182.498 427.667,207.498 427.5,232.5 Z M 324.5,182.5 C 324.5,207.833 324.5,233.167 324.5,258.5C 307.5,258.5 290.5,258.5 273.5,258.5C 273.5,233.167 273.5,207.833 273.5,182.5C 290.5,182.5 307.5,182.5 324.5,182.5 Z"/></g>
<g><path style="opacity:0.502" fill="#efb8a3" d="M 376.5,-0.5 C 376.833,-0.5 377.167,-0.5 377.5,-0.5C 377.197,8.25108 377.53,16.9177 378.5,25.5C 376.53,17.2312 375.864,8.5645 376.5,-0.5 Z"/></g>
<g><path style="opacity:1" fill="#f9f240" d="M 325.5,0.5 C 333.5,0.5 341.5,0.5 349.5,0.5C 349.5,8.83333 349.5,17.1667 349.5,25.5C 341.5,25.5 333.5,25.5 325.5,25.5C 325.5,17.1667 325.5,8.83333 325.5,0.5 Z"/></g>
<g><path style="opacity:0.753" fill="#fedba5" d="M 220.5,0.5 C 220.5,8.5 220.5,16.5 220.5,24.5C 212.567,26.4684 204.234,27.135 195.5,26.5C 195.831,52.3388 195.498,78.0054 194.5,103.5C 194.333,77.4979 194.5,51.4979 195,25.5C 203,24.1667 211,24.1667 219,25.5C 219.171,16.9899 219.671,8.65657 220.5,0.5 Z"/></g>
<g><path style="opacity:1" fill="#fbf340" d="M 351.5,27.5 C 359.5,27.5 367.5,27.5 375.5,27.5C 375.5,35.5 375.5,43.5 375.5,51.5C 367.5,51.5 359.5,51.5 351.5,51.5C 351.5,43.5 351.5,35.5 351.5,27.5 Z"/></g>
<g><path style="opacity:1" fill="#de5c2b" d="M 273.5,52.5 C 273.5,78.1667 273.5,103.833 273.5,129.5C 264.77,130.669 256.104,130.669 247.5,129.5C 246.334,103.84 246.167,78.1732 247,52.5C 255.932,51.1719 264.765,51.1719 273.5,52.5 Z"/></g>
<g><path style="opacity:1" fill="#fed531" d="M 351.5,27.5 C 351.5,27.1667 351.5,26.8333 351.5,26.5C 359.833,26.5 368.167,26.5 376.5,26.5C 376.5,51.8333 376.5,77.1667 376.5,102.5C 368.167,102.5 359.833,102.5 351.5,102.5C 351.5,85.5 351.5,68.5 351.5,51.5C 359.5,51.5 367.5,51.5 375.5,51.5C 375.5,43.5 375.5,35.5 375.5,27.5C 367.5,27.5 359.5,27.5 351.5,27.5 Z"/></g>
<g><path style="opacity:1" fill="#ffd69f" d="M 194.5,103.5 C 169.339,104.498 144.005,104.831 118.5,104.5C 118.5,104.167 118.5,103.833 118.5,103.5C 143.706,102.181 169.039,102.181 194.5,103.5 Z"/></g>
<g><path style="opacity:1" fill="#fddaa8" d="M 428.5,103.5 C 427.833,103.5 427.5,103.833 427.5,104.5C 419.316,104.826 411.316,104.492 403.5,103.5C 411.565,102.823 419.898,102.823 428.5,103.5 Z"/></g>
<g><path style="opacity:1" fill="#f1bda8" d="M 454.5,103.5 C 462.498,102.562 470.498,102.229 478.5,102.5C 479.522,102.855 480.189,103.522 480.5,104.5C 472.167,104.5 463.833,104.5 455.5,104.5C 455.5,103.833 455.167,103.5 454.5,103.5 Z"/></g>
<g><path style="opacity:1" fill="#df602f" d="M 455.5,104.5 C 463.833,104.5 472.167,104.5 480.5,104.5C 480.5,112.833 480.5,121.167 480.5,129.5C 489.5,129.5 498.5,129.5 507.5,129.5C 507.832,173.003 507.499,216.337 506.5,259.5C 497.833,259.5 489.167,259.5 480.5,259.5C 480.832,224.329 480.498,189.329 479.5,154.5C 479.5,146.167 479.5,137.833 479.5,129.5C 471.167,129.5 462.833,129.5 454.5,129.5C 454.174,120.983 454.507,112.65 455.5,104.5 Z"/></g>
<g><path style="opacity:0.124" fill="#fce7c1" d="M 118.5,103.5 C 118.5,103.833 118.5,104.167 118.5,104.5C 117.833,112.833 117.167,121.167 116.5,129.5C 115.864,120.435 116.53,111.769 118.5,103.5 Z"/></g>
<g><path style="opacity:1" fill="#fcf240" d="M 454.5,103.5 C 455.167,103.5 455.5,103.833 455.5,104.5C 454.507,112.65 454.174,120.983 454.5,129.5C 462.833,129.5 471.167,129.5 479.5,129.5C 479.5,137.833 479.5,146.167 479.5,154.5C 471.167,154.5 462.833,154.5 454.5,154.5C 454.5,146.5 454.5,138.5 454.5,130.5C 445.779,130.804 437.112,130.471 428.5,129.5C 427.502,121.193 427.169,112.86 427.5,104.5C 427.5,103.833 427.833,103.5 428.5,103.5C 436.957,103.427 445.624,103.427 454.5,103.5 Z"/></g>
<g><path style="opacity:0.388" fill="#fedca9" d="M 92.5,129.5 C 91.5057,172.761 91.1724,216.094 91.5,259.5C 90.8334,238.003 90.5,216.336 90.5,194.5C 90.5003,172.49 91.167,150.823 92.5,129.5 Z"/></g>
<g><path style="opacity:1" fill="#e87325" d="M 170.5,155.5 C 170.167,155.5 169.833,155.5 169.5,155.5C 160.582,155.183 151.749,155.516 143,156.5C 142.333,181.833 142.333,207.167 143,232.5C 146.098,234.047 149.431,234.714 153,234.5C 158.497,234.056 163.997,233.722 169.5,233.5C 169.833,233.5 170.167,233.5 170.5,233.5C 162.052,235.301 153.385,235.801 144.5,235C 143.584,234.626 142.75,234.126 142,233.5C 141.333,207.5 141.333,181.5 142,155.5C 151.598,154.172 161.098,154.172 170.5,155.5 Z"/></g>
<g><path style="opacity:1" fill="#fed431" d="M 454.5,154.5 C 462.833,154.5 471.167,154.5 479.5,154.5C 479.5,189.5 479.5,224.5 479.5,259.5C 471.316,259.174 463.316,259.508 455.5,260.5C 454.167,268.5 454.167,276.5 455.5,284.5C 455.5,284.833 455.5,285.167 455.5,285.5C 446.5,285.5 437.5,285.5 428.5,285.5C 428.5,276.833 428.5,268.167 428.5,259.5C 437.167,259.5 445.833,259.5 454.5,259.5C 454.5,224.5 454.5,189.5 454.5,154.5 Z"/></g>
<g><path style="opacity:1" fill="#f5b049" d="M 479.5,154.5 C 480.498,189.329 480.832,224.329 480.5,259.5C 489.167,259.5 497.833,259.5 506.5,259.5C 498.016,260.493 489.349,260.826 480.5,260.5C 480.167,260.5 479.833,260.5 479.5,260.5C 471.5,260.5 463.5,260.5 455.5,260.5C 463.316,259.508 471.316,259.174 479.5,259.5C 479.5,224.5 479.5,189.5 479.5,154.5 Z"/></g>
<g><path style="opacity:1" fill="#dd5c2a" d="M 169.5,155.5 C 169.5,181.5 169.5,207.5 169.5,233.5C 163.997,233.722 158.497,234.056 153,234.5C 149.431,234.714 146.098,234.047 143,232.5C 142.333,207.167 142.333,181.833 143,156.5C 151.749,155.516 160.582,155.183 169.5,155.5 Z"/></g>
<g><path style="opacity:1" fill="#f7caa2" d="M 169.5,155.5 C 169.833,155.5 170.167,155.5 170.5,155.5C 187.534,154.848 204.2,155.515 220.5,157.5C 220.167,157.5 219.833,157.5 219.5,157.5C 203.346,157.191 187.013,156.858 170.5,156.5C 170.5,181.833 170.5,207.167 170.5,232.5C 170.5,232.833 170.5,233.167 170.5,233.5C 170.167,233.5 169.833,233.5 169.5,233.5C 169.5,207.5 169.5,181.5 169.5,155.5 Z"/></g>
<g><path style="opacity:1" fill="#de5c2b" d="M 376.5,156.5 C 376.5,181.833 376.5,207.167 376.5,232.5C 369.173,232.944 361.84,233.277 354.5,233.5C 353.791,232.596 352.791,232.263 351.5,232.5C 351.5,207.5 351.5,182.5 351.5,157.5C 359.65,156.507 367.983,156.174 376.5,156.5 Z"/></g>
<g><path style="opacity:0.262" fill="#fdebcd" d="M 219.5,157.5 C 219.833,157.5 220.167,157.5 220.5,157.5C 220.5,182.833 220.5,208.167 220.5,233.5C 203.833,233.5 187.167,233.5 170.5,233.5C 170.5,233.167 170.5,232.833 170.5,232.5C 186.833,232.5 203.167,232.5 219.5,232.5C 219.5,207.5 219.5,182.5 219.5,157.5 Z"/></g>
<g><path style="opacity:0.527" fill="#fad5a9" d="M 427.5,232.5 C 410.5,233.833 393.5,233.833 376.5,232.5C 376.5,207.167 376.5,181.833 376.5,156.5C 393.667,155.173 410.833,155.173 428,156.5C 428.83,182.003 428.663,207.337 427.5,232.5 Z M 427.5,232.5 C 427.667,207.498 427.5,182.498 427,157.5C 417.904,156.958 408.571,156.625 399,156.5C 391.923,156.509 384.923,156.842 378,157.5C 377.5,182.498 377.333,207.498 377.5,232.5C 394.167,232.5 410.833,232.5 427.5,232.5 Z"/></g>
<g><path style="opacity:1" fill="#ee7d22" d="M 351.5,157.5 C 351.5,182.5 351.5,207.5 351.5,232.5C 352.791,232.263 353.791,232.596 354.5,233.5C 353.167,233.5 351.833,233.5 350.5,233.5C 350.169,207.995 350.502,182.661 351.5,157.5 Z"/></g>
<g><path style="opacity:1" fill="#de5c2a" d="M 272.5,181.5 C 272.169,207.339 272.502,233.005 273.5,258.5C 264.682,259.493 255.682,259.827 246.5,259.5C 246.213,233.479 246.546,207.479 247.5,181.5C 255.833,181.5 264.167,181.5 272.5,181.5 Z"/></g>
<g><path style="opacity:0.572" fill="#efa379" d="M 272.5,181.5 C 290.008,181.17 307.341,181.503 324.5,182.5C 307.5,182.5 290.5,182.5 273.5,182.5C 273.5,207.833 273.5,233.167 273.5,258.5C 272.502,233.005 272.169,207.339 272.5,181.5 Z"/></g>
<g><path style="opacity:1" fill="#dd5c2a" d="M 455.5,260.5 C 463.5,260.5 471.5,260.5 479.5,260.5C 479.5,268.5 479.5,276.5 479.5,284.5C 471.5,284.5 463.5,284.5 455.5,284.5C 454.167,276.5 454.167,268.5 455.5,260.5 Z"/></g>
<g><path style="opacity:1" fill="#e89373" d="M 479.5,260.5 C 479.833,260.5 480.167,260.5 480.5,260.5C 480.826,269.017 480.493,277.35 479.5,285.5C 471.5,285.5 463.5,285.5 455.5,285.5C 455.5,285.167 455.5,284.833 455.5,284.5C 463.5,284.5 471.5,284.5 479.5,284.5C 479.5,276.5 479.5,268.5 479.5,260.5 Z"/></g>
<g><path style="opacity:0.11" fill="#fce4c2" d="M 91.5,259.5 C 100.167,259.5 108.833,259.5 117.5,259.5C 117.183,268.085 117.517,276.585 118.5,285C 161.165,285.5 203.832,285.667 246.5,285.5C 246.5,285.833 246.5,286.167 246.5,286.5C 203.499,286.667 160.499,286.5 117.5,286C 116.517,277.585 116.183,269.085 116.5,260.5C 107.983,260.826 99.6499,260.493 91.5,259.5 Z"/></g>
<g><path style="opacity:1" fill="#de5c2a" d="M 246.5,286.5 C 246.5,286.167 246.5,285.833 246.5,285.5C 281.167,285.5 315.833,285.5 350.5,285.5C 350.5,294.167 350.5,302.833 350.5,311.5C 342.167,311.5 333.833,311.5 325.5,311.5C 325.5,406.5 325.5,501.5 325.5,596.5C 316.5,596.5 307.5,596.5 298.5,596.5C 298.5,510.5 298.5,424.5 298.5,338.5C 298.817,329.582 298.484,320.749 297.5,312C 280.837,311.5 264.17,311.333 247.5,311.5C 247.826,302.983 247.493,294.65 246.5,286.5 Z"/></g>
<g><path style="opacity:1" fill="#ffa321" d="M 246.5,286.5 C 247.493,294.65 247.826,302.983 247.5,311.5C 264.17,311.333 280.837,311.5 297.5,312C 298.484,320.749 298.817,329.582 298.5,338.5C 290.252,337.531 281.918,337.198 273.5,337.5C 273.832,372.004 273.498,406.337 272.5,440.5C 264.5,440.5 256.5,440.5 248.5,440.5C 247.277,432.161 247.277,423.828 248.5,415.5C 248.253,414.287 247.586,413.62 246.5,413.5C 246.5,371.167 246.5,328.833 246.5,286.5 Z"/></g>
<g><path style="opacity:1" fill="#f4811d" d="M 350.5,311.5 C 350.5,406.5 350.5,501.5 350.5,596.5C 342.167,596.5 333.833,596.5 325.5,596.5C 325.5,501.5 325.5,406.5 325.5,311.5C 333.833,311.5 342.167,311.5 350.5,311.5 Z"/></g>
<g><path style="opacity:1" fill="#fcf240" d="M 298.5,338.5 C 298.5,424.5 298.5,510.5 298.5,596.5C 290.167,596.5 281.833,596.5 273.5,596.5C 274.153,578.801 273.486,561.468 271.5,544.5C 272.489,536.634 272.823,528.634 272.5,520.5C 272.5,519.833 272.5,519.167 272.5,518.5C 273.166,510.007 273.5,501.34 273.5,492.5C 273.498,483.473 272.831,474.807 271.5,466.5C 272.467,458.586 272.801,450.586 272.5,442.5C 272.5,441.833 272.5,441.167 272.5,440.5C 273.498,406.337 273.832,372.004 273.5,337.5C 281.918,337.198 290.252,337.531 298.5,338.5 Z"/></g>
<g><path style="opacity:0.031" fill="#f9e7ce" d="M 350.5,285.5 C 376.5,285.5 402.5,285.5 428.5,285.5C 437.5,285.5 446.5,285.5 455.5,285.5C 463.5,285.5 471.5,285.5 479.5,285.5C 437.003,286.499 394.337,286.832 351.5,286.5C 351.833,390.001 351.499,493.335 350.5,596.5C 350.5,501.5 350.5,406.5 350.5,311.5C 350.5,302.833 350.5,294.167 350.5,285.5 Z"/></g>
<g><path style="opacity:1" fill="#de5e2c" d="M 246.5,413.5 C 247.586,413.62 248.253,414.287 248.5,415.5C 247.277,423.828 247.277,432.161 248.5,440.5C 248.5,441.167 248.5,441.833 248.5,442.5C 248.481,450.407 248.481,458.407 248.5,466.5C 239.343,467.658 230.009,467.824 220.5,467C 219.944,466.617 219.611,466.117 219.5,465.5C 219.5,448.5 219.5,431.5 219.5,414.5C 228.682,414.827 237.682,414.493 246.5,413.5 Z"/></g>
<g><path style="opacity:1" fill="#ffa11a" d="M 142.5,415.5 C 160.5,415.5 178.5,415.5 196.5,415.5C 196.333,432.17 196.5,448.837 197,465.5C 204.432,466.408 211.932,466.408 219.5,465.5C 219.611,466.117 219.944,466.617 220.5,467C 230.009,467.824 239.343,467.658 248.5,466.5C 256.167,466.5 263.833,466.5 271.5,466.5C 272.831,474.807 273.498,483.473 273.5,492.5C 273.5,501.34 273.166,510.007 272.5,518.5C 264.5,518.5 256.5,518.5 248.5,518.5C 239.494,518.334 230.494,518.5 221.5,519C 220.584,519.278 219.918,519.778 219.5,520.5C 211.92,519.534 204.253,519.201 196.5,519.5C 196.5,536.5 196.5,553.5 196.5,570.5C 178.423,570.819 160.423,570.486 142.5,569.5C 142.333,552.497 142.5,535.497 143,518.5C 151.352,517.344 159.519,517.344 167.5,518.5C 168.825,514.724 169.491,510.557 169.5,506C 169.491,501.443 168.825,497.276 167.5,493.5C 159.35,492.507 151.017,492.174 142.5,492.5C 142.5,483.833 142.5,475.167 142.5,466.5C 151.167,466.5 159.833,466.5 168.5,466.5C 169.166,462.514 169.499,458.347 169.5,454C 169.491,449.443 168.825,445.276 167.5,441.5C 159.266,440.806 150.933,440.139 142.5,439.5C 142.5,431.5 142.5,423.5 142.5,415.5 Z"/></g>
<g><path style="opacity:1" fill="#fed53a" d="M 142.5,415.5 C 167.995,414.502 193.661,414.169 219.5,414.5C 219.5,431.5 219.5,448.5 219.5,465.5C 211.932,466.408 204.432,466.408 197,465.5C 196.5,448.837 196.333,432.17 196.5,415.5C 178.5,415.5 160.5,415.5 142.5,415.5 Z"/></g>
<g><path style="opacity:1" fill="#fecd84" d="M 142.5,439.5 C 150.933,440.139 159.266,440.806 167.5,441.5C 159.5,441.5 151.5,441.5 143.5,441.5C 142.662,441.158 142.328,440.492 142.5,439.5 Z"/></g>
<g><path style="opacity:0.123" fill="#fcdfb2" d="M 248.5,440.5 C 256.5,440.5 264.5,440.5 272.5,440.5C 272.5,441.167 272.5,441.833 272.5,442.5C 264.5,442.5 256.5,442.5 248.5,442.5C 248.5,441.833 248.5,441.167 248.5,440.5 Z"/></g>
<g><path style="opacity:0.333" fill="#fde2b6" d="M 143.5,441.5 C 151.5,441.5 159.5,441.5 167.5,441.5C 168.825,445.276 169.491,449.443 169.5,454C 169.499,458.347 169.166,462.514 168.5,466.5C 168.5,458.5 168.5,450.5 168.5,442.5C 159.983,442.826 151.65,442.493 143.5,441.5 Z"/></g>
<g><path style="opacity:0.985" fill="#fcd496" d="M 142.5,492.5 C 151.017,492.174 159.35,492.507 167.5,493.5C 159.762,493.266 151.929,493.599 144,494.5C 143.283,493.956 142.783,493.289 142.5,492.5 Z"/></g>
<g><path style="opacity:0.295" fill="#f9ddad" d="M 167.5,493.5 C 168.825,497.276 169.491,501.443 169.5,506C 169.491,510.557 168.825,514.724 167.5,518.5C 168.806,510.136 168.806,501.803 167.5,493.5 Z"/></g>
<g><path style="opacity:1" fill="#de5d2b" d="M 248.5,518.5 C 248.5,518.833 248.5,519.167 248.5,519.5C 247.457,527.805 247.457,536.138 248.5,544.5C 247.859,553.599 247.192,562.599 246.5,571.5C 237.5,571.5 228.5,571.5 219.5,571.5C 219.5,571.167 219.5,570.833 219.5,570.5C 219.5,553.833 219.5,537.167 219.5,520.5C 219.918,519.778 220.584,519.278 221.5,519C 230.494,518.5 239.494,518.334 248.5,518.5 Z"/></g>
<g><path style="opacity:0.494" fill="#fed18e" d="M 248.5,519.5 C 248.5,519.167 248.5,518.833 248.5,518.5C 256.5,518.5 264.5,518.5 272.5,518.5C 272.5,519.167 272.5,519.833 272.5,520.5C 264.586,519.533 256.586,519.199 248.5,519.5 Z"/></g>
<g><path style="opacity:1" fill="#fed533" d="M 219.5,520.5 C 219.5,537.167 219.5,553.833 219.5,570.5C 211.833,570.5 204.167,570.5 196.5,570.5C 196.5,553.5 196.5,536.5 196.5,519.5C 204.253,519.201 211.92,519.534 219.5,520.5 Z"/></g>
<g><path style="opacity:1" fill="#ffa62b" d="M 248.5,544.5 C 256.167,544.5 263.833,544.5 271.5,544.5C 273.486,561.468 274.153,578.801 273.5,596.5C 281.833,596.5 290.167,596.5 298.5,596.5C 307.5,596.5 316.5,596.5 325.5,596.5C 333.833,596.5 342.167,596.5 350.5,596.5C 350.5,596.833 350.5,597.167 350.5,597.5C 316.167,597.5 281.833,597.5 247.5,597.5C 246.53,588.918 246.197,580.251 246.5,571.5C 247.192,562.599 247.859,553.599 248.5,544.5 Z"/></g>
<g><path style="opacity:0.447" fill="#fde0a7" d="M 142.5,569.5 C 160.423,570.486 178.423,570.819 196.5,570.5C 204.167,570.5 211.833,570.5 219.5,570.5C 219.5,570.833 219.5,571.167 219.5,571.5C 193.478,572.157 167.812,571.491 142.5,569.5 Z"/></g>
</svg>
