<?xml version="1.0" encoding="UTF-8"?>
<!DOCTYPE svg PUBLIC "-//W3C//DTD SVG 1.1//EN" "http://www.w3.org/Graphics/SVG/1.1/DTD/svg11.dtd">
<svg xmlns="http://www.w3.org/2000/svg" version="1.1" width="512px" height="512px" style="shape-rendering:geometricPrecision; text-rendering:geometricPrecision; image-rendering:optimizeQuality; fill-rule:evenodd; clip-rule:evenodd" xmlns:xlink="http://www.w3.org/1999/xlink">
<g><path style="opacity:0.998" fill="#221f1f" d="M 185.5,-0.5 C 232.167,-0.5 278.833,-0.5 325.5,-0.5C 325.5,7.16667 325.5,14.8333 325.5,22.5C 278.833,22.5 232.167,22.5 185.5,22.5C 185.5,14.8333 185.5,7.16667 185.5,-0.5 Z"/></g>
<g><path style="opacity:0.972" fill="#231e20" d="M 185.5,22.5 C 185.5,30.1667 185.5,37.8333 185.5,45.5C 169.833,45.5 154.167,45.5 138.5,45.5C 138.5,37.8333 138.5,30.1667 138.5,22.5C 154.167,22.5 169.833,22.5 185.5,22.5 Z"/></g>
<g><path style="opacity:0.972" fill="#231e20" d="M 325.5,22.5 C 341.167,22.5 356.833,22.5 372.5,22.5C 372.5,30.1667 372.5,37.8333 372.5,45.5C 356.833,45.5 341.167,45.5 325.5,45.5C 325.5,37.8333 325.5,30.1667 325.5,22.5 Z"/></g>
<g><path style="opacity:1" fill="#fecb4c" d="M 185.5,22.5 C 232.167,22.5 278.833,22.5 325.5,22.5C 325.5,30.1667 325.5,37.8333 325.5,45.5C 340.658,46.4962 355.991,46.8295 371.5,46.5C 371.175,54.3516 371.508,62.0182 372.5,69.5C 387.833,69.5 403.167,69.5 418.5,69.5C 418.5,77.1667 418.5,84.8333 418.5,92.5C 426.167,92.5 433.833,92.5 441.5,92.5C 441.5,107.833 441.5,123.167 441.5,138.5C 448.982,139.492 456.648,139.825 464.5,139.5C 464.17,155.009 464.504,170.342 465.5,185.5C 473.167,185.5 480.833,185.5 488.5,185.5C 488.5,232.167 488.5,278.833 488.5,325.5C 480.833,325.5 473.167,325.5 465.5,325.5C 465.825,317.648 465.492,309.982 464.5,302.5C 441.5,302.5 418.5,302.5 395.5,302.5C 395.5,309.833 395.5,317.167 395.5,324.5C 418.327,325.498 441.327,325.831 464.5,325.5C 464.5,333.167 464.5,340.833 464.5,348.5C 456.833,348.5 449.167,348.5 441.5,348.5C 441.5,356.167 441.5,363.833 441.5,371.5C 441.5,371.833 441.5,372.167 441.5,372.5C 441.5,380.167 441.5,387.833 441.5,395.5C 433.833,395.5 426.167,395.5 418.5,395.5C 418.5,403.167 418.5,410.833 418.5,418.5C 402.833,418.5 387.167,418.5 371.5,418.5C 371.5,426.167 371.5,433.833 371.5,441.5C 356.167,441.5 340.833,441.5 325.5,441.5C 325.5,433.833 325.5,426.167 325.5,418.5C 333.167,418.5 340.833,418.5 348.5,418.5C 348.5,395.167 348.5,371.833 348.5,348.5C 340.833,348.5 333.167,348.5 325.5,348.5C 325.5,340.833 325.5,333.167 325.5,325.5C 278.833,325.5 232.167,325.5 185.5,325.5C 185.5,333.167 185.5,340.833 185.5,348.5C 177.833,348.5 170.167,348.5 162.5,348.5C 162.5,371.833 162.5,395.167 162.5,418.5C 170.167,418.5 177.833,418.5 185.5,418.5C 185.5,426.167 185.5,433.833 185.5,441.5C 170.167,441.5 154.833,441.5 139.5,441.5C 139.5,433.833 139.5,426.167 139.5,418.5C 123.833,418.5 108.167,418.5 92.5,418.5C 92.5,410.833 92.5,403.167 92.5,395.5C 84.8333,395.5 77.1667,395.5 69.5,395.5C 69.5,387.833 69.5,380.167 69.5,372.5C 69.5,372.167 69.5,371.833 69.5,371.5C 69.5,363.833 69.5,356.167 69.5,348.5C 61.8333,348.5 54.1667,348.5 46.5,348.5C 46.5,340.833 46.5,333.167 46.5,325.5C 69.6727,325.831 92.6727,325.498 115.5,324.5C 115.5,317.167 115.5,309.833 115.5,302.5C 92.5,302.5 69.5,302.5 46.5,302.5C 45.508,309.982 45.1746,317.648 45.5,325.5C 37.8333,325.5 30.1667,325.5 22.5,325.5C 22.5,278.833 22.5,232.167 22.5,185.5C 30.1667,185.5 37.8333,185.5 45.5,185.5C 46.4962,170.342 46.8295,155.009 46.5,139.5C 54.3516,139.825 62.0182,139.492 69.5,138.5C 69.5,123.167 69.5,107.833 69.5,92.5C 77.1667,92.5 84.8333,92.5 92.5,92.5C 92.5,84.8333 92.5,77.1667 92.5,69.5C 107.833,69.5 123.167,69.5 138.5,69.5C 139.492,62.0182 139.825,54.3516 139.5,46.5C 155.009,46.8295 170.342,46.4962 185.5,45.5C 185.5,37.8333 185.5,30.1667 185.5,22.5 Z"/></g>
<g><path style="opacity:1" fill="#896f35" d="M 138.5,45.5 C 154.167,45.5 169.833,45.5 185.5,45.5C 170.342,46.4962 155.009,46.8295 139.5,46.5C 139.825,54.3516 139.492,62.0182 138.5,69.5C 138.5,69.1667 138.5,68.8333 138.5,68.5C 138.5,60.8333 138.5,53.1667 138.5,45.5 Z"/></g>
<g><path style="opacity:1" fill="#896f35" d="M 325.5,45.5 C 341.167,45.5 356.833,45.5 372.5,45.5C 372.5,53.1667 372.5,60.8333 372.5,68.5C 372.5,68.8333 372.5,69.1667 372.5,69.5C 371.508,62.0182 371.175,54.3516 371.5,46.5C 355.991,46.8295 340.658,46.4962 325.5,45.5 Z"/></g>
<g><path style="opacity:0.996" fill="#231e1f" d="M 138.5,45.5 C 138.5,53.1667 138.5,60.8333 138.5,68.5C 123.167,68.5 107.833,68.5 92.5,68.5C 92.5,60.8333 92.5,53.1667 92.5,45.5C 107.833,45.5 123.167,45.5 138.5,45.5 Z"/></g>
<g><path style="opacity:0.996" fill="#231e1f" d="M 372.5,45.5 C 387.833,45.5 403.167,45.5 418.5,45.5C 418.5,53.1667 418.5,60.8333 418.5,68.5C 403.167,68.5 387.833,68.5 372.5,68.5C 372.5,60.8333 372.5,53.1667 372.5,45.5 Z"/></g>
<g><path style="opacity:1" fill="#272220" d="M 92.5,68.5 C 107.833,68.5 123.167,68.5 138.5,68.5C 138.5,68.8333 138.5,69.1667 138.5,69.5C 123.167,69.5 107.833,69.5 92.5,69.5C 92.5,77.1667 92.5,84.8333 92.5,92.5C 84.8333,92.5 77.1667,92.5 69.5,92.5C 69.5,107.833 69.5,123.167 69.5,138.5C 69.1667,138.5 68.8333,138.5 68.5,138.5C 68.5,123.167 68.5,107.833 68.5,92.5C 68.5,84.5 68.5,76.5 68.5,68.5C 76.5,68.5 84.5,68.5 92.5,68.5 Z"/></g>
<g><path style="opacity:1" fill="#272220" d="M 372.5,69.5 C 372.5,69.1667 372.5,68.8333 372.5,68.5C 387.833,68.5 403.167,68.5 418.5,68.5C 426.5,68.5 434.5,68.5 442.5,68.5C 442.5,76.5 442.5,84.5 442.5,92.5C 442.5,107.833 442.5,123.167 442.5,138.5C 442.167,138.5 441.833,138.5 441.5,138.5C 441.5,123.167 441.5,107.833 441.5,92.5C 433.833,92.5 426.167,92.5 418.5,92.5C 418.5,84.8333 418.5,77.1667 418.5,69.5C 403.167,69.5 387.833,69.5 372.5,69.5 Z"/></g>
<g><path style="opacity:0.996" fill="#231e1f" d="M 68.5,92.5 C 68.5,107.833 68.5,123.167 68.5,138.5C 60.8333,138.5 53.1667,138.5 45.5,138.5C 45.5,123.167 45.5,107.833 45.5,92.5C 53.1667,92.5 60.8333,92.5 68.5,92.5 Z"/></g>
<g><path style="opacity:0.996" fill="#231e1f" d="M 442.5,92.5 C 450.167,92.5 457.833,92.5 465.5,92.5C 465.5,107.833 465.5,123.167 465.5,138.5C 457.833,138.5 450.167,138.5 442.5,138.5C 442.5,123.167 442.5,107.833 442.5,92.5 Z"/></g>
<g><path style="opacity:1" fill="#6b562e" d="M 185.5,116.5 C 162.5,116.5 139.5,116.5 116.5,116.5C 116.5,123.833 116.5,131.167 116.5,138.5C 139.5,138.5 162.5,138.5 185.5,138.5C 185.5,138.833 185.5,139.167 185.5,139.5C 170.167,139.5 154.833,139.5 139.5,139.5C 131.5,139.5 123.5,139.5 115.5,139.5C 115.5,131.5 115.5,123.5 115.5,115.5C 139.006,115.169 162.339,115.502 185.5,116.5 Z"/></g>
<g><path style="opacity:1" fill="#6b562e" d="M 325.5,116.5 C 348.661,115.502 371.994,115.169 395.5,115.5C 395.5,123.5 395.5,131.5 395.5,139.5C 387.5,139.5 379.5,139.5 371.5,139.5C 356.167,139.5 340.833,139.5 325.5,139.5C 325.5,139.167 325.5,138.833 325.5,138.5C 348.5,138.5 371.5,138.5 394.5,138.5C 394.5,131.167 394.5,123.833 394.5,116.5C 371.5,116.5 348.5,116.5 325.5,116.5 Z"/></g>
<g><path style="opacity:1" fill="#221f1f" d="M 185.5,116.5 C 185.5,123.833 185.5,131.167 185.5,138.5C 162.5,138.5 139.5,138.5 116.5,138.5C 116.5,131.167 116.5,123.833 116.5,116.5C 139.5,116.5 162.5,116.5 185.5,116.5 Z"/></g>
<g><path style="opacity:1" fill="#221f1f" d="M 325.5,116.5 C 348.5,116.5 371.5,116.5 394.5,116.5C 394.5,123.833 394.5,131.167 394.5,138.5C 371.5,138.5 348.5,138.5 325.5,138.5C 325.5,131.167 325.5,123.833 325.5,116.5 Z"/></g>
<g><path style="opacity:0.972" fill="#231e20" d="M 45.5,138.5 C 45.5,154.167 45.5,169.833 45.5,185.5C 37.8333,185.5 30.1667,185.5 22.5,185.5C 22.5,169.833 22.5,154.167 22.5,138.5C 30.1667,138.5 37.8333,138.5 45.5,138.5 Z"/></g>
<g><path style="opacity:0.972" fill="#231e20" d="M 465.5,138.5 C 473.167,138.5 480.833,138.5 488.5,138.5C 488.5,154.167 488.5,169.833 488.5,185.5C 480.833,185.5 473.167,185.5 465.5,185.5C 465.5,169.833 465.5,154.167 465.5,138.5 Z"/></g>
<g><path style="opacity:1" fill="#896f35" d="M 45.5,138.5 C 53.1667,138.5 60.8333,138.5 68.5,138.5C 68.8333,138.5 69.1667,138.5 69.5,138.5C 62.0182,139.492 54.3516,139.825 46.5,139.5C 46.8295,155.009 46.4962,170.342 45.5,185.5C 45.5,169.833 45.5,154.167 45.5,138.5 Z"/></g>
<g><path style="opacity:1" fill="#ecae3d" d="M 139.5,139.5 C 154.833,139.5 170.167,139.5 185.5,139.5C 185.5,147.167 185.5,154.833 185.5,162.5C 170.167,162.5 154.833,162.5 139.5,162.5C 139.5,154.833 139.5,147.167 139.5,139.5 Z"/></g>
<g><path style="opacity:1" fill="#242020" d="M 185.5,139.5 C 193.167,139.5 200.833,139.5 208.5,139.5C 208.5,147.167 208.5,154.833 208.5,162.5C 200.833,162.5 193.167,162.5 185.5,162.5C 185.5,154.833 185.5,147.167 185.5,139.5 Z"/></g>
<g><path style="opacity:1" fill="#242020" d="M 302.5,139.5 C 310.167,139.5 317.833,139.5 325.5,139.5C 325.5,147.167 325.5,154.833 325.5,162.5C 317.833,162.5 310.167,162.5 302.5,162.5C 302.5,154.833 302.5,147.167 302.5,139.5 Z"/></g>
<g><path style="opacity:1" fill="#ecae3d" d="M 325.5,139.5 C 340.833,139.5 356.167,139.5 371.5,139.5C 371.5,147.167 371.5,154.833 371.5,162.5C 356.167,162.5 340.833,162.5 325.5,162.5C 325.5,154.833 325.5,147.167 325.5,139.5 Z"/></g>
<g><path style="opacity:1" fill="#896f35" d="M 441.5,138.5 C 441.833,138.5 442.167,138.5 442.5,138.5C 450.167,138.5 457.833,138.5 465.5,138.5C 465.5,154.167 465.5,169.833 465.5,185.5C 464.504,170.342 464.17,155.009 464.5,139.5C 456.648,139.825 448.982,139.492 441.5,138.5 Z"/></g>
<g><path style="opacity:1" fill="#e8ac3e" d="M 208.5,139.5 C 209.496,154.658 209.83,169.991 209.5,185.5C 201.833,185.5 194.167,185.5 186.5,185.5C 186.5,193.167 186.5,200.833 186.5,208.5C 186.167,208.5 185.833,208.5 185.5,208.5C 185.5,200.833 185.5,193.167 185.5,185.5C 185.5,177.833 185.5,170.167 185.5,162.5C 193.167,162.5 200.833,162.5 208.5,162.5C 208.5,154.833 208.5,147.167 208.5,139.5 Z"/></g>
<g><path style="opacity:1" fill="#e8ac3e" d="M 302.5,139.5 C 302.5,147.167 302.5,154.833 302.5,162.5C 310.167,162.5 317.833,162.5 325.5,162.5C 325.5,170.167 325.5,177.833 325.5,185.5C 325.5,185.833 325.5,186.167 325.5,186.5C 325.5,193.833 325.5,201.167 325.5,208.5C 325.167,208.5 324.833,208.5 324.5,208.5C 324.5,200.833 324.5,193.167 324.5,185.5C 316.833,185.5 309.167,185.5 301.5,185.5C 301.17,169.991 301.504,154.658 302.5,139.5 Z"/></g>
<g><path style="opacity:0.998" fill="#221f1f" d="M -0.5,185.5 C 7.16667,185.5 14.8333,185.5 22.5,185.5C 22.5,232.167 22.5,278.833 22.5,325.5C 14.8333,325.5 7.16667,325.5 -0.5,325.5C -0.5,278.833 -0.5,232.167 -0.5,185.5 Z"/></g>
<g><path style="opacity:1" fill="#4d4028" d="M 325.5,186.5 C 325.5,186.167 325.5,185.833 325.5,185.5C 348.833,185.5 372.167,185.5 395.5,185.5C 395.5,193.167 395.5,200.833 395.5,208.5C 395.167,208.5 394.833,208.5 394.5,208.5C 394.5,201.167 394.5,193.833 394.5,186.5C 371.5,186.5 348.5,186.5 325.5,186.5 Z"/></g>
<g><path style="opacity:0.998" fill="#221f1f" d="M 488.5,185.5 C 496.167,185.5 503.833,185.5 511.5,185.5C 511.5,232.167 511.5,278.833 511.5,325.5C 503.833,325.5 496.167,325.5 488.5,325.5C 488.5,278.833 488.5,232.167 488.5,185.5 Z"/></g>
<g><path style="opacity:1" fill="#242020" d="M 116.5,185.5 C 139.5,185.5 162.5,185.5 185.5,185.5C 185.5,193.167 185.5,200.833 185.5,208.5C 162.5,208.5 139.5,208.5 116.5,208.5C 116.5,200.833 116.5,193.167 116.5,185.5 Z"/></g>
<g><path style="opacity:1" fill="#221f1f" d="M 325.5,186.5 C 348.5,186.5 371.5,186.5 394.5,186.5C 394.5,193.833 394.5,201.167 394.5,208.5C 371.5,208.5 348.5,208.5 325.5,208.5C 325.5,201.167 325.5,193.833 325.5,186.5 Z"/></g>
<g><path style="opacity:1" fill="#8a7034" d="M 116.5,185.5 C 116.5,193.167 116.5,200.833 116.5,208.5C 139.5,208.5 162.5,208.5 185.5,208.5C 185.833,208.5 186.167,208.5 186.5,208.5C 194.019,208.175 201.352,208.508 208.5,209.5C 201.167,209.5 193.833,209.5 186.5,209.5C 186.167,209.5 185.833,209.5 185.5,209.5C 162.5,209.5 139.5,209.5 116.5,209.5C 116.825,217.352 116.492,225.018 115.5,232.5C 115.5,232.167 115.5,231.833 115.5,231.5C 115.5,224.167 115.5,216.833 115.5,209.5C 108.167,209.5 100.833,209.5 93.5,209.5C 93.1667,209.5 92.8333,209.5 92.5,209.5C 99.9818,208.508 107.648,208.175 115.5,208.5C 115.175,200.648 115.508,192.982 116.5,185.5 Z"/></g>
<g><path style="opacity:1" fill="#957837" d="M 302.5,209.5 C 309.648,208.508 316.981,208.175 324.5,208.5C 324.833,208.5 325.167,208.5 325.5,208.5C 348.5,208.5 371.5,208.5 394.5,208.5C 394.833,208.5 395.167,208.5 395.5,208.5C 403.352,208.175 411.018,208.508 418.5,209.5C 410.833,209.5 403.167,209.5 395.5,209.5C 395.5,217.167 395.5,224.833 395.5,232.5C 394.508,225.018 394.175,217.352 394.5,209.5C 371.5,209.5 348.5,209.5 325.5,209.5C 325.167,209.5 324.833,209.5 324.5,209.5C 317.167,209.5 309.833,209.5 302.5,209.5 Z"/></g>
<g><path style="opacity:1" fill="#221f1f" d="M 93.5,209.5 C 100.833,209.5 108.167,209.5 115.5,209.5C 115.5,216.833 115.5,224.167 115.5,231.5C 108.167,231.5 100.833,231.5 93.5,231.5C 93.5,224.167 93.5,216.833 93.5,209.5 Z"/></g>
<g><path style="opacity:1" fill="#221f1f" d="M 186.5,209.5 C 193.833,209.5 201.167,209.5 208.5,209.5C 208.5,216.833 208.5,224.167 208.5,231.5C 201.167,231.5 193.833,231.5 186.5,231.5C 186.5,224.167 186.5,216.833 186.5,209.5 Z"/></g>
<g><path style="opacity:1" fill="#221f1f" d="M 302.5,209.5 C 309.833,209.5 317.167,209.5 324.5,209.5C 324.5,216.833 324.5,224.167 324.5,231.5C 317.167,231.5 309.833,231.5 302.5,231.5C 302.5,224.167 302.5,216.833 302.5,209.5 Z"/></g>
<g><path style="opacity:1" fill="#241f20" d="M 418.5,209.5 C 418.5,217.167 418.5,224.833 418.5,232.5C 410.833,232.5 403.167,232.5 395.5,232.5C 395.5,224.833 395.5,217.167 395.5,209.5C 403.167,209.5 410.833,209.5 418.5,209.5 Z"/></g>
<g><path style="opacity:1" fill="#443927" d="M 92.5,209.5 C 92.8333,209.5 93.1667,209.5 93.5,209.5C 93.5,216.833 93.5,224.167 93.5,231.5C 100.833,231.5 108.167,231.5 115.5,231.5C 115.5,231.833 115.5,232.167 115.5,232.5C 107.833,232.5 100.167,232.5 92.5,232.5C 92.5,224.833 92.5,217.167 92.5,209.5 Z"/></g>
<g><path style="opacity:1" fill="#433827" d="M 185.5,209.5 C 185.833,209.5 186.167,209.5 186.5,209.5C 186.5,216.833 186.5,224.167 186.5,231.5C 193.833,231.5 201.167,231.5 208.5,231.5C 208.5,231.833 208.5,232.167 208.5,232.5C 200.833,232.5 193.167,232.5 185.5,232.5C 185.5,224.833 185.5,217.167 185.5,209.5 Z"/></g>
<g><path style="opacity:1" fill="#876e34" d="M 302.5,209.5 C 302.5,216.833 302.5,224.167 302.5,231.5C 302.5,231.833 302.5,232.167 302.5,232.5C 302.83,248.009 302.496,263.342 301.5,278.5C 301.5,263.167 301.5,247.833 301.5,232.5C 294.167,232.5 286.833,232.5 279.5,232.5C 279.5,247.833 279.5,263.167 279.5,278.5C 278.504,263.009 278.17,247.342 278.5,231.5C 286.167,231.5 293.833,231.5 301.5,231.5C 301.175,223.981 301.508,216.648 302.5,209.5 Z"/></g>
<g><path style="opacity:1" fill="#433827" d="M 324.5,209.5 C 324.833,209.5 325.167,209.5 325.5,209.5C 325.5,217.167 325.5,224.833 325.5,232.5C 317.833,232.5 310.167,232.5 302.5,232.5C 302.5,232.167 302.5,231.833 302.5,231.5C 309.833,231.5 317.167,231.5 324.5,231.5C 324.5,224.167 324.5,216.833 324.5,209.5 Z"/></g>
<g><path style="opacity:1" fill="#221f1f" d="M 69.5,232.5 C 77.1667,232.5 84.8333,232.5 92.5,232.5C 92.5,247.833 92.5,263.167 92.5,278.5C 84.8333,278.5 77.1667,278.5 69.5,278.5C 69.5,263.167 69.5,247.833 69.5,232.5 Z"/></g>
<g><path style="opacity:1" fill="#987b37" d="M 208.5,209.5 C 209.492,216.648 209.825,223.981 209.5,231.5C 217.352,231.175 225.018,231.508 232.5,232.5C 224.833,232.5 217.167,232.5 209.5,232.5C 209.5,247.833 209.5,263.167 209.5,278.5C 208.504,263.342 208.17,248.009 208.5,232.5C 208.5,232.167 208.5,231.833 208.5,231.5C 208.5,224.167 208.5,216.833 208.5,209.5 Z"/></g>
<g><path style="opacity:1" fill="#241f20" d="M 232.5,232.5 C 232.5,247.833 232.5,263.167 232.5,278.5C 224.833,278.5 217.167,278.5 209.5,278.5C 209.5,263.167 209.5,247.833 209.5,232.5C 217.167,232.5 224.833,232.5 232.5,232.5 Z"/></g>
<g><path style="opacity:1" fill="#221f1f" d="M 301.5,278.5 C 294.167,278.5 286.833,278.5 279.5,278.5C 279.5,263.167 279.5,247.833 279.5,232.5C 286.833,232.5 294.167,232.5 301.5,232.5C 301.5,247.833 301.5,263.167 301.5,278.5 Z"/></g>
<g><path style="opacity:1" fill="#221f1f" d="M 418.5,232.5 C 426.167,232.5 433.833,232.5 441.5,232.5C 441.5,247.833 441.5,263.167 441.5,278.5C 433.833,278.5 426.167,278.5 418.5,278.5C 418.5,263.167 418.5,247.833 418.5,232.5 Z"/></g>
<g><path style="opacity:1" fill="#ebad3e" d="M 69.5,232.5 C 69.5,247.833 69.5,263.167 69.5,278.5C 61.5,278.5 53.5,278.5 45.5,278.5C 45.5,270.833 45.5,263.167 45.5,255.5C 53.1667,255.5 60.8333,255.5 68.5,255.5C 68.1746,247.648 68.508,239.982 69.5,232.5 Z"/></g>
<g><path style="opacity:1" fill="#ebad3e" d="M 441.5,232.5 C 442.492,239.982 442.825,247.648 442.5,255.5C 450.167,255.5 457.833,255.5 465.5,255.5C 465.5,263.167 465.5,270.833 465.5,278.5C 457.5,278.5 449.5,278.5 441.5,278.5C 441.5,263.167 441.5,247.833 441.5,232.5 Z"/></g>
<g><path style="opacity:1" fill="#fe92bb" d="M 46.5,302.5 C 69.5,302.5 92.5,302.5 115.5,302.5C 115.5,309.833 115.5,317.167 115.5,324.5C 92.5,324.5 69.5,324.5 46.5,324.5C 46.5,317.167 46.5,309.833 46.5,302.5 Z"/></g>
<g><path style="opacity:1" fill="#fe92bb" d="M 464.5,302.5 C 464.5,309.833 464.5,317.167 464.5,324.5C 441.5,324.5 418.5,324.5 395.5,324.5C 395.5,317.167 395.5,309.833 395.5,302.5C 418.5,302.5 441.5,302.5 464.5,302.5 Z"/></g>
<g><path style="opacity:1" fill="#ff9fa2" d="M 46.5,302.5 C 46.5,309.833 46.5,317.167 46.5,324.5C 69.5,324.5 92.5,324.5 115.5,324.5C 92.6727,325.498 69.6727,325.831 46.5,325.5C 46.1667,325.5 45.8333,325.5 45.5,325.5C 45.1746,317.648 45.508,309.982 46.5,302.5 Z"/></g>
<g><path style="opacity:1" fill="#ff9fa2" d="M 464.5,302.5 C 465.492,309.982 465.825,317.648 465.5,325.5C 465.167,325.5 464.833,325.5 464.5,325.5C 441.327,325.831 418.327,325.498 395.5,324.5C 418.5,324.5 441.5,324.5 464.5,324.5C 464.5,317.167 464.5,309.833 464.5,302.5 Z"/></g>
<g><path style="opacity:0.972" fill="#231e20" d="M 22.5,325.5 C 30.1667,325.5 37.8333,325.5 45.5,325.5C 45.5,341.167 45.5,356.833 45.5,372.5C 37.8333,372.5 30.1667,372.5 22.5,372.5C 22.5,356.833 22.5,341.167 22.5,325.5 Z"/></g>
<g><path style="opacity:1" fill="#231f20" d="M 325.5,348.5 C 317.833,348.5 310.167,348.5 302.5,348.5C 271.167,348.5 239.833,348.5 208.5,348.5C 200.833,348.5 193.167,348.5 185.5,348.5C 185.5,340.833 185.5,333.167 185.5,325.5C 232.167,325.5 278.833,325.5 325.5,325.5C 325.5,333.167 325.5,340.833 325.5,348.5 Z"/></g>
<g><path style="opacity:0.972" fill="#231e20" d="M 465.5,325.5 C 473.167,325.5 480.833,325.5 488.5,325.5C 488.5,341.167 488.5,356.833 488.5,372.5C 480.833,372.5 473.167,372.5 465.5,372.5C 465.5,356.833 465.5,341.167 465.5,325.5 Z"/></g>
<g><path style="opacity:1" fill="#b18839" d="M 45.5,325.5 C 45.8333,325.5 46.1667,325.5 46.5,325.5C 46.5,333.167 46.5,340.833 46.5,348.5C 54.1667,348.5 61.8333,348.5 69.5,348.5C 69.5,356.167 69.5,363.833 69.5,371.5C 69.5,371.833 69.5,372.167 69.5,372.5C 69.1667,372.5 68.8333,372.5 68.5,372.5C 60.8333,372.5 53.1667,372.5 45.5,372.5C 45.5,356.833 45.5,341.167 45.5,325.5 Z"/></g>
<g><path style="opacity:1" fill="#edae3e" d="M 46.5,348.5 C 54.1667,348.5 61.8333,348.5 69.5,348.5C 69.5,356.167 69.5,363.833 69.5,371.5C 61.8333,371.5 54.1667,371.5 46.5,371.5C 46.5,363.833 46.5,356.167 46.5,348.5 Z"/></g>
<g><path style="opacity:1" fill="#241f20" d="M 185.5,348.5 C 185.5,371.833 185.5,395.167 185.5,418.5C 177.833,418.5 170.167,418.5 162.5,418.5C 162.5,395.167 162.5,371.833 162.5,348.5C 170.167,348.5 177.833,348.5 185.5,348.5 Z"/></g>
<g><path style="opacity:1" fill="#de3375" d="M 185.5,348.5 C 193.167,348.5 200.833,348.5 208.5,348.5C 208.175,356.352 208.508,364.018 209.5,371.5C 240.329,372.498 271.329,372.831 302.5,372.5C 302.5,364.5 302.5,356.5 302.5,348.5C 310.167,348.5 317.833,348.5 325.5,348.5C 325.5,371.833 325.5,395.167 325.5,418.5C 317.833,418.5 310.167,418.5 302.5,418.5C 302.5,426.167 302.5,433.833 302.5,441.5C 302.167,441.5 301.833,441.5 301.5,441.5C 270.833,441.5 240.167,441.5 209.5,441.5C 209.167,441.5 208.833,441.5 208.5,441.5C 208.5,433.833 208.5,426.167 208.5,418.5C 200.833,418.5 193.167,418.5 185.5,418.5C 185.5,395.167 185.5,371.833 185.5,348.5 Z"/></g>
<g><path style="opacity:1" fill="#f3c0d3" d="M 208.5,348.5 C 239.833,348.5 271.167,348.5 302.5,348.5C 302.5,356.5 302.5,364.5 302.5,372.5C 271.329,372.831 240.329,372.498 209.5,371.5C 208.508,364.018 208.175,356.352 208.5,348.5 Z"/></g>
<g><path style="opacity:1" fill="#fefffe" d="M 209.5,371.5 C 209.5,364.167 209.5,356.833 209.5,349.5C 240.167,349.5 270.833,349.5 301.5,349.5C 301.5,356.833 301.5,364.167 301.5,371.5C 270.833,371.5 240.167,371.5 209.5,371.5 Z"/></g>
<g><path style="opacity:1" fill="#241f20" d="M 325.5,348.5 C 333.167,348.5 340.833,348.5 348.5,348.5C 348.5,371.833 348.5,395.167 348.5,418.5C 340.833,418.5 333.167,418.5 325.5,418.5C 325.5,395.167 325.5,371.833 325.5,348.5 Z"/></g>
<g><path style="opacity:1" fill="#edae3e" d="M 464.5,348.5 C 464.5,356.167 464.5,363.833 464.5,371.5C 456.833,371.5 449.167,371.5 441.5,371.5C 441.5,363.833 441.5,356.167 441.5,348.5C 449.167,348.5 456.833,348.5 464.5,348.5 Z"/></g>
<g><path style="opacity:1" fill="#b18839" d="M 464.5,325.5 C 464.833,325.5 465.167,325.5 465.5,325.5C 465.5,341.167 465.5,356.833 465.5,372.5C 457.833,372.5 450.167,372.5 442.5,372.5C 442.167,372.5 441.833,372.5 441.5,372.5C 441.5,372.167 441.5,371.833 441.5,371.5C 449.167,371.5 456.833,371.5 464.5,371.5C 464.5,363.833 464.5,356.167 464.5,348.5C 464.5,340.833 464.5,333.167 464.5,325.5 Z"/></g>
<g><path style="opacity:0.996" fill="#231e1f" d="M 45.5,372.5 C 53.1667,372.5 60.8333,372.5 68.5,372.5C 68.5,387.833 68.5,403.167 68.5,418.5C 60.8333,418.5 53.1667,418.5 45.5,418.5C 45.5,403.167 45.5,387.833 45.5,372.5 Z"/></g>
<g><path style="opacity:0.996" fill="#231e1f" d="M 442.5,372.5 C 450.167,372.5 457.833,372.5 465.5,372.5C 465.5,387.833 465.5,403.167 465.5,418.5C 457.833,418.5 450.167,418.5 442.5,418.5C 442.5,403.167 442.5,387.833 442.5,372.5 Z"/></g>
<g><path style="opacity:1" fill="#ecae3d" d="M 69.5,395.5 C 77.1667,395.5 84.8333,395.5 92.5,395.5C 92.5,403.167 92.5,410.833 92.5,418.5C 84.8333,418.5 77.1667,418.5 69.5,418.5C 69.5,410.833 69.5,403.167 69.5,395.5 Z"/></g>
<g><path style="opacity:1" fill="#ecae3d" d="M 441.5,395.5 C 441.5,403.167 441.5,410.833 441.5,418.5C 433.833,418.5 426.167,418.5 418.5,418.5C 418.5,410.833 418.5,403.167 418.5,395.5C 426.167,395.5 433.833,395.5 441.5,395.5 Z"/></g>
<g><path style="opacity:1" fill="#edae3e" d="M 92.5,418.5 C 108.167,418.5 123.833,418.5 139.5,418.5C 139.5,426.167 139.5,433.833 139.5,441.5C 139.167,441.5 138.833,441.5 138.5,441.5C 123.167,441.5 107.833,441.5 92.5,441.5C 92.5,433.833 92.5,426.167 92.5,418.5 Z"/></g>
<g><path style="opacity:1" fill="#242020" d="M 185.5,418.5 C 193.167,418.5 200.833,418.5 208.5,418.5C 208.5,426.167 208.5,433.833 208.5,441.5C 200.833,441.5 193.167,441.5 185.5,441.5C 185.5,433.833 185.5,426.167 185.5,418.5 Z"/></g>
<g><path style="opacity:1" fill="#242020" d="M 325.5,418.5 C 325.5,426.167 325.5,433.833 325.5,441.5C 317.833,441.5 310.167,441.5 302.5,441.5C 302.5,433.833 302.5,426.167 302.5,418.5C 310.167,418.5 317.833,418.5 325.5,418.5 Z"/></g>
<g><path style="opacity:1" fill="#edae3e" d="M 418.5,418.5 C 418.5,426.167 418.5,433.833 418.5,441.5C 403.167,441.5 387.833,441.5 372.5,441.5C 372.167,441.5 371.833,441.5 371.5,441.5C 371.5,433.833 371.5,426.167 371.5,418.5C 387.167,418.5 402.833,418.5 418.5,418.5 Z"/></g>
<g><path style="opacity:1" fill="#2a2421" d="M 68.5,372.5 C 68.8333,372.5 69.1667,372.5 69.5,372.5C 69.5,380.167 69.5,387.833 69.5,395.5C 69.5,403.167 69.5,410.833 69.5,418.5C 77.1667,418.5 84.8333,418.5 92.5,418.5C 92.5,426.167 92.5,433.833 92.5,441.5C 107.833,441.5 123.167,441.5 138.5,441.5C 138.5,441.833 138.5,442.167 138.5,442.5C 123.167,442.5 107.833,442.5 92.5,442.5C 84.5,442.5 76.5,442.5 68.5,442.5C 68.5,434.5 68.5,426.5 68.5,418.5C 68.5,403.167 68.5,387.833 68.5,372.5 Z"/></g>
<g><path style="opacity:1" fill="#2a2421" d="M 441.5,372.5 C 441.833,372.5 442.167,372.5 442.5,372.5C 442.5,387.833 442.5,403.167 442.5,418.5C 442.5,426.5 442.5,434.5 442.5,442.5C 434.5,442.5 426.5,442.5 418.5,442.5C 403.167,442.5 387.833,442.5 372.5,442.5C 372.5,442.167 372.5,441.833 372.5,441.5C 387.833,441.5 403.167,441.5 418.5,441.5C 418.5,433.833 418.5,426.167 418.5,418.5C 426.167,418.5 433.833,418.5 441.5,418.5C 441.5,410.833 441.5,403.167 441.5,395.5C 441.5,387.833 441.5,380.167 441.5,372.5 Z"/></g>
<g><path style="opacity:0.996" fill="#231e1f" d="M 92.5,442.5 C 107.833,442.5 123.167,442.5 138.5,442.5C 138.5,450.167 138.5,457.833 138.5,465.5C 123.167,465.5 107.833,465.5 92.5,465.5C 92.5,457.833 92.5,450.167 92.5,442.5 Z"/></g>
<g><path style="opacity:1" fill="#eaac3d" d="M 139.5,441.5 C 154.833,441.5 170.167,441.5 185.5,441.5C 193.167,441.5 200.833,441.5 208.5,441.5C 208.833,441.5 209.167,441.5 209.5,441.5C 209.5,449.167 209.5,456.833 209.5,464.5C 240.167,464.5 270.833,464.5 301.5,464.5C 301.5,456.833 301.5,449.167 301.5,441.5C 301.833,441.5 302.167,441.5 302.5,441.5C 310.167,441.5 317.833,441.5 325.5,441.5C 340.833,441.5 356.167,441.5 371.5,441.5C 371.5,449.167 371.5,456.833 371.5,464.5C 355.991,464.17 340.658,464.504 325.5,465.5C 325.5,473.167 325.5,480.833 325.5,488.5C 278.833,488.5 232.167,488.5 185.5,488.5C 185.5,480.833 185.5,473.167 185.5,465.5C 170.342,464.504 155.009,464.17 139.5,464.5C 139.5,456.833 139.5,449.167 139.5,441.5 Z"/></g>
<g><path style="opacity:1" fill="#241f20" d="M 209.5,441.5 C 240.167,441.5 270.833,441.5 301.5,441.5C 301.5,449.167 301.5,456.833 301.5,464.5C 270.833,464.5 240.167,464.5 209.5,464.5C 209.5,456.833 209.5,449.167 209.5,441.5 Z"/></g>
<g><path style="opacity:0.996" fill="#231e1f" d="M 372.5,442.5 C 387.833,442.5 403.167,442.5 418.5,442.5C 418.5,450.167 418.5,457.833 418.5,465.5C 403.167,465.5 387.833,465.5 372.5,465.5C 372.5,457.833 372.5,450.167 372.5,442.5 Z"/></g>
<g><path style="opacity:1" fill="#b68a39" d="M 138.5,441.5 C 138.833,441.5 139.167,441.5 139.5,441.5C 139.5,449.167 139.5,456.833 139.5,464.5C 155.009,464.17 170.342,464.504 185.5,465.5C 169.833,465.5 154.167,465.5 138.5,465.5C 138.5,457.833 138.5,450.167 138.5,442.5C 138.5,442.167 138.5,441.833 138.5,441.5 Z"/></g>
<g><path style="opacity:1" fill="#b68a39" d="M 371.5,441.5 C 371.833,441.5 372.167,441.5 372.5,441.5C 372.5,441.833 372.5,442.167 372.5,442.5C 372.5,450.167 372.5,457.833 372.5,465.5C 356.833,465.5 341.167,465.5 325.5,465.5C 340.658,464.504 355.991,464.17 371.5,464.5C 371.5,456.833 371.5,449.167 371.5,441.5 Z"/></g>
<g><path style="opacity:0.972" fill="#231e20" d="M 138.5,465.5 C 154.167,465.5 169.833,465.5 185.5,465.5C 185.5,473.167 185.5,480.833 185.5,488.5C 169.833,488.5 154.167,488.5 138.5,488.5C 138.5,480.833 138.5,473.167 138.5,465.5 Z"/></g>
<g><path style="opacity:0.972" fill="#231e20" d="M 325.5,465.5 C 341.167,465.5 356.833,465.5 372.5,465.5C 372.5,473.167 372.5,480.833 372.5,488.5C 356.833,488.5 341.167,488.5 325.5,488.5C 325.5,480.833 325.5,473.167 325.5,465.5 Z"/></g>
<g><path style="opacity:0.998" fill="#221f1f" d="M 185.5,488.5 C 232.167,488.5 278.833,488.5 325.5,488.5C 325.5,496.167 325.5,503.833 325.5,511.5C 278.833,511.5 232.167,511.5 185.5,511.5C 185.5,503.833 185.5,496.167 185.5,488.5 Z"/></g>
</svg>
