<?xml version="1.0" encoding="UTF-8"?>
<!DOCTYPE svg PUBLIC "-//W3C//DTD SVG 1.1//EN" "http://www.w3.org/Graphics/SVG/1.1/DTD/svg11.dtd">
<svg xmlns="http://www.w3.org/2000/svg" version="1.1" width="600px" height="600px" style="shape-rendering:geometricPrecision; text-rendering:geometricPrecision; image-rendering:optimizeQuality; fill-rule:evenodd; clip-rule:evenodd" xmlns:xlink="http://www.w3.org/1999/xlink">
<g><path style="opacity:1" fill="#278bc0" d="M 263.5,-0.5 C 286.833,-0.5 310.167,-0.5 333.5,-0.5C 373.197,4.62133 410.531,16.9547 445.5,36.5C 347.5,36.5 249.5,36.5 151.5,36.5C 186.469,16.9547 223.803,4.62133 263.5,-0.5 Z"/></g>
<g><path style="opacity:1" fill="#0178b5" d="M 151.5,36.5 C 249.5,36.5 347.5,36.5 445.5,36.5C 496.292,64.6249 535.292,104.292 562.5,155.5C 562.5,250.833 562.5,346.167 562.5,441.5C 533.727,495.607 492.06,536.607 437.5,564.5C 344.833,564.5 252.167,564.5 159.5,564.5C 104.94,536.607 63.2732,495.607 34.5,441.5C 34.5,346.167 34.5,250.833 34.5,155.5C 61.708,104.292 100.708,64.6249 151.5,36.5 Z"/></g>
<g><path style="opacity:1" fill="#fefefe" d="M 110.5,112.5 C 135.5,112.5 160.5,112.5 185.5,112.5C 185.5,137.5 185.5,162.5 185.5,187.5C 160.5,187.5 135.5,187.5 110.5,187.5C 110.5,162.5 110.5,137.5 110.5,112.5 Z"/></g>
<g><path style="opacity:1" fill="#268bc0" d="M 34.5,155.5 C 34.5,250.833 34.5,346.167 34.5,441.5C 16.01,407.697 4.34332,371.697 -0.5,333.5C -0.5,310.167 -0.5,286.833 -0.5,263.5C 4.34363,225.302 16.0103,189.302 34.5,155.5 Z"/></g>
<g><path style="opacity:1" fill="#00669a" d="M 562.5,155.5 C 593.815,213.713 604.982,275.713 596,341.5C 590.893,376.989 579.726,410.322 562.5,441.5C 562.5,346.167 562.5,250.833 562.5,155.5 Z"/></g>
<g><path style="opacity:1" fill="#fefefe" d="M 110.5,225.5 C 135.5,225.5 160.5,225.5 185.5,225.5C 185.5,313.5 185.5,401.5 185.5,489.5C 160.5,489.5 135.5,489.5 110.5,489.5C 110.5,401.5 110.5,313.5 110.5,225.5 Z"/></g>
<g><path style="opacity:1" fill="#0473b2" d="M 260.5,225.5 C 260.5,313.5 260.5,401.5 260.5,489.5C 259.167,445.838 258.5,401.838 258.5,357.5C 258.5,313.162 259.167,269.162 260.5,225.5 Z"/></g>
<g><path style="opacity:1" fill="#fefefe" d="M 261.5,225.5 C 286.5,225.5 311.5,225.5 336.5,225.5C 336.5,237.833 336.5,250.167 336.5,262.5C 348.989,263.495 361.656,263.829 374.5,263.5C 374.5,250.833 374.5,238.167 374.5,225.5C 399.5,225.5 424.5,225.5 449.5,225.5C 449.5,237.833 449.5,250.167 449.5,262.5C 461.655,263.495 473.989,263.829 486.5,263.5C 486.5,338.5 486.5,413.5 486.5,488.5C 461.833,488.5 437.167,488.5 412.5,488.5C 412.832,425.664 412.499,362.998 411.5,300.5C 386.5,300.5 361.5,300.5 336.5,300.5C 335.501,362.998 335.168,425.664 335.5,488.5C 310.833,488.5 286.167,488.5 261.5,488.5C 261.5,400.833 261.5,313.167 261.5,225.5 Z"/></g>
<g><path style="opacity:1" fill="#73b4d6" d="M 374.5,225.5 C 374.5,238.167 374.5,250.833 374.5,263.5C 361.656,263.829 348.989,263.495 336.5,262.5C 348.833,262.5 361.167,262.5 373.5,262.5C 373.171,249.989 373.505,237.655 374.5,225.5 Z"/></g>
<g><path style="opacity:1" fill="#acd3e7" d="M 449.5,262.5 C 462.167,262.5 474.833,262.5 487.5,262.5C 487.5,338.167 487.5,413.833 487.5,489.5C 462.167,489.5 436.833,489.5 411.5,489.5C 411.5,426.833 411.5,364.167 411.5,301.5C 411.5,301.167 411.5,300.833 411.5,300.5C 412.499,362.998 412.832,425.664 412.5,488.5C 437.167,488.5 461.833,488.5 486.5,488.5C 486.5,413.5 486.5,338.5 486.5,263.5C 473.989,263.829 461.655,263.495 449.5,262.5 Z"/></g>
<g><path style="opacity:1" fill="#b0d4e8" d="M 260.5,225.5 C 260.833,225.5 261.167,225.5 261.5,225.5C 261.5,313.167 261.5,400.833 261.5,488.5C 286.167,488.5 310.833,488.5 335.5,488.5C 335.168,425.664 335.501,362.998 336.5,300.5C 336.5,363.5 336.5,426.5 336.5,489.5C 311.167,489.5 285.833,489.5 260.5,489.5C 260.5,401.5 260.5,313.5 260.5,225.5 Z"/></g>
<g><path style="opacity:1" fill="#3590c2" d="M 336.5,300.5 C 361.5,300.5 386.5,300.5 411.5,300.5C 411.5,300.833 411.5,301.167 411.5,301.5C 386.833,301.5 362.167,301.5 337.5,301.5C 337.5,364.167 337.5,426.833 337.5,489.5C 337.167,489.5 336.833,489.5 336.5,489.5C 336.5,426.5 336.5,363.5 336.5,300.5 Z"/></g>
<g><path style="opacity:1" fill="#0173b3" d="M 411.5,301.5 C 411.5,364.167 411.5,426.833 411.5,489.5C 409.504,427.842 408.837,365.842 409.5,303.5C 385.833,303.5 362.167,303.5 338.5,303.5C 338.832,365.669 338.499,427.669 337.5,489.5C 337.5,426.833 337.5,364.167 337.5,301.5C 362.167,301.5 386.833,301.5 411.5,301.5 Z"/></g>
<g><path style="opacity:1" fill="#00669a" d="M 159.5,564.5 C 252.167,564.5 344.833,564.5 437.5,564.5C 384.601,592.279 328.268,603.279 268.5,597.5C 229.789,593.926 193.456,582.926 159.5,564.5 Z"/></g>
</svg>
