<?xml version="1.0" encoding="UTF-8"?>
<!DOCTYPE svg PUBLIC "-//W3C//DTD SVG 1.1//EN" "http://www.w3.org/Graphics/SVG/1.1/DTD/svg11.dtd">
<svg xmlns="http://www.w3.org/2000/svg" version="1.1" width="512px" height="512px" style="shape-rendering:geometricPrecision; text-rendering:geometricPrecision; image-rendering:optimizeQuality; fill-rule:evenodd; clip-rule:evenodd" xmlns:xlink="http://www.w3.org/1999/xlink">
<g><path style="opacity:0.991" fill="#000000" d="M 179.5,-0.5 C 230.167,-0.5 280.833,-0.5 331.5,-0.5C 331.5,9.5 331.5,19.5 331.5,29.5C 351.5,29.5 371.5,29.5 391.5,29.5C 391.5,39.5 391.5,49.5 391.5,59.5C 381.5,59.5 371.5,59.5 361.5,59.5C 351.167,59.5 340.833,59.5 330.5,59.5C 330.5,49.5 330.5,39.5 330.5,29.5C 280.5,29.5 230.5,29.5 180.5,29.5C 180.5,39.5 180.5,49.5 180.5,59.5C 160.167,59.5 139.833,59.5 119.5,59.5C 119.5,49.5 119.5,39.5 119.5,29.5C 139.5,29.5 159.5,29.5 179.5,29.5C 179.5,19.5 179.5,9.5 179.5,-0.5 Z"/></g>
<g><path style="opacity:1" fill="#ea7098" d="M 361.5,59.5 C 361.5,69.5 361.5,79.5 361.5,89.5C 371.5,89.5 381.5,89.5 391.5,89.5C 391.5,99.5 391.5,109.5 391.5,119.5C 400.986,120.494 410.652,120.827 420.5,120.5C 420.5,170.5 420.5,220.5 420.5,270.5C 410.833,270.5 401.167,270.5 391.5,270.5C 391.5,290.5 391.5,310.5 391.5,330.5C 391.167,330.5 390.833,330.5 390.5,330.5C 380.5,330.5 370.5,330.5 360.5,330.5C 360.5,340.5 360.5,350.5 360.5,360.5C 350.5,360.5 340.5,360.5 330.5,360.5C 330.5,370.5 330.5,380.5 330.5,390.5C 320.5,390.5 310.5,390.5 300.5,390.5C 300.5,400.833 300.5,411.167 300.5,421.5C 290.5,421.5 280.5,421.5 270.5,421.5C 270.5,431.5 270.5,441.5 270.5,451.5C 260.5,451.5 250.5,451.5 240.5,451.5C 230.5,451.5 220.5,451.5 210.5,451.5C 210.5,441.5 210.5,431.5 210.5,421.5C 200.681,420.506 190.681,420.173 180.5,420.5C 180.5,410.5 180.5,400.5 180.5,390.5C 170.5,390.5 160.5,390.5 150.5,390.5C 150.5,380.5 150.5,370.5 150.5,360.5C 140.5,360.5 130.5,360.5 120.5,360.5C 120.5,350.5 120.5,340.5 120.5,330.5C 110.5,330.5 100.5,330.5 90.5,330.5C 90.8305,310.326 90.4971,290.326 89.5,270.5C 79.8333,270.5 70.1667,270.5 60.5,270.5C 60.5,220.5 60.5,170.5 60.5,120.5C 70.3478,120.827 80.0144,120.494 89.5,119.5C 90.4938,110.014 90.8271,100.348 90.5,90.5C 100.348,90.8271 110.014,90.4938 119.5,89.5C 120.494,80.0144 120.827,70.3478 120.5,60.5C 140.674,60.8305 160.674,60.4971 180.5,59.5C 180.5,49.5 180.5,39.5 180.5,29.5C 230.5,29.5 280.5,29.5 330.5,29.5C 330.5,39.5 330.5,49.5 330.5,59.5C 340.833,59.5 351.167,59.5 361.5,59.5 Z"/></g>
<g><path style="opacity:0.981" fill="#000000" d="M 119.5,59.5 C 119.5,69.5 119.5,79.5 119.5,89.5C 109.5,89.5 99.5,89.5 89.5,89.5C 89.5,79.5 89.5,69.5 89.5,59.5C 99.5,59.5 109.5,59.5 119.5,59.5 Z"/></g>
<g><path style="opacity:1" fill="#a54f6b" d="M 119.5,59.5 C 139.833,59.5 160.167,59.5 180.5,59.5C 160.674,60.4971 140.674,60.8305 120.5,60.5C 120.827,70.3478 120.494,80.0144 119.5,89.5C 119.5,79.5 119.5,69.5 119.5,59.5 Z"/></g>
<g><path style="opacity:0.981" fill="#000000" d="M 391.5,59.5 C 401.5,59.5 411.5,59.5 421.5,59.5C 421.5,69.5 421.5,79.5 421.5,89.5C 411.5,89.5 401.5,89.5 391.5,89.5C 391.5,79.5 391.5,69.5 391.5,59.5 Z"/></g>
<g><path style="opacity:1" fill="#020101" d="M 300.5,89.5 C 270.5,89.5 240.5,89.5 210.5,89.5C 210.5,79.5 210.5,69.5 210.5,59.5C 240.5,59.5 270.5,59.5 300.5,59.5C 300.5,69.5 300.5,79.5 300.5,89.5 Z"/></g>
<g><path style="opacity:1" fill="#ba4697" d="M 361.5,59.5 C 371.5,59.5 381.5,59.5 391.5,59.5C 391.5,69.5 391.5,79.5 391.5,89.5C 381.5,89.5 371.5,89.5 361.5,89.5C 361.5,79.5 361.5,69.5 361.5,59.5 Z"/></g>
<g><path style="opacity:0.981" fill="#000000" d="M 89.5,89.5 C 89.5,99.5 89.5,109.5 89.5,119.5C 79.5,119.5 69.5,119.5 59.5,119.5C 59.5,109.5 59.5,99.5 59.5,89.5C 69.5,89.5 79.5,89.5 89.5,89.5 Z"/></g>
<g><path style="opacity:0.981" fill="#000000" d="M 421.5,89.5 C 431.5,89.5 441.5,89.5 451.5,89.5C 451.5,99.5 451.5,109.5 451.5,119.5C 441.5,119.5 431.5,119.5 421.5,119.5C 421.5,109.5 421.5,99.5 421.5,89.5 Z"/></g>
<g><path style="opacity:1" fill="#984963" d="M 89.5,89.5 C 99.5,89.5 109.5,89.5 119.5,89.5C 110.014,90.4938 100.348,90.8271 90.5,90.5C 90.8271,100.348 90.4938,110.014 89.5,119.5C 89.5,109.5 89.5,99.5 89.5,89.5 Z"/></g>
<g><path style="opacity:1" fill="#000000" d="M 180.5,90.5 C 190.167,90.5 199.833,90.5 209.5,90.5C 209.5,100.167 209.5,109.833 209.5,119.5C 199.833,119.5 190.167,119.5 180.5,119.5C 180.5,109.833 180.5,100.167 180.5,90.5 Z"/></g>
<g><path style="opacity:1" fill="#493f45" d="M 180.5,90.5 C 180.5,90.1667 180.5,89.8333 180.5,89.5C 190.5,89.5 200.5,89.5 210.5,89.5C 210.5,89.8333 210.5,90.1667 210.5,90.5C 210.5,100.5 210.5,110.5 210.5,120.5C 200.5,120.5 190.5,120.5 180.5,120.5C 180.5,120.167 180.5,119.833 180.5,119.5C 190.167,119.5 199.833,119.5 209.5,119.5C 209.5,109.833 209.5,100.167 209.5,90.5C 199.833,90.5 190.167,90.5 180.5,90.5 Z"/></g>
<g><path style="opacity:1" fill="#e6f1fe" d="M 210.5,90.5 C 230.5,90.5 250.5,90.5 270.5,90.5C 270.5,100.167 270.5,109.833 270.5,119.5C 260.319,119.173 250.319,119.506 240.5,120.5C 240.5,130.5 240.5,140.5 240.5,150.5C 230.5,150.5 220.5,150.5 210.5,150.5C 209.506,159.986 209.173,169.652 209.5,179.5C 199.652,179.173 189.986,179.506 180.5,180.5C 180.5,190.5 180.5,200.5 180.5,210.5C 190.5,210.5 200.5,210.5 210.5,210.5C 210.5,220.5 210.5,230.5 210.5,240.5C 220.5,240.5 230.5,240.5 240.5,240.5C 240.5,250.5 240.5,260.5 240.5,270.5C 250.5,270.5 260.5,270.5 270.5,270.5C 270.5,280.5 270.5,290.5 270.5,300.5C 250.5,300.5 230.5,300.5 210.5,300.5C 210.5,290.5 210.5,280.5 210.5,270.5C 200.5,270.5 190.5,270.5 180.5,270.5C 180.5,260.5 180.5,250.5 180.5,240.5C 170.5,240.5 160.5,240.5 150.5,240.5C 150.5,210.5 150.5,180.5 150.5,150.5C 160.5,150.5 170.5,150.5 180.5,150.5C 180.5,140.5 180.5,130.5 180.5,120.5C 190.5,120.5 200.5,120.5 210.5,120.5C 210.5,110.5 210.5,100.5 210.5,90.5 Z"/></g>
<g><path style="opacity:1" fill="#b2b6d8" d="M 210.5,90.5 C 210.5,90.1667 210.5,89.8333 210.5,89.5C 240.5,89.5 270.5,89.5 300.5,89.5C 300.5,99.5 300.5,109.5 300.5,119.5C 290.5,119.5 280.5,119.5 270.5,119.5C 270.5,109.833 270.5,100.167 270.5,90.5C 250.5,90.5 230.5,90.5 210.5,90.5 Z"/></g>
<g><path style="opacity:1" fill="#4a3c46" d="M 300.5,89.5 C 310.5,89.5 320.5,89.5 330.5,89.5C 330.5,89.8333 330.5,90.1667 330.5,90.5C 320.833,90.5 311.167,90.5 301.5,90.5C 301.5,100.167 301.5,109.833 301.5,119.5C 301.167,119.5 300.833,119.5 300.5,119.5C 300.5,109.5 300.5,99.5 300.5,89.5 Z"/></g>
<g><path style="opacity:1" fill="#000000" d="M 330.5,90.5 C 330.5,100.167 330.5,109.833 330.5,119.5C 320.833,119.5 311.167,119.5 301.5,119.5C 301.5,109.833 301.5,100.167 301.5,90.5C 311.167,90.5 320.833,90.5 330.5,90.5 Z"/></g>
<g><path style="opacity:1" fill="#bb4797" d="M 391.5,89.5 C 401.5,89.5 411.5,89.5 421.5,89.5C 421.5,99.5 421.5,109.5 421.5,119.5C 411.5,119.5 401.5,119.5 391.5,119.5C 391.5,109.5 391.5,99.5 391.5,89.5 Z"/></g>
<g><path style="opacity:0.987" fill="#000000" d="M 59.5,119.5 C 59.1678,170.003 59.5011,220.336 60.5,270.5C 70.1667,270.5 79.8333,270.5 89.5,270.5C 89.5,290.833 89.5,311.167 89.5,331.5C 79.5,331.5 69.5,331.5 59.5,331.5C 59.5,311.5 59.5,291.5 59.5,271.5C 49.5,271.5 39.5,271.5 29.5,271.5C 29.5,220.833 29.5,170.167 29.5,119.5C 39.5,119.5 49.5,119.5 59.5,119.5 Z"/></g>
<g><path style="opacity:0.987" fill="#000000" d="M 451.5,119.5 C 461.5,119.5 471.5,119.5 481.5,119.5C 481.5,170.167 481.5,220.833 481.5,271.5C 471.5,271.5 461.5,271.5 451.5,271.5C 451.5,291.5 451.5,311.5 451.5,331.5C 441.5,331.5 431.5,331.5 421.5,331.5C 421.5,331.167 421.5,330.833 421.5,330.5C 421.5,310.5 421.5,290.5 421.5,270.5C 431.5,270.5 441.5,270.5 451.5,270.5C 451.5,220.167 451.5,169.833 451.5,119.5 Z"/></g>
<g><path style="opacity:1" fill="#aa526e" d="M 59.5,119.5 C 69.5,119.5 79.5,119.5 89.5,119.5C 80.0144,120.494 70.3478,120.827 60.5,120.5C 60.5,170.5 60.5,220.5 60.5,270.5C 59.5011,220.336 59.1678,170.003 59.5,119.5 Z"/></g>
<g><path style="opacity:1" fill="#000000" d="M 179.5,120.5 C 179.5,130.167 179.5,139.833 179.5,149.5C 169.833,149.5 160.167,149.5 150.5,149.5C 150.5,139.833 150.5,130.167 150.5,120.5C 160.167,120.5 169.833,120.5 179.5,120.5 Z"/></g>
<g><path style="opacity:1" fill="#060400" d="M 240.5,120.5 C 250.5,120.5 260.5,120.5 270.5,120.5C 270.5,130.167 270.5,139.833 270.5,149.5C 270.5,149.833 270.5,150.167 270.5,150.5C 260.5,150.5 250.5,150.5 240.5,150.5C 240.5,140.5 240.5,130.5 240.5,120.5 Z"/></g>
<g><path style="opacity:1" fill="#e1ecf9" d="M 240.5,120.5 C 250.319,119.506 260.319,119.173 270.5,119.5C 280.5,119.5 290.5,119.5 300.5,119.5C 300.5,129.5 300.5,139.5 300.5,149.5C 290.5,149.5 280.5,149.5 270.5,149.5C 270.5,139.833 270.5,130.167 270.5,120.5C 260.5,120.5 250.5,120.5 240.5,120.5 Z"/></g>
<g><path style="opacity:1" fill="#000000" d="M 331.5,120.5 C 341.167,120.5 350.833,120.5 360.5,120.5C 360.5,130.167 360.5,139.833 360.5,149.5C 360.5,139.833 360.5,130.167 360.5,120.5C 350.833,120.5 341.167,120.5 331.5,120.5 Z"/></g>
<g><path style="opacity:1" fill="#d96198" d="M 391.5,119.5 C 401.5,119.5 411.5,119.5 421.5,119.5C 421.5,169.833 421.5,220.167 421.5,270.5C 421.167,270.5 420.833,270.5 420.5,270.5C 420.5,220.5 420.5,170.5 420.5,120.5C 410.652,120.827 400.986,120.494 391.5,119.5 Z"/></g>
<g><path style="opacity:1" fill="#bb4798" d="M 421.5,119.5 C 431.5,119.5 441.5,119.5 451.5,119.5C 451.5,169.833 451.5,220.167 451.5,270.5C 441.5,270.5 431.5,270.5 421.5,270.5C 421.5,220.167 421.5,169.833 421.5,119.5 Z"/></g>
<g><path style="opacity:1" fill="#565a5f" d="M 179.5,120.5 C 179.833,120.5 180.167,120.5 180.5,120.5C 180.5,130.5 180.5,140.5 180.5,150.5C 170.5,150.5 160.5,150.5 150.5,150.5C 150.5,150.167 150.5,149.833 150.5,149.5C 160.167,149.5 169.833,149.5 179.5,149.5C 179.5,139.833 179.5,130.167 179.5,120.5 Z"/></g>
<g><path style="opacity:1" fill="#797c8d" d="M 330.5,120.5 C 330.833,120.5 331.167,120.5 331.5,120.5C 331.5,130.167 331.5,139.833 331.5,149.5C 341.167,149.5 350.833,149.5 360.5,149.5C 360.5,149.833 360.5,150.167 360.5,150.5C 350.5,150.5 340.5,150.5 330.5,150.5C 330.5,140.5 330.5,130.5 330.5,120.5 Z"/></g>
<g><path style="opacity:1" fill="#764455" d="M 180.5,89.5 C 180.5,89.8333 180.5,90.1667 180.5,90.5C 180.5,100.167 180.5,109.833 180.5,119.5C 180.5,119.833 180.5,120.167 180.5,120.5C 180.167,120.5 179.833,120.5 179.5,120.5C 169.833,120.5 160.167,120.5 150.5,120.5C 150.5,130.167 150.5,139.833 150.5,149.5C 150.5,149.833 150.5,150.167 150.5,150.5C 150.5,180.5 150.5,210.5 150.5,240.5C 150.5,250.5 150.5,260.5 150.5,270.5C 149.506,260.681 149.173,250.681 149.5,240.5C 149.5,210.5 149.5,180.5 149.5,150.5C 139.833,150.5 130.167,150.5 120.5,150.5C 120.5,180.5 120.5,210.5 120.5,240.5C 119.502,210.338 119.169,180.005 119.5,149.5C 129.5,149.5 139.5,149.5 149.5,149.5C 149.5,139.5 149.5,129.5 149.5,119.5C 159.5,119.5 169.5,119.5 179.5,119.5C 179.173,109.319 179.506,99.3194 180.5,89.5 Z"/></g>
<g><path style="opacity:1" fill="#000000" d="M 149.5,240.5 C 139.833,240.5 130.167,240.5 120.5,240.5C 120.5,210.5 120.5,180.5 120.5,150.5C 130.167,150.5 139.833,150.5 149.5,150.5C 149.5,180.5 149.5,210.5 149.5,240.5 Z"/></g>
<g><path style="opacity:1" fill="#040300" d="M 210.5,150.5 C 220.5,150.5 230.5,150.5 240.5,150.5C 240.5,160.5 240.5,170.5 240.5,180.5C 230.5,180.5 220.5,180.5 210.5,180.5C 210.5,170.5 210.5,160.5 210.5,150.5 Z"/></g>
<g><path style="opacity:1" fill="#fec805" d="M 240.5,150.5 C 250.5,150.5 260.5,150.5 270.5,150.5C 270.5,160.167 270.5,169.833 270.5,179.5C 270.5,189.833 270.5,200.167 270.5,210.5C 270.5,220.5 270.5,230.5 270.5,240.5C 260.5,240.5 250.5,240.5 240.5,240.5C 230.5,240.5 220.5,240.5 210.5,240.5C 210.5,230.5 210.5,220.5 210.5,210.5C 210.5,200.5 210.5,190.5 210.5,180.5C 220.5,180.5 230.5,180.5 240.5,180.5C 240.5,170.5 240.5,160.5 240.5,150.5 Z"/></g>
<g><path style="opacity:1" fill="#000000" d="M 270.5,150.5 C 280.5,150.5 290.5,150.5 300.5,150.5C 300.5,160.167 300.5,169.833 300.5,179.5C 290.5,179.5 280.5,179.5 270.5,179.5C 270.5,169.833 270.5,160.167 270.5,150.5 Z"/></g>
<g><path style="opacity:1" fill="#b3b6d9" d="M 300.5,119.5 C 300.833,119.5 301.167,119.5 301.5,119.5C 311.167,119.5 320.833,119.5 330.5,119.5C 330.5,119.833 330.5,120.167 330.5,120.5C 330.5,130.5 330.5,140.5 330.5,150.5C 340.5,150.5 350.5,150.5 360.5,150.5C 360.833,150.5 361.167,150.5 361.5,150.5C 361.5,180.5 361.5,210.5 361.5,240.5C 361.167,240.5 360.833,240.5 360.5,240.5C 350.833,240.5 341.167,240.5 331.5,240.5C 331.5,250.5 331.5,260.5 331.5,270.5C 331.167,270.5 330.833,270.5 330.5,270.5C 330.5,260.5 330.5,250.5 330.5,240.5C 330.5,230.5 330.5,220.5 330.5,210.5C 330.5,200.5 330.5,190.5 330.5,180.5C 320.5,180.5 310.5,180.5 300.5,180.5C 300.5,180.167 300.5,179.833 300.5,179.5C 300.5,169.833 300.5,160.167 300.5,150.5C 290.5,150.5 280.5,150.5 270.5,150.5C 270.5,150.167 270.5,149.833 270.5,149.5C 280.5,149.5 290.5,149.5 300.5,149.5C 300.5,139.5 300.5,129.5 300.5,119.5 Z"/></g>
<g><path style="opacity:1" fill="#e6f2fe" d="M 330.5,150.5 C 330.5,160.167 330.5,169.833 330.5,179.5C 320.833,179.5 311.167,179.5 301.5,179.5C 301.5,169.833 301.5,160.167 301.5,150.5C 311.167,150.5 320.833,150.5 330.5,150.5 Z"/></g>
<g><path style="opacity:1" fill="#000000" d="M 361.5,150.5 C 371.167,150.5 380.833,150.5 390.5,150.5C 390.5,180.5 390.5,210.5 390.5,240.5C 380.833,240.5 371.167,240.5 361.5,240.5C 361.5,210.5 361.5,180.5 361.5,150.5 Z"/></g>
<g><path style="opacity:1" fill="#78394e" d="M 330.5,89.5 C 331.494,99.3194 331.827,109.319 331.5,119.5C 341.5,119.5 351.5,119.5 361.5,119.5C 361.5,129.5 361.5,139.5 361.5,149.5C 371.5,149.5 381.5,149.5 391.5,149.5C 391.831,180.005 391.498,210.338 390.5,240.5C 390.5,210.5 390.5,180.5 390.5,150.5C 380.833,150.5 371.167,150.5 361.5,150.5C 361.167,150.5 360.833,150.5 360.5,150.5C 360.5,150.167 360.5,149.833 360.5,149.5C 350.833,149.5 341.167,149.5 331.5,149.5C 331.5,139.833 331.5,130.167 331.5,120.5C 331.167,120.5 330.833,120.5 330.5,120.5C 330.5,120.167 330.5,119.833 330.5,119.5C 330.5,109.833 330.5,100.167 330.5,90.5C 330.5,90.1667 330.5,89.8333 330.5,89.5 Z"/></g>
<g><path style="opacity:1" fill="#acb4be" d="M 210.5,150.5 C 210.5,160.5 210.5,170.5 210.5,180.5C 200.5,180.5 190.5,180.5 180.5,180.5C 189.986,179.506 199.652,179.173 209.5,179.5C 209.173,169.652 209.506,159.986 210.5,150.5 Z"/></g>
<g><path style="opacity:1" fill="#040302" d="M 180.5,180.5 C 190.5,180.5 200.5,180.5 210.5,180.5C 210.5,190.5 210.5,200.5 210.5,210.5C 200.5,210.5 190.5,210.5 180.5,210.5C 180.5,200.5 180.5,190.5 180.5,180.5 Z"/></g>
<g><path style="opacity:1" fill="#f0831e" d="M 270.5,179.5 C 280.5,179.5 290.5,179.5 300.5,179.5C 300.5,179.833 300.5,180.167 300.5,180.5C 300.5,190.5 300.5,200.5 300.5,210.5C 290.5,210.5 280.5,210.5 270.5,210.5C 270.5,200.167 270.5,189.833 270.5,179.5 Z"/></g>
<g><path style="opacity:1" fill="#060402" d="M 300.5,180.5 C 310.5,180.5 320.5,180.5 330.5,180.5C 330.5,190.5 330.5,200.5 330.5,210.5C 320.833,210.5 311.167,210.5 301.5,210.5C 301.167,210.5 300.833,210.5 300.5,210.5C 300.5,200.5 300.5,190.5 300.5,180.5 Z"/></g>
<g><path style="opacity:1" fill="#000000" d="M 210.5,210.5 C 220.5,210.5 230.5,210.5 240.5,210.5C 240.5,220.5 240.5,230.5 240.5,240.5C 240.5,230.5 240.5,220.5 240.5,210.5C 230.5,210.5 220.5,210.5 210.5,210.5 Z"/></g>
<g><path style="opacity:1" fill="#000000" d="M 270.5,210.5 C 280.5,210.5 290.5,210.5 300.5,210.5C 300.5,220.5 300.5,230.5 300.5,240.5C 290.5,240.5 280.5,240.5 270.5,240.5C 270.5,230.5 270.5,220.5 270.5,210.5 Z"/></g>
<g><path style="opacity:1" fill="#e6f1fe" d="M 301.5,210.5 C 311.167,210.5 320.833,210.5 330.5,210.5C 330.5,220.5 330.5,230.5 330.5,240.5C 320.833,240.5 311.167,240.5 301.5,240.5C 301.5,230.5 301.5,220.5 301.5,210.5 Z"/></g>
<g><path style="opacity:1" fill="#030303" d="M 150.5,240.5 C 160.5,240.5 170.5,240.5 180.5,240.5C 180.5,250.5 180.5,260.5 180.5,270.5C 170.5,270.5 160.5,270.5 150.5,270.5C 150.5,260.5 150.5,250.5 150.5,240.5 Z"/></g>
<g><path style="opacity:1" fill="#000000" d="M 240.5,240.5 C 250.5,240.5 260.5,240.5 270.5,240.5C 270.5,250.5 270.5,260.5 270.5,270.5C 260.5,270.5 250.5,270.5 240.5,270.5C 240.5,260.5 240.5,250.5 240.5,240.5 Z"/></g>
<g><path style="opacity:1" fill="#e6f1fe" d="M 270.5,240.5 C 280.5,240.5 290.5,240.5 300.5,240.5C 300.5,250.5 300.5,260.5 300.5,270.5C 290.5,270.5 280.5,270.5 270.5,270.5C 270.5,260.5 270.5,250.5 270.5,240.5 Z"/></g>
<g><path style="opacity:1" fill="#b5b8dc" d="M 300.5,210.5 C 300.833,210.5 301.167,210.5 301.5,210.5C 301.5,220.5 301.5,230.5 301.5,240.5C 311.167,240.5 320.833,240.5 330.5,240.5C 330.5,250.5 330.5,260.5 330.5,270.5C 320.5,270.5 310.5,270.5 300.5,270.5C 300.5,260.5 300.5,250.5 300.5,240.5C 300.5,230.5 300.5,220.5 300.5,210.5 Z"/></g>
<g><path style="opacity:1" fill="#000000" d="M 360.5,240.5 C 360.5,250.5 360.5,260.5 360.5,270.5C 350.833,270.5 341.167,270.5 331.5,270.5C 331.5,260.5 331.5,250.5 331.5,240.5C 341.167,240.5 350.833,240.5 360.5,240.5 Z"/></g>
<g><path style="opacity:1" fill="#bb4798" d="M 420.5,270.5 C 420.833,270.5 421.167,270.5 421.5,270.5C 421.5,290.5 421.5,310.5 421.5,330.5C 411.5,330.5 401.5,330.5 391.5,330.5C 391.5,310.5 391.5,290.5 391.5,270.5C 401.167,270.5 410.833,270.5 420.5,270.5 Z"/></g>
<g><path style="opacity:1" fill="#020202" d="M 180.5,270.5 C 190.5,270.5 200.5,270.5 210.5,270.5C 210.5,280.5 210.5,290.5 210.5,300.5C 200.5,300.5 190.5,300.5 180.5,300.5C 180.5,290.5 180.5,280.5 180.5,270.5 Z"/></g>
<g><path style="opacity:1" fill="#b5b8dc" d="M 270.5,270.5 C 280.5,270.5 290.5,270.5 300.5,270.5C 300.5,280.5 300.5,290.5 300.5,300.5C 290.5,300.5 280.5,300.5 270.5,300.5C 270.5,290.5 270.5,280.5 270.5,270.5 Z"/></g>
<g><path style="opacity:1" fill="#040405" d="M 300.5,270.5 C 310.5,270.5 320.5,270.5 330.5,270.5C 330.5,280.5 330.5,290.5 330.5,300.5C 320.5,300.5 310.5,300.5 300.5,300.5C 300.5,290.5 300.5,280.5 300.5,270.5 Z"/></g>
<g><path style="opacity:1" fill="#020202" d="M 210.5,300.5 C 230.5,300.5 250.5,300.5 270.5,300.5C 280.5,300.5 290.5,300.5 300.5,300.5C 300.5,310.5 300.5,320.5 300.5,330.5C 270.5,330.5 240.5,330.5 210.5,330.5C 210.5,320.5 210.5,310.5 210.5,300.5 Z"/></g>
<g><path style="opacity:0.969" fill="#000000" d="M 89.5,331.5 C 99.5,331.5 109.5,331.5 119.5,331.5C 119.5,341.5 119.5,351.5 119.5,361.5C 119.5,351.5 119.5,341.5 119.5,331.5C 109.5,331.5 99.5,331.5 89.5,331.5 Z"/></g>
<g><path style="opacity:1" fill="#bd4799" d="M 390.5,330.5 C 390.5,340.5 390.5,350.5 390.5,360.5C 380.5,360.5 370.5,360.5 360.5,360.5C 360.5,350.5 360.5,340.5 360.5,330.5C 370.5,330.5 380.5,330.5 390.5,330.5 Z"/></g>
<g><path style="opacity:0.969" fill="#000000" d="M 421.5,331.5 C 421.5,341.5 421.5,351.5 421.5,361.5C 411.5,361.5 401.5,361.5 391.5,361.5C 391.5,351.5 391.5,341.5 391.5,331.5C 401.5,331.5 411.5,331.5 421.5,331.5 Z"/></g>
<g><path style="opacity:1" fill="#853864" d="M 390.5,330.5 C 390.833,330.5 391.167,330.5 391.5,330.5C 401.5,330.5 411.5,330.5 421.5,330.5C 421.5,330.833 421.5,331.167 421.5,331.5C 411.5,331.5 401.5,331.5 391.5,331.5C 391.5,341.5 391.5,351.5 391.5,361.5C 381.5,361.5 371.5,361.5 361.5,361.5C 361.5,371.5 361.5,381.5 361.5,391.5C 351.5,391.5 341.5,391.5 331.5,391.5C 331.5,401.5 331.5,411.5 331.5,421.5C 331.167,421.5 330.833,421.5 330.5,421.5C 330.5,411.167 330.5,400.833 330.5,390.5C 340.5,390.5 350.5,390.5 360.5,390.5C 360.5,380.5 360.5,370.5 360.5,360.5C 370.5,360.5 380.5,360.5 390.5,360.5C 390.5,350.5 390.5,340.5 390.5,330.5 Z"/></g>
<g><path style="opacity:0.969" fill="#000000" d="M 119.5,361.5 C 129.5,361.5 139.5,361.5 149.5,361.5C 149.5,371.5 149.5,381.5 149.5,391.5C 149.5,381.5 149.5,371.5 149.5,361.5C 139.5,361.5 129.5,361.5 119.5,361.5 Z"/></g>
<g><path style="opacity:1" fill="#6e3547" d="M 89.5,270.5 C 90.4971,290.326 90.8305,310.326 90.5,330.5C 100.5,330.5 110.5,330.5 120.5,330.5C 120.5,340.5 120.5,350.5 120.5,360.5C 130.5,360.5 140.5,360.5 150.5,360.5C 150.5,370.5 150.5,380.5 150.5,390.5C 160.5,390.5 170.5,390.5 180.5,390.5C 180.5,400.5 180.5,410.5 180.5,420.5C 190.681,420.173 200.681,420.506 210.5,421.5C 200.167,421.5 189.833,421.5 179.5,421.5C 179.5,411.5 179.5,401.5 179.5,391.5C 169.5,391.5 159.5,391.5 149.5,391.5C 149.5,381.5 149.5,371.5 149.5,361.5C 139.5,361.5 129.5,361.5 119.5,361.5C 119.5,351.5 119.5,341.5 119.5,331.5C 109.5,331.5 99.5,331.5 89.5,331.5C 89.5,311.167 89.5,290.833 89.5,270.5 Z"/></g>
<g><path style="opacity:1" fill="#bc4799" d="M 360.5,360.5 C 360.5,370.5 360.5,380.5 360.5,390.5C 350.5,390.5 340.5,390.5 330.5,390.5C 330.5,380.5 330.5,370.5 330.5,360.5C 340.5,360.5 350.5,360.5 360.5,360.5 Z"/></g>
<g><path style="opacity:0.969" fill="#000000" d="M 391.5,361.5 C 391.5,371.5 391.5,381.5 391.5,391.5C 381.5,391.5 371.5,391.5 361.5,391.5C 361.5,381.5 361.5,371.5 361.5,361.5C 371.5,361.5 381.5,361.5 391.5,361.5 Z"/></g>
<g><path style="opacity:0.969" fill="#000000" d="M 149.5,391.5 C 159.5,391.5 169.5,391.5 179.5,391.5C 179.5,401.5 179.5,411.5 179.5,421.5C 169.5,421.5 159.5,421.5 149.5,421.5C 149.5,411.5 149.5,401.5 149.5,391.5 Z"/></g>
<g><path style="opacity:1" fill="#bc4798" d="M 330.5,390.5 C 330.5,400.833 330.5,411.167 330.5,421.5C 320.833,421.5 311.167,421.5 301.5,421.5C 301.167,421.5 300.833,421.5 300.5,421.5C 300.5,411.167 300.5,400.833 300.5,390.5C 310.5,390.5 320.5,390.5 330.5,390.5 Z"/></g>
<g><path style="opacity:0.969" fill="#000000" d="M 361.5,391.5 C 361.5,401.5 361.5,411.5 361.5,421.5C 351.5,421.5 341.5,421.5 331.5,421.5C 331.5,411.5 331.5,401.5 331.5,391.5C 341.5,391.5 351.5,391.5 361.5,391.5 Z"/></g>
<g><path style="opacity:0.969" fill="#000000" d="M 301.5,421.5 C 311.167,421.5 320.833,421.5 330.5,421.5C 330.833,421.5 331.167,421.5 331.5,421.5C 331.5,431.5 331.5,441.5 331.5,451.5C 321.5,451.5 311.5,451.5 301.5,451.5C 301.5,441.5 301.5,431.5 301.5,421.5 Z"/></g>
<g><path style="opacity:0.941" fill="#010001" d="M 179.5,421.5 C 189.833,421.5 200.167,421.5 210.5,421.5C 210.5,431.5 210.5,441.5 210.5,451.5C 220.5,451.5 230.5,451.5 240.5,451.5C 240.5,461.5 240.5,471.5 240.5,481.5C 250.5,481.5 260.5,481.5 270.5,481.5C 270.5,471.5 270.5,461.5 270.5,451.5C 280.5,451.5 290.5,451.5 300.5,451.5C 300.5,441.5 300.5,431.5 300.5,421.5C 300.833,421.5 301.167,421.5 301.5,421.5C 301.5,431.5 301.5,441.5 301.5,451.5C 301.5,461.5 301.5,471.5 301.5,481.5C 291.5,481.5 281.5,481.5 271.5,481.5C 271.5,491.5 271.5,501.5 271.5,511.5C 260.833,511.5 250.167,511.5 239.5,511.5C 239.5,501.5 239.5,491.5 239.5,481.5C 229.5,481.5 219.5,481.5 209.5,481.5C 209.5,471.5 209.5,461.5 209.5,451.5C 199.5,451.5 189.5,451.5 179.5,451.5C 179.5,441.5 179.5,431.5 179.5,421.5 Z"/></g>
<g><path style="opacity:1" fill="#bc4798" d="M 240.5,451.5 C 250.5,451.5 260.5,451.5 270.5,451.5C 270.5,461.5 270.5,471.5 270.5,481.5C 260.5,481.5 250.5,481.5 240.5,481.5C 240.5,471.5 240.5,461.5 240.5,451.5 Z"/></g>
<g><path style="opacity:1" fill="#bc4798" d="M 300.5,421.5 C 300.5,431.5 300.5,441.5 300.5,451.5C 290.5,451.5 280.5,451.5 270.5,451.5C 270.5,441.5 270.5,431.5 270.5,421.5C 280.5,421.5 290.5,421.5 300.5,421.5 Z"/></g>
</svg>
