<?xml version="1.0" encoding="UTF-8"?>
<!DOCTYPE svg PUBLIC "-//W3C//DTD SVG 1.1//EN" "http://www.w3.org/Graphics/SVG/1.1/DTD/svg11.dtd">
<svg xmlns="http://www.w3.org/2000/svg" version="1.1" width="512px" height="512px" style="shape-rendering:geometricPrecision; text-rendering:geometricPrecision; image-rendering:optimizeQuality; fill-rule:evenodd; clip-rule:evenodd" xmlns:xlink="http://www.w3.org/1999/xlink">
<g><path style="opacity:0.98" fill="#000000" d="M 240.5,89.5 C 220.5,89.5 200.5,89.5 180.5,89.5C 180.167,89.5 179.833,89.5 179.5,89.5C 179.5,79.5 179.5,69.5 179.5,59.5C 199.833,59.5 220.167,59.5 240.5,59.5C 240.5,69.5 240.5,79.5 240.5,89.5 Z"/></g>
<g><path style="opacity:0.98" fill="#030101" d="M 331.5,89.5 C 331.5,109.5 331.5,129.5 331.5,149.5C 331.167,149.5 330.833,149.5 330.5,149.5C 330.5,139.5 330.5,129.5 330.5,119.5C 330.5,109.5 330.5,99.5 330.5,89.5C 310.5,89.5 290.5,89.5 270.5,89.5C 270.5,79.5 270.5,69.5 270.5,59.5C 290.833,59.5 311.167,59.5 331.5,59.5C 331.5,69.5 331.5,79.5 331.5,89.5 Z"/></g>
<g><path style="opacity:0.983" fill="#000000" d="M 179.5,89.5 C 179.5,109.5 179.5,129.5 179.5,149.5C 139.5,149.5 99.5,149.5 59.5,149.5C 59.5,139.5 59.5,129.5 59.5,119.5C 89.5,119.5 119.5,119.5 149.5,119.5C 149.5,109.5 149.5,99.5 149.5,89.5C 159.5,89.5 169.5,89.5 179.5,89.5 Z"/></g>
<g><path style="opacity:0.988" fill="#000000" d="M 240.5,89.5 C 250.5,89.5 260.5,89.5 270.5,89.5C 270.5,99.5 270.5,109.5 270.5,119.5C 260.5,119.5 250.5,119.5 240.5,119.5C 240.5,109.5 240.5,99.5 240.5,89.5 Z"/></g>
<g><path style="opacity:0.983" fill="#000000" d="M 331.5,89.5 C 341.5,89.5 351.5,89.5 361.5,89.5C 361.5,99.5 361.5,109.5 361.5,119.5C 391.5,119.5 421.5,119.5 451.5,119.5C 451.5,129.5 451.5,139.5 451.5,149.5C 411.5,149.5 371.5,149.5 331.5,149.5C 331.5,129.5 331.5,109.5 331.5,89.5 Z"/></g>
<g><path style="opacity:1" fill="#fba3af" d="M 180.5,89.5 C 200.5,89.5 220.5,89.5 240.5,89.5C 240.5,99.5 240.5,109.5 240.5,119.5C 220.5,119.5 200.5,119.5 180.5,119.5C 180.5,109.5 180.5,99.5 180.5,89.5 Z"/></g>
<g><path style="opacity:1" fill="#fba3af" d="M 270.5,89.5 C 290.5,89.5 310.5,89.5 330.5,89.5C 330.5,99.5 330.5,109.5 330.5,119.5C 310.5,119.5 290.5,119.5 270.5,119.5C 270.5,109.5 270.5,99.5 270.5,89.5 Z"/></g>
<g><path style="opacity:1" fill="#fd6278" d="M 180.5,119.5 C 200.5,119.5 220.5,119.5 240.5,119.5C 240.5,129.833 240.5,140.167 240.5,150.5C 250.5,150.5 260.5,150.5 270.5,150.5C 270.5,140.167 270.5,129.833 270.5,119.5C 290.5,119.5 310.5,119.5 330.5,119.5C 330.5,129.5 330.5,139.5 330.5,149.5C 330.5,149.833 330.5,150.167 330.5,150.5C 320.5,150.5 310.5,150.5 300.5,150.5C 300.5,160.167 300.5,169.833 300.5,179.5C 300.5,179.833 300.5,180.167 300.5,180.5C 290.5,180.5 280.5,180.5 270.5,180.5C 270.5,190.5 270.5,200.5 270.5,210.5C 260.5,210.5 250.5,210.5 240.5,210.5C 240.5,200.5 240.5,190.5 240.5,180.5C 230.5,180.5 220.5,180.5 210.5,180.5C 210.5,170.5 210.5,160.5 210.5,150.5C 200.5,150.5 190.5,150.5 180.5,150.5C 180.5,140.167 180.5,129.833 180.5,119.5 Z"/></g>
<g><path style="opacity:1" fill="#fba2ae" d="M 240.5,119.5 C 250.5,119.5 260.5,119.5 270.5,119.5C 270.5,129.833 270.5,140.167 270.5,150.5C 260.5,150.5 250.5,150.5 240.5,150.5C 240.5,140.167 240.5,129.833 240.5,119.5 Z"/></g>
<g><path style="opacity:0.977" fill="#030201" d="M 59.5,149.5 C 59.5,149.833 59.5,150.167 59.5,150.5C 59.5,160.5 59.5,170.5 59.5,180.5C 49.5,180.5 39.5,180.5 29.5,180.5C 29.5,180.167 29.5,179.833 29.5,179.5C 29.5,169.5 29.5,159.5 29.5,149.5C 39.5,149.5 49.5,149.5 59.5,149.5 Z"/></g>
<g><path style="opacity:1" fill="#625048" d="M 179.5,89.5 C 179.833,89.5 180.167,89.5 180.5,89.5C 180.5,99.5 180.5,109.5 180.5,119.5C 180.5,129.833 180.5,140.167 180.5,150.5C 140.5,150.5 100.5,150.5 60.5,150.5C 60.1667,150.5 59.8333,150.5 59.5,150.5C 59.5,150.167 59.5,149.833 59.5,149.5C 99.5,149.5 139.5,149.5 179.5,149.5C 179.5,129.5 179.5,109.5 179.5,89.5 Z"/></g>
<g><path style="opacity:0.977" fill="#030201" d="M 451.5,149.5 C 461.5,149.5 471.5,149.5 481.5,149.5C 481.5,159.5 481.5,169.5 481.5,179.5C 481.5,179.833 481.5,180.167 481.5,180.5C 471.5,180.5 461.5,180.5 451.5,180.5C 451.5,170.5 451.5,160.5 451.5,150.5C 451.5,150.167 451.5,149.833 451.5,149.5 Z"/></g>
<g><path style="opacity:1" fill="#fee7ca" d="M 60.5,150.5 C 100.5,150.5 140.5,150.5 180.5,150.5C 190.5,150.5 200.5,150.5 210.5,150.5C 210.5,160.5 210.5,170.5 210.5,180.5C 220.5,180.5 230.5,180.5 240.5,180.5C 240.5,190.5 240.5,200.5 240.5,210.5C 240.5,220.5 240.5,230.5 240.5,240.5C 250.5,240.5 260.5,240.5 270.5,240.5C 270.5,230.5 270.5,220.5 270.5,210.5C 280.5,210.5 290.5,210.5 300.5,210.5C 300.5,200.5 300.5,190.5 300.5,180.5C 310.833,180.5 321.167,180.5 331.5,180.5C 331.5,170.5 331.5,160.5 331.5,150.5C 371.167,150.5 410.833,150.5 450.5,150.5C 450.5,160.167 450.5,169.833 450.5,179.5C 440.652,179.173 430.986,179.506 421.5,180.5C 420.506,189.986 420.173,199.652 420.5,209.5C 410.652,209.173 400.986,209.506 391.5,210.5C 390.506,220.319 390.173,230.319 390.5,240.5C 380.833,240.5 371.167,240.5 361.5,240.5C 360.506,250.319 360.173,260.319 360.5,270.5C 350.5,270.5 340.5,270.5 330.5,270.5C 330.5,280.5 330.5,290.5 330.5,300.5C 280.5,300.5 230.5,300.5 180.5,300.5C 180.5,290.5 180.5,280.5 180.5,270.5C 170.5,270.5 160.5,270.5 150.5,270.5C 150.827,260.319 150.494,250.319 149.5,240.5C 139.833,240.5 130.167,240.5 120.5,240.5C 120.827,230.319 120.494,220.319 119.5,210.5C 110.014,209.506 100.348,209.173 90.5,209.5C 90.8271,199.652 90.4938,189.986 89.5,180.5C 80.0144,179.506 70.3478,179.173 60.5,179.5C 60.5,169.833 60.5,160.167 60.5,150.5 Z"/></g>
<g><path style="opacity:1" fill="#060403" d="M 180.5,150.5 C 190.5,150.5 200.5,150.5 210.5,150.5C 210.5,160.5 210.5,170.5 210.5,180.5C 200.5,180.5 190.5,180.5 180.5,180.5C 180.5,170.5 180.5,160.5 180.5,150.5 Z"/></g>
<g><path style="opacity:1" fill="#020000" d="M 330.5,150.5 C 330.5,160.167 330.5,169.833 330.5,179.5C 320.5,179.5 310.5,179.5 300.5,179.5C 300.5,169.833 300.5,160.167 300.5,150.5C 310.5,150.5 320.5,150.5 330.5,150.5 Z"/></g>
<g><path style="opacity:1" fill="#887c6c" d="M 330.5,149.5 C 330.833,149.5 331.167,149.5 331.5,149.5C 371.5,149.5 411.5,149.5 451.5,149.5C 451.5,149.833 451.5,150.167 451.5,150.5C 451.167,150.5 450.833,150.5 450.5,150.5C 410.833,150.5 371.167,150.5 331.5,150.5C 331.5,160.5 331.5,170.5 331.5,180.5C 321.167,180.5 310.833,180.5 300.5,180.5C 300.5,180.167 300.5,179.833 300.5,179.5C 310.5,179.5 320.5,179.5 330.5,179.5C 330.5,169.833 330.5,160.167 330.5,150.5C 330.5,150.167 330.5,149.833 330.5,149.5 Z"/></g>
<g><path style="opacity:0.994" fill="#000000" d="M -0.5,179.5 C 9.5,179.5 19.5,179.5 29.5,179.5C 29.5,179.833 29.5,180.167 29.5,180.5C 29.5,250.5 29.5,320.5 29.5,390.5C 29.5,390.833 29.5,391.167 29.5,391.5C 19.5,391.5 9.5,391.5 -0.5,391.5C -0.5,320.833 -0.5,250.167 -0.5,179.5 Z"/></g>
<g><path style="opacity:1" fill="#b9a893" d="M 59.5,150.5 C 59.8333,150.5 60.1667,150.5 60.5,150.5C 60.5,160.167 60.5,169.833 60.5,179.5C 70.3478,179.173 80.0144,179.506 89.5,180.5C 79.8333,180.5 70.1667,180.5 60.5,180.5C 60.1667,180.5 59.8333,180.5 59.5,180.5C 59.5,170.5 59.5,160.5 59.5,150.5 Z"/></g>
<g><path style="opacity:1" fill="#b9a893" d="M 450.5,150.5 C 450.833,150.5 451.167,150.5 451.5,150.5C 451.5,160.5 451.5,170.5 451.5,180.5C 451.167,180.5 450.833,180.5 450.5,180.5C 440.833,180.5 431.167,180.5 421.5,180.5C 430.986,179.506 440.652,179.173 450.5,179.5C 450.5,169.833 450.5,160.167 450.5,150.5 Z"/></g>
<g><path style="opacity:0.994" fill="#000000" d="M 481.5,179.5 C 491.5,179.5 501.5,179.5 511.5,179.5C 511.5,250.167 511.5,320.833 511.5,391.5C 501.5,391.5 491.5,391.5 481.5,391.5C 481.5,391.167 481.5,390.833 481.5,390.5C 481.5,320.5 481.5,250.5 481.5,180.5C 481.5,180.167 481.5,179.833 481.5,179.5 Z"/></g>
<g><path style="opacity:1" fill="#ebc271" d="M 29.5,180.5 C 39.5,180.5 49.5,180.5 59.5,180.5C 59.5,190.5 59.5,200.5 59.5,210.5C 69.5,210.5 79.5,210.5 89.5,210.5C 89.5,220.5 89.5,230.5 89.5,240.5C 79.5,240.5 69.5,240.5 59.5,240.5C 59.5,280.5 59.5,320.5 59.5,360.5C 59.5,370.5 59.5,380.5 59.5,390.5C 49.5,390.5 39.5,390.5 29.5,390.5C 29.5,320.5 29.5,250.5 29.5,180.5 Z"/></g>
<g><path style="opacity:1" fill="#000000" d="M 60.5,180.5 C 70.1667,180.5 79.8333,180.5 89.5,180.5C 89.5,190.167 89.5,199.833 89.5,209.5C 79.8333,209.5 70.1667,209.5 60.5,209.5C 60.5,199.833 60.5,190.167 60.5,180.5 Z"/></g>
<g><path style="opacity:1" fill="#020201" d="M 210.5,180.5 C 220.5,180.5 230.5,180.5 240.5,180.5C 240.5,190.5 240.5,200.5 240.5,210.5C 230.5,210.5 220.5,210.5 210.5,210.5C 210.5,200.5 210.5,190.5 210.5,180.5 Z"/></g>
<g><path style="opacity:1" fill="#020201" d="M 300.5,180.5 C 300.5,190.5 300.5,200.5 300.5,210.5C 290.5,210.5 280.5,210.5 270.5,210.5C 270.5,200.5 270.5,190.5 270.5,180.5C 280.5,180.5 290.5,180.5 300.5,180.5 Z"/></g>
<g><path style="opacity:1" fill="#000000" d="M 421.5,180.5 C 431.167,180.5 440.833,180.5 450.5,180.5C 450.5,190.167 450.5,199.833 450.5,209.5C 440.833,209.5 431.167,209.5 421.5,209.5C 421.5,199.833 421.5,190.167 421.5,180.5 Z"/></g>
<g><path style="opacity:1" fill="#ebc271" d="M 451.5,180.5 C 461.5,180.5 471.5,180.5 481.5,180.5C 481.5,250.5 481.5,320.5 481.5,390.5C 471.5,390.5 461.5,390.5 451.5,390.5C 451.5,380.5 451.5,370.5 451.5,360.5C 451.5,320.5 451.5,280.5 451.5,240.5C 441.5,240.5 431.5,240.5 421.5,240.5C 421.5,230.5 421.5,220.5 421.5,210.5C 431.5,210.5 441.5,210.5 451.5,210.5C 451.5,200.5 451.5,190.5 451.5,180.5 Z"/></g>
<g><path style="opacity:1" fill="#2f2717" d="M 59.5,180.5 C 59.8333,180.5 60.1667,180.5 60.5,180.5C 60.5,190.167 60.5,199.833 60.5,209.5C 70.1667,209.5 79.8333,209.5 89.5,209.5C 89.5,209.833 89.5,210.167 89.5,210.5C 79.5,210.5 69.5,210.5 59.5,210.5C 59.5,200.5 59.5,190.5 59.5,180.5 Z"/></g>
<g><path style="opacity:1" fill="#c2b19a" d="M 89.5,180.5 C 90.4938,189.986 90.8271,199.652 90.5,209.5C 100.348,209.173 110.014,209.506 119.5,210.5C 109.5,210.5 99.5,210.5 89.5,210.5C 89.5,210.167 89.5,209.833 89.5,209.5C 89.5,199.833 89.5,190.167 89.5,180.5 Z"/></g>
<g><path style="opacity:1" fill="#c2b19a" d="M 421.5,180.5 C 421.5,190.167 421.5,199.833 421.5,209.5C 421.5,209.833 421.5,210.167 421.5,210.5C 411.5,210.5 401.5,210.5 391.5,210.5C 400.986,209.506 410.652,209.173 420.5,209.5C 420.173,199.652 420.506,189.986 421.5,180.5 Z"/></g>
<g><path style="opacity:1" fill="#2f2717" d="M 450.5,180.5 C 450.833,180.5 451.167,180.5 451.5,180.5C 451.5,190.5 451.5,200.5 451.5,210.5C 441.5,210.5 431.5,210.5 421.5,210.5C 421.5,210.167 421.5,209.833 421.5,209.5C 431.167,209.5 440.833,209.5 450.5,209.5C 450.5,199.833 450.5,190.167 450.5,180.5 Z"/></g>
<g><path style="opacity:1" fill="#040302" d="M 89.5,210.5 C 99.5,210.5 109.5,210.5 119.5,210.5C 119.5,220.5 119.5,230.5 119.5,240.5C 109.5,240.5 99.5,240.5 89.5,240.5C 89.5,230.5 89.5,220.5 89.5,210.5 Z"/></g>
<g><path style="opacity:1" fill="#000000" d="M 240.5,210.5 C 250.5,210.5 260.5,210.5 270.5,210.5C 270.5,220.5 270.5,230.5 270.5,240.5C 260.5,240.5 250.5,240.5 240.5,240.5C 240.5,230.5 240.5,220.5 240.5,210.5 Z"/></g>
<g><path style="opacity:1" fill="#040302" d="M 391.5,210.5 C 401.5,210.5 411.5,210.5 421.5,210.5C 421.5,220.5 421.5,230.5 421.5,240.5C 411.5,240.5 401.5,240.5 391.5,240.5C 391.5,230.5 391.5,220.5 391.5,210.5 Z"/></g>
<g><path style="opacity:1" fill="#fee7ca" d="M 89.5,240.5 C 89.5,250.5 89.5,260.5 89.5,270.5C 99.5,270.5 109.5,270.5 119.5,270.5C 119.5,280.5 119.5,290.5 119.5,300.5C 119.5,310.5 119.5,320.5 119.5,330.5C 109.5,330.5 99.5,330.5 89.5,330.5C 89.5,340.5 89.5,350.5 89.5,360.5C 79.5,360.5 69.5,360.5 59.5,360.5C 59.5,320.5 59.5,280.5 59.5,240.5C 69.5,240.5 79.5,240.5 89.5,240.5 Z"/></g>
<g><path style="opacity:1" fill="#ecc372" d="M 89.5,240.5 C 99.5,240.5 109.5,240.5 119.5,240.5C 119.5,250.5 119.5,260.5 119.5,270.5C 109.5,270.5 99.5,270.5 89.5,270.5C 89.5,260.5 89.5,250.5 89.5,240.5 Z"/></g>
<g><path style="opacity:1" fill="#000000" d="M 120.5,240.5 C 130.167,240.5 139.833,240.5 149.5,240.5C 149.5,250.5 149.5,260.5 149.5,270.5C 139.833,270.5 130.167,270.5 120.5,270.5C 120.5,260.5 120.5,250.5 120.5,240.5 Z"/></g>
<g><path style="opacity:1" fill="#000000" d="M 361.5,240.5 C 371.167,240.5 380.833,240.5 390.5,240.5C 390.5,250.5 390.5,260.5 390.5,270.5C 380.833,270.5 371.167,270.5 361.5,270.5C 361.5,260.5 361.5,250.5 361.5,240.5 Z"/></g>
<g><path style="opacity:1" fill="#ecc372" d="M 391.5,240.5 C 401.5,240.5 411.5,240.5 421.5,240.5C 421.5,250.5 421.5,260.5 421.5,270.5C 411.5,270.5 401.5,270.5 391.5,270.5C 391.5,260.5 391.5,250.5 391.5,240.5 Z"/></g>
<g><path style="opacity:1" fill="#fee7ca" d="M 421.5,240.5 C 431.5,240.5 441.5,240.5 451.5,240.5C 451.5,280.5 451.5,320.5 451.5,360.5C 441.5,360.5 431.5,360.5 421.5,360.5C 421.5,350.5 421.5,340.5 421.5,330.5C 411.5,330.5 401.5,330.5 391.5,330.5C 391.5,320.5 391.5,310.5 391.5,300.5C 391.5,290.5 391.5,280.5 391.5,270.5C 401.5,270.5 411.5,270.5 421.5,270.5C 421.5,260.5 421.5,250.5 421.5,240.5 Z"/></g>
<g><path style="opacity:1" fill="#e4bd70" d="M 119.5,210.5 C 120.494,220.319 120.827,230.319 120.5,240.5C 120.5,250.5 120.5,260.5 120.5,270.5C 130.167,270.5 139.833,270.5 149.5,270.5C 149.5,280.5 149.5,290.5 149.5,300.5C 139.833,300.5 130.167,300.5 120.5,300.5C 120.167,300.5 119.833,300.5 119.5,300.5C 119.5,290.5 119.5,280.5 119.5,270.5C 119.5,260.5 119.5,250.5 119.5,240.5C 119.5,230.5 119.5,220.5 119.5,210.5 Z"/></g>
<g><path style="opacity:1" fill="#040303" d="M 150.5,270.5 C 160.5,270.5 170.5,270.5 180.5,270.5C 180.5,280.5 180.5,290.5 180.5,300.5C 170.5,300.5 160.5,300.5 150.5,300.5C 150.5,290.5 150.5,280.5 150.5,270.5 Z"/></g>
<g><path style="opacity:1" fill="#040303" d="M 360.5,270.5 C 360.5,280.5 360.5,290.5 360.5,300.5C 350.5,300.5 340.5,300.5 330.5,300.5C 330.5,290.5 330.5,280.5 330.5,270.5C 340.5,270.5 350.5,270.5 360.5,270.5 Z"/></g>
<g><path style="opacity:1" fill="#e4bd70" d="M 391.5,210.5 C 391.5,220.5 391.5,230.5 391.5,240.5C 391.5,250.5 391.5,260.5 391.5,270.5C 391.5,280.5 391.5,290.5 391.5,300.5C 391.167,300.5 390.833,300.5 390.5,300.5C 380.833,300.5 371.167,300.5 361.5,300.5C 361.5,290.5 361.5,280.5 361.5,270.5C 371.167,270.5 380.833,270.5 390.5,270.5C 390.5,260.5 390.5,250.5 390.5,240.5C 390.173,230.319 390.506,220.319 391.5,210.5 Z"/></g>
<g><path style="opacity:1" fill="#ebc371" d="M 150.5,301.5 C 160.167,301.5 169.833,301.5 179.5,301.5C 179.5,311.167 179.5,320.833 179.5,330.5C 169.833,330.5 160.167,330.5 150.5,330.5C 150.5,320.833 150.5,311.167 150.5,301.5 Z"/></g>
<g><path style="opacity:1" fill="#b09155" d="M 150.5,301.5 C 150.5,301.167 150.5,300.833 150.5,300.5C 160.5,300.5 170.5,300.5 180.5,300.5C 180.5,310.5 180.5,320.5 180.5,330.5C 180.167,330.5 179.833,330.5 179.5,330.5C 179.5,320.833 179.5,311.167 179.5,301.5C 169.833,301.5 160.167,301.5 150.5,301.5 Z"/></g>
<g><path style="opacity:1" fill="#020201" d="M 180.5,300.5 C 230.5,300.5 280.5,300.5 330.5,300.5C 330.5,310.5 330.5,320.5 330.5,330.5C 280.5,330.5 230.5,330.5 180.5,330.5C 180.5,320.5 180.5,310.5 180.5,300.5 Z"/></g>
<g><path style="opacity:1" fill="#b09155" d="M 330.5,300.5 C 340.5,300.5 350.5,300.5 360.5,300.5C 360.5,300.833 360.5,301.167 360.5,301.5C 350.833,301.5 341.167,301.5 331.5,301.5C 331.5,311.167 331.5,320.833 331.5,330.5C 331.167,330.5 330.833,330.5 330.5,330.5C 330.5,320.5 330.5,310.5 330.5,300.5 Z"/></g>
<g><path style="opacity:1" fill="#ebc371" d="M 360.5,301.5 C 360.5,311.167 360.5,320.833 360.5,330.5C 350.833,330.5 341.167,330.5 331.5,330.5C 331.5,320.833 331.5,311.167 331.5,301.5C 341.167,301.5 350.833,301.5 360.5,301.5 Z"/></g>
<g><path style="opacity:1" fill="#534c42" d="M 119.5,330.5 C 119.5,330.833 119.5,331.167 119.5,331.5C 109.833,331.5 100.167,331.5 90.5,331.5C 90.5,341.167 90.5,350.833 90.5,360.5C 90.1667,360.5 89.8333,360.5 89.5,360.5C 89.5,350.5 89.5,340.5 89.5,330.5C 99.5,330.5 109.5,330.5 119.5,330.5 Z"/></g>
<g><path style="opacity:1" fill="#000000" d="M 119.5,331.5 C 119.5,341.167 119.5,350.833 119.5,360.5C 109.833,360.5 100.167,360.5 90.5,360.5C 90.5,350.833 90.5,341.167 90.5,331.5C 100.167,331.5 109.833,331.5 119.5,331.5 Z"/></g>
<g><path style="opacity:1" fill="#7d6947" d="M 149.5,240.5 C 150.494,250.319 150.827,260.319 150.5,270.5C 150.5,280.5 150.5,290.5 150.5,300.5C 150.5,300.833 150.5,301.167 150.5,301.5C 150.5,311.167 150.5,320.833 150.5,330.5C 150.5,330.833 150.5,331.167 150.5,331.5C 150.167,331.5 149.833,331.5 149.5,331.5C 139.833,331.5 130.167,331.5 120.5,331.5C 120.5,341.167 120.5,350.833 120.5,360.5C 120.167,360.5 119.833,360.5 119.5,360.5C 119.5,350.833 119.5,341.167 119.5,331.5C 119.5,331.167 119.5,330.833 119.5,330.5C 119.5,320.5 119.5,310.5 119.5,300.5C 119.833,300.5 120.167,300.5 120.5,300.5C 120.5,310.5 120.5,320.5 120.5,330.5C 130.167,330.5 139.833,330.5 149.5,330.5C 149.5,320.5 149.5,310.5 149.5,300.5C 149.5,290.5 149.5,280.5 149.5,270.5C 149.5,260.5 149.5,250.5 149.5,240.5 Z"/></g>
<g><path style="opacity:1" fill="#020100" d="M 120.5,300.5 C 130.167,300.5 139.833,300.5 149.5,300.5C 149.5,310.5 149.5,320.5 149.5,330.5C 139.833,330.5 130.167,330.5 120.5,330.5C 120.5,320.5 120.5,310.5 120.5,300.5 Z"/></g>
<g><path style="opacity:1" fill="#ebc371" d="M 149.5,331.5 C 149.5,341.167 149.5,350.833 149.5,360.5C 139.833,360.5 130.167,360.5 120.5,360.5C 120.5,350.833 120.5,341.167 120.5,331.5C 130.167,331.5 139.833,331.5 149.5,331.5 Z"/></g>
<g><path style="opacity:1" fill="#fee7ca" d="M 150.5,330.5 C 160.167,330.5 169.833,330.5 179.5,330.5C 179.833,330.5 180.167,330.5 180.5,330.5C 180.5,340.5 180.5,350.5 180.5,360.5C 230.5,360.5 280.5,360.5 330.5,360.5C 330.5,350.5 330.5,340.5 330.5,330.5C 330.833,330.5 331.167,330.5 331.5,330.5C 341.167,330.5 350.833,330.5 360.5,330.5C 360.5,330.833 360.5,331.167 360.5,331.5C 360.5,341.5 360.5,351.5 360.5,361.5C 370.5,361.5 380.5,361.5 390.5,361.5C 390.5,371.167 390.5,380.833 390.5,390.5C 300.5,390.5 210.5,390.5 120.5,390.5C 120.5,380.833 120.5,371.167 120.5,361.5C 130.5,361.5 140.5,361.5 150.5,361.5C 150.5,351.5 150.5,341.5 150.5,331.5C 150.5,331.167 150.5,330.833 150.5,330.5 Z"/></g>
<g><path style="opacity:1" fill="#e9c170" d="M 180.5,330.5 C 230.5,330.5 280.5,330.5 330.5,330.5C 330.5,340.5 330.5,350.5 330.5,360.5C 280.5,360.5 230.5,360.5 180.5,360.5C 180.5,350.5 180.5,340.5 180.5,330.5 Z"/></g>
<g><path style="opacity:1" fill="#ebc371" d="M 361.5,331.5 C 371.167,331.5 380.833,331.5 390.5,331.5C 390.5,341.167 390.5,350.833 390.5,360.5C 390.5,350.833 390.5,341.167 390.5,331.5C 380.833,331.5 371.167,331.5 361.5,331.5 Z"/></g>
<g><path style="opacity:1" fill="#7d6947" d="M 361.5,240.5 C 361.5,250.5 361.5,260.5 361.5,270.5C 361.5,280.5 361.5,290.5 361.5,300.5C 361.5,310.5 361.5,320.5 361.5,330.5C 371.167,330.5 380.833,330.5 390.5,330.5C 390.5,320.5 390.5,310.5 390.5,300.5C 390.833,300.5 391.167,300.5 391.5,300.5C 391.5,310.5 391.5,320.5 391.5,330.5C 391.5,330.833 391.5,331.167 391.5,331.5C 391.5,341.167 391.5,350.833 391.5,360.5C 391.167,360.5 390.833,360.5 390.5,360.5C 390.5,350.833 390.5,341.167 390.5,331.5C 380.833,331.5 371.167,331.5 361.5,331.5C 361.167,331.5 360.833,331.5 360.5,331.5C 360.5,331.167 360.5,330.833 360.5,330.5C 360.5,320.833 360.5,311.167 360.5,301.5C 360.5,301.167 360.5,300.833 360.5,300.5C 360.5,290.5 360.5,280.5 360.5,270.5C 360.173,260.319 360.506,250.319 361.5,240.5 Z"/></g>
<g><path style="opacity:1" fill="#020100" d="M 361.5,300.5 C 371.167,300.5 380.833,300.5 390.5,300.5C 390.5,310.5 390.5,320.5 390.5,330.5C 380.833,330.5 371.167,330.5 361.5,330.5C 361.5,320.5 361.5,310.5 361.5,300.5 Z"/></g>
<g><path style="opacity:1" fill="#000000" d="M 391.5,331.5 C 401.167,331.5 410.833,331.5 420.5,331.5C 420.5,341.167 420.5,350.833 420.5,360.5C 410.833,360.5 401.167,360.5 391.5,360.5C 391.5,350.833 391.5,341.167 391.5,331.5 Z"/></g>
<g><path style="opacity:1" fill="#534c42" d="M 391.5,331.5 C 391.5,331.167 391.5,330.833 391.5,330.5C 401.5,330.5 411.5,330.5 421.5,330.5C 421.5,340.5 421.5,350.5 421.5,360.5C 421.167,360.5 420.833,360.5 420.5,360.5C 420.5,350.833 420.5,341.167 420.5,331.5C 410.833,331.5 401.167,331.5 391.5,331.5 Z"/></g>
<g><path style="opacity:1" fill="#473e2c" d="M 59.5,360.5 C 69.5,360.5 79.5,360.5 89.5,360.5C 89.5,360.833 89.5,361.167 89.5,361.5C 79.8333,361.5 70.1667,361.5 60.5,361.5C 60.5,371.167 60.5,380.833 60.5,390.5C 60.1667,390.5 59.8333,390.5 59.5,390.5C 59.5,380.5 59.5,370.5 59.5,360.5 Z"/></g>
<g><path style="opacity:1" fill="#000000" d="M 89.5,361.5 C 89.5,371.167 89.5,380.833 89.5,390.5C 79.8333,390.5 70.1667,390.5 60.5,390.5C 60.5,380.833 60.5,371.167 60.5,361.5C 70.1667,361.5 79.8333,361.5 89.5,361.5 Z"/></g>
<g><path style="opacity:1" fill="#947a47" d="M 89.5,360.5 C 89.8333,360.5 90.1667,360.5 90.5,360.5C 100.167,360.5 109.833,360.5 119.5,360.5C 119.5,360.833 119.5,361.167 119.5,361.5C 109.833,361.5 100.167,361.5 90.5,361.5C 90.8271,371.348 90.4938,381.014 89.5,390.5C 89.5,380.833 89.5,371.167 89.5,361.5C 89.5,361.167 89.5,360.833 89.5,360.5 Z"/></g>
<g><path style="opacity:1" fill="#ebc271" d="M 119.5,361.5 C 119.5,371.5 119.5,381.5 119.5,391.5C 210.167,391.5 300.833,391.5 391.5,391.5C 391.5,381.5 391.5,371.5 391.5,361.5C 401.167,361.5 410.833,361.5 420.5,361.5C 420.173,371.348 420.506,381.014 421.5,390.5C 430.986,391.494 440.652,391.827 450.5,391.5C 450.5,401.167 450.5,410.833 450.5,420.5C 320.5,420.5 190.5,420.5 60.5,420.5C 60.5,410.833 60.5,401.167 60.5,391.5C 70.3478,391.827 80.0144,391.494 89.5,390.5C 90.4938,381.014 90.8271,371.348 90.5,361.5C 100.167,361.5 109.833,361.5 119.5,361.5 Z"/></g>
<g><path style="opacity:1" fill="#947a47" d="M 391.5,361.5 C 391.5,361.167 391.5,360.833 391.5,360.5C 401.167,360.5 410.833,360.5 420.5,360.5C 420.833,360.5 421.167,360.5 421.5,360.5C 421.5,360.833 421.5,361.167 421.5,361.5C 421.5,371.167 421.5,380.833 421.5,390.5C 420.506,381.014 420.173,371.348 420.5,361.5C 410.833,361.5 401.167,361.5 391.5,361.5 Z"/></g>
<g><path style="opacity:1" fill="#000000" d="M 421.5,361.5 C 431.167,361.5 440.833,361.5 450.5,361.5C 450.5,371.167 450.5,380.833 450.5,390.5C 440.833,390.5 431.167,390.5 421.5,390.5C 421.5,380.833 421.5,371.167 421.5,361.5 Z"/></g>
<g><path style="opacity:1" fill="#473e2c" d="M 421.5,361.5 C 421.5,361.167 421.5,360.833 421.5,360.5C 431.5,360.5 441.5,360.5 451.5,360.5C 451.5,370.5 451.5,380.5 451.5,390.5C 451.167,390.5 450.833,390.5 450.5,390.5C 450.5,380.833 450.5,371.167 450.5,361.5C 440.833,361.5 431.167,361.5 421.5,361.5 Z"/></g>
<g><path style="opacity:1" fill="#f5d6a0" d="M 149.5,331.5 C 149.833,331.5 150.167,331.5 150.5,331.5C 150.5,341.5 150.5,351.5 150.5,361.5C 140.5,361.5 130.5,361.5 120.5,361.5C 120.5,371.167 120.5,380.833 120.5,390.5C 210.5,390.5 300.5,390.5 390.5,390.5C 390.5,380.833 390.5,371.167 390.5,361.5C 380.5,361.5 370.5,361.5 360.5,361.5C 360.5,351.5 360.5,341.5 360.5,331.5C 360.833,331.5 361.167,331.5 361.5,331.5C 361.5,341.167 361.5,350.833 361.5,360.5C 371.167,360.5 380.833,360.5 390.5,360.5C 390.833,360.5 391.167,360.5 391.5,360.5C 391.5,360.833 391.5,361.167 391.5,361.5C 391.5,371.5 391.5,381.5 391.5,391.5C 300.833,391.5 210.167,391.5 119.5,391.5C 119.5,381.5 119.5,371.5 119.5,361.5C 119.5,361.167 119.5,360.833 119.5,360.5C 119.833,360.5 120.167,360.5 120.5,360.5C 130.167,360.5 139.833,360.5 149.5,360.5C 149.5,350.833 149.5,341.167 149.5,331.5 Z"/></g>
<g><path style="opacity:0.984" fill="#000000" d="M 29.5,391.5 C 39.5,391.5 49.5,391.5 59.5,391.5C 59.5,401.5 59.5,411.5 59.5,421.5C 59.5,411.5 59.5,401.5 59.5,391.5C 49.5,391.5 39.5,391.5 29.5,391.5 Z"/></g>
<g><path style="opacity:0.984" fill="#000000" d="M 481.5,391.5 C 481.5,401.5 481.5,411.5 481.5,421.5C 471.5,421.5 461.5,421.5 451.5,421.5C 451.5,411.5 451.5,401.5 451.5,391.5C 461.5,391.5 471.5,391.5 481.5,391.5 Z"/></g>
<g><path style="opacity:1" fill="#957b47" d="M 29.5,391.5 C 29.5,391.167 29.5,390.833 29.5,390.5C 39.5,390.5 49.5,390.5 59.5,390.5C 59.8333,390.5 60.1667,390.5 60.5,390.5C 70.1667,390.5 79.8333,390.5 89.5,390.5C 80.0144,391.494 70.3478,391.827 60.5,391.5C 60.5,401.167 60.5,410.833 60.5,420.5C 190.5,420.5 320.5,420.5 450.5,420.5C 450.5,410.833 450.5,401.167 450.5,391.5C 440.652,391.827 430.986,391.494 421.5,390.5C 431.167,390.5 440.833,390.5 450.5,390.5C 450.833,390.5 451.167,390.5 451.5,390.5C 461.5,390.5 471.5,390.5 481.5,390.5C 481.5,390.833 481.5,391.167 481.5,391.5C 471.5,391.5 461.5,391.5 451.5,391.5C 451.5,401.5 451.5,411.5 451.5,421.5C 320.833,421.5 190.167,421.5 59.5,421.5C 59.5,411.5 59.5,401.5 59.5,391.5C 49.5,391.5 39.5,391.5 29.5,391.5 Z"/></g>
<g><path style="opacity:0.991" fill="#000000" d="M 59.5,421.5 C 190.167,421.5 320.833,421.5 451.5,421.5C 451.5,431.5 451.5,441.5 451.5,451.5C 320.833,451.5 190.167,451.5 59.5,451.5C 59.5,441.5 59.5,431.5 59.5,421.5 Z"/></g>
</svg>
