<?xml version="1.0" encoding="UTF-8"?>
<!DOCTYPE svg PUBLIC "-//W3C//DTD SVG 1.1//EN" "http://www.w3.org/Graphics/SVG/1.1/DTD/svg11.dtd">
<svg xmlns="http://www.w3.org/2000/svg" version="1.1" width="512px" height="512px" style="shape-rendering:geometricPrecision; text-rendering:geometricPrecision; image-rendering:optimizeQuality; fill-rule:evenodd; clip-rule:evenodd" xmlns:xlink="http://www.w3.org/1999/xlink">
<g><path style="opacity:1" fill="#c8885b" d="M 8.5,-0.5 C 90.8333,-0.5 173.167,-0.5 255.5,-0.5C 255.5,19.8333 255.5,40.1667 255.5,60.5C 320.335,60.1675 385.002,60.5009 449.5,61.5C 417.833,61.5 386.167,61.5 354.5,61.5C 321.5,61.5 288.5,61.5 255.5,61.5C 222.5,61.5 189.5,61.5 156.5,61.5C 124.833,61.5 93.1667,61.5 61.5,61.5C 61.5,93.1667 61.5,124.833 61.5,156.5C 61.5,189.5 61.5,222.5 61.5,255.5C 61.5,288.5 61.5,321.5 61.5,354.5C 61.5,386.167 61.5,417.833 61.5,449.5C 93.1667,449.5 124.833,449.5 156.5,449.5C 189.5,449.5 222.5,449.5 255.5,449.5C 288.167,449.5 320.833,449.5 353.5,449.5C 385.5,449.5 417.5,449.5 449.5,449.5C 385.002,450.499 320.335,450.832 255.5,450.5C 255.5,470.833 255.5,491.167 255.5,511.5C 173.167,511.5 90.8333,511.5 8.5,511.5C 7.01307,510.196 5.3464,509.03 3.5,508C 2.30342,505.985 0.970083,504.151 -0.5,502.5C -0.5,337.833 -0.5,173.167 -0.5,8.5C 0.803551,7.01307 1.97022,5.3464 3,3.5C 5.01533,2.30342 6.84866,0.970083 8.5,-0.5 Z"/></g>
<g><path style="opacity:1" fill="#b46d3c" d="M 255.5,-0.5 C 337.833,-0.5 420.167,-0.5 502.5,-0.5C 503.987,0.803551 505.654,1.97022 507.5,3C 508.697,5.01533 510.03,6.84866 511.5,8.5C 511.5,173.167 511.5,337.833 511.5,502.5C 510.196,503.987 509.03,505.654 508,507.5C 505.985,508.697 504.151,510.03 502.5,511.5C 420.167,511.5 337.833,511.5 255.5,511.5C 255.5,491.167 255.5,470.833 255.5,450.5C 320.335,450.832 385.002,450.499 449.5,449.5C 449.5,417.5 449.5,385.5 449.5,353.5C 449.5,320.833 449.5,288.167 449.5,255.5C 449.5,222.5 449.5,189.5 449.5,156.5C 449.5,124.833 449.5,93.1667 449.5,61.5C 385.002,60.5009 320.335,60.1675 255.5,60.5C 255.5,40.1667 255.5,19.8333 255.5,-0.5 Z"/></g>
<g><path style="opacity:1" fill="#c8f1f3" d="M 156.5,61.5 C 156.5,93.1667 156.5,124.833 156.5,156.5C 124.833,156.5 93.1667,156.5 61.5,156.5C 61.5,124.833 61.5,93.1667 61.5,61.5C 93.1667,61.5 124.833,61.5 156.5,61.5 Z"/></g>
<g><path style="opacity:1" fill="#99ddfe" d="M 156.5,61.5 C 189.5,61.5 222.5,61.5 255.5,61.5C 255.5,93.1667 255.5,124.833 255.5,156.5C 222.5,156.5 189.5,156.5 156.5,156.5C 156.5,124.833 156.5,93.1667 156.5,61.5 Z"/></g>
<g><path style="opacity:1" fill="#80bffe" d="M 255.5,61.5 C 288.5,61.5 321.5,61.5 354.5,61.5C 354.5,93.1667 354.5,124.833 354.5,156.5C 321.5,156.5 288.5,156.5 255.5,156.5C 255.5,124.833 255.5,93.1667 255.5,61.5 Z"/></g>
<g><path style="opacity:1" fill="#99ddfe" d="M 354.5,61.5 C 386.167,61.5 417.833,61.5 449.5,61.5C 449.5,93.1667 449.5,124.833 449.5,156.5C 417.833,156.5 386.167,156.5 354.5,156.5C 354.5,124.833 354.5,93.1667 354.5,61.5 Z"/></g>
<g><path style="opacity:1" fill="#99ddfe" d="M 61.5,156.5 C 93.1667,156.5 124.833,156.5 156.5,156.5C 156.5,189.5 156.5,222.5 156.5,255.5C 124.833,255.5 93.1667,255.5 61.5,255.5C 61.5,222.5 61.5,189.5 61.5,156.5 Z"/></g>
<g><path style="opacity:1" fill="#8999a4" d="M 156.5,156.5 C 189.5,156.5 222.5,156.5 255.5,156.5C 255.5,156.833 255.5,157.167 255.5,157.5C 222.833,157.5 190.167,157.5 157.5,157.5C 157.5,190.167 157.5,222.833 157.5,255.5C 157.167,255.5 156.833,255.5 156.5,255.5C 156.5,222.5 156.5,189.5 156.5,156.5 Z"/></g>
<g><path style="opacity:1" fill="#7e6d66" d="M 255.5,157.5 C 255.5,190.167 255.5,222.833 255.5,255.5C 222.833,255.5 190.167,255.5 157.5,255.5C 157.5,222.833 157.5,190.167 157.5,157.5C 190.167,157.5 222.833,157.5 255.5,157.5 Z"/></g>
<g><path style="opacity:1" fill="#4f4540" d="M 255.5,157.5 C 288.167,157.5 320.833,157.5 353.5,157.5C 353.5,190.167 353.5,222.833 353.5,255.5C 320.833,255.5 288.167,255.5 255.5,255.5C 255.5,222.833 255.5,190.167 255.5,157.5 Z"/></g>
<g><path style="opacity:1" fill="#63768b" d="M 255.5,157.5 C 255.5,157.167 255.5,156.833 255.5,156.5C 288.5,156.5 321.5,156.5 354.5,156.5C 354.5,189.5 354.5,222.5 354.5,255.5C 354.167,255.5 353.833,255.5 353.5,255.5C 353.5,222.833 353.5,190.167 353.5,157.5C 320.833,157.5 288.167,157.5 255.5,157.5 Z"/></g>
<g><path style="opacity:1" fill="#80bffe" d="M 354.5,156.5 C 386.167,156.5 417.833,156.5 449.5,156.5C 449.5,189.5 449.5,222.5 449.5,255.5C 417.833,255.5 386.167,255.5 354.5,255.5C 354.5,222.5 354.5,189.5 354.5,156.5 Z"/></g>
<g><path style="opacity:1" fill="#abc63d" d="M 157.5,255.5 C 190.167,255.5 222.833,255.5 255.5,255.5C 255.5,288.167 255.5,320.833 255.5,353.5C 222.833,353.5 190.167,353.5 157.5,353.5C 157.5,320.833 157.5,288.167 157.5,255.5 Z"/></g>
<g><path style="opacity:1" fill="#abc63d" d="M 354.5,255.5 C 386.167,255.5 417.833,255.5 449.5,255.5C 449.5,288.167 449.5,320.833 449.5,353.5C 417.833,353.5 386.167,353.5 354.5,353.5C 354.5,320.833 354.5,288.167 354.5,255.5 Z"/></g>
<g><path style="opacity:1" fill="#abc63d" d="M 61.5,354.5 C 93.1667,354.5 124.833,354.5 156.5,354.5C 156.5,386.167 156.5,417.833 156.5,449.5C 156.5,417.833 156.5,386.167 156.5,354.5C 124.833,354.5 93.1667,354.5 61.5,354.5 Z"/></g>
<g><path style="opacity:1" fill="#cedf59" d="M 61.5,255.5 C 93.1667,255.5 124.833,255.5 156.5,255.5C 156.833,255.5 157.167,255.5 157.5,255.5C 157.5,288.167 157.5,320.833 157.5,353.5C 190.167,353.5 222.833,353.5 255.5,353.5C 255.5,353.833 255.5,354.167 255.5,354.5C 255.5,386.167 255.5,417.833 255.5,449.5C 222.5,449.5 189.5,449.5 156.5,449.5C 156.5,417.833 156.5,386.167 156.5,354.5C 124.833,354.5 93.1667,354.5 61.5,354.5C 61.5,321.5 61.5,288.5 61.5,255.5 Z"/></g>
<g><path style="opacity:1" fill="#abc63d" d="M 255.5,354.5 C 288.167,354.5 320.833,354.5 353.5,354.5C 353.5,386.167 353.5,417.833 353.5,449.5C 320.833,449.5 288.167,449.5 255.5,449.5C 255.5,417.833 255.5,386.167 255.5,354.5 Z"/></g>
<g><path style="opacity:1" fill="#9cb23e" d="M 255.5,255.5 C 288.167,255.5 320.833,255.5 353.5,255.5C 353.833,255.5 354.167,255.5 354.5,255.5C 354.5,288.167 354.5,320.833 354.5,353.5C 386.167,353.5 417.833,353.5 449.5,353.5C 449.5,385.5 449.5,417.5 449.5,449.5C 417.5,449.5 385.5,449.5 353.5,449.5C 353.5,417.833 353.5,386.167 353.5,354.5C 320.833,354.5 288.167,354.5 255.5,354.5C 255.5,354.167 255.5,353.833 255.5,353.5C 255.5,320.833 255.5,288.167 255.5,255.5 Z"/></g>
</svg>
