<?xml version="1.0" encoding="UTF-8"?>
<!DOCTYPE svg PUBLIC "-//W3C//DTD SVG 1.1//EN" "http://www.w3.org/Graphics/SVG/1.1/DTD/svg11.dtd">
<svg xmlns="http://www.w3.org/2000/svg" version="1.1" width="512px" height="512px" style="shape-rendering:geometricPrecision; text-rendering:geometricPrecision; image-rendering:optimizeQuality; fill-rule:evenodd; clip-rule:evenodd" xmlns:xlink="http://www.w3.org/1999/xlink">
<g><path style="opacity:0.998" fill="#221f1f" d="M 185.5,-0.5 C 232.167,-0.5 278.833,-0.5 325.5,-0.5C 325.5,7.16667 325.5,14.8333 325.5,22.5C 278.833,22.5 232.167,22.5 185.5,22.5C 185.5,14.8333 185.5,7.16667 185.5,-0.5 Z"/></g>
<g><path style="opacity:0.972" fill="#231e20" d="M 185.5,22.5 C 185.5,30.1667 185.5,37.8333 185.5,45.5C 169.833,45.5 154.167,45.5 138.5,45.5C 138.5,37.8333 138.5,30.1667 138.5,22.5C 154.167,22.5 169.833,22.5 185.5,22.5 Z"/></g>
<g><path style="opacity:0.972" fill="#231e20" d="M 325.5,22.5 C 341.167,22.5 356.833,22.5 372.5,22.5C 372.5,30.1667 372.5,37.8333 372.5,45.5C 356.833,45.5 341.167,45.5 325.5,45.5C 325.5,37.8333 325.5,30.1667 325.5,22.5 Z"/></g>
<g><path style="opacity:1" fill="#fecb4c" d="M 185.5,22.5 C 232.167,22.5 278.833,22.5 325.5,22.5C 325.5,30.1667 325.5,37.8333 325.5,45.5C 340.658,46.4962 355.991,46.8295 371.5,46.5C 371.175,54.3516 371.508,62.0182 372.5,69.5C 387.833,69.5 403.167,69.5 418.5,69.5C 418.5,77.1667 418.5,84.8333 418.5,92.5C 426.167,92.5 433.833,92.5 441.5,92.5C 441.5,107.833 441.5,123.167 441.5,138.5C 448.982,139.492 456.648,139.825 464.5,139.5C 464.17,155.009 464.504,170.342 465.5,185.5C 473.167,185.5 480.833,185.5 488.5,185.5C 488.5,232.167 488.5,278.833 488.5,325.5C 480.833,325.5 473.167,325.5 465.5,325.5C 464.508,332.982 464.175,340.648 464.5,348.5C 456.833,348.5 449.167,348.5 441.5,348.5C 441.5,333.167 441.5,317.833 441.5,302.5C 441.5,302.167 441.5,301.833 441.5,301.5C 441.5,294.167 441.5,286.833 441.5,279.5C 433.833,279.5 426.167,279.5 418.5,279.5C 418.5,279.167 418.5,278.833 418.5,278.5C 426.167,278.5 433.833,278.5 441.5,278.5C 441.5,270.833 441.5,263.167 441.5,255.5C 441.5,240.167 441.5,224.833 441.5,209.5C 434.018,208.508 426.352,208.175 418.5,208.5C 418.5,200.833 418.5,193.167 418.5,185.5C 410.833,185.5 403.167,185.5 395.5,185.5C 395.5,177.833 395.5,170.167 395.5,162.5C 388.018,161.508 380.352,161.175 372.5,161.5C 372.825,153.981 372.492,146.648 371.5,139.5C 371.5,139.167 371.5,138.833 371.5,138.5C 371.5,131.167 371.5,123.833 371.5,116.5C 379.5,116.5 387.5,116.5 395.5,116.5C 395.826,108.316 395.492,100.316 394.5,92.5C 371.5,92.5 348.5,92.5 325.5,92.5C 325.5,84.8333 325.5,77.1667 325.5,69.5C 317.833,69.5 310.167,69.5 302.5,69.5C 301.504,84.6576 301.17,99.9909 301.5,115.5C 309.5,115.5 317.5,115.5 325.5,115.5C 325.5,115.833 325.5,116.167 325.5,116.5C 325.5,123.833 325.5,131.167 325.5,138.5C 317.5,138.5 309.5,138.5 301.5,138.5C 301.5,146.167 301.5,153.833 301.5,161.5C 293.833,161.5 286.167,161.5 278.5,161.5C 278.5,169.5 278.5,177.5 278.5,185.5C 278.5,216.5 278.5,247.5 278.5,278.5C 263.167,278.5 247.833,278.5 232.5,278.5C 232.5,247.5 232.5,216.5 232.5,185.5C 232.5,177.833 232.5,170.167 232.5,162.5C 225.018,161.508 217.352,161.175 209.5,161.5C 209.5,153.833 209.5,146.167 209.5,138.5C 201.5,138.5 193.5,138.5 185.5,138.5C 185.5,131.167 185.5,123.833 185.5,116.5C 185.5,116.167 185.5,115.833 185.5,115.5C 193.5,115.5 201.5,115.5 209.5,115.5C 209.83,99.9909 209.496,84.6576 208.5,69.5C 200.833,69.5 193.167,69.5 185.5,69.5C 185.5,77.1667 185.5,84.8333 185.5,92.5C 162.5,92.5 139.5,92.5 116.5,92.5C 115.508,100.316 115.174,108.316 115.5,116.5C 123.5,116.5 131.5,116.5 139.5,116.5C 139.5,123.833 139.5,131.167 139.5,138.5C 139.5,138.833 139.5,139.167 139.5,139.5C 138.508,146.648 138.175,153.981 138.5,161.5C 130.648,161.175 122.982,161.508 115.5,162.5C 115.5,170.167 115.5,177.833 115.5,185.5C 107.833,185.5 100.167,185.5 92.5,185.5C 92.5,193.167 92.5,200.833 92.5,208.5C 84.6484,208.175 76.9818,208.508 69.5,209.5C 68.5012,255.664 68.1679,301.997 68.5,348.5C 61.1667,348.5 53.8333,348.5 46.5,348.5C 46.8254,340.648 46.492,332.982 45.5,325.5C 37.8333,325.5 30.1667,325.5 22.5,325.5C 22.5,278.833 22.5,232.167 22.5,185.5C 30.1667,185.5 37.8333,185.5 45.5,185.5C 46.4962,170.342 46.8295,155.009 46.5,139.5C 54.3516,139.825 62.0182,139.492 69.5,138.5C 69.5,123.167 69.5,107.833 69.5,92.5C 77.1667,92.5 84.8333,92.5 92.5,92.5C 92.5,84.8333 92.5,77.1667 92.5,69.5C 107.833,69.5 123.167,69.5 138.5,69.5C 139.492,62.0182 139.825,54.3516 139.5,46.5C 155.009,46.8295 170.342,46.4962 185.5,45.5C 185.5,37.8333 185.5,30.1667 185.5,22.5 Z"/></g>
<g><path style="opacity:1" fill="#896f35" d="M 138.5,45.5 C 154.167,45.5 169.833,45.5 185.5,45.5C 170.342,46.4962 155.009,46.8295 139.5,46.5C 139.825,54.3516 139.492,62.0182 138.5,69.5C 138.5,69.1667 138.5,68.8333 138.5,68.5C 138.5,60.8333 138.5,53.1667 138.5,45.5 Z"/></g>
<g><path style="opacity:1" fill="#896f35" d="M 325.5,45.5 C 341.167,45.5 356.833,45.5 372.5,45.5C 372.5,53.1667 372.5,60.8333 372.5,68.5C 372.5,68.8333 372.5,69.1667 372.5,69.5C 371.508,62.0182 371.175,54.3516 371.5,46.5C 355.991,46.8295 340.658,46.4962 325.5,45.5 Z"/></g>
<g><path style="opacity:0.996" fill="#231e1f" d="M 138.5,45.5 C 138.5,53.1667 138.5,60.8333 138.5,68.5C 123.167,68.5 107.833,68.5 92.5,68.5C 92.5,60.8333 92.5,53.1667 92.5,45.5C 107.833,45.5 123.167,45.5 138.5,45.5 Z"/></g>
<g><path style="opacity:0.996" fill="#231e1f" d="M 372.5,45.5 C 387.833,45.5 403.167,45.5 418.5,45.5C 418.5,53.1667 418.5,60.8333 418.5,68.5C 403.167,68.5 387.833,68.5 372.5,68.5C 372.5,60.8333 372.5,53.1667 372.5,45.5 Z"/></g>
<g><path style="opacity:1" fill="#272220" d="M 92.5,68.5 C 107.833,68.5 123.167,68.5 138.5,68.5C 138.5,68.8333 138.5,69.1667 138.5,69.5C 123.167,69.5 107.833,69.5 92.5,69.5C 92.5,77.1667 92.5,84.8333 92.5,92.5C 84.8333,92.5 77.1667,92.5 69.5,92.5C 69.5,107.833 69.5,123.167 69.5,138.5C 69.1667,138.5 68.8333,138.5 68.5,138.5C 68.5,123.167 68.5,107.833 68.5,92.5C 68.5,84.5 68.5,76.5 68.5,68.5C 76.5,68.5 84.5,68.5 92.5,68.5 Z"/></g>
<g><path style="opacity:1" fill="#242020" d="M 208.5,69.5 C 208.5,77.1667 208.5,84.8333 208.5,92.5C 200.833,92.5 193.167,92.5 185.5,92.5C 185.5,84.8333 185.5,77.1667 185.5,69.5C 193.167,69.5 200.833,69.5 208.5,69.5 Z"/></g>
<g><path style="opacity:1" fill="#242020" d="M 302.5,69.5 C 310.167,69.5 317.833,69.5 325.5,69.5C 325.5,77.1667 325.5,84.8333 325.5,92.5C 317.833,92.5 310.167,92.5 302.5,92.5C 302.5,84.8333 302.5,77.1667 302.5,69.5 Z"/></g>
<g><path style="opacity:1" fill="#272220" d="M 372.5,69.5 C 372.5,69.1667 372.5,68.8333 372.5,68.5C 387.833,68.5 403.167,68.5 418.5,68.5C 426.5,68.5 434.5,68.5 442.5,68.5C 442.5,76.5 442.5,84.5 442.5,92.5C 442.5,107.833 442.5,123.167 442.5,138.5C 442.167,138.5 441.833,138.5 441.5,138.5C 441.5,123.167 441.5,107.833 441.5,92.5C 433.833,92.5 426.167,92.5 418.5,92.5C 418.5,84.8333 418.5,77.1667 418.5,69.5C 403.167,69.5 387.833,69.5 372.5,69.5 Z"/></g>
<g><path style="opacity:0.996" fill="#231e1f" d="M 68.5,92.5 C 68.5,107.833 68.5,123.167 68.5,138.5C 60.8333,138.5 53.1667,138.5 45.5,138.5C 45.5,123.167 45.5,107.833 45.5,92.5C 53.1667,92.5 60.8333,92.5 68.5,92.5 Z"/></g>
<g><path style="opacity:0.996" fill="#231e1f" d="M 442.5,92.5 C 450.167,92.5 457.833,92.5 465.5,92.5C 465.5,107.833 465.5,123.167 465.5,138.5C 457.833,138.5 450.167,138.5 442.5,138.5C 442.5,123.167 442.5,107.833 442.5,92.5 Z"/></g>
<g><path style="opacity:1" fill="#242020" d="M 116.5,92.5 C 139.5,92.5 162.5,92.5 185.5,92.5C 185.5,100.167 185.5,107.833 185.5,115.5C 162.5,115.5 139.5,115.5 116.5,115.5C 116.5,107.833 116.5,100.167 116.5,92.5 Z"/></g>
<g><path style="opacity:1" fill="#e7aa3d" d="M 208.5,69.5 C 209.496,84.6576 209.83,99.9909 209.5,115.5C 201.5,115.5 193.5,115.5 185.5,115.5C 185.5,107.833 185.5,100.167 185.5,92.5C 193.167,92.5 200.833,92.5 208.5,92.5C 208.5,84.8333 208.5,77.1667 208.5,69.5 Z"/></g>
<g><path style="opacity:1" fill="#e7aa3d" d="M 302.5,69.5 C 302.5,77.1667 302.5,84.8333 302.5,92.5C 310.167,92.5 317.833,92.5 325.5,92.5C 325.5,100.167 325.5,107.833 325.5,115.5C 317.5,115.5 309.5,115.5 301.5,115.5C 301.17,99.9909 301.504,84.6576 302.5,69.5 Z"/></g>
<g><path style="opacity:1" fill="#242020" d="M 325.5,92.5 C 348.5,92.5 371.5,92.5 394.5,92.5C 394.5,100.167 394.5,107.833 394.5,115.5C 371.5,115.5 348.5,115.5 325.5,115.5C 325.5,107.833 325.5,100.167 325.5,92.5 Z"/></g>
<g><path style="opacity:1" fill="#836631" d="M 116.5,92.5 C 116.5,100.167 116.5,107.833 116.5,115.5C 139.5,115.5 162.5,115.5 185.5,115.5C 185.5,115.833 185.5,116.167 185.5,116.5C 170.167,116.5 154.833,116.5 139.5,116.5C 131.5,116.5 123.5,116.5 115.5,116.5C 115.174,108.316 115.508,100.316 116.5,92.5 Z"/></g>
<g><path style="opacity:1" fill="#816732" d="M 394.5,92.5 C 395.492,100.316 395.826,108.316 395.5,116.5C 387.5,116.5 379.5,116.5 371.5,116.5C 356.167,116.5 340.833,116.5 325.5,116.5C 325.5,116.167 325.5,115.833 325.5,115.5C 348.5,115.5 371.5,115.5 394.5,115.5C 394.5,107.833 394.5,100.167 394.5,92.5 Z"/></g>
<g><path style="opacity:1" fill="#ecae3d" d="M 139.5,116.5 C 154.833,116.5 170.167,116.5 185.5,116.5C 185.5,123.833 185.5,131.167 185.5,138.5C 170.167,138.5 154.833,138.5 139.5,138.5C 139.5,131.167 139.5,123.833 139.5,116.5 Z"/></g>
<g><path style="opacity:1" fill="#ecae3d" d="M 325.5,116.5 C 340.833,116.5 356.167,116.5 371.5,116.5C 371.5,123.833 371.5,131.167 371.5,138.5C 356.167,138.5 340.833,138.5 325.5,138.5C 325.5,131.167 325.5,123.833 325.5,116.5 Z"/></g>
<g><path style="opacity:0.972" fill="#231e20" d="M 45.5,138.5 C 45.5,154.167 45.5,169.833 45.5,185.5C 37.8333,185.5 30.1667,185.5 22.5,185.5C 22.5,169.833 22.5,154.167 22.5,138.5C 30.1667,138.5 37.8333,138.5 45.5,138.5 Z"/></g>
<g><path style="opacity:1" fill="#af9769" d="M 139.5,139.5 C 139.5,139.167 139.5,138.833 139.5,138.5C 154.833,138.5 170.167,138.5 185.5,138.5C 193.5,138.5 201.5,138.5 209.5,138.5C 209.5,146.167 209.5,153.833 209.5,161.5C 217.352,161.175 225.018,161.508 232.5,162.5C 224.833,162.5 217.167,162.5 209.5,162.5C 209.5,170.167 209.5,177.833 209.5,185.5C 208.508,178.018 208.175,170.352 208.5,162.5C 208.5,154.833 208.5,147.167 208.5,139.5C 185.5,139.5 162.5,139.5 139.5,139.5 Z"/></g>
<g><path style="opacity:1" fill="#a99061" d="M 325.5,138.5 C 340.833,138.5 356.167,138.5 371.5,138.5C 371.5,138.833 371.5,139.167 371.5,139.5C 348.5,139.5 325.5,139.5 302.5,139.5C 302.5,147.167 302.5,154.833 302.5,162.5C 294.833,162.5 287.167,162.5 279.5,162.5C 279.5,170.167 279.5,177.833 279.5,185.5C 279.167,185.5 278.833,185.5 278.5,185.5C 278.5,177.5 278.5,169.5 278.5,161.5C 286.167,161.5 293.833,161.5 301.5,161.5C 301.5,153.833 301.5,146.167 301.5,138.5C 309.5,138.5 317.5,138.5 325.5,138.5 Z"/></g>
<g><path style="opacity:0.972" fill="#231e20" d="M 465.5,138.5 C 473.167,138.5 480.833,138.5 488.5,138.5C 488.5,154.167 488.5,169.833 488.5,185.5C 480.833,185.5 473.167,185.5 465.5,185.5C 465.5,169.833 465.5,154.167 465.5,138.5 Z"/></g>
<g><path style="opacity:1" fill="#896f35" d="M 45.5,138.5 C 53.1667,138.5 60.8333,138.5 68.5,138.5C 68.8333,138.5 69.1667,138.5 69.5,138.5C 62.0182,139.492 54.3516,139.825 46.5,139.5C 46.8295,155.009 46.4962,170.342 45.5,185.5C 45.5,169.833 45.5,154.167 45.5,138.5 Z"/></g>
<g><path style="opacity:1" fill="#221f1f" d="M 139.5,139.5 C 162.5,139.5 185.5,139.5 208.5,139.5C 208.5,147.167 208.5,154.833 208.5,162.5C 185.5,162.5 162.5,162.5 139.5,162.5C 139.5,154.833 139.5,147.167 139.5,139.5 Z"/></g>
<g><path style="opacity:1" fill="#221f1f" d="M 371.5,139.5 C 371.5,147.167 371.5,154.833 371.5,162.5C 348.5,162.5 325.5,162.5 302.5,162.5C 302.5,154.833 302.5,147.167 302.5,139.5C 325.5,139.5 348.5,139.5 371.5,139.5 Z"/></g>
<g><path style="opacity:1" fill="#896f35" d="M 441.5,138.5 C 441.833,138.5 442.167,138.5 442.5,138.5C 450.167,138.5 457.833,138.5 465.5,138.5C 465.5,154.167 465.5,169.833 465.5,185.5C 464.504,170.342 464.17,155.009 464.5,139.5C 456.648,139.825 448.982,139.492 441.5,138.5 Z"/></g>
<g><path style="opacity:1" fill="#cbac62" d="M 139.5,139.5 C 139.5,147.167 139.5,154.833 139.5,162.5C 131.833,162.5 124.167,162.5 116.5,162.5C 116.167,162.5 115.833,162.5 115.5,162.5C 122.982,161.508 130.648,161.175 138.5,161.5C 138.175,153.981 138.508,146.648 139.5,139.5 Z"/></g>
<g><path style="opacity:1" fill="#cbac62" d="M 371.5,139.5 C 372.492,146.648 372.825,153.981 372.5,161.5C 380.352,161.175 388.018,161.508 395.5,162.5C 387.5,162.5 379.5,162.5 371.5,162.5C 371.5,154.833 371.5,147.167 371.5,139.5 Z"/></g>
<g><path style="opacity:1" fill="#252122" d="M 116.5,162.5 C 124.167,162.5 131.833,162.5 139.5,162.5C 139.5,170.167 139.5,177.833 139.5,185.5C 131.833,185.5 124.167,185.5 116.5,185.5C 116.5,177.833 116.5,170.167 116.5,162.5 Z"/></g>
<g><path style="opacity:1" fill="#fefefe" d="M 139.5,162.5 C 162.5,162.5 185.5,162.5 208.5,162.5C 208.175,170.352 208.508,178.018 209.5,185.5C 216.833,185.5 224.167,185.5 231.5,185.5C 231.5,224.167 231.5,262.833 231.5,301.5C 224.167,301.5 216.833,301.5 209.5,301.5C 201.316,301.174 193.316,301.508 185.5,302.5C 185.5,309.833 185.5,317.167 185.5,324.5C 162.5,324.5 139.5,324.5 116.5,324.5C 116.5,316.833 116.5,309.167 116.5,301.5C 108.833,301.5 101.167,301.5 93.5,301.5C 93.8254,293.648 93.492,285.982 92.5,278.5C 84.8333,278.5 77.1667,278.5 69.5,278.5C 69.5,270.833 69.5,263.167 69.5,255.5C 77.1667,255.5 84.8333,255.5 92.5,255.5C 92.5,240.167 92.5,224.833 92.5,209.5C 100.5,209.5 108.5,209.5 116.5,209.5C 116.5,201.5 116.5,193.5 116.5,185.5C 124.167,185.5 131.833,185.5 139.5,185.5C 139.5,177.833 139.5,170.167 139.5,162.5 Z"/></g>
<g><path style="opacity:1" fill="#242020" d="M 232.5,162.5 C 232.5,170.167 232.5,177.833 232.5,185.5C 232.167,185.5 231.833,185.5 231.5,185.5C 224.167,185.5 216.833,185.5 209.5,185.5C 209.5,177.833 209.5,170.167 209.5,162.5C 217.167,162.5 224.833,162.5 232.5,162.5 Z"/></g>
<g><path style="opacity:1" fill="#252122" d="M 302.5,162.5 C 302.5,170.167 302.5,177.833 302.5,185.5C 294.833,185.5 287.167,185.5 279.5,185.5C 279.5,177.833 279.5,170.167 279.5,162.5C 287.167,162.5 294.833,162.5 302.5,162.5 Z"/></g>
<g><path style="opacity:1" fill="#fdfdfd" d="M 302.5,162.5 C 325.5,162.5 348.5,162.5 371.5,162.5C 371.5,170.167 371.5,177.833 371.5,185.5C 379.5,185.5 387.5,185.5 395.5,185.5C 403.167,185.5 410.833,185.5 418.5,185.5C 418.5,193.167 418.5,200.833 418.5,208.5C 426.352,208.175 434.018,208.508 441.5,209.5C 433.833,209.5 426.167,209.5 418.5,209.5C 418.5,224.833 418.5,240.167 418.5,255.5C 426.167,255.5 433.833,255.5 441.5,255.5C 441.5,263.167 441.5,270.833 441.5,278.5C 433.833,278.5 426.167,278.5 418.5,278.5C 417.508,285.982 417.175,293.648 417.5,301.5C 409.833,301.5 402.167,301.5 394.5,301.5C 394.5,309.167 394.5,316.833 394.5,324.5C 386.648,324.175 378.982,324.508 371.5,325.5C 356.167,325.5 340.833,325.5 325.5,325.5C 325.5,317.833 325.5,310.167 325.5,302.5C 317.684,301.508 309.684,301.174 301.5,301.5C 294.167,301.5 286.833,301.5 279.5,301.5C 279.5,262.833 279.5,224.167 279.5,185.5C 287.167,185.5 294.833,185.5 302.5,185.5C 302.5,177.833 302.5,170.167 302.5,162.5 Z"/></g>
<g><path style="opacity:1" fill="#282424" d="M 371.5,162.5 C 379.5,162.5 387.5,162.5 395.5,162.5C 395.5,170.167 395.5,177.833 395.5,185.5C 387.5,185.5 379.5,185.5 371.5,185.5C 371.5,177.833 371.5,170.167 371.5,162.5 Z"/></g>
<g><path style="opacity:0.998" fill="#221f1f" d="M -0.5,185.5 C 7.16667,185.5 14.8333,185.5 22.5,185.5C 22.5,232.167 22.5,278.833 22.5,325.5C 14.8333,325.5 7.16667,325.5 -0.5,325.5C -0.5,278.833 -0.5,232.167 -0.5,185.5 Z"/></g>
<g><path style="opacity:0.998" fill="#221f1f" d="M 488.5,185.5 C 496.167,185.5 503.833,185.5 511.5,185.5C 511.5,232.167 511.5,278.833 511.5,325.5C 503.833,325.5 496.167,325.5 488.5,325.5C 488.5,278.833 488.5,232.167 488.5,185.5 Z"/></g>
<g><path style="opacity:1" fill="#4a4441" d="M 115.5,185.5 C 115.5,185.833 115.5,186.167 115.5,186.5C 108.167,186.5 100.833,186.5 93.5,186.5C 93.5,193.833 93.5,201.167 93.5,208.5C 93.1667,208.5 92.8333,208.5 92.5,208.5C 92.5,200.833 92.5,193.167 92.5,185.5C 100.167,185.5 107.833,185.5 115.5,185.5 Z"/></g>
<g><path style="opacity:1" fill="#221f1f" d="M 115.5,186.5 C 115.5,193.833 115.5,201.167 115.5,208.5C 108.167,208.5 100.833,208.5 93.5,208.5C 93.5,201.167 93.5,193.833 93.5,186.5C 100.833,186.5 108.167,186.5 115.5,186.5 Z"/></g>
<g><path style="opacity:1" fill="#fde9bc" d="M 231.5,185.5 C 231.833,185.5 232.167,185.5 232.5,185.5C 232.5,216.5 232.5,247.5 232.5,278.5C 232.5,286.5 232.5,294.5 232.5,302.5C 224.833,302.5 217.167,302.5 209.5,302.5C 209.5,302.167 209.5,301.833 209.5,301.5C 216.833,301.5 224.167,301.5 231.5,301.5C 231.5,262.833 231.5,224.167 231.5,185.5 Z"/></g>
<g><path style="opacity:1" fill="#fdeabc" d="M 278.5,185.5 C 278.833,185.5 279.167,185.5 279.5,185.5C 279.5,224.167 279.5,262.833 279.5,301.5C 286.833,301.5 294.167,301.5 301.5,301.5C 301.5,301.833 301.5,302.167 301.5,302.5C 293.833,302.5 286.167,302.5 278.5,302.5C 278.5,294.5 278.5,286.5 278.5,278.5C 278.5,247.5 278.5,216.5 278.5,185.5 Z"/></g>
<g><path style="opacity:1" fill="#242021" d="M 395.5,185.5 C 403.167,185.5 410.833,185.5 418.5,185.5C 418.5,193.167 418.5,200.833 418.5,208.5C 410.833,208.5 403.167,208.5 395.5,208.5C 395.5,200.833 395.5,193.167 395.5,185.5 Z"/></g>
<g><path style="opacity:1" fill="#8b857d" d="M 115.5,162.5 C 115.833,162.5 116.167,162.5 116.5,162.5C 116.5,170.167 116.5,177.833 116.5,185.5C 116.5,193.5 116.5,201.5 116.5,209.5C 108.5,209.5 100.5,209.5 92.5,209.5C 84.8333,209.5 77.1667,209.5 69.5,209.5C 76.9818,208.508 84.6484,208.175 92.5,208.5C 92.8333,208.5 93.1667,208.5 93.5,208.5C 100.833,208.5 108.167,208.5 115.5,208.5C 115.5,201.167 115.5,193.833 115.5,186.5C 115.5,186.167 115.5,185.833 115.5,185.5C 115.5,177.833 115.5,170.167 115.5,162.5 Z"/></g>
<g><path style="opacity:1" fill="#221f1f" d="M 69.5,209.5 C 77.1667,209.5 84.8333,209.5 92.5,209.5C 92.5,224.833 92.5,240.167 92.5,255.5C 84.8333,255.5 77.1667,255.5 69.5,255.5C 69.5,240.167 69.5,224.833 69.5,209.5 Z"/></g>
<g><path style="opacity:1" fill="#b0b0b0" d="M 185.5,209.5 C 185.5,217.167 185.5,224.833 185.5,232.5C 177.833,232.5 170.167,232.5 162.5,232.5C 162.5,224.833 162.5,217.167 162.5,209.5C 170.167,209.5 177.833,209.5 185.5,209.5 Z"/></g>
<g><path style="opacity:1" fill="#231f20" d="M 185.5,209.5 C 193.167,209.5 200.833,209.5 208.5,209.5C 208.5,224.833 208.5,240.167 208.5,255.5C 200.833,255.5 193.167,255.5 185.5,255.5C 185.5,263.167 185.5,270.833 185.5,278.5C 177.833,278.5 170.167,278.5 162.5,278.5C 162.5,263.167 162.5,247.833 162.5,232.5C 170.167,232.5 177.833,232.5 185.5,232.5C 185.5,224.833 185.5,217.167 185.5,209.5 Z"/></g>
<g><path style="opacity:1" fill="#aeaeae" d="M 325.5,209.5 C 325.5,217.167 325.5,224.833 325.5,232.5C 317.833,232.5 310.167,232.5 302.5,232.5C 302.5,247.833 302.5,263.167 302.5,278.5C 310.167,278.5 317.833,278.5 325.5,278.5C 317.684,279.492 309.684,279.826 301.5,279.5C 301.5,256.167 301.5,232.833 301.5,209.5C 309.5,209.5 317.5,209.5 325.5,209.5 Z"/></g>
<g><path style="opacity:1" fill="#231f20" d="M 325.5,209.5 C 333.167,209.5 340.833,209.5 348.5,209.5C 348.5,224.833 348.5,240.167 348.5,255.5C 340.833,255.5 333.167,255.5 325.5,255.5C 325.5,263.167 325.5,270.833 325.5,278.5C 317.833,278.5 310.167,278.5 302.5,278.5C 302.5,263.167 302.5,247.833 302.5,232.5C 310.167,232.5 317.833,232.5 325.5,232.5C 325.5,224.833 325.5,217.167 325.5,209.5 Z"/></g>
<g><path style="opacity:1" fill="#221f1f" d="M 441.5,209.5 C 441.5,224.833 441.5,240.167 441.5,255.5C 433.833,255.5 426.167,255.5 418.5,255.5C 418.5,240.167 418.5,224.833 418.5,209.5C 426.167,209.5 433.833,209.5 441.5,209.5 Z"/></g>
<g><path style="opacity:1" fill="#b2b2b2" d="M 208.5,255.5 C 208.5,263.167 208.5,270.833 208.5,278.5C 200.833,278.5 193.167,278.5 185.5,278.5C 185.5,270.833 185.5,263.167 185.5,255.5C 193.167,255.5 200.833,255.5 208.5,255.5 Z"/></g>
<g><path style="opacity:1" fill="#b1b2b1" d="M 348.5,255.5 C 348.5,263.167 348.5,270.833 348.5,278.5C 340.833,278.5 333.167,278.5 325.5,278.5C 325.5,270.833 325.5,263.167 325.5,255.5C 333.167,255.5 340.833,255.5 348.5,255.5 Z"/></g>
<g><path style="opacity:1" fill="#bfbfbf" d="M 208.5,209.5 C 209.498,232.661 209.831,255.994 209.5,279.5C 193.658,279.83 177.991,279.496 162.5,278.5C 170.167,278.5 177.833,278.5 185.5,278.5C 193.167,278.5 200.833,278.5 208.5,278.5C 208.5,270.833 208.5,263.167 208.5,255.5C 208.5,240.167 208.5,224.833 208.5,209.5 Z"/></g>
<g><path style="opacity:1" fill="#efc762" d="M 69.5,209.5 C 69.5,224.833 69.5,240.167 69.5,255.5C 69.5,263.167 69.5,270.833 69.5,278.5C 77.1667,278.5 84.8333,278.5 92.5,278.5C 92.5,278.833 92.5,279.167 92.5,279.5C 84.8333,279.5 77.1667,279.5 69.5,279.5C 69.5,286.833 69.5,294.167 69.5,301.5C 69.5,301.833 69.5,302.167 69.5,302.5C 69.5,310.167 69.5,317.833 69.5,325.5C 69.5,333.167 69.5,340.833 69.5,348.5C 69.1667,348.5 68.8333,348.5 68.5,348.5C 68.1679,301.997 68.5012,255.664 69.5,209.5 Z"/></g>
<g><path style="opacity:1" fill="#ecae3d" d="M 92.5,279.5 C 92.5,286.833 92.5,294.167 92.5,301.5C 84.8333,301.5 77.1667,301.5 69.5,301.5C 69.5,294.167 69.5,286.833 69.5,279.5C 77.1667,279.5 84.8333,279.5 92.5,279.5 Z"/></g>
<g><path style="opacity:1" fill="#edae3e" d="M 232.5,278.5 C 247.833,278.5 263.167,278.5 278.5,278.5C 278.5,286.5 278.5,294.5 278.5,302.5C 286.167,302.5 293.833,302.5 301.5,302.5C 301.5,310.167 301.5,317.833 301.5,325.5C 270.833,325.5 240.167,325.5 209.5,325.5C 209.5,317.833 209.5,310.167 209.5,302.5C 217.167,302.5 224.833,302.5 232.5,302.5C 232.5,294.5 232.5,286.5 232.5,278.5 Z"/></g>
<g><path style="opacity:1" fill="#ecae3d" d="M 418.5,279.5 C 426.167,279.5 433.833,279.5 441.5,279.5C 441.5,286.833 441.5,294.167 441.5,301.5C 433.833,301.5 426.167,301.5 418.5,301.5C 418.5,294.167 418.5,286.833 418.5,279.5 Z"/></g>
<g><path style="opacity:1" fill="#d5d9ca" d="M 92.5,278.5 C 93.492,285.982 93.8254,293.648 93.5,301.5C 101.167,301.5 108.833,301.5 116.5,301.5C 116.5,309.167 116.5,316.833 116.5,324.5C 139.5,324.5 162.5,324.5 185.5,324.5C 185.5,324.833 185.5,325.167 185.5,325.5C 170.167,325.5 154.833,325.5 139.5,325.5C 139.5,333.167 139.5,340.833 139.5,348.5C 139.167,348.5 138.833,348.5 138.5,348.5C 138.5,340.833 138.5,333.167 138.5,325.5C 130.833,325.5 123.167,325.5 115.5,325.5C 115.5,317.833 115.5,310.167 115.5,302.5C 108.167,302.5 100.833,302.5 93.5,302.5C 85.5,302.5 77.5,302.5 69.5,302.5C 69.5,302.167 69.5,301.833 69.5,301.5C 77.1667,301.5 84.8333,301.5 92.5,301.5C 92.5,294.167 92.5,286.833 92.5,279.5C 92.5,279.167 92.5,278.833 92.5,278.5 Z"/></g>
<g><path style="opacity:1" fill="#d4d9c6" d="M 418.5,278.5 C 418.5,278.833 418.5,279.167 418.5,279.5C 418.5,286.833 418.5,294.167 418.5,301.5C 426.167,301.5 433.833,301.5 441.5,301.5C 441.5,301.833 441.5,302.167 441.5,302.5C 433.833,302.5 426.167,302.5 418.5,302.5C 410.833,302.5 403.167,302.5 395.5,302.5C 395.5,310.167 395.5,317.833 395.5,325.5C 387.833,325.5 380.167,325.5 372.5,325.5C 372.5,333.167 372.5,340.833 372.5,348.5C 372.167,348.5 371.833,348.5 371.5,348.5C 371.5,340.833 371.5,333.167 371.5,325.5C 378.982,324.508 386.648,324.175 394.5,324.5C 394.5,316.833 394.5,309.167 394.5,301.5C 402.167,301.5 409.833,301.5 417.5,301.5C 417.175,293.648 417.508,285.982 418.5,278.5 Z"/></g>
<g><path style="opacity:1" fill="#8fd1f2" d="M 69.5,302.5 C 77.5,302.5 85.5,302.5 93.5,302.5C 93.5,310.167 93.5,317.833 93.5,325.5C 85.5,325.5 77.5,325.5 69.5,325.5C 69.5,317.833 69.5,310.167 69.5,302.5 Z"/></g>
<g><path style="opacity:1" fill="#5bbaf4" d="M 93.5,302.5 C 100.833,302.5 108.167,302.5 115.5,302.5C 115.5,310.167 115.5,317.833 115.5,325.5C 123.167,325.5 130.833,325.5 138.5,325.5C 138.5,333.167 138.5,340.833 138.5,348.5C 115.5,348.5 92.5,348.5 69.5,348.5C 69.5,340.833 69.5,333.167 69.5,325.5C 77.5,325.5 85.5,325.5 93.5,325.5C 93.5,317.833 93.5,310.167 93.5,302.5 Z"/></g>
<g><path style="opacity:1" fill="#221f1f" d="M 186.5,302.5 C 193.833,302.5 201.167,302.5 208.5,302.5C 208.5,309.833 208.5,317.167 208.5,324.5C 208.5,317.167 208.5,309.833 208.5,302.5C 201.167,302.5 193.833,302.5 186.5,302.5 Z"/></g>
<g><path style="opacity:1" fill="#8e826f" d="M 185.5,302.5 C 193.316,301.508 201.316,301.174 209.5,301.5C 209.5,301.833 209.5,302.167 209.5,302.5C 209.5,310.167 209.5,317.833 209.5,325.5C 209.167,325.5 208.833,325.5 208.5,325.5C 208.5,325.167 208.5,324.833 208.5,324.5C 208.5,317.167 208.5,309.833 208.5,302.5C 201.167,302.5 193.833,302.5 186.5,302.5C 186.167,302.5 185.833,302.5 185.5,302.5 Z"/></g>
<g><path style="opacity:1" fill="#8e826f" d="M 301.5,301.5 C 309.684,301.174 317.684,301.508 325.5,302.5C 325.167,302.5 324.833,302.5 324.5,302.5C 317.167,302.5 309.833,302.5 302.5,302.5C 302.5,309.833 302.5,317.167 302.5,324.5C 302.5,324.833 302.5,325.167 302.5,325.5C 302.167,325.5 301.833,325.5 301.5,325.5C 301.5,317.833 301.5,310.167 301.5,302.5C 301.5,302.167 301.5,301.833 301.5,301.5 Z"/></g>
<g><path style="opacity:1" fill="#221f1f" d="M 324.5,302.5 C 324.5,309.833 324.5,317.167 324.5,324.5C 317.167,324.5 309.833,324.5 302.5,324.5C 302.5,317.167 302.5,309.833 302.5,302.5C 309.833,302.5 317.167,302.5 324.5,302.5 Z"/></g>
<g><path style="opacity:1" fill="#8fd2f3" d="M 418.5,302.5 C 418.5,310.167 418.5,317.833 418.5,325.5C 410.833,325.5 403.167,325.5 395.5,325.5C 395.5,317.833 395.5,310.167 395.5,302.5C 403.167,302.5 410.833,302.5 418.5,302.5 Z"/></g>
<g><path style="opacity:1" fill="#5bbaf4" d="M 418.5,302.5 C 426.167,302.5 433.833,302.5 441.5,302.5C 441.5,317.833 441.5,333.167 441.5,348.5C 418.5,348.5 395.5,348.5 372.5,348.5C 372.5,340.833 372.5,333.167 372.5,325.5C 380.167,325.5 387.833,325.5 395.5,325.5C 403.167,325.5 410.833,325.5 418.5,325.5C 418.5,317.833 418.5,310.167 418.5,302.5 Z"/></g>
<g><path style="opacity:1" fill="#464341" d="M 185.5,302.5 C 185.833,302.5 186.167,302.5 186.5,302.5C 186.5,309.833 186.5,317.167 186.5,324.5C 193.833,324.5 201.167,324.5 208.5,324.5C 208.5,324.833 208.5,325.167 208.5,325.5C 200.833,325.5 193.167,325.5 185.5,325.5C 185.5,325.167 185.5,324.833 185.5,324.5C 185.5,317.167 185.5,309.833 185.5,302.5 Z"/></g>
<g><path style="opacity:1" fill="#464341" d="M 324.5,302.5 C 324.833,302.5 325.167,302.5 325.5,302.5C 325.5,310.167 325.5,317.833 325.5,325.5C 317.833,325.5 310.167,325.5 302.5,325.5C 302.5,325.167 302.5,324.833 302.5,324.5C 309.833,324.5 317.167,324.5 324.5,324.5C 324.5,317.167 324.5,309.833 324.5,302.5 Z"/></g>
<g><path style="opacity:0.972" fill="#231e20" d="M 22.5,325.5 C 30.1667,325.5 37.8333,325.5 45.5,325.5C 45.5,341.167 45.5,356.833 45.5,372.5C 37.8333,372.5 30.1667,372.5 22.5,372.5C 22.5,356.833 22.5,341.167 22.5,325.5 Z"/></g>
<g><path style="opacity:1" fill="#221f1f" d="M 185.5,325.5 C 185.5,333.167 185.5,340.833 185.5,348.5C 170.167,348.5 154.833,348.5 139.5,348.5C 139.5,340.833 139.5,333.167 139.5,325.5C 154.833,325.5 170.167,325.5 185.5,325.5 Z"/></g>
<g><path style="opacity:1" fill="#fecb4d" d="M 185.5,325.5 C 193.167,325.5 200.833,325.5 208.5,325.5C 208.833,325.5 209.167,325.5 209.5,325.5C 240.167,325.5 270.833,325.5 301.5,325.5C 301.833,325.5 302.167,325.5 302.5,325.5C 310.167,325.5 317.833,325.5 325.5,325.5C 325.5,333.167 325.5,340.833 325.5,348.5C 340.833,348.5 356.167,348.5 371.5,348.5C 371.833,348.5 372.167,348.5 372.5,348.5C 395.5,348.5 418.5,348.5 441.5,348.5C 441.5,356.167 441.5,363.833 441.5,371.5C 441.5,371.833 441.5,372.167 441.5,372.5C 441.5,380.167 441.5,387.833 441.5,395.5C 433.833,395.5 426.167,395.5 418.5,395.5C 418.5,403.167 418.5,410.833 418.5,418.5C 402.833,418.5 387.167,418.5 371.5,418.5C 371.5,426.167 371.5,433.833 371.5,441.5C 356.167,441.5 340.833,441.5 325.5,441.5C 325.5,449.167 325.5,456.833 325.5,464.5C 278.833,465.833 232.167,465.833 185.5,464.5C 185.5,456.833 185.5,449.167 185.5,441.5C 170.167,441.5 154.833,441.5 139.5,441.5C 139.5,433.833 139.5,426.167 139.5,418.5C 123.833,418.5 108.167,418.5 92.5,418.5C 92.5,410.833 92.5,403.167 92.5,395.5C 84.8333,395.5 77.1667,395.5 69.5,395.5C 69.5,387.833 69.5,380.167 69.5,372.5C 69.5,372.167 69.5,371.833 69.5,371.5C 69.5,363.833 69.5,356.167 69.5,348.5C 92.5,348.5 115.5,348.5 138.5,348.5C 138.833,348.5 139.167,348.5 139.5,348.5C 154.833,348.5 170.167,348.5 185.5,348.5C 185.5,340.833 185.5,333.167 185.5,325.5 Z"/></g>
<g><path style="opacity:1" fill="#221f1f" d="M 325.5,325.5 C 340.833,325.5 356.167,325.5 371.5,325.5C 371.5,333.167 371.5,340.833 371.5,348.5C 356.167,348.5 340.833,348.5 325.5,348.5C 325.5,340.833 325.5,333.167 325.5,325.5 Z"/></g>
<g><path style="opacity:0.972" fill="#231e20" d="M 465.5,325.5 C 473.167,325.5 480.833,325.5 488.5,325.5C 488.5,341.167 488.5,356.833 488.5,372.5C 480.833,372.5 473.167,372.5 465.5,372.5C 465.5,356.833 465.5,341.167 465.5,325.5 Z"/></g>
<g><path style="opacity:1" fill="#b18839" d="M 45.5,325.5 C 46.492,332.982 46.8254,340.648 46.5,348.5C 46.5,356.167 46.5,363.833 46.5,371.5C 54.1667,371.5 61.8333,371.5 69.5,371.5C 69.5,371.833 69.5,372.167 69.5,372.5C 69.1667,372.5 68.8333,372.5 68.5,372.5C 60.8333,372.5 53.1667,372.5 45.5,372.5C 45.5,356.833 45.5,341.167 45.5,325.5 Z"/></g>
<g><path style="opacity:1" fill="#edae3e" d="M 46.5,348.5 C 53.8333,348.5 61.1667,348.5 68.5,348.5C 68.8333,348.5 69.1667,348.5 69.5,348.5C 69.5,356.167 69.5,363.833 69.5,371.5C 61.8333,371.5 54.1667,371.5 46.5,371.5C 46.5,363.833 46.5,356.167 46.5,348.5 Z"/></g>
<g><path style="opacity:1" fill="#edae3e" d="M 441.5,348.5 C 449.167,348.5 456.833,348.5 464.5,348.5C 464.5,356.167 464.5,363.833 464.5,371.5C 456.833,371.5 449.167,371.5 441.5,371.5C 441.5,363.833 441.5,356.167 441.5,348.5 Z"/></g>
<g><path style="opacity:1" fill="#b18839" d="M 465.5,325.5 C 465.5,341.167 465.5,356.833 465.5,372.5C 457.833,372.5 450.167,372.5 442.5,372.5C 442.167,372.5 441.833,372.5 441.5,372.5C 441.5,372.167 441.5,371.833 441.5,371.5C 449.167,371.5 456.833,371.5 464.5,371.5C 464.5,363.833 464.5,356.167 464.5,348.5C 464.175,340.648 464.508,332.982 465.5,325.5 Z"/></g>
<g><path style="opacity:1" fill="#6a562e" d="M 209.5,372.5 C 209.5,372.167 209.5,371.833 209.5,371.5C 240.5,371.5 271.5,371.5 302.5,371.5C 302.5,379.167 302.5,386.833 302.5,394.5C 302.167,394.5 301.833,394.5 301.5,394.5C 301.5,387.167 301.5,379.833 301.5,372.5C 270.833,372.5 240.167,372.5 209.5,372.5 Z"/></g>
<g><path style="opacity:0.996" fill="#231e1f" d="M 45.5,372.5 C 53.1667,372.5 60.8333,372.5 68.5,372.5C 68.5,387.833 68.5,403.167 68.5,418.5C 60.8333,418.5 53.1667,418.5 45.5,418.5C 45.5,403.167 45.5,387.833 45.5,372.5 Z"/></g>
<g><path style="opacity:1" fill="#221f1f" d="M 209.5,372.5 C 240.167,372.5 270.833,372.5 301.5,372.5C 301.5,379.833 301.5,387.167 301.5,394.5C 270.833,394.5 240.167,394.5 209.5,394.5C 209.5,387.167 209.5,379.833 209.5,372.5 Z"/></g>
<g><path style="opacity:0.996" fill="#231e1f" d="M 442.5,372.5 C 450.167,372.5 457.833,372.5 465.5,372.5C 465.5,387.833 465.5,403.167 465.5,418.5C 457.833,418.5 450.167,418.5 442.5,418.5C 442.5,403.167 442.5,387.833 442.5,372.5 Z"/></g>
<g><path style="opacity:1" fill="#ecae3d" d="M 69.5,395.5 C 77.1667,395.5 84.8333,395.5 92.5,395.5C 92.5,403.167 92.5,410.833 92.5,418.5C 84.8333,418.5 77.1667,418.5 69.5,418.5C 69.5,410.833 69.5,403.167 69.5,395.5 Z"/></g>
<g><path style="opacity:1" fill="#242020" d="M 185.5,395.5 C 193.167,395.5 200.833,395.5 208.5,395.5C 208.5,403.167 208.5,410.833 208.5,418.5C 208.5,410.833 208.5,403.167 208.5,395.5C 200.833,395.5 193.167,395.5 185.5,395.5 Z"/></g>
<g><path style="opacity:1" fill="#977836" d="M 209.5,371.5 C 209.5,371.833 209.5,372.167 209.5,372.5C 209.5,379.833 209.5,387.167 209.5,394.5C 209.5,394.833 209.5,395.167 209.5,395.5C 209.5,403.167 209.5,410.833 209.5,418.5C 209.167,418.5 208.833,418.5 208.5,418.5C 208.5,410.833 208.5,403.167 208.5,395.5C 200.833,395.5 193.167,395.5 185.5,395.5C 192.982,394.508 200.648,394.175 208.5,394.5C 208.175,386.648 208.508,378.982 209.5,371.5 Z"/></g>
<g><path style="opacity:1" fill="#ecae3d" d="M 209.5,395.5 C 240.167,395.5 270.833,395.5 301.5,395.5C 301.5,403.167 301.5,410.833 301.5,418.5C 270.833,418.5 240.167,418.5 209.5,418.5C 209.5,410.833 209.5,403.167 209.5,395.5 Z"/></g>
<g><path style="opacity:1" fill="#846831" d="M 209.5,395.5 C 209.5,395.167 209.5,394.833 209.5,394.5C 240.167,394.5 270.833,394.5 301.5,394.5C 301.833,394.5 302.167,394.5 302.5,394.5C 310.352,394.175 318.018,394.508 325.5,395.5C 317.833,395.5 310.167,395.5 302.5,395.5C 302.5,403.167 302.5,410.833 302.5,418.5C 302.167,418.5 301.833,418.5 301.5,418.5C 301.5,410.833 301.5,403.167 301.5,395.5C 270.833,395.5 240.167,395.5 209.5,395.5 Z"/></g>
<g><path style="opacity:1" fill="#242020" d="M 325.5,395.5 C 325.5,403.167 325.5,410.833 325.5,418.5C 317.833,418.5 310.167,418.5 302.5,418.5C 302.5,410.833 302.5,403.167 302.5,395.5C 310.167,395.5 317.833,395.5 325.5,395.5 Z"/></g>
<g><path style="opacity:1" fill="#ecae3d" d="M 441.5,395.5 C 441.5,403.167 441.5,410.833 441.5,418.5C 433.833,418.5 426.167,418.5 418.5,418.5C 418.5,410.833 418.5,403.167 418.5,395.5C 426.167,395.5 433.833,395.5 441.5,395.5 Z"/></g>
<g><path style="opacity:1" fill="#edae3e" d="M 92.5,418.5 C 108.167,418.5 123.833,418.5 139.5,418.5C 139.5,426.167 139.5,433.833 139.5,441.5C 139.167,441.5 138.833,441.5 138.5,441.5C 123.167,441.5 107.833,441.5 92.5,441.5C 92.5,433.833 92.5,426.167 92.5,418.5 Z"/></g>
<g><path style="opacity:1" fill="#edae3e" d="M 418.5,418.5 C 418.5,426.167 418.5,433.833 418.5,441.5C 403.167,441.5 387.833,441.5 372.5,441.5C 372.167,441.5 371.833,441.5 371.5,441.5C 371.5,433.833 371.5,426.167 371.5,418.5C 387.167,418.5 402.833,418.5 418.5,418.5 Z"/></g>
<g><path style="opacity:1" fill="#2a2421" d="M 68.5,372.5 C 68.8333,372.5 69.1667,372.5 69.5,372.5C 69.5,380.167 69.5,387.833 69.5,395.5C 69.5,403.167 69.5,410.833 69.5,418.5C 77.1667,418.5 84.8333,418.5 92.5,418.5C 92.5,426.167 92.5,433.833 92.5,441.5C 107.833,441.5 123.167,441.5 138.5,441.5C 138.5,441.833 138.5,442.167 138.5,442.5C 123.167,442.5 107.833,442.5 92.5,442.5C 84.5,442.5 76.5,442.5 68.5,442.5C 68.5,434.5 68.5,426.5 68.5,418.5C 68.5,403.167 68.5,387.833 68.5,372.5 Z"/></g>
<g><path style="opacity:1" fill="#2a2421" d="M 441.5,372.5 C 441.833,372.5 442.167,372.5 442.5,372.5C 442.5,387.833 442.5,403.167 442.5,418.5C 442.5,426.5 442.5,434.5 442.5,442.5C 434.5,442.5 426.5,442.5 418.5,442.5C 403.167,442.5 387.833,442.5 372.5,442.5C 372.5,442.167 372.5,441.833 372.5,441.5C 387.833,441.5 403.167,441.5 418.5,441.5C 418.5,433.833 418.5,426.167 418.5,418.5C 426.167,418.5 433.833,418.5 441.5,418.5C 441.5,410.833 441.5,403.167 441.5,395.5C 441.5,387.833 441.5,380.167 441.5,372.5 Z"/></g>
<g><path style="opacity:0.996" fill="#231e1f" d="M 92.5,442.5 C 107.833,442.5 123.167,442.5 138.5,442.5C 138.5,450.167 138.5,457.833 138.5,465.5C 123.167,465.5 107.833,465.5 92.5,465.5C 92.5,457.833 92.5,450.167 92.5,442.5 Z"/></g>
<g><path style="opacity:1" fill="#edae3e" d="M 139.5,441.5 C 154.833,441.5 170.167,441.5 185.5,441.5C 185.5,449.167 185.5,456.833 185.5,464.5C 170.167,464.5 154.833,464.5 139.5,464.5C 139.5,456.833 139.5,449.167 139.5,441.5 Z"/></g>
<g><path style="opacity:1" fill="#edae3e" d="M 371.5,441.5 C 371.5,449.167 371.5,456.833 371.5,464.5C 356.167,464.5 340.833,464.5 325.5,464.5C 325.5,456.833 325.5,449.167 325.5,441.5C 340.833,441.5 356.167,441.5 371.5,441.5 Z"/></g>
<g><path style="opacity:0.996" fill="#231e1f" d="M 372.5,442.5 C 387.833,442.5 403.167,442.5 418.5,442.5C 418.5,450.167 418.5,457.833 418.5,465.5C 403.167,465.5 387.833,465.5 372.5,465.5C 372.5,457.833 372.5,450.167 372.5,442.5 Z"/></g>
<g><path style="opacity:1" fill="#b68a39" d="M 138.5,441.5 C 138.833,441.5 139.167,441.5 139.5,441.5C 139.5,449.167 139.5,456.833 139.5,464.5C 154.833,464.5 170.167,464.5 185.5,464.5C 185.5,464.833 185.5,465.167 185.5,465.5C 169.833,465.5 154.167,465.5 138.5,465.5C 138.5,457.833 138.5,450.167 138.5,442.5C 138.5,442.167 138.5,441.833 138.5,441.5 Z"/></g>
<g><path style="opacity:1" fill="#b68a39" d="M 371.5,441.5 C 371.833,441.5 372.167,441.5 372.5,441.5C 372.5,441.833 372.5,442.167 372.5,442.5C 372.5,450.167 372.5,457.833 372.5,465.5C 356.833,465.5 341.167,465.5 325.5,465.5C 325.5,465.167 325.5,464.833 325.5,464.5C 340.833,464.5 356.167,464.5 371.5,464.5C 371.5,456.833 371.5,449.167 371.5,441.5 Z"/></g>
<g><path style="opacity:0.972" fill="#231e20" d="M 138.5,465.5 C 154.167,465.5 169.833,465.5 185.5,465.5C 185.5,473.167 185.5,480.833 185.5,488.5C 169.833,488.5 154.167,488.5 138.5,488.5C 138.5,480.833 138.5,473.167 138.5,465.5 Z"/></g>
<g><path style="opacity:1" fill="#ecad3d" d="M 185.5,464.5 C 232.167,465.833 278.833,465.833 325.5,464.5C 325.5,464.833 325.5,465.167 325.5,465.5C 325.5,473.167 325.5,480.833 325.5,488.5C 278.833,488.5 232.167,488.5 185.5,488.5C 185.5,480.833 185.5,473.167 185.5,465.5C 185.5,465.167 185.5,464.833 185.5,464.5 Z"/></g>
<g><path style="opacity:0.972" fill="#231e20" d="M 325.5,465.5 C 341.167,465.5 356.833,465.5 372.5,465.5C 372.5,473.167 372.5,480.833 372.5,488.5C 356.833,488.5 341.167,488.5 325.5,488.5C 325.5,480.833 325.5,473.167 325.5,465.5 Z"/></g>
<g><path style="opacity:0.998" fill="#221f1f" d="M 185.5,488.5 C 232.167,488.5 278.833,488.5 325.5,488.5C 325.5,496.167 325.5,503.833 325.5,511.5C 278.833,511.5 232.167,511.5 185.5,511.5C 185.5,503.833 185.5,496.167 185.5,488.5 Z"/></g>
</svg>
