<?xml version="1.0" encoding="UTF-8"?>
<!DOCTYPE svg PUBLIC "-//W3C//DTD SVG 1.1//EN" "http://www.w3.org/Graphics/SVG/1.1/DTD/svg11.dtd">
<svg xmlns="http://www.w3.org/2000/svg" version="1.1" width="512px" height="512px" style="shape-rendering:geometricPrecision; text-rendering:geometricPrecision; image-rendering:optimizeQuality; fill-rule:evenodd; clip-rule:evenodd" xmlns:xlink="http://www.w3.org/1999/xlink">
<g><path style="opacity:0.991" fill="#010101" d="M 179.5,-0.5 C 230.167,-0.5 280.833,-0.5 331.5,-0.5C 331.5,9.5 331.5,19.5 331.5,29.5C 331.5,39.5 331.5,49.5 331.5,59.5C 331.167,59.5 330.833,59.5 330.5,59.5C 330.5,49.5 330.5,39.5 330.5,29.5C 280.5,29.5 230.5,29.5 180.5,29.5C 180.5,39.5 180.5,49.5 180.5,59.5C 180.167,59.5 179.833,59.5 179.5,59.5C 179.5,49.5 179.5,39.5 179.5,29.5C 179.5,19.5 179.5,9.5 179.5,-0.5 Z"/></g>
<g><path style="opacity:0.988" fill="#000000" d="M 179.5,29.5 C 179.5,39.5 179.5,49.5 179.5,59.5C 159.5,59.5 139.5,59.5 119.5,59.5C 119.5,49.5 119.5,39.5 119.5,29.5C 139.5,29.5 159.5,29.5 179.5,29.5 Z"/></g>
<g><path style="opacity:0.988" fill="#000000" d="M 331.5,29.5 C 351.5,29.5 371.5,29.5 391.5,29.5C 391.5,39.5 391.5,49.5 391.5,59.5C 371.5,59.5 351.5,59.5 331.5,59.5C 331.5,49.5 331.5,39.5 331.5,29.5 Z"/></g>
<g><path style="opacity:1" fill="#fef3ca" d="M 330.5,59.5 C 280.5,59.5 230.5,59.5 180.5,59.5C 180.5,49.5 180.5,39.5 180.5,29.5C 230.5,29.5 280.5,29.5 330.5,29.5C 330.5,39.5 330.5,49.5 330.5,59.5 Z"/></g>
<g><path style="opacity:0.981" fill="#000000" d="M 119.5,59.5 C 119.5,69.5 119.5,79.5 119.5,89.5C 109.5,89.5 99.5,89.5 89.5,89.5C 89.5,79.5 89.5,69.5 89.5,59.5C 99.5,59.5 109.5,59.5 119.5,59.5 Z"/></g>
<g><path style="opacity:0.981" fill="#000000" d="M 391.5,59.5 C 401.5,59.5 411.5,59.5 421.5,59.5C 421.5,69.5 421.5,79.5 421.5,89.5C 411.5,89.5 401.5,89.5 391.5,89.5C 391.5,79.5 391.5,69.5 391.5,59.5 Z"/></g>
<g><path style="opacity:1" fill="#fbf0c6" d="M 119.5,59.5 C 139.5,59.5 159.5,59.5 179.5,59.5C 179.833,59.5 180.167,59.5 180.5,59.5C 180.5,69.5 180.5,79.5 180.5,89.5C 160.167,89.5 139.833,89.5 119.5,89.5C 119.5,79.5 119.5,69.5 119.5,59.5 Z"/></g>
<g><path style="opacity:1" fill="#fecb00" d="M 180.5,59.5 C 230.5,59.5 280.5,59.5 330.5,59.5C 330.5,69.5 330.5,79.5 330.5,89.5C 350.326,90.4971 370.326,90.8305 390.5,90.5C 390.173,100.348 390.506,110.014 391.5,119.5C 401.167,119.5 410.833,119.5 420.5,119.5C 420.833,119.5 421.167,119.5 421.5,119.5C 430.986,120.494 440.652,120.827 450.5,120.5C 450.17,140.674 450.503,160.674 451.5,180.5C 461.5,180.5 471.5,180.5 481.5,180.5C 481.5,230.5 481.5,280.5 481.5,330.5C 471.319,330.173 461.319,330.506 451.5,331.5C 451.5,351.5 451.5,371.5 451.5,391.5C 441.5,391.5 431.5,391.5 421.5,391.5C 421.167,391.5 420.833,391.5 420.5,391.5C 410.833,391.5 401.167,391.5 391.5,391.5C 391.5,401.167 391.5,410.833 391.5,420.5C 390.833,420.5 390.5,420.833 390.5,421.5C 370.5,421.5 350.5,421.5 330.5,421.5C 330.5,431.167 330.5,440.833 330.5,450.5C 330.5,450.833 330.5,451.167 330.5,451.5C 280.5,451.5 230.5,451.5 180.5,451.5C 180.5,441.5 180.5,431.5 180.5,421.5C 160.5,421.5 140.5,421.5 120.5,421.5C 120.5,420.833 120.167,420.5 119.5,420.5C 119.5,410.833 119.5,401.167 119.5,391.5C 109.833,391.5 100.167,391.5 90.5,391.5C 90.1667,391.5 89.8333,391.5 89.5,391.5C 79.5,391.5 69.5,391.5 59.5,391.5C 59.5,371.5 59.5,351.5 59.5,331.5C 49.6806,330.506 39.6806,330.173 29.5,330.5C 29.5,280.5 29.5,230.5 29.5,180.5C 39.5,180.5 49.5,180.5 59.5,180.5C 60.4971,160.674 60.8305,140.674 60.5,120.5C 70.3478,120.827 80.0144,120.494 89.5,119.5C 89.8333,119.5 90.1667,119.5 90.5,119.5C 100.167,119.5 109.833,119.5 119.5,119.5C 120.494,110.014 120.827,100.348 120.5,90.5C 140.674,90.8305 160.674,90.4971 180.5,89.5C 180.5,79.5 180.5,69.5 180.5,59.5 Z"/></g>
<g><path style="opacity:1" fill="#fbf0c6" d="M 330.5,59.5 C 330.833,59.5 331.167,59.5 331.5,59.5C 351.5,59.5 371.5,59.5 391.5,59.5C 391.5,69.5 391.5,79.5 391.5,89.5C 371.167,89.5 350.833,89.5 330.5,89.5C 330.5,79.5 330.5,69.5 330.5,59.5 Z"/></g>
<g><path style="opacity:0.981" fill="#000000" d="M 89.5,89.5 C 89.5,99.5 89.5,109.5 89.5,119.5C 79.5,119.5 69.5,119.5 59.5,119.5C 59.5,109.5 59.5,99.5 59.5,89.5C 69.5,89.5 79.5,89.5 89.5,89.5 Z"/></g>
<g><path style="opacity:1" fill="#feda4e" d="M 119.5,89.5 C 139.833,89.5 160.167,89.5 180.5,89.5C 160.674,90.4971 140.674,90.8305 120.5,90.5C 120.827,100.348 120.494,110.014 119.5,119.5C 119.5,109.833 119.5,100.167 119.5,90.5C 119.5,90.1667 119.5,89.8333 119.5,89.5 Z"/></g>
<g><path style="opacity:1" fill="#feda4e" d="M 330.5,89.5 C 350.833,89.5 371.167,89.5 391.5,89.5C 391.5,89.8333 391.5,90.1667 391.5,90.5C 391.5,100.167 391.5,109.833 391.5,119.5C 390.506,110.014 390.173,100.348 390.5,90.5C 370.326,90.8305 350.326,90.4971 330.5,89.5 Z"/></g>
<g><path style="opacity:0.981" fill="#000000" d="M 421.5,89.5 C 431.5,89.5 441.5,89.5 451.5,89.5C 451.5,99.5 451.5,109.5 451.5,119.5C 441.5,119.5 431.5,119.5 421.5,119.5C 421.5,109.5 421.5,99.5 421.5,89.5 Z"/></g>
<g><path style="opacity:1" fill="#a59e83" d="M 89.5,89.5 C 99.5,89.5 109.5,89.5 119.5,89.5C 119.5,89.8333 119.5,90.1667 119.5,90.5C 109.833,90.5 100.167,90.5 90.5,90.5C 90.5,100.167 90.5,109.833 90.5,119.5C 90.1667,119.5 89.8333,119.5 89.5,119.5C 89.5,109.5 89.5,99.5 89.5,89.5 Z"/></g>
<g><path style="opacity:1" fill="#fef4ca" d="M 119.5,90.5 C 119.5,100.167 119.5,109.833 119.5,119.5C 109.833,119.5 100.167,119.5 90.5,119.5C 90.5,109.833 90.5,100.167 90.5,90.5C 100.167,90.5 109.833,90.5 119.5,90.5 Z"/></g>
<g><path style="opacity:1" fill="#fef4ca" d="M 391.5,90.5 C 401.167,90.5 410.833,90.5 420.5,90.5C 420.5,100.167 420.5,109.833 420.5,119.5C 410.833,119.5 401.167,119.5 391.5,119.5C 391.5,109.833 391.5,100.167 391.5,90.5 Z"/></g>
<g><path style="opacity:1" fill="#a59e83" d="M 391.5,90.5 C 391.5,90.1667 391.5,89.8333 391.5,89.5C 401.5,89.5 411.5,89.5 421.5,89.5C 421.5,99.5 421.5,109.5 421.5,119.5C 421.167,119.5 420.833,119.5 420.5,119.5C 420.5,109.833 420.5,100.167 420.5,90.5C 410.833,90.5 401.167,90.5 391.5,90.5 Z"/></g>
<g><path style="opacity:0.988" fill="#010100" d="M 59.5,119.5 C 59.5,139.833 59.5,160.167 59.5,180.5C 49.5,180.5 39.5,180.5 29.5,180.5C 29.5,180.167 29.5,179.833 29.5,179.5C 29.5,159.5 29.5,139.5 29.5,119.5C 39.5,119.5 49.5,119.5 59.5,119.5 Z"/></g>
<g><path style="opacity:0.988" fill="#010100" d="M 451.5,119.5 C 461.5,119.5 471.5,119.5 481.5,119.5C 481.5,139.5 481.5,159.5 481.5,179.5C 481.5,179.833 481.5,180.167 481.5,180.5C 471.5,180.5 461.5,180.5 451.5,180.5C 451.5,160.167 451.5,139.833 451.5,119.5 Z"/></g>
<g><path style="opacity:1" fill="#b38f00" d="M 59.5,119.5 C 69.5,119.5 79.5,119.5 89.5,119.5C 80.0144,120.494 70.3478,120.827 60.5,120.5C 60.8305,140.674 60.4971,160.674 59.5,180.5C 59.5,160.167 59.5,139.833 59.5,119.5 Z"/></g>
<g><path style="opacity:1" fill="#7c6300" d="M 180.5,120.5 C 180.167,120.5 179.833,120.5 179.5,120.5C 169.833,120.5 160.167,120.5 150.5,120.5C 150.5,130.167 150.5,139.833 150.5,149.5C 150.5,149.833 150.5,150.167 150.5,150.5C 150.5,160.5 150.5,170.5 150.5,180.5C 140.167,180.5 129.833,180.5 119.5,180.5C 119.5,170.167 119.5,159.833 119.5,149.5C 129.5,149.5 139.5,149.5 149.5,149.5C 149.5,139.5 149.5,129.5 149.5,119.5C 160.014,119.172 170.347,119.506 180.5,120.5 Z"/></g>
<g><path style="opacity:1" fill="#000000" d="M 179.5,120.5 C 179.5,130.167 179.5,139.833 179.5,149.5C 169.833,149.5 160.167,149.5 150.5,149.5C 150.5,139.833 150.5,130.167 150.5,120.5C 160.167,120.5 169.833,120.5 179.5,120.5 Z"/></g>
<g><path style="opacity:1" fill="#000000" d="M 331.5,120.5 C 341.167,120.5 350.833,120.5 360.5,120.5C 360.5,130.167 360.5,139.833 360.5,149.5C 360.5,139.833 360.5,130.167 360.5,120.5C 350.833,120.5 341.167,120.5 331.5,120.5 Z"/></g>
<g><path style="opacity:1" fill="#7c6300" d="M 330.5,120.5 C 340.653,119.506 350.986,119.172 361.5,119.5C 361.5,129.5 361.5,139.5 361.5,149.5C 371.5,149.5 381.5,149.5 391.5,149.5C 391.5,159.833 391.5,170.167 391.5,180.5C 381.167,180.5 370.833,180.5 360.5,180.5C 360.5,170.5 360.5,160.5 360.5,150.5C 360.5,150.167 360.5,149.833 360.5,149.5C 360.5,139.833 360.5,130.167 360.5,120.5C 350.833,120.5 341.167,120.5 331.5,120.5C 331.167,120.5 330.833,120.5 330.5,120.5 Z"/></g>
<g><path style="opacity:1" fill="#b38f00" d="M 421.5,119.5 C 431.5,119.5 441.5,119.5 451.5,119.5C 451.5,139.833 451.5,160.167 451.5,180.5C 450.503,160.674 450.17,140.674 450.5,120.5C 440.652,120.827 430.986,120.494 421.5,119.5 Z"/></g>
<g><path style="opacity:1" fill="#6b5600" d="M 179.5,120.5 C 179.833,120.5 180.167,120.5 180.5,120.5C 180.5,130.167 180.5,139.833 180.5,149.5C 190.681,149.173 200.681,149.506 210.5,150.5C 210.167,150.5 209.833,150.5 209.5,150.5C 199.833,150.5 190.167,150.5 180.5,150.5C 170.5,150.5 160.5,150.5 150.5,150.5C 150.5,150.167 150.5,149.833 150.5,149.5C 160.167,149.5 169.833,149.5 179.5,149.5C 179.5,139.833 179.5,130.167 179.5,120.5 Z"/></g>
<g><path style="opacity:1" fill="#6b5600" d="M 330.5,120.5 C 330.833,120.5 331.167,120.5 331.5,120.5C 331.5,130.167 331.5,139.833 331.5,149.5C 341.167,149.5 350.833,149.5 360.5,149.5C 360.5,149.833 360.5,150.167 360.5,150.5C 350.5,150.5 340.5,150.5 330.5,150.5C 320.833,150.5 311.167,150.5 301.5,150.5C 301.167,150.5 300.833,150.5 300.5,150.5C 310.319,149.506 320.319,149.173 330.5,149.5C 330.5,139.833 330.5,130.167 330.5,120.5 Z"/></g>
<g><path style="opacity:1" fill="#000000" d="M 120.5,150.5 C 130.167,150.5 139.833,150.5 149.5,150.5C 149.5,160.167 149.5,169.833 149.5,179.5C 139.833,179.5 130.167,179.5 120.5,179.5C 120.5,169.833 120.5,160.167 120.5,150.5 Z"/></g>
<g><path style="opacity:1" fill="#000000" d="M 180.5,150.5 C 190.167,150.5 199.833,150.5 209.5,150.5C 209.5,160.167 209.5,169.833 209.5,179.5C 199.833,179.5 190.167,179.5 180.5,179.5C 180.5,169.833 180.5,160.167 180.5,150.5 Z"/></g>
<g><path style="opacity:1" fill="#000000" d="M 301.5,150.5 C 311.167,150.5 320.833,150.5 330.5,150.5C 330.5,160.167 330.5,169.833 330.5,179.5C 320.833,179.5 311.167,179.5 301.5,179.5C 301.5,169.833 301.5,160.167 301.5,150.5 Z"/></g>
<g><path style="opacity:1" fill="#000000" d="M 361.5,150.5 C 371.167,150.5 380.833,150.5 390.5,150.5C 390.5,160.167 390.5,169.833 390.5,179.5C 380.833,179.5 371.167,179.5 361.5,179.5C 361.5,169.833 361.5,160.167 361.5,150.5 Z"/></g>
<g><path style="opacity:0.991" fill="#000000" d="M -0.5,179.5 C 9.5,179.5 19.5,179.5 29.5,179.5C 29.5,179.833 29.5,180.167 29.5,180.5C 29.5,230.5 29.5,280.5 29.5,330.5C 39.6806,330.173 49.6806,330.506 59.5,331.5C 49.5,331.5 39.5,331.5 29.5,331.5C 19.5,331.5 9.5,331.5 -0.5,331.5C -0.5,280.833 -0.5,230.167 -0.5,179.5 Z"/></g>
<g><path style="opacity:1" fill="#3d3000" d="M 209.5,150.5 C 209.833,150.5 210.167,150.5 210.5,150.5C 210.5,160.5 210.5,170.5 210.5,180.5C 200.319,180.827 190.319,180.494 180.5,179.5C 190.167,179.5 199.833,179.5 209.5,179.5C 209.5,169.833 209.5,160.167 209.5,150.5 Z"/></g>
<g><path style="opacity:1" fill="#3d3000" d="M 300.5,150.5 C 300.833,150.5 301.167,150.5 301.5,150.5C 301.5,160.167 301.5,169.833 301.5,179.5C 311.167,179.5 320.833,179.5 330.5,179.5C 320.681,180.494 310.681,180.827 300.5,180.5C 300.5,170.5 300.5,160.5 300.5,150.5 Z"/></g>
<g><path style="opacity:0.991" fill="#000000" d="M 481.5,179.5 C 491.5,179.5 501.5,179.5 511.5,179.5C 511.5,230.167 511.5,280.833 511.5,331.5C 501.5,331.5 491.5,331.5 481.5,331.5C 471.5,331.5 461.5,331.5 451.5,331.5C 461.319,330.506 471.319,330.173 481.5,330.5C 481.5,280.5 481.5,230.5 481.5,180.5C 481.5,180.167 481.5,179.833 481.5,179.5 Z"/></g>
<g><path style="opacity:1" fill="#a60117" d="M 421.5,330.5 C 411.167,330.5 400.833,330.5 390.5,330.5C 390.5,340.5 390.5,350.5 390.5,360.5C 380.652,360.173 370.986,360.506 361.5,361.5C 360.506,370.986 360.173,380.652 360.5,390.5C 340.5,390.5 320.5,390.5 300.5,390.5C 300.5,380.5 300.5,370.5 300.5,360.5C 320.5,360.5 340.5,360.5 360.5,360.5C 360.5,350.5 360.5,340.5 360.5,330.5C 350.5,330.5 340.5,330.5 330.5,330.5C 330.5,320.5 330.5,310.5 330.5,300.5C 280.5,300.5 230.5,300.5 180.5,300.5C 180.5,310.5 180.5,320.5 180.5,330.5C 170.5,330.5 160.5,330.5 150.5,330.5C 150.5,340.5 150.5,350.5 150.5,360.5C 170.5,360.5 190.5,360.5 210.5,360.5C 210.5,370.5 210.5,380.5 210.5,390.5C 190.5,390.5 170.5,390.5 150.5,390.5C 150.827,380.652 150.494,370.986 149.5,361.5C 140.014,360.506 130.348,360.173 120.5,360.5C 120.5,350.5 120.5,340.5 120.5,330.5C 110.167,330.5 99.8333,330.5 89.5,330.5C 89.5,310.5 89.5,290.5 89.5,270.5C 99.5,270.5 109.5,270.5 119.5,270.5C 119.5,260.5 119.5,250.5 119.5,240.5C 210.167,240.5 300.833,240.5 391.5,240.5C 391.5,250.5 391.5,260.5 391.5,270.5C 401.5,270.5 411.5,270.5 421.5,270.5C 421.5,290.5 421.5,310.5 421.5,330.5 Z"/></g>
<g><path style="opacity:1" fill="#fe3838" d="M 300.5,390.5 C 300.5,390.833 300.5,391.167 300.5,391.5C 270.5,391.5 240.5,391.5 210.5,391.5C 210.5,391.167 210.5,390.833 210.5,390.5C 210.5,380.5 210.5,370.5 210.5,360.5C 190.5,360.5 170.5,360.5 150.5,360.5C 150.5,350.5 150.5,340.5 150.5,330.5C 160.5,330.5 170.5,330.5 180.5,330.5C 180.5,320.5 180.5,310.5 180.5,300.5C 230.5,300.5 280.5,300.5 330.5,300.5C 330.5,310.5 330.5,320.5 330.5,330.5C 340.5,330.5 350.5,330.5 360.5,330.5C 360.5,340.5 360.5,350.5 360.5,360.5C 340.5,360.5 320.5,360.5 300.5,360.5C 300.5,370.5 300.5,380.5 300.5,390.5 Z"/></g>
<g><path style="opacity:0.988" fill="#000000" d="M 29.5,331.5 C 39.5,331.5 49.5,331.5 59.5,331.5C 59.5,351.5 59.5,371.5 59.5,391.5C 49.5,391.5 39.5,391.5 29.5,391.5C 29.5,371.5 29.5,351.5 29.5,331.5 Z"/></g>
<g><path style="opacity:0.988" fill="#000000" d="M 451.5,331.5 C 461.5,331.5 471.5,331.5 481.5,331.5C 481.5,351.5 481.5,371.5 481.5,391.5C 471.5,391.5 461.5,391.5 451.5,391.5C 451.5,371.5 451.5,351.5 451.5,331.5 Z"/></g>
<g><path style="opacity:1" fill="#da7809" d="M 89.5,330.5 C 99.8333,330.5 110.167,330.5 120.5,330.5C 120.5,340.5 120.5,350.5 120.5,360.5C 130.348,360.173 140.014,360.506 149.5,361.5C 139.5,361.5 129.5,361.5 119.5,361.5C 119.5,351.5 119.5,341.5 119.5,331.5C 109.319,331.827 99.3194,331.494 89.5,330.5 Z"/></g>
<g><path style="opacity:1" fill="#da7809" d="M 421.5,330.5 C 411.681,331.494 401.681,331.827 391.5,331.5C 391.5,341.5 391.5,351.5 391.5,361.5C 381.5,361.5 371.5,361.5 361.5,361.5C 370.986,360.506 380.652,360.173 390.5,360.5C 390.5,350.5 390.5,340.5 390.5,330.5C 400.833,330.5 411.167,330.5 421.5,330.5 Z"/></g>
<g><path style="opacity:1" fill="#d2650b" d="M 149.5,361.5 C 150.494,370.986 150.827,380.652 150.5,390.5C 170.5,390.5 190.5,390.5 210.5,390.5C 210.5,390.833 210.5,391.167 210.5,391.5C 190.167,391.5 169.833,391.5 149.5,391.5C 149.5,381.5 149.5,371.5 149.5,361.5 Z"/></g>
<g><path style="opacity:1" fill="#d2650b" d="M 361.5,361.5 C 361.5,371.5 361.5,381.5 361.5,391.5C 341.167,391.5 320.833,391.5 300.5,391.5C 300.5,391.167 300.5,390.833 300.5,390.5C 320.5,390.5 340.5,390.5 360.5,390.5C 360.173,380.652 360.506,370.986 361.5,361.5 Z"/></g>
<g><path style="opacity:0.981" fill="#000000" d="M 59.5,391.5 C 69.5,391.5 79.5,391.5 89.5,391.5C 89.5,401.5 89.5,411.5 89.5,421.5C 79.5,421.5 69.5,421.5 59.5,421.5C 59.5,411.5 59.5,401.5 59.5,391.5 Z"/></g>
<g><path style="opacity:1" fill="#ec8600" d="M 90.5,391.5 C 100.167,391.5 109.833,391.5 119.5,391.5C 119.5,401.167 119.5,410.833 119.5,420.5C 109.833,420.5 100.167,420.5 90.5,420.5C 90.5,410.833 90.5,401.167 90.5,391.5 Z"/></g>
<g><path style="opacity:1" fill="#a70416" d="M 210.5,391.5 C 240.5,391.5 270.5,391.5 300.5,391.5C 300.5,401.5 300.5,411.5 300.5,421.5C 270.5,421.5 240.5,421.5 210.5,421.5C 210.5,411.5 210.5,401.5 210.5,391.5 Z"/></g>
<g><path style="opacity:1" fill="#ec8600" d="M 420.5,391.5 C 420.5,401.167 420.5,410.833 420.5,420.5C 410.833,420.5 401.167,420.5 391.5,420.5C 391.5,410.833 391.5,401.167 391.5,391.5C 401.167,391.5 410.833,391.5 420.5,391.5 Z"/></g>
<g><path style="opacity:0.981" fill="#000000" d="M 421.5,391.5 C 431.5,391.5 441.5,391.5 451.5,391.5C 451.5,401.5 451.5,411.5 451.5,421.5C 441.5,421.5 431.5,421.5 421.5,421.5C 421.5,411.5 421.5,401.5 421.5,391.5 Z"/></g>
<g><path style="opacity:1" fill="#9c5800" d="M 89.5,391.5 C 89.8333,391.5 90.1667,391.5 90.5,391.5C 90.5,401.167 90.5,410.833 90.5,420.5C 100.167,420.5 109.833,420.5 119.5,420.5C 120.167,420.5 120.5,420.833 120.5,421.5C 120.5,431.167 120.5,440.833 120.5,450.5C 140.34,450.17 160.007,450.503 179.5,451.5C 159.5,451.5 139.5,451.5 119.5,451.5C 119.5,441.5 119.5,431.5 119.5,421.5C 109.5,421.5 99.5,421.5 89.5,421.5C 89.5,411.5 89.5,401.5 89.5,391.5 Z"/></g>
<g><path style="opacity:1" fill="#9c5800" d="M 420.5,391.5 C 420.833,391.5 421.167,391.5 421.5,391.5C 421.5,401.5 421.5,411.5 421.5,421.5C 411.5,421.5 401.5,421.5 391.5,421.5C 391.5,431.5 391.5,441.5 391.5,451.5C 371.167,451.5 350.833,451.5 330.5,451.5C 330.5,451.167 330.5,450.833 330.5,450.5C 350.5,450.5 370.5,450.5 390.5,450.5C 390.5,440.833 390.5,431.167 390.5,421.5C 390.5,420.833 390.833,420.5 391.5,420.5C 401.167,420.5 410.833,420.5 420.5,420.5C 420.5,410.833 420.5,401.167 420.5,391.5 Z"/></g>
<g><path style="opacity:0.981" fill="#000000" d="M 89.5,421.5 C 99.5,421.5 109.5,421.5 119.5,421.5C 119.5,431.5 119.5,441.5 119.5,451.5C 109.5,451.5 99.5,451.5 89.5,451.5C 89.5,441.5 89.5,431.5 89.5,421.5 Z"/></g>
<g><path style="opacity:1" fill="#ed8600" d="M 120.5,421.5 C 140.5,421.5 160.5,421.5 180.5,421.5C 180.5,431.5 180.5,441.5 180.5,451.5C 180.167,451.5 179.833,451.5 179.5,451.5C 160.007,450.503 140.34,450.17 120.5,450.5C 120.5,440.833 120.5,431.167 120.5,421.5 Z"/></g>
<g><path style="opacity:1" fill="#ed8600" d="M 390.5,421.5 C 390.5,431.167 390.5,440.833 390.5,450.5C 370.5,450.5 350.5,450.5 330.5,450.5C 330.5,440.833 330.5,431.167 330.5,421.5C 350.5,421.5 370.5,421.5 390.5,421.5 Z"/></g>
<g><path style="opacity:0.981" fill="#000000" d="M 421.5,421.5 C 421.5,431.5 421.5,441.5 421.5,451.5C 411.5,451.5 401.5,451.5 391.5,451.5C 391.5,441.5 391.5,431.5 391.5,421.5C 401.5,421.5 411.5,421.5 421.5,421.5 Z"/></g>
<g><path style="opacity:0.988" fill="#020000" d="M 119.5,451.5 C 139.5,451.5 159.5,451.5 179.5,451.5C 179.833,451.5 180.167,451.5 180.5,451.5C 180.5,461.5 180.5,471.5 180.5,481.5C 180.167,481.5 179.833,481.5 179.5,481.5C 159.5,481.5 139.5,481.5 119.5,481.5C 119.5,471.5 119.5,461.5 119.5,451.5 Z"/></g>
<g><path style="opacity:1" fill="#ec8500" d="M 180.5,451.5 C 230.5,451.5 280.5,451.5 330.5,451.5C 330.5,461.5 330.5,471.5 330.5,481.5C 280.5,481.5 230.5,481.5 180.5,481.5C 180.5,471.5 180.5,461.5 180.5,451.5 Z"/></g>
<g><path style="opacity:0.988" fill="#020000" d="M 330.5,451.5 C 350.833,451.5 371.167,451.5 391.5,451.5C 391.5,461.5 391.5,471.5 391.5,481.5C 371.5,481.5 351.5,481.5 331.5,481.5C 331.167,481.5 330.833,481.5 330.5,481.5C 330.5,471.5 330.5,461.5 330.5,451.5 Z"/></g>
<g><path style="opacity:0.991" fill="#000000" d="M 179.5,481.5 C 179.833,481.5 180.167,481.5 180.5,481.5C 230.5,481.5 280.5,481.5 330.5,481.5C 330.833,481.5 331.167,481.5 331.5,481.5C 331.5,491.5 331.5,501.5 331.5,511.5C 280.833,511.5 230.167,511.5 179.5,511.5C 179.5,501.5 179.5,491.5 179.5,481.5 Z"/></g>
</svg>
