<?xml version="1.0" encoding="UTF-8"?>
<!DOCTYPE svg PUBLIC "-//W3C//DTD SVG 1.1//EN" "http://www.w3.org/Graphics/SVG/1.1/DTD/svg11.dtd">
<svg xmlns="http://www.w3.org/2000/svg" version="1.1" width="512px" height="512px" style="shape-rendering:geometricPrecision; text-rendering:geometricPrecision; image-rendering:optimizeQuality; fill-rule:evenodd; clip-rule:evenodd" xmlns:xlink="http://www.w3.org/1999/xlink">
<g><path style="opacity:0.998" fill="#221f1f" d="M 185.5,-0.5 C 232.167,-0.5 278.833,-0.5 325.5,-0.5C 325.5,7.16667 325.5,14.8333 325.5,22.5C 278.833,22.5 232.167,22.5 185.5,22.5C 185.5,14.8333 185.5,7.16667 185.5,-0.5 Z"/></g>
<g><path style="opacity:0.972" fill="#231e20" d="M 185.5,22.5 C 185.5,30.1667 185.5,37.8333 185.5,45.5C 169.833,45.5 154.167,45.5 138.5,45.5C 138.5,37.8333 138.5,30.1667 138.5,22.5C 154.167,22.5 169.833,22.5 185.5,22.5 Z"/></g>
<g><path style="opacity:0.972" fill="#231e20" d="M 325.5,22.5 C 341.167,22.5 356.833,22.5 372.5,22.5C 372.5,30.1667 372.5,37.8333 372.5,45.5C 356.833,45.5 341.167,45.5 325.5,45.5C 325.5,37.8333 325.5,30.1667 325.5,22.5 Z"/></g>
<g><path style="opacity:1" fill="#fecb4c" d="M 185.5,22.5 C 232.167,22.5 278.833,22.5 325.5,22.5C 325.5,30.1667 325.5,37.8333 325.5,45.5C 340.658,46.4962 355.991,46.8295 371.5,46.5C 371.5,54.1667 371.5,61.8333 371.5,69.5C 356.167,69.5 340.833,69.5 325.5,69.5C 325.5,77.1667 325.5,84.8333 325.5,92.5C 317.833,92.5 310.167,92.5 302.5,92.5C 301.508,99.9818 301.175,107.648 301.5,115.5C 293.833,115.5 286.167,115.5 278.5,115.5C 278.5,123.5 278.5,131.5 278.5,139.5C 286.5,139.5 294.5,139.5 302.5,139.5C 310.167,139.5 317.833,139.5 325.5,139.5C 325.5,131.833 325.5,124.167 325.5,116.5C 333.167,116.5 340.833,116.5 348.5,116.5C 348.5,108.833 348.5,101.167 348.5,93.5C 356.352,93.8254 364.018,93.492 371.5,92.5C 372.492,85.0182 372.825,77.3516 372.5,69.5C 387.833,69.5 403.167,69.5 418.5,69.5C 418.5,77.1667 418.5,84.8333 418.5,92.5C 426.167,92.5 433.833,92.5 441.5,92.5C 441.5,107.833 441.5,123.167 441.5,138.5C 448.982,139.492 456.648,139.825 464.5,139.5C 464.17,155.009 464.504,170.342 465.5,185.5C 473.167,185.5 480.833,185.5 488.5,185.5C 488.5,232.167 488.5,278.833 488.5,325.5C 480.833,325.5 473.167,325.5 465.5,325.5C 464.508,332.982 464.175,340.648 464.5,348.5C 456.833,348.5 449.167,348.5 441.5,348.5C 441.5,356.167 441.5,363.833 441.5,371.5C 441.5,371.833 441.5,372.167 441.5,372.5C 441.5,380.167 441.5,387.833 441.5,395.5C 433.833,395.5 426.167,395.5 418.5,395.5C 418.5,403.167 418.5,410.833 418.5,418.5C 402.833,418.5 387.167,418.5 371.5,418.5C 371.5,426.167 371.5,433.833 371.5,441.5C 356.167,441.5 340.833,441.5 325.5,441.5C 325.5,449.167 325.5,456.833 325.5,464.5C 278.833,465.833 232.167,465.833 185.5,464.5C 185.5,456.833 185.5,449.167 185.5,441.5C 170.167,441.5 154.833,441.5 139.5,441.5C 139.5,433.833 139.5,426.167 139.5,418.5C 123.833,418.5 108.167,418.5 92.5,418.5C 92.5,410.833 92.5,403.167 92.5,395.5C 84.8333,395.5 77.1667,395.5 69.5,395.5C 69.5,387.833 69.5,380.167 69.5,372.5C 69.5,372.167 69.5,371.833 69.5,371.5C 69.5,363.833 69.5,356.167 69.5,348.5C 61.8333,348.5 54.1667,348.5 46.5,348.5C 46.8254,340.648 46.492,332.982 45.5,325.5C 37.8333,325.5 30.1667,325.5 22.5,325.5C 22.5,278.833 22.5,232.167 22.5,185.5C 30.1667,185.5 37.8333,185.5 45.5,185.5C 46.4962,170.342 46.8295,155.009 46.5,139.5C 54.3516,139.825 62.0182,139.492 69.5,138.5C 69.5,123.167 69.5,107.833 69.5,92.5C 77.1667,92.5 84.8333,92.5 92.5,92.5C 92.5,84.8333 92.5,77.1667 92.5,69.5C 107.833,69.5 123.167,69.5 138.5,69.5C 138.175,77.3516 138.508,85.0182 139.5,92.5C 146.982,93.492 154.648,93.8254 162.5,93.5C 162.5,101.167 162.5,108.833 162.5,116.5C 170.167,116.5 177.833,116.5 185.5,116.5C 185.5,124.167 185.5,131.833 185.5,139.5C 193.167,139.5 200.833,139.5 208.5,139.5C 208.833,139.5 209.167,139.5 209.5,139.5C 217.167,139.5 224.833,139.5 232.5,139.5C 232.5,131.5 232.5,123.5 232.5,115.5C 224.833,115.5 217.167,115.5 209.5,115.5C 209.825,107.648 209.492,99.9818 208.5,92.5C 200.833,92.5 193.167,92.5 185.5,92.5C 185.5,84.8333 185.5,77.1667 185.5,69.5C 170.167,69.5 154.833,69.5 139.5,69.5C 139.5,61.8333 139.5,54.1667 139.5,46.5C 155.009,46.8295 170.342,46.4962 185.5,45.5C 185.5,37.8333 185.5,30.1667 185.5,22.5 Z"/></g>
<g><path style="opacity:1" fill="#927637" d="M 138.5,45.5 C 154.167,45.5 169.833,45.5 185.5,45.5C 170.342,46.4962 155.009,46.8295 139.5,46.5C 139.5,54.1667 139.5,61.8333 139.5,69.5C 139.5,77.1667 139.5,84.8333 139.5,92.5C 138.508,85.0182 138.175,77.3516 138.5,69.5C 138.5,69.1667 138.5,68.8333 138.5,68.5C 138.5,60.8333 138.5,53.1667 138.5,45.5 Z"/></g>
<g><path style="opacity:1" fill="#927637" d="M 325.5,45.5 C 341.167,45.5 356.833,45.5 372.5,45.5C 372.5,53.1667 372.5,60.8333 372.5,68.5C 372.5,68.8333 372.5,69.1667 372.5,69.5C 372.825,77.3516 372.492,85.0182 371.5,92.5C 371.5,84.8333 371.5,77.1667 371.5,69.5C 371.5,61.8333 371.5,54.1667 371.5,46.5C 355.991,46.8295 340.658,46.4962 325.5,45.5 Z"/></g>
<g><path style="opacity:0.996" fill="#231e1f" d="M 138.5,45.5 C 138.5,53.1667 138.5,60.8333 138.5,68.5C 123.167,68.5 107.833,68.5 92.5,68.5C 92.5,60.8333 92.5,53.1667 92.5,45.5C 107.833,45.5 123.167,45.5 138.5,45.5 Z"/></g>
<g><path style="opacity:0.996" fill="#231e1f" d="M 372.5,45.5 C 387.833,45.5 403.167,45.5 418.5,45.5C 418.5,53.1667 418.5,60.8333 418.5,68.5C 403.167,68.5 387.833,68.5 372.5,68.5C 372.5,60.8333 372.5,53.1667 372.5,45.5 Z"/></g>
<g><path style="opacity:1" fill="#272220" d="M 92.5,68.5 C 107.833,68.5 123.167,68.5 138.5,68.5C 138.5,68.8333 138.5,69.1667 138.5,69.5C 123.167,69.5 107.833,69.5 92.5,69.5C 92.5,77.1667 92.5,84.8333 92.5,92.5C 84.8333,92.5 77.1667,92.5 69.5,92.5C 69.5,107.833 69.5,123.167 69.5,138.5C 69.1667,138.5 68.8333,138.5 68.5,138.5C 68.5,123.167 68.5,107.833 68.5,92.5C 68.5,84.5 68.5,76.5 68.5,68.5C 76.5,68.5 84.5,68.5 92.5,68.5 Z"/></g>
<g><path style="opacity:1" fill="#221f1f" d="M 139.5,69.5 C 154.833,69.5 170.167,69.5 185.5,69.5C 185.5,77.1667 185.5,84.8333 185.5,92.5C 170.167,92.5 154.833,92.5 139.5,92.5C 139.5,84.8333 139.5,77.1667 139.5,69.5 Z"/></g>
<g><path style="opacity:1" fill="#221f1f" d="M 371.5,69.5 C 371.5,77.1667 371.5,84.8333 371.5,92.5C 356.167,92.5 340.833,92.5 325.5,92.5C 325.5,84.8333 325.5,77.1667 325.5,69.5C 340.833,69.5 356.167,69.5 371.5,69.5 Z"/></g>
<g><path style="opacity:1" fill="#272220" d="M 372.5,69.5 C 372.5,69.1667 372.5,68.8333 372.5,68.5C 387.833,68.5 403.167,68.5 418.5,68.5C 426.5,68.5 434.5,68.5 442.5,68.5C 442.5,76.5 442.5,84.5 442.5,92.5C 442.5,107.833 442.5,123.167 442.5,138.5C 442.167,138.5 441.833,138.5 441.5,138.5C 441.5,123.167 441.5,107.833 441.5,92.5C 433.833,92.5 426.167,92.5 418.5,92.5C 418.5,84.8333 418.5,77.1667 418.5,69.5C 403.167,69.5 387.833,69.5 372.5,69.5 Z"/></g>
<g><path style="opacity:0.996" fill="#231e1f" d="M 68.5,92.5 C 68.5,107.833 68.5,123.167 68.5,138.5C 60.8333,138.5 53.1667,138.5 45.5,138.5C 45.5,123.167 45.5,107.833 45.5,92.5C 53.1667,92.5 60.8333,92.5 68.5,92.5 Z"/></g>
<g><path style="opacity:0.996" fill="#231e1f" d="M 442.5,92.5 C 450.167,92.5 457.833,92.5 465.5,92.5C 465.5,107.833 465.5,123.167 465.5,138.5C 457.833,138.5 450.167,138.5 442.5,138.5C 442.5,123.167 442.5,107.833 442.5,92.5 Z"/></g>
<g><path style="opacity:1" fill="#ecae3e" d="M 139.5,92.5 C 154.833,92.5 170.167,92.5 185.5,92.5C 185.5,100.167 185.5,107.833 185.5,115.5C 185.5,115.833 185.5,116.167 185.5,116.5C 177.833,116.5 170.167,116.5 162.5,116.5C 162.5,108.833 162.5,101.167 162.5,93.5C 154.648,93.8254 146.982,93.492 139.5,92.5 Z"/></g>
<g><path style="opacity:1" fill="#5a492a" d="M 185.5,92.5 C 193.167,92.5 200.833,92.5 208.5,92.5C 208.5,92.8333 208.5,93.1667 208.5,93.5C 201.167,93.5 193.833,93.5 186.5,93.5C 186.5,100.833 186.5,108.167 186.5,115.5C 186.167,115.5 185.833,115.5 185.5,115.5C 185.5,107.833 185.5,100.167 185.5,92.5 Z"/></g>
<g><path style="opacity:1" fill="#221f1f" d="M 208.5,93.5 C 208.5,100.833 208.5,108.167 208.5,115.5C 201.167,115.5 193.833,115.5 186.5,115.5C 186.5,108.167 186.5,100.833 186.5,93.5C 193.833,93.5 201.167,93.5 208.5,93.5 Z"/></g>
<g><path style="opacity:1" fill="#221f1f" d="M 302.5,93.5 C 309.833,93.5 317.167,93.5 324.5,93.5C 324.5,100.833 324.5,108.167 324.5,115.5C 317.167,115.5 309.833,115.5 302.5,115.5C 302.5,108.167 302.5,100.833 302.5,93.5 Z"/></g>
<g><path style="opacity:1" fill="#5a492a" d="M 302.5,93.5 C 302.5,93.1667 302.5,92.8333 302.5,92.5C 310.167,92.5 317.833,92.5 325.5,92.5C 325.825,100.352 325.492,108.018 324.5,115.5C 324.5,108.167 324.5,100.833 324.5,93.5C 317.167,93.5 309.833,93.5 302.5,93.5 Z"/></g>
<g><path style="opacity:1" fill="#edae3e" d="M 185.5,116.5 C 193.167,116.5 200.833,116.5 208.5,116.5C 208.5,124.167 208.5,131.833 208.5,139.5C 208.5,131.833 208.5,124.167 208.5,116.5C 200.833,116.5 193.167,116.5 185.5,116.5 Z"/></g>
<g><path style="opacity:1" fill="#b78c39" d="M 208.5,92.5 C 209.492,99.9818 209.825,107.648 209.5,115.5C 209.5,115.833 209.5,116.167 209.5,116.5C 209.5,123.833 209.5,131.167 209.5,138.5C 209.5,138.833 209.5,139.167 209.5,139.5C 209.167,139.5 208.833,139.5 208.5,139.5C 208.5,131.833 208.5,124.167 208.5,116.5C 200.833,116.5 193.167,116.5 185.5,116.5C 185.5,116.167 185.5,115.833 185.5,115.5C 185.833,115.5 186.167,115.5 186.5,115.5C 193.833,115.5 201.167,115.5 208.5,115.5C 208.5,108.167 208.5,100.833 208.5,93.5C 208.5,93.1667 208.5,92.8333 208.5,92.5 Z"/></g>
<g><path style="opacity:1" fill="#221f1f" d="M 209.5,116.5 C 216.833,116.5 224.167,116.5 231.5,116.5C 231.5,123.833 231.5,131.167 231.5,138.5C 224.167,138.5 216.833,138.5 209.5,138.5C 209.5,131.167 209.5,123.833 209.5,116.5 Z"/></g>
<g><path style="opacity:1" fill="#56472b" d="M 209.5,116.5 C 209.5,116.167 209.5,115.833 209.5,115.5C 217.167,115.5 224.833,115.5 232.5,115.5C 232.5,123.5 232.5,131.5 232.5,139.5C 224.833,139.5 217.167,139.5 209.5,139.5C 209.5,139.167 209.5,138.833 209.5,138.5C 216.833,138.5 224.167,138.5 231.5,138.5C 231.5,131.167 231.5,123.833 231.5,116.5C 224.167,116.5 216.833,116.5 209.5,116.5 Z"/></g>
<g><path style="opacity:1" fill="#7d6431" d="M 302.5,92.5 C 302.5,92.8333 302.5,93.1667 302.5,93.5C 302.5,100.833 302.5,108.167 302.5,115.5C 302.5,123.5 302.5,131.5 302.5,139.5C 294.5,139.5 286.5,139.5 278.5,139.5C 278.5,131.5 278.5,123.5 278.5,115.5C 286.167,115.5 293.833,115.5 301.5,115.5C 301.175,107.648 301.508,99.9818 302.5,92.5 Z"/></g>
<g><path style="opacity:1" fill="#221f1f" d="M 279.5,116.5 C 286.833,116.5 294.167,116.5 301.5,116.5C 301.5,123.833 301.5,131.167 301.5,138.5C 294.167,138.5 286.833,138.5 279.5,138.5C 279.5,131.167 279.5,123.833 279.5,116.5 Z"/></g>
<g><path style="opacity:1" fill="#ecad3e" d="M 325.5,92.5 C 340.833,92.5 356.167,92.5 371.5,92.5C 364.018,93.492 356.352,93.8254 348.5,93.5C 348.5,101.167 348.5,108.833 348.5,116.5C 340.833,116.5 333.167,116.5 325.5,116.5C 325.5,124.167 325.5,131.833 325.5,139.5C 317.833,139.5 310.167,139.5 302.5,139.5C 302.5,131.5 302.5,123.5 302.5,115.5C 309.833,115.5 317.167,115.5 324.5,115.5C 325.492,108.018 325.825,100.352 325.5,92.5 Z"/></g>
<g><path style="opacity:0.972" fill="#231e20" d="M 45.5,138.5 C 45.5,154.167 45.5,169.833 45.5,185.5C 37.8333,185.5 30.1667,185.5 22.5,185.5C 22.5,169.833 22.5,154.167 22.5,138.5C 30.1667,138.5 37.8333,138.5 45.5,138.5 Z"/></g>
<g><path style="opacity:0.972" fill="#231e20" d="M 465.5,138.5 C 473.167,138.5 480.833,138.5 488.5,138.5C 488.5,154.167 488.5,169.833 488.5,185.5C 480.833,185.5 473.167,185.5 465.5,185.5C 465.5,169.833 465.5,154.167 465.5,138.5 Z"/></g>
<g><path style="opacity:1" fill="#896f35" d="M 45.5,138.5 C 53.1667,138.5 60.8333,138.5 68.5,138.5C 68.8333,138.5 69.1667,138.5 69.5,138.5C 62.0182,139.492 54.3516,139.825 46.5,139.5C 46.8295,155.009 46.4962,170.342 45.5,185.5C 45.5,169.833 45.5,154.167 45.5,138.5 Z"/></g>
<g><path style="opacity:1" fill="#896f35" d="M 441.5,138.5 C 441.833,138.5 442.167,138.5 442.5,138.5C 450.167,138.5 457.833,138.5 465.5,138.5C 465.5,154.167 465.5,169.833 465.5,185.5C 464.504,170.342 464.17,155.009 464.5,139.5C 456.648,139.825 448.982,139.492 441.5,138.5 Z"/></g>
<g><path style="opacity:1" fill="#241f20" d="M 209.5,162.5 C 217.167,162.5 224.833,162.5 232.5,162.5C 232.5,170.167 232.5,177.833 232.5,185.5C 224.833,185.5 217.167,185.5 209.5,185.5C 209.5,177.833 209.5,170.167 209.5,162.5 Z"/></g>
<g><path style="opacity:1" fill="#262120" d="M 301.5,162.5 C 301.5,170.167 301.5,177.833 301.5,185.5C 293.833,185.5 286.167,185.5 278.5,185.5C 278.5,177.833 278.5,170.167 278.5,162.5C 286.167,162.5 293.833,162.5 301.5,162.5 Z"/></g>
<g><path style="opacity:0.998" fill="#221f1f" d="M -0.5,185.5 C 7.16667,185.5 14.8333,185.5 22.5,185.5C 22.5,232.167 22.5,278.833 22.5,325.5C 14.8333,325.5 7.16667,325.5 -0.5,325.5C -0.5,278.833 -0.5,232.167 -0.5,185.5 Z"/></g>
<g><path style="opacity:0.998" fill="#221f1f" d="M 488.5,185.5 C 496.167,185.5 503.833,185.5 511.5,185.5C 511.5,232.167 511.5,278.833 511.5,325.5C 503.833,325.5 496.167,325.5 488.5,325.5C 488.5,278.833 488.5,232.167 488.5,185.5 Z"/></g>
<g><path style="opacity:1" fill="#231f20" d="M 208.5,185.5 C 208.5,193.167 208.5,200.833 208.5,208.5C 200.648,208.175 192.982,208.508 185.5,209.5C 185.5,224.833 185.5,240.167 185.5,255.5C 193.167,255.5 200.833,255.5 208.5,255.5C 208.5,263.167 208.5,270.833 208.5,278.5C 177.5,278.5 146.5,278.5 115.5,278.5C 100.167,278.5 84.8333,278.5 69.5,278.5C 69.5,270.833 69.5,263.167 69.5,255.5C 92.5,255.5 115.5,255.5 138.5,255.5C 139.492,248.018 139.825,240.352 139.5,232.5C 147.167,232.5 154.833,232.5 162.5,232.5C 162.5,224.5 162.5,216.5 162.5,208.5C 131.5,208.5 100.5,208.5 69.5,208.5C 69.5,200.833 69.5,193.167 69.5,185.5C 115.833,185.5 162.167,185.5 208.5,185.5 Z"/></g>
<g><path style="opacity:1" fill="#907741" d="M 209.5,162.5 C 209.5,170.167 209.5,177.833 209.5,185.5C 209.826,193.684 209.492,201.684 208.5,209.5C 200.833,209.5 193.167,209.5 185.5,209.5C 192.982,208.508 200.648,208.175 208.5,208.5C 208.5,200.833 208.5,193.167 208.5,185.5C 208.175,177.648 208.508,169.982 209.5,162.5 Z"/></g>
<g><path style="opacity:1" fill="#231f20" d="M 302.5,185.5 C 348.833,185.5 395.167,185.5 441.5,185.5C 441.5,193.167 441.5,200.833 441.5,208.5C 418.167,208.5 394.833,208.5 371.5,208.5C 371.17,224.342 371.504,240.009 372.5,255.5C 395.5,255.5 418.5,255.5 441.5,255.5C 441.5,263.167 441.5,270.833 441.5,278.5C 426.167,278.5 410.833,278.5 395.5,278.5C 364.5,278.5 333.5,278.5 302.5,278.5C 302.5,270.833 302.5,263.167 302.5,255.5C 310.167,255.5 317.833,255.5 325.5,255.5C 325.5,247.833 325.5,240.167 325.5,232.5C 333.167,232.5 340.833,232.5 348.5,232.5C 348.5,224.833 348.5,217.167 348.5,209.5C 333.342,208.504 318.009,208.17 302.5,208.5C 302.5,200.833 302.5,193.167 302.5,185.5 Z"/></g>
<g><path style="opacity:1" fill="#826f48" d="M 301.5,162.5 C 302.492,169.982 302.825,177.648 302.5,185.5C 302.5,193.167 302.5,200.833 302.5,208.5C 318.009,208.17 333.342,208.504 348.5,209.5C 340.833,209.5 333.167,209.5 325.5,209.5C 317.833,209.5 310.167,209.5 302.5,209.5C 301.508,201.684 301.174,193.684 301.5,185.5C 301.5,177.833 301.5,170.167 301.5,162.5 Z"/></g>
<g><path style="opacity:1" fill="#fefffe" d="M 69.5,209.5 C 92.5,209.5 115.5,209.5 138.5,209.5C 138.5,224.833 138.5,240.167 138.5,255.5C 115.5,255.5 92.5,255.5 69.5,255.5C 69.5,240.167 69.5,224.833 69.5,209.5 Z"/></g>
<g><path style="opacity:1" fill="#aca8a2" d="M 69.5,209.5 C 69.5,209.167 69.5,208.833 69.5,208.5C 100.5,208.5 131.5,208.5 162.5,208.5C 162.5,216.5 162.5,224.5 162.5,232.5C 154.833,232.5 147.167,232.5 139.5,232.5C 139.825,240.352 139.492,248.018 138.5,255.5C 138.5,240.167 138.5,224.833 138.5,209.5C 115.5,209.5 92.5,209.5 69.5,209.5 Z"/></g>
<g><path style="opacity:1" fill="#fdfdfc" d="M 185.5,209.5 C 193.167,209.5 200.833,209.5 208.5,209.5C 208.5,224.833 208.5,240.167 208.5,255.5C 200.833,255.5 193.167,255.5 185.5,255.5C 185.5,240.167 185.5,224.833 185.5,209.5 Z"/></g>
<g><path style="opacity:1" fill="#fdfdfc" d="M 302.5,209.5 C 310.167,209.5 317.833,209.5 325.5,209.5C 325.5,217.167 325.5,224.833 325.5,232.5C 325.5,240.167 325.5,247.833 325.5,255.5C 317.833,255.5 310.167,255.5 302.5,255.5C 302.5,240.167 302.5,224.833 302.5,209.5 Z"/></g>
<g><path style="opacity:1" fill="#b0afaf" d="M 325.5,209.5 C 333.167,209.5 340.833,209.5 348.5,209.5C 348.5,217.167 348.5,224.833 348.5,232.5C 340.833,232.5 333.167,232.5 325.5,232.5C 325.5,224.833 325.5,217.167 325.5,209.5 Z"/></g>
<g><path style="opacity:1" fill="#a7997c" d="M 441.5,208.5 C 441.5,208.833 441.5,209.167 441.5,209.5C 418.5,209.5 395.5,209.5 372.5,209.5C 372.5,224.833 372.5,240.167 372.5,255.5C 371.504,240.009 371.17,224.342 371.5,208.5C 394.833,208.5 418.167,208.5 441.5,208.5 Z"/></g>
<g><path style="opacity:1" fill="#fefffe" d="M 441.5,209.5 C 441.5,224.833 441.5,240.167 441.5,255.5C 418.5,255.5 395.5,255.5 372.5,255.5C 372.5,240.167 372.5,224.833 372.5,209.5C 395.5,209.5 418.5,209.5 441.5,209.5 Z"/></g>
<g><path style="opacity:1" fill="#ecad3d" d="M 302.5,255.5 C 302.5,263.167 302.5,270.833 302.5,278.5C 271.167,278.5 239.833,278.5 208.5,278.5C 208.5,270.833 208.5,263.167 208.5,255.5C 209.492,248.018 209.825,240.352 209.5,232.5C 240.167,232.5 270.833,232.5 301.5,232.5C 301.175,240.352 301.508,248.018 302.5,255.5 Z"/></g>
<g><path style="opacity:1" fill="#edae3e" d="M 69.5,255.5 C 69.5,263.167 69.5,270.833 69.5,278.5C 61.5,278.5 53.5,278.5 45.5,278.5C 45.5,270.833 45.5,263.167 45.5,255.5C 53.5,255.5 61.5,255.5 69.5,255.5 Z"/></g>
<g><path style="opacity:1" fill="#edae3e" d="M 441.5,255.5 C 449.5,255.5 457.5,255.5 465.5,255.5C 465.5,263.167 465.5,270.833 465.5,278.5C 457.5,278.5 449.5,278.5 441.5,278.5C 441.5,270.833 441.5,263.167 441.5,255.5 Z"/></g>
<g><path style="opacity:1" fill="#be9645" d="M 115.5,278.5 C 146.5,278.5 177.5,278.5 208.5,278.5C 178.005,279.498 147.338,279.831 116.5,279.5C 116.825,287.352 116.492,295.018 115.5,302.5C 115.5,302.167 115.5,301.833 115.5,301.5C 115.5,294.167 115.5,286.833 115.5,279.5C 115.5,279.167 115.5,278.833 115.5,278.5 Z"/></g>
<g><path style="opacity:1" fill="#be9645" d="M 302.5,278.5 C 333.5,278.5 364.5,278.5 395.5,278.5C 395.5,278.833 395.5,279.167 395.5,279.5C 395.5,286.833 395.5,294.167 395.5,301.5C 395.5,301.833 395.5,302.167 395.5,302.5C 394.508,295.018 394.175,287.352 394.5,279.5C 363.662,279.831 332.995,279.498 302.5,278.5 Z"/></g>
<g><path style="opacity:1" fill="#eb9d83" d="M 45.5,278.5 C 53.5,278.5 61.5,278.5 69.5,278.5C 84.8333,278.5 100.167,278.5 115.5,278.5C 115.5,278.833 115.5,279.167 115.5,279.5C 92.5,279.5 69.5,279.5 46.5,279.5C 46.5,286.833 46.5,294.167 46.5,301.5C 69.5,301.5 92.5,301.5 115.5,301.5C 115.5,301.833 115.5,302.167 115.5,302.5C 92.1667,302.5 68.8333,302.5 45.5,302.5C 45.5,294.5 45.5,286.5 45.5,278.5 Z"/></g>
<g><path style="opacity:1" fill="#fe92bb" d="M 115.5,279.5 C 115.5,286.833 115.5,294.167 115.5,301.5C 92.5,301.5 69.5,301.5 46.5,301.5C 46.5,294.167 46.5,286.833 46.5,279.5C 69.5,279.5 92.5,279.5 115.5,279.5 Z"/></g>
<g><path style="opacity:1" fill="#fe92bb" d="M 395.5,279.5 C 418.5,279.5 441.5,279.5 464.5,279.5C 464.5,286.833 464.5,294.167 464.5,301.5C 441.5,301.5 418.5,301.5 395.5,301.5C 395.5,294.167 395.5,286.833 395.5,279.5 Z"/></g>
<g><path style="opacity:1" fill="#eb9d83" d="M 395.5,279.5 C 395.5,279.167 395.5,278.833 395.5,278.5C 410.833,278.5 426.167,278.5 441.5,278.5C 449.5,278.5 457.5,278.5 465.5,278.5C 465.5,286.5 465.5,294.5 465.5,302.5C 442.167,302.5 418.833,302.5 395.5,302.5C 395.5,302.167 395.5,301.833 395.5,301.5C 418.5,301.5 441.5,301.5 464.5,301.5C 464.5,294.167 464.5,286.833 464.5,279.5C 441.5,279.5 418.5,279.5 395.5,279.5 Z"/></g>
<g><path style="opacity:1" fill="#242020" d="M 162.5,324.5 C 162.5,324.833 162.5,325.167 162.5,325.5C 154.833,325.5 147.167,325.5 139.5,325.5C 139.5,317.833 139.5,310.167 139.5,302.5C 147.167,302.5 154.833,302.5 162.5,302.5C 162.5,309.833 162.5,317.167 162.5,324.5 Z"/></g>
<g><path style="opacity:1" fill="#242020" d="M 278.5,302.5 C 278.5,310.167 278.5,317.833 278.5,325.5C 263.167,325.5 247.833,325.5 232.5,325.5C 232.5,317.833 232.5,310.167 232.5,302.5C 247.833,302.5 263.167,302.5 278.5,302.5 Z"/></g>
<g><path style="opacity:1" fill="#221f1f" d="M 349.5,302.5 C 356.833,302.5 364.167,302.5 371.5,302.5C 371.5,309.833 371.5,317.167 371.5,324.5C 371.5,317.167 371.5,309.833 371.5,302.5C 364.167,302.5 356.833,302.5 349.5,302.5 Z"/></g>
<g><path style="opacity:1" fill="#8c7235" d="M 348.5,302.5 C 356.316,301.508 364.316,301.174 372.5,301.5C 372.826,309.684 372.492,317.684 371.5,325.5C 371.5,325.167 371.5,324.833 371.5,324.5C 371.5,317.167 371.5,309.833 371.5,302.5C 364.167,302.5 356.833,302.5 349.5,302.5C 349.167,302.5 348.833,302.5 348.5,302.5 Z"/></g>
<g><path style="opacity:1" fill="#bd983f" d="M 278.5,301.5 C 278.5,301.833 278.5,302.167 278.5,302.5C 263.167,302.5 247.833,302.5 232.5,302.5C 232.5,310.167 232.5,317.833 232.5,325.5C 232.5,333.5 232.5,341.5 232.5,349.5C 208.994,349.831 185.661,349.498 162.5,348.5C 185.5,348.5 208.5,348.5 231.5,348.5C 231.5,340.833 231.5,333.167 231.5,325.5C 208.5,325.5 185.5,325.5 162.5,325.5C 162.5,325.167 162.5,324.833 162.5,324.5C 185.5,324.5 208.5,324.5 231.5,324.5C 231.5,316.833 231.5,309.167 231.5,301.5C 247.167,301.5 262.833,301.5 278.5,301.5 Z"/></g>
<g><path style="opacity:1" fill="#d2a843" d="M 278.5,301.5 C 279.492,308.982 279.825,316.648 279.5,324.5C 302.5,324.5 325.5,324.5 348.5,324.5C 348.5,324.833 348.5,325.167 348.5,325.5C 325.167,325.5 301.833,325.5 278.5,325.5C 278.5,317.833 278.5,310.167 278.5,302.5C 278.5,302.167 278.5,301.833 278.5,301.5 Z"/></g>
<g><path style="opacity:1" fill="#483c27" d="M 348.5,302.5 C 348.833,302.5 349.167,302.5 349.5,302.5C 349.5,309.833 349.5,317.167 349.5,324.5C 356.833,324.5 364.167,324.5 371.5,324.5C 371.5,324.833 371.5,325.167 371.5,325.5C 363.833,325.5 356.167,325.5 348.5,325.5C 348.5,325.167 348.5,324.833 348.5,324.5C 348.5,317.167 348.5,309.833 348.5,302.5 Z"/></g>
<g><path style="opacity:0.972" fill="#231e20" d="M 22.5,325.5 C 30.1667,325.5 37.8333,325.5 45.5,325.5C 45.5,341.167 45.5,356.833 45.5,372.5C 37.8333,372.5 30.1667,372.5 22.5,372.5C 22.5,356.833 22.5,341.167 22.5,325.5 Z"/></g>
<g><path style="opacity:1" fill="#221f1f" d="M 162.5,325.5 C 185.5,325.5 208.5,325.5 231.5,325.5C 231.5,333.167 231.5,340.833 231.5,348.5C 208.5,348.5 185.5,348.5 162.5,348.5C 162.5,340.833 162.5,333.167 162.5,325.5 Z"/></g>
<g><path style="opacity:1" fill="#241f20" d="M 278.5,325.5 C 301.833,325.5 325.167,325.5 348.5,325.5C 348.5,333.167 348.5,340.833 348.5,348.5C 325.167,348.5 301.833,348.5 278.5,348.5C 278.5,340.833 278.5,333.167 278.5,325.5 Z"/></g>
<g><path style="opacity:0.972" fill="#231e20" d="M 465.5,325.5 C 473.167,325.5 480.833,325.5 488.5,325.5C 488.5,341.167 488.5,356.833 488.5,372.5C 480.833,372.5 473.167,372.5 465.5,372.5C 465.5,356.833 465.5,341.167 465.5,325.5 Z"/></g>
<g><path style="opacity:1" fill="#b18839" d="M 45.5,325.5 C 46.492,332.982 46.8254,340.648 46.5,348.5C 54.1667,348.5 61.8333,348.5 69.5,348.5C 69.5,356.167 69.5,363.833 69.5,371.5C 69.5,371.833 69.5,372.167 69.5,372.5C 69.1667,372.5 68.8333,372.5 68.5,372.5C 60.8333,372.5 53.1667,372.5 45.5,372.5C 45.5,356.833 45.5,341.167 45.5,325.5 Z"/></g>
<g><path style="opacity:1" fill="#edae3e" d="M 46.5,348.5 C 54.1667,348.5 61.8333,348.5 69.5,348.5C 69.5,356.167 69.5,363.833 69.5,371.5C 61.8333,371.5 54.1667,371.5 46.5,371.5C 46.5,363.833 46.5,356.167 46.5,348.5 Z"/></g>
<g><path style="opacity:1" fill="#edae3e" d="M 464.5,348.5 C 464.5,356.167 464.5,363.833 464.5,371.5C 456.833,371.5 449.167,371.5 441.5,371.5C 441.5,363.833 441.5,356.167 441.5,348.5C 449.167,348.5 456.833,348.5 464.5,348.5 Z"/></g>
<g><path style="opacity:1" fill="#b18839" d="M 465.5,325.5 C 465.5,341.167 465.5,356.833 465.5,372.5C 457.833,372.5 450.167,372.5 442.5,372.5C 442.167,372.5 441.833,372.5 441.5,372.5C 441.5,372.167 441.5,371.833 441.5,371.5C 449.167,371.5 456.833,371.5 464.5,371.5C 464.5,363.833 464.5,356.167 464.5,348.5C 464.175,340.648 464.508,332.982 465.5,325.5 Z"/></g>
<g><path style="opacity:0.996" fill="#231e1f" d="M 45.5,372.5 C 53.1667,372.5 60.8333,372.5 68.5,372.5C 68.5,387.833 68.5,403.167 68.5,418.5C 60.8333,418.5 53.1667,418.5 45.5,418.5C 45.5,403.167 45.5,387.833 45.5,372.5 Z"/></g>
<g><path style="opacity:0.996" fill="#231e1f" d="M 442.5,372.5 C 450.167,372.5 457.833,372.5 465.5,372.5C 465.5,387.833 465.5,403.167 465.5,418.5C 457.833,418.5 450.167,418.5 442.5,418.5C 442.5,403.167 442.5,387.833 442.5,372.5 Z"/></g>
<g><path style="opacity:1" fill="#ecae3d" d="M 69.5,395.5 C 77.1667,395.5 84.8333,395.5 92.5,395.5C 92.5,403.167 92.5,410.833 92.5,418.5C 84.8333,418.5 77.1667,418.5 69.5,418.5C 69.5,410.833 69.5,403.167 69.5,395.5 Z"/></g>
<g><path style="opacity:1" fill="#ecae3d" d="M 441.5,395.5 C 441.5,403.167 441.5,410.833 441.5,418.5C 433.833,418.5 426.167,418.5 418.5,418.5C 418.5,410.833 418.5,403.167 418.5,395.5C 426.167,395.5 433.833,395.5 441.5,395.5 Z"/></g>
<g><path style="opacity:1" fill="#edae3e" d="M 92.5,418.5 C 108.167,418.5 123.833,418.5 139.5,418.5C 139.5,426.167 139.5,433.833 139.5,441.5C 139.167,441.5 138.833,441.5 138.5,441.5C 123.167,441.5 107.833,441.5 92.5,441.5C 92.5,433.833 92.5,426.167 92.5,418.5 Z"/></g>
<g><path style="opacity:1" fill="#edae3e" d="M 418.5,418.5 C 418.5,426.167 418.5,433.833 418.5,441.5C 403.167,441.5 387.833,441.5 372.5,441.5C 372.167,441.5 371.833,441.5 371.5,441.5C 371.5,433.833 371.5,426.167 371.5,418.5C 387.167,418.5 402.833,418.5 418.5,418.5 Z"/></g>
<g><path style="opacity:1" fill="#2a2421" d="M 68.5,372.5 C 68.8333,372.5 69.1667,372.5 69.5,372.5C 69.5,380.167 69.5,387.833 69.5,395.5C 69.5,403.167 69.5,410.833 69.5,418.5C 77.1667,418.5 84.8333,418.5 92.5,418.5C 92.5,426.167 92.5,433.833 92.5,441.5C 107.833,441.5 123.167,441.5 138.5,441.5C 138.5,441.833 138.5,442.167 138.5,442.5C 123.167,442.5 107.833,442.5 92.5,442.5C 84.5,442.5 76.5,442.5 68.5,442.5C 68.5,434.5 68.5,426.5 68.5,418.5C 68.5,403.167 68.5,387.833 68.5,372.5 Z"/></g>
<g><path style="opacity:1" fill="#2a2421" d="M 441.5,372.5 C 441.833,372.5 442.167,372.5 442.5,372.5C 442.5,387.833 442.5,403.167 442.5,418.5C 442.5,426.5 442.5,434.5 442.5,442.5C 434.5,442.5 426.5,442.5 418.5,442.5C 403.167,442.5 387.833,442.5 372.5,442.5C 372.5,442.167 372.5,441.833 372.5,441.5C 387.833,441.5 403.167,441.5 418.5,441.5C 418.5,433.833 418.5,426.167 418.5,418.5C 426.167,418.5 433.833,418.5 441.5,418.5C 441.5,410.833 441.5,403.167 441.5,395.5C 441.5,387.833 441.5,380.167 441.5,372.5 Z"/></g>
<g><path style="opacity:0.996" fill="#231e1f" d="M 92.5,442.5 C 107.833,442.5 123.167,442.5 138.5,442.5C 138.5,450.167 138.5,457.833 138.5,465.5C 123.167,465.5 107.833,465.5 92.5,465.5C 92.5,457.833 92.5,450.167 92.5,442.5 Z"/></g>
<g><path style="opacity:1" fill="#edae3e" d="M 139.5,441.5 C 154.833,441.5 170.167,441.5 185.5,441.5C 185.5,449.167 185.5,456.833 185.5,464.5C 170.167,464.5 154.833,464.5 139.5,464.5C 139.5,456.833 139.5,449.167 139.5,441.5 Z"/></g>
<g><path style="opacity:1" fill="#edae3e" d="M 371.5,441.5 C 371.5,449.167 371.5,456.833 371.5,464.5C 356.167,464.5 340.833,464.5 325.5,464.5C 325.5,456.833 325.5,449.167 325.5,441.5C 340.833,441.5 356.167,441.5 371.5,441.5 Z"/></g>
<g><path style="opacity:0.996" fill="#231e1f" d="M 372.5,442.5 C 387.833,442.5 403.167,442.5 418.5,442.5C 418.5,450.167 418.5,457.833 418.5,465.5C 403.167,465.5 387.833,465.5 372.5,465.5C 372.5,457.833 372.5,450.167 372.5,442.5 Z"/></g>
<g><path style="opacity:1" fill="#b68a39" d="M 138.5,441.5 C 138.833,441.5 139.167,441.5 139.5,441.5C 139.5,449.167 139.5,456.833 139.5,464.5C 154.833,464.5 170.167,464.5 185.5,464.5C 185.5,464.833 185.5,465.167 185.5,465.5C 169.833,465.5 154.167,465.5 138.5,465.5C 138.5,457.833 138.5,450.167 138.5,442.5C 138.5,442.167 138.5,441.833 138.5,441.5 Z"/></g>
<g><path style="opacity:1" fill="#b68a39" d="M 371.5,441.5 C 371.833,441.5 372.167,441.5 372.5,441.5C 372.5,441.833 372.5,442.167 372.5,442.5C 372.5,450.167 372.5,457.833 372.5,465.5C 356.833,465.5 341.167,465.5 325.5,465.5C 325.5,465.167 325.5,464.833 325.5,464.5C 340.833,464.5 356.167,464.5 371.5,464.5C 371.5,456.833 371.5,449.167 371.5,441.5 Z"/></g>
<g><path style="opacity:0.972" fill="#231e20" d="M 138.5,465.5 C 154.167,465.5 169.833,465.5 185.5,465.5C 185.5,473.167 185.5,480.833 185.5,488.5C 169.833,488.5 154.167,488.5 138.5,488.5C 138.5,480.833 138.5,473.167 138.5,465.5 Z"/></g>
<g><path style="opacity:1" fill="#ecad3d" d="M 185.5,464.5 C 232.167,465.833 278.833,465.833 325.5,464.5C 325.5,464.833 325.5,465.167 325.5,465.5C 325.5,473.167 325.5,480.833 325.5,488.5C 278.833,488.5 232.167,488.5 185.5,488.5C 185.5,480.833 185.5,473.167 185.5,465.5C 185.5,465.167 185.5,464.833 185.5,464.5 Z"/></g>
<g><path style="opacity:0.972" fill="#231e20" d="M 325.5,465.5 C 341.167,465.5 356.833,465.5 372.5,465.5C 372.5,473.167 372.5,480.833 372.5,488.5C 356.833,488.5 341.167,488.5 325.5,488.5C 325.5,480.833 325.5,473.167 325.5,465.5 Z"/></g>
<g><path style="opacity:0.998" fill="#221f1f" d="M 185.5,488.5 C 232.167,488.5 278.833,488.5 325.5,488.5C 325.5,496.167 325.5,503.833 325.5,511.5C 278.833,511.5 232.167,511.5 185.5,511.5C 185.5,503.833 185.5,496.167 185.5,488.5 Z"/></g>
</svg>
