<?xml version="1.0" encoding="UTF-8"?>
<!DOCTYPE svg PUBLIC "-//W3C//DTD SVG 1.1//EN" "http://www.w3.org/Graphics/SVG/1.1/DTD/svg11.dtd">
<svg xmlns="http://www.w3.org/2000/svg" version="1.1" width="643px" height="528px" style="shape-rendering:geometricPrecision; text-rendering:geometricPrecision; image-rendering:optimizeQuality; fill-rule:evenodd; clip-rule:evenodd" xmlns:xlink="http://www.w3.org/1999/xlink">
<g><path style="opacity:0.417" fill="#b0b0af" d="M 275.5,0.5 C 275.5,0.166667 275.5,-0.166667 275.5,-0.5C 306.167,-0.5 336.833,-0.5 367.5,-0.5C 367.5,7.16667 367.5,14.8333 367.5,22.5C 367.167,22.5 366.833,22.5 366.5,22.5C 366.5,15.1667 366.5,7.83333 366.5,0.5C 336.5,0.5 306.5,0.5 276.5,0.5C 276.167,0.5 275.833,0.5 275.5,0.5 Z"/></g>
<g><path style="opacity:1" fill="#050503" d="M 276.5,0.5 C 306.5,0.5 336.5,0.5 366.5,0.5C 366.5,7.83333 366.5,15.1667 366.5,22.5C 359.167,22.5 351.833,22.5 344.5,22.5C 336.427,21.8682 328.76,22.5349 321.5,24.5C 321.5,31.5 321.5,38.5 321.5,45.5C 314.167,45.5 306.833,45.5 299.5,45.5C 299.666,37.8261 299.5,30.1594 299,22.5C 291.587,21.5192 284.087,21.1858 276.5,21.5C 276.5,14.5 276.5,7.5 276.5,0.5 Z"/></g>
<g><path style="opacity:1" fill="#80807f" d="M 275.5,0.5 C 275.833,0.5 276.167,0.5 276.5,0.5C 276.5,7.5 276.5,14.5 276.5,21.5C 284.087,21.1858 291.587,21.5192 299,22.5C 299.5,30.1594 299.666,37.8261 299.5,45.5C 306.833,45.5 314.167,45.5 321.5,45.5C 321.833,45.5 322.167,45.5 322.5,45.5C 322.5,45.8333 322.5,46.1667 322.5,46.5C 322.5,61.5 322.5,76.5 322.5,91.5C 329.5,91.5 336.5,91.5 343.5,91.5C 343.833,91.5 344.167,91.5 344.5,91.5C 344.5,91.8333 344.5,92.1667 344.5,92.5C 344.5,107.167 344.5,121.833 344.5,136.5C 344.5,136.833 344.5,137.167 344.5,137.5C 336.5,137.5 328.5,137.5 320.5,137.5C 320.5,122.5 320.5,107.5 320.5,92.5C 313.167,92.5 305.833,92.5 298.5,92.5C 298.5,77.1667 298.5,61.8333 298.5,46.5C 290.833,46.5 283.167,46.5 275.5,46.5C 275.5,61.5 275.5,76.5 275.5,91.5C 267.833,91.5 260.167,91.5 252.5,91.5C 252.5,106.833 252.5,122.167 252.5,137.5C 245.5,137.5 238.5,137.5 231.5,137.5C 231.5,152.833 231.5,168.167 231.5,183.5C 223.5,183.5 215.5,183.5 207.5,183.5C 207.5,191.167 207.5,198.833 207.5,206.5C 199.833,206.5 192.167,206.5 184.5,206.5C 184.167,206.5 183.833,206.5 183.5,206.5C 183.5,206.167 183.5,205.833 183.5,205.5C 183.5,198.5 183.5,191.5 183.5,184.5C 123.002,183.501 62.3356,183.168 1.5,183.5C 1.16667,183.5 0.833333,183.5 0.5,183.5C 61.3311,182.501 122.331,182.168 183.5,182.5C 183.171,167.324 183.504,152.324 184.5,137.5C 191.648,136.508 198.981,136.175 206.5,136.5C 206.5,121.5 206.5,106.5 206.5,91.5C 214.167,91.5 221.833,91.5 229.5,91.5C 229.833,91.5 230.167,91.5 230.5,91.5C 237.167,91.5 243.833,91.5 250.5,91.5C 250.5,76.5 250.5,61.5 250.5,46.5C 250.5,46.1667 250.5,45.8333 250.5,45.5C 252.465,38.2395 253.132,30.5729 252.5,22.5C 260.167,22.5 267.833,22.5 275.5,22.5C 275.5,15.1667 275.5,7.83333 275.5,0.5 Z"/></g>
<g><path style="opacity:1" fill="#939132" d="M 344.5,22.5 C 344.5,22.8333 344.5,23.1667 344.5,23.5C 336.747,23.201 329.08,23.5343 321.5,24.5C 328.76,22.5349 336.427,21.8682 344.5,22.5 Z"/></g>
<g><path style="opacity:1" fill="#9b9b99" d="M 344.5,23.5 C 344.5,30.8333 344.5,38.1667 344.5,45.5C 337.167,45.5 329.833,45.5 322.5,45.5C 322.167,45.5 321.833,45.5 321.5,45.5C 321.5,38.5 321.5,31.5 321.5,24.5C 329.08,23.5343 336.747,23.201 344.5,23.5 Z"/></g>
<g><path style="opacity:1" fill="#060402" d="M 253.5,23.5 C 260.833,23.5 268.167,23.5 275.5,23.5C 275.5,30.8333 275.5,38.1667 275.5,45.5C 268.167,45.5 260.833,45.5 253.5,45.5C 253.5,38.1667 253.5,30.8333 253.5,23.5 Z"/></g>
<g><path style="opacity:1" fill="#80764e" d="M 344.5,22.5 C 351.833,22.5 359.167,22.5 366.5,22.5C 366.833,22.5 367.167,22.5 367.5,22.5C 375.352,22.1746 383.018,22.508 390.5,23.5C 390.167,23.5 389.833,23.5 389.5,23.5C 381.981,23.175 374.648,23.5084 367.5,24.5C 360.254,23.536 352.92,23.2027 345.5,23.5C 345.5,30.8333 345.5,38.1667 345.5,45.5C 352.687,45.1755 359.687,45.5088 366.5,46.5C 359.167,46.5 351.833,46.5 344.5,46.5C 344.5,61.5 344.5,76.5 344.5,91.5C 344.167,91.5 343.833,91.5 343.5,91.5C 343.5,76.5 343.5,61.5 343.5,46.5C 336.5,46.5 329.5,46.5 322.5,46.5C 322.5,46.1667 322.5,45.8333 322.5,45.5C 329.833,45.5 337.167,45.5 344.5,45.5C 344.5,38.1667 344.5,30.8333 344.5,23.5C 344.5,23.1667 344.5,22.8333 344.5,22.5 Z"/></g>
<g><path style="opacity:1" fill="#9b9a99" d="M 344.5,137.5 C 344.5,152.5 344.5,167.5 344.5,182.5C 351.5,182.5 358.5,182.5 365.5,182.5C 365.5,190.833 365.5,199.167 365.5,207.5C 373.833,207.5 382.167,207.5 390.5,207.5C 390.5,214.833 390.5,222.167 390.5,229.5C 428.5,229.5 466.5,229.5 504.5,229.5C 504.5,237.167 504.5,244.833 504.5,252.5C 496.833,252.5 489.167,252.5 481.5,252.5C 481.5,259.833 481.5,267.167 481.5,274.5C 473.833,274.5 466.167,274.5 458.5,274.5C 458.5,282.167 458.5,289.833 458.5,297.5C 457.833,297.5 457.5,297.833 457.5,298.5C 450.5,298.5 443.5,298.5 436.5,298.5C 436.797,305.92 436.464,313.254 435.5,320.5C 434.833,320.5 434.5,320.833 434.5,321.5C 427.5,321.5 420.5,321.5 413.5,321.5C 413.5,328.833 413.5,336.167 413.5,343.5C 420.833,343.5 428.167,343.5 435.5,343.5C 435.5,344.167 435.833,344.5 436.5,344.5C 436.5,366.833 436.5,389.167 436.5,411.5C 437.833,411.5 439.167,411.5 440.5,411.5C 446.733,412.203 453.066,412.87 459.5,413.5C 459.5,428.5 459.5,443.5 459.5,458.5C 453.31,458.177 447.31,458.51 441.5,459.5C 439.901,459.768 438.568,459.434 437.5,458.5C 437.217,457.711 436.717,457.044 436,456.5C 435.814,449.586 435.314,442.753 434.5,436C 420.171,435.5 405.837,435.333 391.5,435.5C 391.167,435.5 390.833,435.5 390.5,435.5C 390.672,434.508 390.338,433.842 389.5,433.5C 389.954,426.841 390.287,420.174 390.5,413.5C 377.833,413.5 365.167,413.5 352.5,413.5C 349.947,412.745 347.28,412.078 344.5,411.5C 343.538,404.588 343.205,397.588 343.5,390.5C 328.833,390.5 314.167,390.5 299.5,390.5C 298.183,383.333 298.183,376.166 299.5,369C 297.22,367.064 294.553,366.231 291.5,366.5C 286.519,367.165 281.519,367.498 276.5,367.5C 276.5,374.167 276.5,380.833 276.5,387.5C 275.599,388.29 274.932,389.29 274.5,390.5C 259.833,390.5 245.167,390.5 230.5,390.5C 230.5,397.5 230.5,404.5 230.5,411.5C 229.778,411.918 229.278,412.584 229,413.5C 214.376,413.467 199.542,413.467 184.5,413.5C 184.5,420.5 184.5,427.5 184.5,434.5C 169.402,435.152 154.402,435.818 139.5,436.5C 138.79,438.893 138.123,441.393 137.5,444C 138.138,447.935 138.804,451.769 139.5,455.5C 139.5,455.833 139.5,456.167 139.5,456.5C 138.5,456.833 137.833,457.5 137.5,458.5C 134.833,459.833 132.167,459.833 129.5,458.5C 124.771,458.34 119.938,458.006 115,457.5C 114.5,442.837 114.333,428.17 114.5,413.5C 121.628,411.655 128.961,410.988 136.5,411.5C 136.17,393.659 136.503,375.992 137.5,358.5C 138.19,353.767 138.856,348.934 139.5,344C 146.492,343.5 153.492,343.334 160.5,343.5C 161.833,336.167 161.833,328.833 160.5,321.5C 153.5,321.5 146.5,321.5 139.5,321.5C 139.5,320.833 139.167,320.5 138.5,320.5C 137.536,313.254 137.203,305.92 137.5,298.5C 130.492,298.666 123.492,298.5 116.5,298C 115.685,290.913 115.185,283.747 115,276.5C 108.256,275.521 101.422,275.188 94.5,275.5C 94.1667,275.5 93.8333,275.5 93.5,275.5C 93.0113,274.005 92.3446,272.671 91.5,271.5C 92.7016,266.023 92.7016,260.689 91.5,255.5C 91.5,255.167 91.5,254.833 91.5,254.5C 84.9048,252.698 77.9048,251.865 70.5,252C 69.8622,248.065 69.1955,244.231 68.5,240.5C 68.5,239.5 68.5,238.5 68.5,237.5C 69.2052,234.772 69.8719,231.939 70.5,229C 105.707,228.532 140.707,228.365 175.5,228.5C 177.833,228.5 180.167,228.5 182.5,228.5C 183.198,221.266 183.864,213.933 184.5,206.5C 192.167,206.5 199.833,206.5 207.5,206.5C 207.5,198.833 207.5,191.167 207.5,183.5C 215.5,183.5 223.5,183.5 231.5,183.5C 231.5,168.167 231.5,152.833 231.5,137.5C 238.5,137.5 245.5,137.5 252.5,137.5C 252.5,122.167 252.5,106.833 252.5,91.5C 260.167,91.5 267.833,91.5 275.5,91.5C 275.5,76.5 275.5,61.5 275.5,46.5C 283.167,46.5 290.833,46.5 298.5,46.5C 298.5,61.8333 298.5,77.1667 298.5,92.5C 305.833,92.5 313.167,92.5 320.5,92.5C 320.5,107.5 320.5,122.5 320.5,137.5C 328.5,137.5 336.5,137.5 344.5,137.5 Z"/></g>
<g><path style="opacity:1" fill="#9a9a98" d="M 366.5,46.5 C 367.496,61.324 367.829,76.324 367.5,91.5C 359.833,91.5 352.167,91.5 344.5,91.5C 344.5,76.5 344.5,61.5 344.5,46.5C 351.833,46.5 359.167,46.5 366.5,46.5 Z"/></g>
<g><path style="opacity:1" fill="#5a5958" d="M 367.5,24.5 C 367.5,31.5 367.5,38.5 367.5,45.5C 374.833,45.5 382.167,45.5 389.5,45.5C 389.5,38.1667 389.5,30.8333 389.5,23.5C 389.833,23.5 390.167,23.5 390.5,23.5C 390.5,30.8333 390.5,38.1667 390.5,45.5C 390.5,45.8333 390.5,46.1667 390.5,46.5C 390.5,61.5 390.5,76.5 390.5,91.5C 397.5,91.5 404.5,91.5 411.5,91.5C 411.833,92.5 412.5,93.1667 413.5,93.5C 413.5,108.167 413.5,122.833 413.5,137.5C 420.833,137.5 428.167,137.5 435.5,137.5C 443.167,137.5 450.833,137.5 458.5,137.5C 458.5,137.833 458.5,138.167 458.5,138.5C 451.167,138.5 443.833,138.5 436.5,138.5C 436.5,153.833 436.5,169.167 436.5,184.5C 428.833,184.5 421.167,184.5 413.5,184.5C 413.167,183.833 412.833,183.167 412.5,182.5C 413.661,168.006 413.828,153.339 413,138.5C 405.587,137.519 398.087,137.186 390.5,137.5C 390.167,137.5 389.833,137.5 389.5,137.5C 389.5,137.167 389.5,136.833 389.5,136.5C 390.661,122.006 390.828,107.339 390,92.5C 382.587,91.5192 375.087,91.1858 367.5,91.5C 367.829,76.324 367.496,61.324 366.5,46.5C 359.687,45.5088 352.687,45.1755 345.5,45.5C 345.5,38.1667 345.5,30.8333 345.5,23.5C 352.92,23.2027 360.254,23.536 367.5,24.5 Z"/></g>
<g><path style="opacity:1" fill="#090504" d="M 389.5,23.5 C 389.5,30.8333 389.5,38.1667 389.5,45.5C 382.167,45.5 374.833,45.5 367.5,45.5C 367.5,38.5 367.5,31.5 367.5,24.5C 374.648,23.5084 381.981,23.175 389.5,23.5 Z"/></g>
<g><path style="opacity:1" fill="#050504" d="M 250.5,46.5 C 250.5,61.5 250.5,76.5 250.5,91.5C 243.833,91.5 237.167,91.5 230.5,91.5C 230.5,76.5 230.5,61.5 230.5,46.5C 237.167,46.5 243.833,46.5 250.5,46.5 Z"/></g>
<g><path style="opacity:1" fill="#020201" d="M 322.5,46.5 C 329.5,46.5 336.5,46.5 343.5,46.5C 343.5,61.5 343.5,76.5 343.5,91.5C 336.5,91.5 329.5,91.5 322.5,91.5C 322.5,76.5 322.5,61.5 322.5,46.5 Z"/></g>
<g><path style="opacity:1" fill="#39201d" d="M 390.5,46.5 C 390.833,46.5 391.167,46.5 391.5,46.5C 391.5,47.1667 391.5,47.8333 391.5,48.5C 391.5,62.5 391.5,76.5 391.5,90.5C 393.5,90.5 395.5,90.5 397.5,90.5C 402.363,90.1805 407.03,90.5139 411.5,91.5C 404.5,91.5 397.5,91.5 390.5,91.5C 390.5,76.5 390.5,61.5 390.5,46.5 Z"/></g>
<g><path style="opacity:1" fill="#010102" d="M 391.5,48.5 C 397.833,48.5 404.167,48.5 410.5,48.5C 410.832,58.8548 410.499,69.1881 409.5,79.5C 404.875,83.3077 400.875,86.9744 397.5,90.5C 395.5,90.5 393.5,90.5 391.5,90.5C 391.5,76.5 391.5,62.5 391.5,48.5 Z"/></g>
<g><path style="opacity:0.541" fill="#a6a6a6" d="M 250.5,45.5 C 250.5,45.8333 250.5,46.1667 250.5,46.5C 243.833,46.5 237.167,46.5 230.5,46.5C 230.5,61.5 230.5,76.5 230.5,91.5C 230.167,91.5 229.833,91.5 229.5,91.5C 229.5,76.1667 229.5,60.8333 229.5,45.5C 236.5,45.5 243.5,45.5 250.5,45.5 Z"/></g>
<g><path style="opacity:1" fill="#131415" d="M 391.5,46.5 C 398.5,46.5 405.5,46.5 412.5,46.5C 412.829,61.676 412.496,76.676 411.5,91.5C 407.03,90.5139 402.363,90.1805 397.5,90.5C 400.875,86.9744 404.875,83.3077 409.5,79.5C 410.499,69.1881 410.832,58.8548 410.5,48.5C 404.167,48.5 397.833,48.5 391.5,48.5C 391.5,47.8333 391.5,47.1667 391.5,46.5 Z"/></g>
<g><path style="opacity:0.871" fill="#939393" d="M 390.5,46.5 C 390.5,46.1667 390.5,45.8333 390.5,45.5C 398.167,45.5 405.833,45.5 413.5,45.5C 413.5,60.5 413.5,75.5 413.5,90.5C 421.124,91.3978 428.791,91.7311 436.5,91.5C 436.5,106.5 436.5,121.5 436.5,136.5C 444.019,136.175 451.352,136.508 458.5,137.5C 450.833,137.5 443.167,137.5 435.5,137.5C 435.5,137.167 435.5,136.833 435.5,136.5C 435.5,121.833 435.5,107.167 435.5,92.5C 428.5,92.5 421.5,92.5 414.5,92.5C 413.833,92.5 413.5,92.8333 413.5,93.5C 412.5,93.1667 411.833,92.5 411.5,91.5C 412.496,76.676 412.829,61.676 412.5,46.5C 405.5,46.5 398.5,46.5 391.5,46.5C 391.167,46.5 390.833,46.5 390.5,46.5 Z"/></g>
<g><path style="opacity:1" fill="#9a9a98" d="M 367.5,91.5 C 375.087,91.1858 382.587,91.5192 390,92.5C 390.828,107.339 390.661,122.006 389.5,136.5C 382.167,136.5 374.833,136.5 367.5,136.5C 367.5,121.5 367.5,106.5 367.5,91.5 Z"/></g>
<g><path style="opacity:1" fill="#020202" d="M 207.5,92.5 C 214.5,92.5 221.5,92.5 228.5,92.5C 228.5,107.167 228.5,121.833 228.5,136.5C 221.5,136.5 214.5,136.5 207.5,136.5C 207.5,121.833 207.5,107.167 207.5,92.5 Z"/></g>
<g><path style="opacity:1" fill="#010201" d="M 344.5,92.5 C 344.833,92.5 345.167,92.5 345.5,92.5C 351.645,93.4902 357.978,93.8235 364.5,93.5C 364.5,107.833 364.5,122.167 364.5,136.5C 357.833,136.5 351.167,136.5 344.5,136.5C 344.5,121.833 344.5,107.167 344.5,92.5 Z"/></g>
<g><path style="opacity:1" fill="#787724" d="M 344.5,92.5 C 344.5,92.1667 344.5,91.8333 344.5,91.5C 352.167,91.5 359.833,91.5 367.5,91.5C 367.5,106.5 367.5,121.5 367.5,136.5C 374.833,136.5 382.167,136.5 389.5,136.5C 389.5,136.833 389.5,137.167 389.5,137.5C 382.167,137.5 374.833,137.5 367.5,137.5C 359.833,137.5 352.167,137.5 344.5,137.5C 344.5,137.167 344.5,136.833 344.5,136.5C 351.167,136.5 357.833,136.5 364.5,136.5C 366.483,122.205 367.15,107.538 366.5,92.5C 359.5,92.5 352.5,92.5 345.5,92.5C 345.167,92.5 344.833,92.5 344.5,92.5 Z"/></g>
<g><path style="opacity:1" fill="#020302" d="M 414.5,92.5 C 421.5,92.5 428.5,92.5 435.5,92.5C 435.5,107.167 435.5,121.833 435.5,136.5C 428.5,136.5 421.5,136.5 414.5,136.5C 414.5,121.833 414.5,107.167 414.5,92.5 Z"/></g>
<g><path style="opacity:1" fill="#402b24" d="M 414.5,92.5 C 414.5,107.167 414.5,121.833 414.5,136.5C 421.5,136.5 428.5,136.5 435.5,136.5C 435.5,136.833 435.5,137.167 435.5,137.5C 428.167,137.5 420.833,137.5 413.5,137.5C 413.5,122.833 413.5,108.167 413.5,93.5C 413.5,92.8333 413.833,92.5 414.5,92.5 Z"/></g>
<g><path style="opacity:1" fill="#0f1301" d="M 345.5,92.5 C 352.5,92.5 359.5,92.5 366.5,92.5C 367.15,107.538 366.483,122.205 364.5,136.5C 364.5,122.167 364.5,107.833 364.5,93.5C 357.978,93.8235 351.645,93.4902 345.5,92.5 Z"/></g>
<g><path style="opacity:1" fill="#7e7d7c" d="M 344.5,137.5 C 352.167,137.5 359.833,137.5 367.5,137.5C 367.5,137.833 367.5,138.167 367.5,138.5C 367.5,152.833 367.5,167.167 367.5,181.5C 374.833,181.5 382.167,181.5 389.5,181.5C 389.833,181.5 390.167,181.5 390.5,181.5C 390.5,181.833 390.5,182.167 390.5,182.5C 390.5,183.167 390.5,183.833 390.5,184.5C 390.5,191.5 390.5,198.5 390.5,205.5C 444.003,205.168 497.336,205.501 550.5,206.5C 550.5,214.167 550.5,221.833 550.5,229.5C 543.167,229.5 535.833,229.5 528.5,229.5C 528.5,231.833 528.5,234.167 528.5,236.5C 528.5,241.5 528.5,246.5 528.5,251.5C 535.5,251.5 542.5,251.5 549.5,251.5C 542.5,252.167 535.5,252.833 528.5,253.5C 528.167,253.5 527.833,253.5 527.5,253.5C 527.167,253.5 526.833,253.5 526.5,253.5C 519.5,253.5 512.5,253.5 505.5,253.5C 505.5,260.5 505.5,267.5 505.5,274.5C 505.5,274.833 505.5,275.167 505.5,275.5C 505.167,275.5 504.833,275.5 504.5,275.5C 504.167,275.5 503.833,275.5 503.5,275.5C 496.5,275.5 489.5,275.5 482.5,275.5C 482.5,282.5 482.5,289.5 482.5,296.5C 482.5,296.833 482.5,297.167 482.5,297.5C 474.5,297.5 466.5,297.5 458.5,297.5C 458.5,289.833 458.5,282.167 458.5,274.5C 466.167,274.5 473.833,274.5 481.5,274.5C 481.5,267.167 481.5,259.833 481.5,252.5C 489.167,252.5 496.833,252.5 504.5,252.5C 504.5,244.833 504.5,237.167 504.5,229.5C 466.5,229.5 428.5,229.5 390.5,229.5C 390.5,222.167 390.5,214.833 390.5,207.5C 382.167,207.5 373.833,207.5 365.5,207.5C 365.5,199.167 365.5,190.833 365.5,182.5C 358.5,182.5 351.5,182.5 344.5,182.5C 344.5,167.5 344.5,152.5 344.5,137.5 Z"/></g>
<g><path style="opacity:1" fill="#9a9a99" d="M 390.5,137.5 C 398.087,137.186 405.587,137.519 413,138.5C 413.828,153.339 413.661,168.006 412.5,182.5C 405.167,182.5 397.833,182.5 390.5,182.5C 390.5,182.167 390.5,181.833 390.5,181.5C 390.5,166.833 390.5,152.167 390.5,137.5 Z"/></g>
<g><path style="opacity:1" fill="#63690b" d="M 367.5,138.5 C 367.5,138.167 367.5,137.833 367.5,137.5C 374.833,137.5 382.167,137.5 389.5,137.5C 389.833,137.5 390.167,137.5 390.5,137.5C 390.5,152.167 390.5,166.833 390.5,181.5C 390.167,181.5 389.833,181.5 389.5,181.5C 389.5,167.167 389.5,152.833 389.5,138.5C 382.167,138.5 374.833,138.5 367.5,138.5 Z"/></g>
<g><path style="opacity:1" fill="#010100" d="M 458.5,138.5 C 458.5,153.5 458.5,168.5 458.5,183.5C 458.611,184.117 458.944,184.617 459.5,185C 466.524,185.169 473.524,185.669 480.5,186.5C 476.415,189.743 476.582,192.743 481,195.5C 482.054,194.518 482.554,193.351 482.5,192C 483.448,191.517 484.448,191.351 485.5,191.5C 485.22,188.612 486.553,187.112 489.5,187C 539.499,186.5 589.499,186.333 639.5,186.5C 639.666,193.508 639.5,200.508 639,207.5C 635.783,210.38 632.95,213.547 630.5,217C 631.292,218.96 632.625,220.46 634.5,221.5C 635.938,219.002 635.604,216.836 633.5,215C 634.784,214.316 635.951,214.483 637,215.5C 638.935,218.907 639.768,222.574 639.5,226.5C 633.5,226.5 627.5,226.5 621.5,226.5C 622.128,219.087 621.461,212.087 619.5,205.5C 603.991,205.17 588.658,205.504 573.5,206.5C 572.833,206.5 572.5,206.833 572.5,207.5C 570.544,213.412 569.877,219.745 570.5,226.5C 564.5,226.5 558.5,226.5 552.5,226.5C 552.375,220.797 552.708,215.13 553.5,209.5C 558.833,209.167 558.833,208.833 553.5,208.5C 553.5,207.167 553.5,205.833 553.5,204.5C 499.863,203.513 446.196,203.18 392.5,203.5C 392.5,197.833 392.5,192.167 392.5,186.5C 399.346,186.182 406.013,185.515 412.5,184.5C 412.833,184.5 413.167,184.5 413.5,184.5C 421.167,184.5 428.833,184.5 436.5,184.5C 436.5,169.167 436.5,153.833 436.5,138.5C 443.833,138.5 451.167,138.5 458.5,138.5 Z"/></g>
<g><path style="opacity:1" fill="#151413" d="M 184.5,137.5 C 191.833,137.5 199.167,137.5 206.5,137.5C 206.5,152.167 206.5,166.833 206.5,181.5C 200.167,181.5 193.833,181.5 187.5,181.5C 192.975,180.511 198.642,180.178 204.5,180.5C 204.5,166.833 204.5,153.167 204.5,139.5C 198.5,139.5 192.5,139.5 186.5,139.5C 186.5,153.5 186.5,167.5 186.5,181.5C 184.517,167.205 183.85,152.538 184.5,137.5 Z"/></g>
<g><path style="opacity:1" fill="#000000" d="M 187.5,181.5 C 187.167,181.5 186.833,181.5 186.5,181.5C 186.5,167.5 186.5,153.5 186.5,139.5C 192.5,139.5 198.5,139.5 204.5,139.5C 204.5,153.167 204.5,166.833 204.5,180.5C 198.642,180.178 192.975,180.511 187.5,181.5 Z"/></g>
<g><path style="opacity:1" fill="#111204" d="M 367.5,138.5 C 374.833,138.5 382.167,138.5 389.5,138.5C 389.5,152.833 389.5,167.167 389.5,181.5C 382.167,181.5 374.833,181.5 367.5,181.5C 367.5,167.167 367.5,152.833 367.5,138.5 Z"/></g>
<g><path style="opacity:1" fill="#000101" d="M 369.5,139.5 C 375.5,139.5 381.5,139.5 387.5,139.5C 387.5,153.167 387.5,166.833 387.5,180.5C 381.5,180.5 375.5,180.5 369.5,180.5C 369.5,166.833 369.5,153.167 369.5,139.5 Z"/></g>
<g><path style="opacity:0.292" fill="#c1c1c2" d="M 458.5,137.5 C 459.496,152.324 459.829,167.324 459.5,182.5C 520.5,182.5 581.5,182.5 642.5,182.5C 642.5,182.833 642.5,183.167 642.5,183.5C 642.167,183.5 641.833,183.5 641.5,183.5C 580.5,183.5 519.5,183.5 458.5,183.5C 458.5,168.5 458.5,153.5 458.5,138.5C 458.5,138.167 458.5,137.833 458.5,137.5 Z"/></g>
<g><path style="opacity:1" fill="#5f651d" d="M 390.5,182.5 C 397.833,182.5 405.167,182.5 412.5,182.5C 412.833,183.167 413.167,183.833 413.5,184.5C 413.167,184.5 412.833,184.5 412.5,184.5C 405.167,184.5 397.833,184.5 390.5,184.5C 390.5,183.833 390.5,183.167 390.5,182.5 Z"/></g>
<g><path style="opacity:1" fill="#727272" d="M 0.5,183.5 C 0.833333,183.5 1.16667,183.5 1.5,183.5C 1.5,198.5 1.5,213.5 1.5,228.5C 8.83333,228.5 16.1667,228.5 23.5,228.5C 23.5,228.833 23.5,229.167 23.5,229.5C 16.1667,229.5 8.83333,229.5 1.5,229.5C 0.833333,227.5 0.166667,225.5 -0.5,223.5C -0.5,223.167 -0.5,222.833 -0.5,222.5C 0.833333,221.833 0.833333,221.167 -0.5,220.5C -0.5,220.167 -0.5,219.833 -0.5,219.5C 0.495077,207.678 0.82841,195.678 0.5,183.5 Z"/></g>
<g><path style="opacity:1" fill="#191818" d="M 458.5,183.5 C 519.5,183.5 580.5,183.5 641.5,183.5C 641.5,198.5 641.5,213.5 641.5,228.5C 634.167,228.5 626.833,228.5 619.5,228.5C 619.5,220.833 619.5,213.167 619.5,205.5C 621.461,212.087 622.128,219.087 621.5,226.5C 627.5,226.5 633.5,226.5 639.5,226.5C 639.768,222.574 638.935,218.907 637,215.5C 635.951,214.483 634.784,214.316 633.5,215C 635.604,216.836 635.938,219.002 634.5,221.5C 632.625,220.46 631.292,218.96 630.5,217C 632.95,213.547 635.783,210.38 639,207.5C 639.5,200.508 639.666,193.508 639.5,186.5C 589.499,186.333 539.499,186.5 489.5,187C 486.553,187.112 485.22,188.612 485.5,191.5C 484.448,191.351 483.448,191.517 482.5,192C 482.554,193.351 482.054,194.518 481,195.5C 476.582,192.743 476.415,189.743 480.5,186.5C 473.524,185.669 466.524,185.169 459.5,185C 458.944,184.617 458.611,184.117 458.5,183.5 Z"/></g>
<g><path style="opacity:1" fill="#000000" d="M 181.5,186.5 C 181.5,192.167 181.5,197.833 181.5,203.5C 159.5,203.5 137.5,203.5 115.5,203.5C 121.739,198.759 126.739,192.925 130.5,186C 147.672,185.172 164.672,185.338 181.5,186.5 Z"/></g>
<g><path style="opacity:1" fill="#717170" d="M 641.5,183.5 C 641.833,183.5 642.167,183.5 642.5,183.5C 642.5,198.833 642.5,214.167 642.5,229.5C 642.167,229.5 641.833,229.5 641.5,229.5C 634.167,229.5 626.833,229.5 619.5,229.5C 619.5,229.167 619.5,228.833 619.5,228.5C 626.833,228.5 634.167,228.5 641.5,228.5C 641.5,213.5 641.5,198.5 641.5,183.5 Z"/></g>
<g><path style="opacity:1" fill="#0c0d01" d="M 183.5,184.5 C 183.5,191.5 183.5,198.5 183.5,205.5C 130.167,205.5 76.8333,205.5 23.5,205.5C 23.5,212.833 23.5,220.167 23.5,227.5C 21.5159,227.516 20.5159,226.516 20.5,224.5C 21.5689,219.2 21.7356,213.866 21,208.5C 20.237,211.063 19.737,211.063 19.5,208.5C 20.8214,206.668 21.8214,204.668 22.5,202.5C 25.2163,201.799 27.5496,200.465 29.5,198.5C 29.7035,200.39 29.0368,201.89 27.5,203C 55.1647,203.5 82.8313,203.667 110.5,203.5C 112.167,203.5 113.833,203.5 115.5,203.5C 137.5,203.5 159.5,203.5 181.5,203.5C 181.5,197.833 181.5,192.167 181.5,186.5C 182.167,185.833 182.833,185.167 183.5,184.5 Z"/></g>
<g><path style="opacity:1" fill="#0e0e03" d="M 390.5,184.5 C 397.833,184.5 405.167,184.5 412.5,184.5C 406.013,185.515 399.346,186.182 392.5,186.5C 392.5,192.167 392.5,197.833 392.5,203.5C 446.196,203.18 499.863,203.513 553.5,204.5C 553.5,205.833 553.5,207.167 553.5,208.5C 558.833,208.833 558.833,209.167 553.5,209.5C 552.708,215.13 552.375,220.797 552.5,226.5C 558.5,226.5 564.5,226.5 570.5,226.5C 569.877,219.745 570.544,213.412 572.5,207.5C 572.5,214.5 572.5,221.5 572.5,228.5C 565.5,228.5 558.5,228.5 551.5,228.5C 551.825,220.981 551.492,213.648 550.5,206.5C 497.336,205.501 444.003,205.168 390.5,205.5C 390.5,198.5 390.5,191.5 390.5,184.5 Z"/></g>
<g><path style="opacity:1" fill="#7e7e7c" d="M 181.5,206.5 C 182.464,213.746 182.797,221.08 182.5,228.5C 180.167,228.5 177.833,228.5 175.5,228.5C 140.196,227.353 104.863,227.186 69.5,228C 68.5495,231.057 68.2161,234.223 68.5,237.5C 68.5,238.5 68.5,239.5 68.5,240.5C 68.5,244.167 68.5,247.833 68.5,251.5C 61.5,251.5 54.5,251.5 47.5,251.5C 47.825,243.981 47.4916,236.648 46.5,229.5C 39.3524,228.508 32.0191,228.175 24.5,228.5C 24.5,221.167 24.5,213.833 24.5,206.5C 76.8333,206.5 129.167,206.5 181.5,206.5 Z"/></g>
<g><path style="opacity:1" fill="#9c9b98" d="M 573.5,206.5 C 581.167,206.5 588.833,206.5 596.5,206.5C 596.666,213.841 596.5,221.174 596,228.5C 588.921,229.48 581.755,229.813 574.5,229.5C 574.167,229.5 573.833,229.5 573.5,229.5C 573.5,221.833 573.5,214.167 573.5,206.5 Z"/></g>
<g><path style="opacity:1" fill="#685839" d="M 573.5,206.5 C 588.658,205.504 603.991,205.17 619.5,205.5C 619.5,213.167 619.5,220.833 619.5,228.5C 619.5,228.833 619.5,229.167 619.5,229.5C 619.167,229.5 618.833,229.5 618.5,229.5C 611.5,229.5 604.5,229.5 597.5,229.5C 604.313,228.509 611.313,228.175 618.5,228.5C 618.5,221.167 618.5,213.833 618.5,206.5C 611.167,206.5 603.833,206.5 596.5,206.5C 588.833,206.5 581.167,206.5 573.5,206.5 Z"/></g>
<g><path style="opacity:1" fill="#161716" d="M 1.5,183.5 C 62.3356,183.168 123.002,183.501 183.5,184.5C 182.833,185.167 182.167,185.833 181.5,186.5C 164.672,185.338 147.672,185.172 130.5,186C 126.739,192.925 121.739,198.759 115.5,203.5C 113.833,203.5 112.167,203.5 110.5,203.5C 109.314,201.806 109.481,200.139 111,198.5C 115.345,194.655 119.512,190.655 123.5,186.5C 83.5056,185.5 43.5056,185.167 3.5,185.5C 3.33351,195.839 3.50017,206.172 4,216.5C 10.76,209.562 17.26,203.228 23.5,197.5C 24.325,196.614 25.325,196.281 26.5,196.5C 27.6144,191.371 28.281,191.371 28.5,196.5C 29.9778,196.238 31.3112,196.571 32.5,197.5C 31.675,198.386 30.675,198.719 29.5,198.5C 27.5496,200.465 25.2163,201.799 22.5,202.5C 21.8214,204.668 20.8214,206.668 19.5,208.5C 19.737,211.063 20.237,211.063 21,208.5C 21.7356,213.866 21.5689,219.2 20.5,224.5C 20.5159,226.516 21.5159,227.516 23.5,227.5C 23.5,227.833 23.5,228.167 23.5,228.5C 16.1667,228.5 8.83333,228.5 1.5,228.5C 1.5,213.5 1.5,198.5 1.5,183.5 Z"/></g>
<g><path style="opacity:1" fill="#000100" d="M 110.5,203.5 C 82.8313,203.667 55.1647,203.5 27.5,203C 29.0368,201.89 29.7035,200.39 29.5,198.5C 30.675,198.719 31.675,198.386 32.5,197.5C 31.3112,196.571 29.9778,196.238 28.5,196.5C 28.281,191.371 27.6144,191.371 26.5,196.5C 25.325,196.281 24.325,196.614 23.5,197.5C 17.26,203.228 10.76,209.562 4,216.5C 3.50017,206.172 3.33351,195.839 3.5,185.5C 43.5056,185.167 83.5056,185.5 123.5,186.5C 119.512,190.655 115.345,194.655 111,198.5C 109.481,200.139 109.314,201.806 110.5,203.5 Z"/></g>
<g><path style="opacity:1" fill="#a69a66" d="M 181.5,206.5 C 182.167,206.5 182.833,206.5 183.5,206.5C 183.833,206.5 184.167,206.5 184.5,206.5C 183.864,213.933 183.198,221.266 182.5,228.5C 182.797,221.08 182.464,213.746 181.5,206.5 Z"/></g>
<g><path style="opacity:1" fill="#a09266" d="M 175.5,228.5 C 140.707,228.365 105.707,228.532 70.5,229C 69.8719,231.939 69.2052,234.772 68.5,237.5C 68.2161,234.223 68.5495,231.057 69.5,228C 104.863,227.186 140.196,227.353 175.5,228.5 Z"/></g>
<g><path style="opacity:1" fill="#7e7144" d="M 183.5,205.5 C 183.5,205.833 183.5,206.167 183.5,206.5C 182.833,206.5 182.167,206.5 181.5,206.5C 129.167,206.5 76.8333,206.5 24.5,206.5C 24.5,213.833 24.5,221.167 24.5,228.5C 32.0191,228.175 39.3524,228.508 46.5,229.5C 39.1667,229.5 31.8333,229.5 24.5,229.5C 24.1667,229.5 23.8333,229.5 23.5,229.5C 23.5,229.167 23.5,228.833 23.5,228.5C 23.5,228.167 23.5,227.833 23.5,227.5C 23.5,220.167 23.5,212.833 23.5,205.5C 76.8333,205.5 130.167,205.5 183.5,205.5 Z"/></g>
<g><path style="opacity:1" fill="#5b5a01" d="M 550.5,206.5 C 551.492,213.648 551.825,220.981 551.5,228.5C 558.5,228.5 565.5,228.5 572.5,228.5C 572.5,221.5 572.5,214.5 572.5,207.5C 572.5,206.833 572.833,206.5 573.5,206.5C 573.5,214.167 573.5,221.833 573.5,229.5C 565.833,229.5 558.167,229.5 550.5,229.5C 550.5,221.833 550.5,214.167 550.5,206.5 Z"/></g>
<g><path style="opacity:0.061" fill="#e2e4e5" d="M 1.5,229.5 C 8.83333,229.5 16.1667,229.5 23.5,229.5C 23.5,230.167 23.5,230.833 23.5,231.5C 16.067,230.864 8.73362,230.198 1.5,229.5 Z"/></g>
<g><path style="opacity:1" fill="#3e3a04" d="M 550.5,229.5 C 550.825,237.019 550.492,244.352 549.5,251.5C 549.5,244.5 549.5,237.5 549.5,230.5C 542.809,230.454 536.143,230.788 529.5,231.5C 529.784,233.415 529.451,235.081 528.5,236.5C 528.5,234.167 528.5,231.833 528.5,229.5C 535.833,229.5 543.167,229.5 550.5,229.5 Z"/></g>
<g><path style="opacity:1" fill="#5a5a58" d="M 596.5,206.5 C 603.833,206.5 611.167,206.5 618.5,206.5C 618.5,213.833 618.5,221.167 618.5,228.5C 611.313,228.175 604.313,228.509 597.5,229.5C 596.508,236.648 596.175,243.981 596.5,251.5C 589.167,251.5 581.833,251.5 574.5,251.5C 574.5,244.167 574.5,236.833 574.5,229.5C 581.755,229.813 588.921,229.48 596,228.5C 596.5,221.174 596.666,213.841 596.5,206.5 Z"/></g>
<g><path style="opacity:1" fill="#040300" d="M 549.5,251.5 C 542.5,251.5 535.5,251.5 528.5,251.5C 528.5,246.5 528.5,241.5 528.5,236.5C 529.451,235.081 529.784,233.415 529.5,231.5C 536.143,230.788 542.809,230.454 549.5,230.5C 549.5,237.5 549.5,244.5 549.5,251.5 Z"/></g>
<g><path style="opacity:1" fill="#452104" d="M 597.5,229.5 C 604.5,229.5 611.5,229.5 618.5,229.5C 618.5,229.833 618.5,230.167 618.5,230.5C 611.5,230.5 604.5,230.5 597.5,230.5C 597.5,237.5 597.5,244.5 597.5,251.5C 597.167,251.5 596.833,251.5 596.5,251.5C 596.175,243.981 596.508,236.648 597.5,229.5 Z"/></g>
<g><path style="opacity:1" fill="#040302" d="M 618.5,230.5 C 618.5,237.5 618.5,244.5 618.5,251.5C 611.5,251.5 604.5,251.5 597.5,251.5C 597.5,244.5 597.5,237.5 597.5,230.5C 604.5,230.5 611.5,230.5 618.5,230.5 Z"/></g>
<g><path style="opacity:0.031" fill="#e8e7e8" d="M 619.5,229.5 C 626.833,229.5 634.167,229.5 641.5,229.5C 634.687,230.491 627.687,230.825 620.5,230.5C 620.825,237.687 620.491,244.687 619.5,251.5C 619.5,244.167 619.5,236.833 619.5,229.5 Z"/></g>
<g><path style="opacity:1" fill="#030302" d="M 24.5,230.5 C 31.5,230.5 38.5,230.5 45.5,230.5C 45.5,237.5 45.5,244.5 45.5,251.5C 45.5,244.5 45.5,237.5 45.5,230.5C 38.5,230.5 31.5,230.5 24.5,230.5 Z"/></g>
<g><path style="opacity:1" fill="#352b00" d="M 24.5,230.5 C 24.5,230.167 24.5,229.833 24.5,229.5C 31.8333,229.5 39.1667,229.5 46.5,229.5C 46.5,236.833 46.5,244.167 46.5,251.5C 46.1667,251.5 45.8333,251.5 45.5,251.5C 45.5,244.5 45.5,237.5 45.5,230.5C 38.5,230.5 31.5,230.5 24.5,230.5 Z"/></g>
<g><path style="opacity:0.971" fill="#777676" d="M 23.5,229.5 C 23.8333,229.5 24.1667,229.5 24.5,229.5C 24.5,229.833 24.5,230.167 24.5,230.5C 24.5,237.5 24.5,244.5 24.5,251.5C 31.5,251.5 38.5,251.5 45.5,251.5C 45.8333,251.5 46.1667,251.5 46.5,251.5C 46.5,251.833 46.5,252.167 46.5,252.5C 45.5,252.5 44.5,252.5 43.5,252.5C 36.8333,252.5 30.1667,252.5 23.5,252.5C 23.5,245.5 23.5,238.5 23.5,231.5C 23.5,230.833 23.5,230.167 23.5,229.5 Z"/></g>
<g><path style="opacity:1" fill="#918861" d="M 46.5,229.5 C 47.4916,236.648 47.825,243.981 47.5,251.5C 54.5,251.5 61.5,251.5 68.5,251.5C 68.5,247.833 68.5,244.167 68.5,240.5C 69.1955,244.231 69.8622,248.065 70.5,252C 77.9048,251.865 84.9048,252.698 91.5,254.5C 84.5878,253.538 77.5878,253.205 70.5,253.5C 70.8229,259.69 70.4896,265.69 69.5,271.5C 69.5,265.167 69.5,258.833 69.5,252.5C 62.8333,252.5 56.1667,252.5 49.5,252.5C 48.8333,252.5 48.1667,252.5 47.5,252.5C 47.1667,252.5 46.8333,252.5 46.5,252.5C 46.5,252.167 46.5,251.833 46.5,251.5C 46.5,244.167 46.5,236.833 46.5,229.5 Z"/></g>
<g><path style="opacity:0.994" fill="#767576" d="M 618.5,229.5 C 618.833,229.5 619.167,229.5 619.5,229.5C 619.5,236.833 619.5,244.167 619.5,251.5C 614.433,252.188 609.267,252.855 604,253.5C 602.989,252.663 601.822,252.33 600.5,252.5C 599.167,252.5 597.833,252.5 596.5,252.5C 596.5,252.167 596.5,251.833 596.5,251.5C 596.833,251.5 597.167,251.5 597.5,251.5C 604.5,251.5 611.5,251.5 618.5,251.5C 618.5,244.5 618.5,237.5 618.5,230.5C 618.5,230.167 618.5,229.833 618.5,229.5 Z"/></g>
<g><path style="opacity:1" fill="#9b9a99" d="M 550.5,229.5 C 558.167,229.5 565.833,229.5 573.5,229.5C 573.5,237.167 573.5,244.833 573.5,252.5C 565.833,252.5 558.167,252.5 550.5,252.5C 550.5,253.833 550.5,255.167 550.5,256.5C 550.823,262.69 550.49,268.69 549.5,274.5C 542.5,274.5 535.5,274.5 528.5,274.5C 528.5,267.5 528.5,260.5 528.5,253.5C 535.5,252.833 542.5,252.167 549.5,251.5C 550.492,244.352 550.825,237.019 550.5,229.5 Z"/></g>
<g><path style="opacity:1" fill="#595a58" d="M 573.5,252.5 C 573.5,259.833 573.5,267.167 573.5,274.5C 566.167,274.5 558.833,274.5 551.5,274.5C 551.823,268.31 551.49,262.31 550.5,256.5C 550.5,255.167 550.5,253.833 550.5,252.5C 558.167,252.5 565.833,252.5 573.5,252.5 Z"/></g>
<g><path style="opacity:1" fill="#3a2e08" d="M 49.5,252.5 C 56.1667,252.5 62.8333,252.5 69.5,252.5C 69.5,258.833 69.5,265.167 69.5,271.5C 69.5,272.5 69.5,273.5 69.5,274.5C 69.1667,274.5 68.8333,274.5 68.5,274.5C 68.5,267.5 68.5,260.5 68.5,253.5C 61.9779,253.823 55.6446,253.49 49.5,252.5 Z"/></g>
<g><path style="opacity:1" fill="#7e7e7c" d="M 91.5,254.5 C 91.5,254.833 91.5,255.167 91.5,255.5C 91.2428,261.043 91.2428,266.376 91.5,271.5C 91.5,272.5 91.5,273.5 91.5,274.5C 84.1667,274.5 76.8333,274.5 69.5,274.5C 69.5,273.5 69.5,272.5 69.5,271.5C 70.4896,265.69 70.8229,259.69 70.5,253.5C 77.5878,253.205 84.5878,253.538 91.5,254.5 Z"/></g>
<g><path style="opacity:1" fill="#030201" d="M 526.5,253.5 C 526.5,260.5 526.5,267.5 526.5,274.5C 519.5,274.5 512.5,274.5 505.5,274.5C 505.5,267.5 505.5,260.5 505.5,253.5C 512.5,253.5 519.5,253.5 526.5,253.5 Z"/></g>
<g><path style="opacity:0.124" fill="#dcdede" d="M 596.5,252.5 C 597.833,252.5 599.167,252.5 600.5,252.5C 599.791,253.404 598.791,253.737 597.5,253.5C 597.825,261.019 597.492,268.352 596.5,275.5C 596.5,267.833 596.5,260.167 596.5,252.5 Z"/></g>
<g><path style="opacity:1" fill="#080606" d="M 47.5,252.5 C 48.1667,252.5 48.8333,252.5 49.5,252.5C 55.6446,253.49 61.9779,253.823 68.5,253.5C 68.5,260.5 68.5,267.5 68.5,274.5C 61.5,274.5 54.5,274.5 47.5,274.5C 47.5,267.167 47.5,259.833 47.5,252.5 Z"/></g>
<g><path style="opacity:1" fill="#b0a365" d="M 91.5,255.5 C 92.7016,260.689 92.7016,266.023 91.5,271.5C 91.2428,266.376 91.2428,261.043 91.5,255.5 Z"/></g>
<g><path style="opacity:0.019" fill="#e8e9ec" d="M 43.5,252.5 C 44.5,252.5 45.5,252.5 46.5,252.5C 46.5,259.833 46.5,267.167 46.5,274.5C 46.095,267.077 45.095,259.743 43.5,252.5 Z"/></g>
<g><path style="opacity:1" fill="#757475" d="M 46.5,252.5 C 46.8333,252.5 47.1667,252.5 47.5,252.5C 47.5,259.833 47.5,267.167 47.5,274.5C 54.5,274.5 61.5,274.5 68.5,274.5C 68.8333,274.5 69.1667,274.5 69.5,274.5C 69.5,274.833 69.5,275.167 69.5,275.5C 69.1667,275.5 68.8333,275.5 68.5,275.5C 60.9809,275.825 53.6476,275.492 46.5,274.5C 46.5,267.167 46.5,259.833 46.5,252.5 Z"/></g>
<g><path style="opacity:1" fill="#726632" d="M 91.5,271.5 C 92.3446,272.671 93.0113,274.005 93.5,275.5C 92.5088,282.313 92.1755,289.313 92.5,296.5C 92.5,296.833 92.5,297.167 92.5,297.5C 92.1667,297.5 91.8333,297.5 91.5,297.5C 91.5,290.167 91.5,282.833 91.5,275.5C 84.5,275.5 77.5,275.5 70.5,275.5C 70.1667,275.5 69.8333,275.5 69.5,275.5C 69.5,275.167 69.5,274.833 69.5,274.5C 76.8333,274.5 84.1667,274.5 91.5,274.5C 91.5,273.5 91.5,272.5 91.5,271.5 Z"/></g>
<g><path style="opacity:1" fill="#626301" d="M 526.5,253.5 C 526.833,253.5 527.167,253.5 527.5,253.5C 527.5,260.833 527.5,268.167 527.5,275.5C 520.167,275.5 512.833,275.5 505.5,275.5C 505.5,275.167 505.5,274.833 505.5,274.5C 512.5,274.5 519.5,274.5 526.5,274.5C 526.5,267.5 526.5,260.5 526.5,253.5 Z"/></g>
<g><path style="opacity:1" fill="#6a5848" d="M 573.5,229.5 C 573.833,229.5 574.167,229.5 574.5,229.5C 574.5,236.833 574.5,244.167 574.5,251.5C 581.833,251.5 589.167,251.5 596.5,251.5C 596.5,251.833 596.5,252.167 596.5,252.5C 596.5,260.167 596.5,267.833 596.5,275.5C 589.167,275.5 581.833,275.5 574.5,275.5C 573.833,282.833 573.167,290.167 572.5,297.5C 572.5,290.167 572.5,282.833 572.5,275.5C 565.5,275.5 558.5,275.5 551.5,275.5C 551.5,282.833 551.5,290.167 551.5,297.5C 551.167,297.5 550.833,297.5 550.5,297.5C 550.797,290.08 550.464,282.746 549.5,275.5C 549.5,275.167 549.5,274.833 549.5,274.5C 550.49,268.69 550.823,262.69 550.5,256.5C 551.49,262.31 551.823,268.31 551.5,274.5C 558.833,274.5 566.167,274.5 573.5,274.5C 573.5,267.167 573.5,259.833 573.5,252.5C 573.5,244.833 573.5,237.167 573.5,229.5 Z"/></g>
<g><path style="opacity:1" fill="#0d0b09" d="M 574.5,252.5 C 581.5,252.5 588.5,252.5 595.5,252.5C 595.5,259.833 595.5,267.167 595.5,274.5C 588.5,274.5 581.5,274.5 574.5,274.5C 574.5,267.167 574.5,259.833 574.5,252.5 Z"/></g>
<g><path style="opacity:1" fill="#5b5957" d="M 549.5,275.5 C 550.464,282.746 550.797,290.08 550.5,297.5C 550.5,305.167 550.5,312.833 550.5,320.5C 550.167,320.5 549.833,320.5 549.5,320.5C 549.5,320.167 549.5,319.833 549.5,319.5C 549.5,312.5 549.5,305.5 549.5,298.5C 542.5,298.5 535.5,298.5 528.5,298.5C 528.5,290.833 528.5,283.167 528.5,275.5C 535.5,275.5 542.5,275.5 549.5,275.5 Z"/></g>
<g><path style="opacity:1" fill="#050504" d="M 70.5,275.5 C 77.5,275.5 84.5,275.5 91.5,275.5C 91.5,282.833 91.5,290.167 91.5,297.5C 84.5,297.5 77.5,297.5 70.5,297.5C 70.5,290.167 70.5,282.833 70.5,275.5 Z"/></g>
<g><path style="opacity:1" fill="#7e7e7c" d="M 93.5,275.5 C 93.8333,275.5 94.1667,275.5 94.5,275.5C 100.901,276.184 107.401,276.85 114,277.5C 114.5,284.158 114.666,290.825 114.5,297.5C 107.08,297.797 99.7463,297.464 92.5,296.5C 92.1755,289.313 92.5088,282.313 93.5,275.5 Z"/></g>
<g><path style="opacity:1" fill="#030402" d="M 503.5,275.5 C 503.5,282.5 503.5,289.5 503.5,296.5C 496.5,296.5 489.5,296.5 482.5,296.5C 482.5,289.5 482.5,282.5 482.5,275.5C 489.5,275.5 496.5,275.5 503.5,275.5 Z"/></g>
<g><path style="opacity:1" fill="#070605" d="M 572.5,297.5 C 565.5,297.5 558.5,297.5 551.5,297.5C 551.5,290.167 551.5,282.833 551.5,275.5C 558.5,275.5 565.5,275.5 572.5,275.5C 572.5,282.833 572.5,290.167 572.5,297.5 Z"/></g>
<g><path style="opacity:1" fill="#26260d" d="M 503.5,275.5 C 503.833,275.5 504.167,275.5 504.5,275.5C 504.5,282.833 504.5,290.167 504.5,297.5C 497.167,297.5 489.833,297.5 482.5,297.5C 482.5,297.167 482.5,296.833 482.5,296.5C 489.5,296.5 496.5,296.5 503.5,296.5C 503.5,289.5 503.5,282.5 503.5,275.5 Z"/></g>
<g><path style="opacity:0.608" fill="#a1a2a2" d="M 68.5,275.5 C 68.8333,275.5 69.1667,275.5 69.5,275.5C 69.8333,275.5 70.1667,275.5 70.5,275.5C 70.5,282.833 70.5,290.167 70.5,297.5C 77.5,297.5 84.5,297.5 91.5,297.5C 91.8333,297.5 92.1667,297.5 92.5,297.5C 92.5,298.167 92.8333,298.5 93.5,298.5C 93.5,305.833 93.5,313.167 93.5,320.5C 100.5,320.5 107.5,320.5 114.5,320.5C 114.5,320.833 114.5,321.167 114.5,321.5C 107.159,321.666 99.8258,321.5 92.5,321C 91.5192,313.587 91.1858,306.087 91.5,298.5C 84.1591,298.666 76.8258,298.5 69.5,298C 68.5192,290.587 68.1858,283.087 68.5,275.5 Z"/></g>
<g><path style="opacity:1" fill="#999137" d="M 457.5,298.5 C 457.5,297.833 457.833,297.5 458.5,297.5C 466.5,297.5 474.5,297.5 482.5,297.5C 489.833,297.5 497.167,297.5 504.5,297.5C 504.5,297.833 504.5,298.167 504.5,298.5C 497.167,298.5 489.833,298.5 482.5,298.5C 482.5,305.833 482.5,313.167 482.5,320.5C 482.167,320.5 481.833,320.5 481.5,320.5C 482.13,312.757 481.463,305.424 479.5,298.5C 473.167,298.5 466.833,298.5 460.5,298.5C 459.662,298.842 459.328,299.508 459.5,300.5C 459.167,300.5 458.833,300.5 458.5,300.5C 458.672,299.508 458.338,298.842 457.5,298.5 Z"/></g>
<g><path style="opacity:1" fill="#978e6d" d="M 527.5,253.5 C 527.833,253.5 528.167,253.5 528.5,253.5C 528.5,260.5 528.5,267.5 528.5,274.5C 535.5,274.5 542.5,274.5 549.5,274.5C 549.5,274.833 549.5,275.167 549.5,275.5C 542.5,275.5 535.5,275.5 528.5,275.5C 528.5,283.167 528.5,290.833 528.5,298.5C 528.167,298.5 527.833,298.5 527.5,298.5C 520.167,298.5 512.833,298.5 505.5,298.5C 505.825,306.019 505.492,313.352 504.5,320.5C 504.5,313.167 504.5,305.833 504.5,298.5C 504.5,298.167 504.5,297.833 504.5,297.5C 504.5,290.167 504.5,282.833 504.5,275.5C 504.833,275.5 505.167,275.5 505.5,275.5C 505.5,282.833 505.5,290.167 505.5,297.5C 512.833,297.5 520.167,297.5 527.5,297.5C 527.5,290.167 527.5,282.833 527.5,275.5C 527.5,268.167 527.5,260.833 527.5,253.5 Z"/></g>
<g><path style="opacity:1" fill="#9b9b99" d="M 505.5,275.5 C 512.833,275.5 520.167,275.5 527.5,275.5C 527.5,282.833 527.5,290.167 527.5,297.5C 520.167,297.5 512.833,297.5 505.5,297.5C 505.5,290.167 505.5,282.833 505.5,275.5 Z"/></g>
<g><path style="opacity:0.572" fill="#bebfbe" d="M 574.5,275.5 C 574.5,283.167 574.5,290.833 574.5,298.5C 566.833,298.5 559.167,298.5 551.5,298.5C 551.825,306.019 551.492,313.352 550.5,320.5C 550.5,312.833 550.5,305.167 550.5,297.5C 550.833,297.5 551.167,297.5 551.5,297.5C 558.5,297.5 565.5,297.5 572.5,297.5C 573.167,290.167 573.833,282.833 574.5,275.5 Z"/></g>
<g><path style="opacity:1" fill="#9b905f" d="M 94.5,275.5 C 101.422,275.188 108.256,275.521 115,276.5C 115.185,283.747 115.685,290.913 116.5,298C 123.492,298.5 130.492,298.666 137.5,298.5C 137.203,305.92 137.536,313.254 138.5,320.5C 137.833,320.5 137.167,320.5 136.5,320.5C 136.5,313.5 136.5,306.5 136.5,299.5C 129.5,299.5 122.5,299.5 115.5,299.5C 115.5,298.833 115.167,298.5 114.5,298.5C 107.5,298.5 100.5,298.5 93.5,298.5C 92.8333,298.5 92.5,298.167 92.5,297.5C 92.5,297.167 92.5,296.833 92.5,296.5C 99.7463,297.464 107.08,297.797 114.5,297.5C 114.666,290.825 114.5,284.158 114,277.5C 107.401,276.85 100.901,276.184 94.5,275.5 Z"/></g>
<g><path style="opacity:1" fill="#9b9b99" d="M 504.5,298.5 C 504.5,305.833 504.5,313.167 504.5,320.5C 497.167,320.5 489.833,320.5 482.5,320.5C 482.5,313.167 482.5,305.833 482.5,298.5C 489.833,298.5 497.167,298.5 504.5,298.5 Z"/></g>
<g><path style="opacity:1" fill="#050503" d="M 528.5,298.5 C 535.5,298.5 542.5,298.5 549.5,298.5C 549.5,305.5 549.5,312.5 549.5,319.5C 542.5,319.5 535.5,319.5 528.5,319.5C 528.5,312.5 528.5,305.5 528.5,298.5 Z"/></g>
<g><path style="opacity:1" fill="#7e7e7c" d="M 115.5,299.5 C 122.5,299.5 129.5,299.5 136.5,299.5C 136.5,306.5 136.5,313.5 136.5,320.5C 129.825,320.666 123.158,320.5 116.5,320C 115.521,313.256 115.188,306.422 115.5,299.5 Z"/></g>
<g><path style="opacity:1" fill="#7e7e7c" d="M 457.5,298.5 C 458.338,298.842 458.672,299.508 458.5,300.5C 458.5,307.167 458.5,313.833 458.5,320.5C 451.5,320.5 444.5,320.5 437.5,320.5C 437.5,313.5 437.5,306.5 437.5,299.5C 444.354,299.824 451.021,299.491 457.5,298.5 Z"/></g>
<g><path style="opacity:1" fill="#080909" d="M 93.5,298.5 C 100.5,298.5 107.5,298.5 114.5,298.5C 114.5,305.833 114.5,313.167 114.5,320.5C 107.5,320.5 100.5,320.5 93.5,320.5C 93.5,313.167 93.5,305.833 93.5,298.5 Z"/></g>
<g><path style="opacity:1" fill="#181602" d="M 460.5,298.5 C 461.418,304.775 461.751,311.108 461.5,317.5C 467.5,317.5 473.5,317.5 479.5,317.5C 479.5,311.167 479.5,304.833 479.5,298.5C 481.463,305.424 482.13,312.757 481.5,320.5C 474.167,320.5 466.833,320.5 459.5,320.5C 459.5,313.833 459.5,307.167 459.5,300.5C 459.328,299.508 459.662,298.842 460.5,298.5 Z"/></g>
<g><path style="opacity:1" fill="#020202" d="M 460.5,298.5 C 466.833,298.5 473.167,298.5 479.5,298.5C 479.5,304.833 479.5,311.167 479.5,317.5C 473.5,317.5 467.5,317.5 461.5,317.5C 461.751,311.108 461.418,304.775 460.5,298.5 Z"/></g>
<g><path style="opacity:1" fill="#3f322b" d="M 527.5,298.5 C 527.833,298.5 528.167,298.5 528.5,298.5C 528.5,305.5 528.5,312.5 528.5,319.5C 535.5,319.5 542.5,319.5 549.5,319.5C 549.5,319.833 549.5,320.167 549.5,320.5C 542.167,320.5 534.833,320.5 527.5,320.5C 527.5,313.167 527.5,305.833 527.5,298.5 Z"/></g>
<g><path style="opacity:1" fill="#6c5f36" d="M 114.5,298.5 C 115.167,298.5 115.5,298.833 115.5,299.5C 115.188,306.422 115.521,313.256 116.5,320C 123.158,320.5 129.825,320.666 136.5,320.5C 137.167,320.5 137.833,320.5 138.5,320.5C 139.167,320.5 139.5,320.833 139.5,321.5C 138.509,328.313 138.175,335.313 138.5,342.5C 138.167,342.5 137.833,342.5 137.5,342.5C 137.5,335.5 137.5,328.5 137.5,321.5C 130.167,321.5 122.833,321.5 115.5,321.5C 115.167,321.5 114.833,321.5 114.5,321.5C 114.5,321.167 114.5,320.833 114.5,320.5C 114.5,313.167 114.5,305.833 114.5,298.5 Z"/></g>
<g><path style="opacity:1" fill="#7d7e7c" d="M 139.5,321.5 C 145.979,322.491 152.646,322.824 159.5,322.5C 160.833,329.167 160.833,335.833 159.5,342.5C 152.5,342.5 145.5,342.5 138.5,342.5C 138.175,335.313 138.509,328.313 139.5,321.5 Z"/></g>
<g><path style="opacity:1" fill="#7d7e7c" d="M 434.5,321.5 C 435.491,328.313 435.825,335.313 435.5,342.5C 428.5,342.5 421.5,342.5 414.5,342.5C 414.5,335.833 414.5,329.167 414.5,322.5C 421.354,322.824 428.021,322.491 434.5,321.5 Z"/></g>
<g><path style="opacity:1" fill="#989155" d="M 457.5,298.5 C 451.021,299.491 444.354,299.824 437.5,299.5C 437.5,306.5 437.5,313.5 437.5,320.5C 444.5,320.5 451.5,320.5 458.5,320.5C 458.5,313.833 458.5,307.167 458.5,300.5C 458.833,300.5 459.167,300.5 459.5,300.5C 459.5,307.167 459.5,313.833 459.5,320.5C 466.833,320.5 474.167,320.5 481.5,320.5C 481.5,320.833 481.5,321.167 481.5,321.5C 474.167,321.5 466.833,321.5 459.5,321.5C 459.5,328.833 459.5,336.167 459.5,343.5C 459.167,343.5 458.833,343.5 458.5,343.5C 458.5,336.167 458.5,328.833 458.5,321.5C 451.167,321.5 443.833,321.5 436.5,321.5C 436.5,320.833 436.167,320.5 435.5,320.5C 436.464,313.254 436.797,305.92 436.5,298.5C 443.5,298.5 450.5,298.5 457.5,298.5 Z"/></g>
<g><path style="opacity:1" fill="#9b9b99" d="M 481.5,321.5 C 481.5,328.833 481.5,336.167 481.5,343.5C 474.167,343.5 466.833,343.5 459.5,343.5C 459.5,336.167 459.5,328.833 459.5,321.5C 466.833,321.5 474.167,321.5 481.5,321.5 Z"/></g>
<g><path style="opacity:1" fill="#0d0b05" d="M 115.5,321.5 C 122.833,321.5 130.167,321.5 137.5,321.5C 137.5,328.5 137.5,335.5 137.5,342.5C 137.5,342.833 137.5,343.167 137.5,343.5C 130.167,343.5 122.833,343.5 115.5,343.5C 115.5,336.167 115.5,328.833 115.5,321.5 Z"/></g>
<g><path style="opacity:1" fill="#191602" d="M 436.5,321.5 C 443.833,321.5 451.167,321.5 458.5,321.5C 458.5,328.833 458.5,336.167 458.5,343.5C 451.167,343.5 443.833,343.5 436.5,343.5C 436.5,336.167 436.5,328.833 436.5,321.5 Z"/></g>
<g><path style="opacity:1" fill="#000100" d="M 438.5,323.5 C 444.5,323.5 450.5,323.5 456.5,323.5C 456.5,329.5 456.5,335.5 456.5,341.5C 450.5,341.5 444.5,341.5 438.5,341.5C 438.5,335.5 438.5,329.5 438.5,323.5 Z"/></g>
<g><path style="opacity:1" fill="#aa9d64" d="M 434.5,321.5 C 428.021,322.491 421.354,322.824 414.5,322.5C 414.5,329.167 414.5,335.833 414.5,342.5C 421.5,342.5 428.5,342.5 435.5,342.5C 435.5,342.833 435.5,343.167 435.5,343.5C 428.167,343.5 420.833,343.5 413.5,343.5C 413.5,336.167 413.5,328.833 413.5,321.5C 420.5,321.5 427.5,321.5 434.5,321.5 Z"/></g>
<g><path style="opacity:1" fill="#908d65" d="M 481.5,320.5 C 481.833,320.5 482.167,320.5 482.5,320.5C 489.833,320.5 497.167,320.5 504.5,320.5C 497.352,321.492 490.019,321.825 482.5,321.5C 482.5,328.833 482.5,336.167 482.5,343.5C 489.687,343.175 496.687,343.509 503.5,344.5C 496.5,344.5 489.5,344.5 482.5,344.5C 482.5,367.167 482.5,389.833 482.5,412.5C 482.167,412.5 481.833,412.5 481.5,412.5C 481.5,412.167 481.5,411.833 481.5,411.5C 481.5,389.167 481.5,366.833 481.5,344.5C 481.5,344.167 481.5,343.833 481.5,343.5C 481.5,336.167 481.5,328.833 481.5,321.5C 481.5,321.167 481.5,320.833 481.5,320.5 Z"/></g>
<g><path style="opacity:0.231" fill="#cbcccc" d="M 527.5,320.5 C 534.833,320.5 542.167,320.5 549.5,320.5C 549.833,320.5 550.167,320.5 550.5,320.5C 543.352,321.492 536.019,321.825 528.5,321.5C 528.5,328.5 528.5,335.5 528.5,342.5C 536.019,342.175 543.352,342.508 550.5,343.5C 542.833,343.5 535.167,343.5 527.5,343.5C 527.5,335.833 527.5,328.167 527.5,320.5 Z"/></g>
<g><path style="opacity:1" fill="#9d946c" d="M 139.5,321.5 C 146.5,321.5 153.5,321.5 160.5,321.5C 161.833,328.833 161.833,336.167 160.5,343.5C 153.492,343.334 146.492,343.5 139.5,344C 138.856,348.934 138.19,353.767 137.5,358.5C 137.5,353.5 137.5,348.5 137.5,343.5C 137.5,343.167 137.5,342.833 137.5,342.5C 137.833,342.5 138.167,342.5 138.5,342.5C 145.5,342.5 152.5,342.5 159.5,342.5C 160.833,335.833 160.833,329.167 159.5,322.5C 152.646,322.824 145.979,322.491 139.5,321.5 Z"/></g>
<g><path style="opacity:0.067" fill="#dddcdc" d="M 114.5,321.5 C 114.833,321.5 115.167,321.5 115.5,321.5C 115.5,328.833 115.5,336.167 115.5,343.5C 115.167,343.5 114.833,343.5 114.5,343.5C 107.5,343.5 100.5,343.5 93.5,343.5C 100.313,342.509 107.313,342.175 114.5,342.5C 114.5,335.5 114.5,328.5 114.5,321.5 Z"/></g>
<g><path style="opacity:1" fill="#5b5a58" d="M 527.5,298.5 C 527.5,305.833 527.5,313.167 527.5,320.5C 527.5,328.167 527.5,335.833 527.5,343.5C 535.167,343.5 542.833,343.5 550.5,343.5C 550.5,366.5 550.5,389.5 550.5,412.5C 558.167,412.5 565.833,412.5 573.5,412.5C 573.5,427.5 573.5,442.5 573.5,457.5C 573.167,457.5 572.833,457.5 572.5,457.5C 572.5,442.833 572.5,428.167 572.5,413.5C 565.5,413.5 558.5,413.5 551.5,413.5C 550.504,427.99 550.171,442.657 550.5,457.5C 542.833,457.5 535.167,457.5 527.5,457.5C 527.5,442.5 527.5,427.5 527.5,412.5C 519.981,412.175 512.648,412.508 505.5,413.5C 505.167,413.5 504.833,413.5 504.5,413.5C 504.5,413.167 504.5,412.833 504.5,412.5C 504.831,389.661 504.497,366.994 503.5,344.5C 496.687,343.509 489.687,343.175 482.5,343.5C 482.5,336.167 482.5,328.833 482.5,321.5C 490.019,321.825 497.352,321.492 504.5,320.5C 505.492,313.352 505.825,306.019 505.5,298.5C 512.833,298.5 520.167,298.5 527.5,298.5 Z"/></g>
<g><path style="opacity:1" fill="#0c0b08" d="M 505.5,321.5 C 512.5,321.5 519.5,321.5 526.5,321.5C 526.5,328.5 526.5,335.5 526.5,342.5C 519.5,342.5 512.5,342.5 505.5,342.5C 505.5,335.5 505.5,328.5 505.5,321.5 Z"/></g>
<g><path style="opacity:1" fill="#616161" d="M 92.5,343.5 C 92.8333,343.5 93.1667,343.5 93.5,343.5C 100.5,343.5 107.5,343.5 114.5,343.5C 114.5,343.833 114.5,344.167 114.5,344.5C 107.5,344.5 100.5,344.5 93.5,344.5C 93.5,366.833 93.5,389.167 93.5,411.5C 93.5,411.833 93.5,412.167 93.5,412.5C 93.5,413.167 93.1667,413.5 92.5,413.5C 92.1667,413.5 91.8333,413.5 91.5,413.5C 84.5,413.5 77.5,413.5 70.5,413.5C 70.5,428.167 70.5,442.833 70.5,457.5C 70.1667,457.5 69.8333,457.5 69.5,457.5C 69.5,442.5 69.5,427.5 69.5,412.5C 77.1667,412.5 84.8333,412.5 92.5,412.5C 92.5,389.5 92.5,366.5 92.5,343.5 Z"/></g>
<g><path style="opacity:1" fill="#5b4a2a" d="M 114.5,344.5 C 115.497,366.994 115.831,389.661 115.5,412.5C 108.167,412.5 100.833,412.5 93.5,412.5C 93.5,412.167 93.5,411.833 93.5,411.5C 100.5,411.5 107.5,411.5 114.5,411.5C 114.5,389.167 114.5,366.833 114.5,344.5 Z"/></g>
<g><path style="opacity:1" fill="#7d7e7c" d="M 437.5,344.5 C 444.5,344.5 451.5,344.5 458.5,344.5C 458.5,366.833 458.5,389.167 458.5,411.5C 452.5,411.5 446.5,411.5 440.5,411.5C 439.791,410.596 438.791,410.263 437.5,410.5C 437.5,388.5 437.5,366.5 437.5,344.5 Z"/></g>
<g><path style="opacity:1" fill="#9b9b99" d="M 503.5,344.5 C 504.497,366.994 504.831,389.661 504.5,412.5C 497.167,412.5 489.833,412.5 482.5,412.5C 482.5,389.833 482.5,367.167 482.5,344.5C 489.5,344.5 496.5,344.5 503.5,344.5 Z"/></g>
<g><path style="opacity:0.126" fill="#dbdbdb" d="M 92.5,343.5 C 92.5,366.5 92.5,389.5 92.5,412.5C 84.8333,412.5 77.1667,412.5 69.5,412.5C 76.6476,411.508 83.9809,411.175 91.5,411.5C 91.1692,388.661 91.5025,365.994 92.5,343.5 Z"/></g>
<g><path style="opacity:1" fill="#ad9f60" d="M 436.5,344.5 C 436.833,344.5 437.167,344.5 437.5,344.5C 437.5,366.5 437.5,388.5 437.5,410.5C 438.791,410.263 439.791,410.596 440.5,411.5C 439.167,411.5 437.833,411.5 436.5,411.5C 436.5,389.167 436.5,366.833 436.5,344.5 Z"/></g>
<g><path style="opacity:1" fill="#593628" d="M 528.5,344.5 C 528.5,366.833 528.5,389.167 528.5,411.5C 535.5,411.5 542.5,411.5 549.5,411.5C 542.352,412.492 535.019,412.825 527.5,412.5C 527.169,389.661 527.503,366.994 528.5,344.5 Z"/></g>
<g><path style="opacity:0.129" fill="#dadada" d="M 550.5,343.5 C 551.497,365.994 551.831,388.661 551.5,411.5C 559.019,411.175 566.352,411.508 573.5,412.5C 565.833,412.5 558.167,412.5 550.5,412.5C 550.5,389.5 550.5,366.5 550.5,343.5 Z"/></g>
<g><path style="opacity:1" fill="#030302" d="M 114.5,344.5 C 114.5,366.833 114.5,389.167 114.5,411.5C 107.5,411.5 100.5,411.5 93.5,411.5C 93.5,389.167 93.5,366.833 93.5,344.5C 100.5,344.5 107.5,344.5 114.5,344.5 Z"/></g>
<g><path style="opacity:1" fill="#847a50" d="M 434.5,321.5 C 434.5,320.833 434.833,320.5 435.5,320.5C 436.167,320.5 436.5,320.833 436.5,321.5C 436.5,328.833 436.5,336.167 436.5,343.5C 443.833,343.5 451.167,343.5 458.5,343.5C 458.833,343.5 459.167,343.5 459.5,343.5C 466.833,343.5 474.167,343.5 481.5,343.5C 481.5,343.833 481.5,344.167 481.5,344.5C 474.167,344.5 466.833,344.5 459.5,344.5C 459.5,366.833 459.5,389.167 459.5,411.5C 466.833,411.5 474.167,411.5 481.5,411.5C 481.5,411.833 481.5,412.167 481.5,412.5C 473.981,412.175 466.648,412.508 459.5,413.5C 453.066,412.87 446.733,412.203 440.5,411.5C 446.5,411.5 452.5,411.5 458.5,411.5C 458.5,389.167 458.5,366.833 458.5,344.5C 451.5,344.5 444.5,344.5 437.5,344.5C 437.167,344.5 436.833,344.5 436.5,344.5C 435.833,344.5 435.5,344.167 435.5,343.5C 435.5,343.167 435.5,342.833 435.5,342.5C 435.825,335.313 435.491,328.313 434.5,321.5 Z"/></g>
<g><path style="opacity:1" fill="#111103" d="M 481.5,344.5 C 481.5,366.833 481.5,389.167 481.5,411.5C 474.167,411.5 466.833,411.5 459.5,411.5C 459.5,389.167 459.5,366.833 459.5,344.5C 466.833,344.5 474.167,344.5 481.5,344.5 Z"/></g>
<g><path style="opacity:1" fill="#000101" d="M 461.5,346.5 C 467.5,346.5 473.5,346.5 479.5,346.5C 479.5,367.833 479.5,389.167 479.5,410.5C 473.5,410.5 467.5,410.5 461.5,410.5C 461.334,404.158 461.5,397.825 462,391.5C 463.421,388.991 465.088,386.657 467,384.5C 467.414,384.957 467.914,385.291 468.5,385.5C 469.364,383.803 470.697,382.637 472.5,382C 470.667,381.5 469.5,380.333 469,378.5C 468.517,379.448 468.351,380.448 468.5,381.5C 465.728,381.595 463.728,382.929 462.5,385.5C 461.501,372.517 461.168,359.517 461.5,346.5 Z"/></g>
<g><path style="opacity:1" fill="#1f0300" d="M 528.5,344.5 C 528.833,344.5 529.167,344.5 529.5,344.5C 529.5,366.5 529.5,388.5 529.5,410.5C 536.167,410.5 542.833,410.5 549.5,410.5C 549.5,410.833 549.5,411.167 549.5,411.5C 542.5,411.5 535.5,411.5 528.5,411.5C 528.5,389.167 528.5,366.833 528.5,344.5 Z"/></g>
<g><path style="opacity:1" fill="#020201" d="M 529.5,344.5 C 536.167,344.5 542.833,344.5 549.5,344.5C 549.5,366.5 549.5,388.5 549.5,410.5C 542.833,410.5 536.167,410.5 529.5,410.5C 529.5,388.5 529.5,366.5 529.5,344.5 Z"/></g>
<g><path style="opacity:1" fill="#887f51" d="M 299.5,390.5 C 299.167,390.5 298.833,390.5 298.5,390.5C 291.167,390.5 283.833,390.5 276.5,390.5C 276.5,397.5 276.5,404.5 276.5,411.5C 283.833,411.5 291.167,411.5 298.5,411.5C 298.5,411.833 298.5,412.167 298.5,412.5C 290.833,412.5 283.167,412.5 275.5,412.5C 275.825,404.981 275.492,397.648 274.5,390.5C 274.932,389.29 275.599,388.29 276.5,387.5C 276.5,380.833 276.5,374.167 276.5,367.5C 281.519,367.498 286.519,367.165 291.5,366.5C 294.553,366.231 297.22,367.064 299.5,369C 298.183,376.166 298.183,383.333 299.5,390.5 Z"/></g>
<g><path style="opacity:1" fill="#7e7e7c" d="M 276.5,387.5 C 277.49,381.355 277.823,375.022 277.5,368.5C 282.193,368.564 286.859,368.231 291.5,367.5C 293.693,367.326 295.527,367.993 297,369.5C 297.5,376.158 297.666,382.825 297.5,389.5C 290.087,390.128 283.087,389.461 276.5,387.5 Z"/></g>
<g><path style="opacity:1" fill="#9a906a" d="M 274.5,390.5 C 260.343,391.496 246.01,391.829 231.5,391.5C 231.824,398.354 231.491,405.021 230.5,411.5C 230.5,404.5 230.5,397.5 230.5,390.5C 245.167,390.5 259.833,390.5 274.5,390.5 Z"/></g>
<g><path style="opacity:1" fill="#7e7e7c" d="M 274.5,390.5 C 275.492,397.648 275.825,404.981 275.5,412.5C 260.324,412.829 245.324,412.496 230.5,411.5C 231.491,405.021 231.824,398.354 231.5,391.5C 246.01,391.829 260.343,391.496 274.5,390.5 Z"/></g>
<g><path style="opacity:1" fill="#7e7e7c" d="M 298.5,390.5 C 298.833,390.5 299.167,390.5 299.5,390.5C 313.657,391.496 327.99,391.829 342.5,391.5C 341.874,398.584 342.541,405.25 344.5,411.5C 329.342,412.496 314.009,412.83 298.5,412.5C 298.5,412.167 298.5,411.833 298.5,411.5C 298.5,404.5 298.5,397.5 298.5,390.5 Z"/></g>
<g><path style="opacity:1" fill="#050401" d="M 298.5,390.5 C 298.5,397.5 298.5,404.5 298.5,411.5C 291.167,411.5 283.833,411.5 276.5,411.5C 276.5,404.5 276.5,397.5 276.5,390.5C 283.833,390.5 291.167,390.5 298.5,390.5 Z"/></g>
<g><path style="opacity:1" fill="#9c9169" d="M 299.5,390.5 C 314.167,390.5 328.833,390.5 343.5,390.5C 343.205,397.588 343.538,404.588 344.5,411.5C 342.541,405.25 341.874,398.584 342.5,391.5C 327.99,391.829 313.657,391.496 299.5,390.5 Z"/></g>
<g><path style="opacity:1" fill="#7e7e7c" d="M 114.5,344.5 C 114.5,344.167 114.5,343.833 114.5,343.5C 114.833,343.5 115.167,343.5 115.5,343.5C 122.833,343.5 130.167,343.5 137.5,343.5C 137.5,348.5 137.5,353.5 137.5,358.5C 136.503,375.992 136.17,393.659 136.5,411.5C 128.961,410.988 121.628,411.655 114.5,413.5C 113.339,428.328 113.172,443.328 114,458.5C 119.106,459.545 124.273,459.545 129.5,458.5C 132.167,459.833 134.833,459.833 137.5,458.5C 137.833,458.5 138.167,458.5 138.5,458.5C 138.5,465.833 138.5,473.167 138.5,480.5C 138.5,480.833 138.5,481.167 138.5,481.5C 138.167,481.5 137.833,481.5 137.5,481.5C 122.833,481.5 108.167,481.5 93.5,481.5C 92.5084,488.648 92.175,495.981 92.5,503.5C 84.747,503.799 77.0804,503.466 69.5,502.5C 69.3334,488.163 69.5001,473.829 70,459.5C 77.4129,458.519 84.9129,458.186 92.5,458.5C 92.5,443.5 92.5,428.5 92.5,413.5C 93.1667,413.5 93.5,413.167 93.5,412.5C 100.833,412.5 108.167,412.5 115.5,412.5C 115.831,389.661 115.497,366.994 114.5,344.5 Z"/></g>
<g><path style="opacity:1" fill="#b8bb50" d="M 275.5,412.5 C 283.167,412.5 290.833,412.5 298.5,412.5C 298.5,412.833 298.5,413.167 298.5,413.5C 298.167,413.5 297.833,413.5 297.5,413.5C 290.5,413.5 283.5,413.5 276.5,413.5C 276.175,420.687 276.509,427.687 277.5,434.5C 277.5,434.833 277.5,435.167 277.5,435.5C 276.508,435.672 275.842,435.338 275.5,434.5C 275.5,427.5 275.5,420.5 275.5,413.5C 275.5,413.167 275.5,412.833 275.5,412.5 Z"/></g>
<g><path style="opacity:1" fill="#645a28" d="M 344.5,411.5 C 347.28,412.078 349.947,412.745 352.5,413.5C 349.833,413.5 347.167,413.5 344.5,413.5C 344.5,420.833 344.5,428.167 344.5,435.5C 344.167,435.5 343.833,435.5 343.5,435.5C 343.5,428.167 343.5,420.833 343.5,413.5C 328.833,413.5 314.167,413.5 299.5,413.5C 299.825,421.019 299.492,428.352 298.5,435.5C 298.5,428.167 298.5,420.833 298.5,413.5C 298.5,413.167 298.5,412.833 298.5,412.5C 314.009,412.83 329.342,412.496 344.5,411.5 Z"/></g>
<g><path style="opacity:1" fill="#807f7d" d="M 459.5,413.5 C 466.648,412.508 473.981,412.175 481.5,412.5C 481.833,412.5 482.167,412.5 482.5,412.5C 482.5,412.833 482.5,413.167 482.5,413.5C 482.5,428.167 482.5,442.833 482.5,457.5C 489.5,457.5 496.5,457.5 503.5,457.5C 503.833,457.5 504.167,457.5 504.5,457.5C 504.5,458.167 504.833,458.5 505.5,458.5C 505.5,473.833 505.5,489.167 505.5,504.5C 497.833,504.5 490.167,504.5 482.5,504.5C 482.5,511.833 482.5,519.167 482.5,526.5C 518.5,526.5 554.5,526.5 590.5,526.5C 592.5,526.5 594.5,526.5 596.5,526.5C 596.5,526.833 596.5,527.167 596.5,527.5C 558.167,527.5 519.833,527.5 481.5,527.5C 481.5,519.833 481.5,512.167 481.5,504.5C 466.167,504.5 450.833,504.5 435.5,504.5C 435.5,496.833 435.5,489.167 435.5,481.5C 420.167,481.5 404.833,481.5 389.5,481.5C 389.5,473.833 389.5,466.167 389.5,458.5C 389.833,458.5 390.167,458.5 390.5,458.5C 390.5,465.833 390.5,473.167 390.5,480.5C 405.5,480.5 420.5,480.5 435.5,480.5C 435.5,473.167 435.5,465.833 435.5,458.5C 436.167,458.5 436.833,458.5 437.5,458.5C 438.568,459.434 439.901,459.768 441.5,459.5C 447.833,459.5 454.167,459.5 460.5,459.5C 460.83,443.991 460.496,428.658 459.5,413.5 Z"/></g>
<g><path style="opacity:1" fill="#9a9a99" d="M 527.5,412.5 C 527.5,427.5 527.5,442.5 527.5,457.5C 520.167,457.5 512.833,457.5 505.5,457.5C 505.5,442.833 505.5,428.167 505.5,413.5C 512.648,412.508 519.981,412.175 527.5,412.5 Z"/></g>
<g><path style="opacity:1" fill="#857c4a" d="M 230.5,411.5 C 245.324,412.496 260.324,412.829 275.5,412.5C 275.5,412.833 275.5,413.167 275.5,413.5C 260.5,413.5 245.5,413.5 230.5,413.5C 230.5,420.5 230.5,427.5 230.5,434.5C 237.833,434.5 245.167,434.5 252.5,434.5C 252.5,434.833 252.5,435.167 252.5,435.5C 252.167,435.5 251.833,435.5 251.5,435.5C 244.5,435.5 237.5,435.5 230.5,435.5C 230.5,442.833 230.5,450.167 230.5,457.5C 230.167,457.5 229.833,457.5 229.5,457.5C 229.5,450.5 229.5,443.5 229.5,436.5C 229.5,436.167 229.5,435.833 229.5,435.5C 229.5,428.5 229.5,421.5 229.5,414.5C 214.833,414.5 200.167,414.5 185.5,414.5C 185.824,421.354 185.491,428.021 184.5,434.5C 184.5,427.5 184.5,420.5 184.5,413.5C 199.542,413.467 214.376,413.467 229,413.5C 229.278,412.584 229.778,411.918 230.5,411.5 Z"/></g>
<g><path style="opacity:1" fill="#9a9b99" d="M 297.5,413.5 C 297.5,420.5 297.5,427.5 297.5,434.5C 290.833,434.5 284.167,434.5 277.5,434.5C 276.509,427.687 276.175,420.687 276.5,413.5C 283.5,413.5 290.5,413.5 297.5,413.5 Z"/></g>
<g><path style="opacity:1" fill="#7e7e7c" d="M 352.5,413.5 C 364.655,414.495 376.989,414.829 389.5,414.5C 388.681,421.336 388.681,428.003 389.5,434.5C 374.676,435.496 359.676,435.829 344.5,435.5C 344.5,428.167 344.5,420.833 344.5,413.5C 347.167,413.5 349.833,413.5 352.5,413.5 Z"/></g>
<g><path style="opacity:1" fill="#968d6e" d="M 352.5,413.5 C 365.167,413.5 377.833,413.5 390.5,413.5C 390.287,420.174 389.954,426.841 389.5,433.5C 389.5,433.833 389.5,434.167 389.5,434.5C 388.681,428.003 388.681,421.336 389.5,414.5C 376.989,414.829 364.655,414.495 352.5,413.5 Z"/></g>
<g><path style="opacity:0.15" fill="#d1d1d1" d="M 573.5,412.5 C 574.496,427.324 574.829,442.324 574.5,457.5C 582.019,457.175 589.352,457.508 596.5,458.5C 596.167,458.5 595.833,458.5 595.5,458.5C 588.5,458.5 581.5,458.5 574.5,458.5C 573.833,458.5 573.5,458.167 573.5,457.5C 573.5,442.5 573.5,427.5 573.5,412.5 Z"/></g>
<g><path style="opacity:1" fill="#7e7e7c" d="M 229.5,435.5 C 214.324,435.829 199.324,435.496 184.5,434.5C 185.491,428.021 185.824,421.354 185.5,414.5C 200.167,414.5 214.833,414.5 229.5,414.5C 229.5,421.5 229.5,428.5 229.5,435.5 Z"/></g>
<g><path style="opacity:1" fill="#030302" d="M 343.5,435.5 C 336.167,435.5 328.833,435.5 321.5,435.5C 320.508,442.648 320.175,449.981 320.5,457.5C 305.833,457.5 291.167,457.5 276.5,457.5C 276.5,450.5 276.5,443.5 276.5,436.5C 284.019,436.825 291.352,436.492 298.5,435.5C 299.492,428.352 299.825,421.019 299.5,413.5C 314.167,413.5 328.833,413.5 343.5,413.5C 343.5,420.833 343.5,428.167 343.5,435.5 Z"/></g>
<g><path style="opacity:1" fill="#040403" d="M 91.5,413.5 C 91.5,428.167 91.5,442.833 91.5,457.5C 84.5,457.5 77.5,457.5 70.5,457.5C 70.5,442.833 70.5,428.167 70.5,413.5C 77.5,413.5 84.5,413.5 91.5,413.5 Z"/></g>
<g><path style="opacity:1" fill="#a79b66" d="M 114.5,413.5 C 114.333,428.17 114.5,442.837 115,457.5C 119.938,458.006 124.771,458.34 129.5,458.5C 124.273,459.545 119.106,459.545 114,458.5C 113.172,443.328 113.339,428.328 114.5,413.5 Z"/></g>
<g><path style="opacity:1" fill="#060503" d="M 275.5,413.5 C 275.5,420.5 275.5,427.5 275.5,434.5C 267.833,434.5 260.167,434.5 252.5,434.5C 245.167,434.5 237.833,434.5 230.5,434.5C 230.5,427.5 230.5,420.5 230.5,413.5C 245.5,413.5 260.5,413.5 275.5,413.5 Z"/></g>
<g><path style="opacity:1" fill="#928d71" d="M 459.5,413.5 C 460.496,428.658 460.83,443.991 460.5,459.5C 454.167,459.5 447.833,459.5 441.5,459.5C 447.31,458.51 453.31,458.177 459.5,458.5C 459.5,443.5 459.5,428.5 459.5,413.5 Z"/></g>
<g><path style="opacity:1" fill="#010101" d="M 503.5,415.5 C 503.5,421.167 503.5,426.833 503.5,432.5C 502.069,433.78 501.402,435.447 501.5,437.5C 498.191,437.308 495.691,438.641 494,441.5C 493.517,442.448 493.351,443.448 493.5,444.5C 492.07,444.421 490.736,444.754 489.5,445.5C 488.455,447.401 487.122,449.067 485.5,450.5C 484.747,438.824 484.081,427.157 483.5,415.5C 490.167,415.5 496.833,415.5 503.5,415.5 Z"/></g>
<g><path style="opacity:1" fill="#040202" d="M 551.5,413.5 C 558.5,413.5 565.5,413.5 572.5,413.5C 572.5,428.167 572.5,442.833 572.5,457.5C 565.5,457.5 558.5,457.5 551.5,457.5C 551.5,442.833 551.5,428.167 551.5,413.5 Z"/></g>
<g><path style="opacity:1" fill="#463806" d="M 91.5,413.5 C 91.8333,413.5 92.1667,413.5 92.5,413.5C 92.5,428.5 92.5,443.5 92.5,458.5C 84.9129,458.186 77.4129,458.519 70,459.5C 69.5001,473.829 69.3334,488.163 69.5,502.5C 69.5,503.167 69.5,503.833 69.5,504.5C 68.5038,489.342 68.1705,474.009 68.5,458.5C 69.1667,458.5 69.5,458.167 69.5,457.5C 69.8333,457.5 70.1667,457.5 70.5,457.5C 77.5,457.5 84.5,457.5 91.5,457.5C 91.5,442.833 91.5,428.167 91.5,413.5 Z"/></g>
<g><path style="opacity:1" fill="#a7a56d" d="M 504.5,413.5 C 504.833,413.5 505.167,413.5 505.5,413.5C 505.5,428.167 505.5,442.833 505.5,457.5C 512.833,457.5 520.167,457.5 527.5,457.5C 527.5,457.833 527.5,458.167 527.5,458.5C 527.167,458.5 526.833,458.5 526.5,458.5C 519.5,458.5 512.5,458.5 505.5,458.5C 504.833,458.5 504.5,458.167 504.5,457.5C 504.5,442.833 504.5,428.167 504.5,413.5 Z"/></g>
<g><path style="opacity:0.098" fill="#d5d5d4" d="M 69.5,412.5 C 69.5,427.5 69.5,442.5 69.5,457.5C 69.5,458.167 69.1667,458.5 68.5,458.5C 67.1667,458.5 65.8333,458.5 64.5,458.5C 58.8333,458.5 53.1667,458.5 47.5,458.5C 47.1667,458.5 46.8333,458.5 46.5,458.5C 53.6476,457.508 60.9809,457.175 68.5,457.5C 68.1706,442.324 68.5039,427.324 69.5,412.5 Z"/></g>
<g><path style="opacity:1" fill="#adaf71" d="M 297.5,413.5 C 297.833,413.5 298.167,413.5 298.5,413.5C 298.5,420.833 298.5,428.167 298.5,435.5C 291.5,435.5 284.5,435.5 277.5,435.5C 277.5,435.167 277.5,434.833 277.5,434.5C 284.167,434.5 290.833,434.5 297.5,434.5C 297.5,427.5 297.5,420.5 297.5,413.5 Z"/></g>
<g><path style="opacity:1" fill="#9c9b97" d="M 251.5,435.5 C 252.464,442.746 252.797,450.08 252.5,457.5C 252.5,457.833 252.5,458.167 252.5,458.5C 245.167,458.5 237.833,458.5 230.5,458.5C 230.5,458.167 230.5,457.833 230.5,457.5C 230.5,450.167 230.5,442.833 230.5,435.5C 237.5,435.5 244.5,435.5 251.5,435.5 Z"/></g>
<g><path style="opacity:1" fill="#595651" d="M 252.5,435.5 C 252.5,435.167 252.5,434.833 252.5,434.5C 260.167,434.5 267.833,434.5 275.5,434.5C 275.842,435.338 276.508,435.672 277.5,435.5C 284.5,435.5 291.5,435.5 298.5,435.5C 291.352,436.492 284.019,436.825 276.5,436.5C 276.5,443.5 276.5,450.5 276.5,457.5C 291.167,457.5 305.833,457.5 320.5,457.5C 320.175,449.981 320.508,442.648 321.5,435.5C 321.5,435.833 321.5,436.167 321.5,436.5C 321.5,443.833 321.5,451.167 321.5,458.5C 306.5,458.5 291.5,458.5 276.5,458.5C 276.167,458.5 275.833,458.5 275.5,458.5C 267.833,458.5 260.167,458.5 252.5,458.5C 252.5,458.167 252.5,457.833 252.5,457.5C 253.833,450.167 253.833,442.833 252.5,435.5 Z"/></g>
<g><path style="opacity:1" fill="#5a4a1d" d="M 389.5,433.5 C 390.338,433.842 390.672,434.508 390.5,435.5C 390.825,443.019 390.492,450.352 389.5,457.5C 389.5,450.5 389.5,443.5 389.5,436.5C 374.5,436.5 359.5,436.5 344.5,436.5C 344.5,436.167 344.5,435.833 344.5,435.5C 359.676,435.829 374.676,435.496 389.5,434.5C 389.5,434.167 389.5,433.833 389.5,433.5 Z"/></g>
<g><path style="opacity:1" fill="#aa9d65" d="M 391.5,435.5 C 405.837,435.333 420.171,435.5 434.5,436C 435.314,442.753 435.814,449.586 436,456.5C 436.717,457.044 437.217,457.711 437.5,458.5C 436.833,458.5 436.167,458.5 435.5,458.5C 434.85,451.332 434.183,444.166 433.5,437C 419.327,436.831 405.327,436.331 391.5,435.5 Z"/></g>
<g><path style="opacity:1" fill="#7e7e7c" d="M 139.5,436.5 C 154.167,436.5 168.833,436.5 183.5,436.5C 183.5,443.5 183.5,450.5 183.5,457.5C 168.657,457.829 153.99,457.496 139.5,456.5C 139.5,456.167 139.5,455.833 139.5,455.5C 139.5,449.167 139.5,442.833 139.5,436.5 Z"/></g>
<g><path style="opacity:1" fill="#7c7c7a" d="M 390.5,435.5 C 390.833,435.5 391.167,435.5 391.5,435.5C 405.327,436.331 419.327,436.831 433.5,437C 434.183,444.166 434.85,451.332 435.5,458.5C 420.5,458.5 405.5,458.5 390.5,458.5C 390.167,458.5 389.833,458.5 389.5,458.5C 374.5,458.5 359.5,458.5 344.5,458.5C 344.5,458.167 344.5,457.833 344.5,457.5C 359.5,457.5 374.5,457.5 389.5,457.5C 390.492,450.352 390.825,443.019 390.5,435.5 Z"/></g>
<g><path style="opacity:0.165" fill="#dfdcde" d="M 321.5,436.5 C 321.5,436.167 321.5,435.833 321.5,435.5C 328.833,435.5 336.167,435.5 343.5,435.5C 343.833,435.5 344.167,435.5 344.5,435.5C 344.5,435.833 344.5,436.167 344.5,436.5C 344.5,443.5 344.5,450.5 344.5,457.5C 344.5,457.833 344.5,458.167 344.5,458.5C 343.508,451.352 343.175,444.019 343.5,436.5C 336.167,436.5 328.833,436.5 321.5,436.5 Z"/></g>
<g><path style="opacity:1" fill="#050401" d="M 229.5,436.5 C 229.5,443.5 229.5,450.5 229.5,457.5C 221.833,457.5 214.167,457.5 206.5,457.5C 199.167,457.5 191.833,457.5 184.5,457.5C 184.5,450.5 184.5,443.5 184.5,436.5C 199.5,436.5 214.5,436.5 229.5,436.5 Z"/></g>
<g><path style="opacity:1" fill="#040100" d="M 344.5,436.5 C 359.5,436.5 374.5,436.5 389.5,436.5C 389.5,443.5 389.5,450.5 389.5,457.5C 374.5,457.5 359.5,457.5 344.5,457.5C 344.5,450.5 344.5,443.5 344.5,436.5 Z"/></g>
<g><path style="opacity:1" fill="#0d0d08" d="M 482.5,413.5 C 489.913,412.872 496.913,413.539 503.5,415.5C 496.833,415.5 490.167,415.5 483.5,415.5C 484.081,427.157 484.747,438.824 485.5,450.5C 487.122,449.067 488.455,447.401 489.5,445.5C 490.736,444.754 492.07,444.421 493.5,444.5C 493.351,443.448 493.517,442.448 494,441.5C 495.691,438.641 498.191,437.308 501.5,437.5C 501.402,435.447 502.069,433.78 503.5,432.5C 503.5,440.833 503.5,449.167 503.5,457.5C 496.5,457.5 489.5,457.5 482.5,457.5C 482.5,442.833 482.5,428.167 482.5,413.5 Z"/></g>
<g><path style="opacity:1" fill="#373602" d="M 482.5,413.5 C 482.5,413.167 482.5,412.833 482.5,412.5C 489.833,412.5 497.167,412.5 504.5,412.5C 504.5,412.833 504.5,413.167 504.5,413.5C 504.5,428.167 504.5,442.833 504.5,457.5C 504.167,457.5 503.833,457.5 503.5,457.5C 503.5,449.167 503.5,440.833 503.5,432.5C 503.5,426.833 503.5,421.167 503.5,415.5C 496.913,413.539 489.913,412.872 482.5,413.5 Z"/></g>
<g><path style="opacity:1" fill="#9d8d62" d="M 251.5,435.5 C 251.833,435.5 252.167,435.5 252.5,435.5C 253.833,442.833 253.833,450.167 252.5,457.5C 252.797,450.08 252.464,442.746 251.5,435.5 Z"/></g>
<g><path style="opacity:1" fill="#b0a363" d="M 139.5,436.5 C 139.5,442.833 139.5,449.167 139.5,455.5C 138.804,451.769 138.138,447.935 137.5,444C 138.123,441.393 138.79,438.893 139.5,436.5 Z"/></g>
<g><path style="opacity:1" fill="#7f744a" d="M 184.5,434.5 C 199.324,435.496 214.324,435.829 229.5,435.5C 229.5,435.833 229.5,436.167 229.5,436.5C 214.5,436.5 199.5,436.5 184.5,436.5C 184.5,443.5 184.5,450.5 184.5,457.5C 191.833,457.5 199.167,457.5 206.5,457.5C 206.5,457.833 206.5,458.167 206.5,458.5C 199.167,458.5 191.833,458.5 184.5,458.5C 184.167,458.5 183.833,458.5 183.5,458.5C 168.5,458.5 153.5,458.5 138.5,458.5C 138.167,458.5 137.833,458.5 137.5,458.5C 137.833,457.5 138.5,456.833 139.5,456.5C 153.99,457.496 168.657,457.829 183.5,457.5C 183.5,450.5 183.5,443.5 183.5,436.5C 168.833,436.5 154.167,436.5 139.5,436.5C 154.402,435.818 169.402,435.152 184.5,434.5 Z"/></g>
<g><path style="opacity:1" fill="#9a9a9a" d="M 46.5,458.5 C 46.8333,458.5 47.1667,458.5 47.5,458.5C 47.5,481.167 47.5,503.833 47.5,526.5C 47.1667,526.5 46.8333,526.5 46.5,526.5C 45.2041,504.05 45.2041,481.383 46.5,458.5 Z"/></g>
<g><path style="opacity:1" fill="#9b9b99" d="M 184.5,458.5 C 191.833,458.5 199.167,458.5 206.5,458.5C 206.833,458.5 207.167,458.5 207.5,458.5C 207.5,465.833 207.5,473.167 207.5,480.5C 207.167,480.5 206.833,480.5 206.5,480.5C 199.492,480.666 192.492,480.5 185.5,480C 184.52,472.921 184.187,465.755 184.5,458.5 Z"/></g>
<g><path style="opacity:1" fill="#5a5a58" d="M 207.5,458.5 C 214.833,458.5 222.167,458.5 229.5,458.5C 229.5,465.833 229.5,473.167 229.5,480.5C 222.167,480.5 214.833,480.5 207.5,480.5C 207.5,473.167 207.5,465.833 207.5,458.5 Z"/></g>
<g><path style="opacity:1" fill="#9b9b98" d="M 527.5,457.5 C 535.167,457.5 542.833,457.5 550.5,457.5C 550.5,457.833 550.5,458.167 550.5,458.5C 550.5,473.5 550.5,488.5 550.5,503.5C 542.833,503.5 535.167,503.5 527.5,503.5C 527.5,488.5 527.5,473.5 527.5,458.5C 527.5,458.167 527.5,457.833 527.5,457.5 Z"/></g>
<g><path style="opacity:1" fill="#050300" d="M 138.5,458.5 C 153.5,458.5 168.5,458.5 183.5,458.5C 183.5,465.833 183.5,473.167 183.5,480.5C 168.5,480.5 153.5,480.5 138.5,480.5C 138.5,473.167 138.5,465.833 138.5,458.5 Z"/></g>
<g><path style="opacity:1" fill="#675240" d="M 206.5,458.5 C 206.5,458.167 206.5,457.833 206.5,457.5C 214.167,457.5 221.833,457.5 229.5,457.5C 229.833,457.5 230.167,457.5 230.5,457.5C 230.5,457.833 230.5,458.167 230.5,458.5C 230.5,465.833 230.5,473.167 230.5,480.5C 230.5,480.833 230.5,481.167 230.5,481.5C 230.167,481.5 229.833,481.5 229.5,481.5C 221.833,481.5 214.167,481.5 206.5,481.5C 206.5,481.167 206.5,480.833 206.5,480.5C 206.833,480.5 207.167,480.5 207.5,480.5C 214.833,480.5 222.167,480.5 229.5,480.5C 229.5,473.167 229.5,465.833 229.5,458.5C 222.167,458.5 214.833,458.5 207.5,458.5C 207.167,458.5 206.833,458.5 206.5,458.5 Z"/></g>
<g><path style="opacity:1" fill="#050302" d="M 230.5,458.5 C 237.833,458.5 245.167,458.5 252.5,458.5C 260.167,458.5 267.833,458.5 275.5,458.5C 275.5,465.833 275.5,473.167 275.5,480.5C 260.5,480.5 245.5,480.5 230.5,480.5C 230.5,473.167 230.5,465.833 230.5,458.5 Z"/></g>
<g><path style="opacity:1" fill="#030201" d="M 505.5,458.5 C 512.5,458.5 519.5,458.5 526.5,458.5C 526.5,473.833 526.5,489.167 526.5,504.5C 534.5,504.5 542.5,504.5 550.5,504.5C 558.167,504.5 565.833,504.5 573.5,504.5C 574.496,489.342 574.83,474.009 574.5,458.5C 581.5,458.5 588.5,458.5 595.5,458.5C 595.5,480.5 595.5,502.5 595.5,524.5C 558.165,524.333 520.832,524.5 483.5,525C 519.336,525.167 555.002,525.667 590.5,526.5C 554.5,526.5 518.5,526.5 482.5,526.5C 482.5,519.167 482.5,511.833 482.5,504.5C 490.167,504.5 497.833,504.5 505.5,504.5C 505.5,489.167 505.5,473.833 505.5,458.5 Z"/></g>
<g><path style="opacity:1" fill="#5b5a58" d="M 550.5,458.5 C 558.087,458.186 565.587,458.519 573,459.5C 573.5,474.496 573.667,489.496 573.5,504.5C 565.833,504.5 558.167,504.5 550.5,504.5C 550.5,504.167 550.5,503.833 550.5,503.5C 550.5,488.5 550.5,473.5 550.5,458.5 Z"/></g>
<g><path style="opacity:1" fill="#572b14" d="M 551.5,413.5 C 551.5,428.167 551.5,442.833 551.5,457.5C 558.5,457.5 565.5,457.5 572.5,457.5C 572.833,457.5 573.167,457.5 573.5,457.5C 573.5,458.167 573.833,458.5 574.5,458.5C 574.83,474.009 574.496,489.342 573.5,504.5C 573.667,489.496 573.5,474.496 573,459.5C 565.587,458.519 558.087,458.186 550.5,458.5C 550.5,458.167 550.5,457.833 550.5,457.5C 550.171,442.657 550.504,427.99 551.5,413.5 Z"/></g>
<g><path style="opacity:1" fill="#16120e" d="M 390.5,458.5 C 405.5,458.5 420.5,458.5 435.5,458.5C 435.5,465.833 435.5,473.167 435.5,480.5C 420.5,480.5 405.5,480.5 390.5,480.5C 390.5,473.167 390.5,465.833 390.5,458.5 Z"/></g>
<g><path style="opacity:1" fill="#000000" d="M 392.5,459.5 C 406.167,459.5 419.833,459.5 433.5,459.5C 433.5,465.833 433.5,472.167 433.5,478.5C 419.833,478.5 406.167,478.5 392.5,478.5C 392.5,472.167 392.5,465.833 392.5,459.5 Z"/></g>
<g><path style="opacity:1" fill="#9fa152" d="M 183.5,458.5 C 183.833,458.5 184.167,458.5 184.5,458.5C 184.187,465.755 184.52,472.921 185.5,480C 192.492,480.5 199.492,480.666 206.5,480.5C 206.5,480.833 206.5,481.167 206.5,481.5C 199.167,481.5 191.833,481.5 184.5,481.5C 184.5,480.833 184.167,480.5 183.5,480.5C 183.5,473.167 183.5,465.833 183.5,458.5 Z"/></g>
<g><path style="opacity:0.835" fill="#989797" d="M 275.5,458.5 C 275.833,458.5 276.167,458.5 276.5,458.5C 276.5,466.167 276.5,473.833 276.5,481.5C 261.167,481.5 245.833,481.5 230.5,481.5C 230.5,481.167 230.5,480.833 230.5,480.5C 245.5,480.5 260.5,480.5 275.5,480.5C 275.5,473.167 275.5,465.833 275.5,458.5 Z"/></g>
<g><path style="opacity:1" fill="#9b9b99" d="M 138.5,481.5 C 146.167,481.5 153.833,481.5 161.5,481.5C 161.5,482.167 161.5,482.833 161.5,483.5C 161.793,490.255 161.46,496.922 160.5,503.5C 153.492,503.666 146.492,503.5 139.5,503C 138.52,495.921 138.187,488.755 138.5,481.5 Z"/></g>
<g><path style="opacity:1" fill="#626361" d="M 161.5,481.5 C 168.833,481.5 176.167,481.5 183.5,481.5C 183.5,488.833 183.5,496.167 183.5,503.5C 176.5,503.5 169.5,503.5 162.5,503.5C 162.824,496.646 162.491,489.979 161.5,483.5C 161.5,482.833 161.5,482.167 161.5,481.5 Z"/></g>
<g><path style="opacity:1" fill="#050403" d="M 184.5,481.5 C 191.833,481.5 199.167,481.5 206.5,481.5C 214.167,481.5 221.833,481.5 229.5,481.5C 229.5,488.833 229.5,496.167 229.5,503.5C 214.5,503.5 199.5,503.5 184.5,503.5C 184.5,496.167 184.5,488.833 184.5,481.5 Z"/></g>
<g><path style="opacity:1" fill="#010100" d="M 64.5,458.5 C 65.8333,458.5 67.1667,458.5 68.5,458.5C 68.1705,474.009 68.5038,489.342 69.5,504.5C 77.5,504.5 85.5,504.5 93.5,504.5C 94.1174,504.389 94.6174,504.056 95,503.5C 95.4996,496.842 95.6663,490.175 95.5,483.5C 108.833,483.5 122.167,483.5 135.5,483.5C 135.702,490.445 135.702,497.279 135.5,504C 136.167,504.667 136.833,505.333 137.5,506C 145.167,506.333 152.833,506.667 160.5,507C 158.99,509.009 157.323,510.842 155.5,512.5C 157.349,513.593 159.016,514.926 160.5,516.5C 161.429,515.311 161.762,513.978 161.5,512.5C 162.833,512.5 164.167,512.5 165.5,512.5C 165.5,511.5 165.5,510.5 165.5,509.5C 167.484,509.617 169.15,508.95 170.5,507.5C 174.107,506.511 177.774,506.177 181.5,506.5C 181.5,512.5 181.5,518.5 181.5,524.5C 137.5,524.5 93.5,524.5 49.5,524.5C 49.5,502.833 49.5,481.167 49.5,459.5C 54.6946,459.821 59.6946,459.487 64.5,458.5 Z"/></g>
<g><path style="opacity:1" fill="#151311" d="M 436.5,481.5 C 451.5,481.5 466.5,481.5 481.5,481.5C 481.5,488.833 481.5,496.167 481.5,503.5C 466.5,503.5 451.5,503.5 436.5,503.5C 436.5,496.167 436.5,488.833 436.5,481.5 Z"/></g>
<g><path style="opacity:1" fill="#000000" d="M 438.5,483.5 C 452.5,483.5 466.5,483.5 480.5,483.5C 480.5,489.5 480.5,495.5 480.5,501.5C 467.496,501.667 454.496,501.5 441.5,501C 442.743,499.846 443.743,498.512 444.5,497C 448.733,497.944 450.733,496.111 450.5,491.5C 454.5,491.167 454.5,490.833 450.5,490.5C 450.762,489.022 450.429,487.689 449.5,486.5C 446.513,488.496 444.513,491.162 443.5,494.5C 441.61,494.297 440.11,494.963 439,496.5C 438.501,492.179 438.334,487.846 438.5,483.5 Z"/></g>
<g><path style="opacity:1" fill="#848644" d="M 137.5,481.5 C 137.833,481.5 138.167,481.5 138.5,481.5C 138.187,488.755 138.52,495.921 139.5,503C 146.492,503.5 153.492,503.666 160.5,503.5C 161.167,503.5 161.5,503.833 161.5,504.5C 153.5,504.5 145.5,504.5 137.5,504.5C 137.5,496.833 137.5,489.167 137.5,481.5 Z"/></g>
<g><path style="opacity:1" fill="#806c45" d="M 138.5,481.5 C 138.5,481.167 138.5,480.833 138.5,480.5C 153.5,480.5 168.5,480.5 183.5,480.5C 184.167,480.5 184.5,480.833 184.5,481.5C 184.5,488.833 184.5,496.167 184.5,503.5C 184.5,503.833 184.5,504.167 184.5,504.5C 184.167,504.5 183.833,504.5 183.5,504.5C 176.167,504.5 168.833,504.5 161.5,504.5C 161.5,503.833 161.167,503.5 160.5,503.5C 161.46,496.922 161.793,490.255 161.5,483.5C 162.491,489.979 162.824,496.646 162.5,503.5C 169.5,503.5 176.5,503.5 183.5,503.5C 183.5,496.167 183.5,488.833 183.5,481.5C 176.167,481.5 168.833,481.5 161.5,481.5C 153.833,481.5 146.167,481.5 138.5,481.5 Z"/></g>
<g><path style="opacity:0.736" fill="#949596" d="M 229.5,481.5 C 229.833,481.5 230.167,481.5 230.5,481.5C 230.5,489.167 230.5,496.833 230.5,504.5C 215.167,504.5 199.833,504.5 184.5,504.5C 184.5,504.167 184.5,503.833 184.5,503.5C 199.5,503.5 214.5,503.5 229.5,503.5C 229.5,496.167 229.5,488.833 229.5,481.5 Z"/></g>
<g><path style="opacity:1" fill="#77762b" d="M 526.5,458.5 C 526.833,458.5 527.167,458.5 527.5,458.5C 527.5,473.5 527.5,488.5 527.5,503.5C 535.167,503.5 542.833,503.5 550.5,503.5C 550.5,503.833 550.5,504.167 550.5,504.5C 542.5,504.5 534.5,504.5 526.5,504.5C 526.5,489.167 526.5,473.833 526.5,458.5 Z"/></g>
<g><path style="opacity:1" fill="#535154" d="M 595.5,458.5 C 595.833,458.5 596.167,458.5 596.5,458.5C 597.833,481.167 597.833,503.833 596.5,526.5C 594.5,526.5 592.5,526.5 590.5,526.5C 555.002,525.667 519.336,525.167 483.5,525C 520.832,524.5 558.165,524.333 595.5,524.5C 595.5,502.5 595.5,480.5 595.5,458.5 Z"/></g>
<g><path style="opacity:1" fill="#131211" d="M 47.5,458.5 C 53.1667,458.5 58.8333,458.5 64.5,458.5C 59.6946,459.487 54.6946,459.821 49.5,459.5C 49.5,481.167 49.5,502.833 49.5,524.5C 93.5,524.5 137.5,524.5 181.5,524.5C 181.5,518.5 181.5,512.5 181.5,506.5C 177.774,506.177 174.107,506.511 170.5,507.5C 169.15,508.95 167.484,509.617 165.5,509.5C 165.5,510.5 165.5,511.5 165.5,512.5C 164.167,512.5 162.833,512.5 161.5,512.5C 161.762,513.978 161.429,515.311 160.5,516.5C 159.016,514.926 157.349,513.593 155.5,512.5C 157.323,510.842 158.99,509.009 160.5,507C 152.833,506.667 145.167,506.333 137.5,506C 136.833,505.333 136.167,504.667 135.5,504C 135.702,497.279 135.702,490.445 135.5,483.5C 122.167,483.5 108.833,483.5 95.5,483.5C 95.6663,490.175 95.4996,496.842 95,503.5C 94.6174,504.056 94.1174,504.389 93.5,504.5C 93.5,496.833 93.5,489.167 93.5,481.5C 108.167,481.5 122.833,481.5 137.5,481.5C 137.5,489.167 137.5,496.833 137.5,504.5C 145.5,504.5 153.5,504.5 161.5,504.5C 168.833,504.5 176.167,504.5 183.5,504.5C 183.5,511.833 183.5,519.167 183.5,526.5C 138.167,526.5 92.8333,526.5 47.5,526.5C 47.5,503.833 47.5,481.167 47.5,458.5 Z"/></g>
<g><path style="opacity:1" fill="#7e7143" d="M 93.5,481.5 C 93.5,489.167 93.5,496.833 93.5,504.5C 85.5,504.5 77.5,504.5 69.5,504.5C 69.5,503.833 69.5,503.167 69.5,502.5C 77.0804,503.466 84.747,503.799 92.5,503.5C 92.175,495.981 92.5084,488.648 93.5,481.5 Z"/></g>
<g><path style="opacity:0.443" fill="#b2b2b3" d="M 183.5,504.5 C 183.833,504.5 184.167,504.5 184.5,504.5C 184.5,512.167 184.5,519.833 184.5,527.5C 138.5,527.5 92.5,527.5 46.5,527.5C 46.5,527.167 46.5,526.833 46.5,526.5C 46.8333,526.5 47.1667,526.5 47.5,526.5C 92.8333,526.5 138.167,526.5 183.5,526.5C 183.5,519.167 183.5,511.833 183.5,504.5 Z"/></g>
</svg>
