<?xml version="1.0" encoding="UTF-8"?>
<!DOCTYPE svg PUBLIC "-//W3C//DTD SVG 1.1//EN" "http://www.w3.org/Graphics/SVG/1.1/DTD/svg11.dtd">
<svg xmlns="http://www.w3.org/2000/svg" version="1.1" width="643px" height="528px" style="shape-rendering:geometricPrecision; text-rendering:geometricPrecision; image-rendering:optimizeQuality; fill-rule:evenodd; clip-rule:evenodd" xmlns:xlink="http://www.w3.org/1999/xlink">
<g><path style="opacity:0.417" fill="#ababaa" d="M 275.5,-0.5 C 306.167,-0.5 336.833,-0.5 367.5,-0.5C 367.5,7.16667 367.5,14.8333 367.5,22.5C 375.352,22.1746 383.018,22.508 390.5,23.5C 390.167,23.5 389.833,23.5 389.5,23.5C 382.167,23.5 374.833,23.5 367.5,23.5C 366.833,23.5 366.167,23.5 365.5,23.5C 365.5,23.1667 365.5,22.8333 365.5,22.5C 366.492,15.3524 366.825,8.01905 366.5,0.5C 336.5,0.5 306.5,0.5 276.5,0.5C 276.5,7.83333 276.5,15.1667 276.5,22.5C 276.167,22.5 275.833,22.5 275.5,22.5C 275.5,14.8333 275.5,7.16667 275.5,-0.5 Z"/></g>
<g><path style="opacity:1" fill="#040402" d="M 365.5,22.5 C 350.5,22.5 335.5,22.5 320.5,22.5C 320.175,30.0191 320.508,37.3524 321.5,44.5C 321.5,44.8333 321.5,45.1667 321.5,45.5C 314.167,45.5 306.833,45.5 299.5,45.5C 299.5,37.8333 299.5,30.1667 299.5,22.5C 291.833,22.5 284.167,22.5 276.5,22.5C 276.5,15.1667 276.5,7.83333 276.5,0.5C 306.5,0.5 336.5,0.5 366.5,0.5C 366.825,8.01905 366.492,15.3524 365.5,22.5 Z"/></g>
<g><path style="opacity:0.787" fill="#9c9c9b" d="M 275.5,22.5 C 275.5,22.8333 275.5,23.1667 275.5,23.5C 268.167,23.5 260.833,23.5 253.5,23.5C 253.5,30.8333 253.5,38.1667 253.5,45.5C 253.167,45.5 252.833,45.5 252.5,45.5C 252.5,37.8333 252.5,30.1667 252.5,22.5C 260.167,22.5 267.833,22.5 275.5,22.5 Z"/></g>
<g><path style="opacity:1" fill="#fac207" d="M 275.5,23.5 C 283.167,23.5 290.833,23.5 298.5,23.5C 298.5,30.8333 298.5,38.1667 298.5,45.5C 298.5,45.8333 298.5,46.1667 298.5,46.5C 290.734,45.4464 283.068,45.4464 275.5,46.5C 275.5,46.1667 275.5,45.8333 275.5,45.5C 275.5,38.1667 275.5,30.8333 275.5,23.5 Z"/></g>
<g><path style="opacity:1" fill="#5f5008" d="M 275.5,23.5 C 275.5,23.1667 275.5,22.8333 275.5,22.5C 275.833,22.5 276.167,22.5 276.5,22.5C 284.167,22.5 291.833,22.5 299.5,22.5C 299.5,30.1667 299.5,37.8333 299.5,45.5C 299.167,45.5 298.833,45.5 298.5,45.5C 298.5,38.1667 298.5,30.8333 298.5,23.5C 290.833,23.5 283.167,23.5 275.5,23.5 Z"/></g>
<g><path style="opacity:1" fill="#554a07" d="M 365.5,22.5 C 365.5,22.8333 365.5,23.1667 365.5,23.5C 358.5,23.5 351.5,23.5 344.5,23.5C 336.833,23.5 329.167,23.5 321.5,23.5C 321.5,30.5 321.5,37.5 321.5,44.5C 320.508,37.3524 320.175,30.0191 320.5,22.5C 335.5,22.5 350.5,22.5 365.5,22.5 Z"/></g>
<g><path style="opacity:1" fill="#fdfa0b" d="M 344.5,23.5 C 344.5,30.8333 344.5,38.1667 344.5,45.5C 336.833,45.5 329.167,45.5 321.5,45.5C 321.5,45.1667 321.5,44.8333 321.5,44.5C 321.5,37.5 321.5,30.5 321.5,23.5C 329.167,23.5 336.833,23.5 344.5,23.5 Z"/></g>
<g><path style="opacity:1" fill="#060402" d="M 275.5,23.5 C 275.5,30.8333 275.5,38.1667 275.5,45.5C 268.167,45.5 260.833,45.5 253.5,45.5C 253.5,38.1667 253.5,30.8333 253.5,23.5C 260.833,23.5 268.167,23.5 275.5,23.5 Z"/></g>
<g><path style="opacity:1" fill="#090504" d="M 367.5,23.5 C 374.833,23.5 382.167,23.5 389.5,23.5C 389.825,31.0191 389.492,38.3524 388.5,45.5C 381.5,45.5 374.5,45.5 367.5,45.5C 367.5,38.1667 367.5,30.8333 367.5,23.5 Z"/></g>
<g><path style="opacity:1" fill="#ec8512" d="M 344.5,23.5 C 351.5,23.5 358.5,23.5 365.5,23.5C 366.167,23.5 366.833,23.5 367.5,23.5C 367.5,30.8333 367.5,38.1667 367.5,45.5C 359.833,45.5 352.167,45.5 344.5,45.5C 344.5,38.1667 344.5,30.8333 344.5,23.5 Z"/></g>
<g><path style="opacity:1" fill="#fd8001" d="M 345.5,24.5 C 352.2,24.17 358.866,24.5033 365.5,25.5C 366.132,30.5066 365.465,35.5066 363.5,40.5C 363.919,41.6721 364.585,42.6721 365.5,43.5C 358.866,44.4967 352.2,44.83 345.5,44.5C 345.5,37.8333 345.5,31.1667 345.5,24.5 Z"/></g>
<g><path style="opacity:1" fill="#fefe01" d="M 298.5,46.5 C 299.483,61.4219 299.816,76.4219 299.5,91.5C 306.833,91.5 314.167,91.5 321.5,91.5C 321.5,91.8333 321.5,92.1667 321.5,92.5C 321.534,107.209 321.534,121.709 321.5,136C 328.826,136.5 336.159,136.666 343.5,136.5C 343.5,137.167 343.833,137.5 344.5,137.5C 344.5,137.833 344.5,138.167 344.5,138.5C 344.5,153.167 344.5,167.833 344.5,182.5C 352.222,182.233 359.889,182.566 367.5,183.5C 367.169,190.863 367.503,198.197 368.5,205.5C 375.688,206.468 383.022,206.802 390.5,206.5C 390.5,206.833 390.5,207.167 390.5,207.5C 390.5,214.5 390.5,221.5 390.5,228.5C 428.466,229.101 466.466,229.101 504.5,228.5C 505.398,236.124 505.731,243.791 505.5,251.5C 505.167,251.5 504.833,251.5 504.5,251.5C 497.254,252.464 489.92,252.797 482.5,252.5C 482.5,259.833 482.5,267.167 482.5,274.5C 474.889,275.434 467.222,275.767 459.5,275.5C 459.5,282.833 459.5,290.167 459.5,297.5C 451.889,298.434 444.222,298.767 436.5,298.5C 436.666,305.508 436.5,312.508 436,319.5C 435.5,320 435,320.5 434.5,321C 427.508,321.5 420.508,321.666 413.5,321.5C 413.5,328.833 413.5,336.167 413.5,343.5C 420.833,343.5 428.167,343.5 435.5,343.5C 435.5,344.167 435.833,344.5 436.5,344.5C 436.5,366.833 436.5,389.167 436.5,411.5C 443.799,412.35 451.132,412.683 458.5,412.5C 458.5,413.167 458.833,413.5 459.5,413.5C 459.5,428.5 459.5,443.5 459.5,458.5C 453.077,458.209 446.744,458.542 440.5,459.5C 438.909,458.781 437.409,457.781 436,456.5C 435.828,449.654 435.328,442.987 434.5,436.5C 420.01,435.504 405.343,435.171 390.5,435.5C 390.672,434.508 390.338,433.842 389.5,433.5C 389.954,426.841 390.287,420.174 390.5,413.5C 375.149,413.692 359.816,413.359 344.5,412.5C 344.5,412.167 344.5,411.833 344.5,411.5C 343.538,404.588 343.205,397.588 343.5,390.5C 328.833,390.5 314.167,390.5 299.5,390.5C 299.5,389.833 299.167,389.5 298.5,389.5C 298.666,382.492 298.5,375.492 298,368.5C 296.178,366.955 294.011,366.288 291.5,366.5C 286.519,367.165 281.519,367.498 276.5,367.5C 276.764,374.89 276.43,382.223 275.5,389.5C 260.578,390.483 245.578,390.816 230.5,390.5C 230.5,397.5 230.5,404.5 230.5,411.5C 229.662,411.842 229.328,412.508 229.5,413.5C 214.709,413.459 199.709,413.459 184.5,413.5C 184.5,420.5 184.5,427.5 184.5,434.5C 183.833,434.5 183.5,434.833 183.5,435.5C 168.83,435.333 154.163,435.5 139.5,436C 138.574,443.29 138.241,450.457 138.5,457.5C 138.5,457.833 138.5,458.167 138.5,458.5C 130.58,458.815 122.747,458.482 115,457.5C 114.5,442.837 114.333,428.17 114.5,413.5C 115.492,413.672 116.158,413.338 116.5,412.5C 123.5,411.549 130.333,411.216 137,411.5C 137.343,389.16 137.843,366.826 138.5,344.5C 145.746,343.536 153.08,343.203 160.5,343.5C 161.833,336.167 161.833,328.833 160.5,321.5C 153.08,321.797 145.746,321.464 138.5,320.5C 137.536,313.254 137.203,305.92 137.5,298.5C 130.08,298.797 122.746,298.464 115.5,297.5C 115.666,290.492 115.5,283.492 115,276.5C 107.501,275.818 100.001,275.151 92.5,274.5C 92.6688,267.206 92.3355,259.873 91.5,252.5C 84.5,252.5 77.5,252.5 70.5,252.5C 70.5,251.833 70.1667,251.5 69.5,251.5C 68.3045,243.844 68.6378,236.344 70.5,229C 108.217,228.58 145.884,228.414 183.5,228.5C 183.203,221.08 183.536,213.746 184.5,206.5C 191.468,206.225 198.468,205.892 205.5,205.5C 206.199,198.111 206.865,190.778 207.5,183.5C 214.783,183.368 222.117,183.035 229.5,182.5C 229.422,167.462 229.755,152.462 230.5,137.5C 237.317,137.188 244.317,136.855 251.5,136.5C 252.499,121.848 252.833,107.182 252.5,92.5C 260.033,91.8828 267.533,91.2161 275,90.5C 275.5,75.8371 275.667,61.1705 275.5,46.5C 283.068,45.4464 290.734,45.4464 298.5,46.5 Z"/></g>
<g><path style="opacity:1" fill="#14130f" d="M 252.5,46.5 C 252.5,61.5 252.5,76.5 252.5,91.5C 245.167,91.5 237.833,91.5 230.5,91.5C 230.5,76.5 230.5,61.5 230.5,46.5C 237.833,46.5 245.167,46.5 252.5,46.5 Z"/></g>
<g><path style="opacity:1" fill="#fcc505" d="M 275.5,46.5 C 275.667,61.1705 275.5,75.8371 275,90.5C 267.533,91.2161 260.033,91.8828 252.5,92.5C 252.5,92.1667 252.5,91.8333 252.5,91.5C 253.496,76.676 253.829,61.676 253.5,46.5C 260.833,46.5 268.167,46.5 275.5,46.5 Z"/></g>
<g><path style="opacity:1" fill="#fcc202" d="M 298.5,46.5 C 306.167,46.5 313.833,46.5 321.5,46.5C 321.5,61.5 321.5,76.5 321.5,91.5C 314.167,91.5 306.833,91.5 299.5,91.5C 299.816,76.4219 299.483,61.4219 298.5,46.5 Z"/></g>
<g><path style="opacity:1" fill="#000100" d="M 232.5,48.5 C 238.5,48.5 244.5,48.5 250.5,48.5C 250.996,53.257 250.33,57.757 248.5,62C 248.645,62.772 248.978,63.4387 249.5,64C 248.167,64 246.833,64 245.5,64C 241.605,67.7878 237.939,71.7878 234.5,76C 236.343,80.7201 238.01,81.0535 239.5,77C 240.449,76.3828 241.282,76.5494 242,77.5C 242.49,76.2068 242.657,74.8734 242.5,73.5C 245.617,73.3577 248.117,72.0244 250,69.5C 250.5,76.4921 250.666,83.4921 250.5,90.5C 244.5,90.5 238.5,90.5 232.5,90.5C 232.5,76.5 232.5,62.5 232.5,48.5 Z"/></g>
<g><path style="opacity:1" fill="#270500" d="M 390.5,46.5 C 390.833,46.5 391.167,46.5 391.5,46.5C 391.5,47.1667 391.5,47.8333 391.5,48.5C 391.5,62.5 391.5,76.5 391.5,90.5C 393.5,90.5 395.5,90.5 397.5,90.5C 402.363,90.1805 407.03,90.5139 411.5,91.5C 404.5,91.5 397.5,91.5 390.5,91.5C 390.5,76.5 390.5,61.5 390.5,46.5 Z"/></g>
<g><path style="opacity:1" fill="#010102" d="M 391.5,48.5 C 397.833,48.5 404.167,48.5 410.5,48.5C 410.832,58.8548 410.499,69.1881 409.5,79.5C 404.875,83.3077 400.875,86.9744 397.5,90.5C 395.5,90.5 393.5,90.5 391.5,90.5C 391.5,76.5 391.5,62.5 391.5,48.5 Z"/></g>
<g><path style="opacity:0.541" fill="#a6a6a5" d="M 252.5,45.5 C 252.5,45.8333 252.5,46.1667 252.5,46.5C 245.167,46.5 237.833,46.5 230.5,46.5C 230.5,61.5 230.5,76.5 230.5,91.5C 230.167,91.5 229.833,91.5 229.5,91.5C 229.5,76.1667 229.5,60.8333 229.5,45.5C 237.167,45.5 244.833,45.5 252.5,45.5 Z"/></g>
<g><path style="opacity:1" fill="#fdfd07" d="M 344.5,46.5 C 351.833,46.5 359.167,46.5 366.5,46.5C 366.5,61.5 366.5,76.5 366.5,91.5C 359.167,91.5 351.833,91.5 344.5,91.5C 344.5,76.5 344.5,61.5 344.5,46.5 Z"/></g>
<g><path style="opacity:1" fill="#151202" d="M 321.5,46.5 C 328.833,46.5 336.167,46.5 343.5,46.5C 343.5,61.5 343.5,76.5 343.5,91.5C 336.167,91.5 328.833,91.5 321.5,91.5C 321.5,76.5 321.5,61.5 321.5,46.5 Z"/></g>
<g><path style="opacity:1" fill="#000001" d="M 322.5,48.5 C 328.833,48.5 335.167,48.5 341.5,48.5C 341.5,62.5 341.5,76.5 341.5,90.5C 335.167,90.5 328.833,90.5 322.5,90.5C 322.5,76.5 322.5,62.5 322.5,48.5 Z"/></g>
<g><path style="opacity:1" fill="#da7d06" d="M 367.5,45.5 C 374.5,45.5 381.5,45.5 388.5,45.5C 388.842,46.3382 389.508,46.6716 390.5,46.5C 390.5,61.5 390.5,76.5 390.5,91.5C 382.833,91.5 375.167,91.5 367.5,91.5C 367.5,76.1667 367.5,60.8333 367.5,45.5 Z"/></g>
<g><path style="opacity:1" fill="#fe7f00" d="M 368.5,47.5 C 375.5,47.5 382.5,47.5 389.5,47.5C 389.5,61.8333 389.5,76.1667 389.5,90.5C 382.5,90.5 375.5,90.5 368.5,90.5C 368.5,76.1667 368.5,61.8333 368.5,47.5 Z"/></g>
<g><path style="opacity:1" fill="#131415" d="M 391.5,46.5 C 398.5,46.5 405.5,46.5 412.5,46.5C 412.5,61.5 412.5,76.5 412.5,91.5C 412.167,91.5 411.833,91.5 411.5,91.5C 407.03,90.5139 402.363,90.1805 397.5,90.5C 400.875,86.9744 404.875,83.3077 409.5,79.5C 410.499,69.1881 410.832,58.8548 410.5,48.5C 404.167,48.5 397.833,48.5 391.5,48.5C 391.5,47.8333 391.5,47.1667 391.5,46.5 Z"/></g>
<g><path style="opacity:0.871" fill="#818181" d="M 389.5,23.5 C 389.833,23.5 390.167,23.5 390.5,23.5C 390.5,30.8333 390.5,38.1667 390.5,45.5C 398.167,45.5 405.833,45.5 413.5,45.5C 413.5,60.5 413.5,75.5 413.5,90.5C 420.791,91.3924 428.124,91.7257 435.5,91.5C 435.5,91.8333 435.5,92.1667 435.5,92.5C 428.167,92.5 420.833,92.5 413.5,92.5C 412.833,92.5 412.5,92.1667 412.5,91.5C 412.5,76.5 412.5,61.5 412.5,46.5C 405.5,46.5 398.5,46.5 391.5,46.5C 391.167,46.5 390.833,46.5 390.5,46.5C 389.508,46.6716 388.842,46.3382 388.5,45.5C 389.492,38.3524 389.825,31.0191 389.5,23.5 Z"/></g>
<g><path style="opacity:1" fill="#f6d30b" d="M 344.5,46.5 C 344.5,46.1667 344.5,45.8333 344.5,45.5C 352.167,45.5 359.833,45.5 367.5,45.5C 367.5,60.8333 367.5,76.1667 367.5,91.5C 367.167,91.5 366.833,91.5 366.5,91.5C 366.5,76.5 366.5,61.5 366.5,46.5C 359.167,46.5 351.833,46.5 344.5,46.5 Z"/></g>
<g><path style="opacity:1" fill="#6c6e02" d="M 298.5,46.5 C 298.5,46.1667 298.5,45.8333 298.5,45.5C 298.833,45.5 299.167,45.5 299.5,45.5C 306.833,45.5 314.167,45.5 321.5,45.5C 329.167,45.5 336.833,45.5 344.5,45.5C 344.5,45.8333 344.5,46.1667 344.5,46.5C 344.5,61.5 344.5,76.5 344.5,91.5C 344.167,91.5 343.833,91.5 343.5,91.5C 343.5,76.5 343.5,61.5 343.5,46.5C 336.167,46.5 328.833,46.5 321.5,46.5C 313.833,46.5 306.167,46.5 298.5,46.5 Z"/></g>
<g><path style="opacity:1" fill="#ae8d16" d="M 252.5,45.5 C 252.833,45.5 253.167,45.5 253.5,45.5C 260.833,45.5 268.167,45.5 275.5,45.5C 275.5,45.8333 275.5,46.1667 275.5,46.5C 268.167,46.5 260.833,46.5 253.5,46.5C 253.829,61.676 253.496,76.676 252.5,91.5C 252.5,76.5 252.5,61.5 252.5,46.5C 252.5,46.1667 252.5,45.8333 252.5,45.5 Z"/></g>
<g><path style="opacity:0.49" fill="#a9a9a9" d="M 229.5,91.5 C 229.5,91.8333 229.5,92.1667 229.5,92.5C 222.167,92.5 214.833,92.5 207.5,92.5C 207.5,107.167 207.5,121.833 207.5,136.5C 207.5,136.833 207.5,137.167 207.5,137.5C 207.167,137.5 206.833,137.5 206.5,137.5C 199.167,137.5 191.833,137.5 184.5,137.5C 191.648,136.508 198.981,136.175 206.5,136.5C 206.5,121.5 206.5,106.5 206.5,91.5C 214.167,91.5 221.833,91.5 229.5,91.5 Z"/></g>
<g><path style="opacity:0.608" fill="#b1b1b1" d="M 435.5,91.5 C 436.496,106.324 436.829,121.324 436.5,136.5C 444.019,136.175 451.352,136.508 458.5,137.5C 451.167,137.5 443.833,137.5 436.5,137.5C 435.833,137.5 435.5,137.167 435.5,136.5C 435.5,121.833 435.5,107.167 435.5,92.5C 435.5,92.1667 435.5,91.8333 435.5,91.5 Z"/></g>
<g><path style="opacity:1" fill="#030301" d="M 229.5,92.5 C 229.5,107.167 229.5,121.833 229.5,136.5C 222.167,136.5 214.833,136.5 207.5,136.5C 207.5,121.833 207.5,107.167 207.5,92.5C 214.833,92.5 222.167,92.5 229.5,92.5 Z"/></g>
<g><path style="opacity:1" fill="#907403" d="M 229.5,91.5 C 229.833,91.5 230.167,91.5 230.5,91.5C 237.833,91.5 245.167,91.5 252.5,91.5C 252.5,91.8333 252.5,92.1667 252.5,92.5C 245.167,92.5 237.833,92.5 230.5,92.5C 230.5,107.5 230.5,122.5 230.5,137.5C 222.833,137.5 215.167,137.5 207.5,137.5C 207.5,137.167 207.5,136.833 207.5,136.5C 214.833,136.5 222.167,136.5 229.5,136.5C 229.5,121.833 229.5,107.167 229.5,92.5C 229.5,92.1667 229.5,91.8333 229.5,91.5 Z"/></g>
<g><path style="opacity:1" fill="#fdc502" d="M 252.5,92.5 C 252.833,107.182 252.499,121.848 251.5,136.5C 244.317,136.855 237.317,137.188 230.5,137.5C 230.5,122.5 230.5,107.5 230.5,92.5C 237.833,92.5 245.167,92.5 252.5,92.5 Z"/></g>
<g><path style="opacity:1" fill="#fdc401" d="M 321.5,92.5 C 328.833,92.5 336.167,92.5 343.5,92.5C 343.5,107.167 343.5,121.833 343.5,136.5C 336.159,136.666 328.826,136.5 321.5,136C 321.534,121.709 321.534,107.209 321.5,92.5 Z"/></g>
<g><path style="opacity:1" fill="#cba610" d="M 321.5,92.5 C 321.5,92.1667 321.5,91.8333 321.5,91.5C 328.833,91.5 336.167,91.5 343.5,91.5C 343.833,91.5 344.167,91.5 344.5,91.5C 344.5,91.8333 344.5,92.1667 344.5,92.5C 344.5,107.167 344.5,121.833 344.5,136.5C 344.5,136.833 344.5,137.167 344.5,137.5C 343.833,137.5 343.5,137.167 343.5,136.5C 343.5,121.833 343.5,107.167 343.5,92.5C 336.167,92.5 328.833,92.5 321.5,92.5 Z"/></g>
<g><path style="opacity:1" fill="#010201" d="M 344.5,92.5 C 344.833,92.5 345.167,92.5 345.5,92.5C 351.645,93.4902 357.978,93.8235 364.5,93.5C 364.5,107.833 364.5,122.167 364.5,136.5C 357.833,136.5 351.167,136.5 344.5,136.5C 344.5,121.833 344.5,107.167 344.5,92.5 Z"/></g>
<g><path style="opacity:1" fill="#6d6b12" d="M 344.5,92.5 C 344.5,92.1667 344.5,91.8333 344.5,91.5C 351.833,91.5 359.167,91.5 366.5,91.5C 366.833,91.5 367.167,91.5 367.5,91.5C 367.5,91.8333 367.5,92.1667 367.5,92.5C 367.5,107.5 367.5,122.5 367.5,137.5C 359.833,137.5 352.167,137.5 344.5,137.5C 344.5,137.167 344.5,136.833 344.5,136.5C 351.167,136.5 357.833,136.5 364.5,136.5C 366.483,122.205 367.15,107.538 366.5,92.5C 359.5,92.5 352.5,92.5 345.5,92.5C 345.167,92.5 344.833,92.5 344.5,92.5 Z"/></g>
<g><path style="opacity:1" fill="#fdfc08" d="M 367.5,92.5 C 374.833,92.5 382.167,92.5 389.5,92.5C 389.5,107.5 389.5,122.5 389.5,137.5C 382.167,137.5 374.833,137.5 367.5,137.5C 367.5,122.5 367.5,107.5 367.5,92.5 Z"/></g>
<g><path style="opacity:1" fill="#fe8002" d="M 391.5,93.5 C 398.5,93.5 405.5,93.5 412.5,93.5C 412.5,107.833 412.5,122.167 412.5,136.5C 405.5,136.5 398.5,136.5 391.5,136.5C 391.5,122.167 391.5,107.833 391.5,93.5 Z"/></g>
<g><path style="opacity:1" fill="#c76b07" d="M 390.5,92.5 C 390.5,92.1667 390.5,91.8333 390.5,91.5C 397.5,91.5 404.5,91.5 411.5,91.5C 411.833,91.5 412.167,91.5 412.5,91.5C 412.5,92.1667 412.833,92.5 413.5,92.5C 413.5,107.167 413.5,121.833 413.5,136.5C 413.5,136.833 413.5,137.167 413.5,137.5C 413.167,137.5 412.833,137.5 412.5,137.5C 412.5,137.167 412.5,136.833 412.5,136.5C 412.5,122.167 412.5,107.833 412.5,93.5C 405.5,93.5 398.5,93.5 391.5,93.5C 391.5,92.8333 391.167,92.5 390.5,92.5 Z"/></g>
<g><path style="opacity:1" fill="#050402" d="M 413.5,92.5 C 420.833,92.5 428.167,92.5 435.5,92.5C 435.5,107.167 435.5,121.833 435.5,136.5C 428.167,136.5 420.833,136.5 413.5,136.5C 413.5,121.833 413.5,107.167 413.5,92.5 Z"/></g>
<g><path style="opacity:1" fill="#0f1301" d="M 345.5,92.5 C 352.5,92.5 359.5,92.5 366.5,92.5C 367.15,107.538 366.483,122.205 364.5,136.5C 364.5,122.167 364.5,107.833 364.5,93.5C 357.978,93.8235 351.645,93.4902 345.5,92.5 Z"/></g>
<g><path style="opacity:1" fill="#f49100" d="M 390.5,92.5 C 391.167,92.5 391.5,92.8333 391.5,93.5C 391.5,107.833 391.5,122.167 391.5,136.5C 398.5,136.5 405.5,136.5 412.5,136.5C 412.5,136.833 412.5,137.167 412.5,137.5C 405.167,137.5 397.833,137.5 390.5,137.5C 390.5,122.5 390.5,107.5 390.5,92.5 Z"/></g>
<g><path style="opacity:1" fill="#fede07" d="M 367.5,92.5 C 367.5,92.1667 367.5,91.8333 367.5,91.5C 375.167,91.5 382.833,91.5 390.5,91.5C 390.5,91.8333 390.5,92.1667 390.5,92.5C 390.5,107.5 390.5,122.5 390.5,137.5C 390.167,137.5 389.833,137.5 389.5,137.5C 389.5,122.5 389.5,107.5 389.5,92.5C 382.167,92.5 374.833,92.5 367.5,92.5 Z"/></g>
<g><path style="opacity:1" fill="#846500" d="M 206.5,137.5 C 206.833,137.5 207.167,137.5 207.5,137.5C 207.5,152.833 207.5,168.167 207.5,183.5C 199.833,183.5 192.167,183.5 184.5,183.5C 184.5,183.167 184.5,182.833 184.5,182.5C 191.833,182.5 199.167,182.5 206.5,182.5C 206.5,167.5 206.5,152.5 206.5,137.5 Z"/></g>
<g><path style="opacity:1" fill="#fcc403" d="M 207.5,137.5 C 215.167,137.5 222.833,137.5 230.5,137.5C 229.755,152.462 229.422,167.462 229.5,182.5C 222.117,183.035 214.783,183.368 207.5,183.5C 207.5,168.167 207.5,152.833 207.5,137.5 Z"/></g>
<g><path style="opacity:1" fill="#fdc402" d="M 344.5,138.5 C 351.833,138.5 359.167,138.5 366.5,138.5C 366.171,153.343 366.504,168.01 367.5,182.5C 367.5,182.833 367.5,183.167 367.5,183.5C 359.889,182.566 352.222,182.233 344.5,182.5C 344.5,167.833 344.5,153.167 344.5,138.5 Z"/></g>
<g><path style="opacity:1" fill="#656609" d="M 367.5,138.5 C 367.5,138.167 367.5,137.833 367.5,137.5C 374.833,137.5 382.167,137.5 389.5,137.5C 389.833,137.5 390.167,137.5 390.5,137.5C 390.5,137.833 390.5,138.167 390.5,138.5C 390.5,153.5 390.5,168.5 390.5,183.5C 382.833,183.5 375.167,183.5 367.5,183.5C 367.5,183.167 367.5,182.833 367.5,182.5C 374.833,182.5 382.167,182.5 389.5,182.5C 389.5,167.833 389.5,153.167 389.5,138.5C 382.167,138.5 374.833,138.5 367.5,138.5 Z"/></g>
<g><path style="opacity:1" fill="#e5e629" d="M 390.5,138.5 C 390.833,138.5 391.167,138.5 391.5,138.5C 391.5,153.167 391.5,167.833 391.5,182.5C 398.5,182.5 405.5,182.5 412.5,182.5C 412.833,182.5 413.167,182.5 413.5,182.5C 413.5,182.833 413.5,183.167 413.5,183.5C 405.833,183.5 398.167,183.5 390.5,183.5C 390.5,168.5 390.5,153.5 390.5,138.5 Z"/></g>
<g><path style="opacity:1" fill="#fefd01" d="M 391.5,138.5 C 398.5,138.5 405.5,138.5 412.5,138.5C 412.5,153.167 412.5,167.833 412.5,182.5C 405.5,182.5 398.5,182.5 391.5,182.5C 391.5,167.833 391.5,153.167 391.5,138.5 Z"/></g>
<g><path style="opacity:1" fill="#262926" d="M 436.5,137.5 C 443.833,137.5 451.167,137.5 458.5,137.5C 458.5,137.833 458.5,138.167 458.5,138.5C 453.4,138.429 448.4,139.096 443.5,140.5C 444.025,141.192 444.692,141.692 445.5,142C 444.833,142.167 444.167,142.333 443.5,142.5C 441.944,141.453 440.277,140.786 438.5,140.5C 438.657,141.873 438.49,143.207 438,144.5C 437.768,143.263 437.268,142.263 436.5,141.5C 436.5,140.167 436.5,138.833 436.5,137.5 Z"/></g>
<g><path style="opacity:1" fill="#010100" d="M 458.5,138.5 C 458.5,153.5 458.5,168.5 458.5,183.5C 458.611,184.117 458.944,184.617 459.5,185C 466.524,185.169 473.524,185.669 480.5,186.5C 476.415,189.743 476.582,192.743 481,195.5C 482.054,194.518 482.554,193.351 482.5,192C 483.448,191.517 484.448,191.351 485.5,191.5C 485.22,188.612 486.553,187.112 489.5,187C 539.499,186.5 589.499,186.333 639.5,186.5C 639.666,193.508 639.5,200.508 639,207.5C 635.783,210.38 632.95,213.547 630.5,217C 631.292,218.96 632.625,220.46 634.5,221.5C 635.938,219.002 635.604,216.836 633.5,215C 634.784,214.316 635.951,214.483 637,215.5C 638.935,218.907 639.768,222.574 639.5,226.5C 633.5,226.5 627.5,226.5 621.5,226.5C 622.128,219.087 621.461,212.087 619.5,205.5C 603.991,205.17 588.658,205.504 573.5,206.5C 572.833,206.5 572.5,206.833 572.5,207.5C 570.544,213.412 569.877,219.745 570.5,226.5C 564.5,226.5 558.5,226.5 552.5,226.5C 552.375,220.797 552.708,215.13 553.5,209.5C 558.833,209.167 558.833,208.833 553.5,208.5C 553.5,207.167 553.5,205.833 553.5,204.5C 499.863,203.513 446.196,203.18 392.5,203.5C 392.335,199.818 392.501,196.152 393,192.5C 393.915,190.02 395.415,189.353 397.5,190.5C 398.5,189.5 399.5,188.5 400.5,187.5C 412.152,186.667 423.819,186.167 435.5,186C 436.252,185.329 436.586,184.496 436.5,183.5C 436.5,169.5 436.5,155.5 436.5,141.5C 437.268,142.263 437.768,143.263 438,144.5C 438.49,143.207 438.657,141.873 438.5,140.5C 440.277,140.786 441.944,141.453 443.5,142.5C 444.167,142.333 444.833,142.167 445.5,142C 444.692,141.692 444.025,141.192 443.5,140.5C 448.4,139.096 453.4,138.429 458.5,138.5 Z"/></g>
<g><path style="opacity:1" fill="#040402" d="M 184.5,137.5 C 191.833,137.5 199.167,137.5 206.5,137.5C 206.5,152.5 206.5,167.5 206.5,182.5C 199.167,182.5 191.833,182.5 184.5,182.5C 184.5,167.5 184.5,152.5 184.5,137.5 Z"/></g>
<g><path style="opacity:1" fill="#f8d701" d="M 390.5,138.5 C 390.5,138.167 390.5,137.833 390.5,137.5C 397.833,137.5 405.167,137.5 412.5,137.5C 412.833,137.5 413.167,137.5 413.5,137.5C 413.5,137.833 413.5,138.167 413.5,138.5C 413.5,153.167 413.5,167.833 413.5,182.5C 413.167,182.5 412.833,182.5 412.5,182.5C 412.5,167.833 412.5,153.167 412.5,138.5C 405.5,138.5 398.5,138.5 391.5,138.5C 391.167,138.5 390.833,138.5 390.5,138.5 Z"/></g>
<g><path style="opacity:1" fill="#caa011" d="M 344.5,138.5 C 344.5,138.167 344.5,137.833 344.5,137.5C 352.167,137.5 359.833,137.5 367.5,137.5C 367.5,137.833 367.5,138.167 367.5,138.5C 367.5,153.167 367.5,167.833 367.5,182.5C 366.504,168.01 366.171,153.343 366.5,138.5C 359.167,138.5 351.833,138.5 344.5,138.5 Z"/></g>
<g><path style="opacity:1" fill="#111204" d="M 367.5,138.5 C 374.833,138.5 382.167,138.5 389.5,138.5C 389.5,153.167 389.5,167.833 389.5,182.5C 382.167,182.5 374.833,182.5 367.5,182.5C 367.5,167.833 367.5,153.167 367.5,138.5 Z"/></g>
<g><path style="opacity:1" fill="#000101" d="M 369.5,139.5 C 375.5,139.5 381.5,139.5 387.5,139.5C 387.5,153.167 387.5,166.833 387.5,180.5C 381.5,180.5 375.5,180.5 369.5,180.5C 369.5,166.833 369.5,153.167 369.5,139.5 Z"/></g>
<g><path style="opacity:1" fill="#f28613" d="M 413.5,138.5 C 420.833,138.5 428.167,138.5 435.5,138.5C 435.829,153.343 435.496,168.01 434.5,182.5C 434.5,168.167 434.5,153.833 434.5,139.5C 427.833,139.5 421.167,139.5 414.5,139.5C 414.5,153.833 414.5,168.167 414.5,182.5C 414.167,182.5 413.833,182.5 413.5,182.5C 413.5,167.833 413.5,153.167 413.5,138.5 Z"/></g>
<g><path style="opacity:1" fill="#fe7f03" d="M 434.5,182.5 C 427.833,182.5 421.167,182.5 414.5,182.5C 414.5,168.167 414.5,153.833 414.5,139.5C 421.167,139.5 427.833,139.5 434.5,139.5C 434.5,153.833 434.5,168.167 434.5,182.5 Z"/></g>
<g><path style="opacity:1" fill="#a25508" d="M 413.5,136.5 C 420.833,136.5 428.167,136.5 435.5,136.5C 435.5,137.167 435.833,137.5 436.5,137.5C 436.5,138.833 436.5,140.167 436.5,141.5C 436.5,155.5 436.5,169.5 436.5,183.5C 428.833,183.5 421.167,183.5 413.5,183.5C 413.5,183.167 413.5,182.833 413.5,182.5C 413.833,182.5 414.167,182.5 414.5,182.5C 421.167,182.5 427.833,182.5 434.5,182.5C 435.496,168.01 435.829,153.343 435.5,138.5C 428.167,138.5 420.833,138.5 413.5,138.5C 413.5,138.167 413.5,137.833 413.5,137.5C 413.5,137.167 413.5,136.833 413.5,136.5 Z"/></g>
<g><path style="opacity:0.278" fill="#c2c2c1" d="M 184.5,137.5 C 184.5,152.5 184.5,167.5 184.5,182.5C 184.5,182.833 184.5,183.167 184.5,183.5C 184.167,183.5 183.833,183.5 183.5,183.5C 122.833,183.5 62.1667,183.5 1.5,183.5C 1.16667,183.5 0.833333,183.5 0.5,183.5C 61.3311,182.501 122.331,182.168 183.5,182.5C 183.171,167.324 183.504,152.324 184.5,137.5 Z"/></g>
<g><path style="opacity:0.292" fill="#c1c1c2" d="M 458.5,137.5 C 459.496,152.324 459.829,167.324 459.5,182.5C 520.5,182.5 581.5,182.5 642.5,182.5C 642.5,182.833 642.5,183.167 642.5,183.5C 642.167,183.5 641.833,183.5 641.5,183.5C 580.5,183.5 519.5,183.5 458.5,183.5C 458.5,168.5 458.5,153.5 458.5,138.5C 458.5,138.167 458.5,137.833 458.5,137.5 Z"/></g>
<g><path style="opacity:1" fill="#fbc503" d="M 184.5,183.5 C 192.167,183.5 199.833,183.5 207.5,183.5C 206.865,190.778 206.199,198.111 205.5,205.5C 198.468,205.892 191.468,206.225 184.5,206.5C 184.5,198.833 184.5,191.167 184.5,183.5 Z"/></g>
<g><path style="opacity:1" fill="#252903" d="M 390.5,184.5 C 390.5,184.167 390.5,183.833 390.5,183.5C 398.167,183.5 405.833,183.5 413.5,183.5C 413.389,184.117 413.056,184.617 412.5,185C 405.087,185.796 397.754,185.63 390.5,184.5 Z"/></g>
<g><path style="opacity:1" fill="#747373" d="M 0.5,183.5 C 0.833333,183.5 1.16667,183.5 1.5,183.5C 1.5,198.5 1.5,213.5 1.5,228.5C 8.83333,228.5 16.1667,228.5 23.5,228.5C 23.8333,228.5 24.1667,228.5 24.5,228.5C 24.5,228.833 24.5,229.167 24.5,229.5C 24.5,229.833 24.5,230.167 24.5,230.5C 24.5,237.5 24.5,244.5 24.5,251.5C 31.5,251.5 38.5,251.5 45.5,251.5C 45.8333,251.5 46.1667,251.5 46.5,251.5C 46.5,251.833 46.5,252.167 46.5,252.5C 45.5,252.5 44.5,252.5 43.5,252.5C 36.8333,252.5 30.1667,252.5 23.5,252.5C 23.5,245.5 23.5,238.5 23.5,231.5C 16.5762,229.537 9.24283,228.87 1.5,229.5C 0.833333,227.5 0.166667,225.5 -0.5,223.5C -0.5,223.167 -0.5,222.833 -0.5,222.5C 0.833333,221.833 0.833333,221.167 -0.5,220.5C -0.5,220.167 -0.5,219.833 -0.5,219.5C 0.495077,207.678 0.82841,195.678 0.5,183.5 Z"/></g>
<g><path style="opacity:1" fill="#191818" d="M 458.5,183.5 C 519.5,183.5 580.5,183.5 641.5,183.5C 641.5,198.5 641.5,213.5 641.5,228.5C 634.167,228.5 626.833,228.5 619.5,228.5C 619.5,220.833 619.5,213.167 619.5,205.5C 621.461,212.087 622.128,219.087 621.5,226.5C 627.5,226.5 633.5,226.5 639.5,226.5C 639.768,222.574 638.935,218.907 637,215.5C 635.951,214.483 634.784,214.316 633.5,215C 635.604,216.836 635.938,219.002 634.5,221.5C 632.625,220.46 631.292,218.96 630.5,217C 632.95,213.547 635.783,210.38 639,207.5C 639.5,200.508 639.666,193.508 639.5,186.5C 589.499,186.333 539.499,186.5 489.5,187C 486.553,187.112 485.22,188.612 485.5,191.5C 484.448,191.351 483.448,191.517 482.5,192C 482.554,193.351 482.054,194.518 481,195.5C 476.582,192.743 476.415,189.743 480.5,186.5C 473.524,185.669 466.524,185.169 459.5,185C 458.944,184.617 458.611,184.117 458.5,183.5 Z"/></g>
<g><path style="opacity:1" fill="#000000" d="M 181.5,186.5 C 181.5,192.167 181.5,197.833 181.5,203.5C 159.5,203.5 137.5,203.5 115.5,203.5C 121.739,198.759 126.739,192.925 130.5,186C 147.672,185.172 164.672,185.338 181.5,186.5 Z"/></g>
<g><path style="opacity:1" fill="#70706f" d="M 641.5,183.5 C 641.833,183.5 642.167,183.5 642.5,183.5C 642.5,198.833 642.5,214.167 642.5,229.5C 642.167,229.5 641.833,229.5 641.5,229.5C 634.167,229.5 626.833,229.5 619.5,229.5C 619.5,236.833 619.5,244.167 619.5,251.5C 614.433,252.188 609.267,252.855 604,253.5C 602.989,252.663 601.822,252.33 600.5,252.5C 599.167,252.5 597.833,252.5 596.5,252.5C 596.5,260.167 596.5,267.833 596.5,275.5C 589.167,275.5 581.833,275.5 574.5,275.5C 573.833,282.833 573.167,290.167 572.5,297.5C 572.5,290.167 572.5,282.833 572.5,275.5C 572.5,275.167 572.5,274.833 572.5,274.5C 572.833,274.5 573.167,274.5 573.5,274.5C 573.833,274.5 574.167,274.5 574.5,274.5C 581.5,274.5 588.5,274.5 595.5,274.5C 595.5,267.167 595.5,259.833 595.5,252.5C 595.5,252.167 595.5,251.833 595.5,251.5C 595.833,251.5 596.167,251.5 596.5,251.5C 596.833,251.5 597.167,251.5 597.5,251.5C 604.5,251.5 611.5,251.5 618.5,251.5C 618.5,244.5 618.5,237.5 618.5,230.5C 618.5,230.167 618.5,229.833 618.5,229.5C 618.5,229.167 618.5,228.833 618.5,228.5C 618.833,228.5 619.167,228.5 619.5,228.5C 626.833,228.5 634.167,228.5 641.5,228.5C 641.5,213.5 641.5,198.5 641.5,183.5 Z"/></g>
<g><path style="opacity:1" fill="#f9c406" d="M 367.5,183.5 C 375.167,183.5 382.833,183.5 390.5,183.5C 390.5,183.833 390.5,184.167 390.5,184.5C 390.5,191.5 390.5,198.5 390.5,205.5C 390.5,205.833 390.5,206.167 390.5,206.5C 383.022,206.802 375.688,206.468 368.5,205.5C 367.503,198.197 367.169,190.863 367.5,183.5 Z"/></g>
<g><path style="opacity:1" fill="#0c0d01" d="M 183.5,184.5 C 183.5,191.5 183.5,198.5 183.5,205.5C 130.167,205.5 76.8333,205.5 23.5,205.5C 23.5,212.833 23.5,220.167 23.5,227.5C 21.5159,227.516 20.5159,226.516 20.5,224.5C 21.5689,219.2 21.7356,213.866 21,208.5C 20.237,211.063 19.737,211.063 19.5,208.5C 20.8214,206.668 21.8214,204.668 22.5,202.5C 25.2163,201.799 27.5496,200.465 29.5,198.5C 29.7035,200.39 29.0368,201.89 27.5,203C 55.1647,203.5 82.8313,203.667 110.5,203.5C 112.167,203.5 113.833,203.5 115.5,203.5C 137.5,203.5 159.5,203.5 181.5,203.5C 181.5,197.833 181.5,192.167 181.5,186.5C 182.167,185.833 182.833,185.167 183.5,184.5 Z"/></g>
<g><path style="opacity:1" fill="#0f0d03" d="M 413.5,183.5 C 421.167,183.5 428.833,183.5 436.5,183.5C 436.586,184.496 436.252,185.329 435.5,186C 423.819,186.167 412.152,186.667 400.5,187.5C 399.5,188.5 398.5,189.5 397.5,190.5C 395.415,189.353 393.915,190.02 393,192.5C 392.501,196.152 392.335,199.818 392.5,203.5C 446.196,203.18 499.863,203.513 553.5,204.5C 553.5,205.833 553.5,207.167 553.5,208.5C 558.833,208.833 558.833,209.167 553.5,209.5C 552.708,215.13 552.375,220.797 552.5,226.5C 558.5,226.5 564.5,226.5 570.5,226.5C 569.877,219.745 570.544,213.412 572.5,207.5C 572.5,214.5 572.5,221.5 572.5,228.5C 565.5,228.5 558.5,228.5 551.5,228.5C 551.825,220.981 551.492,213.648 550.5,206.5C 497.336,205.501 444.003,205.168 390.5,205.5C 390.5,198.5 390.5,191.5 390.5,184.5C 397.754,185.63 405.087,185.796 412.5,185C 413.056,184.617 413.389,184.117 413.5,183.5 Z"/></g>
<g><path style="opacity:1" fill="#705601" d="M 183.5,183.5 C 183.833,183.5 184.167,183.5 184.5,183.5C 184.5,191.167 184.5,198.833 184.5,206.5C 131.167,206.5 77.8333,206.5 24.5,206.5C 24.5,213.833 24.5,221.167 24.5,228.5C 24.1667,228.5 23.8333,228.5 23.5,228.5C 23.5,228.167 23.5,227.833 23.5,227.5C 23.5,220.167 23.5,212.833 23.5,205.5C 76.8333,205.5 130.167,205.5 183.5,205.5C 183.5,198.5 183.5,191.5 183.5,184.5C 183.5,184.167 183.5,183.833 183.5,183.5 Z"/></g>
<g><path style="opacity:1" fill="#b4920b" d="M 390.5,205.5 C 444.003,205.168 497.336,205.501 550.5,206.5C 550.5,214.167 550.5,221.833 550.5,229.5C 550.167,229.5 549.833,229.5 549.5,229.5C 542.167,229.5 534.833,229.5 527.5,229.5C 534.648,228.508 541.981,228.175 549.5,228.5C 549.5,221.5 549.5,214.5 549.5,207.5C 496.5,207.5 443.5,207.5 390.5,207.5C 390.5,207.167 390.5,206.833 390.5,206.5C 390.5,206.167 390.5,205.833 390.5,205.5 Z"/></g>
<g><path style="opacity:1" fill="#fcc202" d="M 184.5,206.5 C 183.536,213.746 183.203,221.08 183.5,228.5C 145.884,228.414 108.217,228.58 70.5,229C 68.6378,236.344 68.3045,243.844 69.5,251.5C 62.1667,251.5 54.8333,251.5 47.5,251.5C 47.825,243.981 47.4916,236.648 46.5,229.5C 39.1667,229.5 31.8333,229.5 24.5,229.5C 24.5,229.167 24.5,228.833 24.5,228.5C 24.5,221.167 24.5,213.833 24.5,206.5C 77.8333,206.5 131.167,206.5 184.5,206.5 Z"/></g>
<g><path style="opacity:1" fill="#fcc401" d="M 390.5,207.5 C 443.5,207.5 496.5,207.5 549.5,207.5C 549.5,214.5 549.5,221.5 549.5,228.5C 541.981,228.175 534.648,228.508 527.5,229.5C 527.5,236.833 527.5,244.167 527.5,251.5C 520.167,251.5 512.833,251.5 505.5,251.5C 505.731,243.791 505.398,236.124 504.5,228.5C 466.466,229.101 428.466,229.101 390.5,228.5C 390.5,221.5 390.5,214.5 390.5,207.5 Z"/></g>
<g><path style="opacity:1" fill="#fcfb04" d="M 573.5,206.5 C 580.833,206.5 588.167,206.5 595.5,206.5C 595.5,213.833 595.5,221.167 595.5,228.5C 588.167,228.5 580.833,228.5 573.5,228.5C 573.5,221.167 573.5,213.833 573.5,206.5 Z"/></g>
<g><path style="opacity:1" fill="#f97d03" d="M 596.5,206.5 C 603.833,206.5 611.167,206.5 618.5,206.5C 618.5,213.833 618.5,221.167 618.5,228.5C 618.5,228.833 618.5,229.167 618.5,229.5C 611.167,229.5 603.833,229.5 596.5,229.5C 596.5,221.833 596.5,214.167 596.5,206.5 Z"/></g>
<g><path style="opacity:1" fill="#91550c" d="M 573.5,206.5 C 588.658,205.504 603.991,205.17 619.5,205.5C 619.5,213.167 619.5,220.833 619.5,228.5C 619.167,228.5 618.833,228.5 618.5,228.5C 618.5,221.167 618.5,213.833 618.5,206.5C 611.167,206.5 603.833,206.5 596.5,206.5C 596.167,206.5 595.833,206.5 595.5,206.5C 588.167,206.5 580.833,206.5 573.5,206.5 Z"/></g>
<g><path style="opacity:1" fill="#161716" d="M 1.5,183.5 C 62.1667,183.5 122.833,183.5 183.5,183.5C 183.5,183.833 183.5,184.167 183.5,184.5C 182.833,185.167 182.167,185.833 181.5,186.5C 164.672,185.338 147.672,185.172 130.5,186C 126.739,192.925 121.739,198.759 115.5,203.5C 113.833,203.5 112.167,203.5 110.5,203.5C 109.314,201.806 109.481,200.139 111,198.5C 115.345,194.655 119.512,190.655 123.5,186.5C 83.5056,185.5 43.5056,185.167 3.5,185.5C 3.33351,195.839 3.50017,206.172 4,216.5C 10.76,209.562 17.26,203.228 23.5,197.5C 24.325,196.614 25.325,196.281 26.5,196.5C 27.6144,191.371 28.281,191.371 28.5,196.5C 29.9778,196.238 31.3112,196.571 32.5,197.5C 31.675,198.386 30.675,198.719 29.5,198.5C 27.5496,200.465 25.2163,201.799 22.5,202.5C 21.8214,204.668 20.8214,206.668 19.5,208.5C 19.737,211.063 20.237,211.063 21,208.5C 21.7356,213.866 21.5689,219.2 20.5,224.5C 20.5159,226.516 21.5159,227.516 23.5,227.5C 23.5,227.833 23.5,228.167 23.5,228.5C 16.1667,228.5 8.83333,228.5 1.5,228.5C 1.5,213.5 1.5,198.5 1.5,183.5 Z"/></g>
<g><path style="opacity:1" fill="#000100" d="M 110.5,203.5 C 82.8313,203.667 55.1647,203.5 27.5,203C 29.0368,201.89 29.7035,200.39 29.5,198.5C 30.675,198.719 31.675,198.386 32.5,197.5C 31.3112,196.571 29.9778,196.238 28.5,196.5C 28.281,191.371 27.6144,191.371 26.5,196.5C 25.325,196.281 24.325,196.614 23.5,197.5C 17.26,203.228 10.76,209.562 4,216.5C 3.50017,206.172 3.33351,195.839 3.5,185.5C 43.5056,185.167 83.5056,185.5 123.5,186.5C 119.512,190.655 115.345,194.655 111,198.5C 109.481,200.139 109.314,201.806 110.5,203.5 Z"/></g>
<g><path style="opacity:1" fill="#5b5a00" d="M 550.5,206.5 C 551.492,213.648 551.825,220.981 551.5,228.5C 558.5,228.5 565.5,228.5 572.5,228.5C 572.5,221.5 572.5,214.5 572.5,207.5C 572.5,206.833 572.833,206.5 573.5,206.5C 573.5,213.833 573.5,221.167 573.5,228.5C 573.5,228.833 573.5,229.167 573.5,229.5C 565.833,229.5 558.167,229.5 550.5,229.5C 550.5,221.833 550.5,214.167 550.5,206.5 Z"/></g>
<g><path style="opacity:1" fill="#fed510" d="M 595.5,206.5 C 595.833,206.5 596.167,206.5 596.5,206.5C 596.5,214.167 596.5,221.833 596.5,229.5C 588.833,229.5 581.167,229.5 573.5,229.5C 573.5,229.167 573.5,228.833 573.5,228.5C 580.833,228.5 588.167,228.5 595.5,228.5C 595.5,221.167 595.5,213.833 595.5,206.5 Z"/></g>
<g><path style="opacity:0.061" fill="#e2e4e5" d="M 1.5,229.5 C 9.24283,228.87 16.5762,229.537 23.5,231.5C 16.067,230.864 8.73362,230.198 1.5,229.5 Z"/></g>
<g><path style="opacity:1" fill="#393001" d="M 527.5,229.5 C 534.833,229.5 542.167,229.5 549.5,229.5C 549.5,229.833 549.5,230.167 549.5,230.5C 542.809,230.454 536.143,230.788 529.5,231.5C 528.724,238.137 528.391,244.804 528.5,251.5C 528.167,251.5 527.833,251.5 527.5,251.5C 527.5,244.167 527.5,236.833 527.5,229.5 Z"/></g>
<g><path style="opacity:1" fill="#fb8001" d="M 573.5,229.5 C 581.167,229.5 588.833,229.5 596.5,229.5C 596.5,236.833 596.5,244.167 596.5,251.5C 596.167,251.5 595.833,251.5 595.5,251.5C 588.167,251.5 580.833,251.5 573.5,251.5C 573.5,244.167 573.5,236.833 573.5,229.5 Z"/></g>
<g><path style="opacity:1" fill="#040300" d="M 549.5,230.5 C 549.5,237.5 549.5,244.5 549.5,251.5C 542.5,251.5 535.5,251.5 528.5,251.5C 528.391,244.804 528.724,238.137 529.5,231.5C 536.143,230.788 542.809,230.454 549.5,230.5 Z"/></g>
<g><path style="opacity:1" fill="#ebdc18" d="M 550.5,229.5 C 558.167,229.5 565.833,229.5 573.5,229.5C 573.5,236.833 573.5,244.167 573.5,251.5C 573.5,251.833 573.5,252.167 573.5,252.5C 565.833,252.5 558.167,252.5 550.5,252.5C 550.5,244.833 550.5,237.167 550.5,229.5 Z"/></g>
<g><path style="opacity:1" fill="#fdfe03" d="M 551.5,230.5 C 558.5,230.5 565.5,230.5 572.5,230.5C 572.5,237.5 572.5,244.5 572.5,251.5C 565.5,251.5 558.5,251.5 551.5,251.5C 551.5,244.5 551.5,237.5 551.5,230.5 Z"/></g>
<g><path style="opacity:1" fill="#452000" d="M 596.5,229.5 C 603.833,229.5 611.167,229.5 618.5,229.5C 618.5,229.833 618.5,230.167 618.5,230.5C 611.5,230.5 604.5,230.5 597.5,230.5C 597.5,237.5 597.5,244.5 597.5,251.5C 597.167,251.5 596.833,251.5 596.5,251.5C 596.5,244.167 596.5,236.833 596.5,229.5 Z"/></g>
<g><path style="opacity:1" fill="#040302" d="M 618.5,230.5 C 618.5,237.5 618.5,244.5 618.5,251.5C 611.5,251.5 604.5,251.5 597.5,251.5C 597.5,244.5 597.5,237.5 597.5,230.5C 604.5,230.5 611.5,230.5 618.5,230.5 Z"/></g>
<g><path style="opacity:0.031" fill="#e8e7e8" d="M 641.5,229.5 C 634.687,230.491 627.687,230.825 620.5,230.5C 620.825,237.687 620.491,244.687 619.5,251.5C 619.5,244.167 619.5,236.833 619.5,229.5C 626.833,229.5 634.167,229.5 641.5,229.5 Z"/></g>
<g><path style="opacity:1" fill="#030302" d="M 24.5,230.5 C 31.5,230.5 38.5,230.5 45.5,230.5C 45.5,237.5 45.5,244.5 45.5,251.5C 45.5,244.5 45.5,237.5 45.5,230.5C 38.5,230.5 31.5,230.5 24.5,230.5 Z"/></g>
<g><path style="opacity:1" fill="#362c00" d="M 24.5,230.5 C 24.5,230.167 24.5,229.833 24.5,229.5C 31.8333,229.5 39.1667,229.5 46.5,229.5C 46.5,236.833 46.5,244.167 46.5,251.5C 46.1667,251.5 45.8333,251.5 45.5,251.5C 45.5,244.5 45.5,237.5 45.5,230.5C 38.5,230.5 31.5,230.5 24.5,230.5 Z"/></g>
<g><path style="opacity:1" fill="#ab8d13" d="M 46.5,229.5 C 47.4916,236.648 47.825,243.981 47.5,251.5C 54.8333,251.5 62.1667,251.5 69.5,251.5C 70.1667,251.5 70.5,251.833 70.5,252.5C 70.5,259.833 70.5,267.167 70.5,274.5C 77.8333,274.5 85.1667,274.5 92.5,274.5C 92.5,274.833 92.5,275.167 92.5,275.5C 85.1667,275.5 77.8333,275.5 70.5,275.5C 70.1667,275.5 69.8333,275.5 69.5,275.5C 69.5,275.167 69.5,274.833 69.5,274.5C 69.5,267.167 69.5,259.833 69.5,252.5C 62.8333,252.5 56.1667,252.5 49.5,252.5C 48.8333,252.5 48.1667,252.5 47.5,252.5C 47.1667,252.5 46.8333,252.5 46.5,252.5C 46.5,252.167 46.5,251.833 46.5,251.5C 46.5,244.167 46.5,236.833 46.5,229.5 Z"/></g>
<g><path style="opacity:1" fill="#7a7502" d="M 549.5,229.5 C 549.833,229.5 550.167,229.5 550.5,229.5C 550.5,237.167 550.5,244.833 550.5,252.5C 542.833,252.5 535.167,252.5 527.5,252.5C 519.833,252.5 512.167,252.5 504.5,252.5C 504.5,252.167 504.5,251.833 504.5,251.5C 504.833,251.5 505.167,251.5 505.5,251.5C 512.833,251.5 520.167,251.5 527.5,251.5C 527.833,251.5 528.167,251.5 528.5,251.5C 535.5,251.5 542.5,251.5 549.5,251.5C 549.5,244.5 549.5,237.5 549.5,230.5C 549.5,230.167 549.5,229.833 549.5,229.5 Z"/></g>
<g><path style="opacity:1" fill="#fcc401" d="M 70.5,252.5 C 77.5,252.5 84.5,252.5 91.5,252.5C 92.3355,259.873 92.6688,267.206 92.5,274.5C 85.1667,274.5 77.8333,274.5 70.5,274.5C 70.5,267.167 70.5,259.833 70.5,252.5 Z"/></g>
<g><path style="opacity:1" fill="#fcc302" d="M 504.5,251.5 C 504.5,251.833 504.5,252.167 504.5,252.5C 504.5,259.833 504.5,267.167 504.5,274.5C 497.167,274.5 489.833,274.5 482.5,274.5C 482.5,267.167 482.5,259.833 482.5,252.5C 489.92,252.797 497.254,252.464 504.5,251.5 Z"/></g>
<g><path style="opacity:1" fill="#3a2e08" d="M 49.5,252.5 C 56.1667,252.5 62.8333,252.5 69.5,252.5C 69.5,259.833 69.5,267.167 69.5,274.5C 69.1667,274.5 68.8333,274.5 68.5,274.5C 68.5,267.5 68.5,260.5 68.5,253.5C 61.9779,253.823 55.6446,253.49 49.5,252.5 Z"/></g>
<g><path style="opacity:1" fill="#fbfb05" d="M 527.5,252.5 C 535.167,252.5 542.833,252.5 550.5,252.5C 550.5,259.833 550.5,267.167 550.5,274.5C 542.833,274.5 535.167,274.5 527.5,274.5C 527.5,267.167 527.5,259.833 527.5,252.5 Z"/></g>
<g><path style="opacity:1" fill="#fc7f01" d="M 550.5,252.5 C 558.167,252.5 565.833,252.5 573.5,252.5C 573.5,259.833 573.5,267.167 573.5,274.5C 573.167,274.5 572.833,274.5 572.5,274.5C 565.167,274.5 557.833,274.5 550.5,274.5C 550.5,267.167 550.5,259.833 550.5,252.5 Z"/></g>
<g><path style="opacity:0.124" fill="#dcdede" d="M 600.5,252.5 C 599.791,253.404 598.791,253.737 597.5,253.5C 597.825,261.019 597.492,268.352 596.5,275.5C 596.5,267.833 596.5,260.167 596.5,252.5C 597.833,252.5 599.167,252.5 600.5,252.5 Z"/></g>
<g><path style="opacity:1" fill="#080606" d="M 47.5,252.5 C 48.1667,252.5 48.8333,252.5 49.5,252.5C 55.6446,253.49 61.9779,253.823 68.5,253.5C 68.5,260.5 68.5,267.5 68.5,274.5C 61.5,274.5 54.5,274.5 47.5,274.5C 47.5,267.167 47.5,259.833 47.5,252.5 Z"/></g>
<g><path style="opacity:1" fill="#504803" d="M 504.5,252.5 C 512.167,252.5 519.833,252.5 527.5,252.5C 527.5,259.833 527.5,267.167 527.5,274.5C 527.5,274.833 527.5,275.167 527.5,275.5C 519.833,275.5 512.167,275.5 504.5,275.5C 497.167,275.5 489.833,275.5 482.5,275.5C 482.5,275.167 482.5,274.833 482.5,274.5C 489.833,274.5 497.167,274.5 504.5,274.5C 504.5,267.167 504.5,259.833 504.5,252.5 Z"/></g>
<g><path style="opacity:1" fill="#030201" d="M 505.5,253.5 C 512.5,253.5 519.5,253.5 526.5,253.5C 526.5,260.5 526.5,267.5 526.5,274.5C 519.5,274.5 512.5,274.5 505.5,274.5C 505.5,267.5 505.5,260.5 505.5,253.5 Z"/></g>
<g><path style="opacity:0.019" fill="#e8e9ec" d="M 43.5,252.5 C 44.5,252.5 45.5,252.5 46.5,252.5C 46.5,259.833 46.5,267.167 46.5,274.5C 46.095,267.077 45.095,259.743 43.5,252.5 Z"/></g>
<g><path style="opacity:1" fill="#733205" d="M 573.5,251.5 C 580.833,251.5 588.167,251.5 595.5,251.5C 595.5,251.833 595.5,252.167 595.5,252.5C 588.5,252.5 581.5,252.5 574.5,252.5C 574.5,259.833 574.5,267.167 574.5,274.5C 574.167,274.5 573.833,274.5 573.5,274.5C 573.5,267.167 573.5,259.833 573.5,252.5C 573.5,252.167 573.5,251.833 573.5,251.5 Z"/></g>
<g><path style="opacity:1" fill="#0d0b09" d="M 595.5,252.5 C 595.5,259.833 595.5,267.167 595.5,274.5C 588.5,274.5 581.5,274.5 574.5,274.5C 574.5,267.167 574.5,259.833 574.5,252.5C 581.5,252.5 588.5,252.5 595.5,252.5 Z"/></g>
<g><path style="opacity:1" fill="#757475" d="M 46.5,252.5 C 46.8333,252.5 47.1667,252.5 47.5,252.5C 47.5,259.833 47.5,267.167 47.5,274.5C 54.5,274.5 61.5,274.5 68.5,274.5C 68.8333,274.5 69.1667,274.5 69.5,274.5C 69.5,274.833 69.5,275.167 69.5,275.5C 69.1667,275.5 68.8333,275.5 68.5,275.5C 60.9809,275.825 53.6476,275.492 46.5,274.5C 46.5,267.167 46.5,259.833 46.5,252.5 Z"/></g>
<g><path style="opacity:1" fill="#fcc403" d="M 92.5,274.5 C 100.001,275.151 107.501,275.818 115,276.5C 115.5,283.492 115.666,290.492 115.5,297.5C 107.833,297.5 100.167,297.5 92.5,297.5C 92.5,290.167 92.5,282.833 92.5,275.5C 92.5,275.167 92.5,274.833 92.5,274.5 Z"/></g>
<g><path style="opacity:1" fill="#fb7f02" d="M 550.5,275.5 C 550.5,282.833 550.5,290.167 550.5,297.5C 550.167,297.5 549.833,297.5 549.5,297.5C 542.5,297.5 535.5,297.5 528.5,297.5C 528.5,290.167 528.5,282.833 528.5,275.5C 535.833,275.5 543.167,275.5 550.5,275.5 Z"/></g>
<g><path style="opacity:1" fill="#0a0804" d="M 70.5,275.5 C 77.8333,275.5 85.1667,275.5 92.5,275.5C 92.5,282.833 92.5,290.167 92.5,297.5C 85.1667,297.5 77.8333,297.5 70.5,297.5C 70.5,290.167 70.5,282.833 70.5,275.5 Z"/></g>
<g><path style="opacity:1" fill="#fbfa02" d="M 504.5,275.5 C 512.167,275.5 519.833,275.5 527.5,275.5C 527.5,282.833 527.5,290.167 527.5,297.5C 519.833,297.5 512.167,297.5 504.5,297.5C 504.5,290.167 504.5,282.833 504.5,275.5 Z"/></g>
<g><path style="opacity:1" fill="#070605" d="M 572.5,275.5 C 572.5,282.833 572.5,290.167 572.5,297.5C 565.5,297.5 558.5,297.5 551.5,297.5C 551.5,290.167 551.5,282.833 551.5,275.5C 558.5,275.5 565.5,275.5 572.5,275.5 Z"/></g>
<g><path style="opacity:1" fill="#5f2d06" d="M 550.5,274.5 C 557.833,274.5 565.167,274.5 572.5,274.5C 572.5,274.833 572.5,275.167 572.5,275.5C 565.5,275.5 558.5,275.5 551.5,275.5C 551.5,282.833 551.5,290.167 551.5,297.5C 551.167,297.5 550.833,297.5 550.5,297.5C 550.5,290.167 550.5,282.833 550.5,275.5C 550.5,275.167 550.5,274.833 550.5,274.5 Z"/></g>
<g><path style="opacity:1" fill="#f7aa01" d="M 527.5,274.5 C 535.167,274.5 542.833,274.5 550.5,274.5C 550.5,274.833 550.5,275.167 550.5,275.5C 543.167,275.5 535.833,275.5 528.5,275.5C 528.5,282.833 528.5,290.167 528.5,297.5C 528.167,297.5 527.833,297.5 527.5,297.5C 527.5,290.167 527.5,282.833 527.5,275.5C 527.5,275.167 527.5,274.833 527.5,274.5 Z"/></g>
<g><path style="opacity:1" fill="#131408" d="M 482.5,275.5 C 489.833,275.5 497.167,275.5 504.5,275.5C 504.5,282.833 504.5,290.167 504.5,297.5C 497.167,297.5 489.833,297.5 482.5,297.5C 482.5,290.167 482.5,282.833 482.5,275.5 Z"/></g>
<g><path style="opacity:1" fill="#010101" d="M 489.5,276.5 C 493.833,276.5 498.167,276.5 502.5,276.5C 502.5,282.833 502.5,289.167 502.5,295.5C 496.575,295.808 490.741,295.475 485,294.5C 484.333,289.167 484.333,283.833 485,278.5C 485.414,278.957 485.914,279.291 486.5,279.5C 487.548,278.452 488.548,277.452 489.5,276.5 Z"/></g>
<g><path style="opacity:1" fill="#fbc506" d="M 482.5,274.5 C 482.5,274.833 482.5,275.167 482.5,275.5C 481.508,282.648 481.175,289.981 481.5,297.5C 474.167,297.5 466.833,297.5 459.5,297.5C 459.5,290.167 459.5,282.833 459.5,275.5C 467.222,275.767 474.889,275.434 482.5,274.5 Z"/></g>
<g><path style="opacity:0.608" fill="#acacad" d="M 68.5,275.5 C 68.8333,275.5 69.1667,275.5 69.5,275.5C 69.8333,275.5 70.1667,275.5 70.5,275.5C 70.5,282.833 70.5,290.167 70.5,297.5C 77.8333,297.5 85.1667,297.5 92.5,297.5C 92.5,297.833 92.5,298.167 92.5,298.5C 92.5,305.833 92.5,313.167 92.5,320.5C 91.5084,313.352 91.175,306.019 91.5,298.5C 84.1591,298.666 76.8258,298.5 69.5,298C 68.5192,290.587 68.1858,283.087 68.5,275.5 Z"/></g>
<g><path style="opacity:0.572" fill="#bebebd" d="M 574.5,275.5 C 574.5,283.167 574.5,290.833 574.5,298.5C 566.833,298.5 559.167,298.5 551.5,298.5C 551.825,306.019 551.492,313.352 550.5,320.5C 550.825,312.981 550.492,305.648 549.5,298.5C 549.5,298.167 549.5,297.833 549.5,297.5C 549.833,297.5 550.167,297.5 550.5,297.5C 550.833,297.5 551.167,297.5 551.5,297.5C 558.5,297.5 565.5,297.5 572.5,297.5C 573.167,290.167 573.833,282.833 574.5,275.5 Z"/></g>
<g><path style="opacity:1" fill="#fac302" d="M 115.5,297.5 C 122.746,298.464 130.08,298.797 137.5,298.5C 137.203,305.92 137.536,313.254 138.5,320.5C 130.833,320.5 123.167,320.5 115.5,320.5C 115.5,312.833 115.5,305.167 115.5,297.5 Z"/></g>
<g><path style="opacity:1" fill="#030401" d="M 460.5,298.5 C 467.5,298.5 474.5,298.5 481.5,298.5C 481.5,305.167 481.5,311.833 481.5,318.5C 474.833,318.5 468.167,318.5 461.5,318.5C 461.756,311.776 461.423,305.109 460.5,298.5 Z"/></g>
<g><path style="opacity:1" fill="#fdfc01" d="M 504.5,298.5 C 504.5,305.833 504.5,313.167 504.5,320.5C 497.167,320.5 489.833,320.5 482.5,320.5C 482.5,313.167 482.5,305.833 482.5,298.5C 489.833,298.5 497.167,298.5 504.5,298.5 Z"/></g>
<g><path style="opacity:1" fill="#050503" d="M 549.5,298.5 C 549.5,305.5 549.5,312.5 549.5,319.5C 542.5,319.5 535.5,319.5 528.5,319.5C 528.5,312.5 528.5,305.5 528.5,298.5C 535.5,298.5 542.5,298.5 549.5,298.5 Z"/></g>
<g><path style="opacity:1" fill="#9a8e0d" d="M 482.5,275.5 C 482.5,282.833 482.5,290.167 482.5,297.5C 489.833,297.5 497.167,297.5 504.5,297.5C 504.5,297.833 504.5,298.167 504.5,298.5C 497.167,298.5 489.833,298.5 482.5,298.5C 482.5,305.833 482.5,313.167 482.5,320.5C 482.167,320.5 481.833,320.5 481.5,320.5C 481.5,319.833 481.5,319.167 481.5,318.5C 481.5,311.833 481.5,305.167 481.5,298.5C 474.5,298.5 467.5,298.5 460.5,298.5C 460.167,298.5 459.833,298.5 459.5,298.5C 459.5,298.167 459.5,297.833 459.5,297.5C 466.833,297.5 474.167,297.5 481.5,297.5C 481.175,289.981 481.508,282.648 482.5,275.5 Z"/></g>
<g><path style="opacity:1" fill="#fb7f02" d="M 527.5,298.5 C 527.5,305.833 527.5,313.167 527.5,320.5C 520.167,320.5 512.833,320.5 505.5,320.5C 505.5,313.167 505.5,305.833 505.5,298.5C 512.833,298.5 520.167,298.5 527.5,298.5 Z"/></g>
<g><path style="opacity:1" fill="#060707" d="M 93.5,298.5 C 100.5,298.5 107.5,298.5 114.5,298.5C 114.5,305.833 114.5,313.167 114.5,320.5C 114.167,320.5 113.833,320.5 113.5,320.5C 107.021,319.509 100.354,319.176 93.5,319.5C 93.5,312.5 93.5,305.5 93.5,298.5 Z"/></g>
<g><path style="opacity:1" fill="#622903" d="M 527.5,297.5 C 527.833,297.5 528.167,297.5 528.5,297.5C 535.5,297.5 542.5,297.5 549.5,297.5C 549.5,297.833 549.5,298.167 549.5,298.5C 542.5,298.5 535.5,298.5 528.5,298.5C 528.5,305.5 528.5,312.5 528.5,319.5C 528.5,319.833 528.5,320.167 528.5,320.5C 528.167,320.5 527.833,320.5 527.5,320.5C 527.5,313.167 527.5,305.833 527.5,298.5C 527.5,298.167 527.5,297.833 527.5,297.5 Z"/></g>
<g><path style="opacity:1" fill="#5a4404" d="M 92.5,298.5 C 92.5,298.167 92.5,297.833 92.5,297.5C 100.167,297.5 107.833,297.5 115.5,297.5C 115.5,305.167 115.5,312.833 115.5,320.5C 115.167,320.5 114.833,320.5 114.5,320.5C 114.5,313.167 114.5,305.833 114.5,298.5C 107.5,298.5 100.5,298.5 93.5,298.5C 93.1667,298.5 92.8333,298.5 92.5,298.5 Z"/></g>
<g><path style="opacity:1" fill="#f5ae00" d="M 504.5,297.5 C 512.167,297.5 519.833,297.5 527.5,297.5C 527.5,297.833 527.5,298.167 527.5,298.5C 520.167,298.5 512.833,298.5 505.5,298.5C 505.5,305.833 505.5,313.167 505.5,320.5C 505.167,320.5 504.833,320.5 504.5,320.5C 504.5,313.167 504.5,305.833 504.5,298.5C 504.5,298.167 504.5,297.833 504.5,297.5 Z"/></g>
<g><path style="opacity:1" fill="#1c1a03" d="M 459.5,298.5 C 459.833,298.5 460.167,298.5 460.5,298.5C 461.423,305.109 461.756,311.776 461.5,318.5C 468.167,318.5 474.833,318.5 481.5,318.5C 481.5,319.167 481.5,319.833 481.5,320.5C 474.167,320.5 466.833,320.5 459.5,320.5C 459.5,313.167 459.5,305.833 459.5,298.5 Z"/></g>
<g><path style="opacity:1" fill="#3e3e3e" d="M 92.5,298.5 C 92.8333,298.5 93.1667,298.5 93.5,298.5C 93.5,305.5 93.5,312.5 93.5,319.5C 100.354,319.176 107.021,319.509 113.5,320.5C 106.5,320.5 99.5,320.5 92.5,320.5C 92.5,313.167 92.5,305.833 92.5,298.5 Z"/></g>
<g><path style="opacity:1" fill="#403e3d" d="M 549.5,298.5 C 550.492,305.648 550.825,312.981 550.5,320.5C 543.167,320.5 535.833,320.5 528.5,320.5C 528.5,320.167 528.5,319.833 528.5,319.5C 535.5,319.5 542.5,319.5 549.5,319.5C 549.5,312.5 549.5,305.5 549.5,298.5 Z"/></g>
<g><path style="opacity:1" fill="#594201" d="M 115.5,321.5 C 115.5,321.167 115.5,320.833 115.5,320.5C 123.167,320.5 130.833,320.5 138.5,320.5C 138.5,328.167 138.5,335.833 138.5,343.5C 130.833,343.5 123.167,343.5 115.5,343.5C 115.5,343.167 115.5,342.833 115.5,342.5C 122.833,342.5 130.167,342.5 137.5,342.5C 137.5,335.5 137.5,328.5 137.5,321.5C 130.167,321.5 122.833,321.5 115.5,321.5 Z"/></g>
<g><path style="opacity:1" fill="#fbc503" d="M 138.5,320.5 C 145.746,321.464 153.08,321.797 160.5,321.5C 161.833,328.833 161.833,336.167 160.5,343.5C 153.08,343.203 145.746,343.536 138.5,344.5C 138.5,344.167 138.5,343.833 138.5,343.5C 138.5,335.833 138.5,328.167 138.5,320.5 Z"/></g>
<g><path style="opacity:1" fill="#fcfb05" d="M 481.5,321.5 C 481.5,328.833 481.5,336.167 481.5,343.5C 474.167,343.5 466.833,343.5 459.5,343.5C 459.5,336.167 459.5,328.833 459.5,321.5C 466.833,321.5 474.167,321.5 481.5,321.5 Z"/></g>
<g><path style="opacity:1" fill="#fd8101" d="M 504.5,321.5 C 504.5,328.833 504.5,336.167 504.5,343.5C 497.167,343.5 489.833,343.5 482.5,343.5C 482.5,336.167 482.5,328.833 482.5,321.5C 489.833,321.5 497.167,321.5 504.5,321.5 Z"/></g>
<g><path style="opacity:1" fill="#f6b300" d="M 481.5,320.5 C 481.833,320.5 482.167,320.5 482.5,320.5C 489.833,320.5 497.167,320.5 504.5,320.5C 504.5,320.833 504.5,321.167 504.5,321.5C 497.167,321.5 489.833,321.5 482.5,321.5C 482.5,328.833 482.5,336.167 482.5,343.5C 482.167,343.5 481.833,343.5 481.5,343.5C 481.5,336.167 481.5,328.833 481.5,321.5C 481.5,321.167 481.5,320.833 481.5,320.5 Z"/></g>
<g><path style="opacity:1" fill="#612902" d="M 504.5,320.5 C 504.833,320.5 505.167,320.5 505.5,320.5C 512.833,320.5 520.167,320.5 527.5,320.5C 527.5,320.833 527.5,321.167 527.5,321.5C 527.167,321.5 526.833,321.5 526.5,321.5C 519.5,321.5 512.5,321.5 505.5,321.5C 505.5,328.5 505.5,335.5 505.5,342.5C 512.5,342.5 519.5,342.5 526.5,342.5C 526.5,342.833 526.5,343.167 526.5,343.5C 519.167,343.5 511.833,343.5 504.5,343.5C 504.5,336.167 504.5,328.833 504.5,321.5C 504.5,321.167 504.5,320.833 504.5,320.5 Z"/></g>
<g><path style="opacity:0.249" fill="#cccbca" d="M 92.5,320.5 C 99.5,320.5 106.5,320.5 113.5,320.5C 113.833,320.5 114.167,320.5 114.5,320.5C 114.833,320.5 115.167,320.5 115.5,320.5C 115.5,320.833 115.5,321.167 115.5,321.5C 115.5,328.5 115.5,335.5 115.5,342.5C 115.5,342.833 115.5,343.167 115.5,343.5C 108.167,343.5 100.833,343.5 93.5,343.5C 100.313,342.509 107.313,342.175 114.5,342.5C 114.5,335.5 114.5,328.5 114.5,321.5C 106.981,321.825 99.6476,321.492 92.5,320.5 Z"/></g>
<g><path style="opacity:1" fill="#070603" d="M 115.5,321.5 C 122.833,321.5 130.167,321.5 137.5,321.5C 137.5,328.5 137.5,335.5 137.5,342.5C 130.167,342.5 122.833,342.5 115.5,342.5C 115.5,335.5 115.5,328.5 115.5,321.5 Z"/></g>
<g><path style="opacity:1" fill="#9e8f0a" d="M 459.5,298.5 C 459.5,305.833 459.5,313.167 459.5,320.5C 466.833,320.5 474.167,320.5 481.5,320.5C 481.5,320.833 481.5,321.167 481.5,321.5C 474.167,321.5 466.833,321.5 459.5,321.5C 459.5,328.833 459.5,336.167 459.5,343.5C 466.833,343.5 474.167,343.5 481.5,343.5C 481.833,343.5 482.167,343.5 482.5,343.5C 482.5,366.5 482.5,389.5 482.5,412.5C 482.167,412.5 481.833,412.5 481.5,412.5C 481.5,389.833 481.5,367.167 481.5,344.5C 474.167,344.5 466.833,344.5 459.5,344.5C 459.5,367.167 459.5,389.833 459.5,412.5C 459.167,412.5 458.833,412.5 458.5,412.5C 458.5,389.833 458.5,367.167 458.5,344.5C 451.167,344.5 443.833,344.5 436.5,344.5C 435.833,344.5 435.5,344.167 435.5,343.5C 435.175,335.981 435.508,328.648 436.5,321.5C 443.648,320.508 450.981,320.175 458.5,320.5C 458.175,312.981 458.508,305.648 459.5,298.5 Z"/></g>
<g><path style="opacity:1" fill="#020300" d="M 437.5,321.5 C 444.5,321.5 451.5,321.5 458.5,321.5C 458.5,328.5 458.5,335.5 458.5,342.5C 451.922,341.54 445.255,341.207 438.5,341.5C 438.793,334.745 438.46,328.078 437.5,321.5 Z"/></g>
<g><path style="opacity:1" fill="#1f1903" d="M 436.5,321.5 C 436.833,321.5 437.167,321.5 437.5,321.5C 438.46,328.078 438.793,334.745 438.5,341.5C 445.255,341.207 451.922,341.54 458.5,342.5C 451.352,343.492 444.019,343.825 436.5,343.5C 436.5,336.167 436.5,328.833 436.5,321.5 Z"/></g>
<g><path style="opacity:0.231" fill="#cbcccc" d="M 527.5,320.5 C 527.833,320.5 528.167,320.5 528.5,320.5C 535.833,320.5 543.167,320.5 550.5,320.5C 543.352,321.492 536.019,321.825 528.5,321.5C 528.5,328.5 528.5,335.5 528.5,342.5C 536.019,342.175 543.352,342.508 550.5,343.5C 542.833,343.5 535.167,343.5 527.5,343.5C 527.5,336.167 527.5,328.833 527.5,321.5C 527.5,321.167 527.5,320.833 527.5,320.5 Z"/></g>
<g><path style="opacity:1" fill="#fbc506" d="M 459.5,297.5 C 459.5,297.833 459.5,298.167 459.5,298.5C 458.508,305.648 458.175,312.981 458.5,320.5C 450.981,320.175 443.648,320.508 436.5,321.5C 435.508,328.648 435.175,335.981 435.5,343.5C 428.167,343.5 420.833,343.5 413.5,343.5C 413.5,336.167 413.5,328.833 413.5,321.5C 420.508,321.666 427.508,321.5 434.5,321C 435,320.5 435.5,320 436,319.5C 436.5,312.508 436.666,305.508 436.5,298.5C 444.222,298.767 451.889,298.434 459.5,297.5 Z"/></g>
<g><path style="opacity:1" fill="#0c0b08" d="M 526.5,321.5 C 526.5,328.5 526.5,335.5 526.5,342.5C 519.5,342.5 512.5,342.5 505.5,342.5C 505.5,335.5 505.5,328.5 505.5,321.5C 512.5,321.5 519.5,321.5 526.5,321.5 Z"/></g>
<g><path style="opacity:1" fill="#616160" d="M 92.5,343.5 C 92.8333,343.5 93.1667,343.5 93.5,343.5C 100.833,343.5 108.167,343.5 115.5,343.5C 115.5,343.833 115.5,344.167 115.5,344.5C 115.167,344.5 114.833,344.5 114.5,344.5C 107.5,344.5 100.5,344.5 93.5,344.5C 93.5,366.833 93.5,389.167 93.5,411.5C 93.5,411.833 93.5,412.167 93.5,412.5C 93.1667,412.5 92.8333,412.5 92.5,412.5C 92.5,389.5 92.5,366.5 92.5,343.5 Z"/></g>
<g><path style="opacity:1" fill="#fdc300" d="M 138.5,344.5 C 137.843,366.826 137.343,389.16 137,411.5C 130.333,411.216 123.5,411.549 116.5,412.5C 116.5,389.833 116.5,367.167 116.5,344.5C 123.833,344.5 131.167,344.5 138.5,344.5 Z"/></g>
<g><path style="opacity:1" fill="#fdc403" d="M 436.5,344.5 C 443.833,344.5 451.167,344.5 458.5,344.5C 458.5,367.167 458.5,389.833 458.5,412.5C 451.132,412.683 443.799,412.35 436.5,411.5C 436.5,389.167 436.5,366.833 436.5,344.5 Z"/></g>
<g><path style="opacity:0.126" fill="#dbdbdb" d="M 92.5,343.5 C 92.5,366.5 92.5,389.5 92.5,412.5C 84.8333,412.5 77.1667,412.5 69.5,412.5C 76.6476,411.508 83.9809,411.175 91.5,411.5C 91.1692,388.661 91.5025,365.994 92.5,343.5 Z"/></g>
<g><path style="opacity:0.129" fill="#dadada" d="M 550.5,343.5 C 551.497,365.994 551.831,388.661 551.5,411.5C 559.019,411.175 566.352,411.508 573.5,412.5C 565.833,412.5 558.167,412.5 550.5,412.5C 550.5,389.5 550.5,366.5 550.5,343.5 Z"/></g>
<g><path style="opacity:1" fill="#030302" d="M 114.5,344.5 C 114.5,366.833 114.5,389.167 114.5,411.5C 107.5,411.5 100.5,411.5 93.5,411.5C 93.5,389.167 93.5,366.833 93.5,344.5C 100.5,344.5 107.5,344.5 114.5,344.5 Z"/></g>
<g><path style="opacity:1" fill="#141303" d="M 481.5,412.5 C 474.167,412.5 466.833,412.5 459.5,412.5C 459.5,389.833 459.5,367.167 459.5,344.5C 466.833,344.5 474.167,344.5 481.5,344.5C 481.5,367.167 481.5,389.833 481.5,412.5 Z"/></g>
<g><path style="opacity:1" fill="#000101" d="M 461.5,346.5 C 467.5,346.5 473.5,346.5 479.5,346.5C 479.5,367.833 479.5,389.167 479.5,410.5C 473.5,410.5 467.5,410.5 461.5,410.5C 461.334,404.158 461.5,397.825 462,391.5C 463.421,388.991 465.088,386.657 467,384.5C 467.414,384.957 467.914,385.291 468.5,385.5C 469.364,383.803 470.697,382.637 472.5,382C 470.667,381.5 469.5,380.333 469,378.5C 468.517,379.448 468.351,380.448 468.5,381.5C 465.728,381.595 463.728,382.929 462.5,385.5C 461.501,372.517 461.168,359.517 461.5,346.5 Z"/></g>
<g><path style="opacity:1" fill="#591a00" d="M 527.5,344.5 C 527.833,344.5 528.167,344.5 528.5,344.5C 528.5,366.833 528.5,389.167 528.5,411.5C 535.5,411.5 542.5,411.5 549.5,411.5C 549.5,411.833 549.5,412.167 549.5,412.5C 542.5,412.5 535.5,412.5 528.5,412.5C 528.167,412.5 527.833,412.5 527.5,412.5C 527.5,389.833 527.5,367.167 527.5,344.5 Z"/></g>
<g><path style="opacity:1" fill="#030201" d="M 528.5,344.5 C 535.5,344.5 542.5,344.5 549.5,344.5C 549.5,366.833 549.5,389.167 549.5,411.5C 542.5,411.5 535.5,411.5 528.5,411.5C 528.5,389.167 528.5,366.833 528.5,344.5 Z"/></g>
<g><path style="opacity:1" fill="#60605f" d="M 526.5,321.5 C 526.833,321.5 527.167,321.5 527.5,321.5C 527.5,328.833 527.5,336.167 527.5,343.5C 535.167,343.5 542.833,343.5 550.5,343.5C 550.5,366.5 550.5,389.5 550.5,412.5C 550.167,412.5 549.833,412.5 549.5,412.5C 549.5,412.167 549.5,411.833 549.5,411.5C 549.5,389.167 549.5,366.833 549.5,344.5C 542.5,344.5 535.5,344.5 528.5,344.5C 528.167,344.5 527.833,344.5 527.5,344.5C 527.167,344.5 526.833,344.5 526.5,344.5C 526.5,344.167 526.5,343.833 526.5,343.5C 526.5,343.167 526.5,342.833 526.5,342.5C 526.5,335.5 526.5,328.5 526.5,321.5 Z"/></g>
<g><path style="opacity:1" fill="#4a3100" d="M 114.5,344.5 C 114.833,344.5 115.167,344.5 115.5,344.5C 115.5,367.167 115.5,389.833 115.5,412.5C 108.167,412.5 100.833,412.5 93.5,412.5C 93.5,412.167 93.5,411.833 93.5,411.5C 100.5,411.5 107.5,411.5 114.5,411.5C 114.5,389.167 114.5,366.833 114.5,344.5 Z"/></g>
<g><path style="opacity:1" fill="#f6a800" d="M 504.5,344.5 C 505.497,366.66 505.831,388.994 505.5,411.5C 512.687,411.175 519.687,411.509 526.5,412.5C 519.5,412.5 512.5,412.5 505.5,412.5C 505.167,412.5 504.833,412.5 504.5,412.5C 504.5,389.833 504.5,367.167 504.5,344.5 Z"/></g>
<g><path style="opacity:1" fill="#d5ad1a" d="M 115.5,343.5 C 123.167,343.5 130.833,343.5 138.5,343.5C 138.5,343.833 138.5,344.167 138.5,344.5C 131.167,344.5 123.833,344.5 116.5,344.5C 116.5,367.167 116.5,389.833 116.5,412.5C 116.158,413.338 115.492,413.672 114.5,413.5C 107.5,413.5 100.5,413.5 93.5,413.5C 93.8294,428.676 93.4961,443.676 92.5,458.5C 92.5,443.5 92.5,428.5 92.5,413.5C 92.5,413.167 92.5,412.833 92.5,412.5C 92.8333,412.5 93.1667,412.5 93.5,412.5C 100.833,412.5 108.167,412.5 115.5,412.5C 115.5,389.833 115.5,367.167 115.5,344.5C 115.5,344.167 115.5,343.833 115.5,343.5 Z"/></g>
<g><path style="opacity:1" fill="#e67f08" d="M 504.5,344.5 C 504.5,344.167 504.5,343.833 504.5,343.5C 511.833,343.5 519.167,343.5 526.5,343.5C 526.5,343.833 526.5,344.167 526.5,344.5C 526.833,344.5 527.167,344.5 527.5,344.5C 527.5,367.167 527.5,389.833 527.5,412.5C 527.167,412.5 526.833,412.5 526.5,412.5C 519.687,411.509 512.687,411.175 505.5,411.5C 505.831,388.994 505.497,366.66 504.5,344.5 Z"/></g>
<g><path style="opacity:1" fill="#fe7f00" d="M 526.5,344.5 C 526.5,366.5 526.5,388.5 526.5,410.5C 519.833,410.5 513.167,410.5 506.5,410.5C 506.5,388.5 506.5,366.5 506.5,344.5C 513.167,344.5 519.833,344.5 526.5,344.5 Z"/></g>
<g><path style="opacity:1" fill="#faee15" d="M 482.5,343.5 C 489.833,343.5 497.167,343.5 504.5,343.5C 504.5,343.833 504.5,344.167 504.5,344.5C 504.5,367.167 504.5,389.833 504.5,412.5C 497.167,412.5 489.833,412.5 482.5,412.5C 482.5,389.5 482.5,366.5 482.5,343.5 Z"/></g>
<g><path style="opacity:1" fill="#fdfe01" d="M 483.5,344.5 C 490.167,344.5 496.833,344.5 503.5,344.5C 503.5,366.833 503.5,389.167 503.5,411.5C 496.833,411.5 490.167,411.5 483.5,411.5C 483.5,389.167 483.5,366.833 483.5,344.5 Z"/></g>
<g><path style="opacity:1" fill="#fbc505" d="M 298.5,389.5 C 290.833,389.5 283.167,389.5 275.5,389.5C 276.43,382.223 276.764,374.89 276.5,367.5C 281.519,367.498 286.519,367.165 291.5,366.5C 294.011,366.288 296.178,366.955 298,368.5C 298.5,375.492 298.666,382.492 298.5,389.5 Z"/></g>
<g><path style="opacity:1" fill="#fcc401" d="M 275.5,389.5 C 275.5,396.833 275.5,404.167 275.5,411.5C 260.5,411.5 245.5,411.5 230.5,411.5C 230.5,404.5 230.5,397.5 230.5,390.5C 245.578,390.816 260.578,390.483 275.5,389.5 Z"/></g>
<g><path style="opacity:1" fill="#fdc300" d="M 299.5,390.5 C 314.167,390.5 328.833,390.5 343.5,390.5C 343.205,397.588 343.538,404.588 344.5,411.5C 329.5,411.5 314.5,411.5 299.5,411.5C 299.5,404.5 299.5,397.5 299.5,390.5 Z"/></g>
<g><path style="opacity:1" fill="#655604" d="M 275.5,389.5 C 283.167,389.5 290.833,389.5 298.5,389.5C 298.5,389.833 298.5,390.167 298.5,390.5C 291.167,390.5 283.833,390.5 276.5,390.5C 276.5,397.5 276.5,404.5 276.5,411.5C 283.833,411.5 291.167,411.5 298.5,411.5C 298.5,411.833 298.5,412.167 298.5,412.5C 290.833,412.5 283.167,412.5 275.5,412.5C 275.5,412.167 275.5,411.833 275.5,411.5C 275.5,404.167 275.5,396.833 275.5,389.5 Z"/></g>
<g><path style="opacity:1" fill="#050401" d="M 298.5,390.5 C 298.5,397.5 298.5,404.5 298.5,411.5C 291.167,411.5 283.833,411.5 276.5,411.5C 276.5,404.5 276.5,397.5 276.5,390.5C 283.833,390.5 291.167,390.5 298.5,390.5 Z"/></g>
<g><path style="opacity:1" fill="#d5af0a" d="M 298.5,389.5 C 299.167,389.5 299.5,389.833 299.5,390.5C 299.5,397.5 299.5,404.5 299.5,411.5C 314.5,411.5 329.5,411.5 344.5,411.5C 344.5,411.833 344.5,412.167 344.5,412.5C 329.167,412.5 313.833,412.5 298.5,412.5C 298.5,412.167 298.5,411.833 298.5,411.5C 298.5,404.5 298.5,397.5 298.5,390.5C 298.5,390.167 298.5,389.833 298.5,389.5 Z"/></g>
<g><path style="opacity:1" fill="#574803" d="M 298.5,412.5 C 313.833,412.5 329.167,412.5 344.5,412.5C 344.5,412.833 344.5,413.167 344.5,413.5C 344.5,420.833 344.5,428.167 344.5,435.5C 344.167,435.5 343.833,435.5 343.5,435.5C 343.5,428.167 343.5,420.833 343.5,413.5C 328.833,413.5 314.167,413.5 299.5,413.5C 299.825,421.019 299.492,428.352 298.5,435.5C 298.5,427.833 298.5,420.167 298.5,412.5 Z"/></g>
<g><path style="opacity:1" fill="#483700" d="M 91.5,413.5 C 91.8333,413.5 92.1667,413.5 92.5,413.5C 92.5,428.5 92.5,443.5 92.5,458.5C 85.1667,458.5 77.8333,458.5 70.5,458.5C 70.1667,458.5 69.8333,458.5 69.5,458.5C 69.5,458.167 69.5,457.833 69.5,457.5C 69.8333,457.5 70.1667,457.5 70.5,457.5C 77.5,457.5 84.5,457.5 91.5,457.5C 91.5,442.833 91.5,428.167 91.5,413.5 Z"/></g>
<g><path style="opacity:1" fill="#fdc301" d="M 229.5,413.5 C 229.5,420.5 229.5,427.5 229.5,434.5C 214.5,434.5 199.5,434.5 184.5,434.5C 184.5,427.5 184.5,420.5 184.5,413.5C 199.709,413.459 214.709,413.459 229.5,413.5 Z"/></g>
<g><path style="opacity:1" fill="#fdc400" d="M 344.5,413.5 C 344.5,413.167 344.5,412.833 344.5,412.5C 359.816,413.359 375.149,413.692 390.5,413.5C 390.287,420.174 389.954,426.841 389.5,433.5C 375.163,433.667 360.829,433.5 346.5,433C 345.85,426.401 345.184,419.901 344.5,413.5 Z"/></g>
<g><path style="opacity:1" fill="#fdc400" d="M 459.5,413.5 C 466.5,413.5 473.5,413.5 480.5,413.5C 480.5,428.833 480.5,444.167 480.5,459.5C 488.167,459.5 495.833,459.5 503.5,459.5C 503.5,473.833 503.5,488.167 503.5,502.5C 496.833,502.5 490.167,502.5 483.5,502.5C 483.814,494.913 483.481,487.413 482.5,480C 467.504,479.5 452.504,479.333 437.5,479.5C 437.5,472.833 437.5,466.167 437.5,459.5C 438.5,459.5 439.5,459.5 440.5,459.5C 446.744,458.542 453.077,458.209 459.5,458.5C 459.5,443.5 459.5,428.5 459.5,413.5 Z"/></g>
<g><path style="opacity:1" fill="#fdfc05" d="M 505.5,412.5 C 512.5,412.5 519.5,412.5 526.5,412.5C 526.833,412.5 527.167,412.5 527.5,412.5C 527.5,427.5 527.5,442.5 527.5,457.5C 520.167,457.5 512.833,457.5 505.5,457.5C 505.5,442.5 505.5,427.5 505.5,412.5 Z"/></g>
<g><path style="opacity:0.15" fill="#d1d1d1" d="M 573.5,412.5 C 574.496,427.324 574.829,442.324 574.5,457.5C 582.019,457.175 589.352,457.508 596.5,458.5C 596.167,458.5 595.833,458.5 595.5,458.5C 588.167,458.5 580.833,458.5 573.5,458.5C 573.5,458.167 573.5,457.833 573.5,457.5C 573.5,442.5 573.5,427.5 573.5,412.5 Z"/></g>
<g><path style="opacity:1" fill="#fcc302" d="M 114.5,413.5 C 114.333,428.17 114.5,442.837 115,457.5C 122.747,458.482 130.58,458.815 138.5,458.5C 138.5,465.833 138.5,473.167 138.5,480.5C 123.167,480.5 107.833,480.5 92.5,480.5C 92.5,488.167 92.5,495.833 92.5,503.5C 85.1667,503.5 77.8333,503.5 70.5,503.5C 70.5,488.5 70.5,473.5 70.5,458.5C 77.8333,458.5 85.1667,458.5 92.5,458.5C 93.4961,443.676 93.8294,428.676 93.5,413.5C 100.5,413.5 107.5,413.5 114.5,413.5 Z"/></g>
<g><path style="opacity:1" fill="#030302" d="M 343.5,435.5 C 336.167,435.5 328.833,435.5 321.5,435.5C 320.508,442.648 320.175,449.981 320.5,457.5C 305.833,457.5 291.167,457.5 276.5,457.5C 276.5,450.5 276.5,443.5 276.5,436.5C 284.019,436.825 291.352,436.492 298.5,435.5C 299.492,428.352 299.825,421.019 299.5,413.5C 314.167,413.5 328.833,413.5 343.5,413.5C 343.5,420.833 343.5,428.167 343.5,435.5 Z"/></g>
<g><path style="opacity:1" fill="#fe7f00" d="M 529.5,413.5 C 536.167,413.5 542.833,413.5 549.5,413.5C 549.5,427.833 549.5,442.167 549.5,456.5C 542.833,456.5 536.167,456.5 529.5,456.5C 529.5,442.167 529.5,427.833 529.5,413.5 Z"/></g>
<g><path style="opacity:1" fill="#595857" d="M 550.5,413.5 C 550.5,413.167 550.5,412.833 550.5,412.5C 558.167,412.5 565.833,412.5 573.5,412.5C 573.5,427.5 573.5,442.5 573.5,457.5C 573.167,457.5 572.833,457.5 572.5,457.5C 572.5,442.833 572.5,428.167 572.5,413.5C 565.5,413.5 558.5,413.5 551.5,413.5C 551.167,413.5 550.833,413.5 550.5,413.5 Z"/></g>
<g><path style="opacity:1" fill="#040403" d="M 91.5,413.5 C 91.5,428.167 91.5,442.833 91.5,457.5C 84.5,457.5 77.5,457.5 70.5,457.5C 70.5,442.833 70.5,428.167 70.5,413.5C 77.5,413.5 84.5,413.5 91.5,413.5 Z"/></g>
<g><path style="opacity:1" fill="#0d0703" d="M 275.5,413.5 C 275.5,420.833 275.5,428.167 275.5,435.5C 267.833,435.5 260.167,435.5 252.5,435.5C 245.167,435.5 237.833,435.5 230.5,435.5C 230.5,428.167 230.5,420.833 230.5,413.5C 245.5,413.5 260.5,413.5 275.5,413.5 Z"/></g>
<g><path style="opacity:1" fill="#f39400" d="M 527.5,412.5 C 527.833,412.5 528.167,412.5 528.5,412.5C 528.5,413.167 528.833,413.5 529.5,413.5C 529.5,427.833 529.5,442.167 529.5,456.5C 536.167,456.5 542.833,456.5 549.5,456.5C 549.5,457.167 549.833,457.5 550.5,457.5C 550.5,457.833 550.5,458.167 550.5,458.5C 543.167,458.5 535.833,458.5 528.5,458.5C 528.5,457.833 528.167,457.5 527.5,457.5C 527.5,442.5 527.5,427.5 527.5,412.5 Z"/></g>
<g><path style="opacity:1" fill="#cd7516" d="M 528.5,412.5 C 535.5,412.5 542.5,412.5 549.5,412.5C 549.833,412.5 550.167,412.5 550.5,412.5C 550.5,412.833 550.5,413.167 550.5,413.5C 550.5,428.167 550.5,442.833 550.5,457.5C 549.833,457.5 549.5,457.167 549.5,456.5C 549.5,442.167 549.5,427.833 549.5,413.5C 542.833,413.5 536.167,413.5 529.5,413.5C 528.833,413.5 528.5,413.167 528.5,412.5 Z"/></g>
<g><path style="opacity:1" fill="#541f00" d="M 550.5,413.5 C 550.833,413.5 551.167,413.5 551.5,413.5C 551.5,428.167 551.5,442.833 551.5,457.5C 558.5,457.5 565.5,457.5 572.5,457.5C 565.352,458.492 558.019,458.825 550.5,458.5C 550.5,458.167 550.5,457.833 550.5,457.5C 550.5,442.833 550.5,428.167 550.5,413.5 Z"/></g>
<g><path style="opacity:1" fill="#040202" d="M 551.5,413.5 C 558.5,413.5 565.5,413.5 572.5,413.5C 572.5,428.167 572.5,442.833 572.5,457.5C 565.5,457.5 558.5,457.5 551.5,457.5C 551.5,442.833 551.5,428.167 551.5,413.5 Z"/></g>
<g><path style="opacity:1" fill="#695800" d="M 481.5,412.5 C 481.833,412.5 482.167,412.5 482.5,412.5C 489.833,412.5 497.167,412.5 504.5,412.5C 504.5,412.833 504.5,413.167 504.5,413.5C 497.167,413.5 489.833,413.5 482.5,413.5C 482.5,428.167 482.5,442.833 482.5,457.5C 489.833,457.5 497.167,457.5 504.5,457.5C 504.5,457.833 504.5,458.167 504.5,458.5C 496.833,458.5 489.167,458.5 481.5,458.5C 481.5,443.167 481.5,427.833 481.5,412.5 Z"/></g>
<g><path style="opacity:0.098" fill="#d5d5d4" d="M 69.5,412.5 C 69.5,427.5 69.5,442.5 69.5,457.5C 69.5,457.833 69.5,458.167 69.5,458.5C 67.8333,458.5 66.1667,458.5 64.5,458.5C 58.8333,458.5 53.1667,458.5 47.5,458.5C 47.1667,458.5 46.8333,458.5 46.5,458.5C 53.6476,457.508 60.9809,457.175 68.5,457.5C 68.1706,442.324 68.5039,427.324 69.5,412.5 Z"/></g>
<g><path style="opacity:1" fill="#656564" d="M 69.5,412.5 C 77.1667,412.5 84.8333,412.5 92.5,412.5C 92.5,412.833 92.5,413.167 92.5,413.5C 92.1667,413.5 91.8333,413.5 91.5,413.5C 84.5,413.5 77.5,413.5 70.5,413.5C 70.5,428.167 70.5,442.833 70.5,457.5C 70.1667,457.5 69.8333,457.5 69.5,457.5C 69.5,442.5 69.5,427.5 69.5,412.5 Z"/></g>
<g><path style="opacity:1" fill="#e7bb16" d="M 344.5,413.5 C 345.184,419.901 345.85,426.401 346.5,433C 360.829,433.5 375.163,433.667 389.5,433.5C 390.338,433.842 390.672,434.508 390.5,435.5C 375.167,435.5 359.833,435.5 344.5,435.5C 344.5,428.167 344.5,420.833 344.5,413.5 Z"/></g>
<g><path style="opacity:1" fill="#a58908" d="M 230.5,411.5 C 245.5,411.5 260.5,411.5 275.5,411.5C 275.5,411.833 275.5,412.167 275.5,412.5C 275.5,412.833 275.5,413.167 275.5,413.5C 260.5,413.5 245.5,413.5 230.5,413.5C 230.5,420.833 230.5,428.167 230.5,435.5C 230.167,435.5 229.833,435.5 229.5,435.5C 214.5,435.5 199.5,435.5 184.5,435.5C 184.5,442.833 184.5,450.167 184.5,457.5C 192.352,457.175 200.018,457.508 207.5,458.5C 199.833,458.5 192.167,458.5 184.5,458.5C 184.5,465.833 184.5,473.167 184.5,480.5C 184.167,480.5 183.833,480.5 183.5,480.5C 183.5,473.167 183.5,465.833 183.5,458.5C 168.5,458.5 153.5,458.5 138.5,458.5C 138.5,458.167 138.5,457.833 138.5,457.5C 153.5,457.5 168.5,457.5 183.5,457.5C 183.5,450.167 183.5,442.833 183.5,435.5C 183.5,434.833 183.833,434.5 184.5,434.5C 199.5,434.5 214.5,434.5 229.5,434.5C 229.5,427.5 229.5,420.5 229.5,413.5C 229.328,412.508 229.662,411.842 230.5,411.5 Z"/></g>
<g><path style="opacity:1" fill="#d2d61c" d="M 275.5,412.5 C 283.167,412.5 290.833,412.5 298.5,412.5C 298.5,420.167 298.5,427.833 298.5,435.5C 290.833,435.5 283.167,435.5 275.5,435.5C 275.5,428.167 275.5,420.833 275.5,413.5C 275.5,413.167 275.5,412.833 275.5,412.5 Z"/></g>
<g><path style="opacity:1" fill="#fefd03" d="M 276.5,413.5 C 283.5,413.5 290.5,413.5 297.5,413.5C 297.5,420.5 297.5,427.5 297.5,434.5C 290.5,434.5 283.5,434.5 276.5,434.5C 276.5,427.5 276.5,420.5 276.5,413.5 Z"/></g>
<g><path style="opacity:1" fill="#52411d" d="M 344.5,436.5 C 344.5,436.167 344.5,435.833 344.5,435.5C 359.833,435.5 375.167,435.5 390.5,435.5C 390.5,443.167 390.5,450.833 390.5,458.5C 390.167,458.5 389.833,458.5 389.5,458.5C 374.5,458.5 359.5,458.5 344.5,458.5C 344.5,458.167 344.5,457.833 344.5,457.5C 359.5,457.5 374.5,457.5 389.5,457.5C 389.5,450.5 389.5,443.5 389.5,436.5C 374.5,436.5 359.5,436.5 344.5,436.5 Z"/></g>
<g><path style="opacity:1" fill="#fcc402" d="M 183.5,435.5 C 183.5,442.833 183.5,450.167 183.5,457.5C 168.5,457.5 153.5,457.5 138.5,457.5C 138.241,450.457 138.574,443.29 139.5,436C 154.163,435.5 168.83,435.333 183.5,435.5 Z"/></g>
<g><path style="opacity:1" fill="#fdfc0a" d="M 230.5,435.5 C 237.833,435.5 245.167,435.5 252.5,435.5C 252.5,442.833 252.5,450.167 252.5,457.5C 245.167,457.5 237.833,457.5 230.5,457.5C 230.5,450.167 230.5,442.833 230.5,435.5 Z"/></g>
<g><path style="opacity:0.165" fill="#dfdcde" d="M 321.5,436.5 C 321.5,436.167 321.5,435.833 321.5,435.5C 328.833,435.5 336.167,435.5 343.5,435.5C 343.833,435.5 344.167,435.5 344.5,435.5C 344.5,435.833 344.5,436.167 344.5,436.5C 344.5,443.5 344.5,450.5 344.5,457.5C 344.5,457.833 344.5,458.167 344.5,458.5C 343.508,451.352 343.175,444.019 343.5,436.5C 336.167,436.5 328.833,436.5 321.5,436.5 Z"/></g>
<g><path style="opacity:1" fill="#0d0901" d="M 229.5,435.5 C 229.5,443.167 229.5,450.833 229.5,458.5C 222.167,458.5 214.833,458.5 207.5,458.5C 200.018,457.508 192.352,457.175 184.5,457.5C 184.5,450.167 184.5,442.833 184.5,435.5C 199.5,435.5 214.5,435.5 229.5,435.5 Z"/></g>
<g><path style="opacity:1" fill="#e2850e" d="M 252.5,435.5 C 260.167,435.5 267.833,435.5 275.5,435.5C 275.5,443.167 275.5,450.833 275.5,458.5C 267.833,458.5 260.167,458.5 252.5,458.5C 252.5,458.167 252.5,457.833 252.5,457.5C 252.5,450.167 252.5,442.833 252.5,435.5 Z"/></g>
<g><path style="opacity:1" fill="#fd7f01" d="M 254.5,436.5 C 261.167,436.5 267.833,436.5 274.5,436.5C 274.5,443.5 274.5,450.5 274.5,457.5C 267.833,457.5 261.167,457.5 254.5,457.5C 254.5,450.5 254.5,443.5 254.5,436.5 Z"/></g>
<g><path style="opacity:1" fill="#040100" d="M 344.5,436.5 C 359.5,436.5 374.5,436.5 389.5,436.5C 389.5,443.5 389.5,450.5 389.5,457.5C 374.5,457.5 359.5,457.5 344.5,457.5C 344.5,450.5 344.5,443.5 344.5,436.5 Z"/></g>
<g><path style="opacity:1" fill="#5d450d" d="M 275.5,435.5 C 283.167,435.5 290.833,435.5 298.5,435.5C 291.352,436.492 284.019,436.825 276.5,436.5C 276.5,443.5 276.5,450.5 276.5,457.5C 276.5,457.833 276.5,458.167 276.5,458.5C 276.167,458.5 275.833,458.5 275.5,458.5C 275.5,450.833 275.5,443.167 275.5,435.5 Z"/></g>
<g><path style="opacity:1" fill="#0c0c06" d="M 504.5,413.5 C 504.5,428.167 504.5,442.833 504.5,457.5C 497.167,457.5 489.833,457.5 482.5,457.5C 482.5,442.833 482.5,428.167 482.5,413.5C 489.833,413.5 497.167,413.5 504.5,413.5 Z"/></g>
<g><path style="opacity:1" fill="#deb613" d="M 458.5,412.5 C 458.833,412.5 459.167,412.5 459.5,412.5C 466.833,412.5 474.167,412.5 481.5,412.5C 481.5,427.833 481.5,443.167 481.5,458.5C 489.167,458.5 496.833,458.5 504.5,458.5C 504.5,473.5 504.5,488.5 504.5,503.5C 497.167,503.5 489.833,503.5 482.5,503.5C 482.167,503.5 481.833,503.5 481.5,503.5C 481.5,496.167 481.5,488.833 481.5,481.5C 466.5,481.5 451.5,481.5 436.5,481.5C 436.5,480.833 436.167,480.5 435.5,480.5C 435.5,473.167 435.5,465.833 435.5,458.5C 420.5,458.5 405.5,458.5 390.5,458.5C 390.5,450.833 390.5,443.167 390.5,435.5C 405.343,435.171 420.01,435.504 434.5,436.5C 435.328,442.987 435.828,449.654 436,456.5C 437.409,457.781 438.909,458.781 440.5,459.5C 439.5,459.5 438.5,459.5 437.5,459.5C 437.5,466.167 437.5,472.833 437.5,479.5C 452.504,479.333 467.504,479.5 482.5,480C 483.481,487.413 483.814,494.913 483.5,502.5C 490.167,502.5 496.833,502.5 503.5,502.5C 503.5,488.167 503.5,473.833 503.5,459.5C 495.833,459.5 488.167,459.5 480.5,459.5C 480.5,444.167 480.5,428.833 480.5,413.5C 473.5,413.5 466.5,413.5 459.5,413.5C 458.833,413.5 458.5,413.167 458.5,412.5 Z"/></g>
<g><path style="opacity:1" fill="#fdc401" d="M 434.5,436.5 C 434.5,443.167 434.5,449.833 434.5,456.5C 420.167,456.5 405.833,456.5 391.5,456.5C 391.5,449.833 391.5,443.167 391.5,436.5C 405.833,436.5 420.167,436.5 434.5,436.5 Z"/></g>
<g><path style="opacity:1" fill="#acb005" d="M 229.5,435.5 C 229.833,435.5 230.167,435.5 230.5,435.5C 230.5,442.833 230.5,450.167 230.5,457.5C 237.833,457.5 245.167,457.5 252.5,457.5C 252.5,457.833 252.5,458.167 252.5,458.5C 245.167,458.5 237.833,458.5 230.5,458.5C 230.167,458.5 229.833,458.5 229.5,458.5C 229.5,450.833 229.5,443.167 229.5,435.5 Z"/></g>
<g><path style="opacity:1" fill="#4d4c4d" d="M 321.5,435.5 C 321.5,435.833 321.5,436.167 321.5,436.5C 321.5,443.833 321.5,451.167 321.5,458.5C 306.5,458.5 291.5,458.5 276.5,458.5C 276.5,458.167 276.5,457.833 276.5,457.5C 291.167,457.5 305.833,457.5 320.5,457.5C 320.175,449.981 320.508,442.648 321.5,435.5 Z"/></g>
<g><path style="opacity:1" fill="#a3a3a4" d="M 46.5,458.5 C 46.8333,458.5 47.1667,458.5 47.5,458.5C 47.5,481.167 47.5,503.833 47.5,526.5C 92.8333,526.5 138.167,526.5 183.5,526.5C 183.833,526.5 184.167,526.5 184.5,526.5C 184.5,526.833 184.5,527.167 184.5,527.5C 138.5,527.5 92.5,527.5 46.5,527.5C 45.2113,504.619 45.2113,481.619 46.5,458.5 Z"/></g>
<g><path style="opacity:1" fill="#050300" d="M 138.5,458.5 C 153.5,458.5 168.5,458.5 183.5,458.5C 183.5,465.833 183.5,473.167 183.5,480.5C 175.833,480.5 168.167,480.5 160.5,480.5C 153.167,480.5 145.833,480.5 138.5,480.5C 138.5,473.167 138.5,465.833 138.5,458.5 Z"/></g>
<g><path style="opacity:1" fill="#050302" d="M 230.5,458.5 C 237.833,458.5 245.167,458.5 252.5,458.5C 260.167,458.5 267.833,458.5 275.5,458.5C 275.5,465.833 275.5,473.167 275.5,480.5C 260.5,480.5 245.5,480.5 230.5,480.5C 230.5,473.167 230.5,465.833 230.5,458.5 Z"/></g>
<g><path style="opacity:1" fill="#c3bf13" d="M 504.5,412.5 C 504.833,412.5 505.167,412.5 505.5,412.5C 505.5,427.5 505.5,442.5 505.5,457.5C 512.833,457.5 520.167,457.5 527.5,457.5C 528.167,457.5 528.5,457.833 528.5,458.5C 528.5,473.5 528.5,488.5 528.5,503.5C 535.833,503.5 543.167,503.5 550.5,503.5C 550.5,503.833 550.5,504.167 550.5,504.5C 542.833,504.5 535.167,504.5 527.5,504.5C 527.5,489.167 527.5,473.833 527.5,458.5C 520.167,458.5 512.833,458.5 505.5,458.5C 505.167,458.5 504.833,458.5 504.5,458.5C 504.5,458.167 504.5,457.833 504.5,457.5C 504.5,442.833 504.5,428.167 504.5,413.5C 504.5,413.167 504.5,412.833 504.5,412.5 Z"/></g>
<g><path style="opacity:1" fill="#060301" d="M 505.5,458.5 C 512.833,458.5 520.167,458.5 527.5,458.5C 527.5,473.833 527.5,489.167 527.5,504.5C 535.167,504.5 542.833,504.5 550.5,504.5C 558.167,504.5 565.833,504.5 573.5,504.5C 573.5,489.167 573.5,473.833 573.5,458.5C 580.833,458.5 588.167,458.5 595.5,458.5C 595.5,480.5 595.5,502.5 595.5,524.5C 558.165,524.333 520.832,524.5 483.5,525C 519.336,525.167 555.002,525.667 590.5,526.5C 554.5,526.5 518.5,526.5 482.5,526.5C 482.5,519.167 482.5,511.833 482.5,504.5C 490.167,504.5 497.833,504.5 505.5,504.5C 505.5,489.167 505.5,473.833 505.5,458.5 Z"/></g>
<g><path style="opacity:1" fill="#fc8102" d="M 550.5,459.5 C 557.833,459.5 565.167,459.5 572.5,459.5C 572.5,474.167 572.5,488.833 572.5,503.5C 565.167,503.5 557.833,503.5 550.5,503.5C 550.5,488.833 550.5,474.167 550.5,459.5 Z"/></g>
<g><path style="opacity:1" fill="#faf80f" d="M 207.5,458.5 C 207.5,466.167 207.5,473.833 207.5,481.5C 199.833,481.5 192.167,481.5 184.5,481.5C 184.5,481.167 184.5,480.833 184.5,480.5C 184.5,473.167 184.5,465.833 184.5,458.5C 192.167,458.5 199.833,458.5 207.5,458.5 Z"/></g>
<g><path style="opacity:1" fill="#f57c05" d="M 207.5,458.5 C 214.833,458.5 222.167,458.5 229.5,458.5C 229.833,458.5 230.167,458.5 230.5,458.5C 230.5,465.833 230.5,473.167 230.5,480.5C 229.833,480.5 229.5,480.833 229.5,481.5C 222.167,481.5 214.833,481.5 207.5,481.5C 207.5,473.833 207.5,466.167 207.5,458.5 Z"/></g>
<g><path style="opacity:1" fill="#ca7019" d="M 572.5,457.5 C 572.833,457.5 573.167,457.5 573.5,457.5C 573.5,457.833 573.5,458.167 573.5,458.5C 573.5,473.833 573.5,489.167 573.5,504.5C 565.833,504.5 558.167,504.5 550.5,504.5C 550.5,504.167 550.5,503.833 550.5,503.5C 557.833,503.5 565.167,503.5 572.5,503.5C 572.5,488.833 572.5,474.167 572.5,459.5C 565.167,459.5 557.833,459.5 550.5,459.5C 550.5,459.167 550.5,458.833 550.5,458.5C 558.019,458.825 565.352,458.492 572.5,457.5 Z"/></g>
<g><path style="opacity:1" fill="#b49b14" d="M 69.5,458.5 C 69.8333,458.5 70.1667,458.5 70.5,458.5C 70.5,473.5 70.5,488.5 70.5,503.5C 77.8333,503.5 85.1667,503.5 92.5,503.5C 92.5,503.833 92.5,504.167 92.5,504.5C 84.8333,504.5 77.1667,504.5 69.5,504.5C 69.5,489.167 69.5,473.833 69.5,458.5 Z"/></g>
<g><path style="opacity:1" fill="#16120e" d="M 390.5,458.5 C 405.5,458.5 420.5,458.5 435.5,458.5C 435.5,465.833 435.5,473.167 435.5,480.5C 420.5,480.5 405.5,480.5 390.5,480.5C 390.5,473.167 390.5,465.833 390.5,458.5 Z"/></g>
<g><path style="opacity:1" fill="#000000" d="M 392.5,459.5 C 406.167,459.5 419.833,459.5 433.5,459.5C 433.5,465.833 433.5,472.167 433.5,478.5C 419.833,478.5 406.167,478.5 392.5,478.5C 392.5,472.167 392.5,465.833 392.5,459.5 Z"/></g>
<g><path style="opacity:1" fill="#796c07" d="M 138.5,480.5 C 145.833,480.5 153.167,480.5 160.5,480.5C 160.5,480.833 160.5,481.167 160.5,481.5C 153.167,481.5 145.833,481.5 138.5,481.5C 138.5,488.833 138.5,496.167 138.5,503.5C 146.167,503.5 153.833,503.5 161.5,503.5C 168.833,503.5 176.167,503.5 183.5,503.5C 183.5,503.833 183.5,504.167 183.5,504.5C 168.167,504.5 152.833,504.5 137.5,504.5C 137.5,496.833 137.5,489.167 137.5,481.5C 122.833,481.5 108.167,481.5 93.5,481.5C 93.5,489.167 93.5,496.833 93.5,504.5C 93.1667,504.5 92.8333,504.5 92.5,504.5C 92.5,504.167 92.5,503.833 92.5,503.5C 92.5,495.833 92.5,488.167 92.5,480.5C 107.833,480.5 123.167,480.5 138.5,480.5 Z"/></g>
<g><path style="opacity:1" fill="#fdfa0a" d="M 160.5,481.5 C 160.833,481.5 161.167,481.5 161.5,481.5C 161.5,488.833 161.5,496.167 161.5,503.5C 153.833,503.5 146.167,503.5 138.5,503.5C 138.5,496.167 138.5,488.833 138.5,481.5C 145.833,481.5 153.167,481.5 160.5,481.5 Z"/></g>
<g><path style="opacity:1" fill="#050403" d="M 184.5,481.5 C 192.167,481.5 199.833,481.5 207.5,481.5C 214.833,481.5 222.167,481.5 229.5,481.5C 229.5,488.833 229.5,496.167 229.5,503.5C 214.5,503.5 199.5,503.5 184.5,503.5C 184.5,496.167 184.5,488.833 184.5,481.5 Z"/></g>
<g><path style="opacity:1" fill="#020100" d="M 64.5,458.5 C 66.1667,458.5 67.8333,458.5 69.5,458.5C 69.5,473.833 69.5,489.167 69.5,504.5C 77.1667,504.5 84.8333,504.5 92.5,504.5C 92.8333,504.5 93.1667,504.5 93.5,504.5C 94.1174,504.389 94.6174,504.056 95,503.5C 95.4996,496.842 95.6663,490.175 95.5,483.5C 108.833,483.5 122.167,483.5 135.5,483.5C 135.702,490.445 135.702,497.279 135.5,504C 136.167,504.667 136.833,505.333 137.5,506C 145.167,506.333 152.833,506.667 160.5,507C 158.99,509.009 157.323,510.842 155.5,512.5C 157.349,513.593 159.016,514.926 160.5,516.5C 161.429,515.311 161.762,513.978 161.5,512.5C 162.833,512.5 164.167,512.5 165.5,512.5C 165.5,511.5 165.5,510.5 165.5,509.5C 167.484,509.617 169.15,508.95 170.5,507.5C 174.107,506.511 177.774,506.177 181.5,506.5C 181.5,512.5 181.5,518.5 181.5,524.5C 137.5,524.5 93.5,524.5 49.5,524.5C 49.5,502.833 49.5,481.167 49.5,459.5C 54.6946,459.821 59.6946,459.487 64.5,458.5 Z"/></g>
<g><path style="opacity:1" fill="#fdfc0a" d="M 528.5,458.5 C 535.833,458.5 543.167,458.5 550.5,458.5C 550.5,458.833 550.5,459.167 550.5,459.5C 550.5,474.167 550.5,488.833 550.5,503.5C 543.167,503.5 535.833,503.5 528.5,503.5C 528.5,488.5 528.5,473.5 528.5,458.5 Z"/></g>
<g><path style="opacity:1" fill="#fb8308" d="M 161.5,481.5 C 168.833,481.5 176.167,481.5 183.5,481.5C 183.5,488.833 183.5,496.167 183.5,503.5C 176.167,503.5 168.833,503.5 161.5,503.5C 161.5,496.167 161.5,488.833 161.5,481.5 Z"/></g>
<g><path style="opacity:1" fill="#93520d" d="M 160.5,481.5 C 160.5,481.167 160.5,480.833 160.5,480.5C 168.167,480.5 175.833,480.5 183.5,480.5C 183.833,480.5 184.167,480.5 184.5,480.5C 184.5,480.833 184.5,481.167 184.5,481.5C 184.5,488.833 184.5,496.167 184.5,503.5C 184.167,503.5 183.833,503.5 183.5,503.5C 183.5,496.167 183.5,488.833 183.5,481.5C 176.167,481.5 168.833,481.5 161.5,481.5C 161.167,481.5 160.833,481.5 160.5,481.5 Z"/></g>
<g><path style="opacity:1" fill="#151311" d="M 436.5,481.5 C 451.5,481.5 466.5,481.5 481.5,481.5C 481.5,488.833 481.5,496.167 481.5,503.5C 466.5,503.5 451.5,503.5 436.5,503.5C 436.5,496.167 436.5,488.833 436.5,481.5 Z"/></g>
<g><path style="opacity:1" fill="#000000" d="M 438.5,483.5 C 452.5,483.5 466.5,483.5 480.5,483.5C 480.5,489.5 480.5,495.5 480.5,501.5C 467.496,501.667 454.496,501.5 441.5,501C 442.743,499.846 443.743,498.512 444.5,497C 448.733,497.944 450.733,496.111 450.5,491.5C 454.5,491.167 454.5,490.833 450.5,490.5C 450.762,489.022 450.429,487.689 449.5,486.5C 446.513,488.496 444.513,491.162 443.5,494.5C 441.61,494.297 440.11,494.963 439,496.5C 438.501,492.179 438.334,487.846 438.5,483.5 Z"/></g>
<g><path style="opacity:0.736" fill="#989898" d="M 275.5,458.5 C 275.833,458.5 276.167,458.5 276.5,458.5C 276.5,466.167 276.5,473.833 276.5,481.5C 261.167,481.5 245.833,481.5 230.5,481.5C 230.5,489.167 230.5,496.833 230.5,504.5C 215.167,504.5 199.833,504.5 184.5,504.5C 184.5,511.833 184.5,519.167 184.5,526.5C 184.167,526.5 183.833,526.5 183.5,526.5C 183.5,519.167 183.5,511.833 183.5,504.5C 183.5,504.167 183.5,503.833 183.5,503.5C 183.833,503.5 184.167,503.5 184.5,503.5C 199.5,503.5 214.5,503.5 229.5,503.5C 229.5,496.167 229.5,488.833 229.5,481.5C 229.5,480.833 229.833,480.5 230.5,480.5C 245.5,480.5 260.5,480.5 275.5,480.5C 275.5,473.167 275.5,465.833 275.5,458.5 Z"/></g>
<g><path style="opacity:0.712" fill="#a09f9f" d="M 389.5,458.5 C 389.833,458.5 390.167,458.5 390.5,458.5C 390.5,465.833 390.5,473.167 390.5,480.5C 405.5,480.5 420.5,480.5 435.5,480.5C 436.167,480.5 436.5,480.833 436.5,481.5C 436.5,488.833 436.5,496.167 436.5,503.5C 451.5,503.5 466.5,503.5 481.5,503.5C 481.833,503.5 482.167,503.5 482.5,503.5C 482.5,503.833 482.5,504.167 482.5,504.5C 482.5,511.833 482.5,519.167 482.5,526.5C 518.5,526.5 554.5,526.5 590.5,526.5C 592.5,526.5 594.5,526.5 596.5,526.5C 596.5,526.833 596.5,527.167 596.5,527.5C 558.167,527.5 519.833,527.5 481.5,527.5C 481.5,519.833 481.5,512.167 481.5,504.5C 466.167,504.5 450.833,504.5 435.5,504.5C 435.5,496.833 435.5,489.167 435.5,481.5C 420.167,481.5 404.833,481.5 389.5,481.5C 389.5,473.833 389.5,466.167 389.5,458.5 Z"/></g>
<g><path style="opacity:1" fill="#846506" d="M 504.5,458.5 C 504.833,458.5 505.167,458.5 505.5,458.5C 505.5,473.833 505.5,489.167 505.5,504.5C 497.833,504.5 490.167,504.5 482.5,504.5C 482.5,504.167 482.5,503.833 482.5,503.5C 489.833,503.5 497.167,503.5 504.5,503.5C 504.5,488.5 504.5,473.5 504.5,458.5 Z"/></g>
<g><path style="opacity:1" fill="#535154" d="M 595.5,458.5 C 595.833,458.5 596.167,458.5 596.5,458.5C 597.833,481.167 597.833,503.833 596.5,526.5C 594.5,526.5 592.5,526.5 590.5,526.5C 555.002,525.667 519.336,525.167 483.5,525C 520.832,524.5 558.165,524.333 595.5,524.5C 595.5,502.5 595.5,480.5 595.5,458.5 Z"/></g>
<g><path style="opacity:1" fill="#131211" d="M 47.5,458.5 C 53.1667,458.5 58.8333,458.5 64.5,458.5C 59.6946,459.487 54.6946,459.821 49.5,459.5C 49.5,481.167 49.5,502.833 49.5,524.5C 93.5,524.5 137.5,524.5 181.5,524.5C 181.5,518.5 181.5,512.5 181.5,506.5C 177.774,506.177 174.107,506.511 170.5,507.5C 169.15,508.95 167.484,509.617 165.5,509.5C 165.5,510.5 165.5,511.5 165.5,512.5C 164.167,512.5 162.833,512.5 161.5,512.5C 161.762,513.978 161.429,515.311 160.5,516.5C 159.016,514.926 157.349,513.593 155.5,512.5C 157.323,510.842 158.99,509.009 160.5,507C 152.833,506.667 145.167,506.333 137.5,506C 136.833,505.333 136.167,504.667 135.5,504C 135.702,497.279 135.702,490.445 135.5,483.5C 122.167,483.5 108.833,483.5 95.5,483.5C 95.6663,490.175 95.4996,496.842 95,503.5C 94.6174,504.056 94.1174,504.389 93.5,504.5C 93.5,496.833 93.5,489.167 93.5,481.5C 108.167,481.5 122.833,481.5 137.5,481.5C 137.5,489.167 137.5,496.833 137.5,504.5C 152.833,504.5 168.167,504.5 183.5,504.5C 183.5,511.833 183.5,519.167 183.5,526.5C 138.167,526.5 92.8333,526.5 47.5,526.5C 47.5,503.833 47.5,481.167 47.5,458.5 Z"/></g>
</svg>
