<?xml version="1.0" encoding="UTF-8"?>
<!DOCTYPE svg PUBLIC "-//W3C//DTD SVG 1.1//EN" "http://www.w3.org/Graphics/SVG/1.1/DTD/svg11.dtd">
<svg xmlns="http://www.w3.org/2000/svg" version="1.1" width="600px" height="600px" style="shape-rendering:geometricPrecision; text-rendering:geometricPrecision; image-rendering:optimizeQuality; fill-rule:evenodd; clip-rule:evenodd" xmlns:xlink="http://www.w3.org/1999/xlink">
<g><path style="opacity:0.995" fill="#000000" d="M 263.5,-0.5 C 286.833,-0.5 310.167,-0.5 333.5,-0.5C 433.707,14.154 509.54,64.8207 561,151.5C 604.066,233.034 610.399,317.367 580,404.5C 542.987,495.936 477.487,556.77 383.5,587C 278.894,614.283 184.894,593.95 101.5,526C 43.9898,474.488 9.98976,410.322 -0.5,333.5C -0.5,310.167 -0.5,286.833 -0.5,263.5C 14.154,163.293 64.8207,87.46 151.5,36C 186.691,16.8798 224.025,4.71315 263.5,-0.5 Z"/></g>
<g><path style="opacity:1" fill="#52cfcf" d="M 357.5,162.5 C 336.833,162.5 316.167,162.5 295.5,162.5C 295.832,225.002 295.499,287.336 294.5,349.5C 294.5,286.833 294.5,224.167 294.5,161.5C 315.673,161.169 336.673,161.503 357.5,162.5 Z"/></g>
<g><path style="opacity:1" fill="#67fdfd" d="M 357.5,162.5 C 357.5,167.5 357.5,172.5 357.5,177.5C 341.833,177.5 326.167,177.5 310.5,177.5C 310.5,235.167 310.5,292.833 310.5,350.5C 305.167,350.5 299.833,350.5 294.5,350.5C 284.167,350.5 273.833,350.5 263.5,350.5C 263.5,350.167 263.5,349.833 263.5,349.5C 273.833,349.5 284.167,349.5 294.5,349.5C 295.499,287.336 295.832,225.002 295.5,162.5C 316.167,162.5 336.833,162.5 357.5,162.5 Z"/></g>
<g><path style="opacity:1" fill="#fefefe" d="M 357.5,177.5 C 357.5,187.833 357.5,198.167 357.5,208.5C 362.305,209.487 367.305,209.821 372.5,209.5C 372.179,214.695 372.513,219.695 373.5,224.5C 378.5,224.5 383.5,224.5 388.5,224.5C 388.5,229.833 388.5,235.167 388.5,240.5C 393.833,240.5 399.167,240.5 404.5,240.5C 404.5,245.833 404.5,251.167 404.5,256.5C 409.5,256.5 414.5,256.5 419.5,256.5C 419.5,266.5 419.5,276.5 419.5,286.5C 409.5,286.5 399.5,286.5 389.5,286.5C 389.821,281.305 389.487,276.305 388.5,271.5C 378.167,271.5 367.833,271.5 357.5,271.5C 357.5,302.833 357.5,334.167 357.5,365.5C 352.167,365.5 346.833,365.5 341.5,365.5C 341.5,370.833 341.5,376.167 341.5,381.5C 336.5,381.5 331.5,381.5 326.5,381.5C 325.513,386.305 325.179,391.305 325.5,396.5C 314.986,396.172 304.653,396.506 294.5,397.5C 294.5,402.5 294.5,407.5 294.5,412.5C 278.833,412.5 263.167,412.5 247.5,412.5C 247.5,407.5 247.5,402.5 247.5,397.5C 242.167,397.5 236.833,397.5 231.5,397.5C 226.695,396.513 221.695,396.179 216.5,396.5C 216.5,391.5 216.5,386.5 216.5,381.5C 216.5,376.167 216.5,370.833 216.5,365.5C 211.167,365.5 205.833,365.5 200.5,365.5C 200.5,349.833 200.5,334.167 200.5,318.5C 205.833,318.5 211.167,318.5 216.5,318.5C 216.5,308.167 216.5,297.833 216.5,287.5C 221.5,287.5 226.5,287.5 231.5,287.5C 231.5,282.167 231.5,276.833 231.5,271.5C 231.833,271.5 232.167,271.5 232.5,271.5C 242.833,271.5 253.167,271.5 263.5,271.5C 263.5,287.167 263.5,302.833 263.5,318.5C 258.167,318.5 252.833,318.5 247.5,318.5C 247.5,334.167 247.5,349.833 247.5,365.5C 252.833,365.5 258.167,365.5 263.5,365.5C 273.833,365.5 284.167,365.5 294.5,365.5C 294.5,360.5 294.5,355.5 294.5,350.5C 299.833,350.5 305.167,350.5 310.5,350.5C 310.5,292.833 310.5,235.167 310.5,177.5C 326.167,177.5 341.833,177.5 357.5,177.5 Z"/></g>
<g><path style="opacity:1" fill="#f74c4c" d="M 357.5,177.5 C 362.833,177.5 368.167,177.5 373.5,177.5C 373.5,187.833 373.5,198.167 373.5,208.5C 368.167,208.5 362.833,208.5 357.5,208.5C 357.5,198.167 357.5,187.833 357.5,177.5 Z"/></g>
<g><path style="opacity:1" fill="#b19695" d="M 357.5,208.5 C 362.833,208.5 368.167,208.5 373.5,208.5C 373.5,213.833 373.5,219.167 373.5,224.5C 372.513,219.695 372.179,214.695 372.5,209.5C 367.305,209.821 362.305,209.487 357.5,208.5 Z"/></g>
<g><path style="opacity:1" fill="#68fcfc" d="M 388.5,224.5 C 393.833,224.5 399.167,224.5 404.5,224.5C 404.5,229.833 404.5,235.167 404.5,240.5C 404.5,235.167 404.5,229.833 404.5,224.5C 399.167,224.5 393.833,224.5 388.5,224.5 Z"/></g>
<g><path style="opacity:1" fill="#6af8f8" d="M 404.5,240.5 C 409.833,240.5 415.167,240.5 420.5,240.5C 420.5,245.5 420.5,250.5 420.5,255.5C 420.5,255.833 420.5,256.167 420.5,256.5C 420.167,256.5 419.833,256.5 419.5,256.5C 414.5,256.5 409.5,256.5 404.5,256.5C 404.5,251.167 404.5,245.833 404.5,240.5 Z"/></g>
<g><path style="opacity:1" fill="#368888" d="M 263.5,256.5 C 253.167,256.5 242.833,256.5 232.5,256.5C 232.5,261.5 232.5,266.5 232.5,271.5C 232.167,271.5 231.833,271.5 231.5,271.5C 231.5,266.167 231.5,260.833 231.5,255.5C 242.346,255.172 253.013,255.506 263.5,256.5 Z"/></g>
<g><path style="opacity:1" fill="#65fdfd" d="M 263.5,256.5 C 263.5,261.5 263.5,266.5 263.5,271.5C 253.167,271.5 242.833,271.5 232.5,271.5C 232.5,266.5 232.5,261.5 232.5,256.5C 242.833,256.5 253.167,256.5 263.5,256.5 Z"/></g>
<g><path style="opacity:1" fill="#f74c4c" d="M 420.5,255.5 C 425.5,255.5 430.5,255.5 435.5,255.5C 435.5,271.5 435.5,287.5 435.5,303.5C 419.833,303.5 404.167,303.5 388.5,303.5C 388.5,298.167 388.5,292.833 388.5,287.5C 399.167,287.5 409.833,287.5 420.5,287.5C 420.5,277.167 420.5,266.833 420.5,256.5C 420.5,256.167 420.5,255.833 420.5,255.5 Z"/></g>
<g><path style="opacity:1" fill="#183d3d" d="M 216.5,271.5 C 216.5,276.833 216.5,282.167 216.5,287.5C 211.167,287.5 205.833,287.5 200.5,287.5C 205.305,286.513 210.305,286.179 215.5,286.5C 215.179,281.305 215.513,276.305 216.5,271.5 Z"/></g>
<g><path style="opacity:1" fill="#66fcfc" d="M 216.5,271.5 C 221.5,271.5 226.5,271.5 231.5,271.5C 231.5,276.833 231.5,282.167 231.5,287.5C 226.5,287.5 221.5,287.5 216.5,287.5C 216.5,282.167 216.5,276.833 216.5,271.5 Z"/></g>
<g><path style="opacity:1" fill="#fe4e4e" d="M 263.5,271.5 C 268.5,271.5 273.5,271.5 278.5,271.5C 278.5,287.167 278.5,302.833 278.5,318.5C 273.5,318.5 268.5,318.5 263.5,318.5C 263.5,302.833 263.5,287.167 263.5,271.5 Z"/></g>
<g><path style="opacity:1" fill="#f94d4d" d="M 388.5,271.5 C 388.5,276.833 388.5,282.167 388.5,287.5C 383.5,287.5 378.5,287.5 373.5,287.5C 373.5,313.5 373.5,339.5 373.5,365.5C 368.167,365.5 362.833,365.5 357.5,365.5C 357.5,334.167 357.5,302.833 357.5,271.5C 367.833,271.5 378.167,271.5 388.5,271.5 Z"/></g>
<g><path style="opacity:1" fill="#ffd3d3" d="M 419.5,256.5 C 419.833,256.5 420.167,256.5 420.5,256.5C 420.5,266.833 420.5,277.167 420.5,287.5C 409.833,287.5 399.167,287.5 388.5,287.5C 388.5,282.167 388.5,276.833 388.5,271.5C 389.487,276.305 389.821,281.305 389.5,286.5C 399.5,286.5 409.5,286.5 419.5,286.5C 419.5,276.5 419.5,266.5 419.5,256.5 Z"/></g>
<g><path style="opacity:1" fill="#68fefe" d="M 200.5,287.5 C 205.833,287.5 211.167,287.5 216.5,287.5C 216.5,297.833 216.5,308.167 216.5,318.5C 211.167,318.5 205.833,318.5 200.5,318.5C 200.5,308.167 200.5,297.833 200.5,287.5 Z"/></g>
<g><path style="opacity:1" fill="#63f8f8" d="M 200.5,318.5 C 200.5,334.167 200.5,349.833 200.5,365.5C 195.167,365.5 189.833,365.5 184.5,365.5C 184.5,349.833 184.5,334.167 184.5,318.5C 189.833,318.5 195.167,318.5 200.5,318.5 Z"/></g>
<g><path style="opacity:1" fill="#fb5050" d="M 263.5,318.5 C 263.5,328.833 263.5,339.167 263.5,349.5C 263.5,349.833 263.5,350.167 263.5,350.5C 263.5,355.5 263.5,360.5 263.5,365.5C 258.167,365.5 252.833,365.5 247.5,365.5C 247.5,349.833 247.5,334.167 247.5,318.5C 252.833,318.5 258.167,318.5 263.5,318.5 Z"/></g>
<g><path style="opacity:1" fill="#66fffe" d="M 263.5,350.5 C 273.833,350.5 284.167,350.5 294.5,350.5C 294.5,355.5 294.5,360.5 294.5,365.5C 284.167,365.5 273.833,365.5 263.5,365.5C 263.5,360.5 263.5,355.5 263.5,350.5 Z"/></g>
<g><path style="opacity:1" fill="#6afcfc" d="M 200.5,365.5 C 205.833,365.5 211.167,365.5 216.5,365.5C 216.5,370.833 216.5,376.167 216.5,381.5C 216.167,381.5 215.833,381.5 215.5,381.5C 210.5,381.5 205.5,381.5 200.5,381.5C 200.5,376.167 200.5,370.833 200.5,365.5 Z"/></g>
<g><path style="opacity:1" fill="#fb504f" d="M 357.5,365.5 C 357.5,370.833 357.5,376.167 357.5,381.5C 352.167,381.5 346.833,381.5 341.5,381.5C 341.5,376.167 341.5,370.833 341.5,365.5C 346.833,365.5 352.167,365.5 357.5,365.5 Z"/></g>
<g><path style="opacity:1" fill="#5a5a5a" d="M 215.5,381.5 C 215.833,381.5 216.167,381.5 216.5,381.5C 216.5,386.5 216.5,391.5 216.5,396.5C 221.695,396.179 226.695,396.513 231.5,397.5C 226.167,397.5 220.833,397.5 215.5,397.5C 215.5,392.167 215.5,386.833 215.5,381.5 Z"/></g>
<g><path style="opacity:1" fill="#f74c4c" d="M 326.5,381.5 C 331.5,381.5 336.5,381.5 341.5,381.5C 341.5,386.833 341.5,392.167 341.5,397.5C 336.5,397.5 331.5,397.5 326.5,397.5C 326.5,392.167 326.5,386.833 326.5,381.5 Z"/></g>
<g><path style="opacity:1" fill="#feacac" d="M 326.5,381.5 C 326.5,386.833 326.5,392.167 326.5,397.5C 315.833,397.5 305.167,397.5 294.5,397.5C 304.653,396.506 314.986,396.172 325.5,396.5C 325.179,391.305 325.513,386.305 326.5,381.5 Z"/></g>
<g><path style="opacity:1" fill="#f84d4d" d="M 231.5,397.5 C 236.833,397.5 242.167,397.5 247.5,397.5C 247.5,402.5 247.5,407.5 247.5,412.5C 242.167,412.5 236.833,412.5 231.5,412.5C 231.5,407.5 231.5,402.5 231.5,397.5 Z"/></g>
<g><path style="opacity:1" fill="#fa4e4e" d="M 294.5,397.5 C 305.167,397.5 315.833,397.5 326.5,397.5C 326.5,402.5 326.5,407.5 326.5,412.5C 315.833,412.5 305.167,412.5 294.5,412.5C 294.5,407.5 294.5,402.5 294.5,397.5 Z"/></g>
<g><path style="opacity:1" fill="#fd5050" d="M 247.5,412.5 C 263.167,412.5 278.833,412.5 294.5,412.5C 294.5,417.833 294.5,423.167 294.5,428.5C 278.833,428.5 263.167,428.5 247.5,428.5C 247.5,423.167 247.5,417.833 247.5,412.5 Z"/></g>
</svg>
